<svg xmlns="http://www.w3.org/2000/svg" xmlns:xlink="http://www.w3.org/1999/xlink" viewBox="0 0 328 256"><defs><style>.cls-1{fill:url(#Naamloos_verloop_11);}.cls-2{fill:#2d133f;}.cls-3{fill:#b4e1fa;}.cls-4{fill:#2d2e83;}.cls-5{fill:#706f6f;}.cls-6{fill:#e3e4e5;}.cls-7{fill:#f9b233;}.cls-10,.cls-11,.cls-8{fill:none;stroke-miterlimit:10;}.cls-8{stroke:#e3e4e5;}.cls-9{fill:#fff;}.cls-10,.cls-9{opacity:0.35;}.cls-10,.cls-11{stroke:#fff;stroke-width:4px;}.cls-10{stroke-linecap:round;}.cls-12{fill:url(#Naamloos_verloop_17);}.cls-13{fill:url(#Naamloos_verloop_124);}.cls-14{fill:#e94e1b;}</style><linearGradient id="Naamloos_verloop_11" x1="160.24" y1="5.24" x2="160.24" y2="255.4" gradientUnits="userSpaceOnUse"><stop offset="0" stop-color="#fcdfbb"/><stop offset="1" stop-color="#927eb9"/></linearGradient><linearGradient id="Naamloos_verloop_17" x1="166.55" y1="158.8" x2="250.5" y2="242.75" gradientUnits="userSpaceOnUse"><stop offset="0" stop-color="#f9b233"/><stop offset="0.25" stop-color="#f9af32"/><stop offset="0.44" stop-color="#f7a530"/><stop offset="0.61" stop-color="#f4952c"/><stop offset="0.77" stop-color="#f17e27"/><stop offset="0.92" stop-color="#ec6120"/><stop offset="1" stop-color="#e94e1b"/></linearGradient><linearGradient id="Naamloos_verloop_124" x1="235.45" y1="253.78" x2="235.45" y2="206.9" gradientUnits="userSpaceOnUse"><stop offset="0.03" stop-color="#2d2e83"/><stop offset="0.25" stop-color="#342674"/><stop offset="0.57" stop-color="#3b1d64"/><stop offset="0.82" stop-color="#3d1a5e"/></linearGradient></defs><title>zo werkt het_female_Tekengebied 1 kopie</title><g id="Zo_werkt_het" data-name="Zo werkt het"><circle class="cls-1" cx="160.24" cy="130.32" r="125.08"/><rect class="cls-2" x="63.53" y="8.61" width="122.96" height="219.82" rx="12" ry="12"/><rect class="cls-3" x="73.75" y="22.98" width="102.52" height="183.27" rx="12" ry="12"/><rect class="cls-4" x="113.21" y="14.68" width="27.6" height="2.74" rx="1.11" ry="1.11"/><rect class="cls-4" x="115.73" y="210.29" width="20.52" height="12.77" rx="5.2" ry="5.2"/><path class="cls-5" d="M176.27,148.86v45.28a12.15,12.15,0,0,1-12.11,12.11H85.85a12.14,12.14,0,0,1-12.1-12.11V148.86Z"/><rect class="cls-6" x="142.52" y="148.86" width="1.01" height="57.39"/><rect class="cls-6" x="73.75" y="187.36" width="102.52" height="1.01"/><rect class="cls-6" x="73.75" y="166.85" width="102.52" height="1.01"/><rect class="cls-6" x="106.5" y="148.86" width="1.01" height="57.39"/><path class="cls-6" d="M89.24,154.07h0l-1.55.84-.24-.92,2-1.05h1v9H89.24Z"/><path class="cls-6" d="M122.14,162v-.75l1-.92c2.29-2.18,3.32-3.34,3.33-4.69a1.6,1.6,0,0,0-1.78-1.75,3,3,0,0,0-1.9.76l-.39-.86a4,4,0,0,1,2.54-.91,2.53,2.53,0,0,1,2.75,2.61c0,1.65-1.2,3-3.09,4.81l-.72.66v0h4v1Z"/><path class="cls-6" d="M157.79,160.51a4,4,0,0,0,2,.57c1.56,0,2-1,2-1.74,0-1.26-1.15-1.8-2.32-1.8h-.68v-.91h.68c.88,0,2-.45,2-1.51,0-.72-.45-1.35-1.57-1.35a3.22,3.22,0,0,0-1.79.59l-.32-.88a4.22,4.22,0,0,1,2.34-.69c1.77,0,2.57,1,2.57,2.13a2.22,2.22,0,0,1-1.66,2.11v0a2.33,2.33,0,0,1,2,2.3c0,1.44-1.11,2.69-3.27,2.69a4.6,4.6,0,0,1-2.33-.6Z"/><path class="cls-6" d="M89.8,183.69v-2.44H85.63v-.8l4-5.72h1.31v5.57H92.2v.95H90.94v2.44Zm0-3.39v-3c0-.47,0-.94,0-1.41h0c-.28.52-.5.91-.74,1.32l-2.2,3.05v0Z"/><path class="cls-6" d="M127.61,175.67h-3.42l-.34,2.31a4.34,4.34,0,0,1,.73-.06,3.79,3.79,0,0,1,1.93.48,2.57,2.57,0,0,1,1.28,2.31,3.11,3.11,0,0,1-3.34,3.06,4.44,4.44,0,0,1-2.23-.55l.3-.93a4.07,4.07,0,0,0,1.92.5,2,2,0,0,0,2.12-1.95c0-1.15-.78-2-2.57-2a8,8,0,0,0-1.25.1l.58-4.31h4.29Z"/><path class="cls-6" d="M162.45,174.47a4.25,4.25,0,0,0-.91.05,3.65,3.65,0,0,0-3.12,3.19h0a2.73,2.73,0,0,1,4.87,1.86,3,3,0,0,1-3,3.16c-1.92,0-3.17-1.49-3.17-3.82a5.63,5.63,0,0,1,1.51-4,4.87,4.87,0,0,1,2.87-1.33,6.74,6.74,0,0,1,.89-.07Zm-.35,5.17a1.83,1.83,0,0,0-1.85-2.06,2,2,0,0,0-1.73,1.11.92.92,0,0,0-.14.53c0,1.48.7,2.57,2,2.57C161.4,181.79,162.1,180.92,162.1,179.64Z"/><path class="cls-6" d="M93.24,193.44v.8l-3.9,8.16H88.08L92,194.47v0H87.59v-1Z"/><path class="cls-6" d="M122,200.13a2.56,2.56,0,0,1,1.78-2.4l0,0a2.24,2.24,0,0,1-1.42-2,2.51,2.51,0,0,1,2.78-2.38,2.31,2.31,0,0,1,2.6,2.2,2.28,2.28,0,0,1-1.47,2.1v0A2.49,2.49,0,0,1,128,200a2.75,2.75,0,0,1-3,2.6C123.11,202.55,122,201.44,122,200.13Zm4.83-.06c0-1.09-.76-1.61-2-2a2,2,0,0,0-1.61,1.85,1.66,1.66,0,0,0,1.79,1.71A1.62,1.62,0,0,0,126.81,200.07Zm-3.34-4.48c0,.9.67,1.38,1.71,1.65a1.76,1.76,0,0,0,1.36-1.62,1.39,1.39,0,0,0-1.51-1.47A1.43,1.43,0,0,0,123.47,195.59Z"/><path class="cls-6" d="M158,201.55a5,5,0,0,0,1,0,3.42,3.42,0,0,0,1.87-.87,3.92,3.92,0,0,0,1.19-2.38h0a2.66,2.66,0,0,1-2.11,1,2.59,2.59,0,0,1-2.65-2.74,3.08,3.08,0,0,1,3.06-3.19c1.84,0,3,1.49,3,3.78a5.66,5.66,0,0,1-1.55,4.21,4.51,4.51,0,0,1-2.6,1.2,6,6,0,0,1-1.12.07Zm.44-5.16a1.73,1.73,0,0,0,1.72,1.91,2,2,0,0,0,1.77-.94.79.79,0,0,0,.11-.44c0-1.53-.57-2.71-1.83-2.71C159.17,194.21,158.44,195.12,158.44,196.39Z"/><path class="cls-7" d="M176.27,37V64.78H73.76V37c0-8.29,5.45-15.07,12.1-15.07h78.3C170.82,22,176.27,28.75,176.27,37Z"/><rect class="cls-8" x="87.3" y="29.98" width="15.64" height="15.64"/><rect class="cls-8" x="118.89" y="29.98" width="15.64" height="15.64" rx="6.37" ry="6.37"/><polygon class="cls-8" points="155.76 32.65 160.84 29.98 159.87 35.64 163.98 39.65 158.3 40.47 155.76 45.62 153.22 40.47 147.53 39.65 151.65 35.64 150.68 29.98 155.76 32.65"/><path class="cls-6" d="M94.09,53.28h0L92.7,54l-.21-.81,1.72-.92h.91v7.87h-1Z"/><path class="cls-6" d="M124.83,60.22v-.66l.83-.81c2-1.91,2.92-2.93,2.93-4.11A1.41,1.41,0,0,0,127,53.1a2.62,2.62,0,0,0-1.67.67L125,53a3.45,3.45,0,0,1,2.23-.8,2.21,2.21,0,0,1,2.4,2.28c0,1.46-1.05,2.63-2.71,4.23l-.63.58v0h3.54v.89Z"/><path class="cls-6" d="M154,58.93a3.58,3.58,0,0,0,1.74.49c1.37,0,1.79-.87,1.78-1.52,0-1.1-1-1.57-2-1.57h-.6v-.8h.6c.77,0,1.75-.4,1.75-1.33,0-.63-.4-1.19-1.38-1.19a2.9,2.9,0,0,0-1.57.52l-.28-.77a3.68,3.68,0,0,1,2.06-.61c1.55,0,2.25.92,2.25,1.88a2,2,0,0,1-1.45,1.85v0a2,2,0,0,1,1.75,2c0,1.26-1,2.36-2.87,2.36a3.94,3.94,0,0,1-2-.53Z"/><rect class="cls-9" x="78.55" y="48.43" width="3.95" height="102.29" rx="1.13" ry="1.13"/><path class="cls-10" d="M80.52,38.19A9.18,9.18,0,0,1,89.7,29"/><polygon class="cls-11" points="126.71 90 143.32 81.27 140.15 99.76 153.58 112.85 135.01 115.55 126.71 132.37 118.41 115.55 99.85 112.85 113.28 99.76 110.11 81.27 126.71 90"/><path class="cls-12" d="M259,231.07l-11.86-56.74-6.51-15.44c-1.16-1.42-4.84-1.07-5,.76l-.16.85c-.46,5.62-.21,7.42,1.25,12.88l5.55,27.35c-8.95-16.41-19.2-32.71-21.44-35.88-.31-.45-7.77-10.25-12.67-13.1l-6.68-2.4-1.08-.4-7.51-2.7c-2.5-.82-4.68.49-4.68,2.48a2.59,2.59,0,0,0,.08.66,2.35,2.35,0,0,0,.13.43c1.14,2.67,15.3,50.84,12,52.54-2.39,1.25-21.35-44.53-29.69-45.24-3.2-.28-6,2.39-4.71,5.17,8,17.66,17.6,40.37,28.4,57a73.3,73.3,0,0,0-7.37-.12c-22.45-8.76-29.45-2.6-29.67,2.93a3.61,3.61,0,0,0,3.4,3.71c17.67,1.24,51.86,27,56.33,18.17.4-.78.74-1.54,1.05-2.28,17.55,6.38,35.89-.8,37.94-4.91.53-1.05.49-2.78,0-5Z"/><path class="cls-13" d="M291.46,253.78h-112a18,18,0,0,1,10.09-13.16L252.68,209c8.87-4.44,19.09-1.63,22.4,6.14Z"/><path class="cls-14" d="M219.18,193.34a.38.38,0,0,1-.37.34h0a.37.37,0,0,1-.34-.39c0-.13.52-13.56-18-44.34l1.08.4C219.73,179.81,219.2,192.79,219.18,193.34Z"/></g></svg>