<svg xmlns="http://www.w3.org/2000/svg" xmlns:xlink="http://www.w3.org/1999/xlink" viewBox="0 0 328 256"><defs><style>.cls-1{fill:url(#Naamloos_verloop_11);}.cls-2{fill:#fff;}.cls-3{fill:url(#Naamloos_verloop_124);}.cls-4{fill:url(#Naamloos_verloop_124-2);}.cls-22,.cls-23,.cls-5{fill:#f9b233;}.cls-6{fill:#e94e1b;}.cls-7{fill:#f39200;}.cls-8{fill:#2d133f;}.cls-9{fill:#29235c;}.cls-10{fill:#2d2e83;}.cls-11{fill:url(#Naamloos_verloop_58);}.cls-12{fill:#b4e1fa;}.cls-13{fill:url(#Naamloos_verloop_44);}.cls-14{fill:url(#Naamloos_verloop_98);}.cls-15,.cls-17,.cls-24{fill:none;}.cls-15,.cls-22,.cls-23,.cls-24{stroke:#e94e1b;}.cls-15,.cls-17,.cls-23,.cls-24{stroke-linecap:round;}.cls-15,.cls-23,.cls-24{stroke-linejoin:round;}.cls-15{stroke-width:0.5px;}.cls-16{fill:url(#Naamloos_verloop_64);}.cls-17{stroke:#2d2e83;}.cls-17,.cls-22{stroke-miterlimit:10;}.cls-18{fill:url(#Naamloos_verloop_124-3);}.cls-19{fill:url(#Naamloos_verloop_124-4);}.cls-20{fill:url(#Naamloos_verloop_124-5);}.cls-21{fill:url(#Naamloos_verloop_27);}.cls-22,.cls-23,.cls-24{stroke-width:0.2px;}.cls-25{fill:url(#Naamloos_verloop_42);}.cls-26{fill:url(#Naamloos_verloop_64-2);}.cls-27{fill:#36a9e1;}.cls-28{fill:url(#Naamloos_verloop_98-2);}.cls-29{fill:url(#Naamloos_verloop_19);}.cls-30{fill:#fcea10;}.cls-31{fill:#3d1a5e;}.cls-32{fill:#e3e4e5;}.cls-33{fill:url(#Naamloos_verloop_19-2);}</style><linearGradient id="Naamloos_verloop_11" x1="170.71" y1="8.28" x2="170.71" y2="214.88" gradientUnits="userSpaceOnUse"><stop offset="0" stop-color="#fcdfbb"/><stop offset="1" stop-color="#927eb9"/></linearGradient><linearGradient id="Naamloos_verloop_124" x1="31.15" y1="308.35" x2="98.51" y2="308.35" gradientTransform="matrix(1, -0.22, 0.21, 0.98, -3.32, -124.88)" gradientUnits="userSpaceOnUse"><stop offset="0.03" stop-color="#2d2e83"/><stop offset="0.25" stop-color="#342674"/><stop offset="0.57" stop-color="#3b1d64"/><stop offset="0.82" stop-color="#3d1a5e"/></linearGradient><linearGradient id="Naamloos_verloop_124-2" x1="-1307.8" y1="8.51" x2="-1240.44" y2="8.51" gradientTransform="matrix(-1, -0.22, -0.21, 0.98, -1066.84, -124.88)" xlink:href="#Naamloos_verloop_124"/><linearGradient id="Naamloos_verloop_58" x1="165.79" y1="152.24" x2="165.79" y2="108.13" gradientUnits="userSpaceOnUse"><stop offset="0" stop-color="#36a9e1"/><stop offset="0.11" stop-color="#54b6e7"/><stop offset="0.25" stop-color="#76c6ee"/><stop offset="0.4" stop-color="#91d2f3"/><stop offset="0.55" stop-color="#a5daf7"/><stop offset="0.71" stop-color="#b0dff9"/><stop offset="0.87" stop-color="#b4e1fa"/></linearGradient><linearGradient id="Naamloos_verloop_44" x1="141.33" y1="163.22" x2="181.32" y2="163.22" gradientUnits="userSpaceOnUse"><stop offset="0" stop-color="#2d2e83"/><stop offset="0.22" stop-color="#2d2771"/><stop offset="0.65" stop-color="#2e1543"/><stop offset="0.68" stop-color="#2e133f"/></linearGradient><linearGradient id="Naamloos_verloop_98" x1="181.74" y1="138.64" x2="181.74" y2="217.44" gradientUnits="userSpaceOnUse"><stop offset="0" stop-color="#36a9e1"/><stop offset="0.08" stop-color="#3596d3"/><stop offset="0.27" stop-color="#3271b6"/><stop offset="0.46" stop-color="#3054a0"/><stop offset="0.64" stop-color="#2e3f90"/><stop offset="0.83" stop-color="#2d3286"/><stop offset="1" stop-color="#2d2e83"/></linearGradient><linearGradient id="Naamloos_verloop_64" x1="147.87" y1="61.38" x2="147.87" y2="67.73" gradientTransform="translate(7.25)" gradientUnits="userSpaceOnUse"><stop offset="0" stop-color="#2d2e83"/><stop offset="0.06" stop-color="#262b70"/><stop offset="0.16" stop-color="#1e285a"/><stop offset="0.25" stop-color="#1a264d"/><stop offset="0.33" stop-color="#182549"/></linearGradient><linearGradient id="Naamloos_verloop_124-3" x1="150.24" y1="108.13" x2="150.24" y2="152.24" gradientTransform="matrix(1, 0, 0, 1, 0, 0)" xlink:href="#Naamloos_verloop_124"/><linearGradient id="Naamloos_verloop_124-4" x1="135.35" y1="106.64" x2="135.35" y2="178.05" gradientTransform="matrix(1, 0, 0, 1, 0, 0)" xlink:href="#Naamloos_verloop_124"/><linearGradient id="Naamloos_verloop_124-5" x1="-988.01" y1="-430.07" x2="-959.96" y2="-430.07" gradientTransform="translate(-797.57 510.54) rotate(135)" xlink:href="#Naamloos_verloop_124"/><linearGradient id="Naamloos_verloop_27" x1="-860.12" y1="-389.02" x2="-860.12" y2="-339.74" gradientTransform="matrix(-0.56, 0.86, -0.93, -0.79, -630.82, 573.24)" gradientUnits="userSpaceOnUse"><stop offset="0.03" stop-color="#2d2e83"/><stop offset="0.82" stop-color="#3d1a5e"/></linearGradient><linearGradient id="Naamloos_verloop_42" x1="167.09" y1="23.31" x2="167.09" y2="63.42" gradientUnits="userSpaceOnUse"><stop offset="0" stop-color="#2d2e83"/><stop offset="0.04" stop-color="#2d2d80"/><stop offset="0.45" stop-color="#2d1f5c"/><stop offset="0.78" stop-color="#2d1647"/><stop offset="1" stop-color="#2d133f"/></linearGradient><linearGradient id="Naamloos_verloop_64-2" x1="167.73" y1="61.52" x2="167.73" y2="67.87" xlink:href="#Naamloos_verloop_64"/><linearGradient id="Naamloos_verloop_98-2" x1="147.84" y1="263.94" x2="179.07" y2="263.94" gradientTransform="matrix(1, -0.09, 0.09, 1, -17.33, -45.5)" xlink:href="#Naamloos_verloop_98"/><linearGradient id="Naamloos_verloop_19" x1="-1269.36" y1="472.82" x2="-1269.36" y2="498.02" gradientTransform="matrix(-0.74, 0.28, 0.41, 0.79, -951.36, 188.84)" gradientUnits="userSpaceOnUse"><stop offset="0" stop-color="#f9b233"/><stop offset="0.81" stop-color="#e94e1b"/></linearGradient><linearGradient id="Naamloos_verloop_19-2" x1="337.4" y1="141.49" x2="337.4" y2="165.96" gradientTransform="matrix(0.79, 0.09, -0.11, 0.99, -87.81, 56.57)" xlink:href="#Naamloos_verloop_19"/></defs><title>ongestoord_female_Tekengebied 1 kopie 2</title><g id="Zo_werkt_het" data-name="Zo werkt het"><circle class="cls-1" cx="170.71" cy="111.58" r="103.3"/></g><g id="Ongestoord"><circle class="cls-2" cx="158.63" cy="198.41" r="26.96"/><circle class="cls-2" cx="95.04" cy="172.66" r="20.53"/><circle class="cls-2" cx="264.14" cy="167.68" r="10.2"/><circle class="cls-2" cx="100.61" cy="147.22" r="10.2"/><circle class="cls-2" cx="131.67" cy="203.66" r="10.2"/><circle class="cls-2" cx="194.78" cy="198.03" r="26.96"/><circle class="cls-2" cx="129.63" cy="150.53" r="26.96"/><circle class="cls-2" cx="111.09" cy="186.51" r="26.96"/><circle class="cls-2" cx="209.69" cy="168.04" r="26.96"/><rect class="cls-2" x="54.88" y="170.65" width="218.85" height="15.82" rx="7.91" ry="7.91"/><circle class="cls-2" cx="66.81" cy="177.49" r="26.96"/><circle class="cls-2" cx="261.19" cy="195.03" r="26.96"/><circle class="cls-2" cx="243.61" cy="177.11" r="20.53"/><circle class="cls-2" cx="230.22" cy="193.19" r="20.53"/><circle class="cls-2" cx="84.12" cy="198.2" r="20.53"/><circle class="cls-2" cx="243.61" cy="162.43" r="20.53"/><path class="cls-3" d="M151.54,128.94s-17.19,23.26-47.11,40.68c-22.72,13.23,4.09,17.74,22.67,19.68,5.5.57,18.4-2.63,19-8,1.78-15,6.63-42,9.74-43.32C160.17,136.1,151.54,128.94,151.54,128.94Z"/><path class="cls-4" d="M184.08,128.94s17.19,23.26,47.11,40.68c22.73,13.23-4.08,17.74-22.67,19.68-5.5.57-18.39-2.63-19-8-1.78-15-6.63-42-9.74-43.32C175.45,136.1,184.08,128.94,184.08,128.94Z"/><path class="cls-5" d="M103.55,178.62a1.43,1.43,0,0,0-.63.78l-.06.28h0a1.45,1.45,0,0,0,.33,1.1.34.34,0,0,0,.12.12,1.3,1.3,0,0,0,.75.36,56.56,56.56,0,0,0,13.13.43,38.12,38.12,0,0,0,4.19-.61c.25-.06.49-.12.73-.2a6.43,6.43,0,0,0,1-.44l.29-.17.27-.19.1-.08.06-.05a5.66,5.66,0,0,0,2.14-4.44v0s0,0-.06-.05a30.91,30.91,0,0,0-5.18-.69l-1.21,0A30,30,0,0,0,103.55,178.62Z"/><path class="cls-5" d="M122.33,178.2l-1.16.79-.67.45-3.31,2.25-2.62,1.78a1.1,1.1,0,0,0-.29,1.51l.08.1a1.07,1.07,0,0,0,1.5.29l6.45-4.38.78-.54.27-.18.26-.18a.61.61,0,0,0,.17-.14,1.09,1.09,0,0,0,.12-1.36l-.07-.11A1.09,1.09,0,0,0,122.33,178.2Z"/><path class="cls-6" d="M103.19,180.78a.63.63,0,0,0,.11.12c2.64-2.46,13.44-1.84,13.56-1.83s.08,0,.09-.09a.11.11,0,0,0-.09-.09C116.42,178.87,105.88,178.26,103.19,180.78Z"/><path class="cls-6" d="M102.92,179.4c2.87-2.38,10.46-3.61,10.8-3.66,0,0,.08,0,.09.07a.09.09,0,0,1-.07.1c-.08,0-8.18,1.32-10.88,3.77h0Z"/><path class="cls-7" d="M119.48,174.69a5.62,5.62,0,0,0,.34,3.62,5.14,5.14,0,0,0,.68,1.13,5.66,5.66,0,0,0,1.61,1.44l.2.11.78-.54.27-.18.26-.18a.61.61,0,0,0,.17-.14,5.66,5.66,0,0,0,2.14-4.44v0s0,0-.06-.05a30.91,30.91,0,0,0-5.18-.69Z"/><path class="cls-8" d="M192.14,56.44V84.32c0,8.68-7.37,15.8-16.38,15.8H156.34c-9,0-16.38-7.12-16.38-15.8V56.44a67.75,67.75,0,0,1,.74-9.15c0-.17,0-.33.06-.51l.21-1.25a1.28,1.28,0,0,1,.06-.35c1.84-9.17,8.93-16.08,14.81-19l19.92,1.25C184.77,27.47,192.14,47.76,192.14,56.44Z"/><path class="cls-9" d="M185,157s19.36,9.06-7.43,27.94S161.51,141,185,157Z"/><ellipse class="cls-10" cx="153.93" cy="167.36" rx="17.35" ry="10.83" transform="translate(-69.95 207.12) rotate(-57.46)"/><path class="cls-9" d="M179.44,152.24H152.66a27.57,27.57,0,0,1,26.78,0Z"/><path class="cls-11" d="M189.88,114.63l-8.51,37.61H150.15l.06-.7-4-17.32-2.66-11.54-1.86-8c-.77-3.37,2.21-6.51,6.2-6.51h35.77C187.65,108.13,190.63,111.26,189.88,114.63Z"/><rect class="cls-7" x="150.15" y="152.24" width="31.26" height="3.29"/><path class="cls-12" d="M164.81,126.38a10.94,10.94,0,0,1-10.94,10.94,12,12,0,0,1-1.72-.13,10.95,10.95,0,0,1,1.72-21.76,10.89,10.89,0,0,1,10.94,10.95Z"/><circle class="cls-12" cx="178.06" cy="126.92" r="10.95"/><path class="cls-13" d="M160.38,147.88s-39.85,34.57-4.27,38.5c0,0,29.42.76,24.7-22.83C178.35,151.27,184.39,127.8,160.38,147.88Z"/><path class="cls-14" d="M192.55,217.31h0c-2.9.67-5.93-1.43-7-4.83l-18.24-58.33c-2.15-6.86,1.05-14,6.9-15.29h0c5.8-1.33,11.72,3.56,12.84,10.59l9.67,60.37C197.3,213.38,195.48,216.64,192.55,217.31Z"/><path class="cls-5" d="M174.65,97.22v9.45a8.23,8.23,0,0,1-16.45,0V97.22A8.22,8.22,0,0,1,174.64,97,1.21,1.21,0,0,1,174.65,97.22Z"/><path class="cls-7" d="M186,43.29v35.4a20.54,20.54,0,0,1-10.64,18,7.79,7.79,0,0,1-.76.39,1.21,1.21,0,0,1,0,.19v2.39a20.26,20.26,0,0,1-9.12,2.16,19.94,19.94,0,0,1-7.27-1.35l-.06,0V97.83A20.56,20.56,0,0,1,145,78.69V43.36c.24-.73.5-1.45.78-2.14h0c6.58-16.43,20-13.74,20-13.74a9.58,9.58,0,0,1,4.16-.69c5.85.3,11.71,5.6,15.46,11.48A20.33,20.33,0,0,1,186,43.29Z"/><path class="cls-5" d="M186,43.29v35.4a20.54,20.54,0,0,1-10.64,18,7.79,7.79,0,0,1-.76.39,20.12,20.12,0,0,1-9.11,2.17,20.36,20.36,0,0,1-7.27-1.34l-.06,0A20.56,20.56,0,0,1,145,78.69V43.36c.24-.73.5-1.45.78-2.14h0c3.67-9.19,9.51-12.4,13.92-13.44a16.53,16.53,0,0,1,3.27-.43,13.07,13.07,0,0,1,2.8.13,9.58,9.58,0,0,1,4.16-.69c5.85.3,11.71,5.6,15.46,11.48A20.33,20.33,0,0,1,186,43.29Z"/><path class="cls-15" d="M165,64.27l.17,4.76a2.23,2.23,0,0,0,1.23,2.11c.81.3,1.36,1.43-1.07,5.24,0,0-.2.41,0,.58"/><rect class="cls-16" x="152.98" y="61.38" width="4.29" height="6.35" rx="2.14" ry="2.14"/><circle class="cls-12" cx="152.98" cy="63.35" r="0.88"/><path class="cls-7" d="M140.2,61.7A4.82,4.82,0,0,0,145,66.52V56.88A4.82,4.82,0,0,0,140.2,61.7Z"/><path class="cls-7" d="M190.86,61.23A4.82,4.82,0,0,1,186,66.05V56.41A4.82,4.82,0,0,1,190.86,61.23Z"/><path class="cls-17" d="M158.2,56.09a5.73,5.73,0,0,0-7.82,2.17"/><path class="cls-7" d="M186,43.29V66.11c-17.43-3.68-27.71-22.51-27.71-22.51C152.6,55,148.27,59.12,145.52,60.48a3,3,0,0,1-.5.19V43.36c.24-.73.5-1.45.78-2.14h0c3.67-9.19,9.51-12.4,13.92-13.44.31-.05.62-.08.9-.11a21.08,21.08,0,0,0,2.37-.32,13.07,13.07,0,0,1,2.8.13,9.58,9.58,0,0,1,4.16-.69c5.85.3,11.71,5.6,15.46,11.48A20.33,20.33,0,0,1,186,43.29Z"/><path class="cls-17" d="M171.48,56.23a5.74,5.74,0,0,1,7.82,2.18"/><ellipse class="cls-12" cx="143.32" cy="67.91" rx="0.85" ry="3.64"/><ellipse class="cls-12" cx="187.6" cy="67.91" rx="0.85" ry="3.64"/><path class="cls-18" d="M158.2,108.13l-.3,3.77a23.27,23.27,0,0,0,.8,8.18h0a5,5,0,0,1-1.09,4.78c-1.72,1.84-4.13,5.5-5.46,12.33-.74,3.83-1.5,9.26-2,15.05l-3.93-18a10.92,10.92,0,0,1-3.3-7.84,10.78,10.78,0,0,1,.64-3.7l-1.86-8c-.77-3.37,2.21-6.51,6.2-6.51Z"/><path class="cls-19" d="M126.31,177.72l-5.6-1.75c-4.35-1.36-6.37-6.5-4.33-11l24-53.23A8.09,8.09,0,0,1,150,107h0c4,1.26,6.12,5.81,4.66,10.17l-18.41,55C134.79,176.47,130.34,179,126.31,177.72Z"/><path class="cls-20" d="M180.38,106.41l5.2-2.72c4-2.11,9.1.09,10.85,4.73l13.15,30.84a8.13,8.13,0,0,1-3.43,10.16h0c-3.74,2-8.44.21-10.49-3.9L177.31,117.4C175.27,113.29,176.64,108.37,180.38,106.41Z"/><path class="cls-21" d="M169,100.83l4.77-3.42c3.7-2.66,9.6-.33,12.66,5l21.89,35.34c2.61,4.56,2.2,9.73-1,12h0c-3.43,2.46-8.83.65-12.06-4L168.65,113.8C165.42,109.1,165.59,103.3,169,100.83Z"/><line class="cls-5" x1="172.05" y1="105.65" x2="172.25" y2="105.6"/><path class="cls-7" d="M165.91,85.32h-5.35a.06.06,0,0,1,0,0,.09.09,0,0,1,0,0,0,0,0,0,1,0,0,2.67,2.67,0,0,1,5-1.25,2.51,2.51,0,0,1,.37,1.25A.49.49,0,0,1,165.91,85.32Z"/><path class="cls-7" d="M170.5,85.3v0h-5.35V85.2a2.52,2.52,0,0,1,.38-1.25,2.67,2.67,0,0,1,5,1.25Z"/><path class="cls-7" d="M170.5,85.2v.12a.92.92,0,0,1,0,.16,5,5,0,0,1-9.93-.08.22.22,0,0,1,0-.08.06.06,0,0,1,0,0V85.2Z"/><ellipse class="cls-6" cx="165.53" cy="85.7" rx="1.94" ry="0.5"/><path class="cls-22" d="M164.35,82.08c-.35,0-.32.53-.28.87.2,1.5.76,5,1.2,7.14.16.74.33,1.52.53,2.3a10.44,10.44,0,0,0-2.2,2.92c-.34.83.66.45,1.92-.25a7.91,7.91,0,0,0-.86,1.24,4,4,0,0,0-2.24-.15,1.34,1.34,0,0,0,.18,1.65l5.62,5.55.08.09a4.46,4.46,0,0,0,8.62-2,4.15,4.15,0,0,0-.15-.88,11.17,11.17,0,0,0-1.18-5.2,4.73,4.73,0,0,0-.44-.66.08.08,0,0,0,0,0,6,6,0,0,0-5-3.79c-.27,0-1-.17-1.62-.22a.78.78,0,0,1,0-.14C166.09,82.9,164.35,82.08,164.35,82.08Zm2.16,15.28a6.79,6.79,0,0,0-.75-.55c.34-.16.71-.38,1.09-.59.22.73.45,1.48.72,2.22Z"/><path class="cls-23" d="M166.7,95a8.4,8.4,0,0,1-1.88,1.86,1.35,1.35,0,0,1-1.76-2l2.57-2.34.27-.27c.36-.4,1.69-1.78,2.8-1.63"/><path class="cls-23" d="M167.87,96c-4.73,3.21-4.46.49-4.46.49l4.08-2.94s1.06-1,5.19-.4"/><path class="cls-24" d="M173.66,95.06,168,94.81s-1.19,1.41,1.34,1.87c3.24.59,3.43,1,3.43,1s-5.81,2.59-1.54,6.86"/><path class="cls-25" d="M191.52,61.51a4.79,4.79,0,0,1-5,1.79c-17.7-3.45-28.16-22.61-28.16-22.61-5.73,11.42-10.06,15.51-12.81,16.88a3,3,0,0,1-4.23-2,23.27,23.27,0,0,1-.59-8.29c0-.17,0-.33.06-.51l.21-1.25a1.28,1.28,0,0,1,.06-.35c1.84-9.17,8.93-16.08,14.81-19a13.55,13.55,0,0,1,4.78-1.47c3-.23,5.85-1.28,8.82-1.42C190.55,22.37,197.59,53.73,191.52,61.51Z"/><rect class="cls-26" x="172.84" y="61.52" width="4.29" height="6.35" rx="2.14" ry="2.14"/><circle class="cls-12" cx="172.84" cy="63.49" r="0.88"/><path class="cls-10" d="M143.32,55.8a.31.31,0,1,1,0-.62,4.44,4.44,0,0,0,4.43-4.44.31.31,0,0,1,.62,0A5.06,5.06,0,0,1,143.32,55.8Z"/><path class="cls-27" d="M193.75,110a.31.31,0,0,1-.31-.31,4.44,4.44,0,0,0-4.43-4.43.32.32,0,0,1,0-.63,5.06,5.06,0,0,1,5.05,5.06A.31.31,0,0,1,193.75,110Z"/><path class="cls-27" d="M141.8,114.26a.31.31,0,0,1-.32-.31,5.07,5.07,0,0,1,5.06-5.06.32.32,0,0,1,0,.63,4.44,4.44,0,0,0-4.43,4.43A.31.31,0,0,1,141.8,114.26Z"/><path class="cls-10" d="M187,61.05c-7.51,0-20.59-12.87-21.2-13.47a.31.31,0,0,1,0-.44.31.31,0,0,1,.44,0c.16.16,16.16,15.92,22.61,12.92a.31.31,0,0,1,.41.16.3.3,0,0,1-.15.41A4.86,4.86,0,0,1,187,61.05Z"/><rect class="cls-5" x="150.72" y="152.83" width="0.78" height="2.29" rx="0.31" ry="0.31"/><path class="cls-12" d="M170.49,143.37h-.07a.17.17,0,0,1-.08-.21c.57-1.29,1.27-1.47,1.3-1.47a.16.16,0,0,1,.08.3s-.59.17-1.09,1.3A.15.15,0,0,1,170.49,143.37Z"/><path class="cls-12" d="M186.88,204.7a.16.16,0,0,1-.15-.09c-.46-1.12-.92-2.22-1.36-3.3a.15.15,0,0,1,.08-.2.15.15,0,0,1,.21.08c.44,1.08.89,2.18,1.36,3.3a.15.15,0,0,1-.08.2Zm-2.71-6.6a.18.18,0,0,1-.15-.1l-1.32-3.31a.17.17,0,0,1,.09-.21.16.16,0,0,1,.2.09l1.32,3.31a.15.15,0,0,1-.08.21Zm-2.62-6.64a.15.15,0,0,1-.14-.1c-.44-1.14-.87-2.25-1.27-3.33a.15.15,0,0,1,.09-.21.15.15,0,0,1,.2.1c.41,1.08.83,2.19,1.27,3.33a.16.16,0,0,1-.09.2ZM179,184.78a.18.18,0,0,1-.15-.1c-.42-1.15-.82-2.27-1.21-3.36a.16.16,0,0,1,.3-.1c.38,1.09.79,2.2,1.21,3.35a.16.16,0,0,1-.1.2Zm-2.38-6.72a.17.17,0,0,1-.15-.11c-.4-1.17-.77-2.29-1.13-3.39a.15.15,0,0,1,.1-.19.15.15,0,0,1,.2.1c.35,1.09.73,2.21,1.13,3.38a.16.16,0,0,1-.1.2Zm-2.21-6.79a.15.15,0,0,1-.15-.11c-.37-1.19-.71-2.34-1-3.42a.16.16,0,0,1,.1-.2.18.18,0,0,1,.2.11c.31,1.08.65,2.23,1,3.42a.15.15,0,0,1-.1.19Zm-2-6.86a.15.15,0,0,1-.15-.11c-.31-1.18-.6-2.34-.87-3.47a.15.15,0,0,1,.12-.18.17.17,0,0,1,.19.11c.26,1.12.55,2.28.86,3.46a.16.16,0,0,1-.11.19Zm-1.63-6.94a.15.15,0,0,1-.15-.12c-.25-1.24-.45-2.43-.62-3.53a.16.16,0,0,1,.13-.17.14.14,0,0,1,.18.13c.16,1.09.37,2.27.62,3.5a.17.17,0,0,1-.13.19Zm-1-7.06a.16.16,0,0,1-.16-.14c-.06-.8-.09-1.56-.09-2.26,0-.46,0-.91,0-1.33a.16.16,0,0,1,.16-.14h0a.15.15,0,0,1,.14.16c0,.42,0,.85,0,1.31,0,.69,0,1.44.08,2.24a.15.15,0,0,1-.14.16Z"/><path class="cls-12" d="M189,209.76a.16.16,0,0,1-.15-.09l-.73-1.73a.15.15,0,0,1,.08-.2.16.16,0,0,1,.21.08l.73,1.73a.14.14,0,0,1-.08.2Z"/><path class="cls-28" d="M176.31,164.8c7.18,2.8,5.2,13.32,4.42,16.48l-14.1,57.35a5.52,5.52,0,0,1-6.23,4.18h0a5.51,5.51,0,0,1-4.56-6l5.64-58.75S162.92,159.58,176.31,164.8Z"/><path class="cls-5" d="M186.76,216.21s4.66,13.79,7.15,15.15l14-6.22s-9.65-10.61-10.06-14.51Z"/><path class="cls-29" d="M197.8,226.88l1.23-.46a3.32,3.32,0,0,0,2.16-4.11l-2.35-15a4.36,4.36,0,0,0-5.64-2.52l-7.81,3.64a3.31,3.31,0,0,0-1.6,5.21l8.94,11.85A4.48,4.48,0,0,0,197.8,226.88Z"/><path class="cls-30" d="M192,230.7l17.91-7.95A9.8,9.8,0,0,0,192,230.7Z"/><rect class="cls-31" x="191.43" y="226.66" width="19.6" height="1.38" transform="translate(477.42 353.44) rotate(156.05)"/><path class="cls-32" d="M193.15,225.55a.31.31,0,0,1-.32-.31,5.07,5.07,0,0,1,5.06-5.06.32.32,0,0,1,.31.32.31.31,0,0,1-.31.31,4.44,4.44,0,0,0-4.43,4.43A.31.31,0,0,1,193.15,225.55Z"/><path class="cls-12" d="M180,179.46h0a.16.16,0,0,1-.12-.19l.46-1.82a.16.16,0,0,1,.19-.11.15.15,0,0,1,.12.19l-.47,1.82A.13.13,0,0,1,180,179.46Z"/><path class="cls-12" d="M167,230.66h0a.15.15,0,0,1-.11-.19l.93-3.65a.15.15,0,0,1,.19-.12.16.16,0,0,1,.11.19l-.93,3.66A.16.16,0,0,1,167,230.66Zm1.86-7.32h0a.16.16,0,0,1-.12-.19l.93-3.66a.16.16,0,0,1,.19-.11.16.16,0,0,1,.12.19l-.93,3.66A.15.15,0,0,1,168.89,223.34Zm1.86-7.31h0a.16.16,0,0,1-.12-.19l.93-3.66a.16.16,0,0,1,.19-.11.15.15,0,0,1,.12.19l-.93,3.65A.16.16,0,0,1,170.75,216Zm1.86-7.31h-.05a.15.15,0,0,1-.11-.19l.93-3.65a.17.17,0,0,1,.19-.12.16.16,0,0,1,.11.19l-.93,3.66A.15.15,0,0,1,172.61,208.72Zm1.85-7.32h0a.16.16,0,0,1-.11-.19l.93-3.66a.15.15,0,0,1,.19-.11.16.16,0,0,1,.11.19l-.93,3.66A.15.15,0,0,1,174.46,201.4Zm1.86-7.31h0a.16.16,0,0,1-.11-.19l.93-3.66a.16.16,0,1,1,.3.08l-.93,3.65A.16.16,0,0,1,176.32,194.09Zm1.86-7.31h0a.14.14,0,0,1-.11-.19l.92-3.65a.17.17,0,0,1,.19-.12.16.16,0,0,1,.12.19l-.93,3.66A.16.16,0,0,1,178.18,186.78Z"/><path class="cls-12" d="M165.64,236.13h0a.15.15,0,0,1-.11-.19l.46-1.82a.16.16,0,1,1,.3.08l-.46,1.82A.15.15,0,0,1,165.64,236.13Z"/><path class="cls-5" d="M167.88,237.72s-.26,14.55-2.22,16.6l-15.23-1.68s6-13,5.19-16.88Z"/><path class="cls-33" d="M160.92,251.1l-1.3-.15a4,4,0,0,1-3.44-3.88l-.81-16.26a4.12,4.12,0,0,1,4.37-4.46l6.29.7a4.11,4.11,0,0,1,3.3,5.26L165.14,248A4,4,0,0,1,160.92,251.1Z"/><path class="cls-30" d="M167.29,253.11,147.81,251a9.8,9.8,0,0,1,19.48,2.15Z"/><rect class="cls-31" x="147.67" y="252.03" width="19.6" height="1.38" transform="translate(28.78 -15.8) rotate(6.32)"/><path class="cls-32" d="M150.43,249.49a.31.31,0,0,1-.32-.31,5.07,5.07,0,0,1,5.06-5.06.32.32,0,0,1,0,.63,4.44,4.44,0,0,0-4.43,4.43A.31.31,0,0,1,150.43,249.49Z"/></g></svg>