<svg id="Cognitie" xmlns="http://www.w3.org/2000/svg" xmlns:xlink="http://www.w3.org/1999/xlink" viewBox="0 0 328 256"><defs><style>.cls-1,.cls-13{fill:none;}.cls-2{clip-path:url(#clip-path);}.cls-3{clip-path:url(#clip-path-2);}.cls-4{fill:url(#Naamloos_verloop_2);}.cls-5{fill:#b4e1fa;}.cls-6{fill:#2d133f;}.cls-12,.cls-7{fill:#f39200;}.cls-8{fill:url(#Naamloos_verloop_88);}.cls-9{fill:url(#Naamloos_verloop_100);}.cls-10{fill:url(#Naamloos_verloop_97);}.cls-11{fill:url(#Naamloos_verloop_42);}.cls-12,.cls-13{stroke:#e94e1b;stroke-linecap:round;stroke-linejoin:round;stroke-width:0.5px;}.cls-14{fill:url(#Naamloos_verloop_113);}.cls-15{fill:url(#Naamloos_verloop_113-2);}</style><clipPath id="clip-path"><rect class="cls-1" x="44.9" y="13.93" width="240.76" height="240.76"/></clipPath><clipPath id="clip-path-2"><path class="cls-1" d="M165.29,13.93A120.39,120.39,0,0,0,44.9,134.31q0,1.23,0,2.46A120.44,120.44,0,0,0,49,165.63c0,.1,0,.2.08.3.06.25.14.5.21.74.21.78.44,1.56.68,2.34l.09.29c1.08,3.58,2.32,7.1,3.73,10.53.82,2,1.71,4,2.64,6a120.42,120.42,0,0,0,217.67,0c.93-2,1.82-4,2.64-6,1.41-3.43,2.66-7,3.74-10.53l0-.11c.25-.84.5-1.68.73-2.52.08-.24.15-.49.21-.74,0-.1.06-.2.08-.3A120.46,120.46,0,0,0,165.29,13.93Z"/></clipPath><linearGradient id="Naamloos_verloop_2" x1="-0.63" y1="0.09" x2="-0.03" y2="0.09" gradientTransform="matrix(0, -401.33, -401.33, 0, 200.67, 0)" gradientUnits="userSpaceOnUse"><stop offset="0" stop-color="#927eb9"/><stop offset="0.08" stop-color="#927eb9"/><stop offset="0.24" stop-color="#9e89b9"/><stop offset="0.53" stop-color="#bda6ba"/><stop offset="0.9" stop-color="#f0d5bb"/><stop offset="1" stop-color="#fee2bb"/></linearGradient><linearGradient id="Naamloos_verloop_88" x1="166.25" y1="191.67" x2="166.25" y2="36.6" gradientUnits="userSpaceOnUse"><stop offset="0" stop-color="#f9b233"/><stop offset="0.17" stop-color="#f8ae32"/><stop offset="0.35" stop-color="#f6a22f"/><stop offset="0.52" stop-color="#f38d2a"/><stop offset="0.7" stop-color="#ef7123"/><stop offset="0.87" stop-color="#e94e1b"/></linearGradient><linearGradient id="Naamloos_verloop_100" x1="232.6" y1="118.77" x2="218.97" y2="118.77" gradientUnits="userSpaceOnUse"><stop offset="0.04" stop-color="#f39200"/><stop offset="0.31" stop-color="#f38f01"/><stop offset="0.52" stop-color="#f18405"/><stop offset="0.73" stop-color="#ee730c"/><stop offset="0.92" stop-color="#eb5b16"/><stop offset="1" stop-color="#e94e1b"/></linearGradient><linearGradient id="Naamloos_verloop_97" x1="99.9" y1="118.77" x2="113.53" y2="118.77" gradientUnits="userSpaceOnUse"><stop offset="0.04" stop-color="#f39200"/><stop offset="0.35" stop-color="#f38f01"/><stop offset="0.56" stop-color="#f18605"/><stop offset="0.73" stop-color="#ef770b"/><stop offset="0.89" stop-color="#ec6213"/><stop offset="1" stop-color="#e94e1b"/></linearGradient><linearGradient id="Naamloos_verloop_42" x1="107.52" y1="71.16" x2="239.38" y2="71.16" gradientTransform="matrix(-1, 0, 0, 1, 337.5, 0)" gradientUnits="userSpaceOnUse"><stop offset="0" stop-color="#2d2e83"/><stop offset="0.04" stop-color="#2d2d80"/><stop offset="0.45" stop-color="#2d1f5c"/><stop offset="0.78" stop-color="#2d1647"/><stop offset="1" stop-color="#2d133f"/></linearGradient><linearGradient id="Naamloos_verloop_113" x1="115.72" y1="256" x2="115.72" y2="210.39" gradientUnits="userSpaceOnUse"><stop offset="0.03" stop-color="#2d2e83"/><stop offset="0.09" stop-color="#2d2c7e"/><stop offset="0.66" stop-color="#2d1a50"/><stop offset="0.95" stop-color="#2d133f"/></linearGradient><linearGradient id="Naamloos_verloop_113-2" x1="213.35" y1="256.69" x2="213.35" y2="210.37" gradientTransform="matrix(-1, 0, 0, 1, 429.43, 0)" xlink:href="#Naamloos_verloop_113"/></defs><title>Cognitietest_female</title><g id="Illustratie_1" data-name="Illustratie 1"><g class="cls-2"><g class="cls-3"><rect class="cls-4" x="44.9" y="13.93" width="240.76" height="240.76"/></g></g></g><path class="cls-5" d="M247.56,223.83V256H84V223.83a11.93,11.93,0,0,1,11.78-12h140A11.93,11.93,0,0,1,247.56,223.83Z"/><path class="cls-6" d="M157.5,35.5h17.13a54.12,54.12,0,0,1,54.12,54.12v84.25a37.85,37.85,0,0,1-37.85,37.85H142.85A37.85,37.85,0,0,1,105,173.88V88A52.5,52.5,0,0,1,157.5,35.5Z"/><path class="cls-7" d="M154.71,178.33h24.17a5.88,5.88,0,0,1,5.88,5.88v24.28A18.51,18.51,0,0,1,166.25,227h0a18.51,18.51,0,0,1-18.51-18.51V185.3a7,7,0,0,1,7-7Z"/><path class="cls-8" d="M219,89.32V139a52.72,52.72,0,0,1-105.44,0V89.32a52.72,52.72,0,0,1,105.44,0Z"/><path class="cls-9" d="M232.6,118.77A13.62,13.62,0,0,1,219,132.39V105.14A13.63,13.63,0,0,1,232.6,118.77Z"/><path class="cls-10" d="M99.9,118.77a13.62,13.62,0,0,0,13.63,13.62V105.14A13.63,13.63,0,0,0,99.9,118.77Z"/><path class="cls-5" d="M156.29,110.25l-1.72-.74a14.92,14.92,0,0,0-.41-3.26c.49-.37,1-.76,1.48-1.14a2.13,2.13,0,0,0,.52-2.71l-1.5-2.62a2.11,2.11,0,0,0-2.59-.92l-1.75.69a14.41,14.41,0,0,0-2.58-2c.08-.62.16-1.25.24-1.85a2.14,2.14,0,0,0-1.55-2.29l-2.92-.79A2.13,2.13,0,0,0,141,93.79c-.24.56-.49,1.14-.73,1.72a13.73,13.73,0,0,0-3.25.42l-1.15-1.49a2.11,2.11,0,0,0-2.7-.52l-2.62,1.5a2.1,2.1,0,0,0-.92,2.59c.21.57.44,1.16.69,1.74a14.38,14.38,0,0,0-2,2.59c-.63-.09-1.25-.16-1.86-.23a2.11,2.11,0,0,0-2.28,1.54l-.8,2.91a2.12,2.12,0,0,0,1.18,2.49l1.73.74a14.75,14.75,0,0,0,.4,3.25l-1.47,1.15a2.1,2.1,0,0,0-.53,2.7l1.51,2.63a2.12,2.12,0,0,0,2.58.92c.58-.22,1.16-.46,1.75-.7a13.18,13.18,0,0,0,2.59,2c-.09.63-.17,1.26-.24,1.87a2.12,2.12,0,0,0,1.54,2.28l2.92.79a2,2,0,0,0,.81.06,2.14,2.14,0,0,0,1.68-1.24l.74-1.72a13.57,13.57,0,0,0,3.24-.41l1.16,1.49a2.11,2.11,0,0,0,2.69.51l2.63-1.49a2.14,2.14,0,0,0,.93-2.6c-.23-.56-.46-1.15-.7-1.73a14,14,0,0,0,2-2.6l1.87.24a2.14,2.14,0,0,0,2.28-1.54l.79-2.92A2.11,2.11,0,0,0,156.29,110.25Zm-13.17,4.11a5.42,5.42,0,0,1-7.4-2,5.42,5.42,0,1,1,7.4,2Z"/><path class="cls-5" d="M169.33,82.05l-1.2,0a9.23,9.23,0,0,0-1-1.83c.21-.35.41-.7.6-1a1.78,1.78,0,0,0-.47-2.28l-1.73-1.36a1.8,1.8,0,0,0-2.33.13l-.87.83a10.67,10.67,0,0,0-2-.55c-.1-.39-.21-.78-.31-1.16A1.81,1.81,0,0,0,158,73.48l-2.18.28a1.8,1.8,0,0,0-1.55,1.73c0,.39,0,.8,0,1.2a10.8,10.8,0,0,0-1.84,1c-.34-.2-.69-.41-1-.6a1.79,1.79,0,0,0-2.28.47l-1.35,1.74a1.79,1.79,0,0,0,.12,2.32c.27.29.55.58.84.86a10.27,10.27,0,0,0-.56,2l-1.16.32a1.8,1.8,0,0,0-1.29,1.94L146,89a1.8,1.8,0,0,0,1.73,1.56l1.2,0a11.32,11.32,0,0,0,1.05,1.82l-.59,1.06a1.79,1.79,0,0,0,.46,2.28l1.74,1.34a1.8,1.8,0,0,0,2.33-.11l.86-.85a9.55,9.55,0,0,0,2,.56c.1.39.21.78.32,1.16A1.8,1.8,0,0,0,159,99.13l2.18-.27a1.79,1.79,0,0,0,1.57-1.73c0-.4,0-.8,0-1.2a10.34,10.34,0,0,0,1.83-1.05l1,.6A1.81,1.81,0,0,0,168,95l1.34-1.73a1.8,1.8,0,0,0-.11-2.33l-.85-.87a9.72,9.72,0,0,0,.56-2l1.16-.31a1.8,1.8,0,0,0,1.29-1.95l-.28-2.18A1.79,1.79,0,0,0,169.33,82.05ZM161,86a2.54,2.54,0,1,1-2.84-2.19A2.54,2.54,0,0,1,161,86Z"/><path class="cls-5" d="M156.29,110.25l-1.72-.74a14.92,14.92,0,0,0-.41-3.26c.49-.37,1-.76,1.48-1.14a2.13,2.13,0,0,0,.52-2.71l-1.5-2.62a2.11,2.11,0,0,0-2.59-.92l-1.75.69a14.41,14.41,0,0,0-2.58-2c.08-.62.16-1.25.24-1.85a2.14,2.14,0,0,0-1.55-2.29l-2.92-.79A2.13,2.13,0,0,0,141,93.79c-.24.56-.49,1.14-.73,1.72a13.73,13.73,0,0,0-3.25.42l-1.15-1.49a2.11,2.11,0,0,0-2.7-.52l-2.62,1.5a2.1,2.1,0,0,0-.92,2.59c.21.57.44,1.16.69,1.74a14.38,14.38,0,0,0-2,2.59c-.63-.09-1.25-.16-1.86-.23a2.11,2.11,0,0,0-2.28,1.54l-.8,2.91a2.12,2.12,0,0,0,1.18,2.49l1.73.74a14.75,14.75,0,0,0,.4,3.25l-1.47,1.15a2.1,2.1,0,0,0-.53,2.7l1.51,2.63a2.12,2.12,0,0,0,2.58.92c.58-.22,1.16-.46,1.75-.7a13.18,13.18,0,0,0,2.59,2c-.09.63-.17,1.26-.24,1.87a2.12,2.12,0,0,0,1.54,2.28l2.92.79a2,2,0,0,0,.81.06,2.14,2.14,0,0,0,1.68-1.24l.74-1.72a13.57,13.57,0,0,0,3.24-.41l1.16,1.49a2.11,2.11,0,0,0,2.69.51l2.63-1.49a2.14,2.14,0,0,0,.93-2.6c-.23-.56-.46-1.15-.7-1.73a14,14,0,0,0,2-2.6l1.87.24a2.14,2.14,0,0,0,2.28-1.54l.79-2.92A2.11,2.11,0,0,0,156.29,110.25Zm-1.76,4.69-1.78-.23a2.09,2.09,0,0,0-2.1,1,11.74,11.74,0,0,1-1.79,2.3,2.11,2.11,0,0,0-.45,2.29c.22.57.46,1.12.67,1.67l-2.42,1.38-1.1-1.42a2.12,2.12,0,0,0-2.2-.78,11.68,11.68,0,0,1-2.89.37,2.12,2.12,0,0,0-1.94,1.29c-.23.57-.47,1.12-.71,1.67l-2.68-.74c.08-.59.15-1.19.24-1.79a2.13,2.13,0,0,0-1-2.1,11.41,11.41,0,0,1-2.3-1.78,2.09,2.09,0,0,0-2.29-.45l-1.67.66-1.38-2.42,1.42-1.09a2.08,2.08,0,0,0,.77-2.2,11.73,11.73,0,0,1-.36-2.89,2.12,2.12,0,0,0-1.3-2c-.55-.23-1.11-.46-1.65-.7l.73-2.69c.58.08,1.19.15,1.78.24a2.13,2.13,0,0,0,2.11-1,12.47,12.47,0,0,1,1.78-2.31,2.09,2.09,0,0,0,.45-2.29c-.22-.56-.44-1.11-.67-1.67l2.42-1.38,1.1,1.43a2.1,2.1,0,0,0,2.2.77,11.68,11.68,0,0,1,2.89-.37,2.09,2.09,0,0,0,1.94-1.3c.23-.55.48-1.1.71-1.65l2.68.73c-.06.59-.15,1.19-.23,1.78a2.09,2.09,0,0,0,1,2.11,11.81,11.81,0,0,1,2.31,1.79,2.11,2.11,0,0,0,2.29.45l1.66-.67,1.38,2.41c-.46.37-.94.74-1.42,1.1a2.1,2.1,0,0,0-.77,2.21,11.71,11.71,0,0,1,.36,2.88,2.1,2.1,0,0,0,1.3,2l1.65.7Z"/><path class="cls-5" d="M147.1,105.84a7.68,7.68,0,1,0-8.69,11.21,7.57,7.57,0,0,0,3,.22,7.49,7.49,0,0,0,2.83-1A7.67,7.67,0,0,0,147.1,105.84Zm-4,8.52a5.42,5.42,0,0,1-7.4-2,5.42,5.42,0,1,1,7.4,2Z"/><path class="cls-5" d="M169.33,82.05l-1.2,0a9.23,9.23,0,0,0-1-1.83c.21-.35.41-.7.6-1a1.78,1.78,0,0,0-.47-2.28l-1.73-1.36a1.8,1.8,0,0,0-2.33.13l-.87.83a10.67,10.67,0,0,0-2-.55c-.1-.39-.21-.78-.31-1.16A1.81,1.81,0,0,0,158,73.48l-2.18.28a1.8,1.8,0,0,0-1.55,1.73c0,.39,0,.8,0,1.2a10.8,10.8,0,0,0-1.84,1c-.34-.2-.69-.41-1-.6a1.79,1.79,0,0,0-2.28.47l-1.35,1.74a1.79,1.79,0,0,0,.12,2.32c.27.29.55.58.84.86a10.27,10.27,0,0,0-.56,2l-1.16.32a1.8,1.8,0,0,0-1.29,1.94L146,89a1.8,1.8,0,0,0,1.73,1.56l1.2,0a11.32,11.32,0,0,0,1.05,1.82l-.59,1.06a1.79,1.79,0,0,0,.46,2.28l1.74,1.34a1.8,1.8,0,0,0,2.33-.11l.86-.85a9.55,9.55,0,0,0,2,.56c.1.39.21.78.32,1.16A1.8,1.8,0,0,0,159,99.13l2.18-.27a1.79,1.79,0,0,0,1.57-1.73c0-.4,0-.8,0-1.2a10.34,10.34,0,0,0,1.83-1.05l1,.6A1.81,1.81,0,0,0,168,95l1.34-1.73a1.8,1.8,0,0,0-.11-2.33l-.85-.87a9.72,9.72,0,0,0,.56-2l1.16-.31a1.8,1.8,0,0,0,1.29-1.95l-.28-2.18A1.79,1.79,0,0,0,169.33,82.05Zm-.15,3.71c-.34.09-.69.19-1.06.27a1.79,1.79,0,0,0-1.31,1.48,8.15,8.15,0,0,1-.54,2,1.78,1.78,0,0,0,.39,1.93c.25.25.51.51.75.77l-1,1.26-.93-.54a1.77,1.77,0,0,0-2,.11,8.56,8.56,0,0,1-1.79,1,1.81,1.81,0,0,0-1.1,1.65c0,.36,0,.73,0,1.08l-1.57.2c-.1-.34-.19-.69-.29-1a1.8,1.8,0,0,0-1.46-1.33,8.13,8.13,0,0,1-2-.53,1.75,1.75,0,0,0-1.93.39l-.78.75-1.26-1c.18-.32.37-.63.55-.94a1.79,1.79,0,0,0-.11-2,8.29,8.29,0,0,1-1-1.78,1.81,1.81,0,0,0-1.64-1.11c-.37,0-.73,0-1.09,0l-.2-1.58,1.05-.28a1.78,1.78,0,0,0,1.31-1.47,8.57,8.57,0,0,1,.55-2,1.79,1.79,0,0,0-.39-1.94l-.76-.78,1-1.25.94.54a1.8,1.8,0,0,0,2-.1,7.93,7.93,0,0,1,1.78-1,1.77,1.77,0,0,0,1.09-1.64c0-.36,0-.73,0-1.09l1.56-.2c.11.35.2.7.29,1.06A1.79,1.79,0,0,0,159.72,78a8.68,8.68,0,0,1,2,.54,1.77,1.77,0,0,0,1.93-.38l.78-.77,1.25,1c-.17.32-.35.63-.54.95a1.79,1.79,0,0,0,.11,2,8.36,8.36,0,0,1,1,1.79,1.77,1.77,0,0,0,1.64,1.09H169Z"/><path class="cls-5" d="M157.94,81.78a4.56,4.56,0,1,0,5.09,4A4.57,4.57,0,0,0,157.94,81.78Zm.89,7A2.54,2.54,0,1,1,161,86,2.55,2.55,0,0,1,158.83,88.83Z"/><path class="cls-5" d="M180,117.36c.22-.49.43-1,.64-1.47a12.64,12.64,0,0,0,2.8-.36c.32.43.66.86,1,1.27a1.82,1.82,0,0,0,2.33.45L189,116a1.82,1.82,0,0,0,.79-2.23c-.19-.49-.38-1-.6-1.5a11.62,11.62,0,0,0,1.73-2.22l1.6.2a1.81,1.81,0,0,0,2-1.33l.69-2.51a1.83,1.83,0,0,0-1-2.14l-1.48-.63a12,12,0,0,0-.36-2.8l1.28-1a1.82,1.82,0,0,0,.45-2.33l-1.29-2.26a1.83,1.83,0,0,0-2.23-.79c-.49.18-1,.39-1.5.6a12.1,12.1,0,0,0-2.23-1.73c.08-.54.14-1.08.21-1.6a1.82,1.82,0,0,0-1.33-2l-2.5-.69a1.83,1.83,0,0,0-2.15,1c-.21.49-.43,1-.63,1.48a12.48,12.48,0,0,0-2.8.35l-1-1.27a1.81,1.81,0,0,0-2.32-.45L172,91.48a1.83,1.83,0,0,0-.8,2.23l.6,1.5a11.64,11.64,0,0,0-1.72,2.23c-.54-.08-1.07-.15-1.6-.2a1.83,1.83,0,0,0-2,1.32l-.68,2.51a1.85,1.85,0,0,0-.05.7,1.82,1.82,0,0,0,1.07,1.44l1.48.64a11.91,11.91,0,0,0,.35,2.79l-1.28,1a1.83,1.83,0,0,0-.44,2.32l1.28,2.26a1.85,1.85,0,0,0,2.24.8l1.49-.6a12.76,12.76,0,0,0,2.23,1.72c-.07.54-.14,1.08-.2,1.61a1.83,1.83,0,0,0,1.32,2l2.52.68A1.8,1.8,0,0,0,180,117.36ZM176.42,106a4.52,4.52,0,0,1-.45-3.54,4.66,4.66,0,0,1,8.55-1.08,4.44,4.44,0,0,1,.58,1.72,4.66,4.66,0,0,1-8.68,2.9Z"/><path class="cls-5" d="M204.21,128.58c0-.34,0-.68,0-1a8.41,8.41,0,0,0,1.57-.9l.9.52a1.55,1.55,0,0,0,2-.41l1.17-1.49a1.56,1.56,0,0,0-.11-2l-.72-.74a8.71,8.71,0,0,0,.48-1.75l1-.27a1.55,1.55,0,0,0,1.11-1.67l-.24-1.88a1.56,1.56,0,0,0-1.49-1.34h-1a9.09,9.09,0,0,0-.9-1.58c.17-.3.35-.6.51-.9a1.54,1.54,0,0,0-.39-2l-1.5-1.16a1.54,1.54,0,0,0-2,.11l-.74.71a9.53,9.53,0,0,0-1.76-.48c-.08-.33-.18-.67-.27-1a1.55,1.55,0,0,0-1.67-1.11l-1.87.24a1.54,1.54,0,0,0-1.35,1.49c0,.34,0,.68,0,1a8.65,8.65,0,0,0-1.56.9l-.91-.51a1.55,1.55,0,0,0-2,.4l-1.16,1.5a1.55,1.55,0,0,0,.1,2l.73.74a8.71,8.71,0,0,0-.48,1.75l-1,.27a1.56,1.56,0,0,0-1.11,1.67l.24,1.88a1.56,1.56,0,0,0,1.49,1.35h1a8,8,0,0,0,.9,1.58c-.18.3-.35.61-.52.9a1.56,1.56,0,0,0,.4,2l1.5,1.15a1.53,1.53,0,0,0,2-.1c.25-.24.5-.47.75-.72a8.9,8.9,0,0,0,1.75.48c.09.33.18.67.27,1a1.55,1.55,0,0,0,1.68,1.11l1.87-.24A1.54,1.54,0,0,0,204.21,128.58Zm-3.38-7.14a2.18,2.18,0,1,1,1.88-2.44A2.19,2.19,0,0,1,200.83,121.44Z"/><path class="cls-5" d="M180,117.36c.22-.49.43-1,.64-1.47a12.64,12.64,0,0,0,2.8-.36c.32.43.66.86,1,1.27a1.82,1.82,0,0,0,2.33.45L189,116a1.82,1.82,0,0,0,.79-2.23c-.19-.49-.38-1-.6-1.5a11.62,11.62,0,0,0,1.73-2.22l1.6.2a1.81,1.81,0,0,0,2-1.33l.69-2.51a1.83,1.83,0,0,0-1-2.14l-1.48-.63a12,12,0,0,0-.36-2.8l1.28-1a1.82,1.82,0,0,0,.45-2.33l-1.29-2.26a1.83,1.83,0,0,0-2.23-.79c-.49.18-1,.39-1.5.6a12.1,12.1,0,0,0-2.23-1.73c.08-.54.14-1.08.21-1.6a1.82,1.82,0,0,0-1.33-2l-2.5-.69a1.83,1.83,0,0,0-2.15,1c-.21.49-.43,1-.63,1.48a12.48,12.48,0,0,0-2.8.35l-1-1.27a1.81,1.81,0,0,0-2.32-.45L172,91.48a1.83,1.83,0,0,0-.8,2.23l.6,1.5a11.64,11.64,0,0,0-1.72,2.23c-.54-.08-1.07-.15-1.6-.2a1.83,1.83,0,0,0-2,1.32l-.68,2.51a1.85,1.85,0,0,0-.05.7,1.82,1.82,0,0,0,1.07,1.44l1.48.64a11.91,11.91,0,0,0,.35,2.79l-1.28,1a1.83,1.83,0,0,0-.44,2.32l1.28,2.26a1.85,1.85,0,0,0,2.24.8l1.49-.6a12.76,12.76,0,0,0,2.23,1.72c-.07.54-.14,1.08-.2,1.61a1.83,1.83,0,0,0,1.32,2l2.52.68A1.8,1.8,0,0,0,180,117.36Zm-4-1.51c.06-.5.12-1,.2-1.53a1.84,1.84,0,0,0-.88-1.81,10.53,10.53,0,0,1-2-1.54,1.78,1.78,0,0,0-2-.38l-1.44.57-1.19-2.08,1.22-.94a1.81,1.81,0,0,0,.67-1.9,10.34,10.34,0,0,1-.31-2.48,1.86,1.86,0,0,0-1.12-1.68c-.48-.19-1-.4-1.43-.6l.64-2.31,1.53.2a1.8,1.8,0,0,0,1.81-.87,10.21,10.21,0,0,1,1.54-2,1.85,1.85,0,0,0,.39-2c-.2-.47-.39-1-.58-1.43l2.08-1.18.95,1.22a1.76,1.76,0,0,0,1.88.66,10.07,10.07,0,0,1,2.5-.31,1.82,1.82,0,0,0,1.67-1.12c.2-.47.4-.95.61-1.42l2.31.63-.21,1.53a1.83,1.83,0,0,0,.87,1.82,9.52,9.52,0,0,1,2,1.53,1.79,1.79,0,0,0,2,.38l1.43-.57,1.19,2.08L191,99.3a1.84,1.84,0,0,0-.66,1.9,10.35,10.35,0,0,1,.32,2.48,1.81,1.81,0,0,0,1.11,1.68c.48.19.95.4,1.42.6l-.62,2.31c-.51,0-1-.13-1.54-.19a1.78,1.78,0,0,0-1.81.86,10.59,10.59,0,0,1-1.54,2,1.82,1.82,0,0,0-.39,2c.2.47.39,1,.58,1.43l-2.08,1.18c-.32-.39-.63-.8-.94-1.22a1.81,1.81,0,0,0-1.9-.66,9.91,9.91,0,0,1-2.48.31,1.8,1.8,0,0,0-1.67,1.12l-.61,1.42Z"/><path class="cls-5" d="M183.75,109.46a6.6,6.6,0,1,0-9.84-4.9,6.39,6.39,0,0,0,.83,2.43A6.61,6.61,0,0,0,183.75,109.46ZM176.42,106a4.52,4.52,0,0,1-.45-3.54,4.66,4.66,0,0,1,8.55-1.08,4.44,4.44,0,0,1,.58,1.72,4.66,4.66,0,0,1-8.68,2.9Z"/><path class="cls-5" d="M204.21,128.58c0-.34,0-.68,0-1a8.41,8.41,0,0,0,1.57-.9l.9.52a1.55,1.55,0,0,0,2-.41l1.17-1.49a1.56,1.56,0,0,0-.11-2l-.72-.74a8.71,8.71,0,0,0,.48-1.75l1-.27a1.55,1.55,0,0,0,1.11-1.67l-.24-1.88a1.56,1.56,0,0,0-1.49-1.34h-1a9.09,9.09,0,0,0-.9-1.58c.17-.3.35-.6.51-.9a1.54,1.54,0,0,0-.39-2l-1.5-1.16a1.54,1.54,0,0,0-2,.11l-.74.71a9.53,9.53,0,0,0-1.76-.48c-.08-.33-.18-.67-.27-1a1.55,1.55,0,0,0-1.67-1.11l-1.87.24a1.54,1.54,0,0,0-1.35,1.49c0,.34,0,.68,0,1a8.65,8.65,0,0,0-1.56.9l-.91-.51a1.55,1.55,0,0,0-2,.4l-1.16,1.5a1.55,1.55,0,0,0,.1,2l.73.74a8.71,8.71,0,0,0-.48,1.75l-1,.27a1.56,1.56,0,0,0-1.11,1.67l.24,1.88a1.56,1.56,0,0,0,1.49,1.35h1a8,8,0,0,0,.9,1.58c-.18.3-.35.61-.52.9a1.56,1.56,0,0,0,.4,2l1.5,1.15a1.53,1.53,0,0,0,2-.1c.25-.24.5-.47.75-.72a8.9,8.9,0,0,0,1.75.48c.09.33.18.67.27,1a1.55,1.55,0,0,0,1.68,1.11l1.87-.24A1.54,1.54,0,0,0,204.21,128.58Zm-3.19-.13c-.08-.29-.16-.59-.24-.91a1.55,1.55,0,0,0-1.27-1.13,6.8,6.8,0,0,1-1.7-.46,1.53,1.53,0,0,0-1.67.34l-.66.64-1.08-.83c.15-.27.3-.54.46-.8a1.54,1.54,0,0,0-.09-1.7,6.7,6.7,0,0,1-.87-1.54,1.55,1.55,0,0,0-1.42-.94c-.32,0-.63,0-.93,0l-.18-1.35.9-.24a1.52,1.52,0,0,0,1.14-1.26,7.21,7.21,0,0,1,.46-1.71,1.52,1.52,0,0,0-.33-1.67c-.22-.22-.44-.44-.65-.67l.83-1.07c.28.15.55.31.81.47a1.55,1.55,0,0,0,1.7-.1,7.5,7.5,0,0,1,1.53-.88,1.53,1.53,0,0,0,1-1.41v-.94l1.36-.17c.08.3.16.6.25.91a1.53,1.53,0,0,0,1.26,1.13,6.9,6.9,0,0,1,1.71.47,1.53,1.53,0,0,0,1.66-.34l.67-.65,1.08.83-.47.81a1.57,1.57,0,0,0,.09,1.7,6.74,6.74,0,0,1,.88,1.54,1.54,1.54,0,0,0,1.42.94h.93l.18,1.35-.91.24a1.52,1.52,0,0,0-1.13,1.27,6.9,6.9,0,0,1-.47,1.71,1.53,1.53,0,0,0,.33,1.66l.66.67-.84,1.07c-.27-.14-.54-.3-.81-.46a1.51,1.51,0,0,0-1.69.1,7.81,7.81,0,0,1-1.54.87,1.54,1.54,0,0,0-.94,1.41c0,.32,0,.64,0,.94Z"/><path class="cls-5" d="M204.44,118.78a3.92,3.92,0,1,0-3.4,4.39A3.93,3.93,0,0,0,204.44,118.78Zm-6.06.77a2.18,2.18,0,1,1,2.45,1.89A2.18,2.18,0,0,1,198.38,119.55Z"/><path class="cls-11" d="M180.7,51.78S138.8,111.7,110,109.38s-3.3-80,57.13-76.38c75.6,4.59,61.85,76.38,61.85,76.38S197,103.33,180.7,51.78Z"/><path class="cls-7" d="M166.7,164.35H155.82a5.44,5.44,0,0,1,10.88,0Z"/><path class="cls-7" d="M176.17,164.35H165.29a5.44,5.44,0,0,1,10.88,0Z"/><path class="cls-7" d="M155.82,164.35h20.35c0,4.81-4.56,8.69-10.18,8.69S155.82,169.16,155.82,164.35Z"/><path class="cls-12" d="M155.82,164.35a20.64,20.64,0,0,0,20.35,0"/><path class="cls-13" d="M165.31,123l.37,10.7c.08,2.33,1.23,4.19,2.77,4.76,1.82.68,3.07,3.23-2.41,11.8,0,0-.45.91,0,1.29"/><path class="cls-14" d="M147.55,211.83S143,239.67,125.49,256H84V223.83s-2-9,10.33-12.1S147.55,211.83,147.55,211.83Z"/><path class="cls-15" d="M184.47,211.73s4.12,28.63,21.6,45h41.49V224.52s2.11-9.73-10.23-12.79S184.47,211.73,184.47,211.73Z"/><ellipse class="cls-5" cx="110.02" cy="137.31" rx="2.14" ry="9.21"/><ellipse class="cls-5" cx="222.69" cy="137.31" rx="2.14" ry="9.21"/></svg>