<svg id="Afmetingen_stoel" data-name="Afmetingen stoel" xmlns="http://www.w3.org/2000/svg" xmlns:xlink="http://www.w3.org/1999/xlink" viewBox="0 0 282.5 188.61"><defs><style>.cls-1{fill:url(#linear-gradient);}.cls-2{fill:#27aae1;}.cls-3{fill:url(#linear-gradient-2);}.cls-4{fill:url(#linear-gradient-3);}.cls-5{fill:url(#Naamloos_verloop_28);}.cls-6{fill:#391763;}.cls-7{fill:url(#linear-gradient-4);}.cls-8{fill:url(#Naamloos_verloop_28-2);}.cls-9{fill:url(#linear-gradient-5);}.cls-10{fill:url(#linear-gradient-6);}.cls-11{fill:url(#Naamloos_verloop_28-3);}.cls-12{fill:#f8b133;}.cls-13,.cls-14,.cls-21,.cls-22,.cls-23,.cls-24,.cls-25,.cls-26,.cls-27,.cls-28{fill:none;}.cls-13{stroke:#f8b133;stroke-width:2px;}.cls-13,.cls-14,.cls-16,.cls-21,.cls-22,.cls-23,.cls-24,.cls-25,.cls-26,.cls-27,.cls-28{stroke-miterlimit:10;}.cls-14{stroke:#a2def9;stroke-width:0.75px;stroke-dasharray:2;}.cls-15{fill:#a2def9;}.cls-16{fill:#fff;stroke:#fbb040;stroke-width:4.95px;}.cls-17{fill:url(#Naamloos_verloop_8);}.cls-18{fill:#260340;}.cls-19{fill:#35a8e0;}.cls-20{fill:#f8dcb2;}.cls-21,.cls-22,.cls-23,.cls-24,.cls-25,.cls-26,.cls-27,.cls-28{stroke:#e7beb0;}.cls-21{stroke-width:0.47px;}.cls-22{stroke-width:0.41px;}.cls-23{stroke-width:0.34px;}.cls-24{stroke-width:0.27px;}.cls-25{stroke-width:0.19px;}.cls-26{stroke-width:0.14px;}.cls-27{stroke-width:0.1px;}.cls-28{stroke-width:0.06px;}</style><linearGradient id="linear-gradient" x1="519.4" y1="69.1" x2="519.4" y2="228.21" gradientUnits="userSpaceOnUse"><stop offset="0" stop-color="#65c8d0"/><stop offset="0.16" stop-color="#64c4ce"/><stop offset="0.32" stop-color="#5fb8c8"/><stop offset="0.48" stop-color="#58a4be"/><stop offset="0.65" stop-color="#4e87af"/><stop offset="0.81" stop-color="#40639d"/><stop offset="0.97" stop-color="#303787"/><stop offset="1" stop-color="#2d2e82"/></linearGradient><linearGradient id="linear-gradient-2" x1="12.53" y1="83.48" x2="22.28" y2="83.48" gradientUnits="userSpaceOnUse"><stop offset="0.03" stop-color="#2d2e82"/><stop offset="0.17" stop-color="#30297b"/><stop offset="0.65" stop-color="#371c69"/><stop offset="1" stop-color="#391763"/></linearGradient><linearGradient id="linear-gradient-3" x1="398.46" y1="170.48" x2="407.37" y2="170.48" gradientTransform="matrix(0.96, -0.28, -0.28, -0.96, 61.62, 429.17)" xlink:href="#linear-gradient-2"/><linearGradient id="Naamloos_verloop_28" x1="396.17" y1="120.46" x2="410.27" y2="120.46" gradientUnits="userSpaceOnUse"><stop offset="0" stop-color="#f8b133"/><stop offset="0.18" stop-color="#f7ab31"/><stop offset="0.44" stop-color="#f4992d"/><stop offset="0.73" stop-color="#ef7d26"/><stop offset="1" stop-color="#ea5b1d"/></linearGradient><linearGradient id="linear-gradient-4" x1="524.77" y1="147.69" x2="534.23" y2="147.69" gradientTransform="translate(-97.94 21.94)" xlink:href="#linear-gradient-2"/><linearGradient id="Naamloos_verloop_28-2" x1="593.53" y1="167.1" x2="659.73" y2="167.1" gradientTransform="matrix(1, 0, 0, -1, -195.51, 334.19)" xlink:href="#Naamloos_verloop_28"/><linearGradient id="linear-gradient-5" x1="432.4" y1="228.31" x2="431.44" y2="159.38" gradientUnits="userSpaceOnUse"><stop offset="0.03" stop-color="#2d2e82"/><stop offset="0.07" stop-color="#2f2b7e"/><stop offset="0.31" stop-color="#34206f"/><stop offset="0.59" stop-color="#381966"/><stop offset="1" stop-color="#391763"/></linearGradient><linearGradient id="linear-gradient-6" x1="422.85" y1="151.46" x2="431.75" y2="151.46" gradientTransform="translate(171.92 532.82) rotate(-76.86)" xlink:href="#linear-gradient-2"/><linearGradient id="Naamloos_verloop_28-3" x1="603.12" y1="151.89" x2="638.78" y2="151.89" gradientTransform="matrix(1, 0, 0, -1, -184.15, 303.78)" xlink:href="#Naamloos_verloop_28"/><linearGradient id="Naamloos_verloop_8" x1="242.63" y1="47.26" x2="242.22" y2="83.05" gradientUnits="userSpaceOnUse"><stop offset="0.1" stop-color="#260340"/><stop offset="0.35" stop-color="#2e0c4f"/><stop offset="0.71" stop-color="#36145e"/><stop offset="1" stop-color="#391763"/></linearGradient></defs><path class="cls-1" d="M660.65,210.61c0,4.69-.07,9.74,0,15.38H378.15c0-4,.11-8.47,0-12.44,0-1,0-2,0-2.94,0-79.38,63.69-143.73,142.27-143.73S661.18,131.24,660.65,210.61Z" transform="translate(-378.15 -37.38)"/><path class="cls-2" d="M7,174.84H275.45a7,7,0,0,1,7,7v6.78a0,0,0,0,1,0,0H0a0,0,0,0,1,0,0v-6.78A7,7,0,0,1,7,174.84Z"/><rect class="cls-3" x="12.53" y="70.38" width="9.75" height="26.22" rx="4.8"/><path class="cls-4" d="M397.84,130.73l1.07,17.49,6.75,22a1.76,1.76,0,0,1-1.23,2.19l-1.23.36a1.84,1.84,0,0,1-2.26-1.19l-6.78-22.14c0-.05,0-.09,0-.13a1.48,1.48,0,0,1-.12-.47L392.93,131a1.59,1.59,0,0,1,1.52-1.66l1.68-.1A1.6,1.6,0,0,1,397.84,130.73Z" transform="translate(-378.15 -37.38)"/><path class="cls-5" d="M410.24,119.93l-2-30.39a2.9,2.9,0,0,0-3.32-2.36l-6.29.36a2.83,2.83,0,0,0-2.43,3.22l3.85,29.7-1.47,29.91a2.84,2.84,0,0,0,2.57,3.12l5.14.27a2.9,2.9,0,0,0,3.22-2.5l.72-30.54v0A2.84,2.84,0,0,0,410.24,119.93Z" transform="translate(-378.15 -37.38)"/><path class="cls-6" d="M466.19,218.5l-23.35-44.14h0v-3a.23.23,0,0,0-.24-.22H419.32a.23.23,0,0,0-.24.22v3h.09L395.82,218.5a2.62,2.62,0,0,0,1.19,3.58h0a2.78,2.78,0,0,0,3.68-1.15l24.13-45.62a2.35,2.35,0,0,0,.27-.95h11.84a2.2,2.2,0,0,0,.27.95l24.12,45.62a2.78,2.78,0,0,0,3.68,1.15h0A2.62,2.62,0,0,0,466.19,218.5Z" transform="translate(-378.15 -37.38)"/><rect class="cls-7" x="426.82" y="138.51" width="9.46" height="62.24" rx="4.73" transform="translate(-116.23 563.81) rotate(-90)"/><rect class="cls-8" x="398.02" y="163.09" width="66.2" height="8" rx="3.82" transform="translate(484.08 296.81) rotate(-180)"/><path class="cls-9" d="M467.46,218.5l-23.35-44.14h0v-3a.23.23,0,0,0-.23-.22h-23.3a.23.23,0,0,0-.24.22v3h.09L397.1,218.5a2.62,2.62,0,0,0,1.18,3.58h0a2.78,2.78,0,0,0,3.68-1.15l24.13-45.62a2.35,2.35,0,0,0,.27-.95H438.2a2.35,2.35,0,0,0,.27.95l24.13,45.62a2.77,2.77,0,0,0,3.68,1.15h0A2.62,2.62,0,0,0,467.46,218.5Z" transform="translate(-378.15 -37.38)"/><path class="cls-10" d="M436.82,151.35l-17.52,0-22.39-5.42a1.76,1.76,0,0,0-2.12,1.35l-.28,1.26a1.82,1.82,0,0,0,1.32,2.18l22.51,5.45.12,0a1.51,1.51,0,0,0,.48.08l17.89,0a1.6,1.6,0,0,0,1.57-1.62V153A1.61,1.61,0,0,0,436.82,151.35Z" transform="translate(-378.15 -37.38)"/><rect class="cls-11" x="418.97" y="149.15" width="35.66" height="5.48" rx="2.74" transform="translate(495.44 266.4) rotate(180)"/><rect class="cls-12" x="94.93" y="174.84" width="5.11" height="13.77"/><rect class="cls-12" x="263.44" y="174.84" width="5.11" height="13.77"/><polygon class="cls-12" points="108.65 159.89 108.65 164.32 104.8 162.11 100.96 159.89 104.8 157.67 108.65 155.45 108.65 159.89"/><polygon class="cls-12" points="11.53 176.99 7.09 176.99 9.31 180.84 11.53 184.68 13.75 180.84 15.97 176.99 11.53 176.99"/><polygon class="cls-12" points="254.73 159.89 254.73 164.32 258.58 162.11 262.42 159.89 258.58 157.67 254.73 155.45 254.73 159.89"/><line class="cls-13" x1="104.8" y1="159.89" x2="259.6" y2="159.89"/><line class="cls-13" x1="11.53" y1="130.6" x2="11.53" y2="178.26"/><line class="cls-14" x1="100.04" y1="159.89" x2="100.04" y2="174.84"/><line class="cls-14" x1="26.12" y1="125.87" x2="11.16" y2="125.87"/><line class="cls-14" x1="19.74" y1="184.99" x2="10.23" y2="184.99"/><line class="cls-14" x1="263.44" y1="159.89" x2="263.44" y2="174.84"/><path class="cls-15" d="M547.08,191.4l1.59-.2a1.55,1.55,0,0,0,.41.94,1.13,1.13,0,0,0,.81.32,1.11,1.11,0,0,0,.86-.39,1.5,1.5,0,0,0,.35-1,1.39,1.39,0,0,0-.34-1,1.06,1.06,0,0,0-.81-.36,3,3,0,0,0-.76.12l.18-1.34a1.42,1.42,0,0,0,1-.29,1,1,0,0,0,.36-.82,1,1,0,0,0-.26-.69.93.93,0,0,0-.69-.25,1,1,0,0,0-.72.29,1.34,1.34,0,0,0-.36.85l-1.52-.25a3.37,3.37,0,0,1,.48-1.25,2.16,2.16,0,0,1,.89-.73,3,3,0,0,1,1.28-.27,2.52,2.52,0,0,1,1.94.78,2,2,0,0,1,.61,1.42,2,2,0,0,1-1.24,1.81,2,2,0,0,1,1.18.71,2,2,0,0,1,.44,1.33A2.59,2.59,0,0,1,552,193a2.85,2.85,0,0,1-2.06.79,2.8,2.8,0,0,1-1.93-.67A2.61,2.61,0,0,1,547.08,191.4Z" transform="translate(-378.15 -37.38)"/><path class="cls-15" d="M554,187.45h1.52v.85a2.44,2.44,0,0,1,1.94-1,2.12,2.12,0,0,1,1,.25,1.77,1.77,0,0,1,.72.74,2.88,2.88,0,0,1,.89-.74,2.19,2.19,0,0,1,1-.25,2.29,2.29,0,0,1,1.16.28,1.73,1.73,0,0,1,.71.82,3.58,3.58,0,0,1,.17,1.29v4h-1.65v-3.56a2.57,2.57,0,0,0-.17-1.2.78.78,0,0,0-.7-.35,1.12,1.12,0,0,0-.65.21,1.2,1.2,0,0,0-.44.62,4.48,4.48,0,0,0-.13,1.29v3H557.8v-3.41a4.7,4.7,0,0,0-.09-1.18.81.81,0,0,0-.27-.39.9.9,0,0,0-.5-.13,1.2,1.2,0,0,0-.69.21,1.09,1.09,0,0,0-.43.59,4.28,4.28,0,0,0-.14,1.28v3H554Z" transform="translate(-378.15 -37.38)"/><path class="cls-15" d="M397,193.47V192a2.29,2.29,0,0,1,1.73-.81,2.82,2.82,0,0,1,.68.08,9.09,9.09,0,0,1,1.12.4,3.92,3.92,0,0,0,1.09.32,1.91,1.91,0,0,0,.76-.2,2.85,2.85,0,0,0,.84-.64v1.58a2.89,2.89,0,0,1-.75.53,2.23,2.23,0,0,1-1,.24,2.12,2.12,0,0,1-.57-.07,5.92,5.92,0,0,1-.88-.33,3.91,3.91,0,0,0-1.42-.39A2.24,2.24,0,0,0,397,193.47Z" transform="translate(-378.15 -37.38)"/><path class="cls-15" d="M407.31,196.51v-1.73H403.8v-1.44l3.72-5.45h1.39v5.45H410v1.44h-1.06v1.73Zm0-3.17V190.4l-2,2.94Z" transform="translate(-378.15 -37.38)"/><path class="cls-15" d="M416.34,190l-1.6.18a1.2,1.2,0,0,0-.3-.73.93.93,0,0,0-.64-.23,1.08,1.08,0,0,0-.88.47,4,4,0,0,0-.46,1.95,1.94,1.94,0,0,1,1.53-.73,2.32,2.32,0,0,1,1.77.79,2.84,2.84,0,0,1,.73,2,2.89,2.89,0,0,1-.77,2.11,2.81,2.81,0,0,1-4.12-.21,5.21,5.21,0,0,1-.84-3.32,5.3,5.3,0,0,1,.87-3.4,2.8,2.8,0,0,1,2.27-1,2.44,2.44,0,0,1,1.62.54A2.6,2.6,0,0,1,416.34,190Zm-3.74,3.6a1.91,1.91,0,0,0,.37,1.24,1.09,1.09,0,0,0,.85.43,1,1,0,0,0,.76-.35,1.84,1.84,0,0,0,.3-1.18,1.92,1.92,0,0,0-.32-1.22,1.06,1.06,0,0,0-1.63,0A1.61,1.61,0,0,0,412.6,193.62Z" transform="translate(-378.15 -37.38)"/><path class="cls-15" d="M423.21,192.13l-1.62.29a1.17,1.17,0,0,0-.38-.73,1.08,1.08,0,0,0-.75-.25,1.21,1.21,0,0,0-1,.43,2.18,2.18,0,0,0-.37,1.42,2.47,2.47,0,0,0,.38,1.56,1.2,1.2,0,0,0,1,.46,1.09,1.09,0,0,0,.76-.27,1.55,1.55,0,0,0,.42-.91l1.62.27a2.87,2.87,0,0,1-1,1.68,3,3,0,0,1-1.91.57,2.87,2.87,0,0,1-2.18-.86,3.91,3.91,0,0,1,0-4.78,2.85,2.85,0,0,1,2.2-.86,3,3,0,0,1,1.81.49A2.74,2.74,0,0,1,423.21,192.13Z" transform="translate(-378.15 -37.38)"/><path class="cls-15" d="M424.33,190.29h1.52v.85a2.45,2.45,0,0,1,1.94-1,2.13,2.13,0,0,1,1,.24,2,2,0,0,1,.72.75,3,3,0,0,1,.88-.75,2.42,2.42,0,0,1,2.18,0,1.71,1.71,0,0,1,.71.81,3.66,3.66,0,0,1,.17,1.29v4h-1.65V193a2.69,2.69,0,0,0-.17-1.19.77.77,0,0,0-.7-.35,1.12,1.12,0,0,0-.65.21,1.14,1.14,0,0,0-.44.62,4.38,4.38,0,0,0-.14,1.28v3H428.1V193.1a4.66,4.66,0,0,0-.09-1.17.72.72,0,0,0-.27-.39.84.84,0,0,0-.5-.13,1.24,1.24,0,0,0-.69.2,1.2,1.2,0,0,0-.44.59,4.77,4.77,0,0,0-.13,1.29v3h-1.65Z" transform="translate(-378.15 -37.38)"/><circle class="cls-16" cx="171.78" cy="34.75" r="32.28"/><circle class="cls-16" cx="242.09" cy="77" r="32.28"/><path class="cls-17" d="M242.44,50.4h0a5.69,5.69,0,0,1,5.69,5.69v16a2.49,2.49,0,0,1-2.49,2.49h-6.39a2.49,2.49,0,0,1-2.49-2.49v-16a5.69,5.69,0,0,1,5.69-5.69Z"/><rect class="cls-18" x="238.48" y="71.95" width="8.46" height="2.22" rx="0.54"/><path class="cls-19" d="M616.55,109.18l8,.07v7.44h0v21.18h-8V125.81h0v-3.14h0" transform="translate(-378.15 -37.38)"/><path class="cls-6" d="M624.54,135.12v.41H622.4c-.06,0-.11-.09-.11-.2a.57.57,0,0,1,0-.15.09.09,0,0,1,.08-.06Z" transform="translate(-378.15 -37.38)"/><path class="cls-6" d="M624.54,133.21v.2h-1.07s-.05,0-.05-.11a.15.15,0,0,1,0-.07.05.05,0,0,1,0,0Z" transform="translate(-378.15 -37.38)"/><path class="cls-6" d="M624.54,131.64v.2h-1.07s-.05-.05-.05-.11a.17.17,0,0,1,0-.07l0,0h1.07Z" transform="translate(-378.15 -37.38)"/><path class="cls-6" d="M624.54,130.06v.21h-1.07s-.05-.05-.05-.11a.15.15,0,0,1,0-.07.05.05,0,0,1,0,0Z" transform="translate(-378.15 -37.38)"/><path class="cls-6" d="M624.54,125.56v.2h-1.07s-.05,0-.05-.1a.15.15,0,0,1,0-.07.05.05,0,0,1,0,0Z" transform="translate(-378.15 -37.38)"/><path class="cls-6" d="M624.54,124v.21h-1.07s-.05,0-.05-.11a.17.17,0,0,1,0-.07.05.05,0,0,1,0,0Z" transform="translate(-378.15 -37.38)"/><path class="cls-6" d="M624.54,122.41v.2h-1.07s-.05-.05-.05-.11a.15.15,0,0,1,0-.07.05.05,0,0,1,0,0Z" transform="translate(-378.15 -37.38)"/><path class="cls-6" d="M624.54,118.07v.2h-1.07s-.05,0-.05-.11a.17.17,0,0,1,0-.07l0,0h1.07Z" transform="translate(-378.15 -37.38)"/><path class="cls-6" d="M624.54,116.49v.21h-1.07s-.05,0-.05-.11a.15.15,0,0,1,0-.07.05.05,0,0,1,0,0Z" transform="translate(-378.15 -37.38)"/><path class="cls-6" d="M624.54,114.92v.2h-1.07s-.05-.05-.05-.1,0-.06,0-.07a.05.05,0,0,1,0,0Z" transform="translate(-378.15 -37.38)"/><path class="cls-6" d="M624.54,110.57v.21h-1.07s-.05,0-.05-.11a.15.15,0,0,1,0-.07.05.05,0,0,1,0,0Z" transform="translate(-378.15 -37.38)"/><path class="cls-6" d="M624.54,127.63V128H622.4c-.06,0-.11-.09-.11-.21a.49.49,0,0,1,0-.14.09.09,0,0,1,.08-.06Z" transform="translate(-378.15 -37.38)"/><path class="cls-6" d="M624.54,120.13v.42H622.4c-.06,0-.11-.1-.11-.21a.57.57,0,0,1,0-.15s0-.06.08-.06Z" transform="translate(-378.15 -37.38)"/><path class="cls-6" d="M624.54,112.64v.41H622.4c-.06,0-.11-.09-.11-.2a.57.57,0,0,1,0-.15.09.09,0,0,1,.08-.06Z" transform="translate(-378.15 -37.38)"/><path class="cls-6" d="M616.55,135.17v.41h2.14c.06,0,.11-.09.11-.21a.42.42,0,0,0,0-.14.09.09,0,0,0-.08-.06Z" transform="translate(-378.15 -37.38)"/><path class="cls-6" d="M616.55,133.26v.2h1.07s0-.05,0-.11a.17.17,0,0,0,0-.07s0,0,0,0h-1.07Z" transform="translate(-378.15 -37.38)"/><path class="cls-6" d="M616.55,131.68v.21h1.07s0,0,0-.11a.15.15,0,0,0,0-.07s0,0,0,0Z" transform="translate(-378.15 -37.38)"/><path class="cls-6" d="M616.55,130.11v.2h1.07s0-.05,0-.1,0-.06,0-.07,0,0,0,0Z" transform="translate(-378.15 -37.38)"/><path class="cls-6" d="M616.55,125.6v.21h1.07s0,0,0-.11a.17.17,0,0,0,0-.07s0,0,0,0Z" transform="translate(-378.15 -37.38)"/><path class="cls-6" d="M616.55,124v.2h1.07s0,0,0-.11a.15.15,0,0,0,0-.07s0,0,0,0Z" transform="translate(-378.15 -37.38)"/><path class="cls-6" d="M616.55,122.46v.2h1.07s0,0,0-.11,0,0,0-.06,0,0,0,0Z" transform="translate(-378.15 -37.38)"/><path class="cls-6" d="M616.55,118.11v.21h1.07s0,0,0-.11a.15.15,0,0,0,0-.07s0,0,0,0Z" transform="translate(-378.15 -37.38)"/><path class="cls-6" d="M616.55,116.54v.2h1.07s0,0,0-.1,0-.06,0-.07,0,0,0,0Z" transform="translate(-378.15 -37.38)"/><path class="cls-6" d="M616.55,115v.21h1.07s0,0,0-.11a.15.15,0,0,0,0-.07s0,0,0,0Z" transform="translate(-378.15 -37.38)"/><path class="cls-6" d="M616.55,110.62v.2h1.07s0,0,0-.1a.15.15,0,0,0,0-.07s0,0,0,0Z" transform="translate(-378.15 -37.38)"/><path class="cls-6" d="M616.55,127.67v.42h2.14c.06,0,.11-.1.11-.21a.57.57,0,0,0,0-.15s0-.06-.08-.06Z" transform="translate(-378.15 -37.38)"/><path class="cls-6" d="M616.55,120.18v.41h2.14c.06,0,.11-.09.11-.2a.57.57,0,0,0,0-.15.09.09,0,0,0-.08-.06Z" transform="translate(-378.15 -37.38)"/><path class="cls-6" d="M616.55,112.69v.41h2.14c.06,0,.11-.09.11-.21a.49.49,0,0,0,0-.14.09.09,0,0,0-.08-.06Z" transform="translate(-378.15 -37.38)"/><path class="cls-6" d="M620.87,134.26a.16.16,0,0,0-.13-.06.12.12,0,0,0-.09,0l-.11.14a1.16,1.16,0,0,1-.18.2,1.22,1.22,0,0,1-.29.18,1,1,0,0,0-.16.09s0,.06,0,.11a.17.17,0,0,0,.16.16,1.29,1.29,0,0,0,.5-.29v1.34a.29.29,0,0,0,.05.17.2.2,0,0,0,.15.06c.13,0,.19-.1.19-.29v-1.67A.35.35,0,0,0,620.87,134.26Z" transform="translate(-378.15 -37.38)"/><path class="cls-6" d="M621.26,128.71a.21.21,0,0,0-.15-.05h-.7l.07-.09c.06,0,.14-.14.27-.25a3.65,3.65,0,0,0,.29-.24,1.25,1.25,0,0,0,.17-.2.64.64,0,0,0,.07-.31.51.51,0,0,0,0-.2.33.33,0,0,0-.1-.17.61.61,0,0,0-.16-.12,1,1,0,0,0-.35-.06.65.65,0,0,0-.29,0,.62.62,0,0,0-.21.13.41.41,0,0,0-.12.18.46.46,0,0,0,0,.19.16.16,0,0,0,0,.12.14.14,0,0,0,.11,0,.18.18,0,0,0,.11,0,.58.58,0,0,0,.08-.14l0-.11a.31.31,0,0,1,.27-.15.26.26,0,0,1,.15,0,.29.29,0,0,1,.12.1.4.4,0,0,1,0,.15.4.4,0,0,1-.15.32,1,1,0,0,1-.18.16,1.48,1.48,0,0,0-.2.17l-.32.31a.63.63,0,0,0-.07.12.46.46,0,0,0,0,.13.18.18,0,0,0,.06.13.23.23,0,0,0,.16.05h1a.12.12,0,0,0,.12-.05.12.12,0,0,0,.05-.1A.13.13,0,0,0,621.26,128.71Z" transform="translate(-378.15 -37.38)"/><path class="cls-6" d="M621.22,120.59a.33.33,0,0,0-.11-.15.55.55,0,0,0-.17-.13.7.7,0,0,0,.16-.19.35.35,0,0,0,.06-.21.38.38,0,0,0,0-.19.42.42,0,0,0-.11-.15.69.69,0,0,0-.19-.1.56.56,0,0,0-.23,0,.75.75,0,0,0-.26,0,.68.68,0,0,0-.19.11.4.4,0,0,0-.12.15.24.24,0,0,0,0,.14.14.14,0,0,0,0,.11.11.11,0,0,0,.09,0h.09l0-.05,0-.1a.44.44,0,0,1,.06-.1.18.18,0,0,1,.07-.05.31.31,0,0,1,.13,0,.27.27,0,0,1,.19.07.27.27,0,0,1,0,.38.27.27,0,0,1-.2.07h0a.18.18,0,0,0-.14,0,.1.1,0,0,0-.05.1.12.12,0,0,0,0,.1.18.18,0,0,0,.11,0h.15a.3.3,0,0,1,.23.09.32.32,0,0,1,.08.24.34.34,0,0,1,0,.18.49.49,0,0,1-.13.12.29.29,0,0,1-.16,0,.26.26,0,0,1-.21-.09,1.19,1.19,0,0,1-.15-.26s0,0,0-.06l-.07,0a.15.15,0,0,0-.12,0,.12.12,0,0,0-.05.12.27.27,0,0,0,0,.14.71.71,0,0,0,.12.18.48.48,0,0,0,.2.14.67.67,0,0,0,.28.06.68.68,0,0,0,.29-.06.46.46,0,0,0,.21-.13.59.59,0,0,0,.15-.2.57.57,0,0,0,0-.22A.54.54,0,0,0,621.22,120.59Z" transform="translate(-378.15 -37.38)"/><path class="cls-6" d="M621.11,112.88a.31.31,0,0,0-.15,0h-.06v-1c0-.14,0-.22-.18-.22a.13.13,0,0,0-.1,0,.63.63,0,0,0-.1.12l-.67.89,0,.06,0,0,0,0a.43.43,0,0,1,0,.05.17.17,0,0,0,.07.15.22.22,0,0,0,.17,0h.63v.23a.21.21,0,0,0,0,.15.21.21,0,0,0,.11,0,.21.21,0,0,0,.12,0,.28.28,0,0,0,0-.15v-.23H621a.29.29,0,0,0,.14,0,.12.12,0,0,0,0-.1A.11.11,0,0,0,621.11,112.88Zm-.51,0h-.54l.54-.72Z" transform="translate(-378.15 -37.38)"/><rect class="cls-6" x="237.97" y="100" width="4.45" height="1.28" rx="0.45"/><rect class="cls-6" x="242.42" y="100" width="4.38" height="1.28" rx="0.45"/><polygon class="cls-20" points="166.51 47.96 192.31 47.96 189.83 46.95 192.31 46.1 189.08 46.1 191.46 44.74 166.51 44.74 166.51 47.96"/><circle class="cls-20" cx="166.51" cy="32.49" r="15.47"/><circle class="cls-21" cx="166.39" cy="32.37" r="14.46"/><circle class="cls-22" cx="166.39" cy="32.37" r="12.57"/><circle class="cls-23" cx="166.39" cy="32.17" r="10.48"/><circle class="cls-24" cx="166.39" cy="32.17" r="8.22"/><circle class="cls-25" cx="166.39" cy="32.17" r="6.03"/><circle class="cls-25" cx="166.39" cy="32.17" r="6.03"/><circle class="cls-26" cx="166.39" cy="32.17" r="4.3"/><circle class="cls-27" cx="166.39" cy="32.17" r="2.98"/><circle class="cls-28" cx="166.39" cy="32.17" r="1.95"/></svg>