<?xml version="1.0" encoding="utf-8"?>
<!-- Generator: Adobe Illustrator 25.2.1, SVG Export Plug-In . SVG Version: 6.00 Build 0)  -->
<svg version="1.1" xmlns="http://www.w3.org/2000/svg" xmlns:xlink="http://www.w3.org/1999/xlink" x="0px" y="0px"
	 viewBox="0 0 328 256" style="enable-background:new 0 0 328 256;" xml:space="preserve">
<style type="text/css">
	.st0{fill:url(#SVGID_1_);}
	.st1{fill:#27AAE1;}
	.st2{fill:#F8B133;}
	.st3{fill:#A2DEF9;}
	.st4{opacity:0.5;fill:#A2DEF9;}
	.st5{fill:#A2DEF9;stroke:#FCEA0D;stroke-width:2.6421;stroke-miterlimit:10;}
	.st6{fill:#A2DEF9;stroke:#F5F5F5;stroke-width:0.4403;stroke-linecap:round;stroke-miterlimit:10;}
	.st7{fill:#A2DEF9;stroke:#DBDDDE;stroke-width:0.8807;stroke-linecap:round;stroke-miterlimit:10;}
	.st8{fill:#A2DEF9;stroke:#260340;stroke-width:0.8807;stroke-linecap:round;stroke-miterlimit:10;}
	.st9{fill:#A2DEF9;stroke:#F8B133;stroke-width:0.8807;stroke-miterlimit:10;}
	.st10{fill:#A2DEF9;stroke:#1D70B7;stroke-width:0.4403;stroke-linecap:round;stroke-miterlimit:10;}
	
		.st11{fill:#A2DEF9;stroke:#A2DEF9;stroke-width:0.2202;stroke-linecap:round;stroke-linejoin:round;stroke-miterlimit:10;stroke-dasharray:2.6421;}
	.st12{fill:#FFFFFF;}
	.st13{fill:url(#SVGID_2_);}
	.st14{fill:url(#SVGID_3_);}
	.st15{fill:url(#SVGID_4_);}
	.st16{fill:url(#SVGID_5_);}
	.st17{fill:url(#SVGID_6_);}
	.st18{fill:url(#SVGID_7_);}
	.st19{fill:none;stroke:#F8B133;stroke-width:2.3527;stroke-linecap:round;stroke-linejoin:round;stroke-miterlimit:10;}
	.st20{fill:#EF4136;}
	.st21{fill:#534741;}
	.st22{fill:#4D4D4D;}
	.st23{fill:url(#SVGID_8_);}
	.st24{fill:#F29100;}
	.st25{fill:#35A8E0;}
	.st26{fill:#E84E1B;}
	.st27{fill:url(#SVGID_9_);}
	.st28{fill:url(#SVGID_10_);}
	.st29{fill:url(#SVGID_11_);}
	.st30{fill:url(#SVGID_12_);}
	.st31{fill:#160031;}
	.st32{fill:none;stroke:#FCEA0D;stroke-width:2.6421;stroke-miterlimit:10;}
	.st33{fill:none;stroke:#F5F5F5;stroke-width:0.4403;stroke-linecap:round;stroke-miterlimit:10;}
	.st34{opacity:0.5;fill:#160031;}
	.st35{fill:#160031;stroke:#DBDDDE;stroke-width:0.8807;stroke-linecap:round;stroke-miterlimit:10;}
	.st36{fill:none;stroke:#DBDDDE;stroke-width:0.8807;stroke-linecap:round;stroke-miterlimit:10;}
	.st37{fill:#1D70B7;stroke:#260340;stroke-width:0.8807;stroke-linecap:round;stroke-miterlimit:10;}
	.st38{fill:none;stroke:#955D61;stroke-width:0.8807;stroke-linecap:round;stroke-miterlimit:10;}
	.st39{fill:url(#SVGID_13_);}
	.st40{fill:url(#SVGID_14_);}
	.st41{fill:none;stroke:#E84E1B;stroke-width:0.4403;stroke-linecap:round;stroke-miterlimit:10;}
	.st42{fill:none;stroke:#F8B133;stroke-width:0.8807;stroke-miterlimit:10;}
	.st43{fill:none;stroke:#1D70B7;stroke-width:0.4403;stroke-linecap:round;stroke-miterlimit:10;}
	.st44{fill:none;stroke:#E84E1B;stroke-width:0.4403;stroke-linecap:round;stroke-linejoin:round;stroke-miterlimit:10;}
	.st45{fill:none;}
	
		.st46{fill:none;stroke:#A2DEF9;stroke-width:0.2202;stroke-linecap:round;stroke-linejoin:round;stroke-miterlimit:10;stroke-dasharray:2.6421;}
	.st47{fill:#260340;}
	.st48{fill:#391763;}
	.st49{fill:url(#SVGID_15_);}
	.st50{fill:#897CBA;}
	.st51{fill:url(#SVGID_16_);}
	.st52{fill:url(#SVGID_17_);}
	.st53{fill:url(#SVGID_18_);}
	.st54{fill:url(#SVGID_19_);}
	.st55{fill:url(#SVGID_20_);}
	.st56{fill:url(#SVGID_21_);}
	.st57{fill:none;stroke:#897CBA;stroke-width:0.4403;stroke-linecap:round;stroke-linejoin:round;stroke-miterlimit:10;}
	.st58{fill:none;stroke:#897CBA;stroke-width:0.4403;stroke-miterlimit:10;}
	.st59{fill:#897CBA;stroke:#897CBA;stroke-width:0.4403;stroke-miterlimit:10;}
	.st60{fill:url(#SVGID_22_);}
	.st61{fill:#F8DCB2;}
	.st62{fill:none;stroke:url(#SVGID_23_);stroke-width:3;stroke-linecap:round;stroke-linejoin:round;stroke-miterlimit:10;}
	.st63{fill:none;stroke:url(#SVGID_24_);stroke-width:3;stroke-linecap:round;stroke-linejoin:round;stroke-miterlimit:10;}
	.st64{fill:url(#SVGID_25_);}
	.st65{fill:url(#SVGID_26_);}
	.st66{fill:url(#SVGID_27_);}
	.st67{fill:url(#SVGID_28_);}
	.st68{fill:url(#SVGID_29_);}
	.st69{fill:url(#SVGID_30_);}
	.st70{fill:url(#SVGID_31_);}
	.st71{fill:url(#SVGID_32_);}
	.st72{fill:url(#SVGID_33_);}
	.st73{fill:url(#SVGID_34_);}
	.st74{fill:none;stroke:#A2DEF9;stroke-width:0.25;stroke-miterlimit:10;stroke-dasharray:2;}
	.st75{fill:url(#SVGID_35_);}
	.st76{fill:url(#SVGID_36_);}
	.st77{fill:url(#SVGID_37_);}
	.st78{fill:url(#SVGID_38_);}
	.st79{fill:url(#SVGID_39_);}
	.st80{fill:url(#SVGID_40_);}
	.st81{fill:url(#SVGID_41_);}
	.st82{fill:url(#SVGID_42_);}
	.st83{fill:url(#SVGID_43_);}
	.st84{fill:url(#SVGID_44_);}
	.st85{fill:url(#SVGID_45_);}
	.st86{fill:#DBDDDE;}
	.st87{fill:none;stroke:#897CBA;stroke-width:0.2846;stroke-linecap:round;stroke-linejoin:round;stroke-miterlimit:10;}
	.st88{fill:url(#SVGID_46_);}
	.st89{fill:url(#SVGID_47_);}
	.st90{fill:url(#SVGID_48_);}
	.st91{fill:url(#SVGID_49_);}
	.st92{fill:url(#SVGID_50_);}
	.st93{fill:url(#SVGID_51_);}
	.st94{fill:url(#SVGID_52_);}
	.st95{fill:url(#SVGID_53_);}
	.st96{fill:url(#SVGID_54_);}
	.st97{fill:url(#SVGID_55_);}
	.st98{fill:url(#SVGID_56_);}
	.st99{fill:url(#SVGID_57_);}
	.st100{fill:url(#SVGID_58_);}
	.st101{fill:url(#SVGID_59_);}
	.st102{fill:url(#SVGID_60_);}
	.st103{fill:none;stroke:#A2DEF9;stroke-width:0.927;stroke-miterlimit:10;}
	.st104{fill:url(#SVGID_61_);}
	.st105{fill:url(#SVGID_62_);}
	.st106{fill:url(#SVGID_63_);}
	
		.st107{fill:none;stroke:#A2DEF9;stroke-width:0.2041;stroke-linecap:round;stroke-linejoin:round;stroke-miterlimit:10;stroke-dasharray:2.4492;}
	.st108{fill:url(#SVGID_64_);}
	.st109{fill:url(#SVGID_65_);}
	.st110{fill:url(#SVGID_66_);}
	.st111{fill:url(#SVGID_67_);}
	.st112{fill:none;stroke:#FCEA0D;stroke-width:2.4492;stroke-miterlimit:10;}
	.st113{fill:none;stroke:#F5F5F5;stroke-width:0.4082;stroke-linecap:round;stroke-miterlimit:10;}
	.st114{fill:#1D70B7;stroke:#260340;stroke-width:0.8164;stroke-linecap:round;stroke-miterlimit:10;}
	.st115{fill:none;stroke:#955D61;stroke-width:0.8164;stroke-linecap:round;stroke-miterlimit:10;}
	.st116{fill:url(#SVGID_68_);}
	.st117{fill:url(#SVGID_69_);}
	.st118{fill:none;stroke:#E84E1B;stroke-width:0.4082;stroke-linecap:round;stroke-miterlimit:10;}
	.st119{fill:none;stroke:#F8B133;stroke-width:0.8164;stroke-miterlimit:10;}
	.st120{fill:none;stroke:#1D70B7;stroke-width:0.4082;stroke-linecap:round;stroke-miterlimit:10;}
	.st121{fill:none;stroke:#E84E1B;stroke-width:0.4082;stroke-linecap:round;stroke-linejoin:round;stroke-miterlimit:10;}
	.st122{fill:url(#SVGID_70_);}
	.st123{fill:url(#SVGID_71_);}
	.st124{fill:url(#SVGID_72_);}
	.st125{fill:none;stroke:#897CBA;stroke-width:0.4082;stroke-linecap:round;stroke-linejoin:round;stroke-miterlimit:10;}
	.st126{fill:none;stroke:#897CBA;stroke-width:0.4082;stroke-miterlimit:10;}
	.st127{fill:#897CBA;stroke:#897CBA;stroke-width:0.4082;stroke-miterlimit:10;}
	.st128{fill:url(#SVGID_73_);}
	.st129{fill:none;stroke:#DBDDDE;stroke-width:0.8164;stroke-linecap:round;stroke-miterlimit:10;}
	.st130{fill:url(#SVGID_74_);}
	.st131{fill:url(#SVGID_75_);}
	.st132{fill:url(#SVGID_76_);}
	.st133{fill:url(#SVGID_77_);}
	.st134{fill:url(#SVGID_78_);}
	.st135{fill:none;stroke:url(#SVGID_79_);stroke-width:2.781;stroke-linecap:round;stroke-linejoin:round;stroke-miterlimit:10;}
	.st136{fill:#F5F5F5;}
	.st137{fill:#2D2E82;}
	.st138{opacity:0.35;fill:none;stroke:#897CBA;stroke-width:0.6447;stroke-linecap:round;stroke-miterlimit:10;}
	.st139{opacity:0.35;fill:#897CBA;}
	.st140{fill:none;stroke:#FBB040;stroke-width:6.594;stroke-miterlimit:10;}
	.st141{fill:url(#SVGID_80_);}
	.st142{fill:url(#SVGID_81_);}
	.st143{fill:#808080;}
	.st144{fill:url(#SVGID_82_);}
	.st145{fill:none;stroke:#A2DEF9;stroke-width:0.2788;stroke-miterlimit:10;stroke-dasharray:2.2306;}
	.st146{fill:none;stroke:#FCEA0D;stroke-width:2.9467;stroke-miterlimit:10;}
	.st147{fill:none;stroke:#F5F5F5;stroke-width:0.4911;stroke-linecap:round;stroke-miterlimit:10;}
	.st148{fill:url(#SVGID_83_);}
	.st149{fill:url(#SVGID_84_);}
	.st150{fill:url(#SVGID_85_);}
	.st151{fill:#F7941D;stroke:#391763;stroke-width:0.734;stroke-miterlimit:10;}
	.st152{opacity:0.35;fill:none;stroke:#897CBA;stroke-width:0.1777;stroke-linecap:round;stroke-miterlimit:10;}
	.st153{fill:none;stroke:url(#SVGID_86_);stroke-width:2.4101;stroke-linecap:round;stroke-linejoin:round;stroke-miterlimit:10;}
	.st154{fill:url(#SVGID_87_);}
	.st155{fill:url(#SVGID_88_);}
	.st156{fill:none;stroke:#FBB040;stroke-width:6.5297;stroke-miterlimit:10;}
	.st157{fill:url(#SVGID_89_);}
	.st158{fill:url(#SVGID_90_);}
	.st159{fill:url(#SVGID_91_);}
	.st160{fill:url(#SVGID_92_);}
	.st161{fill:url(#SVGID_93_);}
	.st162{fill:url(#SVGID_94_);}
	.st163{fill:url(#SVGID_95_);}
	.st164{fill:url(#SVGID_96_);}
	.st165{fill:url(#SVGID_97_);}
	.st166{fill:none;stroke:#F8B133;stroke-width:2;stroke-miterlimit:10;}
	.st167{fill:none;stroke:#A2DEF9;stroke-width:0.75;stroke-miterlimit:10;stroke-dasharray:2;}
	.st168{fill:#FFFFFF;stroke:#FBB040;stroke-width:4.9491;stroke-miterlimit:10;}
	.st169{fill:url(#SVGID_98_);}
	.st170{fill:none;stroke:#E7BEB0;stroke-width:0.4675;stroke-miterlimit:10;}
	.st171{fill:none;stroke:#E7BEB0;stroke-width:0.4063;stroke-miterlimit:10;}
	.st172{fill:none;stroke:#E7BEB0;stroke-width:0.3387;stroke-miterlimit:10;}
	.st173{fill:none;stroke:#E7BEB0;stroke-width:0.2656;stroke-miterlimit:10;}
	.st174{fill:none;stroke:#E7BEB0;stroke-width:0.195;stroke-miterlimit:10;}
	.st175{fill:none;stroke:#E7BEB0;stroke-width:0.1391;stroke-miterlimit:10;}
	.st176{fill:none;stroke:#E7BEB0;stroke-width:9.645370e-02;stroke-miterlimit:10;}
	.st177{fill:none;stroke:#E7BEB0;stroke-width:6.288800e-02;stroke-miterlimit:10;}
	.st178{fill:url(#SVGID_99_);}
	.st179{fill:url(#SVGID_100_);}
	.st180{fill:url(#SVGID_101_);}
	.st181{fill:url(#SVGID_102_);}
	.st182{fill:url(#SVGID_103_);}
	.st183{fill:url(#SVGID_104_);}
	.st184{fill:url(#SVGID_105_);}
	.st185{fill:url(#SVGID_106_);}
	.st186{fill:url(#SVGID_107_);}
	.st187{fill:url(#SVGID_108_);}
	.st188{fill:url(#SVGID_109_);}
	.st189{fill:url(#SVGID_110_);}
	.st190{fill:url(#SVGID_111_);}
	.st191{fill:url(#SVGID_112_);}
	.st192{fill:url(#SVGID_113_);}
	.st193{fill:url(#SVGID_114_);}
	.st194{fill:url(#SVGID_115_);}
	.st195{fill:#FFFFFF;stroke:#FBB040;stroke-width:6;stroke-miterlimit:10;}
	.st196{fill:#177466;}
	.st197{fill:url(#SVGID_116_);}
	.st198{fill:url(#SVGID_117_);}
	.st199{fill:url(#SVGID_118_);}
	.st200{fill:none;stroke:#E84E1B;stroke-width:0.2344;stroke-linecap:round;stroke-linejoin:round;stroke-miterlimit:10;}
	.st201{fill:#142A2D;}
	.st202{fill:none;stroke:#00A79D;stroke-width:0.4688;stroke-linecap:round;stroke-miterlimit:10;}
	.st203{fill:url(#SVGID_119_);}
	.st204{fill:url(#SVGID_120_);}
	.st205{fill:#FFFFFF;stroke:#FBB040;stroke-width:7;stroke-miterlimit:10;}
	.st206{fill:url(#SVGID_121_);}
	.st207{fill:#FCEA0D;}
	.st208{fill:url(#SVGID_122_);}
	.st209{fill:#2BB673;}
	.st210{fill:url(#SVGID_123_);}
	.st211{fill:url(#SVGID_124_);}
	.st212{fill:url(#SVGID_125_);}
	.st213{fill:none;stroke:#E84E1B;stroke-width:0.846;stroke-linecap:round;stroke-linejoin:round;stroke-miterlimit:10;}
	.st214{fill:url(#SVGID_126_);}
	.st215{fill:url(#SVGID_127_);}
	.st216{fill:url(#SVGID_128_);}
	.st217{fill:url(#SVGID_129_);}
	.st218{fill:url(#SVGID_130_);}
	.st219{fill:url(#SVGID_131_);}
	.st220{fill:none;stroke:#897CBA;stroke-width:1.1695;stroke-miterlimit:10;}
	.st221{fill:#897CBA;stroke:#897CBA;stroke-width:1.1695;stroke-miterlimit:10;}
	.st222{fill:#897CBA;stroke:#897CBA;stroke-width:0.7797;stroke-miterlimit:10;}
	.st223{fill:url(#SVGID_132_);}
	.st224{fill:url(#SVGID_133_);}
	.st225{fill:#FFFFFF;stroke:#FBB040;stroke-width:7.4248;stroke-miterlimit:10;}
	.st226{fill:url(#SVGID_134_);}
	.st227{fill:url(#SVGID_135_);}
	.st228{fill:url(#SVGID_136_);}
	.st229{fill:none;stroke:#E84E1B;stroke-width:0.684;stroke-linecap:round;stroke-linejoin:round;stroke-miterlimit:10;}
	.st230{fill:url(#SVGID_137_);}
	.st231{fill:url(#SVGID_138_);}
	.st232{fill:url(#SVGID_139_);}
	.st233{fill:url(#SVGID_140_);}
	.st234{fill:url(#SVGID_141_);}
	.st235{fill:url(#SVGID_142_);}
	.st236{fill:none;stroke:#897CBA;stroke-width:0.9456;stroke-miterlimit:10;}
	.st237{fill:#897CBA;stroke:#897CBA;stroke-width:0.9456;stroke-miterlimit:10;}
	.st238{fill:#897CBA;stroke:#897CBA;stroke-width:0.6304;stroke-miterlimit:10;}
	.st239{fill:url(#SVGID_143_);}
	.st240{fill:url(#SVGID_144_);}
	.st241{fill:url(#SVGID_145_);}
	.st242{fill:url(#SVGID_146_);}
	.st243{fill:none;stroke:#A2DEF9;stroke-width:0.315;stroke-miterlimit:10;stroke-dasharray:2.5204;}
	.st244{fill:none;stroke:#FCEA0D;stroke-width:3.3295;stroke-miterlimit:10;}
	.st245{fill:none;stroke:#F5F5F5;stroke-width:0.5549;stroke-linecap:round;stroke-miterlimit:10;}
	.st246{fill:url(#SVGID_147_);}
	.st247{fill:url(#SVGID_148_);}
	.st248{fill:url(#SVGID_149_);}
	.st249{fill:#F7941D;stroke:#391763;stroke-width:0.8293;stroke-miterlimit:10;}
	.st250{opacity:0.35;fill:none;stroke:#897CBA;stroke-width:0.7407;stroke-linecap:round;stroke-miterlimit:10;}
	.st251{opacity:0.35;fill:none;stroke:#897CBA;stroke-width:0.2028;stroke-linecap:round;stroke-miterlimit:10;}
	.st252{fill:none;stroke:url(#SVGID_150_);stroke-width:2.7232;stroke-linecap:round;stroke-linejoin:round;stroke-miterlimit:10;}
	.st253{fill:#FFFFFF;stroke:#FBB040;stroke-width:7.3021;stroke-miterlimit:10;}
	.st254{fill:url(#SVGID_151_);}
	.st255{fill:url(#SVGID_152_);}
	.st256{fill:url(#SVGID_153_);}
	.st257{fill:url(#SVGID_154_);}
	.st258{fill:url(#SVGID_155_);}
	.st259{fill:url(#SVGID_156_);}
	.st260{opacity:0.35;fill:none;stroke:#897CBA;stroke-width:1.1505;stroke-linecap:round;stroke-miterlimit:10;}
	.st261{fill:url(#SVGID_157_);}
	.st262{fill:url(#SVGID_158_);}
	.st263{fill:none;stroke:url(#SVGID_159_);stroke-width:2.3989;stroke-linecap:round;stroke-linejoin:round;stroke-miterlimit:10;}
</style>
<g id="TUG_test_uitvoering">
</g>
<g id="stop_knop_close_up">
</g>
<g id="Afmetingen_stoel">
	<linearGradient id="SVGID_1_" gradientUnits="userSpaceOnUse" x1="164" y1="69.0995" x2="164" y2="228.2057">
		<stop  offset="0" style="stop-color:#65C8D0"/>
		<stop  offset="0.1604" style="stop-color:#64C4CE"/>
		<stop  offset="0.3219" style="stop-color:#5FB8C8"/>
		<stop  offset="0.4839" style="stop-color:#58A4BE"/>
		<stop  offset="0.6465" style="stop-color:#4D87AF"/>
		<stop  offset="0.8094" style="stop-color:#40639D"/>
		<stop  offset="0.9705" style="stop-color:#303787"/>
		<stop  offset="1" style="stop-color:#2D2E82"/>
	</linearGradient>
	<path class="st0" d="M305.2,210.6c0,4.7-0.1,9.7,0,15.4H22.7c0-4,0.1-8.5,0-12.4c0-1,0-2,0-2.9c0-79.4,63.7-143.7,142.3-143.7
		S305.8,131.2,305.2,210.6z"/>
	<g>
		<path class="st21" d="M177.1,81.6h-0.3c-0.6,0-1-0.5-1-1v-0.2c0-0.6,0.5-1,1-1h0.3c0.6,0,1,0.5,1,1v0.2
			C178.1,81.1,177.7,81.6,177.1,81.6z"/>
		<path class="st21" d="M148.6,72.9h-0.3c-0.6,0-1-0.5-1-1v-0.2c0-0.6,0.5-1,1-1h0.3c0.6,0,1,0.5,1,1v0.2
			C149.6,72.4,149.1,72.9,148.6,72.9z"/>
		<path class="st22" d="M168.2,76.7h-3.2c-6.7,0-12.1-5.4-12.1-12.1V62c0-6.7,5.4-12.1,12.1-12.1h3.2c6.7,0,12.1,5.4,12.1,12.1v2.7
			C180.2,71.3,174.8,76.7,168.2,76.7z"/>
		<path class="st21" d="M150.9,71.8h-1.2c-2.6,0-4.6-2.1-4.6-4.6v-1c0-2.6,2.1-4.6,4.6-4.6h1.2c2.6,0,4.6,2.1,4.6,4.6v1
			C155.5,69.7,153.5,71.8,150.9,71.8z"/>
		<path class="st21" d="M178.3,78.3h-0.8c-1.6,0-3-1.3-3-3v-0.7c0-1.6,1.3-3,3-3h0.8c1.6,0,3,1.3,3,3v0.7
			C181.2,77,179.9,78.3,178.3,78.3z"/>
		<linearGradient id="SVGID_2_" gradientUnits="userSpaceOnUse" x1="162.7607" y1="168.1229" x2="162.7607" y2="127.5553">
			<stop  offset="0" style="stop-color:#2D2E82"/>
			<stop  offset="2.728606e-02" style="stop-color:#2C2D7D"/>
			<stop  offset="0.1562" style="stop-color:#2B276B"/>
			<stop  offset="0.2906" style="stop-color:#292460"/>
			<stop  offset="0.4385" style="stop-color:#29235C"/>
		</linearGradient>
		<path class="st13" d="M141.6,167.6c0,0,17.2-33,42.4,0.6l-2.3-37.4l-34.5-3.1L141.6,167.6z"/>
		<path class="st24" d="M179.9,77.9c0,1.7-1.3,3-2.9,3.2c-0.1,0-0.2,0-0.3,0v-6.4c0.1,0,0.2,0,0.3,0c0.8,0.1,1.4,0.4,1.9,0.9
			c0,0,0.1,0.1,0.1,0.1c0,0,0.1,0.1,0.1,0.1c0.2,0.2,0.3,0.5,0.4,0.7C179.8,76.9,179.9,77.4,179.9,77.9z"/>
		<g>
			<g>
				<polygon class="st25" points="157,161.4 159.6,160.7 152.1,126.1 150.6,119.2 145,120.8 147,127.6 				"/>
				<polygon class="st25" points="147,127.6 152.1,126.1 150.6,119.2 145,120.8 				"/>
			</g>
			<g>
				<g>
					<g>
						<g>
							<path class="st2" d="M158.6,171.3c0.1,0.2,0.3,0.3,0.5,0.4l0.2,0l0,0l0,0c0.3,0,0.5,0,0.7-0.2c0,0,0.1,0,0.1-0.1
								c0.1-0.1,0.2-0.3,0.2-0.5c0.3-2,0.6-5.1,0.3-8.4c-0.1-0.9-0.2-1.8-0.4-2.7c0-0.2-0.1-0.3-0.1-0.5c-0.1-0.2-0.2-0.4-0.3-0.6
								c0-0.1-0.1-0.1-0.1-0.2c0-0.1-0.1-0.1-0.1-0.2c0,0,0,0-0.1-0.1c0,0,0,0,0,0c-0.7-0.8-1.7-1.4-2.9-1.4c0,0,0,0,0,0
								c0,0,0,0,0,0c-0.1,0.2-0.4,1.5-0.4,3.3c0,0.2,0,0.5,0,0.8C156,164,156.5,167.7,158.6,171.3z"/>
							<path class="st2" d="M158.4,159.4l0.5,0.7l0.3,0.4l1.5,2.1l1.2,1.7c0.2,0.3,0.7,0.4,1,0.2l0.1,0c0.3-0.2,0.4-0.6,0.2-1
								l-2.8-4.1l-0.3-0.5l-0.1-0.2l-0.1-0.2c0,0-0.1-0.1-0.1-0.1c-0.2-0.2-0.6-0.3-0.9-0.1l-0.1,0
								C158.2,158.6,158.1,159.1,158.4,159.4z"/>
						</g>
						<path class="st26" d="M160,171.5C160.1,171.5,160.1,171.5,160,171.5c-1.5-1.7-1.1-8.6-1.1-8.7c0,0,0-0.1-0.1-0.1
							c0,0-0.1,0-0.1,0.1C158.8,163.1,158.4,169.8,160,171.5z"/>
						<path class="st26" d="M159.1,171.7c-1.5-1.8-2.3-6.7-2.4-6.9c0,0,0-0.1,0-0.1c0,0,0.1,0,0.1,0c0,0.1,0.9,5.2,2.4,6.9l0,0
							L159.1,171.7z"/>
					</g>
				</g>
				<path class="st24" d="M156.1,161.2c0.8,0.2,1.6,0.1,2.3-0.2c0.3-0.1,0.5-0.3,0.7-0.4c0.4-0.3,0.7-0.6,0.9-1c0,0,0-0.1,0.1-0.1
					l-0.3-0.5l-0.1-0.2l-0.1-0.2c0,0-0.1-0.1-0.1-0.1c-0.7-0.8-1.7-1.4-2.9-1.4c0,0,0,0,0,0c0,0,0,0,0,0c-0.1,0.2-0.4,1.5-0.4,3.3
					C156.1,160.7,156.1,160.9,156.1,161.2z"/>
			</g>
			<linearGradient id="SVGID_3_" gradientUnits="userSpaceOnUse" x1="152.2892" y1="104.5677" x2="152.2892" y2="159.8845">
				<stop  offset="0" style="stop-color:#260340"/>
				<stop  offset="0.4082" style="stop-color:#310F53"/>
				<stop  offset="0.7562" style="stop-color:#37155F"/>
				<stop  offset="1" style="stop-color:#391763"/>
			</linearGradient>
			<path class="st14" d="M153.9,159.9l7.3-1.5l-11.7-53.8l0,0c-4.8,1-6.8,5.1-6,9.9L153.9,159.9z"/>
		</g>
		<g>
			<linearGradient id="SVGID_4_" gradientUnits="userSpaceOnUse" x1="162.223" y1="154.8613" x2="162.223" y2="104.5639">
				<stop  offset="0.1872" style="stop-color:#35A8E0"/>
				<stop  offset="0.3054" style="stop-color:#38A9E1"/>
				<stop  offset="0.3846" style="stop-color:#41AEE3"/>
				<stop  offset="0.4523" style="stop-color:#50B5E6"/>
				<stop  offset="0.5135" style="stop-color:#65C0EB"/>
				<stop  offset="0.5699" style="stop-color:#80CDF1"/>
				<stop  offset="0.6231" style="stop-color:#A2DEF9"/>
			</linearGradient>
			<path class="st15" d="M149.5,104.6c0,0-1.7,3.7-2.2,15.6c-0.1,2.2-0.1,4.6-0.1,7.4c0,0.2,0,0.4,0,0.6v0c0,0.8,0,1.7,0,2.5v0
				c0.1,5.9,0.4,13,1.2,21.6c0,0.1,0,0.2,0,0.3c0,0,0,0.1,0,0.1c0,0.6,0.1,1.1,0.1,1.7c0,0.1,0,0.3,0,0.4c0,0,0,0,0,0.1v0h26.7v-0.1
				l0-0.4l0.1-1.8v-0.1l0-0.3l0.1-2.1l0-1.5l0-0.9v0l0.3-7.3v0l0.5-13.9l0.3-7.3l0.6-14.8v0H149.5z"/>
		</g>
		<linearGradient id="SVGID_5_" gradientUnits="userSpaceOnUse" x1="141.5222" y1="234.6857" x2="153.6454" y2="162.1312">
			<stop  offset="0" style="stop-color:#35A8E0"/>
			<stop  offset="0.6726" style="stop-color:#2F539E"/>
			<stop  offset="1" style="stop-color:#2D2E82"/>
		</linearGradient>
		<path class="st16" d="M148.6,157.8l-7.2,24.7c-0.1,0.5-0.2,0.9-0.3,1.4l-9.4,43.7h0c3,2.9,3.6,5.8,5.9,2.1
			c4.6-7.7,13.4-23.4,13.4-40.1c0-1.7,10.3-10.7,14.6-31.7H148.6z"/>
		<linearGradient id="SVGID_6_" gradientUnits="userSpaceOnUse" x1="177.4148" y1="227.7316" x2="177.8737" y2="159.1247">
			<stop  offset="0" style="stop-color:#35A8E0"/>
			<stop  offset="6.679292e-02" style="stop-color:#3498D4"/>
			<stop  offset="0.2539" style="stop-color:#3172B7"/>
			<stop  offset="0.44" style="stop-color:#3055A0"/>
			<stop  offset="0.6225" style="stop-color:#2E3F8F"/>
			<stop  offset="0.7996" style="stop-color:#2D3285"/>
			<stop  offset="0.9653" style="stop-color:#2D2E82"/>
		</linearGradient>
		<path class="st17" d="M194.7,226.2c0,0-0.1,0-0.1,0c-0.5,0.1-1,0.2-1.7,0.2h-0.1c-0.2,0-0.4,0-0.6,0c0,0,0,0,0,0
			c-1.1,0-2.4-0.1-3.6-0.2l-0.4-1.9c-0.1-0.3-0.2-0.5-0.3-0.8l-3.2-5.3l-0.3-0.6l-16-26.2l-8.9-33.7h1.1l0,0.4
			c0,0.1,0.1,0.1,0.1,0.1c0.1,0,0.1,0,0.1-0.1l0-0.4h14.5c6.2,7,4.4,30.1,4.6,30.4c1.8,2.3,7.8,18.3,12.2,28.6
			c0.1,0.2,0.2,0.4,0.3,0.6c0.1,0.2,0.2,0.4,0.3,0.6c0,0,0,0,0,0c0.1,0.2,0.1,0.3,0.2,0.5c0,0,0,0,0,0c0,0,0,0,0,0l0,0
			c0,0.1,0.1,0.2,0.1,0.3c0.8,1.8,1.5,3.3,2.1,4.4c0,0,0,0.1,0.1,0.1c0,0,0,0,0,0c0,0.1,0.1,0.2,0.1,0.3
			C196.1,225.2,195.7,225.9,194.7,226.2z"/>
		<rect x="148.6" y="154.9" class="st31" width="26.7" height="2.9"/>
		<path class="st2" d="M170,98.6v7c0,2.9-2.4,5.3-5.3,5.3H163c-2.9,0-5.3-2.4-5.3-5.3v-7c0-2.9,2.4-5.3,5.3-5.3h1.7
			C167.7,93.3,170,95.7,170,98.6z"/>
		<path class="st24" d="M177,67.8V88l-5.3,10.8c-0.5,0.4-1.1,0.8-1.6,1.1v2.2c-2.1,1.3-4.6,2-7.3,2c-1.7,0-3.4-0.3-4.9-0.9v-2.2h0
			c-5.4-2-9.3-7.1-9.3-13.1V67.8c0-0.4,0-0.9,0.1-1.3c0-0.2,0-0.3,0.1-0.5v0c0.1-0.5,0.2-1,0.3-1.4c0.4-1.8,1.3-3.5,2.4-5
			c0.1-0.2,0.3-0.3,0.4-0.5c0.1-0.1,0.1-0.2,0.2-0.3c0-0.1,0.1-0.1,0.1-0.1c0.1-0.1,0.2-0.2,0.3-0.3c0.1-0.1,0.3-0.3,0.4-0.4
			c0.7-0.7,1.5-1.3,2.4-1.9c0.1,0,0.1-0.1,0.2-0.1c0,0,0.1,0,0.1-0.1c0,0,0,0,0.1,0c0.1,0,0.2-0.1,0.3-0.2c0.4-0.2,0.9-0.5,1.4-0.7
			c0.2-0.1,0.4-0.1,0.6-0.2c0,0,0.1,0,0.1,0c0.4-0.1,0.8-0.3,1.2-0.4c0.6-0.2,1.3-0.3,1.9-0.4h0c0.3,0,0.5-0.1,0.7-0.1
			c0.3,0,0.7,0,1,0c0.1,0,0.2,0,0.2,0l0.7,0c0.1,0,0.3,0,0.4,0c0,0,0,0,0.1,0c0.5,0.1,1.1,0.1,1.6,0.2h0c0.5,0.1,0.9,0.2,1.4,0.4
			c0.3,0.1,0.6,0.2,0.8,0.3l0,0c0.1,0,0.2,0.1,0.3,0.1c0,0,0.1,0,0.1,0c0.5,0.2,0.9,0.4,1.3,0.7c0,0,0,0,0.1,0
			c0.2,0.1,0.4,0.3,0.7,0.4c0.7,0.4,1.4,0.9,2,1.5c0.1,0.1,0.1,0.1,0.2,0.2c0.1,0.1,0.1,0.1,0.2,0.2c0,0,0,0,0,0
			c0.3,0.3,0.5,0.6,0.8,0.8c0.2,0.2,0.4,0.4,0.5,0.7c0.3,0.4,0.6,0.8,0.8,1.2c0,0.1,0.1,0.1,0.1,0.1c0.1,0.1,0.1,0.2,0.1,0.2
			c0.1,0.1,0.1,0.2,0.1,0.2c0.1,0.1,0.1,0.2,0.2,0.4c0,0,0,0.1,0.1,0.1c0.1,0.1,0.1,0.2,0.2,0.4c0.4,0.8,0.7,1.7,0.9,2.6
			c0,0.1,0,0.2,0.1,0.2c0.1,0.4,0.1,0.8,0.2,1.2v0c0,0.2,0,0.5,0.1,0.7c0,0.1,0,0.1,0,0.2C177,67.4,177,67.6,177,67.8z"/>
		<path class="st2" d="M177,65.6V88c0,4.4-2.1,8.3-5.3,10.8c-0.5,0.4-1.1,0.8-1.6,1.1c-2.1,1.3-4.6,2-7.3,2c-1.7,0-3.4-0.3-4.9-0.9
			h0c-5.4-2-9.3-7.1-9.3-13.1V65.6c0-0.4,0-0.9,0.1-1.3c0-0.2,0-0.3,0.1-0.5v0c0.1-0.5,0.2-1,0.3-1.4c0.4-1.8,1.3-3.5,2.4-5
			c0.1-0.2,0.3-0.3,0.4-0.5c0.1-0.1,0.1-0.2,0.2-0.3c0,0,0.1-0.1,0.1-0.1c0.1-0.1,0.2-0.2,0.3-0.3c0.1-0.1,0.3-0.3,0.4-0.4
			c0.7-0.7,1.5-1.3,2.4-1.9c0.1,0,0.1-0.1,0.2-0.1c0,0,0.1,0,0.1-0.1c0,0,0,0,0.1,0c0.1-0.1,0.2-0.1,0.3-0.2
			c0.4-0.3,0.9-0.5,1.4-0.7c0.2-0.1,0.4-0.1,0.6-0.2c0,0,0.1,0,0.1-0.1c0.4-0.1,0.8-0.3,1.2-0.4c0.6-0.2,1.3-0.3,1.9-0.4h0
			c0.3,0,0.5-0.1,0.7-0.1c0.3,0,0.7,0,1,0c0.1,0,0.2,0,0.2,0l0.7,0c0.1,0,0.3,0,0.4,0c0,0,0,0,0.1,0c0.5,0.1,1.1,0.1,1.6,0.3h0
			c0.5,0.1,0.9,0.2,1.4,0.4c0.3,0.1,0.6,0.2,0.8,0.3l0,0c0.1,0,0.2,0.1,0.3,0.1c0,0,0.1,0,0.1,0.1c0.5,0.2,0.9,0.4,1.3,0.7
			c0,0,0,0,0.1,0c0.2,0.1,0.4,0.3,0.7,0.4c0.7,0.4,1.4,1,2,1.5c0.1,0,0.1,0.1,0.2,0.2c0.1,0,0.1,0.1,0.2,0.2c0,0,0,0,0,0
			c0.3,0.3,0.5,0.5,0.8,0.8c0.2,0.2,0.4,0.4,0.5,0.7c0.3,0.4,0.6,0.8,0.8,1.2c0,0,0.1,0.1,0.1,0.1c0.1,0.1,0.1,0.2,0.1,0.2
			c0.1,0.1,0.1,0.2,0.1,0.2c0.1,0.1,0.1,0.2,0.2,0.4c0,0,0,0.1,0.1,0.1c0.1,0.1,0.1,0.2,0.2,0.4c0.4,0.8,0.7,1.7,0.9,2.6
			c0,0.1,0,0.2,0.1,0.2c0.1,0.4,0.1,0.8,0.2,1.2v0c0,0.2,0,0.5,0.1,0.7c0,0.1,0,0.1,0,0.2C177,65.2,177,65.4,177,65.6z"/>
		<g>
			<path class="st34" d="M193.3,222.6c0,0.9-0.1,2-0.4,3.3c0,0,0,0.2-0.1,0.5c-0.1,0.4-0.2,0.9-0.4,1.4c0,0.1-0.1,0.1-0.1,0.2v0
				c0,0,0,0.1-0.1,0.1v0c0,0,0,0,0,0c0,0.1-0.1,0.1-0.1,0.2c-0.5,1-1.4,1.8-2.8,1.1c-0.1,0-0.7-0.2-1.2-0.4l0,0h0
				c-0.5-0.2-1-0.3-1-0.4c0,0,0,0,0-0.1v0c0-0.1-0.1-0.3-0.1-0.6c-0.5-1.7-2.4-5.4-3.8-7.7c-0.1-0.2-0.2-0.4-0.2-0.5
				c0.1-0.7,0.7-1.3,1.5-1.5l0.1,0l-0.3-0.6c0.1,0,0.1,0,0.2-0.1l6-1.1c0.3-0.1,0.6,0,0.9,0h0l0.9,0.9c0.1,0.2,0.2,0.4,0.3,0.6
				c0,0,0,0,0,0c0.1,0.1,0.2,0.3,0.2,0.5c0,0,0,0,0,0c0,0,0,0,0,0l0,0l0.1,0.1c0,0.1,0,0.1,0,0.2C193.1,220,193.3,221.1,193.3,222.6
				z"/>
			<path class="st35" d="M185.4,232.4c-0.2-1.7,1.1-3.2,2.8-3.3"/>
		</g>
		<path class="st36" d="M117.3,225.4c0.6-0.6,1.8-0.6,2.5,0.2"/>
		<ellipse class="st3" cx="167.2" cy="157.1" rx="0.6" ry="0.6"/>
		<path class="st38" d="M164.9,73.1c1.9-1,4.2-0.4,5.3,1.4"/>
		
			<linearGradient id="SVGID_7_" gradientUnits="userSpaceOnUse" x1="147.9854" y1="76.7854" x2="147.9854" y2="81.0051" gradientTransform="matrix(1 0 0 1 7.2538 0)">
			<stop  offset="0" style="stop-color:#2D2E82"/>
			<stop  offset="0.1184" style="stop-color:#1C2969"/>
			<stop  offset="0.2581" style="stop-color:#0C2452"/>
			<stop  offset="0.3462" style="stop-color:#06224A"/>
		</linearGradient>
		<path class="st18" d="M155.2,81L155.2,81c-0.8,0-1.5-0.7-1.5-1.5v-1.3c0-0.8,0.7-1.5,1.5-1.5l0,0c0.8,0,1.5,0.7,1.5,1.5v1.3
			C156.7,80.4,156,81,155.2,81z"/>
		
			<linearGradient id="SVGID_8_" gradientUnits="userSpaceOnUse" x1="159.0525" y1="76.7854" x2="159.0525" y2="81.0051" gradientTransform="matrix(1 0 0 1 7.2538 0)">
			<stop  offset="0" style="stop-color:#2D2E82"/>
			<stop  offset="5.917066e-02" style="stop-color:#212A71"/>
			<stop  offset="0.1536" style="stop-color:#12265B"/>
			<stop  offset="0.2453" style="stop-color:#09234E"/>
			<stop  offset="0.3308" style="stop-color:#06224A"/>
		</linearGradient>
		<path class="st23" d="M166.3,81L166.3,81c-0.8,0-1.5-0.7-1.5-1.5v-1.3c0-0.8,0.7-1.5,1.5-1.5l0,0c0.8,0,1.5,0.7,1.5,1.5v1.3
			C167.8,80.4,167.1,81,166.3,81z"/>
		<path class="st41" d="M160.3,81.6c0,0,0.2,3.6-1.8,4.8s1.3,2.3,1.3,2.3"/>
		<path class="st38" d="M156.7,73.1c-1.9-1-4.2-0.4-5.3,1.4"/>
		<ellipse class="st3" cx="154" cy="78.1" rx="0.6" ry="0.6"/>
		<ellipse class="st3" cx="164.9" cy="78.1" rx="0.6" ry="0.6"/>
		<path class="st44" d="M157.2,93.1c0,0,1.6,1,5.7,0"/>
		<line class="st45" x1="175.5" y1="148.7" x2="175.5" y2="150.2"/>
		<path class="st46" d="M176.1,162.2c0,0,3,8.8,2,26.2l13.3,31.1"/>
		<g>
			<path class="st47" d="M196.1,233.2C196.1,233.2,196.1,233.2,196.1,233.2C196.1,233.2,196.1,233.2,196.1,233.2
				C196.1,233.2,196.1,233.2,196.1,233.2c0,0.2,0,0.4,0,0.5v0c0,0,0,0,0,0.1l-0.2-0.5l-0.2-0.5l-0.1-0.2l-0.1-0.1v0l-0.1-0.3l0,0
				l-0.7-1.9v0l-0.4-1.1l0,0l-0.2-0.4c0,0,0-0.1,0.1-0.4c0,0,0,0,0,0c0.1-0.4,0.3-1.2,0.4-2.1c0.2-0.9,0.3-1.9,0.4-2.8c0,0,0,0,0,0
				c0.1-0.7,0.1-1.3,0.1-1.7c0,0,0,0,0,0c0-0.2,0-0.4-0.1-0.6l0.1,0.1l1.7,1.7l0.1,0.1l0.5,0.5v0l0.4,0.4c0.1,0.1,0.2,0.3,0.2,0.5
				c0,0,0,0,0,0l-0.2,1l0,0.1l0,0L196.1,233.2z"/>
			<path class="st48" d="M195.6,232.1C195.6,232.1,195.6,232.1,195.6,232.1c0,0.1,0,0.2,0,0.3v0c0,0,0,0,0,0.1c0,0,0,0,0,0
				c0,0.1,0,0.2,0,0.3c0,0.2,0.1,0.4,0.2,0.5c0.1,0.1,0.1,0.2,0.2,0.3l-0.2-0.3l-0.4-0.5l-0.4-0.6v0l-2.6-3.6v0l0-0.1
				c0,0,0-0.1,0-0.2c0-0.1,0-0.1,0-0.2c0,0,0,0,0,0v0c0-0.1,0-0.2,0-0.4c0-0.4,0-0.8,0-1.3c-0.1-2.9-0.3-7.9-0.8-9.3h0l0.2,0.2
				l1.2,1.2l0,0l0.1,0.1l2.3,2.4l1.7,1.8l0.1,0.1l0.3,0.3c0.1,0.3,0.2,0.6,0.2,0.9c0,0,0,0,0,0c0,0.3,0,0.5,0,0.8
				c-0.1,0.8-1.6,3.8-1.9,6.2v0c0,0.2,0,0.3,0,0.5v0.2C195.6,231.9,195.6,232,195.6,232.1z"/>
			<linearGradient id="SVGID_9_" gradientUnits="userSpaceOnUse" x1="188.0653" y1="216.1583" x2="188.3625" y2="229.4537">
				<stop  offset="0.1872" style="stop-color:#897CBA"/>
				<stop  offset="0.3364" style="stop-color:#7767A5"/>
				<stop  offset="0.6426" style="stop-color:#533B7D"/>
				<stop  offset="0.8651" style="stop-color:#391763"/>
			</linearGradient>
			<path class="st27" d="M192.9,226.4l0,0.1c0,0-0.1,0.6-0.3,1.4c0,0.1-0.1,0.2-0.1,0.4c0,0.1-0.1,0.1-0.1,0.2
				c0,0.1-0.1,0.1-0.1,0.2v0c-0.5,1.1-1.4,2.1-3,1.5c-0.1,0-0.7-0.2-1.2-0.4h0c-0.1,0-0.3-0.1-0.4-0.1c-0.3-0.1-0.5-0.2-0.5-0.2
				c0,0,0,0,0,0c0-0.2-0.1-0.4-0.1-0.7c-0.1-0.2-0.1-0.3-0.2-0.5c-0.7-1.9-2.4-5.1-3.6-7.2c-0.2-0.4-0.3-0.8-0.2-1.2
				c0.1-0.7,0.7-1.3,1.5-1.5l0.1,0l5.8-1.1c0.3-0.1,0.6,0,0.9,0h0c0.1,0,0.1,0,0.2,0c0.4,0.1,0.7,0.4,1,0.8c0,0,0,0,0,0
				c0.1,0.1,0.2,0.3,0.2,0.5c0,0,0,0,0,0c0,0,0,0,0,0c0,0.1,0.1,0.2,0.1,0.4c0.1,1.2,0.4,2.3,0.4,3.7
				C193.3,223.6,193.3,224.9,192.9,226.4z"/>
			<g>
				<path class="st50" d="M195.9,232.7L195.9,232.7l-0.1,0l-0.1,0l-0.1,0l-0.3,0L184,235l-0.1,0c-0.1-0.5-0.1-1-0.1-1.4
					c0-0.7,0.2-1.4,0.5-2c0,0,0,0,0,0c0.5-1.2,1.5-2.3,2.7-2.9c0,0,0.1-0.1,0.1-0.1v0c0.2-0.1,0.5-0.2,0.8-0.3
					c0.1,0,0.2-0.1,0.3-0.1c0.2,0,0.3-0.1,0.5-0.1c1.2-0.2,2.4-0.1,3.4,0.3c0,0,0.1,0,0.1,0c0.1,0,0.1,0,0.1,0.1
					c0.1,0,0.2,0.1,0.3,0.2c0.8,0.4,1.5,1,2,1.7v0c0.2,0.3,0.4,0.6,0.6,0.9c0,0,0,0,0,0c0.1,0.1,0.1,0.3,0.2,0.4c0,0,0,0,0,0v0
					c0.1,0.1,0.1,0.3,0.2,0.4c0,0,0,0,0,0c0,0.1,0.1,0.3,0.1,0.4C195.9,232.6,195.9,232.6,195.9,232.7z"/>
				<polygon class="st47" points="196.1,233.9 184.1,236.1 183.9,235 195.9,232.7 				"/>
			</g>
			<path class="st36" d="M185.4,233c-0.2-1.7,1.1-3.2,2.8-3.3"/>
		</g>
		<path class="st46" d="M159.1,171.7c0,0-3.7,10.3-10.6,15.9c0,0,2.6,17.1-12.3,39.8"/>
		<g>
			<path class="st34" d="M113.4,227.9c0,0,12.6-1.1,18-1.9c3.9-0.5,6.6,2.2,6.6,2.2l-14.6,2.6L113.4,227.9z"/>
			<path class="st34" d="M123.3,230.9l14.6-2.6l-2.1,7.2c-0.1,0.3-0.4,0.5-0.7,0.3L123.3,230.9z"/>
			<path class="st48" d="M113.4,227.9c0,0,12.6-0.5,18-1.3c3.9-0.5,6.6,2.2,6.6,2.2l-14.6,2.6L113.4,227.9z"/>
			<linearGradient id="SVGID_10_" gradientUnits="userSpaceOnUse" x1="140.7646" y1="224.0232" x2="123.8172" y2="223.646">
				<stop  offset="0.1872" style="stop-color:#897CBA"/>
				<stop  offset="0.3237" style="stop-color:#8577B5"/>
				<stop  offset="0.4473" style="stop-color:#7C6DAA"/>
				<stop  offset="0.5658" style="stop-color:#6E5D9B"/>
				<stop  offset="0.6812" style="stop-color:#5D4788"/>
				<stop  offset="0.7933" style="stop-color:#482D72"/>
				<stop  offset="0.8651" style="stop-color:#391763"/>
			</linearGradient>
			<path class="st28" d="M121.9,225.6c4.1-0.3,8.7-1.5,9.2-5.2c0.1-0.7,0.8-1.2,1.5-1l4.3,1.3c0.8,0.3,1.1,1.3,0.5,1.9
				c-2,2.1-6.9,5.9-15.5,5.2c-0.1,0-0.2,0-0.3-0.1h0C120.4,227.4,120.7,225.7,121.9,225.6z"/>
			<path class="st48" d="M123.3,231.5l14.6-2.6l-2.1,7.2c-0.1,0.3-0.4,0.5-0.7,0.3L123.3,231.5z"/>
			<g>
				<path class="st50" d="M123.3,231.5l-10-3.6c0-0.1,0.1-0.1,0.1-0.2c0.1-0.3,0.2-0.5,0.4-0.8c1.4-2.4,4.2-3.7,6.6-2.8
					c0.1,0.1,0.3,0.1,0.4,0.2c0.1,0,0.2,0.1,0.3,0.1c0.4,0.2,0.7,0.5,1,0.8c0.8,0.8,1.3,1.8,1.5,2.9c0,0,0,0,0,0
					c0,0.1,0,0.2,0.1,0.4C123.8,229.4,123.7,230.5,123.3,231.5z"/>
			</g>
			<path class="st47" d="M113.4,227.9l-0.4,0.7l22.5,8.9c0,0,1.1-2.1,0.7-2.5c0,0-0.6,1.3-12.8-3.9L113.4,227.9z"/>
		</g>
		
			<linearGradient id="SVGID_11_" gradientUnits="userSpaceOnUse" x1="-613.9852" y1="104.5639" x2="-613.9852" y2="168.6299" gradientTransform="matrix(-1 0 0 1 -434.007 0)">
			<stop  offset="0" style="stop-color:#260340"/>
			<stop  offset="0.2565" style="stop-color:#270543"/>
			<stop  offset="0.5358" style="stop-color:#2C0A4B"/>
			<stop  offset="0.8247" style="stop-color:#331258"/>
			<stop  offset="1" style="stop-color:#391763"/>
		</linearGradient>
		<path class="st29" d="M170,104.6l7.2,0c0,0,12.6,29.5,14.3,54.6c0,0-8.7,13.9-10.6,8c-3.2-10.3-9.4-38.4-12.2-50.1
			C167.5,111.7,169.9,107.2,170,104.6z"/>
		<linearGradient id="SVGID_12_" gradientUnits="userSpaceOnUse" x1="149.085" y1="104.5639" x2="149.085" y2="168.1853">
			<stop  offset="0" style="stop-color:#260340"/>
			<stop  offset="0.2565" style="stop-color:#270543"/>
			<stop  offset="0.5358" style="stop-color:#2C0A4B"/>
			<stop  offset="0.8247" style="stop-color:#331258"/>
			<stop  offset="1" style="stop-color:#391763"/>
		</linearGradient>
		<path class="st30" d="M149.6,104.6c-1.4,3.5-9.6,30-10,62.6c0,1.1,1.5,1.4,2,0.4c3.7-9,13.2-36.6,16.5-50.5
			c1.3-5.4-0.1-9.9-0.3-12.5L149.6,104.6z"/>
		<g>
			<g>
				<polygon class="st25" points="169.7,161.4 167.2,160.7 174.6,126.1 176.1,119.2 181.7,120.8 179.7,127.6 				"/>
				<polygon class="st25" points="179.7,127.6 174.6,126.1 176.1,119.2 181.7,120.8 				"/>
			</g>
			<g>
				<g>
					<g>
						<g>
							<path class="st2" d="M168.1,171.3c-0.1,0.2-0.3,0.3-0.5,0.4l-0.2,0l0,0l0,0c-0.3,0-0.5,0-0.7-0.2c0,0-0.1,0-0.1-0.1
								c-0.1-0.1-0.2-0.3-0.2-0.5c-0.3-2-0.6-5.1-0.3-8.4c0.1-0.9,0.2-1.8,0.4-2.7c0-0.2,0.1-0.3,0.1-0.5c0.1-0.2,0.2-0.4,0.3-0.6
								c0-0.1,0.1-0.1,0.1-0.2c0-0.1,0.1-0.1,0.1-0.2c0,0,0,0,0.1-0.1c0,0,0,0,0,0c0.7-0.8,1.7-1.4,2.9-1.4c0,0,0,0,0,0c0,0,0,0,0,0
								c0.1,0.2,0.4,1.5,0.4,3.3c0,0.2,0,0.5,0,0.8C170.7,164,170.2,167.7,168.1,171.3z"/>
							<path class="st2" d="M168.4,159.4l-0.5,0.7l-0.3,0.4l-1.5,2.1l-1.2,1.7c-0.2,0.3-0.7,0.4-1,0.2l-0.1,0
								c-0.3-0.2-0.4-0.6-0.2-1l2.8-4.1l0.3-0.5l0.1-0.2l0.1-0.2c0,0,0.1-0.1,0.1-0.1c0.2-0.2,0.6-0.3,0.9-0.1l0.1,0
								C168.5,158.6,168.6,159.1,168.4,159.4z"/>
						</g>
						<path class="st26" d="M166.7,171.5C166.6,171.5,166.6,171.5,166.7,171.5c1.5-1.7,1.1-8.6,1.1-8.7c0,0,0-0.1,0.1-0.1
							c0,0,0.1,0,0.1,0.1C167.9,163.1,168.3,169.8,166.7,171.5z"/>
						<path class="st26" d="M167.6,171.7c1.5-1.8,2.3-6.7,2.4-6.9c0,0,0-0.1,0-0.1c0,0-0.1,0-0.1,0c0,0.1-0.9,5.2-2.4,6.9l0,0
							L167.6,171.7z"/>
					</g>
				</g>
				<path class="st24" d="M170.6,161.2c-0.8,0.2-1.6,0.1-2.3-0.2c-0.3-0.1-0.5-0.3-0.7-0.4c-0.4-0.3-0.7-0.6-0.9-1
					c0,0,0-0.1-0.1-0.1l0.3-0.5l0.1-0.2l0.1-0.2c0,0,0.1-0.1,0.1-0.1c0.7-0.8,1.7-1.4,2.9-1.4c0,0,0,0,0,0c0,0,0,0,0,0
					c0.1,0.2,0.4,1.5,0.4,3.3C170.6,160.7,170.6,160.9,170.6,161.2z"/>
			</g>
			<linearGradient id="SVGID_13_" gradientUnits="userSpaceOnUse" x1="174.4269" y1="104.5677" x2="174.4269" y2="159.8845">
				<stop  offset="0" style="stop-color:#260340"/>
				<stop  offset="0.4082" style="stop-color:#310F53"/>
				<stop  offset="0.7562" style="stop-color:#37155F"/>
				<stop  offset="1" style="stop-color:#391763"/>
			</linearGradient>
			<path class="st39" d="M172.8,159.9l-7.3-1.5l11.7-53.8h0c4.8,1,6.8,5.1,6,9.9L172.8,159.9z"/>
		</g>
		<linearGradient id="SVGID_14_" gradientUnits="userSpaceOnUse" x1="153.9604" y1="103.311" x2="153.9604" y2="121.0933">
			<stop  offset="2.820513e-02" style="stop-color:#2D2E82"/>
			<stop  offset="0.1407" style="stop-color:#312779"/>
			<stop  offset="0.3931" style="stop-color:#371B69"/>
			<stop  offset="0.5902" style="stop-color:#391763"/>
		</linearGradient>
		<path class="st40" d="M157.8,103.3h-1.3c0,0-3.1,0.8-3.2,2.7c-0.2,2.5-0.3,4.1-3,5.5c-3.2,1.7,1.1,3,3.3,2.3
			c1-0.3,2.2,0.3,2.3,1.4l1.1,5.9C157,121.1,160.4,110.2,157.8,103.3z"/>
		
			<linearGradient id="SVGID_15_" gradientUnits="userSpaceOnUse" x1="-614.6304" y1="103.4142" x2="-614.6304" y2="121.0142" gradientTransform="matrix(-1 0 0 1 -441.2461 0)">
			<stop  offset="2.820513e-02" style="stop-color:#2D2E82"/>
			<stop  offset="0.1407" style="stop-color:#312779"/>
			<stop  offset="0.3931" style="stop-color:#371B69"/>
			<stop  offset="0.5902" style="stop-color:#391763"/>
		</linearGradient>
		<path class="st49" d="M170.1,103.4h1.3c0,0,3.1,0.8,3.2,2.7c0.2,2.5,0.3,4.1,3,5.5c3.2,1.7-1.1,3-3.3,2.3c-1-0.3-1.6,0.4-2.3,1.4
			l-2.2,5.7C169.7,121,165.7,112,170.1,103.4z"/>
		<path class="st57" d="M147.3,120.1c0,0,2.7,0.9,5.6,0"/>
		<path class="st36" d="M116.4,226.2c1.1-1.3,3.1-1.5,4.4-0.4"/>
		<g>
			<g>
				<path class="st58" d="M156.6,81.5h-6.5c-0.9,0-1.6-0.7-1.6-1.6v-2.4c0-0.9,0.7-1.6,1.6-1.6h6.5c0.9,0,1.6,0.7,1.6,1.6v2.4
					C158.2,80.8,157.5,81.5,156.6,81.5z"/>
				<path class="st58" d="M170.1,81.5h-6.5c-0.9,0-1.6-0.7-1.6-1.6v-2.4c0-0.9,0.7-1.6,1.6-1.6h6.5c0.9,0,1.6,0.7,1.6,1.6v2.4
					C171.7,80.8,171,81.5,170.1,81.5z"/>
				<path class="st59" d="M156.6,75.9h7c0,0-1.1-0.1-1.6,1.1h-3.8C158.2,77,158.2,75.9,156.6,75.9z"/>
			</g>
			<path class="st59" d="M177.6,73.9l-7.5,1.9c0,0,1,0.1,1.3,0.7l7.7-2.1C179.1,74.4,178.7,73.7,177.6,73.9z"/>
		</g>
		<g>
			<linearGradient id="SVGID_16_" gradientUnits="userSpaceOnUse" x1="162.8879" y1="72.5302" x2="162.8879" y2="46.2357">
				<stop  offset="0" style="stop-color:#534741"/>
				<stop  offset="0.403" style="stop-color:#746E6B"/>
				<stop  offset="0.7899" style="stop-color:#8F8D8C"/>
				<stop  offset="1" style="stop-color:#999999"/>
			</linearGradient>
			<path class="st51" d="M181.1,63.3C181.1,63.3,181.1,63.2,181.1,63.3c-0.3-0.3-0.6-0.5-0.8-0.6c0,0,0,0,0,0
				c0.2-0.1,0.5-0.3,0.7-0.5c0.4-0.4,0.7-0.8,0.8-1.3l0.1-0.3c0-0.2,0.1-0.4,0.1-0.7c0-0.9-0.4-1.7-1-2.3c-0.4-0.4-1-0.7-1.6-0.9
				c-0.1,0-0.2,0-0.3-0.1c0.1-0.2,0.2-0.5,0.2-0.7v0c0-0.2,0.1-0.3,0.1-0.5c0-1.8-1.5-3.3-3.3-3.3c-0.4,0-0.8,0.1-1.1,0.2
				c-0.3-1.5-1.6-2.7-3.3-2.7c-0.4,0-0.7,0.1-1,0.2c-0.6-1-1.7-1.8-3-1.8c-1.3,0-2.5,0.8-3,1.9c-0.6-0.2-1.2-0.4-1.9-0.4
				c-0.7,0-1.5,0.2-2.1,0.4c-0.5-0.4-1.2-0.6-1.9-0.6c-1,0-1.9,0.4-2.5,1.2c-0.2-0.4-0.6-0.7-1.1-0.7c-0.3,0-0.6,0.1-0.8,0.4
				c-0.5-0.4-1.2-0.6-1.9-0.6c-0.9,0-1.8,0.4-2.4,1c-0.6,0.6-1,1.4-1,2.3c0,0.2,0,0.4,0,0.5v0c0,0.2,0.1,0.4,0.2,0.6
				c-0.1,0-0.1,0-0.2,0c0,0,0,0,0,0h0c-1.4,0-2.7,0.6-3.7,1.5c-1,0.9-1.5,2.2-1.5,3.7c0,0.2,0,0.4,0.1,0.7c0.2,1.8,1.5,3.4,3.1,4.1
				c-0.2,0.4-0.4,0.7-0.4,1.1c0,0.1,0,0.3,0,0.5v0.2c0,0.2,0,0.4,0.1,0.5v0l0.3,0.9c-0.1,0.1-0.2,0.1-0.3,0.2
				c-0.1,0.1-0.1,0.1-0.2,0.2c-0.4,0.4-0.7,1-0.7,1.6c0,0.2,0,0.4,0.1,0.7v0c0.3,0.9,1.2,1.6,2.2,1.6c0.2,0,0.5,0,0.7-0.1
				c0.4-0.1,0.7-0.3,0.9-0.6c0.1-0.1,0.2-0.3,0.3-0.4c0.1-0.2,0.2-0.3,0.3-0.5v0c0.1-0.2,0.1-0.4,0.1-0.7c0-0.1,0-0.1,0-0.2
				c1.2,0,2.3-0.8,2.8-1.8c0.1-0.1,0.1-0.2,0.1-0.3c0.1-0.2,0.1-0.4,0.2-0.6v0c0-0.1,0.1-0.2,0.1-0.4c0.6,1,1.5,1.8,2.5,2.4
				c1,0.6,2.2,0.9,3.5,0.9c1.9,0,3.6-0.7,4.8-1.9c0,0.1,0.1,0.2,0.1,0.3c0.2,0.3,0.5,0.5,0.8,0.5c0,0,0,0,0,0c0,0,0.1,0,0.1,0
				c0.3,0,0.6-0.2,0.9-0.4c0.1,0.1,0.2,0.2,0.2,0.2c0.9,0.9,2.2,1.4,3.6,1.4c0.3,0,0.6,0,0.9-0.1c0,0,0,0,0,0
				c-0.1,0.4-0.2,0.9-0.2,1.4v0.1c0,0.2,0,0.4,0,0.7v0c0.2,1.3,0.9,2.5,1.9,3.3c0.1,0.1,0.2,0.1,0.3,0.2c0,0,0,0,0,0
				c0.5,1,1.4,1.7,2.5,1.9c0,0.1,0.1,0.3,0.2,0.4c0,0,0,0,0,0c0.2,0.3,0.5,0.5,0.9,0.5c0.4,0,0.7-0.2,0.9-0.5
				c0.1-0.1,0.1-0.1,0.1-0.2c0.1-0.1,0.1-0.3,0.1-0.4c0-0.1,0-0.1,0-0.2c0.6-0.3,1.1-0.9,1.4-1.5h0c0.1,0,0.1-0.1,0.2-0.1
				c0,0,0.1-0.1,0.1-0.1c0.1-0.1,0.3-0.2,0.4-0.3c0.8-0.8,1.3-1.8,1.5-3v0c0-0.2,0-0.4,0-0.7c0-0.5-0.1-1-0.2-1.4
				c-0.1-0.4-0.2-0.7-0.4-1v0c0.2-0.1,0.3-0.2,0.5-0.4c0.4-0.4,0.8-1,0.9-1.6v0c0.1-0.2,0.1-0.4,0.1-0.7
				C182,64.7,181.7,63.9,181.1,63.3z M152.4,63.1L152.4,63.1C152.4,63.1,152.4,63.1,152.4,63.1C152.4,63.1,152.4,63.1,152.4,63.1z"
				/>
			<path class="st61" d="M145.6,59.2c-0.1,0-0.2-0.1-0.2-0.2c0-2,1.7-3.7,3.7-3.7c0.1,0,0.2,0.1,0.2,0.2s-0.1,0.2-0.2,0.2
				c-1.8,0-3.3,1.4-3.3,3.2C145.8,59.1,145.7,59.2,145.6,59.2z"/>
			<path class="st61" d="M159.4,67.9c-1,0-1.9-0.4-2.6-1.1c-0.1-0.1-0.1-0.2,0-0.3c0.1-0.1,0.2-0.1,0.3,0c1.3,1.3,3.4,1.3,4.7,0
				c0.1-0.1,0.2-0.1,0.3,0c0.1,0.1,0.1,0.2,0,0.3C161.3,67.5,160.4,67.9,159.4,67.9z"/>
			<path class="st61" d="M148,70.7c-0.1,0-0.2-0.1-0.2-0.2s0.1-0.2,0.2-0.2c0.7,0,1.2-0.5,1.2-1.2c0-0.1,0.1-0.2,0.2-0.2
				c0.1,0,0.2,0.1,0.2,0.2C149.7,70,148.9,70.7,148,70.7z"/>
			<path class="st61" d="M176.4,74.4c-2.1,0-3.7-1.6-3.7-3.7c0-0.1,0.1-0.2,0.2-0.2c0.1,0,0.2,0.1,0.2,0.2c0,1.8,1.5,3.2,3.3,3.2
				c0.1,0,0.2,0.1,0.2,0.2S176.5,74.4,176.4,74.4z"/>
		</g>
	</g>
</g>
<g id="Hulpmiddelen">
</g>
<g id="starten_test">
</g>
</svg>
