<?xml version="1.0" encoding="utf-8"?>
<!-- Generator: Adobe Illustrator 25.2.1, SVG Export Plug-In . SVG Version: 6.00 Build 0)  -->
<svg version="1.1" xmlns="http://www.w3.org/2000/svg" xmlns:xlink="http://www.w3.org/1999/xlink" x="0px" y="0px"
	 viewBox="0 0 328 256" style="enable-background:new 0 0 328 256;" xml:space="preserve">
<style type="text/css">
	.st0{fill:url(#SVGID_1_);}
	.st1{fill:#27AAE1;}
	.st2{fill:#F8B133;}
	.st3{fill:#A2DEF9;}
	.st4{opacity:0.5;fill:#A2DEF9;}
	.st5{fill:#A2DEF9;stroke:#FCEA0D;stroke-width:2.6421;stroke-miterlimit:10;}
	.st6{fill:#A2DEF9;stroke:#F5F5F5;stroke-width:0.4403;stroke-linecap:round;stroke-miterlimit:10;}
	.st7{fill:#A2DEF9;stroke:#DBDDDE;stroke-width:0.8807;stroke-linecap:round;stroke-miterlimit:10;}
	.st8{fill:#A2DEF9;stroke:#260340;stroke-width:0.8807;stroke-linecap:round;stroke-miterlimit:10;}
	.st9{fill:#A2DEF9;stroke:#F8B133;stroke-width:0.8807;stroke-miterlimit:10;}
	.st10{fill:#A2DEF9;stroke:#1D70B7;stroke-width:0.4403;stroke-linecap:round;stroke-miterlimit:10;}
	
		.st11{fill:#A2DEF9;stroke:#A2DEF9;stroke-width:0.2202;stroke-linecap:round;stroke-linejoin:round;stroke-miterlimit:10;stroke-dasharray:2.6421;}
	.st12{fill:#FFFFFF;}
	.st13{fill:url(#SVGID_2_);}
	.st14{fill:url(#SVGID_3_);}
	.st15{fill:url(#SVGID_4_);}
	.st16{fill:url(#SVGID_5_);}
	.st17{fill:url(#SVGID_6_);}
	.st18{fill:url(#SVGID_7_);}
	.st19{fill:none;stroke:#F8B133;stroke-width:2.3527;stroke-linecap:round;stroke-linejoin:round;stroke-miterlimit:10;}
	.st20{fill:#EF4136;}
	.st21{fill:#534741;}
	.st22{fill:#4D4D4D;}
	.st23{fill:url(#SVGID_8_);}
	.st24{fill:#F29100;}
	.st25{fill:#35A8E0;}
	.st26{fill:#E84E1B;}
	.st27{fill:url(#SVGID_9_);}
	.st28{fill:url(#SVGID_10_);}
	.st29{fill:url(#SVGID_11_);}
	.st30{fill:url(#SVGID_12_);}
	.st31{fill:#160031;}
	.st32{fill:none;stroke:#FCEA0D;stroke-width:2.6421;stroke-miterlimit:10;}
	.st33{fill:none;stroke:#F5F5F5;stroke-width:0.4403;stroke-linecap:round;stroke-miterlimit:10;}
	.st34{opacity:0.5;fill:#160031;}
	.st35{fill:#160031;stroke:#DBDDDE;stroke-width:0.8807;stroke-linecap:round;stroke-miterlimit:10;}
	.st36{fill:none;stroke:#DBDDDE;stroke-width:0.8807;stroke-linecap:round;stroke-miterlimit:10;}
	.st37{fill:#1D70B7;stroke:#260340;stroke-width:0.8807;stroke-linecap:round;stroke-miterlimit:10;}
	.st38{fill:none;stroke:#955D61;stroke-width:0.8807;stroke-linecap:round;stroke-miterlimit:10;}
	.st39{fill:url(#SVGID_13_);}
	.st40{fill:url(#SVGID_14_);}
	.st41{fill:none;stroke:#E84E1B;stroke-width:0.4403;stroke-linecap:round;stroke-miterlimit:10;}
	.st42{fill:none;stroke:#F8B133;stroke-width:0.8807;stroke-miterlimit:10;}
	.st43{fill:none;stroke:#1D70B7;stroke-width:0.4403;stroke-linecap:round;stroke-miterlimit:10;}
	.st44{fill:none;stroke:#E84E1B;stroke-width:0.4403;stroke-linecap:round;stroke-linejoin:round;stroke-miterlimit:10;}
	.st45{fill:none;}
	
		.st46{fill:none;stroke:#A2DEF9;stroke-width:0.2202;stroke-linecap:round;stroke-linejoin:round;stroke-miterlimit:10;stroke-dasharray:2.6421;}
	.st47{fill:#260340;}
	.st48{fill:#391763;}
	.st49{fill:url(#SVGID_15_);}
	.st50{fill:#897CBA;}
	.st51{fill:url(#SVGID_16_);}
	.st52{fill:url(#SVGID_17_);}
	.st53{fill:url(#SVGID_18_);}
	.st54{fill:url(#SVGID_19_);}
	.st55{fill:url(#SVGID_20_);}
	.st56{fill:url(#SVGID_21_);}
	.st57{fill:none;stroke:#897CBA;stroke-width:0.4403;stroke-linecap:round;stroke-linejoin:round;stroke-miterlimit:10;}
	.st58{fill:none;stroke:#897CBA;stroke-width:0.4403;stroke-miterlimit:10;}
	.st59{fill:#897CBA;stroke:#897CBA;stroke-width:0.4403;stroke-miterlimit:10;}
	.st60{fill:url(#SVGID_22_);}
	.st61{fill:#F8DCB2;}
	.st62{fill:none;stroke:url(#SVGID_23_);stroke-width:3;stroke-linecap:round;stroke-linejoin:round;stroke-miterlimit:10;}
	.st63{fill:none;stroke:url(#SVGID_24_);stroke-width:3;stroke-linecap:round;stroke-linejoin:round;stroke-miterlimit:10;}
	.st64{fill:url(#SVGID_25_);}
	.st65{fill:url(#SVGID_26_);}
	.st66{fill:url(#SVGID_27_);}
	.st67{fill:url(#SVGID_28_);}
	.st68{fill:url(#SVGID_29_);}
	.st69{fill:url(#SVGID_30_);}
	.st70{fill:url(#SVGID_31_);}
	.st71{fill:url(#SVGID_32_);}
	.st72{fill:url(#SVGID_33_);}
	.st73{fill:url(#SVGID_34_);}
	.st74{fill:none;stroke:#A2DEF9;stroke-width:0.25;stroke-miterlimit:10;stroke-dasharray:2;}
	.st75{fill:url(#SVGID_35_);}
	.st76{fill:url(#SVGID_36_);}
	.st77{fill:url(#SVGID_37_);}
	.st78{fill:url(#SVGID_38_);}
	.st79{fill:url(#SVGID_39_);}
	.st80{fill:url(#SVGID_40_);}
	.st81{fill:url(#SVGID_41_);}
	.st82{fill:url(#SVGID_42_);}
	.st83{fill:url(#SVGID_43_);}
	.st84{fill:url(#SVGID_44_);}
	.st85{fill:url(#SVGID_45_);}
	.st86{fill:#DBDDDE;}
	.st87{fill:none;stroke:#897CBA;stroke-width:0.2846;stroke-linecap:round;stroke-linejoin:round;stroke-miterlimit:10;}
	.st88{fill:url(#SVGID_46_);}
	.st89{fill:url(#SVGID_47_);}
	.st90{fill:url(#SVGID_48_);}
	.st91{fill:url(#SVGID_49_);}
	.st92{fill:url(#SVGID_50_);}
	.st93{fill:url(#SVGID_51_);}
	.st94{fill:url(#SVGID_52_);}
	.st95{fill:url(#SVGID_53_);}
	.st96{fill:url(#SVGID_54_);}
	.st97{fill:url(#SVGID_55_);}
	.st98{fill:url(#SVGID_56_);}
	.st99{fill:url(#SVGID_57_);}
	.st100{fill:url(#SVGID_58_);}
	.st101{fill:url(#SVGID_59_);}
	.st102{fill:url(#SVGID_60_);}
	.st103{fill:none;stroke:#A2DEF9;stroke-width:0.927;stroke-miterlimit:10;}
	.st104{fill:url(#SVGID_61_);}
	.st105{fill:url(#SVGID_62_);}
	.st106{fill:url(#SVGID_63_);}
	
		.st107{fill:none;stroke:#A2DEF9;stroke-width:0.2041;stroke-linecap:round;stroke-linejoin:round;stroke-miterlimit:10;stroke-dasharray:2.4492;}
	.st108{fill:url(#SVGID_64_);}
	.st109{fill:url(#SVGID_65_);}
	.st110{fill:url(#SVGID_66_);}
	.st111{fill:url(#SVGID_67_);}
	.st112{fill:none;stroke:#FCEA0D;stroke-width:2.4492;stroke-miterlimit:10;}
	.st113{fill:none;stroke:#F5F5F5;stroke-width:0.4082;stroke-linecap:round;stroke-miterlimit:10;}
	.st114{fill:#1D70B7;stroke:#260340;stroke-width:0.8164;stroke-linecap:round;stroke-miterlimit:10;}
	.st115{fill:none;stroke:#955D61;stroke-width:0.8164;stroke-linecap:round;stroke-miterlimit:10;}
	.st116{fill:url(#SVGID_68_);}
	.st117{fill:url(#SVGID_69_);}
	.st118{fill:none;stroke:#E84E1B;stroke-width:0.4082;stroke-linecap:round;stroke-miterlimit:10;}
	.st119{fill:none;stroke:#F8B133;stroke-width:0.8164;stroke-miterlimit:10;}
	.st120{fill:none;stroke:#1D70B7;stroke-width:0.4082;stroke-linecap:round;stroke-miterlimit:10;}
	.st121{fill:none;stroke:#E84E1B;stroke-width:0.4082;stroke-linecap:round;stroke-linejoin:round;stroke-miterlimit:10;}
	.st122{fill:url(#SVGID_70_);}
	.st123{fill:url(#SVGID_71_);}
	.st124{fill:url(#SVGID_72_);}
	.st125{fill:none;stroke:#897CBA;stroke-width:0.4082;stroke-linecap:round;stroke-linejoin:round;stroke-miterlimit:10;}
	.st126{fill:none;stroke:#897CBA;stroke-width:0.4082;stroke-miterlimit:10;}
	.st127{fill:#897CBA;stroke:#897CBA;stroke-width:0.4082;stroke-miterlimit:10;}
	.st128{fill:url(#SVGID_73_);}
	.st129{fill:none;stroke:#DBDDDE;stroke-width:0.8164;stroke-linecap:round;stroke-miterlimit:10;}
	.st130{fill:url(#SVGID_74_);}
	.st131{fill:url(#SVGID_75_);}
	.st132{fill:url(#SVGID_76_);}
	.st133{fill:url(#SVGID_77_);}
	.st134{fill:url(#SVGID_78_);}
	.st135{fill:none;stroke:url(#SVGID_79_);stroke-width:2.781;stroke-linecap:round;stroke-linejoin:round;stroke-miterlimit:10;}
	.st136{fill:#F5F5F5;}
	.st137{fill:#2D2E82;}
	.st138{opacity:0.35;fill:none;stroke:#897CBA;stroke-width:0.6447;stroke-linecap:round;stroke-miterlimit:10;}
	.st139{opacity:0.35;fill:#897CBA;}
	.st140{fill:none;stroke:#FBB040;stroke-width:6.594;stroke-miterlimit:10;}
	.st141{fill:url(#SVGID_80_);}
	.st142{fill:url(#SVGID_81_);}
	.st143{fill:#808080;}
	.st144{fill:url(#SVGID_82_);}
	.st145{fill:none;stroke:#A2DEF9;stroke-width:0.2788;stroke-miterlimit:10;stroke-dasharray:2.2306;}
	.st146{fill:none;stroke:#FCEA0D;stroke-width:2.9467;stroke-miterlimit:10;}
	.st147{fill:none;stroke:#F5F5F5;stroke-width:0.4911;stroke-linecap:round;stroke-miterlimit:10;}
	.st148{fill:url(#SVGID_83_);}
	.st149{fill:url(#SVGID_84_);}
	.st150{fill:url(#SVGID_85_);}
	.st151{fill:#F7941D;stroke:#391763;stroke-width:0.734;stroke-miterlimit:10;}
	.st152{opacity:0.35;fill:none;stroke:#897CBA;stroke-width:0.1777;stroke-linecap:round;stroke-miterlimit:10;}
	.st153{fill:none;stroke:url(#SVGID_86_);stroke-width:2.4101;stroke-linecap:round;stroke-linejoin:round;stroke-miterlimit:10;}
	.st154{fill:url(#SVGID_87_);}
	.st155{fill:url(#SVGID_88_);}
	.st156{fill:none;stroke:#FBB040;stroke-width:6.5297;stroke-miterlimit:10;}
	.st157{fill:url(#SVGID_89_);}
	.st158{fill:url(#SVGID_90_);}
	.st159{fill:url(#SVGID_91_);}
	.st160{fill:url(#SVGID_92_);}
	.st161{fill:url(#SVGID_93_);}
	.st162{fill:url(#SVGID_94_);}
	.st163{fill:url(#SVGID_95_);}
	.st164{fill:url(#SVGID_96_);}
	.st165{fill:url(#SVGID_97_);}
	.st166{fill:url(#SVGID_98_);}
	.st167{fill:none;stroke:#F8B133;stroke-width:2;stroke-miterlimit:10;}
	.st168{fill:none;stroke:#A2DEF9;stroke-width:0.75;stroke-miterlimit:10;stroke-dasharray:2;}
	.st169{fill:#FFFFFF;stroke:#FBB040;stroke-width:4.9491;stroke-miterlimit:10;}
	.st170{fill:url(#SVGID_99_);}
	.st171{fill:none;stroke:#E7BEB0;stroke-width:0.4675;stroke-miterlimit:10;}
	.st172{fill:none;stroke:#E7BEB0;stroke-width:0.4063;stroke-miterlimit:10;}
	.st173{fill:none;stroke:#E7BEB0;stroke-width:0.3387;stroke-miterlimit:10;}
	.st174{fill:none;stroke:#E7BEB0;stroke-width:0.2656;stroke-miterlimit:10;}
	.st175{fill:none;stroke:#E7BEB0;stroke-width:0.195;stroke-miterlimit:10;}
	.st176{fill:none;stroke:#E7BEB0;stroke-width:0.1391;stroke-miterlimit:10;}
	.st177{fill:none;stroke:#E7BEB0;stroke-width:9.645370e-02;stroke-miterlimit:10;}
	.st178{fill:none;stroke:#E7BEB0;stroke-width:6.288800e-02;stroke-miterlimit:10;}
	.st179{fill:url(#SVGID_100_);}
	.st180{fill:url(#SVGID_101_);}
	.st181{fill:url(#SVGID_102_);}
	.st182{fill:url(#SVGID_103_);}
	.st183{fill:url(#SVGID_104_);}
	.st184{fill:none;stroke:#E84E1B;stroke-width:0.5;stroke-linecap:round;stroke-linejoin:round;stroke-miterlimit:10;}
	.st185{fill:url(#SVGID_105_);}
	.st186{fill:none;stroke:#35A8E0;stroke-linecap:round;stroke-linejoin:round;stroke-miterlimit:10;}
	.st187{fill:url(#SVGID_106_);}
	.st188{fill:url(#SVGID_107_);}
	.st189{fill:url(#SVGID_108_);}
	.st190{fill:url(#SVGID_109_);}
	.st191{fill:url(#SVGID_110_);}
	.st192{fill:#FFFFFF;stroke:#FBB040;stroke-width:6;stroke-miterlimit:10;}
	.st193{fill:#177466;}
	.st194{fill:url(#SVGID_111_);}
	.st195{fill:url(#SVGID_112_);}
	.st196{fill:url(#SVGID_113_);}
	.st197{fill:none;stroke:#E84E1B;stroke-width:0.2344;stroke-linecap:round;stroke-linejoin:round;stroke-miterlimit:10;}
	.st198{fill:#142A2D;}
	.st199{fill:none;stroke:#00A79D;stroke-width:0.4688;stroke-linecap:round;stroke-miterlimit:10;}
	.st200{fill:url(#SVGID_114_);}
	.st201{fill:url(#SVGID_115_);}
	.st202{fill:#FFFFFF;stroke:#FBB040;stroke-width:7;stroke-miterlimit:10;}
	.st203{fill:url(#SVGID_116_);}
	.st204{fill:#FCEA0D;}
	.st205{fill:url(#SVGID_117_);}
	.st206{fill:#2BB673;}
	.st207{fill:url(#SVGID_118_);}
	.st208{fill:url(#SVGID_119_);}
	.st209{fill:url(#SVGID_120_);}
	.st210{fill:none;stroke:#E84E1B;stroke-width:0.846;stroke-linecap:round;stroke-linejoin:round;stroke-miterlimit:10;}
	.st211{fill:url(#SVGID_121_);}
	.st212{fill:url(#SVGID_122_);}
	.st213{fill:url(#SVGID_123_);}
	.st214{fill:url(#SVGID_124_);}
	.st215{fill:url(#SVGID_125_);}
	.st216{fill:url(#SVGID_126_);}
	.st217{fill:none;stroke:#897CBA;stroke-width:1.1695;stroke-miterlimit:10;}
	.st218{fill:#897CBA;stroke:#897CBA;stroke-width:1.1695;stroke-miterlimit:10;}
	.st219{fill:#897CBA;stroke:#897CBA;stroke-width:0.7797;stroke-miterlimit:10;}
	.st220{fill:url(#SVGID_127_);}
	.st221{fill:url(#SVGID_128_);}
	.st222{fill:#FFFFFF;stroke:#FBB040;stroke-width:7.4248;stroke-miterlimit:10;}
	.st223{fill:url(#SVGID_129_);}
	.st224{fill:url(#SVGID_130_);}
	.st225{fill:url(#SVGID_131_);}
	.st226{fill:none;stroke:#E84E1B;stroke-width:0.684;stroke-linecap:round;stroke-linejoin:round;stroke-miterlimit:10;}
	.st227{fill:url(#SVGID_132_);}
	.st228{fill:url(#SVGID_133_);}
	.st229{fill:url(#SVGID_134_);}
	.st230{fill:url(#SVGID_135_);}
	.st231{fill:url(#SVGID_136_);}
	.st232{fill:url(#SVGID_137_);}
	.st233{fill:none;stroke:#897CBA;stroke-width:0.9456;stroke-miterlimit:10;}
	.st234{fill:#897CBA;stroke:#897CBA;stroke-width:0.9456;stroke-miterlimit:10;}
	.st235{fill:#897CBA;stroke:#897CBA;stroke-width:0.6304;stroke-miterlimit:10;}
	.st236{fill:url(#SVGID_138_);}
	.st237{fill:url(#SVGID_139_);}
	.st238{fill:url(#SVGID_140_);}
	.st239{fill:url(#SVGID_141_);}
	.st240{fill:none;stroke:#A2DEF9;stroke-width:0.315;stroke-miterlimit:10;stroke-dasharray:2.5204;}
	.st241{fill:none;stroke:#FCEA0D;stroke-width:3.3295;stroke-miterlimit:10;}
	.st242{fill:none;stroke:#F5F5F5;stroke-width:0.5549;stroke-linecap:round;stroke-miterlimit:10;}
	.st243{fill:url(#SVGID_142_);}
	.st244{fill:url(#SVGID_143_);}
	.st245{fill:url(#SVGID_144_);}
	.st246{fill:#F7941D;stroke:#391763;stroke-width:0.8293;stroke-miterlimit:10;}
	.st247{opacity:0.35;fill:none;stroke:#897CBA;stroke-width:0.7407;stroke-linecap:round;stroke-miterlimit:10;}
	.st248{opacity:0.35;fill:none;stroke:#897CBA;stroke-width:0.2028;stroke-linecap:round;stroke-miterlimit:10;}
	.st249{fill:none;stroke:url(#SVGID_145_);stroke-width:2.7232;stroke-linecap:round;stroke-linejoin:round;stroke-miterlimit:10;}
	.st250{fill:#FFFFFF;stroke:#FBB040;stroke-width:7.3021;stroke-miterlimit:10;}
	.st251{fill:url(#SVGID_146_);}
	.st252{fill:url(#SVGID_147_);}
	.st253{fill:url(#SVGID_148_);}
	.st254{fill:url(#SVGID_149_);}
	.st255{fill:url(#SVGID_150_);}
	.st256{fill:url(#SVGID_151_);}
	.st257{opacity:0.35;fill:none;stroke:#897CBA;stroke-width:1.1505;stroke-linecap:round;stroke-miterlimit:10;}
	.st258{fill:url(#SVGID_152_);}
	.st259{fill:url(#SVGID_153_);}
	.st260{fill:none;stroke:url(#SVGID_154_);stroke-width:2.3989;stroke-linecap:round;stroke-linejoin:round;stroke-miterlimit:10;}
</style>
<g id="TUG_test_uitvoering">
</g>
<g id="stop_knop_close_up">
</g>
<g id="Afmetingen_stoel">
	<linearGradient id="SVGID_1_" gradientUnits="userSpaceOnUse" x1="164" y1="69.0995" x2="164" y2="228.2057">
		<stop  offset="0" style="stop-color:#65C8D0"/>
		<stop  offset="0.1604" style="stop-color:#64C4CE"/>
		<stop  offset="0.3219" style="stop-color:#5FB8C8"/>
		<stop  offset="0.4839" style="stop-color:#58A4BE"/>
		<stop  offset="0.6465" style="stop-color:#4D87AF"/>
		<stop  offset="0.8094" style="stop-color:#40639D"/>
		<stop  offset="0.9705" style="stop-color:#303787"/>
		<stop  offset="1" style="stop-color:#2D2E82"/>
	</linearGradient>
	<path class="st0" d="M305.2,210.6c0,4.7-0.1,9.7,0,15.4H22.7c0-4,0.1-8.5,0-12.4c0-1,0-2,0-2.9c0-79.4,63.7-143.7,142.3-143.7
		S305.8,131.2,305.2,210.6z"/>
	<path class="st1" d="M305.2,226H22.7v-6.8c0-3.8,3.1-7,7-7h268.5c3.8,0,7,3.1,7,7V226z"/>
	<g>
		<linearGradient id="SVGID_2_" gradientUnits="userSpaceOnUse" x1="35.2822" y1="120.8617" x2="45.0289" y2="120.8617">
			<stop  offset="2.820513e-02" style="stop-color:#2D2E82"/>
			<stop  offset="0.1726" style="stop-color:#30297B"/>
			<stop  offset="0.6528" style="stop-color:#371C69"/>
			<stop  offset="1" style="stop-color:#391763"/>
		</linearGradient>
		<path class="st13" d="M40.2,134h-0.1c-2.7,0-4.8-2.2-4.8-4.8v-16.6c0-2.7,2.2-4.8,4.8-4.8h0.1c2.7,0,4.8,2.2,4.8,4.8v16.6
			C45,131.8,42.9,134,40.2,134z"/>
		
			<linearGradient id="SVGID_3_" gradientUnits="userSpaceOnUse" x1="43.0602" y1="170.4797" x2="51.9677" y2="170.4797" gradientTransform="matrix(0.9585 -0.285 -0.285 -0.9585 46.8804 327.882)">
			<stop  offset="2.820513e-02" style="stop-color:#2D2E82"/>
			<stop  offset="0.1726" style="stop-color:#30297B"/>
			<stop  offset="0.6528" style="stop-color:#371C69"/>
			<stop  offset="1" style="stop-color:#391763"/>
		</linearGradient>
		<path class="st14" d="M42.4,130.7l1.1,17.5l6.7,22c0.3,0.9-0.3,1.9-1.2,2.2l-1.2,0.4c-1,0.3-2-0.3-2.3-1.2l-6.8-22.1
			c0,0,0-0.1,0-0.1c-0.1-0.1-0.1-0.3-0.1-0.5L37.5,131c-0.1-0.9,0.6-1.6,1.5-1.7l1.7-0.1C41.6,129.2,42.4,129.9,42.4,130.7z"/>
		<linearGradient id="SVGID_4_" gradientUnits="userSpaceOnUse" x1="40.7666" y1="120.4604" x2="54.8637" y2="120.4604">
			<stop  offset="0" style="stop-color:#F8B133"/>
			<stop  offset="0.1847" style="stop-color:#F7AB31"/>
			<stop  offset="0.4366" style="stop-color:#F4992D"/>
			<stop  offset="0.726" style="stop-color:#EF7D26"/>
			<stop  offset="1" style="stop-color:#EA5B1D"/>
		</linearGradient>
		<path class="st15" d="M54.8,119.9l-2-30.4c-0.2-1.5-1.7-2.6-3.3-2.4l-6.3,0.4c-1.6,0.2-2.7,1.7-2.4,3.2l3.9,29.7l-1.5,29.9
			c-0.2,1.6,1,3,2.6,3.1l5.1,0.3c1.6,0.2,3-0.9,3.2-2.5l0.7-30.5c0,0,0,0,0,0C54.9,120.4,54.9,120.2,54.8,119.9z"/>
		<path class="st48" d="M110.8,218.5l-23.3-44.1h0v-3c0-0.1-0.1-0.2-0.2-0.2H63.9c-0.1,0-0.2,0.1-0.2,0.2v3h0.1l-23.3,44.1
			c-0.7,1.3-0.2,2.9,1.2,3.6h0c1.3,0.7,3,0.2,3.7-1.1l24.1-45.6c0.2-0.3,0.2-0.6,0.3-0.9h11.8c0,0.3,0.1,0.6,0.3,0.9l24.1,45.6
			c0.7,1.3,2.3,1.8,3.7,1.1h0C110.9,221.4,111.5,219.8,110.8,218.5z"/>
		
			<linearGradient id="SVGID_5_" gradientUnits="userSpaceOnUse" x1="169.3609" y1="147.6896" x2="178.8251" y2="147.6896" gradientTransform="matrix(0 -1 1 0 -71.5405 343.7232)">
			<stop  offset="2.820513e-02" style="stop-color:#2D2E82"/>
			<stop  offset="0.1726" style="stop-color:#30297B"/>
			<stop  offset="0.6528" style="stop-color:#371C69"/>
			<stop  offset="1" style="stop-color:#391763"/>
		</linearGradient>
		<path class="st16" d="M107.3,169.6L107.3,169.6c0,2.6-2.1,4.7-4.7,4.7H49.8c-2.6,0-4.7-2.1-4.7-4.7l0,0c0-2.6,2.1-4.7,4.7-4.7
			h52.8C105.2,164.9,107.3,167,107.3,169.6z"/>
		
			<linearGradient id="SVGID_6_" gradientUnits="userSpaceOnUse" x1="238.1208" y1="167.0958" x2="304.3221" y2="167.0958" gradientTransform="matrix(-1 0 0 1 346.9362 0)">
			<stop  offset="0" style="stop-color:#F8B133"/>
			<stop  offset="0.1847" style="stop-color:#F7AB31"/>
			<stop  offset="0.4366" style="stop-color:#F4992D"/>
			<stop  offset="0.726" style="stop-color:#EF7D26"/>
			<stop  offset="1" style="stop-color:#EA5B1D"/>
		</linearGradient>
		<path class="st17" d="M46.4,171.1H105c2.1,0,3.8-1.7,3.8-3.8v-0.4c0-2.1-1.7-3.8-3.8-3.8H46.4c-2.1,0-3.8,1.7-3.8,3.8v0.4
			C42.6,169.4,44.3,171.1,46.4,171.1z"/>
		<linearGradient id="SVGID_7_" gradientUnits="userSpaceOnUse" x1="76.9951" y1="228.3106" x2="76.0347" y2="159.3813">
			<stop  offset="2.820513e-02" style="stop-color:#2D2E82"/>
			<stop  offset="7.479797e-02" style="stop-color:#2F2B7E"/>
			<stop  offset="0.3145" style="stop-color:#34206F"/>
			<stop  offset="0.5933" style="stop-color:#381966"/>
			<stop  offset="1" style="stop-color:#391763"/>
		</linearGradient>
		<path class="st18" d="M112.1,218.5l-23.3-44.1h0v-3c0-0.1-0.1-0.2-0.2-0.2H65.2c-0.1,0-0.2,0.1-0.2,0.2v3H65l-23.3,44.1
			c-0.7,1.3-0.2,2.9,1.2,3.6h0c1.3,0.7,3,0.2,3.7-1.1l24.1-45.6c0.2-0.3,0.2-0.6,0.3-0.9h11.8c0,0.3,0.1,0.6,0.3,0.9l24.1,45.6
			c0.7,1.3,2.3,1.8,3.7,1.1h0C112.2,221.4,112.7,219.8,112.1,218.5z"/>
		
			<linearGradient id="SVGID_8_" gradientUnits="userSpaceOnUse" x1="67.4414" y1="151.4578" x2="76.3489" y2="151.4578" gradientTransform="matrix(0.2274 -0.9738 0.9738 0.2274 -102.6696 186.7254)">
			<stop  offset="2.820513e-02" style="stop-color:#2D2E82"/>
			<stop  offset="0.1726" style="stop-color:#30297B"/>
			<stop  offset="0.6528" style="stop-color:#371C69"/>
			<stop  offset="1" style="stop-color:#391763"/>
		</linearGradient>
		<path class="st23" d="M81.4,151.3l-17.5,0l-22.4-5.4c-0.9-0.2-1.9,0.4-2.1,1.3l-0.3,1.3c-0.2,1,0.4,2,1.3,2.2l22.5,5.4
			c0,0,0.1,0,0.1,0c0.2,0.1,0.3,0.1,0.5,0.1l17.9,0c0.9,0,1.6-0.7,1.6-1.6l0-1.7C83,152.1,82.3,151.4,81.4,151.3z"/>
		
			<linearGradient id="SVGID_9_" gradientUnits="userSpaceOnUse" x1="247.7159" y1="151.8908" x2="283.375" y2="151.8908" gradientTransform="matrix(-1 0 0 1 346.9362 0)">
			<stop  offset="0" style="stop-color:#F8B133"/>
			<stop  offset="0.1847" style="stop-color:#F7AB31"/>
			<stop  offset="0.4366" style="stop-color:#F4992D"/>
			<stop  offset="0.726" style="stop-color:#EF7D26"/>
			<stop  offset="1" style="stop-color:#EA5B1D"/>
		</linearGradient>
		<path class="st27" d="M66.3,154.6h30.2c1.5,0,2.7-1.2,2.7-2.7l0,0c0-1.5-1.2-2.7-2.7-2.7H66.3c-1.5,0-2.7,1.2-2.7,2.7l0,0
			C63.6,153.4,64.8,154.6,66.3,154.6z"/>
	</g>
	<rect x="117.7" y="212.2" class="st2" width="5.1" height="13.8"/>
	<rect x="286.2" y="212.2" class="st2" width="5.1" height="13.8"/>
	<polygon class="st2" points="131.4,197.3 131.4,201.7 127.6,199.5 123.7,197.3 127.6,195 131.4,192.8 	"/>
	<polygon class="st2" points="34.3,214.4 29.8,214.4 32.1,218.2 34.3,222.1 36.5,218.2 38.7,214.4 	"/>
	<polygon class="st2" points="277.5,197.3 277.5,201.7 281.3,199.5 285.2,197.3 281.3,195 277.5,192.8 	"/>
	<line class="st167" x1="127.6" y1="197.3" x2="282.3" y2="197.3"/>
	<line class="st167" x1="34.3" y1="168" x2="34.3" y2="215.6"/>
	<line class="st168" x1="122.8" y1="197.3" x2="122.8" y2="212.2"/>
	<line class="st168" x1="48.9" y1="163.3" x2="33.9" y2="163.3"/>
	<line class="st168" x1="42.5" y1="222.4" x2="33" y2="222.4"/>
	<line class="st168" x1="286.2" y1="197.3" x2="286.2" y2="212.2"/>
	<g>
		<path class="st3" d="M191.7,191.4l1.6-0.2c0.1,0.4,0.2,0.7,0.4,0.9s0.5,0.3,0.8,0.3c0.3,0,0.6-0.1,0.9-0.4s0.3-0.6,0.3-1
			c0-0.4-0.1-0.7-0.3-1s-0.5-0.4-0.8-0.4c-0.2,0-0.5,0-0.8,0.1l0.2-1.3c0.4,0,0.8-0.1,1-0.3s0.4-0.5,0.4-0.8c0-0.3-0.1-0.5-0.3-0.7
			s-0.4-0.3-0.7-0.3c-0.3,0-0.5,0.1-0.7,0.3s-0.3,0.5-0.4,0.9l-1.5-0.3c0.1-0.5,0.3-0.9,0.5-1.2s0.5-0.6,0.9-0.7s0.8-0.3,1.3-0.3
			c0.8,0,1.5,0.3,1.9,0.8c0.4,0.4,0.6,0.9,0.6,1.4c0,0.8-0.4,1.4-1.2,1.8c0.5,0.1,0.9,0.3,1.2,0.7s0.4,0.8,0.4,1.3
			c0,0.8-0.3,1.4-0.8,1.9s-1.2,0.8-2.1,0.8c-0.8,0-1.4-0.2-1.9-0.7S191.8,192.1,191.7,191.4z"/>
		<path class="st3" d="M198.6,187.5h1.5v0.8c0.5-0.7,1.2-1,1.9-1c0.4,0,0.7,0.1,1,0.2s0.5,0.4,0.7,0.7c0.3-0.3,0.6-0.6,0.9-0.7
			s0.7-0.2,1-0.2c0.5,0,0.8,0.1,1.2,0.3s0.6,0.5,0.7,0.8c0.1,0.3,0.2,0.7,0.2,1.3v4h-1.6v-3.6c0-0.6-0.1-1-0.2-1.2
			c-0.2-0.2-0.4-0.4-0.7-0.4c-0.2,0-0.4,0.1-0.7,0.2s-0.3,0.3-0.4,0.6s-0.1,0.7-0.1,1.3v3h-1.6v-3.4c0-0.6,0-1-0.1-1.2
			s-0.1-0.3-0.3-0.4s-0.3-0.1-0.5-0.1c-0.3,0-0.5,0.1-0.7,0.2s-0.3,0.3-0.4,0.6s-0.1,0.7-0.1,1.3v3h-1.6V187.5z"/>
	</g>
	<g>
		<path class="st3" d="M41.6,193.5V192c0.5-0.5,1.1-0.8,1.7-0.8c0.2,0,0.5,0,0.7,0.1s0.6,0.2,1.1,0.4s0.9,0.3,1.1,0.3
			c0.2,0,0.5-0.1,0.8-0.2s0.6-0.3,0.8-0.6v1.6c-0.2,0.2-0.4,0.4-0.8,0.5s-0.7,0.2-1,0.2c-0.2,0-0.4,0-0.6-0.1s-0.5-0.2-0.9-0.3
			c-0.6-0.3-1.1-0.4-1.4-0.4C42.6,192.7,42.1,192.9,41.6,193.5z"/>
		<path class="st3" d="M67.8,192.1l-1.6,0.3c-0.1-0.3-0.2-0.6-0.4-0.7s-0.4-0.2-0.8-0.2c-0.4,0-0.7,0.1-1,0.4
			c-0.2,0.3-0.4,0.8-0.4,1.4c0,0.7,0.1,1.3,0.4,1.6c0.2,0.3,0.6,0.5,1,0.5c0.3,0,0.6-0.1,0.8-0.3s0.3-0.5,0.4-0.9l1.6,0.3
			c-0.2,0.7-0.5,1.3-1,1.7s-1.1,0.6-1.9,0.6c-0.9,0-1.6-0.3-2.2-0.9s-0.8-1.4-0.8-2.4c0-1,0.3-1.8,0.8-2.4s1.3-0.9,2.2-0.9
			c0.8,0,1.4,0.2,1.8,0.5S67.6,191.5,67.8,192.1z"/>
		<path class="st3" d="M68.9,190.3h1.5v0.8c0.5-0.7,1.2-1,1.9-1c0.4,0,0.7,0.1,1,0.2s0.5,0.4,0.7,0.7c0.3-0.3,0.6-0.6,0.9-0.7
			s0.7-0.2,1-0.2c0.5,0,0.8,0.1,1.2,0.3s0.6,0.5,0.7,0.8c0.1,0.3,0.2,0.7,0.2,1.3v4h-1.6V193c0-0.6-0.1-1-0.2-1.2
			c-0.2-0.2-0.4-0.4-0.7-0.4c-0.2,0-0.4,0.1-0.7,0.2s-0.3,0.3-0.4,0.6s-0.1,0.7-0.1,1.3v3h-1.6v-3.4c0-0.6,0-1-0.1-1.2
			s-0.1-0.3-0.3-0.4s-0.3-0.1-0.5-0.1c-0.3,0-0.5,0.1-0.7,0.2s-0.3,0.3-0.4,0.6s-0.1,0.7-0.1,1.3v3h-1.6V190.3z"/>
		<g>
			<path class="st3" d="M54,190.2c0,0.1,0,0.2-0.1,0.3c0,0.1-0.1,0.2-0.2,0.2c-0.1,0.1-0.2,0.1-0.3,0.2s-0.3,0.1-0.4,0.1h-1.7
				l-0.2,1.2c0.1,0,0.3,0,0.4-0.1c0.1,0,0.2,0,0.4,0c0.4,0,0.7,0.1,1,0.2c0.3,0.1,0.5,0.3,0.7,0.5c0.2,0.2,0.4,0.4,0.5,0.7
				s0.2,0.6,0.2,0.9c0,0.4-0.1,0.7-0.2,1.1c-0.1,0.3-0.3,0.6-0.6,0.8s-0.5,0.4-0.9,0.5c-0.3,0.1-0.7,0.2-1.1,0.2
				c-0.2,0-0.5,0-0.7-0.1s-0.4-0.1-0.6-0.2s-0.4-0.2-0.5-0.3c-0.2-0.1-0.3-0.2-0.4-0.4l0.5-0.6c0-0.1,0.1-0.1,0.2-0.2
				c0.1,0,0.1-0.1,0.2-0.1c0.1,0,0.2,0,0.3,0.1c0.1,0.1,0.2,0.1,0.3,0.2c0.1,0.1,0.2,0.1,0.4,0.2s0.3,0.1,0.5,0.1s0.4,0,0.5-0.1
				c0.1-0.1,0.3-0.2,0.4-0.3c0.1-0.1,0.2-0.3,0.2-0.4s0.1-0.3,0.1-0.5c0-0.4-0.1-0.6-0.3-0.8c-0.2-0.2-0.5-0.3-0.9-0.3
				c-0.3,0-0.6,0.1-1,0.2l-1-0.3l0.6-3.6H54V190.2z"/>
			<path class="st3" d="M60.4,193.2c0,0.6-0.1,1.2-0.2,1.7s-0.3,0.9-0.6,1.2s-0.5,0.5-0.9,0.7c-0.3,0.1-0.7,0.2-1.1,0.2
				s-0.7-0.1-1.1-0.2c-0.3-0.2-0.6-0.4-0.9-0.7c-0.2-0.3-0.4-0.7-0.6-1.2c-0.1-0.5-0.2-1-0.2-1.7s0.1-1.2,0.2-1.7
				c0.1-0.5,0.3-0.9,0.6-1.2c0.2-0.3,0.5-0.5,0.9-0.7c0.3-0.1,0.7-0.2,1.1-0.2s0.7,0.1,1.1,0.2c0.3,0.1,0.6,0.4,0.9,0.7
				s0.4,0.7,0.6,1.2S60.4,192.6,60.4,193.2z M58.8,193.2c0-0.5,0-0.9-0.1-1.2c-0.1-0.3-0.1-0.6-0.3-0.8c-0.1-0.2-0.2-0.3-0.4-0.4
				s-0.3-0.1-0.4-0.1s-0.3,0-0.4,0.1c-0.1,0.1-0.2,0.2-0.3,0.4c-0.1,0.2-0.2,0.4-0.2,0.8c-0.1,0.3-0.1,0.7-0.1,1.2
				c0,0.5,0,0.9,0.1,1.2c0.1,0.3,0.1,0.6,0.2,0.8c0.1,0.2,0.2,0.3,0.3,0.4c0.1,0.1,0.3,0.1,0.4,0.1s0.3,0,0.4-0.1s0.3-0.2,0.4-0.4
				s0.2-0.4,0.3-0.8C58.8,194.1,58.8,193.7,58.8,193.2z"/>
		</g>
	</g>
	<circle class="st169" cx="194.5" cy="72.1" r="32.3"/>
	<circle class="st169" cx="264.8" cy="114.4" r="32.3"/>
	<linearGradient id="SVGID_10_" gradientUnits="userSpaceOnUse" x1="265.3766" y1="84.6399" x2="264.9685" y2="120.4244">
		<stop  offset="0.1008" style="stop-color:#260340"/>
		<stop  offset="0.2143" style="stop-color:#2A0747"/>
		<stop  offset="0.5082" style="stop-color:#321156"/>
		<stop  offset="0.7782" style="stop-color:#371560"/>
		<stop  offset="1" style="stop-color:#391763"/>
	</linearGradient>
	<path class="st28" d="M268.4,112H262c-1.4,0-2.5-1.1-2.5-2.5v-16c0-3.1,2.5-5.7,5.7-5.7l0,0c3.1,0,5.7,2.5,5.7,5.7v16
		C270.9,110.9,269.8,112,268.4,112z"/>
	<path class="st47" d="M269.1,111.5h-7.4c-0.3,0-0.5-0.2-0.5-0.5v-1.1c0-0.3,0.2-0.5,0.5-0.5h7.4c0.3,0,0.5,0.2,0.5,0.5v1.1
		C269.7,111.3,269.4,111.5,269.1,111.5z"/>
	<g>
		<path class="st25" d="M261.1,109.2l8,0.1v7.4c0,0,0,0,0,0v21.2h-8v-12.1c0,0,0,0,0,0v-3.1c0,0,0,0,0,0"/>
		<g>
			<path class="st48" d="M269.1,135.1v0.4H267c-0.1,0-0.1-0.1-0.1-0.2c0-0.1,0-0.1,0-0.1s0-0.1,0.1-0.1H269.1z"/>
			<path class="st48" d="M269.1,133.2v0.2c0,0,0,0,0,0h-1.1c0,0-0.1,0-0.1-0.1c0,0,0-0.1,0-0.1c0,0,0,0,0,0L269.1,133.2
				C269.1,133.2,269.1,133.2,269.1,133.2z"/>
			<path class="st48" d="M269.1,131.6v0.2c0,0,0,0,0,0h-1.1c0,0-0.1,0-0.1-0.1c0,0,0-0.1,0-0.1c0,0,0,0,0,0L269.1,131.6
				C269.1,131.6,269.1,131.6,269.1,131.6z"/>
			<path class="st48" d="M269.1,130.1v0.2c0,0,0,0,0,0h-1.1c0,0-0.1,0-0.1-0.1c0,0,0-0.1,0-0.1c0,0,0,0,0,0L269.1,130.1
				C269.1,130.1,269.1,130.1,269.1,130.1z"/>
			<path class="st48" d="M269.1,125.6v0.2c0,0,0,0,0,0h-1.1c0,0-0.1,0-0.1-0.1c0,0,0-0.1,0-0.1c0,0,0,0,0,0L269.1,125.6
				C269.1,125.6,269.1,125.6,269.1,125.6z"/>
			<path class="st48" d="M269.1,124v0.2c0,0,0,0,0,0h-1.1c0,0-0.1,0-0.1-0.1c0,0,0-0.1,0-0.1c0,0,0,0,0,0L269.1,124
				C269.1,124,269.1,124,269.1,124z"/>
			<path class="st48" d="M269.1,122.4v0.2c0,0,0,0,0,0h-1.1c0,0-0.1,0-0.1-0.1c0,0,0-0.1,0-0.1c0,0,0,0,0,0L269.1,122.4
				C269.1,122.4,269.1,122.4,269.1,122.4z"/>
			<path class="st48" d="M269.1,118.1v0.2c0,0,0,0,0,0h-1.1c0,0-0.1,0-0.1-0.1c0,0,0-0.1,0-0.1c0,0,0,0,0,0L269.1,118.1
				C269.1,118.1,269.1,118.1,269.1,118.1z"/>
			<path class="st48" d="M269.1,116.5v0.2c0,0,0,0,0,0h-1.1c0,0-0.1,0-0.1-0.1c0,0,0-0.1,0-0.1c0,0,0,0,0,0L269.1,116.5
				C269.1,116.5,269.1,116.5,269.1,116.5z"/>
			<path class="st48" d="M269.1,114.9v0.2c0,0,0,0,0,0h-1.1c0,0-0.1,0-0.1-0.1c0,0,0-0.1,0-0.1c0,0,0,0,0,0L269.1,114.9
				C269.1,114.9,269.1,114.9,269.1,114.9z"/>
			<path class="st48" d="M269.1,110.6v0.2c0,0,0,0,0,0h-1.1c0,0-0.1,0-0.1-0.1c0,0,0-0.1,0-0.1c0,0,0,0,0,0L269.1,110.6
				C269.1,110.6,269.1,110.6,269.1,110.6z"/>
			<path class="st48" d="M269.1,127.6v0.4H267c-0.1,0-0.1-0.1-0.1-0.2c0-0.1,0-0.1,0-0.1c0,0,0-0.1,0.1-0.1H269.1z"/>
			<path class="st48" d="M269.1,120.1v0.4H267c-0.1,0-0.1-0.1-0.1-0.2c0-0.1,0-0.1,0-0.1c0,0,0-0.1,0.1-0.1H269.1z"/>
			<path class="st48" d="M269.1,112.6v0.4H267c-0.1,0-0.1-0.1-0.1-0.2c0-0.1,0-0.1,0-0.1c0,0,0-0.1,0.1-0.1H269.1z"/>
		</g>
		<g>
			<path class="st48" d="M261.1,135.2v0.4h2.1c0.1,0,0.1-0.1,0.1-0.2c0-0.1,0-0.1,0-0.1s0-0.1-0.1-0.1H261.1z"/>
			<path class="st48" d="M261.1,133.3v0.2c0,0,0,0,0,0h1.1c0,0,0.1,0,0.1-0.1c0,0,0-0.1,0-0.1c0,0,0,0,0,0L261.1,133.3
				C261.1,133.3,261.1,133.3,261.1,133.3z"/>
			<path class="st48" d="M261.1,131.7v0.2c0,0,0,0,0,0h1.1c0,0,0.1,0,0.1-0.1c0,0,0-0.1,0-0.1c0,0,0,0,0,0L261.1,131.7
				C261.1,131.7,261.1,131.7,261.1,131.7z"/>
			<path class="st48" d="M261.1,130.1v0.2c0,0,0,0,0,0h1.1c0,0,0.1,0,0.1-0.1c0,0,0-0.1,0-0.1c0,0,0,0,0,0L261.1,130.1
				C261.1,130.1,261.1,130.1,261.1,130.1z"/>
			<path class="st48" d="M261.1,125.6v0.2c0,0,0,0,0,0h1.1c0,0,0.1,0,0.1-0.1c0,0,0-0.1,0-0.1c0,0,0,0,0,0L261.1,125.6
				C261.1,125.6,261.1,125.6,261.1,125.6z"/>
			<path class="st48" d="M261.1,124v0.2c0,0,0,0,0,0h1.1c0,0,0.1,0,0.1-0.1c0,0,0-0.1,0-0.1c0,0,0,0,0,0L261.1,124
				C261.1,124,261.1,124,261.1,124z"/>
			<path class="st48" d="M261.1,122.5v0.2c0,0,0,0,0,0l1.1,0c0,0,0.1,0,0.1-0.1c0,0,0-0.1,0-0.1c0,0,0,0,0,0L261.1,122.5
				C261.1,122.5,261.1,122.5,261.1,122.5z"/>
			<path class="st48" d="M261.1,118.1v0.2c0,0,0,0,0,0h1.1c0,0,0.1,0,0.1-0.1c0,0,0-0.1,0-0.1c0,0,0,0,0,0L261.1,118.1
				C261.1,118.1,261.1,118.1,261.1,118.1z"/>
			<path class="st48" d="M261.1,116.5v0.2c0,0,0,0,0,0h1.1c0,0,0.1,0,0.1-0.1c0,0,0-0.1,0-0.1c0,0,0,0,0,0L261.1,116.5
				C261.1,116.5,261.1,116.5,261.1,116.5z"/>
			<path class="st48" d="M261.1,115v0.2c0,0,0,0,0,0h1.1c0,0,0.1,0,0.1-0.1c0,0,0-0.1,0-0.1c0,0,0,0,0,0L261.1,115
				C261.1,115,261.1,115,261.1,115z"/>
			<path class="st48" d="M261.1,110.6v0.2c0,0,0,0,0,0h1.1c0,0,0.1,0,0.1-0.1c0,0,0-0.1,0-0.1c0,0,0,0,0,0L261.1,110.6
				C261.1,110.6,261.1,110.6,261.1,110.6z"/>
			<path class="st48" d="M261.1,127.7v0.4h2.1c0.1,0,0.1-0.1,0.1-0.2c0-0.1,0-0.1,0-0.1c0,0,0-0.1-0.1-0.1H261.1z"/>
			<path class="st48" d="M261.1,120.2v0.4h2.1c0.1,0,0.1-0.1,0.1-0.2c0-0.1,0-0.1,0-0.1c0,0,0-0.1-0.1-0.1H261.1z"/>
			<path class="st48" d="M261.1,112.7v0.4h2.1c0.1,0,0.1-0.1,0.1-0.2c0-0.1,0-0.1,0-0.1c0,0,0-0.1-0.1-0.1H261.1z"/>
		</g>
		<g>
			<path class="st48" d="M265.5,134.3c0,0-0.1-0.1-0.1-0.1c0,0-0.1,0-0.1,0c0,0,0,0.1-0.1,0.1c-0.1,0.1-0.1,0.1-0.2,0.2
				c-0.1,0.1-0.2,0.1-0.3,0.2c-0.1,0-0.1,0.1-0.2,0.1c0,0,0,0.1,0,0.1c0,0,0,0.1,0,0.1c0,0,0.1,0,0.1,0c0.1,0,0.3-0.1,0.5-0.3v1.3
				c0,0.1,0,0.1,0.1,0.2c0,0,0.1,0.1,0.1,0.1c0.1,0,0.2-0.1,0.2-0.3v-1.7C265.5,134.4,265.5,134.3,265.5,134.3z"/>
		</g>
		<g>
			<path class="st48" d="M265.9,128.7c0,0-0.1,0-0.2,0H265c0,0,0-0.1,0.1-0.1c0.1-0.1,0.1-0.1,0.3-0.3c0.1-0.1,0.2-0.2,0.3-0.2
				c0.1,0,0.1-0.1,0.2-0.2c0.1-0.1,0.1-0.2,0.1-0.3c0-0.1,0-0.1,0-0.2c0-0.1-0.1-0.1-0.1-0.2c0-0.1-0.1-0.1-0.2-0.1
				c-0.1,0-0.2-0.1-0.3-0.1c-0.1,0-0.2,0-0.3,0c-0.1,0-0.2,0.1-0.2,0.1c-0.1,0-0.1,0.1-0.1,0.2c0,0.1,0,0.1,0,0.2c0,0,0,0.1,0,0.1
				c0,0,0.1,0,0.1,0c0,0,0.1,0,0.1,0c0,0,0-0.1,0.1-0.1c0-0.1,0-0.1,0-0.1c0.1-0.1,0.2-0.2,0.3-0.2c0.1,0,0.1,0,0.2,0
				c0,0,0.1,0.1,0.1,0.1c0,0,0,0.1,0,0.2c0,0,0,0.1,0,0.2c0,0.1-0.1,0.1-0.1,0.2c0,0-0.1,0.1-0.2,0.2c0,0-0.1,0.1-0.2,0.2
				c-0.1,0.1-0.2,0.2-0.3,0.3c0,0,0,0.1-0.1,0.1c0,0.1,0,0.1,0,0.1c0,0,0,0.1,0.1,0.1c0,0,0.1,0.1,0.2,0.1h1c0.1,0,0.1,0,0.1,0
				c0,0,0-0.1,0-0.1C265.9,128.8,265.9,128.7,265.9,128.7z"/>
		</g>
		<g>
			<path class="st48" d="M265.8,120.6c0-0.1-0.1-0.1-0.1-0.2c0,0-0.1-0.1-0.2-0.1c0.1-0.1,0.1-0.1,0.2-0.2c0-0.1,0.1-0.1,0.1-0.2
				c0-0.1,0-0.1,0-0.2c0-0.1-0.1-0.1-0.1-0.2c-0.1,0-0.1-0.1-0.2-0.1c-0.1,0-0.1,0-0.2,0c-0.1,0-0.2,0-0.3,0c-0.1,0-0.1,0.1-0.2,0.1
				c-0.1,0-0.1,0.1-0.1,0.1c0,0,0,0.1,0,0.1c0,0,0,0.1,0,0.1c0,0,0.1,0,0.1,0c0,0,0.1,0,0.1,0c0,0,0,0,0,0c0,0,0-0.1,0-0.1
				c0,0,0-0.1,0.1-0.1c0,0,0,0,0.1-0.1c0,0,0.1,0,0.1,0c0.1,0,0.1,0,0.2,0.1c0,0,0.1,0.1,0.1,0.2c0,0.1,0,0.2-0.1,0.2
				s-0.1,0.1-0.2,0.1h0c-0.1,0-0.1,0-0.1,0c0,0,0,0.1,0,0.1c0,0,0,0.1,0,0.1c0,0,0.1,0,0.1,0h0.1c0,0,0.1,0,0.1,0
				c0.1,0,0.2,0,0.2,0.1c0.1,0.1,0.1,0.1,0.1,0.2c0,0.1,0,0.1,0,0.2c0,0-0.1,0.1-0.1,0.1c-0.1,0-0.1,0-0.2,0c-0.1,0-0.2,0-0.2-0.1
				c0-0.1-0.1-0.2-0.1-0.3c0,0,0,0,0-0.1c0,0,0,0-0.1,0c-0.1,0-0.1,0-0.1,0c0,0,0,0.1,0,0.1c0,0,0,0.1,0,0.1c0,0.1,0.1,0.1,0.1,0.2
				c0,0.1,0.1,0.1,0.2,0.1c0.1,0,0.2,0.1,0.3,0.1s0.2,0,0.3-0.1c0.1,0,0.2-0.1,0.2-0.1c0.1-0.1,0.1-0.1,0.1-0.2c0-0.1,0-0.2,0-0.2
				C265.8,120.7,265.8,120.6,265.8,120.6z"/>
		</g>
		<g>
			<path class="st48" d="M265.7,112.9c0,0-0.1,0-0.2,0h-0.1v-1c0-0.1-0.1-0.2-0.2-0.2c0,0-0.1,0-0.1,0c0,0-0.1,0.1-0.1,0.1l-0.7,0.9
				c0,0,0,0,0,0.1c0,0,0,0,0,0.1c0,0,0,0,0,0c0,0,0,0,0,0c0,0.1,0,0.1,0.1,0.2c0,0,0.1,0,0.2,0h0.6v0.2c0,0.1,0,0.1,0,0.1
				c0,0,0.1,0,0.1,0c0,0,0.1,0,0.1,0c0,0,0-0.1,0-0.1v-0.2h0.1c0.1,0,0.1,0,0.1,0c0,0,0-0.1,0-0.1
				C265.8,112.9,265.8,112.9,265.7,112.9z M265.2,112.9h-0.5l0.5-0.7V112.9z"/>
		</g>
		<path class="st48" d="M264.7,138.7h-3.6c-0.2,0-0.4-0.2-0.4-0.4v-0.4c0-0.2,0.2-0.4,0.4-0.4h3.6c0.2,0,0.4,0.2,0.4,0.4v0.4
			C265.2,138.5,265,138.7,264.7,138.7z"/>
		<path class="st48" d="M269.1,138.7h-3.5c-0.2,0-0.4-0.2-0.4-0.4v-0.4c0-0.2,0.2-0.4,0.4-0.4h3.5c0.2,0,0.4,0.2,0.4,0.4v0.4
			C269.6,138.5,269.4,138.7,269.1,138.7z"/>
	</g>
	<g>
		<polygon class="st61" points="189.3,85.3 215.1,85.3 212.6,84.3 215.1,83.5 211.8,83.5 214.2,82.1 189.3,82.1 		"/>
		<circle class="st61" cx="189.3" cy="69.9" r="15.5"/>
		<circle class="st171" cx="189.1" cy="69.7" r="14.5"/>
		<circle class="st172" cx="189.1" cy="69.7" r="12.6"/>
		<circle class="st173" cx="189.1" cy="69.5" r="10.5"/>
		<circle class="st174" cx="189.1" cy="69.5" r="8.2"/>
		<circle class="st175" cx="189.1" cy="69.5" r="6"/>
		<circle class="st175" cx="189.1" cy="69.5" r="6"/>
		<circle class="st176" cx="189.1" cy="69.5" r="4.3"/>
		<circle class="st177" cx="189.1" cy="69.5" r="3"/>
		<circle class="st178" cx="189.1" cy="69.5" r="1.9"/>
	</g>
</g>
<g id="Hulpmiddelen">
</g>
<g id="starten_test">
</g>
</svg>
