<svg id="Hulpmiddelen" xmlns="http://www.w3.org/2000/svg" xmlns:xlink="http://www.w3.org/1999/xlink" viewBox="0 0 264.24 235.01"><defs><style>.cls-1{fill:url(#linear-gradient);}.cls-19,.cls-2,.cls-3{fill:#fff;}.cls-19,.cls-2{stroke:#fbb040;}.cls-13,.cls-19,.cls-2,.cls-38,.cls-39,.cls-40{stroke-miterlimit:10;}.cls-2{stroke-width:6px;}.cls-4{fill:#177466;}.cls-5{fill:#f8dcb2;}.cls-6{fill:#f29100;}.cls-7{fill:#e84e1b;}.cls-8{fill:url(#Naamloos_verloop_34);}.cls-9{fill:url(#Naamloos_verloop_7);}.cls-10{fill:url(#Naamloos_verloop_7-2);}.cls-11,.cls-13,.cls-31,.cls-38{fill:none;}.cls-11,.cls-31{stroke:#e84e1b;stroke-linejoin:round;}.cls-11,.cls-13,.cls-31{stroke-linecap:round;}.cls-11{stroke-width:0.23px;}.cls-12{fill:#142a2d;}.cls-13{stroke:#00a79d;stroke-width:0.47px;}.cls-14{fill:url(#linear-gradient-2);}.cls-15{fill:#a2def9;}.cls-16{fill:url(#linear-gradient-3);}.cls-17{fill:#ef4136;}.cls-18{fill:#f8b133;}.cls-19{stroke-width:7px;}.cls-20{fill:url(#Naamloos_verloop_36);}.cls-21{fill:#fcea0d;}.cls-22{fill:#391763;}.cls-23{fill:#dbddde;}.cls-24{fill:url(#linear-gradient-4);}.cls-25{fill:#2d2e82;}.cls-26{fill:#2bb673;}.cls-27{fill:#534741;}.cls-28{fill:url(#Naamloos_verloop_34-2);}.cls-29{fill:url(#Naamloos_verloop_7-3);}.cls-30{fill:url(#Naamloos_verloop_7-4);}.cls-31{stroke-width:0.85px;}.cls-32{fill:url(#linear-gradient-5);}.cls-33{fill:url(#linear-gradient-6);}.cls-34{fill:url(#linear-gradient-7);}.cls-35{fill:url(#linear-gradient-8);}.cls-36{fill:url(#Naamloos_verloop_65);}.cls-37{fill:url(#Naamloos_verloop_64);}.cls-38,.cls-39,.cls-40{stroke:#897cba;}.cls-38,.cls-39{stroke-width:1.17px;}.cls-39,.cls-40{fill:#897cba;}.cls-40{stroke-width:0.78px;}.cls-41{fill:url(#linear-gradient-9);}</style><linearGradient id="linear-gradient" x1="134.54" x2="134.54" y2="233.31" gradientUnits="userSpaceOnUse"><stop offset="0" stop-color="#65c8d0"/><stop offset="0.16" stop-color="#64c4ce"/><stop offset="0.32" stop-color="#5fb8c8"/><stop offset="0.48" stop-color="#58a4be"/><stop offset="0.65" stop-color="#4e87af"/><stop offset="0.81" stop-color="#40639d"/><stop offset="0.97" stop-color="#303787"/><stop offset="1" stop-color="#2d2e82"/></linearGradient><linearGradient id="Naamloos_verloop_34" x1="429.31" y1="395.3" x2="429.31" y2="356.57" gradientUnits="userSpaceOnUse"><stop offset="0" stop-color="#f8b133"/><stop offset="0.22" stop-color="#f7ae32"/><stop offset="0.38" stop-color="#f6a430"/><stop offset="0.53" stop-color="#f3942c"/><stop offset="0.68" stop-color="#ef7c26"/><stop offset="0.81" stop-color="#eb5e1f"/><stop offset="0.87" stop-color="#e84e1b"/></linearGradient><linearGradient id="Naamloos_verloop_7" x1="445.01" y1="375.15" x2="441.79" y2="375.15" gradientUnits="userSpaceOnUse"><stop offset="0.04" stop-color="#f29100"/><stop offset="0.43" stop-color="#f28f01"/><stop offset="0.62" stop-color="#f18704"/><stop offset="0.76" stop-color="#ef7a09"/><stop offset="0.88" stop-color="#ec6811"/><stop offset="0.99" stop-color="#e8501a"/><stop offset="1" stop-color="#e84e1b"/></linearGradient><linearGradient id="Naamloos_verloop_7-2" x1="413.61" y1="375.15" x2="416.84" y2="375.15" xlink:href="#Naamloos_verloop_7"/><linearGradient id="linear-gradient-2" x1="416.05" y1="376.06" x2="416.05" y2="379.58" gradientTransform="translate(-380.29 -279.66)" gradientUnits="userSpaceOnUse"><stop offset="0" stop-color="#2d2e82"/><stop offset="0.13" stop-color="#212a71"/><stop offset="0.33" stop-color="#12265b"/><stop offset="0.52" stop-color="#09234e"/><stop offset="0.7" stop-color="#06224a"/></linearGradient><linearGradient id="linear-gradient-3" x1="428.26" y1="376.06" x2="428.26" y2="379.58" xlink:href="#linear-gradient-2"/><linearGradient id="Naamloos_verloop_36" x1="53.57" y1="204.95" x2="88.19" y2="204.95" gradientTransform="matrix(-0.94, -0.35, -0.35, 0.94, 747.69, 209.52)" gradientUnits="userSpaceOnUse"><stop offset="0" stop-color="#e84e1b"/><stop offset="0.36" stop-color="#ef7725"/><stop offset="0.78" stop-color="#f5a12f"/><stop offset="1" stop-color="#f8b133"/></linearGradient><linearGradient id="linear-gradient-4" x1="518.76" y1="350.67" x2="518.66" y2="304.1" gradientUnits="userSpaceOnUse"><stop offset="0" stop-color="#35a8e0"/><stop offset="0.16" stop-color="#35a3dc"/><stop offset="0.35" stop-color="#3496d2"/><stop offset="0.55" stop-color="#327fc0"/><stop offset="0.75" stop-color="#305fa8"/><stop offset="0.96" stop-color="#2e3688"/><stop offset="1" stop-color="#2d2e82"/></linearGradient><linearGradient id="Naamloos_verloop_34-2" x1="522.85" y1="484.73" x2="522.85" y2="390.68" xlink:href="#Naamloos_verloop_34"/><linearGradient id="Naamloos_verloop_7-3" x1="560.98" y1="435.81" x2="553.14" y2="435.81" xlink:href="#Naamloos_verloop_7"/><linearGradient id="Naamloos_verloop_7-4" x1="484.72" y1="435.81" x2="492.55" y2="435.81" xlink:href="#Naamloos_verloop_7"/><linearGradient id="linear-gradient-5" x1="493.81" y1="488.46" x2="493.81" y2="514.67" gradientUnits="userSpaceOnUse"><stop offset="0" stop-color="#260340"/><stop offset="0.19" stop-color="#2b084a"/><stop offset="0.67" stop-color="#35135c"/><stop offset="1" stop-color="#391763"/></linearGradient><linearGradient id="linear-gradient-6" x1="551.49" y1="488.45" x2="551.49" y2="514.67" xlink:href="#linear-gradient-5"/><linearGradient id="linear-gradient-7" x1="549.18" y1="488.1" x2="549.18" y2="514.67" gradientUnits="userSpaceOnUse"><stop offset="0.03" stop-color="#2d2e82"/><stop offset="0.14" stop-color="#312779"/><stop offset="0.39" stop-color="#371b69"/><stop offset="0.59" stop-color="#391763"/></linearGradient><linearGradient id="linear-gradient-8" x1="496.45" y1="488.1" x2="496.45" y2="514.67" xlink:href="#linear-gradient-7"/><linearGradient id="Naamloos_verloop_65" x1="501.82" y1="434.74" x2="501.82" y2="443.8" gradientTransform="translate(-380.29 -279.66)" gradientUnits="userSpaceOnUse"><stop offset="0" stop-color="#2d2e82"/><stop offset="0.12" stop-color="#1c2969"/><stop offset="0.26" stop-color="#0c2452"/><stop offset="0.35" stop-color="#06224a"/></linearGradient><linearGradient id="Naamloos_verloop_64" x1="529.08" y1="434.74" x2="529.08" y2="443.8" gradientTransform="translate(-380.29 -279.66)" gradientUnits="userSpaceOnUse"><stop offset="0" stop-color="#2d2e82"/><stop offset="0.06" stop-color="#212a71"/><stop offset="0.15" stop-color="#12265b"/><stop offset="0.25" stop-color="#09234e"/><stop offset="0.33" stop-color="#06224a"/></linearGradient><linearGradient id="linear-gradient-9" x1="523.24" y1="433.76" x2="523.24" y2="373.59" gradientUnits="userSpaceOnUse"><stop offset="0" stop-color="#534741"/><stop offset="0.4" stop-color="#746e6b"/><stop offset="0.79" stop-color="#8f8d8c"/><stop offset="1" stop-color="#999"/></linearGradient></defs><circle class="cls-1" cx="134.54" cy="116.65" r="116.65"/><circle class="cls-2" cx="131.86" cy="44.47" r="39.13"/><circle class="cls-3" cx="42.29" cy="105.06" r="36.64"/><path class="cls-4" d="M39.73,75.51H44A12.43,12.43,0,0,1,56.4,87.93v28.67a8.69,8.69,0,0,1-8.69,8.69H36.37a8.69,8.69,0,0,1-8.69-8.69v-29A12.05,12.05,0,0,1,39.73,75.51Z"/><path class="cls-4" d="M436.76,405H421.08a8.69,8.69,0,0,1-8.69-8.69l2.48-29a12.05,12.05,0,0,1,12.05-12.05h4.24a12.42,12.42,0,0,1,12.43,12.42l1.86,28.68A8.69,8.69,0,0,1,436.76,405Z" transform="translate(-387.54 -279.66)"/><path class="cls-5" d="M448.55,400v7.62h-38.7V400a2.82,2.82,0,0,1,2.79-2.84h33.12A2.82,2.82,0,0,1,448.55,400Z" transform="translate(-387.54 -279.66)"/><path class="cls-6" d="M433.69,390.64v5.74a4.38,4.38,0,0,1-8.76,0V390.9a1.65,1.65,0,0,1,1.65-1.65h5.72A1.39,1.39,0,0,1,433.69,390.64Z" transform="translate(-387.54 -279.66)"/><path class="cls-7" d="M441.64,371.37v10.52a12.39,12.39,0,0,1-8,11.54v1.08a12.23,12.23,0,0,1-8.65,0v-1.08a12.39,12.39,0,0,1-8-11.54V371.37a12.33,12.33,0,0,1,24.65,0Z" transform="translate(-387.54 -279.66)"/><path class="cls-8" d="M441.79,369.73v12.4a13.22,13.22,0,0,1-8.1,12.33,11.84,11.84,0,0,1-8.76,0,13.21,13.21,0,0,1-8.09-12.33v-12.4c0-7.24,5.61-13.16,12.47-13.16a12.11,12.11,0,0,1,8.81,3.87A13.48,13.48,0,0,1,441.79,369.73Z" transform="translate(-387.54 -279.66)"/><path class="cls-9" d="M445,375.15a3.23,3.23,0,0,1-3.22,3.23v-6.45A3.22,3.22,0,0,1,445,375.15Z" transform="translate(-387.54 -279.66)"/><path class="cls-10" d="M413.61,375.15a3.23,3.23,0,0,0,3.23,3.23v-6.45A3.22,3.22,0,0,0,413.61,375.15Z" transform="translate(-387.54 -279.66)"/><path class="cls-11" d="M428.92,378.84l.09,2.54a1.19,1.19,0,0,0,.65,1.12c.43.17.73.77-.57,2.8,0,0-.1.21,0,.3" transform="translate(-387.54 -279.66)"/><path class="cls-12" d="M424.89,397.17a24,24,0,0,1-2,6.05h0a15.5,15.5,0,0,1-3.17,4.41h-9.82V400s-.48-2.14,2.44-2.86c1.73-.43,5.8-.34,8.85-.2C423.26,397.05,424.89,397.17,424.89,397.17Z" transform="translate(-387.54 -279.66)"/><path class="cls-12" d="M448.55,400.13v7.5h-9.82c-4-3.67-5-10-5.1-10.46,0,0,0,0,0,0h0c.2,0,1.75-.12,3.71-.21,3-.13,7.06-.21,8.78.22C449.05,397.86,448.55,400.13,448.55,400.13Z" transform="translate(-387.54 -279.66)"/><path class="cls-4" d="M420.65,374.9a.35.35,0,0,1-.22-.08.35.35,0,0,1-.06-.5,4,4,0,0,1,5.53-.61.36.36,0,0,1-.44.56,3.22,3.22,0,0,0-4.53.49A.37.37,0,0,1,420.65,374.9Z" transform="translate(-387.54 -279.66)"/><path class="cls-4" d="M438.2,374.73a.36.36,0,0,1-.27-.12,3.22,3.22,0,0,0-4.55-.2.37.37,0,0,1-.51,0,.35.35,0,0,1,0-.5,3.94,3.94,0,0,1,5.56.24.36.36,0,0,1,0,.5A.34.34,0,0,1,438.2,374.73Z" transform="translate(-387.54 -279.66)"/><ellipse class="cls-5" cx="28.22" cy="100.26" rx="0.54" ry="2.74"/><ellipse class="cls-5" cx="55.32" cy="100.26" rx="0.54" ry="2.74"/><path class="cls-4" d="M433.62,361.69s-7.9,16.05-17.62,11.84c-6.34-2.75-.83-20.91,11.64-21.22,19.89-.49,16.26,20.41,16.26,20.41S434.53,377.41,433.62,361.69Z" transform="translate(-387.54 -279.66)"/><path class="cls-13" d="M431.2,363.23s-6.65,11.2-12.74,9.7" transform="translate(-387.54 -279.66)"/><path class="cls-13" d="M435.81,368.29s2.45,4.56,5.21,4.11" transform="translate(-387.54 -279.66)"/><path class="cls-13" d="M415.76,371.93a5.23,5.23,0,0,1-1.08-5.58" transform="translate(-387.54 -279.66)"/><rect class="cls-14" x="34.55" y="96.39" width="2.42" height="3.52" rx="1.12"/><ellipse class="cls-15" cx="34.77" cy="98.8" rx="0.5" ry="0.49"/><rect class="cls-16" x="46.76" y="96.39" width="2.42" height="3.52" rx="1.12"/><ellipse class="cls-15" cx="46.98" cy="98.8" rx="0.5" ry="0.49"/><path class="cls-6" d="M429.12,389h2.66v-.06a1.32,1.32,0,0,0-1.33-1.26,1.3,1.3,0,0,0-1.32,1.26A.13.13,0,0,0,429.12,389Z" transform="translate(-387.54 -279.66)"/><path class="cls-6" d="M426.85,389h2.65v-.06a1.33,1.33,0,0,0-.19-.62,1.31,1.31,0,0,0-1.14-.64,1.32,1.32,0,0,0-1.32,1.26Z" transform="translate(-387.54 -279.66)"/><path class="cls-6" d="M426.85,388.92V389h0v.08a2.5,2.5,0,0,0,4.93,0v-.1Z" transform="translate(-387.54 -279.66)"/><path class="cls-7" d="M426.85,389h0v.08a6,6,0,0,0,2.48.57,5.1,5.1,0,0,0,2.45-.61v-.08h0l-.08,0a5.39,5.39,0,0,1-4.84,0Z" transform="translate(-387.54 -279.66)"/><path class="cls-17" d="M450.45,347.81a42.28,42.28,0,1,0,16.3,57.53A42.27,42.27,0,0,0,450.45,347.81Zm-52.61,19.05a36.63,36.63,0,0,1,66.37,5.2L393.92,392A36.5,36.5,0,0,1,397.84,366.86ZM412,416.72a36.51,36.51,0,0,1-16.5-19.33l70.28-19.91A36.64,36.64,0,0,1,412,416.72Z" transform="translate(-387.54 -279.66)"/><path class="cls-12" d="M439,421.08l-2.92,3.09a4.72,4.72,0,0,1-7,.05l-17.95-13.67a5.21,5.21,0,0,1,.18-7h0a4.75,4.75,0,0,1,6.72-.34l20.87,10.59A5.19,5.19,0,0,1,439,421.08Z" transform="translate(-387.54 -279.66)"/><path class="cls-18" d="M448.94,429.67a1.27,1.27,0,0,0,.89-.26l.19-.17h0a1.33,1.33,0,0,0,.34-1,.77.77,0,0,0,0-.15,1.33,1.33,0,0,0-.38-.68,52.14,52.14,0,0,0-9.78-7.4,34.16,34.16,0,0,0-3.52-1.79c-.22-.09-.44-.17-.67-.24a5.24,5.24,0,0,0-1-.18l-.31,0h-.51a5.28,5.28,0,0,0-4,2.24v0a.06.06,0,0,0,0,.07,27.12,27.12,0,0,0,3.57,3.32c.29.23.59.45.9.68A27.91,27.91,0,0,0,448.94,429.67Z" transform="translate(-387.54 -279.66)"/><path class="cls-18" d="M434.39,419.88l1.31,0h.76l3.73.07,2.95.05a1,1,0,0,0,1-1v-.12a1,1,0,0,0-1-1l-7.27-.13h-1.48l-.21,0a1,1,0,0,0-.82,1v.12A1,1,0,0,0,434.39,419.88Z" transform="translate(-387.54 -279.66)"/><path class="cls-7" d="M450.36,428.22a.38.38,0,0,0,0-.15c-3.33.46-11.24-5.83-11.32-5.9a.08.08,0,0,0-.11,0,.09.09,0,0,0,0,.12C439.26,422.56,447,428.69,450.36,428.22Z" transform="translate(-387.54 -279.66)"/><path class="cls-7" d="M449.83,429.41c-3.47.27-9.91-2.87-10.2-3a.09.09,0,0,1,0-.11.07.07,0,0,1,.11,0c.07,0,6.94,3.39,10.32,3h0Z" transform="translate(-387.54 -279.66)"/><path class="cls-6" d="M434.68,424.09a5.29,5.29,0,0,0,1.69-2.94,5.14,5.14,0,0,0,.09-1.23,5.21,5.21,0,0,0-.46-2l-.09-.19h-1.48l-.21,0a5.28,5.28,0,0,0-4,2.24v0a.06.06,0,0,0,0,.07,27.12,27.12,0,0,0,3.57,3.32C434.07,423.64,434.37,423.86,434.68,424.09Z" transform="translate(-387.54 -279.66)"/><circle class="cls-19" cx="224.09" cy="105.06" r="36.64"/><path class="cls-18" d="M636.79,396.1s-23.79-10-33.55-15.4c-7-3.84-14.2-.35-14.2-.35L615.13,396Z" transform="translate(-387.54 -279.66)"/><path class="cls-20" d="M622.14,385.56c-7.67-3.56-15.48-9.14-13.91-16.73a2.39,2.39,0,0,0-2.18-2.93l-9.2-.51a2.37,2.37,0,0,0-2.34,3.28c2.33,5.6,8.92,16.47,25.91,21.32a2.16,2.16,0,0,0,.66.1h0A2.38,2.38,0,0,0,622.14,385.56Z" transform="translate(-387.54 -279.66)"/><path class="cls-18" d="M615.13,396,589,380.35l-1.22,15.58a1.13,1.13,0,0,0,1.18,1.21Z" transform="translate(-387.54 -279.66)"/><path class="cls-21" d="M615.13,396l21.66.11v-.47a14.13,14.13,0,0,0-.18-1.85c-.91-5.77-5.31-10.2-10.59-10.22a6.78,6.78,0,0,0-.9,0,5.73,5.73,0,0,0-.58.07,9.62,9.62,0,0,0-2.58.78,11.37,11.37,0,0,0-5,4.6v0c-.13.21-.25.43-.37.66A13.81,13.81,0,0,0,615.13,396Z" transform="translate(-387.54 -279.66)"/><path class="cls-22" d="M636.79,396.1l.21,1.64-49.5,1.32s-.54-4.95.5-5.44c0,0,.23,3,27.44,1.52Z" transform="translate(-387.54 -279.66)"/><path class="cls-23" d="M631.42,388a.45.45,0,0,1-.28-.26,3.35,3.35,0,0,0-4.43-1.66.51.51,0,0,1-.42-.92,4.35,4.35,0,0,1,5.77,2.16.52.52,0,0,1-.25.67A.48.48,0,0,1,631.42,388Z" transform="translate(-387.54 -279.66)"/><path class="cls-24" d="M523.35,304.07a5.45,5.45,0,0,1-2.82-.2c-2.19-.68-5.09-.55-6.39,1.15s-.62,2.6-.31,2.68a1.77,1.77,0,0,0,2.13-1c.83-1.32,5.18,0,5.18,0V350a1.41,1.41,0,0,0,2.81,0V304.47A.48.48,0,0,0,523.35,304.07Z" transform="translate(-387.54 -279.66)"/><path class="cls-25" d="M524.11,352.17h-3.05a.59.59,0,0,1-.56-.75l.52-1.65a.58.58,0,0,1,.55-.41h2a.58.58,0,0,1,.55.39l.57,1.65A.58.58,0,0,1,524.11,352.17Z" transform="translate(-387.54 -279.66)"/><path class="cls-18" d="M519.25,304.08a.85.85,0,0,1,.24.53v.17h0a.83.83,0,0,1-.35.57.24.24,0,0,1-.08.06.86.86,0,0,1-.49.09,33.53,33.53,0,0,1-7.58-1.69,22.92,22.92,0,0,1-2.3-1c-.14-.07-.27-.15-.4-.23a4.54,4.54,0,0,1-.48-.39l-.14-.14-.13-.15,0-.06,0,0a3.36,3.36,0,0,1-.57-2.86s0,0,0,0l0,0a18.94,18.94,0,0,1,3.07.37l.7.16A17.75,17.75,0,0,1,519.25,304.08Z" transform="translate(-387.54 -279.66)"/><path class="cls-18" d="M511.39,299.56l.65,0,.38,0,1.87.1,1.48.08c.28,0,.41.28.29.58l0,.07a.81.81,0,0,1-.72.52l-3.64-.2-.45,0h-.3l-.09,0a.38.38,0,0,1-.19-.56l0-.07A.82.82,0,0,1,511.39,299.56Z" transform="translate(-387.54 -279.66)"/><path class="cls-7" d="M519.13,305.36l-.08.06c-1.15-1.8-7.42-3.05-7.49-3.06s0,0,0-.06a.05.05,0,0,1,.06,0C511.84,302.31,518,303.53,519.13,305.36Z" transform="translate(-387.54 -279.66)"/><path class="cls-7" d="M519.49,304.62c-1.29-1.79-5.46-3.62-5.64-3.7a0,0,0,0,0-.06,0s0,.05,0,.06,4.49,2,5.67,3.77h0Z" transform="translate(-387.54 -279.66)"/><path class="cls-6" d="M510.71,299.47a3.42,3.42,0,0,1-.73,2,3.63,3.63,0,0,1-.56.55,3.33,3.33,0,0,1-1.14.58s.09,0,.05,0l-.54-.42-.13-.14-.12-.14a.28.28,0,0,1-.08-.11,3.36,3.36,0,0,1-.57-2.86s0,0,0,0l0,0a18.94,18.94,0,0,1,3.07.37Z" transform="translate(-387.54 -279.66)"/><path class="cls-26" d="M646.85,355a3,3,0,0,0-4.06,1l-10.57,17.46-4-5.62a3,3,0,0,0-4.83,3.41l6.54,9.25,0,0a3,3,0,0,0,5-.16L647.85,359A3,3,0,0,0,646.85,355Z" transform="translate(-387.54 -279.66)"/><path class="cls-26" d="M557.21,296.06a3,3,0,0,0-4.06,1l-10.57,17.45-4-5.62a3,3,0,0,0-4.83,3.42l6.53,9.24,0,0a2.87,2.87,0,0,0,.89.84,3,3,0,0,0,4.06-1l12.91-21.31A3,3,0,0,0,557.21,296.06Z" transform="translate(-387.54 -279.66)"/><circle class="cls-27" cx="105.61" cy="165.08" r="6.53"/><circle class="cls-27" cx="165.6" cy="164.92" r="4.23"/><path class="cls-15" d="M569.57,496.19v18.48h-94V496.19a6.86,6.86,0,0,1,6.77-6.9h80.46A6.85,6.85,0,0,1,569.57,496.19Z" transform="translate(-387.54 -279.66)"/><path class="cls-6" d="M533.49,473.42v13.95a10.64,10.64,0,0,1-21.28,0V474a4,4,0,0,1,4-4h13.89A3.39,3.39,0,0,1,533.49,473.42Z" transform="translate(-387.54 -279.66)"/><path class="cls-7" d="M552.78,426.64v25.54a30,30,0,0,1-19.42,28v2.63a29.84,29.84,0,0,1-21,0v-2.63a30,30,0,0,1-19.42-28V426.64a29.93,29.93,0,0,1,59.85,0Z" transform="translate(-387.54 -279.66)"/><path class="cls-28" d="M553.15,422.65v30.11c0,13.64-8.21,25.35-19.66,29.93a28.77,28.77,0,0,1-21.28,0c-11.46-4.58-19.66-16.29-19.66-29.93V422.65c0-17.58,13.63-32,30.3-32a29.38,29.38,0,0,1,21.39,9.39A32.76,32.76,0,0,1,553.15,422.65Z" transform="translate(-387.54 -279.66)"/><path class="cls-29" d="M561,435.81a7.83,7.83,0,0,1-7.84,7.83V428A7.84,7.84,0,0,1,561,435.81Z" transform="translate(-387.54 -279.66)"/><path class="cls-30" d="M484.72,435.81a7.83,7.83,0,0,0,7.83,7.83V428A7.84,7.84,0,0,0,484.72,435.81Z" transform="translate(-387.54 -279.66)"/><path class="cls-31" d="M521.9,444.78l.21,6.15a2.93,2.93,0,0,0,1.59,2.74c1,.39,1.77,1.85-1.38,6.78,0,0-.26.52,0,.74" transform="translate(-387.54 -279.66)"/><path class="cls-32" d="M512.1,489.29a57.37,57.37,0,0,1-5,14.67s0,0,0,0a37.57,37.57,0,0,1-7.71,10.69H475.58V496.19s-1.14-5.2,5.94-7c4.18-1,14.07-.83,21.48-.49C508.15,489,512.1,489.29,512.1,489.29Z" transform="translate(-387.54 -279.66)"/><path class="cls-33" d="M569.57,496.46v18.21H545.73c-9.66-8.9-12.22-24.24-12.4-25.38,0,0,0-.05,0-.06h0c.48,0,4.23-.31,9-.52,7.35-.32,17.14-.5,21.32.52C570.79,491,569.57,496.46,569.57,496.46Z" transform="translate(-387.54 -279.66)"/><path class="cls-34" d="M558.9,514.67H534.66a56.45,56.45,0,0,1-1.35-25.38.13.13,0,0,1,0-.06h0l3.62-1.11a21.68,21.68,0,0,1,5.39.59,14.31,14.31,0,0,1,1.86.59,6.88,6.88,0,0,1,4.19,3.79c2.55,6.82,4.36,11.4,13.16,13.16C569.84,507.88,564.8,512.74,558.9,514.67Z" transform="translate(-387.54 -279.66)"/><path class="cls-35" d="M512.72,506.54a1,1,0,0,1,0,.16c-.11.84-.25,1.66-.39,2.47-.36,1.9-.79,3.74-1.28,5.5H486.65c-5.89-1.93-10.93-6.79-2.68-8.43,6.3-1.26,9-4,11-7.92.05-.08.09-.16.13-.24.73-1.5,1.36-3.17,2.05-5a6.89,6.89,0,0,1,4.18-3.79,14.49,14.49,0,0,1,1.69-.55,22,22,0,0,1,5.57-.63l3.82,1.18A54,54,0,0,1,512.72,506.54Z" transform="translate(-387.54 -279.66)"/><path class="cls-27" d="M501.81,431a1.26,1.26,0,0,1-1-2.06,10,10,0,0,1,14-1.54,1.27,1.27,0,1,1-1.59,2,7.43,7.43,0,0,0-10.44,1.15A1.26,1.26,0,0,1,501.81,431Z" transform="translate(-387.54 -279.66)"/><path class="cls-27" d="M542.13,430.59a1.25,1.25,0,0,1-.94-.42,7.43,7.43,0,0,0-10.49-.46,1.27,1.27,0,0,1-1.72-1.87,10,10,0,0,1,14.08.62,1.26,1.26,0,0,1-.08,1.79A1.23,1.23,0,0,1,542.13,430.59Z" transform="translate(-387.54 -279.66)"/><path class="cls-5" d="M495.21,392.58a.42.42,0,0,1-.43-.42,7.43,7.43,0,0,1,7.43-7.43.43.43,0,0,1,0,.85,6.59,6.59,0,0,0-6.58,6.58A.42.42,0,0,1,495.21,392.58Z" transform="translate(-387.54 -279.66)"/><rect class="cls-36" x="118.41" y="155.07" width="6.24" height="9.07" rx="3.12"/><rect class="cls-37" x="145.67" y="155.07" width="6.24" height="9.07" rx="3.12"/><ellipse class="cls-15" cx="118.95" cy="157.89" rx="1.28" ry="1.25"/><ellipse class="cls-15" cx="145.67" cy="157.89" rx="1.28" ry="1.25"/><path class="cls-31" d="M516,468.51s6,3.74,11.82,0" transform="translate(-387.54 -279.66)"/><rect class="cls-38" x="107.55" y="153.17" width="22.72" height="13.24" rx="2.85"/><rect class="cls-38" x="139.1" y="153.17" width="22.72" height="13.24" rx="2.85"/><path class="cls-39" d="M514,432.83h16.38a3.83,3.83,0,0,0-3.77,2.62h-8.84S517.69,432.83,514,432.83Z" transform="translate(-387.54 -279.66)"/><path class="cls-40" d="M557.07,425.68l-11.48,7.15s2.27.18,3.12,1.66l12-7.62S559.75,425.05,557.07,425.68Z" transform="translate(-387.54 -279.66)"/><path class="cls-40" d="M490.31,426.14l7.23,6.69s-2.27.18-3.12,1.66l-7.79-7.17S487.62,425.51,490.31,426.14Z" transform="translate(-387.54 -279.66)"/><path class="cls-41" d="M562.79,415.27a7.32,7.32,0,0,0-2-13.72,10.42,10.42,0,0,0-.63-.95,4.15,4.15,0,0,0-1.58-5.91,6.44,6.44,0,0,0-9.65-7.93A12.29,12.29,0,0,0,536,381.24c0-.09,0-.17,0-.26a4.17,4.17,0,0,0-7.08-3,12.3,12.3,0,0,0-12.68-3.24,4.18,4.18,0,0,0-7.06,3c0,.09,0,.19,0,.28a4.18,4.18,0,0,0-5.68,3.9v0c-.25,0-.49,0-.74,0a12.31,12.31,0,0,0-12.09,10l-.23,0a4.19,4.19,0,0,0-4.05,3.16,2.66,2.66,0,0,0-1.23-.3,2.74,2.74,0,0,0-1.81,4.81,14.5,14.5,0,0,0,.67,20.07,4.18,4.18,0,0,0,1.14,8.2h0a6.45,6.45,0,0,0,12.87-.56,6.33,6.33,0,0,0-1.24-3.77,14.5,14.5,0,0,0,8.2-4.67,6.44,6.44,0,0,0,7.17,0,14.46,14.46,0,0,0,19.38-.7A6.44,6.44,0,0,0,536,420a6.92,6.92,0,0,0,1-.09,12.33,12.33,0,0,0,11.82,8.85,11.83,11.83,0,0,0,1.47-.1,6.44,6.44,0,0,0,12.75-1.33,6.36,6.36,0,0,0-1.6-4.23,4.17,4.17,0,0,0,1.3-7.81Z" transform="translate(-387.54 -279.66)"/><path class="cls-5" d="M522.34,420.06a10.51,10.51,0,0,1-7.5-3.11.42.42,0,0,1,0-.59.42.42,0,0,1,.6,0,9.78,9.78,0,0,0,13.8,0,.42.42,0,0,1,.6,0,.42.42,0,0,1,0,.59A10.53,10.53,0,0,1,522.34,420.06Z" transform="translate(-387.54 -279.66)"/><path class="cls-5" d="M547,425.78a7,7,0,0,1-3.47-.91,7.14,7.14,0,0,1-3.41-4.29.44.44,0,0,1,.3-.53.43.43,0,0,1,.52.29,6.3,6.3,0,0,0,7.8,4.35.42.42,0,0,1,.52.3.42.42,0,0,1-.29.52A7.37,7.37,0,0,1,547,425.78Z" transform="translate(-387.54 -279.66)"/><path class="cls-5" d="M491.31,432.76a5.13,5.13,0,0,1-2.05-.43.42.42,0,0,1-.22-.55.41.41,0,0,1,.56-.22,4.34,4.34,0,0,0,5.69-2.26.41.41,0,0,1,.56-.22.42.42,0,0,1,.22.55A5.19,5.19,0,0,1,491.31,432.76Z" transform="translate(-387.54 -279.66)"/><path class="cls-5" d="M556.83,432.89a5.33,5.33,0,0,1-1.62-.26.43.43,0,0,1-.27-.54.44.44,0,0,1,.54-.27,4.32,4.32,0,0,0,5.46-2.77.43.43,0,1,1,.81.27,5.18,5.18,0,0,1-4.92,3.57Z" transform="translate(-387.54 -279.66)"/><path class="cls-5" d="M486,416.08a.42.42,0,0,1-.3-.12,10.6,10.6,0,0,1,0-15,.42.42,0,0,1,.6.6,9.75,9.75,0,0,0,0,13.8.43.43,0,0,1,0,.6A.46.46,0,0,1,486,416.08Z" transform="translate(-387.54 -279.66)"/></svg>