<svg id="TUG_test_uitvoering" data-name="TUG test uitvoering" xmlns="http://www.w3.org/2000/svg" xmlns:xlink="http://www.w3.org/1999/xlink" viewBox="0 0 303.03 197.04"><defs><style>.cls-1{fill:url(#linear-gradient);}.cls-2{fill:#27aae1;}.cls-3{fill:#f8b133;}.cls-10,.cls-11,.cls-12,.cls-4,.cls-5,.cls-6,.cls-7,.cls-8,.cls-9{fill:#a2def9;}.cls-35,.cls-5{opacity:0.5;}.cls-33,.cls-6{stroke:#fcea0d;stroke-width:2.64px;}.cls-10,.cls-11,.cls-33,.cls-34,.cls-36,.cls-37,.cls-38,.cls-39,.cls-42,.cls-43,.cls-44,.cls-59,.cls-6,.cls-60,.cls-7,.cls-75,.cls-8,.cls-9{stroke-miterlimit:10;}.cls-34,.cls-7{stroke:#f5f5f5;}.cls-11,.cls-12,.cls-20,.cls-34,.cls-36,.cls-37,.cls-38,.cls-39,.cls-42,.cls-44,.cls-45,.cls-47,.cls-58,.cls-63,.cls-64,.cls-7,.cls-8,.cls-88,.cls-9{stroke-linecap:round;}.cls-11,.cls-34,.cls-42,.cls-44,.cls-45,.cls-58,.cls-59,.cls-60,.cls-7{stroke-width:0.44px;}.cls-36,.cls-37,.cls-8{stroke:#dbddde;}.cls-10,.cls-36,.cls-37,.cls-38,.cls-39,.cls-43,.cls-8,.cls-9{stroke-width:0.88px;}.cls-38,.cls-9{stroke:#260340;}.cls-10,.cls-20,.cls-43{stroke:#f8b133;}.cls-11,.cls-44{stroke:#1d70b7;}.cls-12,.cls-47,.cls-75{stroke:#a2def9;}.cls-12,.cls-20,.cls-45,.cls-47,.cls-58,.cls-63,.cls-64,.cls-88{stroke-linejoin:round;}.cls-12,.cls-47{stroke-width:0.22px;stroke-dasharray:2.64;}.cls-13{fill:#fff;}.cls-14{fill:url(#Naamloos_verloop_98);}.cls-15{fill:url(#linear-gradient-2);}.cls-16{fill:url(#linear-gradient-3);}.cls-17{fill:url(#linear-gradient-4);}.cls-18{fill:url(#Naamloos_verloop_98-2);}.cls-19{fill:url(#Naamloos_verloop_98-3);}.cls-20,.cls-33,.cls-34,.cls-37,.cls-39,.cls-42,.cls-43,.cls-44,.cls-45,.cls-46,.cls-47,.cls-58,.cls-59,.cls-63,.cls-64,.cls-75,.cls-88{fill:none;}.cls-20{stroke-width:2.35px;}.cls-21{fill:#ef4136;}.cls-22{fill:#534741;}.cls-23{fill:#4d4d4d;}.cls-24{fill:url(#Naamloos_verloop_45);}.cls-25{fill:#f29100;}.cls-26{fill:#35a8e0;}.cls-27{fill:#e84e1b;}.cls-28{fill:url(#linear-gradient-5);}.cls-29{fill:url(#Naamloos_verloop_3);}.cls-30{fill:url(#linear-gradient-6);}.cls-31{fill:url(#linear-gradient-7);}.cls-32,.cls-35,.cls-36{fill:#160031;}.cls-38{fill:#1d70b7;}.cls-39{stroke:#955d61;}.cls-40{fill:url(#Naamloos_verloop_65);}.cls-41{fill:url(#Naamloos_verloop_64);}.cls-42,.cls-45{stroke:#e84e1b;}.cls-48{fill:#260340;}.cls-49{fill:#391763;}.cls-50{fill:url(#linear-gradient-8);}.cls-51,.cls-60{fill:#897cba;}.cls-52{fill:url(#linear-gradient-9);}.cls-53{fill:url(#Naamloos_verloop_2);}.cls-54{fill:url(#Naamloos_verloop_2-2);}.cls-55{fill:url(#linear-gradient-10);}.cls-56{fill:url(#linear-gradient-11);}.cls-57{fill:url(#linear-gradient-12);}.cls-58,.cls-59,.cls-60,.cls-88{stroke:#897cba;}.cls-61{fill:url(#linear-gradient-13);}.cls-62{fill:#f8dcb2;}.cls-63,.cls-64{stroke-width:3px;}.cls-63{stroke:url(#Naamloos_verloop_28);}.cls-64{stroke:url(#Naamloos_verloop_28-2);}.cls-65{fill:url(#linear-gradient-14);}.cls-66{fill:url(#linear-gradient-15);}.cls-67{fill:url(#linear-gradient-16);}.cls-68{fill:url(#Naamloos_verloop_28-3);}.cls-69{fill:url(#linear-gradient-17);}.cls-70{fill:url(#linear-gradient-18);}.cls-71{fill:url(#Naamloos_verloop_28-4);}.cls-72{fill:url(#linear-gradient-19);}.cls-73{fill:url(#Naamloos_verloop_28-5);}.cls-74{fill:url(#linear-gradient-20);}.cls-75{stroke-width:0.25px;stroke-dasharray:2;}.cls-76{fill:url(#Naamloos_verloop_2-3);}.cls-77{fill:url(#linear-gradient-21);}.cls-78{fill:url(#Naamloos_verloop_3-2);}.cls-79{fill:url(#linear-gradient-22);}.cls-80{fill:url(#linear-gradient-23);}.cls-81{fill:url(#linear-gradient-24);}.cls-82{fill:url(#Naamloos_verloop_65-2);}.cls-83{fill:url(#Naamloos_verloop_64-2);}.cls-84{fill:url(#linear-gradient-25);}.cls-85{fill:url(#linear-gradient-26);}.cls-86{fill:url(#linear-gradient-27);}.cls-87{fill:#dbddde;}.cls-88{stroke-width:0.28px;}.cls-89{fill:url(#linear-gradient-28);}.cls-90{fill:url(#linear-gradient-29);}.cls-91{fill:url(#Naamloos_verloop_2-4);}.cls-92{fill:url(#linear-gradient-30);}.cls-93{fill:url(#Naamloos_verloop_28-6);}.cls-94{fill:url(#linear-gradient-31);}.cls-95{fill:url(#linear-gradient-32);}</style><linearGradient id="linear-gradient" x1="159.51" y1="69.1" x2="159.51" y2="228.21" gradientUnits="userSpaceOnUse"><stop offset="0" stop-color="#65c8d0"/><stop offset="0.16" stop-color="#64c4ce"/><stop offset="0.32" stop-color="#5fb8c8"/><stop offset="0.48" stop-color="#58a4be"/><stop offset="0.65" stop-color="#4e87af"/><stop offset="0.81" stop-color="#40639d"/><stop offset="0.97" stop-color="#303787"/><stop offset="1" stop-color="#2d2e82"/></linearGradient><linearGradient id="Naamloos_verloop_98" x1="144.76" y1="34.12" x2="162.58" y2="34.12" gradientTransform="translate(-4.85 57.55) rotate(-6.25)" gradientUnits="userSpaceOnUse"><stop offset="0" stop-color="#35a8e0"/><stop offset="0.08" stop-color="#3496d2"/><stop offset="0.27" stop-color="#3171b6"/><stop offset="0.46" stop-color="#2f549f"/><stop offset="0.64" stop-color="#2e3f8f"/><stop offset="0.83" stop-color="#2d3285"/><stop offset="1" stop-color="#2d2e82"/></linearGradient><linearGradient id="linear-gradient-2" x1="173.28" y1="21.64" x2="165.78" y2="15.13" gradientTransform="translate(-4.85 57.55) rotate(-6.25)" gradientUnits="userSpaceOnUse"><stop offset="0" stop-color="#35a8e0"/><stop offset="0.14" stop-color="#3494d1"/><stop offset="0.54" stop-color="#305da6"/><stop offset="0.84" stop-color="#2e3b8c"/><stop offset="1" stop-color="#2d2e82"/></linearGradient><linearGradient id="linear-gradient-3" x1="169.72" y1="9.49" x2="161.13" y2="9.5" gradientTransform="translate(-22.58 28.6) rotate(-6.25)" gradientUnits="userSpaceOnUse"><stop offset="0" stop-color="#2d2e82"/><stop offset="0.43" stop-color="#2a1d68"/><stop offset="1" stop-color="#260340"/></linearGradient><linearGradient id="linear-gradient-4" x1="166.42" y1="21.44" x2="154.76" y2="21.8" gradientTransform="translate(-1.7 94.15) rotate(-19.2)" gradientUnits="userSpaceOnUse"><stop offset="0" stop-color="#2d2e82"/><stop offset="0.43" stop-color="#2a1d68"/><stop offset="1" stop-color="#260340"/></linearGradient><linearGradient id="Naamloos_verloop_98-2" x1="152.14" y1="17.96" x2="162.63" y2="17.96" xlink:href="#Naamloos_verloop_98"/><linearGradient id="Naamloos_verloop_98-3" x1="155.54" y1="33.67" x2="166.61" y2="33.67" xlink:href="#Naamloos_verloop_98"/><linearGradient id="Naamloos_verloop_45" x1="258.71" y1="154.64" x2="258.71" y2="114.07" gradientUnits="userSpaceOnUse"><stop offset="0" stop-color="#2d2e82"/><stop offset="0.03" stop-color="#2c2d7d"/><stop offset="0.16" stop-color="#2b276b"/><stop offset="0.29" stop-color="#292460"/><stop offset="0.44" stop-color="#29235c"/></linearGradient><linearGradient id="linear-gradient-5" x1="248.23" y1="91.08" x2="248.23" y2="146.4" gradientUnits="userSpaceOnUse"><stop offset="0" stop-color="#260340"/><stop offset="0.19" stop-color="#2b084a"/><stop offset="0.67" stop-color="#35135c"/><stop offset="1" stop-color="#391763"/></linearGradient><linearGradient id="Naamloos_verloop_3" x1="258.17" y1="141.37" x2="258.17" y2="91.08" gradientUnits="userSpaceOnUse"><stop offset="0.19" stop-color="#35a8e0"/><stop offset="0.31" stop-color="#38a9e1"/><stop offset="0.38" stop-color="#41aee3"/><stop offset="0.45" stop-color="#50b5e6"/><stop offset="0.51" stop-color="#65c0eb"/><stop offset="0.57" stop-color="#80cdf1"/><stop offset="0.62" stop-color="#a2def9"/></linearGradient><linearGradient id="linear-gradient-6" x1="237.47" y1="221.2" x2="249.59" y2="148.64" gradientUnits="userSpaceOnUse"><stop offset="0" stop-color="#35a8e0"/><stop offset="0.67" stop-color="#2f539e"/><stop offset="1" stop-color="#2d2e82"/></linearGradient><linearGradient id="linear-gradient-7" x1="273.36" y1="214.24" x2="273.82" y2="145.64" gradientUnits="userSpaceOnUse"><stop offset="0" stop-color="#35a8e0"/><stop offset="0.07" stop-color="#3499d4"/><stop offset="0.25" stop-color="#3172b7"/><stop offset="0.44" stop-color="#3055a0"/><stop offset="0.62" stop-color="#2e3f8f"/><stop offset="0.8" stop-color="#2d3285"/><stop offset="0.97" stop-color="#2d2e82"/></linearGradient><linearGradient id="Naamloos_verloop_65" x1="243.93" y1="63.3" x2="243.93" y2="67.52" gradientTransform="translate(-10.48 -28.95)" gradientUnits="userSpaceOnUse"><stop offset="0" stop-color="#2d2e82"/><stop offset="0.12" stop-color="#1c2969"/><stop offset="0.26" stop-color="#0c2452"/><stop offset="0.35" stop-color="#06224a"/></linearGradient><linearGradient id="Naamloos_verloop_64" x1="255" y1="63.3" x2="255" y2="67.52" gradientTransform="translate(-10.48 -28.95)" gradientUnits="userSpaceOnUse"><stop offset="0" stop-color="#2d2e82"/><stop offset="0.06" stop-color="#212a71"/><stop offset="0.15" stop-color="#12265b"/><stop offset="0.25" stop-color="#09234e"/><stop offset="0.33" stop-color="#06224a"/></linearGradient><linearGradient id="linear-gradient-8" x1="284.01" y1="202.67" x2="284.31" y2="215.97" gradientUnits="userSpaceOnUse"><stop offset="0.19" stop-color="#897cba"/><stop offset="0.36" stop-color="#7867a8"/><stop offset="0.71" stop-color="#4e317a"/><stop offset="0.87" stop-color="#391763"/></linearGradient><linearGradient id="linear-gradient-9" x1="236.71" y1="210.54" x2="219.76" y2="210.16" gradientUnits="userSpaceOnUse"><stop offset="0.19" stop-color="#897cba"/><stop offset="0.33" stop-color="#8678b7"/><stop offset="0.47" stop-color="#7d6dad"/><stop offset="0.59" stop-color="#6f5b9e"/><stop offset="0.72" stop-color="#5a4187"/><stop offset="0.84" stop-color="#40206b"/><stop offset="0.87" stop-color="#391763"/></linearGradient><linearGradient id="Naamloos_verloop_2" x1="696.88" y1="91.08" x2="696.88" y2="155.14" gradientTransform="matrix(-1, 0, 0, 1, 972.8, 0)" gradientUnits="userSpaceOnUse"><stop offset="0" stop-color="#260340"/><stop offset="0.33" stop-color="#280644"/><stop offset="0.69" stop-color="#2f0d51"/><stop offset="1" stop-color="#391763"/></linearGradient><linearGradient id="Naamloos_verloop_2-2" x1="245.03" y1="91.08" x2="245.03" y2="154.7" gradientTransform="matrix(1, 0, 0, 1, 0, 0)" xlink:href="#Naamloos_verloop_2"/><linearGradient id="linear-gradient-10" x1="270.37" y1="91.08" x2="270.37" y2="146.4" xlink:href="#linear-gradient-5"/><linearGradient id="linear-gradient-11" x1="249.91" y1="89.82" x2="249.91" y2="107.61" gradientUnits="userSpaceOnUse"><stop offset="0.03" stop-color="#2d2e82"/><stop offset="0.14" stop-color="#312779"/><stop offset="0.39" stop-color="#371b69"/><stop offset="0.59" stop-color="#391763"/></linearGradient><linearGradient id="linear-gradient-12" x1="696.23" y1="89.93" x2="696.23" y2="107.53" gradientTransform="matrix(-1, 0, 0, 1, 965.56, 0)" xlink:href="#linear-gradient-11"/><linearGradient id="linear-gradient-13" x1="258.83" y1="59.04" x2="258.83" y2="32.75" gradientUnits="userSpaceOnUse"><stop offset="0" stop-color="#534741"/><stop offset="0.4" stop-color="#746e6b"/><stop offset="0.79" stop-color="#8f8d8c"/><stop offset="1" stop-color="#999"/></linearGradient><linearGradient id="Naamloos_verloop_28" x1="274.67" y1="159.32" x2="320.76" y2="159.32" gradientUnits="userSpaceOnUse"><stop offset="0" stop-color="#f8b133"/><stop offset="0.18" stop-color="#f7ab31"/><stop offset="0.44" stop-color="#f4992d"/><stop offset="0.73" stop-color="#ef7d26"/><stop offset="1" stop-color="#ea5b1d"/></linearGradient><linearGradient id="Naamloos_verloop_28-2" x1="13.08" y1="29.92" x2="24.86" y2="29.92" gradientTransform="matrix(-0.85, -0.53, 0.53, -0.85, 41.67, 78.4)" xlink:href="#Naamloos_verloop_28"/><linearGradient id="linear-gradient-14" x1="68.92" y1="119.5" x2="68.92" y2="161.55" xlink:href="#linear-gradient-5"/><linearGradient id="linear-gradient-15" x1="1158.72" y1="151.85" x2="1158.72" y2="218.13" gradientTransform="translate(-1119.52 135.7) rotate(-8.19)" gradientUnits="userSpaceOnUse"><stop offset="0" stop-color="#260340"/><stop offset="0.13" stop-color="#290645"/><stop offset="1" stop-color="#391763"/></linearGradient><linearGradient id="linear-gradient-16" x1="334.83" y1="-194.15" x2="341.28" y2="-194.15" gradientTransform="translate(171.92 532.82) rotate(-76.86)" gradientUnits="userSpaceOnUse"><stop offset="0.03" stop-color="#2d2e82"/><stop offset="0.17" stop-color="#30297b"/><stop offset="0.65" stop-color="#371c69"/><stop offset="1" stop-color="#391763"/></linearGradient><linearGradient id="Naamloos_verloop_28-3" x1="970.43" y1="160.01" x2="996.28" y2="160.01" gradientTransform="matrix(1, 0, 0, -1, -908.97, 320.02)" xlink:href="#Naamloos_verloop_28"/><linearGradient id="linear-gradient-17" x1="0" y1="120.23" x2="7.13" y2="120.23" gradientTransform="matrix(1, 0, 0, 1, 0, 0)" xlink:href="#linear-gradient-16"/><linearGradient id="linear-gradient-18" x1="34.2" y1="258.02" x2="40.72" y2="258.02" gradientTransform="matrix(0.96, -0.28, -0.28, -0.96, 61.62, 429.17)" xlink:href="#linear-gradient-16"/><linearGradient id="Naamloos_verloop_28-4" x1="21.75" y1="148.89" x2="32.06" y2="148.89" xlink:href="#Naamloos_verloop_28"/><linearGradient id="linear-gradient-19" x1="510.82" y1="-236.24" x2="517.74" y2="-236.24" gradientTransform="translate(-466.66 421.09)" xlink:href="#linear-gradient-16"/><linearGradient id="Naamloos_verloop_28-5" x1="986.23" y1="182.99" x2="1034.65" y2="182.99" gradientTransform="matrix(1, 0, 0, -1, -963.13, 365.99)" xlink:href="#Naamloos_verloop_28"/><linearGradient id="linear-gradient-20" x1="48.24" y1="227.76" x2="47.54" y2="177.35" gradientUnits="userSpaceOnUse"><stop offset="0.03" stop-color="#2d2e82"/><stop offset="0.07" stop-color="#2f2b7e"/><stop offset="0.31" stop-color="#34206f"/><stop offset="0.59" stop-color="#381966"/><stop offset="1" stop-color="#391763"/></linearGradient><linearGradient id="Naamloos_verloop_2-3" x1="52.44" y1="119.27" x2="52.44" y2="119.5" gradientTransform="matrix(1, 0, 0, 1, 0, 0)" xlink:href="#Naamloos_verloop_2"/><linearGradient id="linear-gradient-21" x1="632.68" y1="146.5" x2="584.87" y2="124.06" gradientTransform="matrix(0.06, 1.01, 1, -0.06, -106.49, -425.28)" gradientUnits="userSpaceOnUse"><stop offset="0" stop-color="#35a8e0"/><stop offset="0.05" stop-color="#3498d4"/><stop offset="0.16" stop-color="#3278bb"/><stop offset="0.28" stop-color="#305da6"/><stop offset="0.41" stop-color="#2f4896"/><stop offset="0.55" stop-color="#2e398b"/><stop offset="0.73" stop-color="#2d3184"/><stop offset="1" stop-color="#2d2e82"/></linearGradient><linearGradient id="Naamloos_verloop_3-2" x1="60.74" y1="176.26" x2="60.74" y2="129.67" gradientTransform="matrix(1, -0.05, 0.05, 1, -22.56, -6.92)" xlink:href="#Naamloos_verloop_3"/><linearGradient id="linear-gradient-22" x1="-29.62" y1="163.59" x2="-43.99" y2="163.27" gradientTransform="matrix(-0.93, -0.36, -0.36, 0.93, 106.45, 39.23)" xlink:href="#linear-gradient-9"/><linearGradient id="linear-gradient-23" x1="634.96" y1="145.11" x2="590.39" y2="116.78" gradientTransform="matrix(0.06, 1.01, 1, -0.06, -106.49, -425.28)" xlink:href="#linear-gradient-6"/><linearGradient id="linear-gradient-24" x1="34.08" y1="153.66" x2="34.08" y2="153.66" xlink:href="#linear-gradient-5"/><linearGradient id="Naamloos_verloop_65-2" x1="-167.48" y1="101.98" x2="-167.48" y2="106.2" gradientTransform="matrix(1, 0, 0, -1, 220.97, 197.62)" xlink:href="#Naamloos_verloop_65"/><linearGradient id="Naamloos_verloop_64-2" x1="-156.42" y1="101.98" x2="-156.42" y2="106.2" gradientTransform="matrix(1, 0, 0, -1, 198.85, 198.17)" xlink:href="#Naamloos_verloop_64"/><linearGradient id="linear-gradient-25" x1="63.33" y1="97.73" x2="63.33" y2="71.43" gradientTransform="matrix(1, -0.05, 0.05, 1, -22.56, -6.92)" xlink:href="#linear-gradient-13"/><linearGradient id="linear-gradient-26" x1="-161.51" y1="128.51" x2="-161.51" y2="146.29" gradientTransform="matrix(-1, 0.05, 0.05, 1, -111.71, -2.5)" xlink:href="#linear-gradient-11"/><linearGradient id="linear-gradient-27" x1="-31.15" y1="172.67" x2="-45.51" y2="172.35" gradientTransform="matrix(-0.93, -0.36, -0.36, 0.93, 106.45, 39.23)" xlink:href="#linear-gradient-9"/><linearGradient id="linear-gradient-28" x1="41.06" y1="123.06" x2="41.06" y2="123.09" xlink:href="#linear-gradient-5"/><linearGradient id="linear-gradient-29" x1="71.84" y1="145.94" x2="71.84" y2="161.35" xlink:href="#linear-gradient-5"/><linearGradient id="Naamloos_verloop_2-4" x1="1110.52" y1="129.71" x2="1110.52" y2="196.05" gradientTransform="matrix(1, -0.05, 0.05, 1, -1083.31, 45.68)" xlink:href="#Naamloos_verloop_2"/><linearGradient id="linear-gradient-30" x1="318.68" y1="-214.14" x2="325.14" y2="-214.14" xlink:href="#linear-gradient-16"/><linearGradient id="Naamloos_verloop_28-6" x1="993.57" y1="171.18" x2="1019.43" y2="171.18" gradientTransform="matrix(1, 0, 0, -1, -955.25, 342.36)" xlink:href="#Naamloos_verloop_28"/><linearGradient id="linear-gradient-31" x1="28.79" y1="112.61" x2="28.79" y2="164.98" gradientTransform="matrix(1, 0.04, -0.04, 1, 19.65, 6.73)" xlink:href="#linear-gradient-5"/><linearGradient id="linear-gradient-32" x1="1107.65" y1="128.61" x2="1107.65" y2="146.21" gradientTransform="matrix(1, -0.05, 0.05, 1, -1076.08, 45.32)" xlink:href="#linear-gradient-11"/></defs><path class="cls-1" d="M300.76,210.61c0,4.69-.07,9.74,0,15.38H18.26c0-4,.11-8.47,0-12.44,0-1,0-2,0-2.94C18.26,131.23,82,66.88,160.52,66.88S301.29,131.24,300.76,210.61Z" transform="translate(-17.73 -28.95)"/><path class="cls-2" d="M7.52,183.27H276a7,7,0,0,1,7,7V197a0,0,0,0,1,0,0H.53a0,0,0,0,1,0,0v-6.78A7,7,0,0,1,7.52,183.27Z"/><rect class="cls-3" x="66.74" y="183.27" width="5.11" height="13.77"/><path class="cls-4" d="M81.41,137.46H97.09s3.62,16.88,2.37,30.11c0,.46-.11.92-.19,1.37,0,0-.3,32.71-1.14,42.67-.35,4.12-5.5,3.91-6.14-.28-1.34-8.75-4.19-23.55-2.24-39.36.2-1.63-9.11-11.65-8.34-34.51" transform="translate(-17.73 -28.95)"/><path class="cls-4" d="M83.14,138.86s3.25,22.3,7.4,30c0,0-1.66,17.31,3.44,43.67" transform="translate(-17.73 -28.95)"/><path class="cls-4" d="M68.47,135l15.46,2.65s.71,17.24-2.75,30.07c-.13.45-.27.89-.43,1.32,0,0-5.81,32.19-8.33,41.87-1,4-6.08,2.92-6-1.31.15-8.86-.15-23.93,4.44-39.18.47-1.57-7-13-2.39-35.42" transform="translate(-17.73 -28.95)"/><path class="cls-4" d="M69.75,136.64s.32,25.36,3.11,33.65c0,0-5.44,14-4.87,40.79" transform="translate(-17.73 -28.95)"/><rect class="cls-4" x="67.98" y="59.97" width="2.26" height="2.22" rx="1" transform="translate(120.48 93.21) rotate(-180)"/><rect class="cls-4" x="96.15" y="51.38" width="2.26" height="2.22" rx="1" transform="translate(176.82 76.03) rotate(180)"/><rect class="cls-4" x="65.89" y="30.91" width="27.02" height="26.48" rx="11.92" transform="translate(141.06 59.35) rotate(180)"/><rect class="cls-4" x="90.28" y="42.31" width="10.38" height="10.18" rx="4.58" transform="translate(173.21 65.85) rotate(-180)"/><rect class="cls-4" x="64.89" y="52.49" width="6.62" height="6.48" rx="2.92" transform="translate(118.67 82.51) rotate(180)"/><path class="cls-4" d="M97.4,151.77S87,110.36,62.15,143.5l2.32-32.78,34-3.1Z" transform="translate(-17.73 -28.95)"/><path class="cls-4" d="M66.23,58.52a3.19,3.19,0,0,0,2.88,3.15l.34,0V55.36l-.34,0a3.23,3.23,0,0,0-1.93.9l-.07.08a.86.86,0,0,0-.13.14,2.7,2.7,0,0,0-.45.7A3.08,3.08,0,0,0,66.23,58.52Z" transform="translate(-17.73 -28.95)"/><polygon class="cls-4" points="86.03 112 83.42 111.98 80.95 77.11 80.45 70.13 86.22 70.18 86.19 77.15 86.03 112"/><polygon class="cls-4" points="86.19 77.15 80.95 77.11 80.45 70.13 86.22 70.18 86.19 77.15"/><path class="cls-4" d="M106.31,138.62l-7.37.57L95.19,84.93h0c4.85-.38,7.9,3,8.44,7.71Z" transform="translate(-17.73 -28.95)"/><path class="cls-4" d="M95.06,84.9s1.61,3.66,2.09,15.4c.08,2.16.14,4.59.13,7.32,0,.19,0,.4,0,.61h0c0,.81,0,1.63,0,2.5v0c-.08,5.82-.4,12.86-1.11,21.31,0,.08,0,.18,0,.28s0,0,0,.08c0,.56-.09,1.12-.13,1.7,0,.13,0,.26,0,.39a.13.13,0,0,0,0,.06H70.67v-.07l0-.4-.06-1.73v-.06l0-.31L70.5,130l0-1.46,0-.84v0l-.27-7.17v0l-.51-13.75-.27-7.19-.54-14.58v0Z" transform="translate(-17.73 -28.95)"/><rect class="cls-4" x="53.01" y="105.65" width="26.35" height="2.86"/><path class="cls-4" d="M75.94,79v6.87a5.24,5.24,0,0,0,5.2,5.24h1.73a5.23,5.23,0,0,0,5.19-5.24V79a5.23,5.23,0,0,0-5.19-5.24H81.14A5.24,5.24,0,0,0,75.94,79Z" transform="translate(-17.73 -28.95)"/><path class="cls-4" d="M84.08,125.55" transform="translate(-17.73 -28.95)"/><path class="cls-4" d="M69.11,48.62V68.5l5.21,10.69a13,13,0,0,0,1.62,1.13v2.22a14.17,14.17,0,0,0,7.25,2,13.87,13.87,0,0,0,4.87-.86V81.45h0a13.87,13.87,0,0,0,9.21-13V48.62c0-.44,0-.88-.06-1.31l-.06-.5h0a13,13,0,0,0-.28-1.41,13.34,13.34,0,0,0-2.36-5c-.13-.17-.25-.33-.39-.49a3,3,0,0,0-.25-.28.42.42,0,0,0-.13-.14,4,4,0,0,0-.28-.32,3.68,3.68,0,0,0-.39-.4A14.52,14.52,0,0,0,90.68,37l-.17-.1-.08-.05s0,0-.06,0l-.27-.15a13.59,13.59,0,0,0-1.38-.68l-.55-.22-.1,0c-.4-.13-.79-.26-1.2-.37A12.29,12.29,0,0,0,85,34.93h0c-.25,0-.49-.06-.73-.07s-.67,0-1,0H83l-.72,0h-.41s0,0-.08,0c-.53,0-1.06.15-1.57.25h0a13.49,13.49,0,0,0-1.38.39,8.15,8.15,0,0,0-.83.29h0l-.31.11-.09.05a9.39,9.39,0,0,0-1.31.65l0,0a4.37,4.37,0,0,0-.65.4,12.27,12.27,0,0,0-2,1.49,1.22,1.22,0,0,0-.17.15l-.18.17,0,0c-.27.27-.54.54-.78.83s-.36.43-.53.65a11.24,11.24,0,0,0-.81,1.18l-.07.12c-.06.08-.09.17-.15.24s-.08.17-.13.25-.13.24-.2.36a.43.43,0,0,1,0,.12,3.73,3.73,0,0,0-.16.35,12.87,12.87,0,0,0-.89,2.6,2,2,0,0,1-.06.23c-.07.41-.14.81-.2,1.22v0c0,.23,0,.48,0,.72a.62.62,0,0,0,0,.19C69.11,48.21,69.11,48.41,69.11,48.62Z" transform="translate(-17.73 -28.95)"/><path class="cls-4" d="M69.11,46.41V68.5a13.64,13.64,0,0,0,5.21,10.69,13,13,0,0,0,1.62,1.13,14.21,14.21,0,0,0,12.12,1.13h0a13.87,13.87,0,0,0,9.21-13V46.41c0-.44,0-.88-.06-1.31l-.06-.51h0a14.05,14.05,0,0,0-.28-1.41,13.34,13.34,0,0,0-2.36-5c-.13-.16-.25-.32-.39-.48a2.1,2.1,0,0,0-.25-.28.44.44,0,0,0-.13-.15,2.62,2.62,0,0,0-.28-.3,3.78,3.78,0,0,0-.39-.41,13,13,0,0,0-2.4-1.85.45.45,0,0,0-.17-.11l-.08,0s0,0-.06,0a1.73,1.73,0,0,0-.27-.15,11.77,11.77,0,0,0-1.38-.68c-.18-.08-.37-.15-.55-.21l-.1,0c-.4-.14-.79-.27-1.2-.37A11.23,11.23,0,0,0,85,32.72h0c-.25,0-.49,0-.73-.07a8.61,8.61,0,0,0-1,0H83l-.72,0h-.49c-.53.06-1.06.15-1.57.26h0a13.44,13.44,0,0,0-1.38.38L78,33.6h0l-.31.12-.09.05a12.21,12.21,0,0,0-1.31.64l0,0a5.4,5.4,0,0,0-.65.4,12.33,12.33,0,0,0-2,1.5,1.22,1.22,0,0,0-.17.15l-.18.17s0,0,0,0c-.27.26-.54.54-.78.82s-.36.43-.53.67a9.38,9.38,0,0,0-.81,1.17.75.75,0,0,0-.07.12c-.06.07-.09.17-.15.24s-.08.16-.13.24l-.2.37a.61.61,0,0,1,0,.12,3.54,3.54,0,0,0-.16.34,13.3,13.3,0,0,0-.89,2.6,2.1,2.1,0,0,1-.06.24c-.07.4-.14.81-.2,1.21v0c0,.25,0,.48,0,.73a.65.65,0,0,0,0,.2C69.11,46,69.11,46.19,69.11,46.41Z" transform="translate(-17.73 -28.95)"/><path class="cls-4" d="M89,125.55" transform="translate(-17.73 -28.95)"/><path class="cls-4" d="M86.75,122.45" transform="translate(-17.73 -28.95)"/><path class="cls-4" d="M89.58,125.22" transform="translate(-17.73 -28.95)"/><ellipse class="cls-4" cx="61.07" cy="107.84" rx="0.61" ry="0.6"/><path class="cls-4" d="M85.84,64.36" transform="translate(-17.73 -28.95)"/><path class="cls-4" d="M81.07,53.77a3.88,3.88,0,0,0-5.23,1.43" transform="translate(-17.73 -28.95)"/><rect class="cls-4" x="89.14" y="57.46" width="2.87" height="4.17" rx="1.44" transform="translate(163.41 90.13) rotate(180)"/><rect class="cls-4" x="78.2" y="57.46" width="2.87" height="4.17" rx="1.44" transform="translate(141.54 90.13) rotate(180)"/><path class="cls-4" d="M85.6,62.26s-.22,3.6,1.81,4.73-1.3,2.24-1.3,2.24" transform="translate(-17.73 -28.95)"/><path class="cls-4" d="M89.14,53.77a3.88,3.88,0,0,1,5.23,1.43" transform="translate(-17.73 -28.95)"/><path class="cls-4" d="M66.89,60" transform="translate(-17.73 -28.95)"/><path class="cls-4" d="M98.87,56" transform="translate(-17.73 -28.95)"/><path class="cls-4" d="M68.37,53.22" transform="translate(-17.73 -28.95)"/><path class="cls-4" d="M93,53.79" transform="translate(-17.73 -28.95)"/><ellipse class="cls-4" cx="74.02" cy="29.8" rx="0.59" ry="0.58"/><path class="cls-4" d="M71.53,51.89" transform="translate(-17.73 -28.95)"/><path class="cls-4" d="M84.68,44.15" transform="translate(-17.73 -28.95)"/><ellipse class="cls-4" cx="63.34" cy="29.8" rx="0.59" ry="0.58"/><path class="cls-4" d="M88.67,73.54s-1.6,1-5.65,0" transform="translate(-17.73 -28.95)"/><line class="cls-4" x1="52.78" y1="99.54" x2="52.83" y2="101"/><path class="cls-4" d="M76,84.9H68.8s-5.43,33.12-7.07,58c0,0,8.6,13.73,10.44,7.89,3.2-10.14,2.3-41.93,5-53.49C78.45,91.92,76.08,87.48,76,84.9Z" transform="translate(-17.73 -28.95)"/><path class="cls-4" d="M96.19,84.9c1.34,3.46,2.85,34.22,3.16,66.48a1,1,0,0,1-1.95.39C93.78,142.91,91,111,87.8,97.26c-1.26-5.34.12-9.78.26-12.36Z" transform="translate(-17.73 -28.95)"/><path class="cls-4" d="M88.06,83.66h1.27s3,.79,3.18,2.68c.17,2.42.32,4.06,3,5.45,3.18,1.68-1.1,3-3.29,2.24a1.77,1.77,0,0,0-2.31,1.35l-1.06,5.85S85.45,90.45,88.06,83.66Z" transform="translate(-17.73 -28.95)"/><polygon class="cls-4" points="74.61 105.65 72 103.53 63.38 103.53 61.61 105.65 61.61 109 63.18 110.61 71.84 110.61 74.61 108.44 74.61 105.65"/><path class="cls-4" d="M98.37,100.3a10,10,0,0,1-5.52,0" transform="translate(-17.73 -28.95)"/><rect class="cls-4" x="87.62" y="56.54" width="9.57" height="5.58" rx="1.59" transform="translate(167.09 89.71) rotate(180)"/><rect class="cls-4" x="74.33" y="56.54" width="9.57" height="5.58" rx="1.59" transform="translate(140.5 89.71) rotate(180)"/><path class="cls-4" d="M89.21,56.54h-6.9a1.61,1.61,0,0,1,1.59,1.1h3.72S87.67,56.54,89.21,56.54Z" transform="translate(-17.73 -28.95)"/><path class="cls-4" d="M68.5,54.64l7.42,1.9a1.82,1.82,0,0,0-1.31.69L67,55.14A1.34,1.34,0,0,1,68.5,54.64Z" transform="translate(-17.73 -28.95)"/><path class="cls-4" d="M65,44.11l0-.06a3.79,3.79,0,0,1,.79-.57s0,0,0,0a3.58,3.58,0,0,1-.66-.5,3.2,3.2,0,0,1-.82-1.32l-.08-.32a3.5,3.5,0,0,1-.07-.65,3.17,3.17,0,0,1,1-2.29,3.3,3.3,0,0,1,1.61-.87l.25-.05a2.57,2.57,0,0,1-.2-.72v0a1.94,1.94,0,0,1,0-.49,3.3,3.3,0,0,1,4.43-3,3.26,3.26,0,0,1,3.24-2.65,3.21,3.21,0,0,1,1,.17,3.31,3.31,0,0,1,5.91.13,5.33,5.33,0,0,1,1.88-.36,5.13,5.13,0,0,1,2.08.44,3.26,3.26,0,0,1,1.87-.58,3.3,3.3,0,0,1,2.5,1.14,1.12,1.12,0,0,1,1-.7,1.2,1.2,0,0,1,.82.34,3.35,3.35,0,0,1,4.22.37,3.2,3.2,0,0,1,1,2.29,3.05,3.05,0,0,1-.05.52v0a3.48,3.48,0,0,1-.18.63h.23a5.23,5.23,0,0,1,3.63,1.49A5.08,5.08,0,0,1,101.92,40a3.6,3.6,0,0,1-.06.66,5.1,5.1,0,0,1-3.1,4,2.87,2.87,0,0,1,.39,1.13,2.25,2.25,0,0,1,0,.46v.21a2.48,2.48,0,0,1-.06.54v0l-.29.88a1.61,1.61,0,0,1,.33.2,1.71,1.71,0,0,1,.2.18,2.22,2.22,0,0,1,.67,1.58,2.45,2.45,0,0,1-.1.66h0a2.3,2.3,0,0,1-2.17,1.55A2.47,2.47,0,0,1,97.1,52a2.26,2.26,0,0,1-.93-.55,1.79,1.79,0,0,1-.3-.38,2,2,0,0,1-.26-.51h0a2.45,2.45,0,0,1-.1-.66,1,1,0,0,1,0-.17A3.24,3.24,0,0,1,92.72,48a1.22,1.22,0,0,1-.14-.28,3.35,3.35,0,0,1-.17-.62v0a2.11,2.11,0,0,1,0-.35A7.08,7.08,0,0,1,89.88,49a7,7,0,0,1-3.43.89,7,7,0,0,1-4.78-1.87,1.74,1.74,0,0,1-.14.27,1.13,1.13,0,0,1-.82.48h-.1a1.12,1.12,0,0,1-.85-.39l-.24.24A5,5,0,0,1,75.07,50h0a4.41,4.41,0,0,1,.23,1.36v.09a4.89,4.89,0,0,1,0,.66h0a5,5,0,0,1-1.84,3.26l-.28.2h0a3.31,3.31,0,0,1-2.5,1.87.9.9,0,0,1-.16.36l0,.05a1.12,1.12,0,0,1-1.82,0,1.67,1.67,0,0,1-.12-.23,1.06,1.06,0,0,1-.08-.4.66.66,0,0,1,0-.15,3.31,3.31,0,0,1-1.35-1.47h0a.57.57,0,0,1-.15-.12.91.91,0,0,1-.13-.08c-.12-.1-.25-.22-.37-.34A5,5,0,0,1,65,52.11h0a4.87,4.87,0,0,1,0-.66A4.8,4.8,0,0,1,65.13,50a4.5,4.5,0,0,1,.41-1h0a3.17,3.17,0,0,1-.46-.36A3.32,3.32,0,0,1,64.19,47v0a2.43,2.43,0,0,1-.07-.66A3.22,3.22,0,0,1,65,44.11ZM93.38,44l0,0s0,0,0,0A.06.06,0,0,0,93.38,44Z" transform="translate(-17.73 -28.95)"/><path class="cls-4" d="M100.07,40.07a.22.22,0,0,0,.22-.22,3.66,3.66,0,0,0-3.69-3.62.22.22,0,0,0-.22.22.21.21,0,0,0,.22.21,3.22,3.22,0,0,1,3.25,3.19A.22.22,0,0,0,100.07,40.07Z" transform="translate(-17.73 -28.95)"/><path class="cls-4" d="M86.45,48.64a3.69,3.69,0,0,0,2.61-1.06.22.22,0,0,0,0-.31.23.23,0,0,0-.31,0,3.3,3.3,0,0,1-4.61,0,.22.22,0,1,0-.31.31A3.71,3.71,0,0,0,86.45,48.64Z" transform="translate(-17.73 -28.95)"/><path class="cls-4" d="M97.73,51.47a.22.22,0,0,0,0-.44,1.18,1.18,0,0,1-1.2-1.17.22.22,0,0,0-.44,0A1.63,1.63,0,0,0,97.73,51.47Z" transform="translate(-17.73 -28.95)"/><path class="cls-4" d="M69.71,55.14a3.66,3.66,0,0,0,3.7-3.62.22.22,0,1,0-.44,0,3.23,3.23,0,0,1-3.26,3.19.21.21,0,0,0-.21.21A.21.21,0,0,0,69.71,55.14Z" transform="translate(-17.73 -28.95)"/><path class="cls-4" d="M111.12,215.68a1.76,1.76,0,0,0-2.34-.78" transform="translate(-17.73 -28.95)"/><path class="cls-5" d="M113.8,219.43s-11.12-5.79-15.76-8.52a8.15,8.15,0,0,0-6.85-.43l12.4,7.9Z" transform="translate(-17.73 -28.95)"/><path class="cls-5" d="M103.59,218.38l-12.4-7.9-.76,7.38a.54.54,0,0,0,.55.6Z" transform="translate(-17.73 -28.95)"/><path class="cls-4" d="M113.8,219.43s-11.36-5.21-16-7.93a8.14,8.14,0,0,0-6.85-.43l12.4,7.9Z" transform="translate(-17.73 -28.95)"/><path class="cls-4" d="M106.85,214.15c-3.65-1.83-7.35-4.63-6.51-8.2a1.16,1.16,0,0,0-1-1.44l-4.44-.41a1.12,1.12,0,0,0-1.16,1.52c1.06,2.7,4.11,8,12.24,10.6a.91.91,0,0,0,.32.06h0A1.12,1.12,0,0,0,106.85,214.15Z" transform="translate(-17.73 -28.95)"/><path class="cls-4" d="M103.35,219,91,211.07l-.77,7.38a.56.56,0,0,0,.56.6Z" transform="translate(-17.73 -28.95)"/><path class="cls-4" d="M103.35,219l10.45.46v-.23a6.4,6.4,0,0,0-.06-.88,5.57,5.57,0,0,0-5-5,3.23,3.23,0,0,0-.44,0l-.28,0a4.53,4.53,0,0,0-1.25.33,5.25,5.25,0,0,0-2.44,2.09v0a3.21,3.21,0,0,0-.19.31A6.45,6.45,0,0,0,103.35,219Z" transform="translate(-17.73 -28.95)"/><path class="cls-4" d="M113.8,219.43l.08.78L90,219.93s-.2-2.36.31-2.58c0,0,.07,1.45,13.21,1.23Z" transform="translate(-17.73 -28.95)"/><path class="cls-4" d="M111.72,216.7a3.13,3.13,0,0,0-3.85-2" transform="translate(-17.73 -28.95)"/><path class="cls-4" d="M66.16,221h0a2,2,0,0,1,.1.48v.09l.1-.56.1-.55,0-.2,0-.14h0l0-.27h0l.35-1.94h0l.21-1.18h0l.08-.45-.16-.38h0c-.18-.42-.47-1.14-.78-2s-.64-1.77-.9-2.61c0,0,0,0,0,0A10.12,10.12,0,0,1,65,209.6s0,0,0,0a2.88,2.88,0,0,1,0-.56l-.06.09L63.54,211l-.06.1-.41.55h0l-.34.48a1.1,1.1,0,0,0-.11.52v0l.4,1,0,.09h0Z" transform="translate(-17.73 -28.95)"/><path class="cls-4" d="M66.52,219.84h0a1.15,1.15,0,0,1,0,.26h0a.15.15,0,0,1,0,.06h0a2.53,2.53,0,0,1,0,.28,2.35,2.35,0,0,1-.06.54c0,.12-.07.24-.11.36l.18-.36.26-.54.3-.62h0l1.93-4h0l0-.07,0-.21c0-.06,0-.14,0-.23s0,0,0,0h0c0-.11,0-.23-.06-.38,0-.35-.11-.8-.19-1.31-.41-2.88-1-7.79-.85-9.14h0l-.14.22-.94,1.39,0,0-.08.13L64.91,209l-1.37,2-.06.1-.21.29a2.73,2.73,0,0,0-.08.9h0a2.49,2.49,0,0,0,.17.8c.26.72,2.22,3.37,2.94,5.73h0a4.32,4.32,0,0,1,.12.45l0,.15A2.11,2.11,0,0,1,66.52,219.84Z" transform="translate(-17.73 -28.95)"/><path class="cls-4" d="M68.11,213.77l0,.11a8.89,8.89,0,0,0,.5,1.27c.06.11.12.22.17.33l.11.18c0,.07.08.13.13.19h0c.67,1,1.71,1.84,3.14.89.09-.06.64-.33,1.14-.6h0l.34-.2a2,2,0,0,0,.48-.34s0,0,0-.05a2.78,2.78,0,0,1,0-.68c0-.17,0-.36.08-.55a60.68,60.68,0,0,1,2.23-7.62,1.63,1.63,0,0,0,0-1.19,1.88,1.88,0,0,0-1.71-1.17h-.15l-5.87,0a1.69,1.69,0,0,0-.85.19h0a.44.44,0,0,0-.15.08,1.85,1.85,0,0,0-.8,1h0a1.67,1.67,0,0,0-.12.49s0,0,0,.05v0a2.17,2.17,0,0,0,0,.36,35.73,35.73,0,0,0,.25,3.67A15,15,0,0,0,68.11,213.77Z" transform="translate(-17.73 -28.95)"/><path class="cls-4" d="M66.3,220.46h.54l11.4.11h.13a5,5,0,0,0-.16-1.4,5.49,5.49,0,0,0-.81-1.91,0,0,0,0,1,0,0,5.91,5.91,0,0,0-3.18-2.38.42.42,0,0,0-.15,0h0a6.66,6.66,0,0,0-.8-.17l-.32,0c-.17,0-.33,0-.51,0a6.11,6.11,0,0,0-3.28.92l-.09.06-.13.09a2.16,2.16,0,0,0-.29.21,5.82,5.82,0,0,0-1.68,2h0a4.58,4.58,0,0,0-.41,1s0,0,0,0a2.88,2.88,0,0,0-.11.42s0,0,0,0h0c0,.16-.06.32-.09.47h0l0,.41C66.3,220.31,66.31,220.39,66.3,220.46Z" transform="translate(-17.73 -28.95)"/><polygon class="cls-4" points="48.55 192.68 60.62 192.79 60.63 191.63 48.57 191.51 48.55 192.68"/><path class="cls-4" d="M76.59,218.92a3,3,0,0,0-3.3-2.77" transform="translate(-17.73 -28.95)"/><polygon class="cls-4" points="44.09 112.19 46.7 112.1 48.27 77.17 48.58 70.18 42.82 70.38 43.03 77.36 44.09 112.19"/><polygon class="cls-4" points="43.03 77.36 48.27 77.17 48.58 70.18 42.82 70.38 43.03 77.36"/><path class="cls-4" d="M60.88,151a.89.89,0,0,0,.38.5l.17.08h0a.93.93,0,0,0,.73,0l.1-.05a.85.85,0,0,0,.34-.4A35,35,0,0,0,65,143.19a25.37,25.37,0,0,0,.29-2.64c0-.16,0-.32,0-.48a3.4,3.4,0,0,0-.12-.65l-.06-.21c0-.06,0-.13-.07-.2a.25.25,0,0,0,0-.07l0,0a3.63,3.63,0,0,0-2.41-2h0s0,0,0,0a17.59,17.59,0,0,0-1.26,3c-.07.24-.14.48-.22.73A18.61,18.61,0,0,0,60.88,151Z" transform="translate(-17.73 -28.95)"/><path class="cls-4" d="M63.61,139.5l.31.83.17.49.87,2.37.69,1.88a.7.7,0,0,0,.89.42l.07,0a.68.68,0,0,0,.42-.87L65.34,140l-.21-.56-.07-.19L65,139a.35.35,0,0,0-.07-.12.69.69,0,0,0-.82-.3l-.08,0A.67.67,0,0,0,63.61,139.5Z" transform="translate(-17.73 -28.95)"/><path class="cls-4" d="M62.16,151.55l.09,0c-1.1-2,1-8.48,1-8.55s0-.05,0-.06-.05,0-.07,0C63.09,143.2,61,149.51,62.16,151.55Z" transform="translate(-17.73 -28.95)"/><path class="cls-4" d="M61.26,151.49c-1-2.13-.57-6.94-.55-7.16a.07.07,0,0,1,.06,0,.06.06,0,0,1,0,.06c0,.05-.48,5.18.6,7.23h0Z" transform="translate(-17.73 -28.95)"/><path class="cls-4" d="M61,140.66a3.68,3.68,0,0,0,2.3.38,3.45,3.45,0,0,0,.81-.22,3.63,3.63,0,0,0,1.15-.75l.1-.11-.21-.56-.07-.19L65,139a.35.35,0,0,0-.07-.12,3.63,3.63,0,0,0-2.41-2h0s0,0,0,0a17.59,17.59,0,0,0-1.26,3C61.13,140.17,61.06,140.41,61,140.66Z" transform="translate(-17.73 -28.95)"/><path class="cls-4" d="M59.22,138.87l7.39.38,2.33-54.33h0c-4.86-.26-7.82,3.17-8.24,7.92Z" transform="translate(-17.73 -28.95)"/><path class="cls-4" d="M101.47,151.47a.9.9,0,0,1-.51.38l-.17,0h0a.92.92,0,0,1-.69-.23.27.27,0,0,1-.08-.07.79.79,0,0,1-.21-.48,34.68,34.68,0,0,1-.06-8.26,24,24,0,0,1,.47-2.62c0-.15.09-.31.14-.45a4.2,4.2,0,0,1,.3-.6l.11-.18.13-.16.06-.07,0,0a3.65,3.65,0,0,1,2.88-1.27h0a0,0,0,0,1,0,0,18.69,18.69,0,0,1,.36,3.27v.76A18.45,18.45,0,0,1,101.47,151.47Z" transform="translate(-17.73 -28.95)"/><path class="cls-4" d="M102.07,139.68l-.52.71-.31.42-1.5,2-1.18,1.62a.72.72,0,0,1-1,.15l-.06-.05a.68.68,0,0,1-.16-.95l2.93-4,.35-.48.12-.17.12-.16a.47.47,0,0,1,.1-.1.69.69,0,0,1,.87,0l.07,0A.68.68,0,0,1,102.07,139.68Z" transform="translate(-17.73 -28.95)"/><path class="cls-4" d="M100.09,151.65a.27.27,0,0,1-.08-.07c1.62-1.61,1.41-8.41,1.41-8.48s0,0,.06-.06a.06.06,0,0,1,0,.06C101.54,143.38,101.75,150,100.09,151.65Z" transform="translate(-17.73 -28.95)"/><path class="cls-4" d="M101,151.85c1.58-1.76,2.5-6.51,2.54-6.72a.07.07,0,0,0,0-.06.06.06,0,0,0-.07,0c0,.06-1,5.12-2.6,6.77h0Z" transform="translate(-17.73 -28.95)"/><path class="cls-4" d="M104.27,141.53a3.75,3.75,0,0,1-3-.72,3.82,3.82,0,0,1-.89-1l-.06-.13.35-.48.12-.17.12-.16a.47.47,0,0,1,.1-.1,3.65,3.65,0,0,1,2.88-1.27h0a0,0,0,0,1,0,0,18.69,18.69,0,0,1,.36,3.27Z" transform="translate(-17.73 -28.95)"/><path class="cls-4" d="M75.92,83.77H74.65s-3.05.78-3.18,2.67c-.17,2.43-.32,4.06-3,5.46-3.18,1.67,1.1,3,3.29,2.23,1-.34,1.57.36,2.32,1.35l2.12,5.68S80.21,92.22,75.92,83.77Z" transform="translate(-17.73 -28.95)"/><polygon class="cls-4" points="81.1 96.27 81.21 110.25 88.58 109.67 87.8 96.27 81.1 96.27"/><rect class="cls-3" x="235.25" y="183.27" width="5.11" height="13.77"/><rect class="cls-4" x="215.45" y="63.91" width="2.29" height="2.24" rx="1.01" transform="translate(415.45 101.12) rotate(-180)"/><rect class="cls-4" x="243.96" y="55.22" width="2.29" height="2.24" rx="1.01" transform="translate(472.47 83.74) rotate(180)"/><rect class="cls-4" x="213.33" y="34.5" width="27.35" height="26.8" rx="12.06" transform="translate(436.27 66.85) rotate(180)"/><rect class="cls-4" x="238.02" y="46.04" width="10.51" height="10.3" rx="4.64" transform="translate(468.82 73.44) rotate(-180)"/><rect class="cls-4" x="212.33" y="56.34" width="6.7" height="6.56" rx="2.95" transform="translate(413.61 90.3) rotate(180)"/><path class="cls-4" d="M252,152.14s-17.2-33-42.39.57l2.3-37.43,34.45-3.14Z" transform="translate(-17.73 -28.95)"/><path class="cls-4" d="M213.68,62.45a3.23,3.23,0,0,0,2.91,3.18l.35,0v-6.4l-.35,0a3.16,3.16,0,0,0-1.94.91l-.08.08a.86.86,0,0,0-.13.14,2.94,2.94,0,0,0-.45.71A3,3,0,0,0,213.68,62.45Z" transform="translate(-17.73 -28.95)"/><polygon class="cls-4" points="218.79 117.07 216.26 116.31 223.7 81.72 225.19 74.8 230.78 76.47 228.78 83.24 218.79 117.07"/><polygon class="cls-4" points="228.78 83.24 223.7 81.72 225.19 74.8 230.78 76.47 228.78 83.24"/><path class="cls-4" d="M234.92,155.9a.9.9,0,0,1-.51.4l-.18,0h0a.94.94,0,0,1-.71-.21l-.08-.07a.87.87,0,0,1-.23-.48,35.26,35.26,0,0,1-.29-8.36c.09-.88.22-1.77.4-2.66,0-.16.08-.32.13-.47a4.85,4.85,0,0,1,.29-.61,1.74,1.74,0,0,1,.11-.18l.12-.17.06-.07,0,0a3.69,3.69,0,0,1,2.88-1.36h0a0,0,0,0,1,0,0,17.81,17.81,0,0,1,.45,3.3c0,.25,0,.5,0,.77A18.79,18.79,0,0,1,234.92,155.9Z" transform="translate(-17.73 -28.95)"/><path class="cls-4" d="M235.19,144l-.51.74-.29.43-1.47,2.1-1.15,1.67a.72.72,0,0,1-1,.18l-.07,0a.67.67,0,0,1-.18-1l2.84-4.1.35-.5.12-.17.11-.17a.52.52,0,0,1,.1-.11.71.71,0,0,1,.88-.07l.07,0A.68.68,0,0,1,235.19,144Z" transform="translate(-17.73 -28.95)"/><path class="cls-4" d="M233.52,156.13l-.08-.07c1.6-1.68,1.2-8.55,1.19-8.63a0,0,0,0,1,.05-.05.06.06,0,0,1,.06.05C234.76,147.72,235.15,154.42,233.52,156.13Z" transform="translate(-17.73 -28.95)"/><path class="cls-4" d="M234.41,156.3c1.55-1.83,2.35-6.65,2.38-6.87a.07.07,0,0,0,0-.06.06.06,0,0,0-.06,0c0,.05-.86,5.2-2.45,6.92h0Z" transform="translate(-17.73 -28.95)"/><path class="cls-4" d="M237.47,145.77a3.76,3.76,0,0,1-2.35-.22,3.77,3.77,0,0,1-1.67-1.46.75.75,0,0,0-.07-.12l.35-.5.12-.17.11-.17a.52.52,0,0,1,.1-.11,3.69,3.69,0,0,1,2.88-1.36h0a0,0,0,0,1,0,0,17.81,17.81,0,0,1,.45,3.3C237.46,145.25,237.46,145.5,237.47,145.77Z" transform="translate(-17.73 -28.95)"/><path class="cls-4" d="M239.65,144.47l-7.32-1.53L244,89.15h0c4.82,1,6.84,5.12,6,9.88Z" transform="translate(-17.73 -28.95)"/><path class="cls-4" d="M244,89.15s1.69,3.7,2.2,15.58c.09,2.19.15,4.65.14,7.41,0,.2,0,.41,0,.62h0c0,.82,0,1.65,0,2.53v0c-.09,5.89-.43,13-1.18,21.56,0,.09,0,.19,0,.29s0,0,0,.08c0,.57-.09,1.14-.14,1.73,0,.12,0,.26,0,.39a.13.13,0,0,0,0,.06H218.25v-.07l0-.4-.06-1.76v-.06l0-.32-.08-2.1,0-1.48,0-.85v0l-.29-7.26v0l-.54-13.91-.28-7.28-.57-14.75v0Z" transform="translate(-17.73 -28.95)"/><path class="cls-4" d="M244.92,142.34l7.24,24.7c.13.45.25.9.34,1.36l9.43,43.69h0c-3,2.93-3.65,5.77-5.86,2.1-4.62-7.68-13.4-23.44-13.4-40.14,0-1.67-10.34-10.75-14.59-31.71Z" transform="translate(-17.73 -28.95)"/><path class="cls-4" d="M198.83,210.75l.14,0a6.78,6.78,0,0,0,1.66.17h.69c1.11,0,2.37-.15,3.56-.21l.42-1.91a2.63,2.63,0,0,1,.3-.79l3.22-5.28.34-.56,16-26.18L234,142.34h-1.05v.36a.11.11,0,0,1-.11.11.11.11,0,0,1-.11-.1v-.37H218.25c-6.19,7-4.35,30.09-4.63,30.42-1.84,2.33-7.78,18.32-12.15,28.57l-.25.61c-.1.2-.18.4-.26.6a0,0,0,0,1,0,0l-.2.47s0,0,0,0v0h0c0,.11-.1.22-.15.33-.78,1.78-1.49,3.3-2.09,4.43a.52.52,0,0,1-.07.11s0,0,0,0-.09.18-.13.26C197.43,209.73,197.81,210.45,198.83,210.75Z" transform="translate(-17.73 -28.95)"/><rect class="cls-4" x="200.52" y="110.5" width="26.67" height="2.9"/><path class="cls-4" d="M223.51,83.17v7a5.3,5.3,0,0,0,5.26,5.31h1.75a5.29,5.29,0,0,0,5.25-5.31v-7a5.29,5.29,0,0,0-5.25-5.31h-1.75A5.3,5.3,0,0,0,223.51,83.17Z" transform="translate(-17.73 -28.95)"/><path class="cls-6" d="M231.75,130.29" transform="translate(-17.73 -28.95)"/><path class="cls-4" d="M216.59,52.43V72.54l5.27,10.83a14.64,14.64,0,0,0,1.65,1.14v2.24a14.44,14.44,0,0,0,12.26,1.15V85.65h0a14,14,0,0,0,9.33-13.11V52.43A11.73,11.73,0,0,0,245,51.1c0-.17,0-.34-.06-.51h0a11.14,11.14,0,0,0-.28-1.42,13.55,13.55,0,0,0-2.39-5c-.13-.17-.26-.33-.4-.49a3,3,0,0,0-.24-.28,1.53,1.53,0,0,0-.13-.15c-.09-.11-.19-.21-.29-.31a3.89,3.89,0,0,0-.4-.41,13.58,13.58,0,0,0-2.43-1.88.86.86,0,0,0-.16-.1l-.09-.06,0,0-.29-.15a15,15,0,0,0-1.39-.69l-.55-.22-.11,0c-.4-.14-.8-.26-1.21-.38a12.67,12.67,0,0,0-1.95-.37h0c-.26,0-.5-.06-.74-.07s-.68,0-1,0h-.23l-.73,0h-.41a.11.11,0,0,1-.08,0c-.54,0-1.07.15-1.59.25h0a11.2,11.2,0,0,0-1.4.4c-.28.08-.56.18-.84.29h0a2,2,0,0,0-.31.12l-.1,0a11.61,11.61,0,0,0-1.32.66l-.05,0c-.23.12-.44.26-.66.4a12.69,12.69,0,0,0-2,1.51.88.88,0,0,0-.17.16l-.18.17,0,0c-.27.27-.54.55-.78.84s-.37.43-.55.66a11.88,11.88,0,0,0-.81,1.19.83.83,0,0,0-.07.13,1.94,1.94,0,0,0-.15.24,2,2,0,0,0-.13.25,3.22,3.22,0,0,0-.2.37l-.06.12a3.73,3.73,0,0,0-.16.35,12.56,12.56,0,0,0-.9,2.63l-.06.23c-.08.41-.15.83-.2,1.24v0c0,.24,0,.49-.05.73a.65.65,0,0,0,0,.2C216.59,52,216.59,52.22,216.59,52.43Z" transform="translate(-17.73 -28.95)"/><path class="cls-4" d="M216.59,50.19V72.54a13.85,13.85,0,0,0,5.27,10.83,14.64,14.64,0,0,0,1.65,1.14,14.29,14.29,0,0,0,12.26,1.14h0a14,14,0,0,0,9.33-13.11V50.19a11.73,11.73,0,0,0-.07-1.33c0-.17,0-.33-.06-.51h0a12,12,0,0,0-.28-1.43,13.5,13.5,0,0,0-2.39-5c-.13-.16-.26-.33-.4-.49l-.24-.28a.87.87,0,0,0-.13-.15l-.29-.31c-.13-.14-.26-.28-.4-.41a13.58,13.58,0,0,0-2.43-1.88.91.91,0,0,0-.16-.11l-.09-.05s0,0,0,0-.18-.11-.29-.16a12.84,12.84,0,0,0-1.39-.69l-.55-.21-.11-.05c-.4-.14-.8-.27-1.21-.37a12.68,12.68,0,0,0-1.95-.38h0l-.74-.07c-.34,0-.68,0-1,0h-.23l-.73,0h-.49a13.87,13.87,0,0,0-1.59.26h0a13.12,13.12,0,0,0-1.4.38l-.84.29h0a2,2,0,0,1-.31.12l-.1,0a13.54,13.54,0,0,0-1.32.66l-.05,0a6.55,6.55,0,0,0-.66.41,12.16,12.16,0,0,0-2,1.52.5.5,0,0,0-.17.15l-.18.17s0,0,0,0a10.34,10.34,0,0,0-.78.84c-.19.21-.37.43-.55.67a10.7,10.7,0,0,0-.81,1.18l-.07.12c-.06.08-.1.17-.15.25s-.09.17-.13.24l-.2.37a.67.67,0,0,1-.06.12c-.06.12-.11.23-.16.35a12.85,12.85,0,0,0-.9,2.64c0,.07,0,.16-.06.24-.08.4-.15.81-.2,1.22v0c0,.25,0,.49-.05.74a.65.65,0,0,0,0,.2C216.59,49.77,216.59,50,216.59,50.19Z" transform="translate(-17.73 -28.95)"/><path class="cls-6" d="M236.76,130.29" transform="translate(-17.73 -28.95)"/><path class="cls-7" d="M234.45,127.15" transform="translate(-17.73 -28.95)"/><path class="cls-7" d="M237.31,130" transform="translate(-17.73 -28.95)"/><path class="cls-4" d="M195.37,208.87v0a5.94,5.94,0,0,0,.22,1c.38,1.08,1.93,6.66,1.84,7.74l0,.13h0l.26-.7.14-.39h0l.13-.32h0l0,0h0l.18-.49v0l.59-1.57h0l.51-1.36h0l.08-.23s-.18-.77-.37-1.83c-.18-.86-.37-1.92-.5-2.92-.08-.58-.14-1.13-.16-1.62a0,0,0,0,1,0,0c0-.17,0-.34,0-.49a.53.53,0,0,1,0-.13l-1.74,1.8-.08.08-.5.48h0l-.43.41A1.11,1.11,0,0,0,195.37,208.87Z" transform="translate(-17.73 -28.95)"/><path class="cls-4" d="M196,208h0a3.53,3.53,0,0,0,0,.65h0l0,.18c.14.82,1.82,4.2,1.95,6.77a5.61,5.61,0,0,1,0,.58v0s0,0,0,0h0a.49.49,0,0,1,0,.12h0a1.86,1.86,0,0,1,0,.34h0a2.47,2.47,0,0,1-.19.6,1.15,1.15,0,0,1-.12.25l.18-.24.13-.19,0-.06h0l.23-.31h0l2.61-3.61.26-.36.17-.22h0l0-.06s0-.07,0-.21,0-.73,0-1.34c.09-2.39.27-6.95.62-9.08a.78.78,0,0,0,0-.14,6.32,6.32,0,0,1,.17-.69h0l-.87.91c-.1.2-.18.4-.26.6a0,0,0,0,1,0,0,2,2,0,0,0-.2.47s0,0,0,0v0h0l-.11.12-2.29,2.37-1.74,1.8-.08.08Z" transform="translate(-17.73 -28.95)"/><path class="cls-4" d="M200.25,207.14a15.25,15.25,0,0,0,.41,3.29,4.29,4.29,0,0,0,.07.52,8.15,8.15,0,0,0,.39,1.39,1.89,1.89,0,0,0,.09.21h0a.33.33,0,0,0,.06.1h0s0,0,0,0a1.63,1.63,0,0,0,.09.19,2,2,0,0,0,2.82,1.13c.09,0,.67-.21,1.2-.39h0c.49-.17,1-.33,1-.44s0,0,0-.09h0a3.85,3.85,0,0,1,.14-.57,52.54,52.54,0,0,1,3.76-7.73,1.41,1.41,0,0,0,.2-.55,1.89,1.89,0,0,0-1.5-1.47l-.15,0,.34-.56a1.06,1.06,0,0,0-.19-.06L203,201a1.85,1.85,0,0,0-.88,0h0l-.87.91c-.1.2-.18.4-.26.6a0,0,0,0,1,0,0,2,2,0,0,0-.2.47s0,0,0,0v0h0l-.11.12a1.55,1.55,0,0,0,0,.21A22.57,22.57,0,0,0,200.25,207.14Z" transform="translate(-17.73 -28.95)"/><path class="cls-4" d="M197.64,216.65h0l.15,0h0l.08,0h.15l.12,0,.41.07,11.06,2.09a5.2,5.2,0,0,0,.09-.77,5.52,5.52,0,0,0-.46-2.05v0a6,6,0,0,0-2.75-2.93,5,5,0,0,1,.19-.54l-.19-.1a5.56,5.56,0,0,0-.9-.39l-.31-.1-.5-.12a6.15,6.15,0,0,0-3.52.37h0a.84.84,0,0,0-.14.06.82.82,0,0,0-.19.09,6.09,6.09,0,0,0-1.75,1.27h0a5,5,0,0,0-.42.5h0a5.4,5.4,0,0,0-.78,1.36s0,0,0,0a.14.14,0,0,0,0,.09h0a4,4,0,0,0-.25.74C197.66,216.51,197.66,216.57,197.64,216.65Z" transform="translate(-17.73 -28.95)"/><polygon class="cls-4" points="179.67 188.86 191.68 191.13 191.91 189.97 179.9 187.71 179.67 188.86"/><path class="cls-8" d="M208.17,217a3.08,3.08,0,0,0-2.8-3.35" transform="translate(-17.73 -28.95)"/><path class="cls-8" d="M276.22,210a1.8,1.8,0,0,0-2.49.17" transform="translate(-17.73 -28.95)"/><ellipse class="cls-4" cx="208.67" cy="112.71" rx="0.62" ry="0.61"/><path class="cls-9" d="M233.53,68.36" transform="translate(-17.73 -28.95)"/><path class="cls-4" d="M228.7,57.64a3.93,3.93,0,0,0-5.3,1.44" transform="translate(-17.73 -28.95)"/><path class="cls-4" d="M223.4,59.52a.44.44,0,0,0,.38-.22A3.5,3.5,0,0,1,228.49,58a.44.44,0,0,0,.43-.77,4.39,4.39,0,0,0-5.9,1.61.45.45,0,0,0,.16.61A.59.59,0,0,0,223.4,59.52Z" transform="translate(-17.73 -28.95)"/><rect class="cls-4" x="236.86" y="61.37" width="2.91" height="4.22" rx="1.45" transform="translate(458.9 98.01) rotate(180)"/><rect class="cls-4" x="225.8" y="61.37" width="2.91" height="4.22" rx="1.45" transform="translate(436.77 98.01) rotate(-180)"/><path class="cls-4" d="M233.28,66.23s-.22,3.65,1.83,4.79-1.31,2.27-1.31,2.27" transform="translate(-17.73 -28.95)"/><path class="cls-4" d="M233.8,73.51h.07c.21-.07,2-.72,2.12-1.63,0-.39-.22-.74-.77-1.05-1.9-1-1.72-4.54-1.72-4.57a.22.22,0,0,0-.2-.24.23.23,0,0,0-.24.21c0,.15-.2,3.8,1.95,5,.26.14.57.37.55.62-.05.49-1.25,1.06-1.83,1.25a.24.24,0,0,0-.14.28A.23.23,0,0,0,233.8,73.51Z" transform="translate(-17.73 -28.95)"/><path class="cls-4" d="M236.86,57.64a3.94,3.94,0,0,1,5.31,1.44" transform="translate(-17.73 -28.95)"/><path class="cls-4" d="M242.17,59.52a.5.5,0,0,0,.21-.05.45.45,0,0,0,.17-.61,4.39,4.39,0,0,0-5.9-1.61.44.44,0,0,0,.43.77,3.5,3.5,0,0,1,4.7,1.28A.44.44,0,0,0,242.17,59.52Z" transform="translate(-17.73 -28.95)"/><path class="cls-10" d="M214.34,63.91" transform="translate(-17.73 -28.95)"/><path class="cls-11" d="M246.72,59.89" transform="translate(-17.73 -28.95)"/><path class="cls-11" d="M215.84,57.08" transform="translate(-17.73 -28.95)"/><path class="cls-11" d="M240.74,57.66" transform="translate(-17.73 -28.95)"/><ellipse class="cls-4" cx="221.78" cy="33.73" rx="0.59" ry="0.58"/><path class="cls-11" d="M219.05,55.74" transform="translate(-17.73 -28.95)"/><path class="cls-11" d="M232.36,47.9" transform="translate(-17.73 -28.95)"/><ellipse class="cls-4" cx="210.97" cy="33.73" rx="0.59" ry="0.58"/><path class="cls-4" d="M236.39,77.65s-1.62,1-5.72,0" transform="translate(-17.73 -28.95)"/><path class="cls-4" d="M234,78.3a5.28,5.28,0,0,0,2.53-.46.22.22,0,0,0-.23-.38s-1.64.9-5.56,0a.24.24,0,0,0-.27.17.22.22,0,0,0,.17.26A14.5,14.5,0,0,0,234,78.3Z" transform="translate(-17.73 -28.95)"/><line class="cls-4" x1="200.28" y1="104.32" x2="200.33" y2="105.79"/><path class="cls-12" d="M217.46,146.78s-3,8.76-2,26.18L202.1,204.05" transform="translate(-17.73 -28.95)"/><path class="cls-4" d="M197.41,217.79h0a2.15,2.15,0,0,1,0,.5v.09l.2-.55.19-.52.08-.2,0-.13h0l.1-.26h0l.7-1.87h0l.42-1.14h0l.16-.44-.08-.41h0c-.1-.45-.26-1.21-.43-2.09s-.32-1.88-.43-2.77c0,0,0,0,0,0a11.05,11.05,0,0,1-.09-1.73,0,0,0,0,1,0,0,2.75,2.75,0,0,1,.07-.56l-.08.07-1.73,1.67-.08.08-.5.48h0l-.43.41a1.11,1.11,0,0,0-.19.5v0l.22,1,0,.09v0Z" transform="translate(-17.73 -28.95)"/><path class="cls-4" d="M198,216.72h0a2.28,2.28,0,0,1,0,.27h0a.17.17,0,0,1,0,.07h0a2.7,2.7,0,0,1,0,.28,2.31,2.31,0,0,1-.15.53,3.59,3.59,0,0,1-.17.34l.24-.33.35-.49.41-.57h0l2.63-3.62h0l0-.06s0-.07,0-.21a1.93,1.93,0,0,1,0-.23s0,0,0,0h0c0-.12,0-.24,0-.39,0-.36,0-.81,0-1.34.1-2.94.35-7.94.78-9.26h0l-.18.19-1.18,1.23h0l-.11.12-2.29,2.37-1.74,1.8-.08.08-.25.26a2.76,2.76,0,0,0-.25.88h0a2.81,2.81,0,0,0,0,.82c.13.78,1.61,3.76,1.91,6.24h0c0,.15,0,.31,0,.46v.16A2.8,2.8,0,0,1,198,216.72Z" transform="translate(-17.73 -28.95)"/><path class="cls-4" d="M200.63,211l0,.12a8.59,8.59,0,0,0,.27,1.36c0,.11.08.23.11.35l.08.2a1,1,0,0,0,.09.21h0c.48,1.12,1.37,2.14,3,1.45l1.24-.39h0l.38-.15a1.93,1.93,0,0,0,.53-.24.05.05,0,0,0,0-.05,2.76,2.76,0,0,1,.15-.67,5,5,0,0,1,.19-.54,59.77,59.77,0,0,1,3.57-7.19,1.64,1.64,0,0,0,.2-1.19,1.89,1.89,0,0,0-1.5-1.47l-.15,0L203,201.63a1.85,1.85,0,0,0-.88,0h0l-.16.05a1.9,1.9,0,0,0-1,.82,0,0,0,0,1,0,0,2,2,0,0,0-.2.47s0,0,0,0v0a2,2,0,0,0-.08.35,34.67,34.67,0,0,0-.4,3.7A15.42,15.42,0,0,0,200.63,211Z" transform="translate(-17.73 -28.95)"/><path class="cls-4" d="M197.64,217.3h.18l.08,0,.27.05,11.34,2.14.13,0a5.3,5.3,0,0,0,.09-1.42,5.52,5.52,0,0,0-.46-2.05v0a6,6,0,0,0-2.75-2.93.37.37,0,0,0-.14-.07h0a5.09,5.09,0,0,0-.76-.32l-.31-.1-.5-.12a6.14,6.14,0,0,0-3.44.34.21.21,0,0,0-.1,0,.59.59,0,0,0-.14.06l-.34.16a6,6,0,0,0-2,1.71h0a5.23,5.23,0,0,0-.59.93v0a2.87,2.87,0,0,0-.18.4h0c-.07.15-.12.3-.17.44h0c0,.14-.08.27-.11.4S197.66,217.22,197.64,217.3Z" transform="translate(-17.73 -28.95)"/><polygon class="cls-4" points="179.67 189.51 191.68 191.77 191.91 190.62 179.9 188.35 179.67 189.51"/><path class="cls-8" d="M208.17,217.6a3.08,3.08,0,0,0-2.8-3.35" transform="translate(-17.73 -28.95)"/><path class="cls-12" d="M234.41,156.3s3.75,10.28,10.6,15.89c0,0-2.64,17.12,12.28,39.83" transform="translate(-17.73 -28.95)"/><path class="cls-4" d="M270.4,210.23c-4.13-.31-8.67-1.5-9.25-5.17a1.17,1.17,0,0,0-1.51-.95l-4.3,1.32a1.13,1.13,0,0,0-.51,1.87c2,2.12,6.92,5.89,15.54,5.21a1.14,1.14,0,0,0,.32-.07h0A1.14,1.14,0,0,0,270.4,210.23Z" transform="translate(-17.73 -28.95)"/><path class="cls-4" d="M280.17,212.5s-12.63-1.15-18-1.91a8.26,8.26,0,0,0-6.57,2.23l14.65,2.63Z" transform="translate(-17.73 -28.95)"/><path class="cls-4" d="M270.22,215.45l-14.65-2.63,2.12,7.2a.55.55,0,0,0,.75.35Z" transform="translate(-17.73 -28.95)"/><path class="cls-4" d="M280.17,212.5s-12.63-.5-18-1.27a8.25,8.25,0,0,0-6.57,2.24l14.65,2.63Z" transform="translate(-17.73 -28.95)"/><path class="cls-4" d="M271.64,210.23c-4.13-.31-8.67-1.5-9.25-5.17a1.16,1.16,0,0,0-1.5-.95l-4.31,1.32a1.13,1.13,0,0,0-.51,1.87c2,2.12,6.92,5.89,15.55,5.21a1.32,1.32,0,0,0,.32-.07h0A1.14,1.14,0,0,0,271.64,210.23Z" transform="translate(-17.73 -28.95)"/><path class="cls-4" d="M270.22,216.1l-14.65-2.63,2.12,7.2a.56.56,0,0,0,.75.35Z" transform="translate(-17.73 -28.95)"/><path class="cls-4" d="M270.22,216.1l9.95-3.6-.08-.21a6.63,6.63,0,0,0-.4-.8,5.61,5.61,0,0,0-6.61-2.81,3,3,0,0,0-.41.17l-.26.13a4.64,4.64,0,0,0-1,.78,5.39,5.39,0,0,0-1.48,2.9s0,0,0,0,0,.24-.05.36A6.56,6.56,0,0,0,270.22,216.1Z" transform="translate(-17.73 -28.95)"/><path class="cls-4" d="M280.17,212.5l.38.7-22.47,8.93s-1.1-2.13-.7-2.53c0,0,.63,1.33,12.84-3.94Z" transform="translate(-17.73 -28.95)"/><path class="cls-4" d="M223.51,89.15h-7.23s-12.6,29.48-14.27,54.61c0,0,8.71,13.9,10.57,8,3.23-10.26,9.44-38.4,12.2-50.09C226.05,96.25,223.65,91.76,223.51,89.15Z" transform="translate(-17.73 -28.95)"/><path class="cls-4" d="M244,89.15c1.35,3.5,9.64,29.95,10,62.6a1,1,0,0,1-2,.39c-3.67-9-13.22-36.62-16.48-50.48-1.27-5.41.13-9.9.27-12.51Z" transform="translate(-17.73 -28.95)"/><polygon class="cls-4" points="206.14 117.07 208.67 116.31 201.23 81.72 199.74 74.8 194.15 76.47 196.15 83.24 206.14 117.07"/><polygon class="cls-4" points="196.15 83.24 201.23 81.72 199.74 74.8 194.15 76.47 196.15 83.24"/><path class="cls-4" d="M225.48,155.9a.91.91,0,0,0,.5.4l.18,0h0a1,1,0,0,0,.71-.21l.08-.07a.87.87,0,0,0,.23-.48,34.81,34.81,0,0,0,.28-8.36,22.5,22.5,0,0,0-.4-2.66,3.62,3.62,0,0,0-.13-.47,4.78,4.78,0,0,0-.28-.61l-.11-.18a1.09,1.09,0,0,0-.13-.17l0-.07,0,0a3.7,3.7,0,0,0-2.88-1.36h0s0,0,0,0A20,20,0,0,0,223,145c0,.25,0,.5,0,.77A18.79,18.79,0,0,0,225.48,155.9Z" transform="translate(-17.73 -28.95)"/><path class="cls-4" d="M225.2,144l.51.74.3.43,1.46,2.1,1.16,1.67a.72.72,0,0,0,1,.18l.06,0a.67.67,0,0,0,.19-1L227,144l-.34-.5-.12-.17-.12-.17a.31.31,0,0,0-.09-.11.72.72,0,0,0-.89-.07l-.06,0A.69.69,0,0,0,225.2,144Z" transform="translate(-17.73 -28.95)"/><path class="cls-4" d="M226.88,156.13l.08-.07c-1.6-1.68-1.2-8.55-1.19-8.63a.06.06,0,0,0-.06-.05.06.06,0,0,0-.06.05C225.64,147.72,225.25,154.42,226.88,156.13Z" transform="translate(-17.73 -28.95)"/><path class="cls-4" d="M226,156.3c-1.55-1.83-2.35-6.65-2.38-6.87,0,0,0-.05,0-.06a.08.08,0,0,1,.07,0c0,.05.86,5.2,2.44,6.92h0Z" transform="translate(-17.73 -28.95)"/><path class="cls-4" d="M222.93,145.77a3.72,3.72,0,0,0,2.34-.22,3.58,3.58,0,0,0,.74-.43,3.65,3.65,0,0,0,.93-1A.75.75,0,0,0,227,144l-.34-.5-.12-.17-.12-.17a.31.31,0,0,0-.09-.11,3.7,3.7,0,0,0-2.88-1.36h0s0,0,0,0A20,20,0,0,0,223,145C222.94,145.25,222.93,145.5,222.93,145.77Z" transform="translate(-17.73 -28.95)"/><path class="cls-4" d="M220.74,144.47l7.33-1.53L216.39,89.15h0c-4.82,1-6.84,5.12-6,9.88Z" transform="translate(-17.73 -28.95)"/><path class="cls-4" d="M235.77,87.9h1.29s3.09.79,3.22,2.7c.17,2.46.32,4.11,3,5.52,3.21,1.7-1.12,3-3.34,2.27a1.79,1.79,0,0,0-2.34,1.36l-1.06,5.93S233.13,94.76,235.77,87.9Z" transform="translate(-17.73 -28.95)"/><path class="cls-4" d="M223.49,88h-1.28s-3.1.8-3.23,2.71c-.17,2.45-.32,4.11-3,5.52-3.22,1.69,1.11,3,3.33,2.26,1-.34,1.58.36,2.34,1.36l2.15,5.75S227.83,96.56,223.49,88Z" transform="translate(-17.73 -28.95)"/><polygon class="cls-4" points="222.37 110.5 219.74 108.35 211.01 108.35 209.22 110.5 209.22 113.88 210.81 115.52 219.57 115.52 222.37 113.32 222.37 110.5"/><path class="cls-4" d="M246.21,104.73a10.11,10.11,0,0,1-5.59,0" transform="translate(-17.73 -28.95)"/><path class="cls-4" d="M243.39,105.35a9.61,9.61,0,0,0,2.89-.41.22.22,0,0,0,.14-.28.23.23,0,0,0-.28-.14,9.9,9.9,0,0,1-5.45,0,.23.23,0,0,0-.28.15.21.21,0,0,0,.15.27A9.63,9.63,0,0,0,243.39,105.35Z" transform="translate(-17.73 -28.95)"/><path class="cls-8" d="M277.18,210.75a3.17,3.17,0,0,0-4.4-.43" transform="translate(-17.73 -28.95)"/><rect class="cls-4" x="235.33" y="60.44" width="9.69" height="5.65" rx="1.61" transform="translate(462.62 97.58) rotate(180)"/><path class="cls-4" d="M236.94,66.3h6.47a1.83,1.83,0,0,0,1.83-1.82V62.05a1.83,1.83,0,0,0-1.83-1.83h-6.47a1.83,1.83,0,0,0-1.83,1.83v2.43A1.83,1.83,0,0,0,236.94,66.3Zm6.47-5.64a1.39,1.39,0,0,1,1.39,1.39v2.43a1.38,1.38,0,0,1-1.39,1.38h-6.47a1.39,1.39,0,0,1-1.39-1.38V62.05a1.39,1.39,0,0,1,1.39-1.39Z" transform="translate(-17.73 -28.95)"/><rect class="cls-4" x="221.88" y="60.44" width="9.69" height="5.65" rx="1.61" transform="translate(435.71 97.58) rotate(180)"/><path class="cls-4" d="M223.49,66.3H230a1.83,1.83,0,0,0,1.83-1.82V62.05A1.83,1.83,0,0,0,230,60.22h-6.47a1.83,1.83,0,0,0-1.83,1.83v2.43A1.83,1.83,0,0,0,223.49,66.3ZM230,60.66a1.39,1.39,0,0,1,1.39,1.39v2.43A1.39,1.39,0,0,1,230,65.86h-6.47a1.38,1.38,0,0,1-1.39-1.38V62.05a1.39,1.39,0,0,1,1.39-1.39Z" transform="translate(-17.73 -28.95)"/><path class="cls-4" d="M236.94,60.44h-7a1.64,1.64,0,0,1,1.61,1.12h3.76S235.38,60.44,236.94,60.44Z" transform="translate(-17.73 -28.95)"/><path class="cls-4" d="M231.42,61.78h4.12v-.21c0-.1.1-.91,1.39-.91v-.44h-7l0,.44h.16a1.43,1.43,0,0,1,1.24,1Zm3.73-.44h-3.44a2.05,2.05,0,0,0-.51-.68h4.37A1.4,1.4,0,0,0,235.15,61.34Z" transform="translate(-17.73 -28.95)"/><path class="cls-4" d="M216,58.52l7.52,1.92a1.87,1.87,0,0,0-1.33.71L214.41,59A1.33,1.33,0,0,1,216,58.52Z" transform="translate(-17.73 -28.95)"/><path class="cls-4" d="M222.26,61.4l.09-.14a1.66,1.66,0,0,1,1.15-.6l1.31-.11L216,58.31a1.56,1.56,0,0,0-1.82.61l-.13.25Zm.38-.95a1.63,1.63,0,0,0-.58.44l-7.25-2a1.28,1.28,0,0,1,1.11-.17Z" transform="translate(-17.73 -28.95)"/><path class="cls-4" d="M212.46,47.87s0,0,.06-.07a3.83,3.83,0,0,1,.79-.58s0,0,0,0a4,4,0,0,1-.67-.5,3.2,3.2,0,0,1-.82-1.34l-.08-.32a2.9,2.9,0,0,1-.07-.66,3.24,3.24,0,0,1,1-2.32,3.42,3.42,0,0,1,1.63-.88l.26,0a2.55,2.55,0,0,1-.2-.73v0a2,2,0,0,1-.06-.49,3.31,3.31,0,0,1,3.35-3.28,3.39,3.39,0,0,1,1.14.21A3.29,3.29,0,0,1,223,34.29a3.35,3.35,0,0,1,6,.13,5.49,5.49,0,0,1,1.91-.36,5.26,5.26,0,0,1,2.1.44,3.36,3.36,0,0,1,4.42.57,1.15,1.15,0,0,1,1.06-.71,1.19,1.19,0,0,1,.83.35,3.32,3.32,0,0,1,1.9-.59,3.41,3.41,0,0,1,2.37,1,3.22,3.22,0,0,1,1,2.31,3,3,0,0,1,0,.53v0a4.3,4.3,0,0,1-.18.64h.22a5.33,5.33,0,0,1,3.69,1.51,5.15,5.15,0,0,1,1.54,3.66,3.68,3.68,0,0,1-.06.66,5.16,5.16,0,0,1-3.14,4.08,2.88,2.88,0,0,1,.4,1.14,2.42,2.42,0,0,1,0,.47v.21a2.42,2.42,0,0,1-.06.54v0l-.3.89a1.68,1.68,0,0,1,.34.2l.21.19a2.22,2.22,0,0,1,.66,1.59,2.46,2.46,0,0,1-.09.67h0A2.31,2.31,0,0,1,245.6,56a2.47,2.47,0,0,1-.67-.11,2.45,2.45,0,0,1-1-.55,3.05,3.05,0,0,1-.57-.91h0a2.93,2.93,0,0,1-.09-.67v-.17a3.29,3.29,0,0,1-2.83-1.79,1.11,1.11,0,0,1-.14-.29,3.35,3.35,0,0,1-.17-.62v0a1.34,1.34,0,0,1-.05-.35,7.14,7.14,0,0,1-10.83,1.36,1.16,1.16,0,0,1-.14.27,1.08,1.08,0,0,1-.83.48h-.1a1.2,1.2,0,0,1-.86-.39,1.75,1.75,0,0,1-.24.23,5.08,5.08,0,0,1-4.5,1.35h0a4.54,4.54,0,0,1,.23,1.38v.09a5,5,0,0,1-.05.67h0A5.1,5.1,0,0,1,221,59.25l-.29.21h0a3.35,3.35,0,0,1-2.52,1.89,1.24,1.24,0,0,1-.17.37l0,0a1.1,1.1,0,0,1-.9.46,1.16,1.16,0,0,1-.94-.48,1,1,0,0,1-.12-.23,1.15,1.15,0,0,1-.08-.41.9.9,0,0,1,0-.16,3.27,3.27,0,0,1-1.37-1.48h0a.83.83,0,0,1-.16-.12l-.12-.08-.38-.34a5.13,5.13,0,0,1-1.49-3h0c0-.22,0-.45,0-.67a4.57,4.57,0,0,1,.22-1.44,4.28,4.28,0,0,1,.41-1h0a2.67,2.67,0,0,1-.46-.37,3.31,3.31,0,0,1-.91-1.63v0a3,3,0,0,1-.07-.67A3.26,3.26,0,0,1,212.46,47.87Zm28.7-.16,0,0s0,0,0,0A.06.06,0,0,0,241.16,47.71Z" transform="translate(-17.73 -28.95)"/><path class="cls-4" d="M247.93,43.77a.22.22,0,0,0,.22-.22,3.71,3.71,0,0,0-3.74-3.67.22.22,0,0,0-.22.22.22.22,0,0,0,.22.22,3.27,3.27,0,0,1,3.3,3.23A.22.22,0,0,0,247.93,43.77Z" transform="translate(-17.73 -28.95)"/><path class="cls-4" d="M234.15,52.45a3.77,3.77,0,0,0,2.64-1.07.22.22,0,0,0,0-.32.23.23,0,0,0-.31,0,3.36,3.36,0,0,1-4.67,0,.23.23,0,0,0-.31,0,.23.23,0,0,0,0,.32A3.76,3.76,0,0,0,234.15,52.45Z" transform="translate(-17.73 -28.95)"/><path class="cls-4" d="M245.56,55.31a.22.22,0,1,0,0-.44,1.21,1.21,0,0,1-1.22-1.19.22.22,0,0,0-.22-.22.22.22,0,0,0-.22.22A1.65,1.65,0,0,0,245.56,55.31Z" transform="translate(-17.73 -28.95)"/><path class="cls-4" d="M217.2,59a3.71,3.71,0,0,0,3.74-3.67.22.22,0,1,0-.44,0,3.27,3.27,0,0,1-3.3,3.23.22.22,0,0,0,0,.44Z" transform="translate(-17.73 -28.95)"/><circle class="cls-13" cx="138.39" cy="35.87" r="23.44"/><path class="cls-14" d="M144.77,83.19a1.17,1.17,0,0,1-.92-2l8.21-7.44,5.63-7a1.17,1.17,0,1,1,1.83,1.47l-5.69,7.07a.74.74,0,0,1-.12.13l-8.28,7.5A1.17,1.17,0,0,1,144.77,83.19Z" transform="translate(-17.73 -28.95)"/><path class="cls-15" d="M166,62.4c-.77.08-2.32-.38-5.5-6.7a1.18,1.18,0,0,1,2.11-1.06,26.45,26.45,0,0,0,3.26,5.22,19.45,19.45,0,0,0,2.32-4.23,1.18,1.18,0,1,1,2.17.91c-1,2.45-2.58,5.44-4.1,5.81Zm-.38-2.31Z" transform="translate(-17.73 -28.95)"/><circle class="cls-16" cx="142.91" cy="20.03" r="4.29"/><path class="cls-17" d="M156.1,53.24h3.82a1.66,1.66,0,0,1,1.66,1.66V65.47a5.19,5.19,0,0,1-5.19,5.19h-.57a1.39,1.39,0,0,1-1.39-1.39V54.9a1.66,1.66,0,0,1,1.66-1.66Z" transform="translate(0.16 -62.78) rotate(12.95)"/><path class="cls-18" d="M152.52,63.21a1.19,1.19,0,0,1-.88-.25c-1.64-1.34-3.55-3.26-3.31-4.81.09-.53.31-1.95,8.46-5a1.18,1.18,0,0,1,.83,2.2,34.92,34.92,0,0,0-6.88,3.28,11.19,11.19,0,0,0,2.39,2.53,1.19,1.19,0,0,1,.17,1.66A1.15,1.15,0,0,1,152.52,63.21Z" transform="translate(-17.73 -28.95)"/><path class="cls-19" d="M159.53,79.69a1.11,1.11,0,0,1-.51,0,1.18,1.18,0,0,1-.73-1.5l2.83-8.3-7,.25a1.18,1.18,0,0,1-.08-2.35l8.73-.31a1.19,1.19,0,0,1,1,.47A1.21,1.21,0,0,1,163.9,69l-3.39,9.91A1.15,1.15,0,0,1,159.53,79.69Z" transform="translate(-17.73 -28.95)"/><path class="cls-20" d="M153.12,68.25" transform="translate(-17.73 -28.95)"/><path class="cls-21" d="M169.31,41.21A27,27,0,1,0,179.73,78,27,27,0,0,0,169.31,41.21ZM135.66,53.39a23.43,23.43,0,0,1,42.45,3.33l-45,12.73A23.34,23.34,0,0,1,135.66,53.39Zm9,31.89a23.33,23.33,0,0,1-10.56-12.36l45-12.73A23.42,23.42,0,0,1,144.7,85.28Z" transform="translate(-17.73 -28.95)"/><rect class="cls-22" x="254.03" y="36.89" width="2.29" height="2.24" rx="1.01"/><rect class="cls-22" x="225.52" y="28.2" width="2.29" height="2.24" rx="1.01"/><rect class="cls-23" x="231.09" y="7.48" width="27.35" height="26.8" rx="12.06"/><rect class="cls-22" x="223.24" y="19.02" width="10.51" height="10.3" rx="4.64"/><rect class="cls-22" x="252.75" y="29.32" width="6.7" height="6.56" rx="2.95"/><path class="cls-24" d="M237.51,154.07s17.2-33,42.39.57l-2.3-37.43-34.45-3.14Z" transform="translate(-17.73 -28.95)"/><path class="cls-25" d="M275.82,64.37a3.22,3.22,0,0,1-2.91,3.19l-.35,0V61.17l.35,0a3.26,3.26,0,0,1,1.95.91l.08.09a.86.86,0,0,1,.13.14,2.88,2.88,0,0,1,.45.7A3,3,0,0,1,275.82,64.37Z" transform="translate(-17.73 -28.95)"/><polygon class="cls-26" points="235.24 119 237.78 118.24 230.34 83.65 228.85 76.72 223.26 78.4 225.26 85.17 235.24 119"/><polygon class="cls-26" points="225.26 85.17 230.34 83.65 228.85 76.72 223.26 78.4 225.26 85.17"/><path class="cls-3" d="M254.58,157.83a.9.9,0,0,0,.51.4l.18,0h0a1,1,0,0,0,.71-.22.18.18,0,0,0,.08-.07.84.84,0,0,0,.23-.47,34.76,34.76,0,0,0,.29-8.36c-.09-.88-.22-1.78-.4-2.66,0-.16-.08-.32-.13-.47a4.78,4.78,0,0,0-.28-.61l-.12-.18-.12-.18-.05-.06,0,0a3.72,3.72,0,0,0-2.89-1.36h0l0,0a18.65,18.65,0,0,0-.45,3.3c0,.25,0,.5,0,.77A18.79,18.79,0,0,0,254.58,157.83Z" transform="translate(-17.73 -28.95)"/><path class="cls-3" d="M254.31,145.88l.51.74.3.43,1.46,2.1,1.15,1.67a.72.72,0,0,0,1,.18l.07-.05A.67.67,0,0,0,259,150l-2.84-4.11-.35-.49-.12-.17-.11-.17-.09-.11a.72.72,0,0,0-.89-.07l-.07,0A.68.68,0,0,0,254.31,145.88Z" transform="translate(-17.73 -28.95)"/><path class="cls-27" d="M256,158.05a.24.24,0,0,0,.08-.06c-1.59-1.68-1.19-8.56-1.19-8.63a.06.06,0,0,0-.05-.06.06.06,0,0,0-.06.06C254.75,149.64,254.35,156.34,256,158.05Z" transform="translate(-17.73 -28.95)"/><path class="cls-27" d="M255.09,158.23c-1.54-1.83-2.34-6.66-2.38-6.87a.06.06,0,0,1,0-.06,0,0,0,0,1,.06,0c0,.05.86,5.2,2.45,6.92h0Z" transform="translate(-17.73 -28.95)"/><path class="cls-25" d="M252,147.7a3.83,3.83,0,0,0,2.35-.22,3.58,3.58,0,0,0,.74-.43,3.79,3.79,0,0,0,.93-1s.05-.08.07-.13l-.35-.49-.12-.17-.11-.17-.09-.11a3.72,3.72,0,0,0-2.89-1.36h0l0,0a18.65,18.65,0,0,0-.45,3.3C252.05,147.18,252,147.43,252,147.7Z" transform="translate(-17.73 -28.95)"/><path class="cls-28" d="M249.85,146.4l7.33-1.53L245.5,91.08h0c-4.82,1-6.85,5.12-6,9.88Z" transform="translate(-17.73 -28.95)"/><path class="cls-29" d="M245.5,91.08s-1.7,3.69-2.21,15.58c-.09,2.18-.15,4.65-.14,7.41,0,.19,0,.41,0,.61h0c0,.83,0,1.66,0,2.54v0c.09,5.89.43,13,1.18,21.56a2.64,2.64,0,0,0,0,.28s0,.06,0,.09c0,.57.09,1.14.14,1.72,0,.13,0,.27,0,.4a.07.07,0,0,1,0,.05h26.66v-.06l0-.41.06-1.75v-.07l0-.31.08-2.1.05-1.48,0-.85v0l.29-7.26v0l.54-13.91.28-7.28.57-14.75v0Z" transform="translate(-17.73 -28.95)"/><path class="cls-30" d="M244.59,144.27,237.34,169c-.13.45-.24.9-.34,1.36L227.57,214h0c3,2.92,3.65,5.77,5.86,2.1,4.62-7.68,13.41-23.44,13.41-40.15,0-1.66,10.34-10.74,14.58-31.7Z" transform="translate(-17.73 -28.95)"/><path class="cls-31" d="M290.67,212.68l-.14,0a6.73,6.73,0,0,1-1.66.17h-.69c-1.11,0-2.36-.15-3.56-.22l-.41-1.9a3,3,0,0,0-.31-.79l-3.22-5.29-.34-.55-16-26.18-8.86-33.66h1.06v.36a.12.12,0,0,0,.12.11.1.1,0,0,0,.1-.11l0-.36h14.46c6.18,7,4.35,30.08,4.62,30.42C277.72,177,283.66,193,288,203.26c.09.2.17.41.25.61s.18.4.26.6h0l.2.48a.05.05,0,0,1,0,0v0l.15.32c.78,1.79,1.49,3.31,2.09,4.44l.07.11s0,0,0,0,.09.17.14.26C292.07,211.66,291.69,212.38,290.67,212.68Z" transform="translate(-17.73 -28.95)"/><rect class="cls-32" x="226.85" y="112.43" width="26.67" height="2.9"/><path class="cls-3" d="M266,85.1v7a5.3,5.3,0,0,1-5.26,5.3H259a5.29,5.29,0,0,1-5.25-5.3v-7A5.29,5.29,0,0,1,259,79.79h1.75A5.3,5.3,0,0,1,266,85.1Z" transform="translate(-17.73 -28.95)"/><path class="cls-33" d="M257.76,132.22" transform="translate(-17.73 -28.95)"/><path class="cls-25" d="M272.91,54.36V74.47l-5.27,10.82A14.72,14.72,0,0,1,266,86.44v2.24a14.38,14.38,0,0,1-12.26,1.14V87.58h0a14,14,0,0,1-9.32-13.11V54.36a11.63,11.63,0,0,1,.06-1.33c0-.17,0-.34.06-.51h0a13.89,13.89,0,0,1,.28-1.43,13.66,13.66,0,0,1,2.39-5c.14-.17.26-.33.4-.49a3,3,0,0,1,.24-.28.64.64,0,0,1,.14-.15,2.8,2.8,0,0,1,.29-.32,3.68,3.68,0,0,1,.39-.4,14,14,0,0,1,2.43-1.88.71.71,0,0,1,.17-.11l.08,0,.06,0,.28-.15a12.84,12.84,0,0,1,1.39-.69l.55-.22.11,0c.4-.14.8-.27,1.21-.38a14,14,0,0,1,1.95-.38h0l.73-.07c.34,0,.69,0,1,0h.23l.73,0H260a.11.11,0,0,0,.08,0c.54,0,1.07.15,1.59.25h0a13.16,13.16,0,0,1,1.4.39c.28.09.56.18.85.3h0l.31.12.1,0a11.61,11.61,0,0,1,1.32.66l.05,0a6.44,6.44,0,0,1,.66.4,12.63,12.63,0,0,1,2,1.51.81.81,0,0,1,.16.16l.19.17,0,0a8.82,8.82,0,0,1,.78.85c.2.21.37.43.55.66a10.4,10.4,0,0,1,.81,1.19.52.52,0,0,1,.07.12c.06.08.1.17.15.24a2,2,0,0,1,.13.25l.21.37a.43.43,0,0,0,.05.12l.17.36a13.14,13.14,0,0,1,.89,2.63l.06.23c.08.41.15.82.2,1.24v0c0,.24.05.49.06.73a1.27,1.27,0,0,1,0,.2C272.91,53.94,272.91,54.14,272.91,54.36Z" transform="translate(-17.73 -28.95)"/><path class="cls-3" d="M272.91,52.11V74.47a13.81,13.81,0,0,1-5.27,10.82A14.72,14.72,0,0,1,266,86.44a14.29,14.29,0,0,1-12.26,1.14h0a14,14,0,0,1-9.32-13.11V52.11a11.66,11.66,0,0,1,.06-1.32c0-.17,0-.33.06-.51h0a13.89,13.89,0,0,1,.28-1.43,13.66,13.66,0,0,1,2.39-5c.14-.16.26-.33.4-.49s.15-.18.24-.29a.92.92,0,0,1,.14-.14,2.09,2.09,0,0,1,.29-.31,3.78,3.78,0,0,1,.39-.41,13.48,13.48,0,0,1,2.43-1.88.71.71,0,0,1,.17-.11l.08-.05a.07.07,0,0,1,.06,0,1.08,1.08,0,0,1,.28-.16,12.84,12.84,0,0,1,1.39-.69l.55-.21.11-.05c.4-.14.8-.27,1.21-.37a12.68,12.68,0,0,1,1.95-.38h0c.25,0,.49,0,.73-.07s.69,0,1,0h.23l.73,0h.49c.54.06,1.07.14,1.59.25h0c.47.11,1,.24,1.4.39l.85.29h0l.31.12a.47.47,0,0,0,.1,0,11.61,11.61,0,0,1,1.32.66l.05,0a6.55,6.55,0,0,1,.66.41,12.11,12.11,0,0,1,2,1.52.57.57,0,0,1,.16.15l.19.17s0,0,0,0a8.63,8.63,0,0,1,.78.83c.2.22.37.43.55.67a10.4,10.4,0,0,1,.81,1.19.52.52,0,0,1,.07.12c.06.08.1.17.15.25a1.41,1.41,0,0,1,.13.24l.21.37a.43.43,0,0,0,.05.12l.17.35a13.58,13.58,0,0,1,.89,2.63l.06.24c.08.41.15.82.2,1.23v0c0,.25.05.49.06.74a1.27,1.27,0,0,1,0,.2A6,6,0,0,1,272.91,52.11Z" transform="translate(-17.73 -28.95)"/><path class="cls-33" d="M252.74,132.22" transform="translate(-17.73 -28.95)"/><path class="cls-34" d="M255.05,129.08" transform="translate(-17.73 -28.95)"/><path class="cls-34" d="M252.19,131.88" transform="translate(-17.73 -28.95)"/><path class="cls-35" d="M289.25,209.07a15.25,15.25,0,0,1-.41,3.29,4.29,4.29,0,0,1-.07.52,8.65,8.65,0,0,1-.38,1.38c0,.08-.06.15-.1.22h0a.21.21,0,0,1-.06.1h0s0,0,0,0a.84.84,0,0,1-.09.19,2,2,0,0,1-2.81,1.13c-.1,0-.67-.2-1.21-.39h0c-.49-.17-1-.34-1-.44s0,0,0-.09h0a3.49,3.49,0,0,0-.14-.56,52.06,52.06,0,0,0-3.76-7.73,1.66,1.66,0,0,1-.2-.55,1.91,1.91,0,0,1,1.5-1.47l.15,0-.34-.55a.7.7,0,0,1,.19-.06l6-1.13a1.85,1.85,0,0,1,.88,0h0l.87.91c.1.2.18.4.26.6h0a2,2,0,0,1,.2.48.05.05,0,0,1,0,0v0l.11.12a1.77,1.77,0,0,1,0,.2A21.74,21.74,0,0,1,289.25,209.07Z" transform="translate(-17.73 -28.95)"/><path class="cls-36" d="M281.34,218.88a3.06,3.06,0,0,1,2.79-3.34" transform="translate(-17.73 -28.95)"/><path class="cls-37" d="M213.28,212a1.8,1.8,0,0,1,2.49.17" transform="translate(-17.73 -28.95)"/><ellipse class="cls-4" cx="245.36" cy="114.64" rx="0.62" ry="0.61"/><path class="cls-38" d="M256,70.29" transform="translate(-17.73 -28.95)"/><path class="cls-39" d="M260.8,59.56A3.94,3.94,0,0,1,266.1,61" transform="translate(-17.73 -28.95)"/><rect class="cls-40" x="232" y="34.35" width="2.91" height="4.22" rx="1.45"/><rect class="cls-41" x="243.06" y="34.35" width="2.91" height="4.22" rx="1.45"/><path class="cls-42" d="M256.22,68.16s.22,3.65-1.83,4.78,1.31,2.28,1.31,2.28" transform="translate(-17.73 -28.95)"/><path class="cls-39" d="M252.64,59.56a3.94,3.94,0,0,0-5.3,1.45" transform="translate(-17.73 -28.95)"/><path class="cls-43" d="M275.16,65.84" transform="translate(-17.73 -28.95)"/><path class="cls-44" d="M242.78,61.82" transform="translate(-17.73 -28.95)"/><path class="cls-44" d="M273.66,59" transform="translate(-17.73 -28.95)"/><path class="cls-44" d="M248.76,59.58" transform="translate(-17.73 -28.95)"/><ellipse class="cls-4" cx="232.25" cy="35.66" rx="0.59" ry="0.58"/><path class="cls-44" d="M270.46,57.66" transform="translate(-17.73 -28.95)"/><path class="cls-44" d="M257.15,49.83" transform="translate(-17.73 -28.95)"/><ellipse class="cls-4" cx="243.06" cy="35.66" rx="0.59" ry="0.58"/><path class="cls-45" d="M253.11,79.58s1.62,1,5.72,0" transform="translate(-17.73 -28.95)"/><line class="cls-46" x1="253.75" y1="106.24" x2="253.7" y2="107.72"/><path class="cls-47" d="M272,148.7s3,8.76,2,26.18L287.4,206" transform="translate(-17.73 -28.95)"/><path class="cls-48" d="M292.09,219.72h0a0,0,0,0,1,0,0,2.15,2.15,0,0,0,0,.5v0s0,.05,0,.06l-.21-.54-.19-.52-.08-.2-.05-.13h0l-.09-.26h0l-.7-1.87h0l-.42-1.13h0l-.16-.44.08-.41h0c.11-.45.27-1.21.43-2.09s.32-1.88.43-2.77c0,0,0,0,0,0a10,10,0,0,0,.09-1.73,0,0,0,0,0,0,0,2.84,2.84,0,0,0-.06-.57l.07.08,1.73,1.67.08.08.5.48h0l.43.42a1.25,1.25,0,0,1,.2.5v0l-.23,1,0,.09h0Z" transform="translate(-17.73 -28.95)"/><path class="cls-49" d="M291.53,218.64h0a2.45,2.45,0,0,0,0,.27h0s0,0,0,.06h0c0,.09,0,.18,0,.28a3,3,0,0,0,.15.53l.17.34-.23-.33-.36-.49-.41-.57h0l-2.63-3.62h0l0-.06s0-.07,0-.21a2.09,2.09,0,0,0,0-.24s0,0,0,0h0v-.39c0-.36,0-.82-.05-1.34-.1-2.94-.34-8-.78-9.26h0l.18.19,1.19,1.22v0l.11.12,2.29,2.37,1.74,1.8.08.08.25.26a2.41,2.41,0,0,1,.25.88h0a2.82,2.82,0,0,1,0,.82c-.13.77-1.61,3.76-1.9,6.24h0c0,.16,0,.32-.05.47v.16A2.67,2.67,0,0,0,291.53,218.64Z" transform="translate(-17.73 -28.95)"/><path class="cls-50" d="M288.87,212.88l0,.12a7.41,7.41,0,0,1-.27,1.36c0,.11-.07.23-.11.35l-.07.2c0,.08-.06.14-.1.21h0c-.48,1.12-1.37,2.14-3,1.45-.11,0-.7-.21-1.24-.4h0l-.37-.14a1.6,1.6,0,0,1-.54-.25.05.05,0,0,1,0,0,2.8,2.8,0,0,0-.15-.66q-.08-.26-.18-.54a61.46,61.46,0,0,0-3.58-7.19,1.74,1.74,0,0,1-.2-1.19,1.91,1.91,0,0,1,1.5-1.47l.15,0,5.84-1.1a1.85,1.85,0,0,1,.88,0h0l.16.05a1.9,1.9,0,0,1,1,.82h0a2,2,0,0,1,.2.48.05.05,0,0,1,0,0v0a2.29,2.29,0,0,1,.07.36,34.39,34.39,0,0,1,.4,3.7A15,15,0,0,1,288.87,212.88Z" transform="translate(-17.73 -28.95)"/><path class="cls-51" d="M291.86,219.23h-.18l-.08,0-.27.05L280,221.47l-.13,0a6.09,6.09,0,0,1,.38-3.46,0,0,0,0,0,0,0,6,6,0,0,1,2.74-2.93.46.46,0,0,1,.14-.07h0a6.36,6.36,0,0,1,.76-.31l.32-.1.5-.12a6.21,6.21,0,0,1,3.43.33l.1,0,.15.06a2,2,0,0,1,.33.16,6.06,6.06,0,0,1,2,1.7h0a4.72,4.72,0,0,1,.59.93s0,0,0,0a3.7,3.7,0,0,1,.17.4,0,0,0,0,0,0,0h0a4.13,4.13,0,0,1,.17.45h0c0,.13.08.27.11.4A1.43,1.43,0,0,1,291.86,219.23Z" transform="translate(-17.73 -28.95)"/><polygon class="cls-48" points="274.36 191.44 262.36 193.7 262.13 192.54 274.13 190.28 274.36 191.44"/><path class="cls-37" d="M281.34,219.53a3.07,3.07,0,0,1,2.79-3.35" transform="translate(-17.73 -28.95)"/><path class="cls-47" d="M255.09,158.23s-3.75,10.28-10.59,15.89c0,0,2.63,17.11-12.29,39.83" transform="translate(-17.73 -28.95)"/><path class="cls-35" d="M209.33,214.43s12.63-1.15,18-1.91a8.26,8.26,0,0,1,6.57,2.23l-14.65,2.63Z" transform="translate(-17.73 -28.95)"/><path class="cls-35" d="M219.28,217.38l14.65-2.63-2.12,7.2a.56.56,0,0,1-.75.35Z" transform="translate(-17.73 -28.95)"/><path class="cls-49" d="M209.33,214.43s12.63-.5,18-1.27a8.26,8.26,0,0,1,6.57,2.23L219.28,218Z" transform="translate(-17.73 -28.95)"/><path class="cls-52" d="M217.86,212.16c4.13-.31,8.67-1.5,9.25-5.17a1.16,1.16,0,0,1,1.5-1l4.31,1.32a1.13,1.13,0,0,1,.51,1.87c-2,2.12-6.92,5.89-15.54,5.21a1.14,1.14,0,0,1-.32-.07h0A1.14,1.14,0,0,1,217.86,212.16Z" transform="translate(-17.73 -28.95)"/><path class="cls-49" d="M219.28,218l14.65-2.63-2.12,7.21a.56.56,0,0,1-.75.35Z" transform="translate(-17.73 -28.95)"/><path class="cls-51" d="M219.28,218l-9.95-3.59.09-.21a6,6,0,0,1,.39-.81,5.65,5.65,0,0,1,6.62-2.81l.4.17.26.13a4.82,4.82,0,0,1,1,.79,5.53,5.53,0,0,1,1.48,2.9,0,0,0,0,0,0,0c0,.12,0,.24,0,.36A6.38,6.38,0,0,1,219.28,218Z" transform="translate(-17.73 -28.95)"/><path class="cls-48" d="M209.33,214.43l-.38.7,22.47,8.93s1.1-2.14.71-2.53c0,0-.63,1.33-12.85-3.94Z" transform="translate(-17.73 -28.95)"/><path class="cls-53" d="M266,91.08h7.23s12.61,29.48,14.27,54.61c0,0-8.7,13.9-10.57,8-3.23-10.26-9.44-38.4-12.19-50.1C263.45,98.18,265.85,93.68,266,91.08Z" transform="translate(-17.73 -28.95)"/><path class="cls-54" d="M245.5,91.08c-1.36,3.49-9.65,30-10,62.6a1,1,0,0,0,2,.39c3.67-9,13.22-36.63,16.48-50.49,1.28-5.4-.12-9.9-.26-12.5Z" transform="translate(-17.73 -28.95)"/><polygon class="cls-26" points="247.9 119 245.36 118.24 252.8 83.65 254.29 76.72 259.88 78.4 257.88 85.17 247.9 119"/><polygon class="cls-26" points="257.88 85.17 252.8 83.65 254.29 76.72 259.88 78.4 257.88 85.17"/><path class="cls-3" d="M264,157.83a.88.88,0,0,1-.5.4l-.18,0h0a.94.94,0,0,1-.7-.22s-.06,0-.09-.07a.84.84,0,0,1-.23-.47,35.36,35.36,0,0,1-.28-8.36,22.19,22.19,0,0,1,.4-2.66,3.62,3.62,0,0,1,.13-.47,4.78,4.78,0,0,1,.28-.61,1.74,1.74,0,0,0,.11-.18l.13-.18.05-.06,0,0a3.71,3.71,0,0,1,2.89-1.36h0l0,0a18.65,18.65,0,0,1,.45,3.3c0,.25,0,.5,0,.77A18.72,18.72,0,0,1,264,157.83Z" transform="translate(-17.73 -28.95)"/><path class="cls-3" d="M264.3,145.88l-.51.74-.3.43-1.46,2.1-1.15,1.67a.73.73,0,0,1-1,.18l-.07-.05a.67.67,0,0,1-.19-.95l2.85-4.11.35-.49.11-.17.12-.17.09-.11a.72.72,0,0,1,.89-.07l.06,0A.68.68,0,0,1,264.3,145.88Z" transform="translate(-17.73 -28.95)"/><path class="cls-27" d="M262.62,158.05s-.05,0-.08-.06c1.6-1.68,1.2-8.56,1.2-8.63s0-.05.05-.06,0,0,.06.06C263.86,149.64,264.26,156.34,262.62,158.05Z" transform="translate(-17.73 -28.95)"/><path class="cls-27" d="M263.52,158.23c1.54-1.83,2.34-6.66,2.38-6.87a.06.06,0,0,0,0-.06,0,0,0,0,0-.06,0c0,.05-.86,5.2-2.45,6.92h0Z" transform="translate(-17.73 -28.95)"/><path class="cls-25" d="M266.58,147.7a3.82,3.82,0,0,1-2.35-.22,3.58,3.58,0,0,1-.74-.43,3.79,3.79,0,0,1-.93-1,.54.54,0,0,1-.07-.13l.35-.49.11-.17.12-.17.09-.11a3.71,3.71,0,0,1,2.89-1.36h0l0,0a18.65,18.65,0,0,1,.45,3.3C266.56,147.18,266.57,147.43,266.58,147.7Z" transform="translate(-17.73 -28.95)"/><path class="cls-55" d="M268.76,146.4l-7.33-1.53,11.68-53.79h0c4.82,1,6.84,5.12,6,9.88Z" transform="translate(-17.73 -28.95)"/><path class="cls-56" d="M253.73,89.82h-1.28s-3.1.8-3.23,2.71c-.17,2.45-.32,4.11-3,5.52-3.22,1.7,1.11,3,3.33,2.27a1.79,1.79,0,0,1,2.34,1.36l1.07,5.93S256.37,96.69,253.73,89.82Z" transform="translate(-17.73 -28.95)"/><path class="cls-57" d="M266,89.93h1.29s3.09.79,3.22,2.7c.17,2.46.32,4.11,3,5.52,3.21,1.7-1.12,3-3.34,2.27-1-.35-1.58.36-2.34,1.36l-2.15,5.75S261.67,98.48,266,89.93Z" transform="translate(-17.73 -28.95)"/><path class="cls-58" d="M243.29,106.66a10.11,10.11,0,0,0,5.59,0" transform="translate(-17.73 -28.95)"/><path class="cls-37" d="M212.33,212.68a3.16,3.16,0,0,1,4.39-.43" transform="translate(-17.73 -28.95)"/><rect class="cls-59" x="226.75" y="33.42" width="9.69" height="5.65" rx="1.61"/><rect class="cls-59" x="240.2" y="33.42" width="9.69" height="5.65" rx="1.61"/><path class="cls-60" d="M252.56,62.37h7a1.63,1.63,0,0,0-1.61,1.11h-3.77S254.12,62.37,252.56,62.37Z" transform="translate(-17.73 -28.95)"/><path class="cls-60" d="M273.53,60.45,266,62.37a1.82,1.82,0,0,1,1.32.7L275.09,61A1.33,1.33,0,0,0,273.53,60.45Z" transform="translate(-17.73 -28.95)"/><path class="cls-61" d="M277,49.79l-.06-.06a3.29,3.29,0,0,0-.79-.58s0,0,0,0a3.35,3.35,0,0,0,1.5-1.84l.08-.32a3.6,3.6,0,0,0,.07-.66,3.19,3.19,0,0,0-1-2.32,3.34,3.34,0,0,0-1.63-.88L275,43a3.06,3.06,0,0,0,.21-.73v0a2.72,2.72,0,0,0,.05-.49,3.31,3.31,0,0,0-3.35-3.28,3.53,3.53,0,0,0-1.13.2,3.32,3.32,0,0,0-3.29-2.67,3.67,3.67,0,0,0-1,.16,3.35,3.35,0,0,0-6,.14,5.44,5.44,0,0,0-1.9-.37,5.28,5.28,0,0,0-2.11.44,3.4,3.4,0,0,0-1.89-.58A3.33,3.33,0,0,0,252.07,37a1.15,1.15,0,0,0-1.06-.72,1.13,1.13,0,0,0-.82.36,3.37,3.37,0,0,0-1.91-.59,3.41,3.41,0,0,0-2.37,1,3.26,3.26,0,0,0-1,2.31,4.55,4.55,0,0,0,0,.53v0a4.32,4.32,0,0,0,.19.64h-.23A5.24,5.24,0,0,0,241.25,42a5.14,5.14,0,0,0-1.54,3.65,3.78,3.78,0,0,0,0,.67,5.19,5.19,0,0,0,3.14,4.08,2.72,2.72,0,0,0-.39,1.14,1.75,1.75,0,0,0,0,.46v.21a2.44,2.44,0,0,0,.06.55v0l.3.89a1.68,1.68,0,0,0-.34.2,1.71,1.71,0,0,0-.2.18,2.23,2.23,0,0,0-.67,1.6,2.46,2.46,0,0,0,.09.67h0a2.32,2.32,0,0,0,2.2,1.56,2.54,2.54,0,0,0,.68-.1,2.43,2.43,0,0,0,.94-.56,2.24,2.24,0,0,0,.31-.38,2.53,2.53,0,0,0,.26-.52h0a2.93,2.93,0,0,0,.1-.67,1,1,0,0,0,0-.17A3.3,3.3,0,0,0,249,53.7a.74.74,0,0,0,.14-.28,2.72,2.72,0,0,0,.17-.62v0a1.35,1.35,0,0,0,.06-.35,7,7,0,0,0,2.5,2.35,7.17,7.17,0,0,0,3.47.9,7.09,7.09,0,0,0,4.85-1.9,1,1,0,0,0,.14.28,1.1,1.1,0,0,0,.83.48h.1a1.14,1.14,0,0,0,.86-.4l.24.24a5.08,5.08,0,0,0,4.5,1.35h0a4.24,4.24,0,0,0-.22,1.38v.09a5,5,0,0,0,0,.67h0a5.11,5.11,0,0,0,1.87,3.29,3.39,3.39,0,0,0,.28.2h0a3.36,3.36,0,0,0,2.52,1.89,1.24,1.24,0,0,0,.17.37l0,0a1.15,1.15,0,0,0,.91.46,1.12,1.12,0,0,0,.93-.49,1.19,1.19,0,0,0,.12-.22,1,1,0,0,0,.08-.41c0-.06,0-.11,0-.16A3.28,3.28,0,0,0,275,61.38h0a.76.76,0,0,0,.16-.11l.12-.08.38-.34a5.13,5.13,0,0,0,1.49-3h0c0-.22,0-.45,0-.67a4.63,4.63,0,0,0-.22-1.45,4.38,4.38,0,0,0-.41-1h0a2.76,2.76,0,0,0,.46-.37,3.3,3.3,0,0,0,.91-1.64h0a3,3,0,0,0,.07-.67A3.3,3.3,0,0,0,277,49.79Zm-28.7-.15,0,0s0,0,0,0Z" transform="translate(-17.73 -28.95)"/><path class="cls-62" d="M241.57,45.7a.22.22,0,0,1-.22-.22,3.71,3.71,0,0,1,3.74-3.67.22.22,0,0,1,0,.44,3.27,3.27,0,0,0-3.3,3.23A.22.22,0,0,1,241.57,45.7Z" transform="translate(-17.73 -28.95)"/><path class="cls-62" d="M255.35,54.37a3.75,3.75,0,0,1-2.64-1.07.21.21,0,0,1,0-.31.22.22,0,0,1,.31,0,3.36,3.36,0,0,0,4.67,0,.22.22,0,0,1,.31,0,.23.23,0,0,1,0,.31A3.75,3.75,0,0,1,255.35,54.37Z" transform="translate(-17.73 -28.95)"/><path class="cls-62" d="M243.94,57.24a.22.22,0,0,1-.22-.22.22.22,0,0,1,.22-.22,1.21,1.21,0,0,0,1.22-1.19.22.22,0,0,1,.44,0A1.64,1.64,0,0,1,243.94,57.24Z" transform="translate(-17.73 -28.95)"/><path class="cls-62" d="M272.3,61a3.71,3.71,0,0,1-3.74-3.66.22.22,0,0,1,.44,0,3.26,3.26,0,0,0,3.3,3.22.22.22,0,0,1,.22.22A.22.22,0,0,1,272.3,61Z" transform="translate(-17.73 -28.95)"/><polygon class="cls-3" points="262.12 136.2 262.12 142.47 256.7 139.33 251.28 136.2 256.7 133.07 262.12 129.94 262.12 136.2"/><path class="cls-63" d="M299.72,153.5s56.93,6-23.55,11.65" transform="translate(-17.73 -28.95)"/><polygon class="cls-3" points="29.85 6.83 30.55 0.6 35.59 4.32 40.63 8.03 34.89 10.54 29.16 13.05 29.85 6.83"/><path class="cls-64" d="M37.36,54.11s-7-19.76,14.15-18.66" transform="translate(-17.73 -28.95)"/><path class="cls-65" d="M64.59,145.9l-2.16-23.34a3.94,3.94,0,0,0-4.62-3,4,4,0,0,0-3.1,4,5.19,5.19,0,0,0,0,.68l2.15,19,.64,5.68,1.13,3.24h0v0h0l0,.08,9.15,4.07.12.05h0l11.44,5.17,1.71-3.25h0l1.4-2.69.55-1Z" transform="translate(-17.73 -28.95)"/><path class="cls-66" d="M56.64,119.89l-7.16,1S46.3,156,48.23,181.11c0,0,13.9,9.18,14.9,3.06,1.74-10.61-4.52-40.11-3.46-52.08C60.16,126.56,57.15,122.45,56.64,119.89Z" transform="translate(-17.73 -28.95)"/><path class="cls-67" d="M74.41,159.61H61.7l-16.23-3.93a1.26,1.26,0,0,0-1.53,1l-.21.91a1.33,1.33,0,0,0,1,1.58l16.32,4h.09a1,1,0,0,0,.34.06l13,0A1.15,1.15,0,0,0,75.55,162v-1.22A1.17,1.17,0,0,0,74.41,159.61Z" transform="translate(-17.73 -28.95)"/><rect class="cls-68" x="61.46" y="158.02" width="25.85" height="3.98" rx="1.99" transform="translate(131.04 291.07) rotate(-180)"/><rect class="cls-69" y="110.65" width="7.13" height="19.17" rx="3.51"/><path class="cls-70" d="M23,156.4l.78,12.79,4.93,16.11a1.28,1.28,0,0,1-.89,1.6l-.91.26a1.31,1.31,0,0,1-1.64-.86l-5-16.2s0-.06,0-.09a1,1,0,0,1-.08-.34l-.8-13.07a1.16,1.16,0,0,1,1.11-1.21l1.23-.07A1.17,1.17,0,0,1,23,156.4Z" transform="translate(-17.73 -28.95)"/><path class="cls-71" d="M32,148.5l-1.46-22.22a2.11,2.11,0,0,0-2.43-1.73l-4.6.26a2.08,2.08,0,0,0-1.78,2.36l2.82,21.72-1.08,21.87a2.09,2.09,0,0,0,1.88,2.29l3.76.19a2.12,2.12,0,0,0,2.36-1.82L32,149.07h0A2.1,2.1,0,0,0,32,148.5Z" transform="translate(-17.73 -28.95)"/><path class="cls-49" d="M73,220.59,55.88,188.31h0v-2.22a.17.17,0,0,0-.17-.17h-17a.18.18,0,0,0-.17.17v2.22h.07L21.49,220.59a1.93,1.93,0,0,0,.87,2.62h0a2,2,0,0,0,2.69-.84L42.7,189a1.74,1.74,0,0,0,.19-.69h8.66a1.76,1.76,0,0,0,.2.69l17.64,33.37a2,2,0,0,0,2.7.84h0A1.92,1.92,0,0,0,73,220.59Z" transform="translate(-17.73 -28.95)"/><rect class="cls-72" x="44.16" y="162.09" width="6.92" height="45.52" rx="3.46" transform="translate(-154.96 203.52) rotate(-90)"/><rect class="cls-73" x="23.1" y="180.07" width="48.42" height="5.85" rx="2.79" transform="translate(76.88 337.04) rotate(-180)"/><path class="cls-74" d="M73.88,220.59,56.81,188.31h0v-2.22a.17.17,0,0,0-.17-.17h-17a.18.18,0,0,0-.17.17v2.22h.07L22.42,220.59a1.93,1.93,0,0,0,.87,2.62h0a2,2,0,0,0,2.69-.84L43.63,189a1.59,1.59,0,0,0,.19-.69h8.66a1.76,1.76,0,0,0,.2.69l17.65,33.37a2,2,0,0,0,2.69.84h0A1.92,1.92,0,0,0,73.88,220.59Z" transform="translate(-17.73 -28.95)"/><path class="cls-75" d="M39.29,174.18A285.9,285.9,0,0,0,71.46,179a1.82,1.82,0,0,1,.87,1.83c-.1,1.35-3.2,12.14,2.62,29.79" transform="translate(-17.73 -28.95)"/><polyline class="cls-25" points="27.95 136.46 41.4 145.23 42.69 143.19 29.6 133.69"/><path class="cls-26" d="M36.94,134.65a.22.22,0,0,1-.21-.14,2.81,2.81,0,0,1,1.69-3.6.2.2,0,0,1,.27.12.21.21,0,0,1-.13.27,2.39,2.39,0,0,0-1.35,1.24,2.42,2.42,0,0,0-.09,1.83.21.21,0,0,1-.12.27Z" transform="translate(-17.73 -28.95)"/><path class="cls-33" d="M43.05,152" transform="translate(-17.73 -28.95)"/><path class="cls-33" d="M48.07,152" transform="translate(-17.73 -28.95)"/><path class="cls-34" d="M45.75,148.86" transform="translate(-17.73 -28.95)"/><path class="cls-34" d="M48.61,151.67" transform="translate(-17.73 -28.95)"/><line class="cls-46" x1="11.59" y1="126.03" x2="11.64" y2="127.5"/><polygon class="cls-32" points="33.68 132.21 31.04 130.06 22.31 130.06 20.53 132.21 20.53 135.6 22.12 137.24 30.88 137.24 33.68 135.03 33.68 132.21"/><path class="cls-76" d="M52.22,119.29l.46,0a2.28,2.28,0,0,0-.47.23A1.48,1.48,0,0,0,52.22,119.29Z" transform="translate(-17.73 -28.95)"/><path class="cls-77" d="M71.74,175.14c2.75-.1-5.85,17.13,9,36.23,0,0,.1,0,.16,0a2,2,0,0,0,.6,0,2.34,2.34,0,0,0,1-.28c1.75-.92,1.26-.39,1.75-.92s-2-3.45-2.08-4.18c-1.62-11.57-1.62-36.25-3.67-38.14a2.42,2.42,0,0,0-.86-.51C57.34,160.21,43.81,160,40,160.57a2.46,2.46,0,0,0-1.66,1c-1.41,2-4.23,7.12.44,11.08A142.84,142.84,0,0,0,71.74,175.14Z" transform="translate(-17.73 -28.95)"/><path class="cls-78" d="M52.57,131.8c-1.5-5.2-.42-9.66-.36-12.3a2.4,2.4,0,0,0-.51.4l-18.92.36h0L34.08,135l.64,7.26,1.22,13.87v0l.3,3.45v0l.07.85.12,1.47.18,2.1,0,.31v.07l.15,1.75,0,.4v.06l20.45-4.42s0,0,0-.06,0-.27,0-.4c0-.59.05-1.15.06-1.72a.27.27,0,0,0,0-.09c0-.1,0-.2,0-.29.18-4.64.25-8.87.25-12.7C55.58,141.24,53.76,135.91,52.57,131.8Zm.11-12.53,1.12-.06A1.76,1.76,0,0,0,52.68,119.27Z" transform="translate(-17.73 -28.95)"/><path class="cls-35" d="M96.34,214s-9.66-4.72-13.7-7a7,7,0,0,0-5.88-.21l10.81,6.5Z" transform="translate(-17.73 -28.95)"/><path class="cls-35" d="M87.57,213.31l-10.81-6.5-.5,6.34a.47.47,0,0,0,.49.5Z" transform="translate(-17.73 -28.95)"/><path class="cls-49" d="M96.34,214s-9.85-4.21-13.9-6.45a7,7,0,0,0-5.88-.21l10.81,6.5Z" transform="translate(-17.73 -28.95)"/><path class="cls-79" d="M90.27,209.61c-3.18-1.49-6.41-3.81-5.76-6.89a1,1,0,0,0-.91-1.21l-3.81-.25a1,1,0,0,0-1,1.32c1,2.3,3.7,6.76,10.74,8.83a1.26,1.26,0,0,0,.27,0h0A1,1,0,0,0,90.27,209.61Z" transform="translate(-17.73 -28.95)"/><path class="cls-49" d="M87.37,213.82l-10.81-6.5-.49,6.34a.47.47,0,0,0,.49.5Z" transform="translate(-17.73 -28.95)"/><path class="cls-51" d="M87.37,213.82l9,.16v-.19a6.31,6.31,0,0,0-.08-.76,4.77,4.77,0,0,0-4.38-4.22H91.5l-.24,0a4,4,0,0,0-1.07.3,4.7,4.7,0,0,0-2,1.86h0a1.82,1.82,0,0,0-.15.27A5.56,5.56,0,0,0,87.37,213.82Z" transform="translate(-17.73 -28.95)"/><path class="cls-48" d="M96.34,214l.09.67-20.49.29s-.23-2,.2-2.22c0,0,.1,1.24,11.36.76Z" transform="translate(-17.73 -28.95)"/><path class="cls-3" d="M91.61,163.83a.86.86,0,0,1,.1.58l0,.16h0a.87.87,0,0,1-.49.47l-.1,0a.84.84,0,0,1-.49,0,32.69,32.69,0,0,1-6.88-3.62,23.33,23.33,0,0,1-2-1.54c-.11-.1-.22-.2-.32-.31a4.67,4.67,0,0,1-.36-.51l-.1-.17a1.42,1.42,0,0,1-.08-.18l0-.07,0,0a3.36,3.36,0,0,1,.2-2.91s0,0,0,0h0a18.16,18.16,0,0,1,2.86,1.17l.64.33A17.68,17.68,0,0,1,91.61,163.83Z" transform="translate(-17.73 -28.95)"/><path class="cls-3" d="M82.08,158.12l.37.74.21.43,1,2.12.83,1.68a.65.65,0,0,1-.29.86l-.07,0a.64.64,0,0,1-.86-.29l-2-4.14-.25-.5-.08-.17-.08-.17a.61.61,0,0,1-.05-.12.66.66,0,0,1,.34-.74l.07,0A.62.62,0,0,1,82.08,158.12Z" transform="translate(-17.73 -28.95)"/><path class="cls-27" d="M91.16,165l-.09,0c-.63-2-6.37-4.88-6.43-4.91a.05.05,0,0,1,0-.09C84.93,160.19,90.52,163,91.16,165Z" transform="translate(-17.73 -28.95)"/><path class="cls-27" d="M91.71,164.41c-.78-2.06-4.32-4.92-4.48-5a.06.06,0,0,0-.07,0,0,0,0,0,0,0,.07s3.82,3.07,4.49,5.12h0Z" transform="translate(-17.73 -28.95)"/><path class="cls-25" d="M84.58,157.15a3.43,3.43,0,0,1-1.24,1.76,3.48,3.48,0,0,1-.68.38,3.38,3.38,0,0,1-1.25.27h-.13l-.25-.5-.08-.17-.08-.17a.61.61,0,0,1-.05-.12,3.36,3.36,0,0,1,.2-2.91s0,0,0,0h0a18.16,18.16,0,0,1,2.86,1.17Z" transform="translate(-17.73 -28.95)"/><path class="cls-80" d="M68.53,182.4c2.75-.11-5.85,17.12,9,36.23,0,0,.1,0,.16,0a2.43,2.43,0,0,0,.6,0,2.34,2.34,0,0,0,1-.28c1.75-.91,1.26-.39,1.75-.91s-2-3.46-2.08-4.18c-1.62-11.58-1.62-36.25-3.67-38.14a2.61,2.61,0,0,0-.86-.52c-20.33-7.21-33.86-7.41-37.65-6.84a2.45,2.45,0,0,0-1.66,1c-1.41,2-4.08,8.58.58,12.54A229.7,229.7,0,0,0,68.53,182.4Z" transform="translate(-17.73 -28.95)"/><path class="cls-81" d="M34.08,153.66" transform="translate(-17.73 -28.95)"/><rect class="cls-22" x="30.72" y="95.04" width="2.29" height="2.24" rx="1.01" transform="translate(50.71 161.68) rotate(177.16)"/><rect class="cls-22" x="58.76" y="84.94" width="2.29" height="2.24" rx="1.01" transform="translate(106.27 140.11) rotate(177.16)"/><rect class="cls-23" x="27.74" y="65.13" width="27.35" height="26.8" rx="12.06" transform="translate(68.93 125.97) rotate(177.16)"/><rect class="cls-22" x="52.57" y="75.86" width="10.51" height="10.3" rx="4.64" transform="translate(101.86 130.12) rotate(177.16)"/><rect class="cls-22" x="27.33" y="87.52" width="6.7" height="6.56" rx="2.95" transform="translate(48.08 151.02) rotate(177.16)"/><path class="cls-25" d="M28.82,93.72a3.23,3.23,0,0,0,3.07,3h.35l-.32-6.4-.34,0a3.21,3.21,0,0,0-1.9,1l-.08.1a.81.81,0,0,0-.12.14,2.73,2.73,0,0,0-.41.72A3.14,3.14,0,0,0,28.82,93.72Z" transform="translate(-17.73 -28.95)"/><path class="cls-3" d="M39.67,113.93l.35,6.94a5.3,5.3,0,0,0,5.51,5l1.75-.09a5.28,5.28,0,0,0,5-5.55l-.34-7a5.3,5.3,0,0,0-5.51-5l-1.75.09A5.3,5.3,0,0,0,39.67,113.93Z" transform="translate(-17.73 -28.95)"/><path class="cls-25" d="M31.24,83.57l1,20.09L38,114.21a14.83,14.83,0,0,0,1.71,1.06l.11,2.24a14.2,14.2,0,0,0,7.42,1.64A13.92,13.92,0,0,0,52.15,118L52,115.8h0a14,14,0,0,0,8.66-13.55l-1-20.09c0-.45-.06-.89-.13-1.33l-.09-.5h0a11.17,11.17,0,0,0-.35-1.41A13.5,13.5,0,0,0,56.51,74c-.14-.16-.27-.32-.42-.47a1.63,1.63,0,0,0-.26-.27s-.08-.09-.13-.14-.2-.2-.31-.3a5,5,0,0,0-.41-.39,14.39,14.39,0,0,0-2.52-1.76,1.4,1.4,0,0,0-.17-.09l-.1,0,0,0-.29-.14c-.46-.23-.93-.43-1.42-.62l-.57-.18-.1,0c-.41-.12-.81-.23-1.23-.32a13,13,0,0,0-2-.28h0l-.74,0c-.35,0-.69,0-1,0l-.24,0-.72.07-.41,0s0,0-.08,0a13.64,13.64,0,0,0-1.57.32h0a12.44,12.44,0,0,0-1.38.47c-.28.1-.56.21-.83.33h0l-.3.14-.09,0a11.6,11.6,0,0,0-1.29.73l-.06,0c-.22.13-.42.28-.63.43a13.36,13.36,0,0,0-1.9,1.61.85.85,0,0,0-.16.17,1.49,1.49,0,0,0-.17.18l0,0c-.26.29-.51.58-.74.88s-.34.45-.51.69a11.88,11.88,0,0,0-.75,1.23l-.07.13c0,.08-.08.17-.13.25s-.08.17-.12.25a2.64,2.64,0,0,0-.18.38,1,1,0,0,0,0,.12c-.06.12-.1.24-.15.36a13,13,0,0,0-.76,2.68,1.55,1.55,0,0,0-.05.23c-.06.42-.11.83-.14,1.25v0c0,.24,0,.49,0,.74a1.21,1.21,0,0,0,0,.19C31.22,83.15,31.23,83.36,31.24,83.57Z" transform="translate(-17.73 -28.95)"/><path class="cls-3" d="M31.13,81.33l1.1,22.33A13.85,13.85,0,0,0,38,114.21a14.83,14.83,0,0,0,1.71,1.06,14.2,14.2,0,0,0,7.42,1.65A13.93,13.93,0,0,0,52,115.8h0a14,14,0,0,0,8.66-13.55l-1.1-22.33c0-.45-.07-.88-.13-1.32l-.09-.51h0A11.61,11.61,0,0,0,59,76.67a13.5,13.5,0,0,0-2.64-4.89L56,71.31a3.18,3.18,0,0,0-.26-.27.92.92,0,0,0-.14-.14,2.76,2.76,0,0,0-.3-.29c-.13-.14-.27-.27-.41-.4a14.18,14.18,0,0,0-2.52-1.75.64.64,0,0,0-.18-.1l-.09,0s0,0,0,0a2,2,0,0,0-.29-.14,11.42,11.42,0,0,0-1.43-.62l-.56-.19-.11,0c-.41-.12-.81-.23-1.22-.31a11.83,11.83,0,0,0-2-.28h0l-.73,0c-.35,0-.69,0-1,0l-.24,0-.72.08-.41,0h-.08c-.53.09-1.06.2-1.57.34h0a13.3,13.3,0,0,0-1.39.46c-.27.1-.55.21-.82.33h0l-.3.14-.09,0a10.13,10.13,0,0,0-1.29.72l-.06,0c-.22.13-.42.28-.63.43a12.8,12.8,0,0,0-1.9,1.62.81.81,0,0,0-.16.16,1,1,0,0,0-.17.18s0,0,0,0c-.26.28-.51.57-.74.87s-.34.45-.51.7a9.61,9.61,0,0,0-.75,1.23.75.75,0,0,0-.07.12c0,.08-.08.18-.13.26a1.79,1.79,0,0,0-.12.24c-.07.13-.13.26-.19.38s0,.09,0,.12-.1.24-.15.36a12.43,12.43,0,0,0-.76,2.68,1.69,1.69,0,0,0,0,.24c-.06.41-.11.82-.14,1.24v0c0,.25,0,.49,0,.74a1.27,1.27,0,0,0,0,.2C31.11,80.91,31.12,81.12,31.13,81.33Z" transform="translate(-17.73 -28.95)"/><path class="cls-38" d="M49,98.64" transform="translate(-17.73 -28.95)"/><path class="cls-39" d="M43.59,88.17a3.93,3.93,0,0,0-5.22,1.71" transform="translate(-17.73 -28.95)"/><rect class="cls-82" x="52.03" y="91.42" width="2.91" height="4.22" rx="1.45" transform="translate(93.8 155.35) rotate(177.16)"/><rect class="cls-83" x="40.98" y="91.97" width="2.91" height="4.22" rx="1.45" transform="translate(71.73 157) rotate(177.16)"/><path class="cls-42" d="M48.59,96.53s0,3.65,2.07,4.69-1.2,2.33-1.2,2.33" transform="translate(-17.73 -28.95)"/><path class="cls-39" d="M51.74,87.77A3.93,3.93,0,0,1,57.11,89" transform="translate(-17.73 -28.95)"/><path class="cls-43" d="M29.56,95.15" transform="translate(-17.73 -28.95)"/><path class="cls-44" d="M61.7,89.53" transform="translate(-17.73 -28.95)"/><path class="cls-44" d="M30.72,88.26" transform="translate(-17.73 -28.95)"/><path class="cls-44" d="M55.61,87.59" transform="translate(-17.73 -28.95)"/><ellipse class="cls-4" cx="54.64" cy="92.67" rx="0.59" ry="0.58" transform="translate(-22.26 -26.13) rotate(-2.84)"/><path class="cls-44" d="M33.85,86.75" transform="translate(-17.73 -28.95)"/><path class="cls-44" d="M46.76,78.27" transform="translate(-17.73 -28.95)"/><ellipse class="cls-4" cx="43.84" cy="93.21" rx="0.59" ry="0.58" transform="translate(-22.3 -26.66) rotate(-2.84)"/><path class="cls-45" d="M52.26,107.78s-1.57,1-5.71.28" transform="translate(-17.73 -28.95)"/><rect class="cls-59" x="50.49" y="90.4" width="9.69" height="5.65" rx="1.61" transform="translate(97.47 154.64) rotate(177.16)"/><rect class="cls-59" x="37.05" y="91.07" width="9.69" height="5.65" rx="1.61" transform="translate(70.65 156.64) rotate(177.16)"/><path class="cls-60" d="M52,90.56l-7,.35a1.62,1.62,0,0,1,1.66,1l3.77-.19S50.4,90.64,52,90.56Z" transform="translate(-17.73 -28.95)"/><path class="cls-60" d="M30.92,89.69l7.6,1.54a1.84,1.84,0,0,0-1.29.77l-7.85-1.73A1.35,1.35,0,0,1,30.92,89.69Z" transform="translate(-17.73 -28.95)"/><path class="cls-84" d="M26.89,79.22a.18.18,0,0,1,.05-.07,3.81,3.81,0,0,1,.76-.62s0,0,0,0A3.51,3.51,0,0,1,27,78a3.22,3.22,0,0,1-.89-1.29l-.1-.32a3.52,3.52,0,0,1-.1-.65,3.19,3.19,0,0,1,.86-2.37,3.38,3.38,0,0,1,1.58-1,1,1,0,0,1,.26-.06,2.54,2.54,0,0,1-.24-.72v0a1.93,1.93,0,0,1-.08-.49,3.32,3.32,0,0,1,4.32-3.29A3.33,3.33,0,0,1,35.75,65a3.73,3.73,0,0,1,1,.12,3.36,3.36,0,0,1,6-.16,5.41,5.41,0,0,1,1.88-.46,5.22,5.22,0,0,1,2.13.34,3.34,3.34,0,0,1,4.44.35,1.15,1.15,0,0,1,1-.76,1.16,1.16,0,0,1,.85.31,3.36,3.36,0,0,1,1.87-.69,3.4,3.4,0,0,1,2.41.84,3.21,3.21,0,0,1,1.1,2.27,3.13,3.13,0,0,1,0,.53v0a3.61,3.61,0,0,1-.15.65.68.68,0,0,1,.2,0h0a5.23,5.23,0,0,1,3.75,1.32A5.12,5.12,0,0,1,64,73.24a3.75,3.75,0,0,1,0,.67A5.17,5.17,0,0,1,61,78.14a2.83,2.83,0,0,1,.46,1.12,2.32,2.32,0,0,1,.06.46v.21a2.51,2.51,0,0,1,0,.55v0l-.26.9a1.78,1.78,0,0,1,.36.19,1.57,1.57,0,0,1,.21.17,2.24,2.24,0,0,1,.75,1.56,2.46,2.46,0,0,1-.07.67h0a2.31,2.31,0,0,1-2.11,1.68,2.49,2.49,0,0,1-.68-.08,2.31,2.31,0,0,1-1-.5,2.37,2.37,0,0,1-.33-.38,2.25,2.25,0,0,1-.29-.5h0a3,3,0,0,1-.13-.66v-.17a3.3,3.3,0,0,1-2.92-1.66,1.17,1.17,0,0,1-.15-.27,2.8,2.8,0,0,1-.2-.62v0a1.45,1.45,0,0,1-.07-.35A7.14,7.14,0,0,1,43.9,82.36a1.39,1.39,0,0,1-.12.28,1.12,1.12,0,0,1-.81.52s0,0,0,0l-.09,0a1.15,1.15,0,0,1-.87-.36,1.9,1.9,0,0,1-.24.25,5.2,5.2,0,0,1-3.53,1.62,5.43,5.43,0,0,1-.9,0h0a4.2,4.2,0,0,1,.3,1.37v.09a5,5,0,0,1,0,.67h0a5.13,5.13,0,0,1-1.71,3.38,3.2,3.2,0,0,1-.27.22,0,0,0,0,0,0,0,3.33,3.33,0,0,1-2.43,2,1,1,0,0,1-.15.38.08.08,0,0,1,0,0,1.16,1.16,0,0,1-.88.5,1.15,1.15,0,0,1-1-.44.71.71,0,0,1-.13-.22.91.91,0,0,1-.1-.4.81.81,0,0,1,0-.16,3.32,3.32,0,0,1-1.43-1.42h0a.57.57,0,0,1-.16-.11l-.13-.07-.4-.32a5.12,5.12,0,0,1-1.63-2.89h0a5.1,5.1,0,0,1-.08-.67,4.62,4.62,0,0,1,.15-1.45,4.06,4.06,0,0,1,.36-1h0a3.21,3.21,0,0,1-.48-.34,3.36,3.36,0,0,1-1-1.59v0a3,3,0,0,1-.1-.67A3.23,3.23,0,0,1,26.89,79.22Zm28.65-1.58,0,0s0,0,0,0A.06.06,0,0,0,55.54,77.64Z" transform="translate(-17.73 -28.95)"/><path class="cls-62" d="M62.11,73.37a.22.22,0,0,0,.21-.23,3.71,3.71,0,0,0-3.92-3.48.23.23,0,0,0-.21.23.22.22,0,0,0,.23.21,3.28,3.28,0,0,1,3.46,3.06A.22.22,0,0,0,62.11,73.37Z" transform="translate(-17.73 -28.95)"/><path class="cls-62" d="M48.77,82.72a3.77,3.77,0,0,0,2.59-1.2.22.22,0,0,0,0-.31.21.21,0,0,0-.31,0,3.36,3.36,0,0,1-4.67.23.22.22,0,0,0-.29.33A3.74,3.74,0,0,0,48.77,82.72Z" transform="translate(-17.73 -28.95)"/><path class="cls-62" d="M60.31,85a.22.22,0,1,0,0-.44A1.2,1.2,0,0,1,59,83.45a.22.22,0,1,0-.44,0A1.63,1.63,0,0,0,60.31,85Z" transform="translate(-17.73 -28.95)"/><path class="cls-62" d="M32.18,90.13a3.71,3.71,0,0,0,3.55-3.85.23.23,0,0,0-.23-.21.22.22,0,0,0-.21.23,3.27,3.27,0,0,1-3.14,3.39.23.23,0,0,0-.21.23A.22.22,0,0,0,32.18,90.13Z" transform="translate(-17.73 -28.95)"/><path class="cls-85" d="M52.15,118l1.28-.06s3.13.64,3.36,2.54c.29,2.45.52,4.09,3.26,5.37,3.3,1.53-1,3-3.21,2.43a1.8,1.8,0,0,0-2.28,1.47l-.77,6S49.85,125,52.15,118Z" transform="translate(-17.73 -28.95)"/><path class="cls-35" d="M94.53,223s-9.66-4.72-13.7-7a7,7,0,0,0-5.88-.21l10.81,6.5Z" transform="translate(-17.73 -28.95)"/><path class="cls-35" d="M85.76,222.34,75,215.84l-.5,6.34a.47.47,0,0,0,.49.5Z" transform="translate(-17.73 -28.95)"/><path class="cls-49" d="M94.53,223s-9.85-4.21-13.9-6.45a7,7,0,0,0-5.88-.21l10.81,6.5Z" transform="translate(-17.73 -28.95)"/><path class="cls-86" d="M88.46,218.64c-3.18-1.49-6.41-3.8-5.77-6.89a1,1,0,0,0-.9-1.21L78,210.29a1,1,0,0,0-1,1.32c1,2.3,3.7,6.76,10.74,8.83a1.26,1.26,0,0,0,.27,0h0A1,1,0,0,0,88.46,218.64Z" transform="translate(-17.73 -28.95)"/><path class="cls-49" d="M85.56,222.85l-10.81-6.5-.49,6.34a.46.46,0,0,0,.48.5Z" transform="translate(-17.73 -28.95)"/><path class="cls-51" d="M85.56,222.85l9,.16a1.21,1.21,0,0,0,0-.19,5.11,5.11,0,0,0-4.46-5h-.37l-.24,0a3.65,3.65,0,0,0-1.07.31,4.62,4.62,0,0,0-2,1.85h0a1.82,1.82,0,0,0-.15.27A5.44,5.44,0,0,0,85.56,222.85Z" transform="translate(-17.73 -28.95)"/><path class="cls-48" d="M94.53,223l.08.67L74.13,224s-.23-2,.2-2.22c0,0,.1,1.24,11.36.76Z" transform="translate(-17.73 -28.95)"/><path class="cls-87" d="M94,210.74a.33.33,0,0,1-.25-.11,2,2,0,0,0-2.76-.27.32.32,0,0,1-.4-.51,2.64,2.64,0,0,1,3.65.36.32.32,0,0,1,0,.46A.31.31,0,0,1,94,210.74Z" transform="translate(-17.73 -28.95)"/><path class="cls-87" d="M92.44,219.76a.32.32,0,0,1-.25-.12,2,2,0,0,0-2.76-.27.32.32,0,1,1-.4-.5,2.63,2.63,0,0,1,3.65.36.31.31,0,0,1,0,.45A.32.32,0,0,1,92.44,219.76Z" transform="translate(-17.73 -28.95)"/><path class="cls-88" d="M58.64,135.39a6.52,6.52,0,0,1-3.55.72" transform="translate(-17.73 -28.95)"/><line class="cls-89" x1="41.06" y1="123.09" x2="41.05" y2="123.06"/><path class="cls-90" d="M60.44,149l.27,3.78a.25.25,0,0,0,.15.21L68,156.19l.12.05h0l11.23,5.08a.26.26,0,0,0,.32-.11l1.6-3.05h0l1.4-2.69.55-1.05L64.72,146a.23.23,0,0,0-.24,0l-3.94,2.83A.23.23,0,0,0,60.44,149Z" transform="translate(-17.73 -28.95)"/><path class="cls-91" d="M40,119.9l-7.73.33s-5.93,34.65-6.35,59.84c0,0,13,10.43,14.55,4.44,2.73-10.41-.76-40.36,1.41-52.18C42.85,126.87,40.24,122.5,40,119.9Z" transform="translate(-17.73 -28.95)"/><path class="cls-92" d="M51.27,170.79l-12.71,0-16.23-3.93a1.26,1.26,0,0,0-1.53,1l-.21.91a1.32,1.32,0,0,0,1,1.58l16.32,3.95H38a1,1,0,0,0,.34.06l13,0a1.15,1.15,0,0,0,1.14-1.17V172A1.17,1.17,0,0,0,51.27,170.79Z" transform="translate(-17.73 -28.95)"/><rect class="cls-93" x="38.32" y="169.19" width="25.85" height="3.98" rx="1.99" transform="translate(84.76 313.41) rotate(-180)"/><path class="cls-3" d="M68.33,173a.81.81,0,0,1,.24.54v.16h0a.83.83,0,0,1-.35.57.24.24,0,0,1-.08.06.79.79,0,0,1-.49.09,33.53,33.53,0,0,1-7.58-1.69,22.92,22.92,0,0,1-2.3-1,3.64,3.64,0,0,1-.39-.23,3.11,3.11,0,0,1-.49-.39l-.14-.14-.13-.15,0-.06,0,0a3.36,3.36,0,0,1-.57-2.86h0s0,0,0,0a16.7,16.7,0,0,1,3.07.37l.7.15A17.71,17.71,0,0,1,68.33,173Z" transform="translate(-17.73 -28.95)"/><path class="cls-3" d="M60.47,168.46l.65,0,.38,0,1.87.1,1.48.08c.28,0,.41.28.29.59l0,.06a.81.81,0,0,1-.72.52l-3.64-.2-.45,0H60l-.1,0a.38.38,0,0,1-.19-.56l0-.06A.82.82,0,0,1,60.47,168.46Z" transform="translate(-17.73 -28.95)"/><path class="cls-27" d="M68.21,174.26a.24.24,0,0,1-.08.06c-1.15-1.8-7.42-3-7.49-3.06s0,0,0-.06a.07.07,0,0,1,.06,0C60.92,171.22,67,172.43,68.21,174.26Z" transform="translate(-17.73 -28.95)"/><path class="cls-27" d="M68.57,173.52c-1.29-1.79-5.46-3.62-5.64-3.7,0,0,0,0-.06,0s0,.05,0,.07,4.49,2,5.67,3.76h0Z" transform="translate(-17.73 -28.95)"/><path class="cls-25" d="M59.79,168.37a3.42,3.42,0,0,1-.73,2,3.23,3.23,0,0,1-.56.55,3.37,3.37,0,0,1-1.13.58s.08,0,0,0l-.54-.42-.13-.14-.12-.14a.28.28,0,0,1-.08-.11,3.36,3.36,0,0,1-.57-2.86h0s0,0,0,0a16.7,16.7,0,0,1,3.07.37Z" transform="translate(-17.73 -28.95)"/><path class="cls-94" d="M55.86,173.38c-7.87-4.46-22.75-10.86-26.21-13.57A4.8,4.8,0,0,1,28,157.4a3.79,3.79,0,0,1-.17-1l-1.39-30.64a8.64,8.64,0,0,1,0-.88c.1-2.42,1.56-4.51,3.59-5,2.27-.47,4.42,1.3,4.88,4L36,153.07a2,2,0,0,0,.95,1.61l21.88,12.57Z" transform="translate(-17.73 -28.95)"/><path class="cls-95" d="M39.89,118.75l-1.28.07s-3,1-3.09,2.86c-.05,2.46-.11,4.12-2.72,5.66-3.13,1.86,1.26,2.95,3.44,2.1,1-.4,1.6.28,2.41,1.25l2.43,5.63S44.65,127.09,39.89,118.75Z" transform="translate(-17.73 -28.95)"/><path class="cls-75" d="M40.63,175.68a285.44,285.44,0,0,0,32.17,4.78,1.84,1.84,0,0,1,.87,1.83c-.11,1.35-3.21,12.14,2.62,29.78" transform="translate(-17.73 -28.95)"/></svg>