<?xml version="1.0" encoding="utf-8"?>
<!-- Generator: Adobe Illustrator 25.2.1, SVG Export Plug-In . SVG Version: 6.00 Build 0)  -->
<svg version="1.1" xmlns="http://www.w3.org/2000/svg" xmlns:xlink="http://www.w3.org/1999/xlink" x="0px" y="0px"
	 viewBox="0 0 328 256" style="enable-background:new 0 0 328 256;" xml:space="preserve">
<style type="text/css">
	.st0{fill:url(#SVGID_1_);}
	.st1{fill:#27AAE1;}
	.st2{fill:#F8B133;}
	.st3{fill:#A2DEF9;}
	.st4{opacity:0.5;fill:#A2DEF9;}
	.st5{fill:#A2DEF9;stroke:#FCEA0D;stroke-width:2.6421;stroke-miterlimit:10;}
	.st6{fill:#A2DEF9;stroke:#F5F5F5;stroke-width:0.4403;stroke-linecap:round;stroke-miterlimit:10;}
	.st7{fill:#A2DEF9;stroke:#DBDDDE;stroke-width:0.8807;stroke-linecap:round;stroke-miterlimit:10;}
	.st8{fill:#A2DEF9;stroke:#260340;stroke-width:0.8807;stroke-linecap:round;stroke-miterlimit:10;}
	.st9{fill:#A2DEF9;stroke:#F8B133;stroke-width:0.8807;stroke-miterlimit:10;}
	.st10{fill:#A2DEF9;stroke:#1D70B7;stroke-width:0.4403;stroke-linecap:round;stroke-miterlimit:10;}
	
		.st11{fill:#A2DEF9;stroke:#A2DEF9;stroke-width:0.2202;stroke-linecap:round;stroke-linejoin:round;stroke-miterlimit:10;stroke-dasharray:2.6421;}
	.st12{fill:#FFFFFF;}
	.st13{fill:url(#SVGID_2_);}
	.st14{fill:url(#SVGID_3_);}
	.st15{fill:url(#SVGID_4_);}
	.st16{fill:url(#SVGID_5_);}
	.st17{fill:url(#SVGID_6_);}
	.st18{fill:url(#SVGID_7_);}
	.st19{fill:none;stroke:#F8B133;stroke-width:2.3527;stroke-linecap:round;stroke-linejoin:round;stroke-miterlimit:10;}
	.st20{fill:#EF4136;}
	.st21{fill:#534741;}
	.st22{fill:#4D4D4D;}
	.st23{fill:url(#SVGID_8_);}
	.st24{fill:#F29100;}
	.st25{fill:#35A8E0;}
	.st26{fill:#E84E1B;}
	.st27{fill:url(#SVGID_9_);}
	.st28{fill:url(#SVGID_10_);}
	.st29{fill:url(#SVGID_11_);}
	.st30{fill:url(#SVGID_12_);}
	.st31{fill:#160031;}
	.st32{fill:none;stroke:#FCEA0D;stroke-width:2.6421;stroke-miterlimit:10;}
	.st33{fill:none;stroke:#F5F5F5;stroke-width:0.4403;stroke-linecap:round;stroke-miterlimit:10;}
	.st34{opacity:0.5;fill:#160031;}
	.st35{fill:#160031;stroke:#DBDDDE;stroke-width:0.8807;stroke-linecap:round;stroke-miterlimit:10;}
	.st36{fill:none;stroke:#DBDDDE;stroke-width:0.8807;stroke-linecap:round;stroke-miterlimit:10;}
	.st37{fill:#1D70B7;stroke:#260340;stroke-width:0.8807;stroke-linecap:round;stroke-miterlimit:10;}
	.st38{fill:none;stroke:#955D61;stroke-width:0.8807;stroke-linecap:round;stroke-miterlimit:10;}
	.st39{fill:url(#SVGID_13_);}
	.st40{fill:url(#SVGID_14_);}
	.st41{fill:none;stroke:#E84E1B;stroke-width:0.4403;stroke-linecap:round;stroke-miterlimit:10;}
	.st42{fill:none;stroke:#F8B133;stroke-width:0.8807;stroke-miterlimit:10;}
	.st43{fill:none;stroke:#1D70B7;stroke-width:0.4403;stroke-linecap:round;stroke-miterlimit:10;}
	.st44{fill:none;stroke:#E84E1B;stroke-width:0.4403;stroke-linecap:round;stroke-linejoin:round;stroke-miterlimit:10;}
	.st45{fill:none;}
	
		.st46{fill:none;stroke:#A2DEF9;stroke-width:0.2202;stroke-linecap:round;stroke-linejoin:round;stroke-miterlimit:10;stroke-dasharray:2.6421;}
	.st47{fill:#260340;}
	.st48{fill:#391763;}
	.st49{fill:url(#SVGID_15_);}
	.st50{fill:#897CBA;}
	.st51{fill:url(#SVGID_16_);}
	.st52{fill:url(#SVGID_17_);}
	.st53{fill:url(#SVGID_18_);}
	.st54{fill:url(#SVGID_19_);}
	.st55{fill:url(#SVGID_20_);}
	.st56{fill:url(#SVGID_21_);}
	.st57{fill:none;stroke:#897CBA;stroke-width:0.4403;stroke-linecap:round;stroke-linejoin:round;stroke-miterlimit:10;}
	.st58{fill:none;stroke:#897CBA;stroke-width:0.4403;stroke-miterlimit:10;}
	.st59{fill:#897CBA;stroke:#897CBA;stroke-width:0.4403;stroke-miterlimit:10;}
	.st60{fill:url(#SVGID_22_);}
	.st61{fill:#F8DCB2;}
	.st62{fill:none;stroke:url(#SVGID_23_);stroke-width:3;stroke-linecap:round;stroke-linejoin:round;stroke-miterlimit:10;}
	.st63{fill:none;stroke:url(#SVGID_24_);stroke-width:3;stroke-linecap:round;stroke-linejoin:round;stroke-miterlimit:10;}
	.st64{fill:url(#SVGID_25_);}
	.st65{fill:url(#SVGID_26_);}
	.st66{fill:url(#SVGID_27_);}
	.st67{fill:url(#SVGID_28_);}
	.st68{fill:url(#SVGID_29_);}
	.st69{fill:url(#SVGID_30_);}
	.st70{fill:url(#SVGID_31_);}
	.st71{fill:url(#SVGID_32_);}
	.st72{fill:url(#SVGID_33_);}
	.st73{fill:url(#SVGID_34_);}
	.st74{fill:none;stroke:#A2DEF9;stroke-width:0.25;stroke-miterlimit:10;stroke-dasharray:2;}
	.st75{fill:url(#SVGID_35_);}
	.st76{fill:url(#SVGID_36_);}
	.st77{fill:url(#SVGID_37_);}
	.st78{fill:url(#SVGID_38_);}
	.st79{fill:url(#SVGID_39_);}
	.st80{fill:url(#SVGID_40_);}
	.st81{fill:url(#SVGID_41_);}
	.st82{fill:url(#SVGID_42_);}
	.st83{fill:url(#SVGID_43_);}
	.st84{fill:url(#SVGID_44_);}
	.st85{fill:url(#SVGID_45_);}
	.st86{fill:#DBDDDE;}
	.st87{fill:none;stroke:#897CBA;stroke-width:0.2846;stroke-linecap:round;stroke-linejoin:round;stroke-miterlimit:10;}
	.st88{fill:url(#SVGID_46_);}
	.st89{fill:url(#SVGID_47_);}
	.st90{fill:url(#SVGID_48_);}
	.st91{fill:url(#SVGID_49_);}
	.st92{fill:url(#SVGID_50_);}
	.st93{fill:url(#SVGID_51_);}
	.st94{fill:url(#SVGID_52_);}
	.st95{fill:url(#SVGID_53_);}
	.st96{fill:url(#SVGID_54_);}
	.st97{fill:url(#SVGID_55_);}
	.st98{fill:url(#SVGID_56_);}
	.st99{fill:url(#SVGID_57_);}
	.st100{fill:url(#SVGID_58_);}
	.st101{fill:url(#SVGID_59_);}
	.st102{fill:url(#SVGID_60_);}
	.st103{fill:none;stroke:#A2DEF9;stroke-width:0.927;stroke-miterlimit:10;}
	.st104{fill:url(#SVGID_61_);}
	.st105{fill:url(#SVGID_62_);}
	.st106{fill:url(#SVGID_63_);}
	
		.st107{fill:none;stroke:#A2DEF9;stroke-width:0.2041;stroke-linecap:round;stroke-linejoin:round;stroke-miterlimit:10;stroke-dasharray:2.4492;}
	.st108{fill:url(#SVGID_64_);}
	.st109{fill:url(#SVGID_65_);}
	.st110{fill:url(#SVGID_66_);}
	.st111{fill:url(#SVGID_67_);}
	.st112{fill:none;stroke:#FCEA0D;stroke-width:2.4492;stroke-miterlimit:10;}
	.st113{fill:none;stroke:#F5F5F5;stroke-width:0.4082;stroke-linecap:round;stroke-miterlimit:10;}
	.st114{fill:#1D70B7;stroke:#260340;stroke-width:0.8164;stroke-linecap:round;stroke-miterlimit:10;}
	.st115{fill:none;stroke:#955D61;stroke-width:0.8164;stroke-linecap:round;stroke-miterlimit:10;}
	.st116{fill:url(#SVGID_68_);}
	.st117{fill:url(#SVGID_69_);}
	.st118{fill:none;stroke:#E84E1B;stroke-width:0.4082;stroke-linecap:round;stroke-miterlimit:10;}
	.st119{fill:none;stroke:#F8B133;stroke-width:0.8164;stroke-miterlimit:10;}
	.st120{fill:none;stroke:#1D70B7;stroke-width:0.4082;stroke-linecap:round;stroke-miterlimit:10;}
	.st121{fill:none;stroke:#E84E1B;stroke-width:0.4082;stroke-linecap:round;stroke-linejoin:round;stroke-miterlimit:10;}
	.st122{fill:url(#SVGID_70_);}
	.st123{fill:url(#SVGID_71_);}
	.st124{fill:url(#SVGID_72_);}
	.st125{fill:none;stroke:#897CBA;stroke-width:0.4082;stroke-linecap:round;stroke-linejoin:round;stroke-miterlimit:10;}
	.st126{fill:none;stroke:#897CBA;stroke-width:0.4082;stroke-miterlimit:10;}
	.st127{fill:#897CBA;stroke:#897CBA;stroke-width:0.4082;stroke-miterlimit:10;}
	.st128{fill:url(#SVGID_73_);}
	.st129{fill:none;stroke:#DBDDDE;stroke-width:0.8164;stroke-linecap:round;stroke-miterlimit:10;}
	.st130{fill:url(#SVGID_74_);}
	.st131{fill:url(#SVGID_75_);}
	.st132{fill:url(#SVGID_76_);}
	.st133{fill:url(#SVGID_77_);}
	.st134{fill:url(#SVGID_78_);}
	.st135{fill:none;stroke:url(#SVGID_79_);stroke-width:2.781;stroke-linecap:round;stroke-linejoin:round;stroke-miterlimit:10;}
	.st136{fill:#F5F5F5;}
	.st137{fill:#2D2E82;}
	.st138{opacity:0.35;fill:none;stroke:#897CBA;stroke-width:0.6447;stroke-linecap:round;stroke-miterlimit:10;}
	.st139{opacity:0.35;fill:#897CBA;}
	.st140{fill:none;stroke:#FBB040;stroke-width:6.594;stroke-miterlimit:10;}
	.st141{fill:url(#SVGID_80_);}
	.st142{fill:url(#SVGID_81_);}
	.st143{fill:#808080;}
	.st144{fill:url(#SVGID_82_);}
	.st145{fill:none;stroke:#A2DEF9;stroke-width:0.2788;stroke-miterlimit:10;stroke-dasharray:2.2306;}
	.st146{fill:none;stroke:#FCEA0D;stroke-width:2.9467;stroke-miterlimit:10;}
	.st147{fill:none;stroke:#F5F5F5;stroke-width:0.4911;stroke-linecap:round;stroke-miterlimit:10;}
	.st148{fill:url(#SVGID_83_);}
	.st149{fill:url(#SVGID_84_);}
	.st150{fill:url(#SVGID_85_);}
	.st151{fill:#F7941D;stroke:#391763;stroke-width:0.734;stroke-miterlimit:10;}
	.st152{opacity:0.35;fill:none;stroke:#897CBA;stroke-width:0.1777;stroke-linecap:round;stroke-miterlimit:10;}
	.st153{fill:none;stroke:url(#SVGID_86_);stroke-width:2.4101;stroke-linecap:round;stroke-linejoin:round;stroke-miterlimit:10;}
	.st154{fill:url(#SVGID_87_);}
	.st155{fill:url(#SVGID_88_);}
	.st156{fill:none;stroke:#FBB040;stroke-width:6.5297;stroke-miterlimit:10;}
	.st157{fill:url(#SVGID_89_);}
	.st158{fill:url(#SVGID_90_);}
	.st159{fill:url(#SVGID_91_);}
	.st160{fill:url(#SVGID_92_);}
	.st161{fill:url(#SVGID_93_);}
	.st162{fill:url(#SVGID_94_);}
	.st163{fill:url(#SVGID_95_);}
	.st164{fill:url(#SVGID_96_);}
	.st165{fill:url(#SVGID_97_);}
	.st166{fill:url(#SVGID_98_);}
	.st167{fill:none;stroke:#F8B133;stroke-width:2;stroke-miterlimit:10;}
	.st168{fill:none;stroke:#A2DEF9;stroke-width:0.75;stroke-miterlimit:10;stroke-dasharray:2;}
	.st169{fill:#FFFFFF;stroke:#FBB040;stroke-width:4.9491;stroke-miterlimit:10;}
	.st170{fill:url(#SVGID_99_);}
	.st171{fill:none;stroke:#E7BEB0;stroke-width:0.4675;stroke-miterlimit:10;}
	.st172{fill:none;stroke:#E7BEB0;stroke-width:0.4063;stroke-miterlimit:10;}
	.st173{fill:none;stroke:#E7BEB0;stroke-width:0.3387;stroke-miterlimit:10;}
	.st174{fill:none;stroke:#E7BEB0;stroke-width:0.2656;stroke-miterlimit:10;}
	.st175{fill:none;stroke:#E7BEB0;stroke-width:0.195;stroke-miterlimit:10;}
	.st176{fill:none;stroke:#E7BEB0;stroke-width:0.1391;stroke-miterlimit:10;}
	.st177{fill:none;stroke:#E7BEB0;stroke-width:9.645370e-02;stroke-miterlimit:10;}
	.st178{fill:none;stroke:#E7BEB0;stroke-width:6.288800e-02;stroke-miterlimit:10;}
	.st179{fill:url(#SVGID_100_);}
	.st180{fill:url(#SVGID_101_);}
	.st181{fill:url(#SVGID_102_);}
	.st182{fill:url(#SVGID_103_);}
	.st183{fill:url(#SVGID_104_);}
	.st184{fill:none;stroke:#E84E1B;stroke-width:0.5;stroke-linecap:round;stroke-linejoin:round;stroke-miterlimit:10;}
	.st185{fill:url(#SVGID_105_);}
	.st186{fill:none;stroke:#35A8E0;stroke-linecap:round;stroke-linejoin:round;stroke-miterlimit:10;}
	.st187{fill:url(#SVGID_106_);}
	.st188{fill:url(#SVGID_107_);}
	.st189{fill:url(#SVGID_108_);}
	.st190{fill:url(#SVGID_109_);}
	.st191{fill:url(#SVGID_110_);}
	.st192{fill:#FFFFFF;stroke:#FBB040;stroke-width:6;stroke-miterlimit:10;}
	.st193{fill:#177466;}
	.st194{fill:url(#SVGID_111_);}
	.st195{fill:url(#SVGID_112_);}
	.st196{fill:url(#SVGID_113_);}
	.st197{fill:none;stroke:#E84E1B;stroke-width:0.2344;stroke-linecap:round;stroke-linejoin:round;stroke-miterlimit:10;}
	.st198{fill:#142A2D;}
	.st199{fill:none;stroke:#00A79D;stroke-width:0.4688;stroke-linecap:round;stroke-miterlimit:10;}
	.st200{fill:url(#SVGID_114_);}
	.st201{fill:url(#SVGID_115_);}
	.st202{fill:#FFFFFF;stroke:#FBB040;stroke-width:7;stroke-miterlimit:10;}
	.st203{fill:url(#SVGID_116_);}
	.st204{fill:#FCEA0D;}
	.st205{fill:url(#SVGID_117_);}
	.st206{fill:#2BB673;}
	.st207{fill:url(#SVGID_118_);}
	.st208{fill:url(#SVGID_119_);}
	.st209{fill:url(#SVGID_120_);}
	.st210{fill:none;stroke:#E84E1B;stroke-width:0.846;stroke-linecap:round;stroke-linejoin:round;stroke-miterlimit:10;}
	.st211{fill:url(#SVGID_121_);}
	.st212{fill:url(#SVGID_122_);}
	.st213{fill:url(#SVGID_123_);}
	.st214{fill:url(#SVGID_124_);}
	.st215{fill:url(#SVGID_125_);}
	.st216{fill:url(#SVGID_126_);}
	.st217{fill:none;stroke:#897CBA;stroke-width:1.1695;stroke-miterlimit:10;}
	.st218{fill:#897CBA;stroke:#897CBA;stroke-width:1.1695;stroke-miterlimit:10;}
	.st219{fill:#897CBA;stroke:#897CBA;stroke-width:0.7797;stroke-miterlimit:10;}
	.st220{fill:url(#SVGID_127_);}
	.st221{fill:url(#SVGID_128_);}
	.st222{fill:#FFFFFF;stroke:#FBB040;stroke-width:7.4248;stroke-miterlimit:10;}
	.st223{fill:url(#SVGID_129_);}
	.st224{fill:url(#SVGID_130_);}
	.st225{fill:url(#SVGID_131_);}
	.st226{fill:none;stroke:#E84E1B;stroke-width:0.684;stroke-linecap:round;stroke-linejoin:round;stroke-miterlimit:10;}
	.st227{fill:url(#SVGID_132_);}
	.st228{fill:url(#SVGID_133_);}
	.st229{fill:url(#SVGID_134_);}
	.st230{fill:url(#SVGID_135_);}
	.st231{fill:url(#SVGID_136_);}
	.st232{fill:url(#SVGID_137_);}
	.st233{fill:none;stroke:#897CBA;stroke-width:0.9456;stroke-miterlimit:10;}
	.st234{fill:#897CBA;stroke:#897CBA;stroke-width:0.9456;stroke-miterlimit:10;}
	.st235{fill:#897CBA;stroke:#897CBA;stroke-width:0.6304;stroke-miterlimit:10;}
	.st236{fill:url(#SVGID_138_);}
	.st237{fill:url(#SVGID_139_);}
	.st238{fill:url(#SVGID_140_);}
	.st239{fill:url(#SVGID_141_);}
	.st240{fill:none;stroke:#A2DEF9;stroke-width:0.315;stroke-miterlimit:10;stroke-dasharray:2.5204;}
	.st241{fill:none;stroke:#FCEA0D;stroke-width:3.3295;stroke-miterlimit:10;}
	.st242{fill:none;stroke:#F5F5F5;stroke-width:0.5549;stroke-linecap:round;stroke-miterlimit:10;}
	.st243{fill:url(#SVGID_142_);}
	.st244{fill:url(#SVGID_143_);}
	.st245{fill:url(#SVGID_144_);}
	.st246{fill:#F7941D;stroke:#391763;stroke-width:0.8293;stroke-miterlimit:10;}
	.st247{opacity:0.35;fill:none;stroke:#897CBA;stroke-width:0.7407;stroke-linecap:round;stroke-miterlimit:10;}
	.st248{opacity:0.35;fill:none;stroke:#897CBA;stroke-width:0.2028;stroke-linecap:round;stroke-miterlimit:10;}
	.st249{fill:none;stroke:url(#SVGID_145_);stroke-width:2.7232;stroke-linecap:round;stroke-linejoin:round;stroke-miterlimit:10;}
	.st250{fill:#FFFFFF;stroke:#FBB040;stroke-width:7.3021;stroke-miterlimit:10;}
	.st251{fill:url(#SVGID_146_);}
	.st252{fill:url(#SVGID_147_);}
	.st253{fill:url(#SVGID_148_);}
	.st254{fill:url(#SVGID_149_);}
	.st255{fill:url(#SVGID_150_);}
	.st256{fill:url(#SVGID_151_);}
	.st257{opacity:0.35;fill:none;stroke:#897CBA;stroke-width:1.1505;stroke-linecap:round;stroke-miterlimit:10;}
	.st258{fill:url(#SVGID_152_);}
	.st259{fill:url(#SVGID_153_);}
	.st260{fill:none;stroke:url(#SVGID_154_);stroke-width:2.3989;stroke-linecap:round;stroke-linejoin:round;stroke-miterlimit:10;}
</style>
<g id="TUG_test_uitvoering">
</g>
<g id="stop_knop_close_up">
</g>
<g id="Afmetingen_stoel">
</g>
<g id="Hulpmiddelen">
</g>
<g id="starten_test">
	<linearGradient id="SVGID_1_" gradientUnits="userSpaceOnUse" x1="166.6789" y1="10.0434" x2="166.6789" y2="243.349">
		<stop  offset="0" style="stop-color:#65C8D0"/>
		<stop  offset="0.1604" style="stop-color:#64C4CE"/>
		<stop  offset="0.3219" style="stop-color:#5FB8C8"/>
		<stop  offset="0.4839" style="stop-color:#58A4BE"/>
		<stop  offset="0.6465" style="stop-color:#4D87AF"/>
		<stop  offset="0.8094" style="stop-color:#40639D"/>
		<stop  offset="0.9705" style="stop-color:#303787"/>
		<stop  offset="1" style="stop-color:#2D2E82"/>
	</linearGradient>
	<circle class="st0" cx="166.7" cy="126.7" r="116.7"/>
	<circle class="st222" cx="66" cy="130.2" r="54.7"/>
	<g>
		<circle class="st21" cx="140.3" cy="187" r="5.3"/>
		<circle class="st21" cx="188.8" cy="186.9" r="3.4"/>
		<path class="st3" d="M202.1,228.6v14.9h-76v-14.9c0-3.1,2.5-5.6,5.5-5.6h65C199.7,223,202.1,225.6,202.1,228.6z"/>
		<path class="st24" d="M172.9,210.2v11.3c0,4.7-3.9,8.6-8.6,8.6c-4.7,0-8.6-3.9-8.6-8.6v-10.8c0-1.8,1.4-3.2,3.2-3.2h11.2
			C171.7,207.5,172.9,208.7,172.9,210.2z"/>
		<path class="st26" d="M188.5,172.4V193c0,10.3-6.5,19.2-15.7,22.6v2.1c-2.6,1-5.5,1.5-8.5,1.5c-3,0-5.9-0.5-8.5-1.5v-2.1
			c-9.2-3.5-15.7-12.3-15.7-22.6v-20.7c0-13.3,10.9-24.2,24.2-24.2c6.7,0,12.7,2.7,17.1,7.1C185.8,159.7,188.5,165.7,188.5,172.4z"
			/>
		<linearGradient id="SVGID_2_" gradientUnits="userSpaceOnUse" x1="164.3487" y1="219.3593" x2="164.3487" y2="143.3112">
			<stop  offset="0" style="stop-color:#F8B133"/>
			<stop  offset="0.2151" style="stop-color:#F7AE32"/>
			<stop  offset="0.3826" style="stop-color:#F6A430"/>
			<stop  offset="0.5341" style="stop-color:#F3942C"/>
			<stop  offset="0.6761" style="stop-color:#EF7C26"/>
			<stop  offset="0.8103" style="stop-color:#EB5E1F"/>
			<stop  offset="0.8718" style="stop-color:#E84E1B"/>
		</linearGradient>
		<path class="st13" d="M188.8,169.2v24.3c0,11-6.6,20.5-15.9,24.2c-2.7,1.1-5.6,1.7-8.6,1.7s-5.9-0.6-8.6-1.7
			c-9.3-3.7-15.9-13.2-15.9-24.2v-24.3c0-14.2,11-25.9,24.5-25.9c6.7,0,12.9,2.9,17.3,7.6C186.1,155.6,188.8,162.1,188.8,169.2z"/>
		<linearGradient id="SVGID_3_" gradientUnits="userSpaceOnUse" x1="195.1774" y1="179.805" x2="188.8444" y2="179.805">
			<stop  offset="4.358974e-02" style="stop-color:#F29100"/>
			<stop  offset="0.4307" style="stop-color:#F28F01"/>
			<stop  offset="0.6181" style="stop-color:#F18704"/>
			<stop  offset="0.7627" style="stop-color:#EF7A09"/>
			<stop  offset="0.8844" style="stop-color:#EC6811"/>
			<stop  offset="0.9921" style="stop-color:#E8501A"/>
			<stop  offset="1" style="stop-color:#E84E1B"/>
		</linearGradient>
		<path class="st14" d="M195.2,179.8c0,3.5-2.8,6.3-6.3,6.3v-12.7C192.3,173.5,195.2,176.3,195.2,179.8z"/>
		<linearGradient id="SVGID_4_" gradientUnits="userSpaceOnUse" x1="133.5201" y1="179.805" x2="139.8531" y2="179.805">
			<stop  offset="4.358974e-02" style="stop-color:#F29100"/>
			<stop  offset="0.4307" style="stop-color:#F28F01"/>
			<stop  offset="0.6181" style="stop-color:#F18704"/>
			<stop  offset="0.7627" style="stop-color:#EF7A09"/>
			<stop  offset="0.8844" style="stop-color:#EC6811"/>
			<stop  offset="0.9921" style="stop-color:#E8501A"/>
			<stop  offset="1" style="stop-color:#E84E1B"/>
		</linearGradient>
		<path class="st15" d="M133.5,179.8c0,3.5,2.8,6.3,6.3,6.3v-12.7C136.4,173.5,133.5,176.3,133.5,179.8z"/>
		<path class="st226" d="M163.6,187.1l0.2,5c0,1.1,0.6,1.9,1.3,2.2c0.8,0.3,1.4,1.5-1.1,5.5c0,0-0.2,0.4,0,0.6"/>
		<linearGradient id="SVGID_5_" gradientUnits="userSpaceOnUse" x1="140.8682" y1="222.3771" x2="140.8682" y2="243.5687">
			<stop  offset="0" style="stop-color:#260340"/>
			<stop  offset="0.4082" style="stop-color:#310F53"/>
			<stop  offset="0.7562" style="stop-color:#37155F"/>
			<stop  offset="1" style="stop-color:#391763"/>
		</linearGradient>
		<path class="st16" d="M155.7,223c0,0-1,5.8-4,11.9c0,0,0,0,0,0c-1.5,3-3.5,6.1-6.2,8.6h-19.3v-14.9c0,0-0.9-4.2,4.8-5.6
			c3.4-0.8,11.4-0.7,17.4-0.4C152.5,222.8,155.7,223,155.7,223z"/>
		<linearGradient id="SVGID_6_" gradientUnits="userSpaceOnUse" x1="187.5034" y1="222.3663" x2="187.5034" y2="243.5687">
			<stop  offset="0" style="stop-color:#260340"/>
			<stop  offset="0.4082" style="stop-color:#310F53"/>
			<stop  offset="0.7562" style="stop-color:#37155F"/>
			<stop  offset="1" style="stop-color:#391763"/>
		</linearGradient>
		<path class="st17" d="M202.1,228.8v14.7h-19.3c-7.8-7.2-9.9-19.6-10-20.5c0,0,0,0,0,0c0,0,0,0,0,0s0,0,0,0c0.4,0,3.4-0.2,7.3-0.4
			c5.9-0.3,13.9-0.4,17.2,0.4C203.1,224.4,202.1,228.8,202.1,228.8z"/>
		<linearGradient id="SVGID_7_" gradientUnits="userSpaceOnUse" x1="185.6395" y1="222.0849" x2="185.6395" y2="243.5687">
			<stop  offset="2.820513e-02" style="stop-color:#2D2E82"/>
			<stop  offset="0.1407" style="stop-color:#312779"/>
			<stop  offset="0.3931" style="stop-color:#371B69"/>
			<stop  offset="0.5902" style="stop-color:#391763"/>
		</linearGradient>
		<path class="st18" d="M193.5,243.6h-19.6c-1.7-6-2.5-13-1.1-20.5c0,0,0,0,0,0l0,0l2.9-0.9c0,0,2.1-0.1,4.4,0.5
			c0.5,0.1,1,0.3,1.5,0.5c1.5,0.6,2.8,1.5,3.4,3.1c2.1,5.5,3.5,9.2,10.6,10.6C202.3,238.1,198.3,242,193.5,243.6z"/>
		<linearGradient id="SVGID_8_" gradientUnits="userSpaceOnUse" x1="143" y1="222.0847" x2="143" y2="243.5687">
			<stop  offset="2.820513e-02" style="stop-color:#2D2E82"/>
			<stop  offset="0.1407" style="stop-color:#312779"/>
			<stop  offset="0.3931" style="stop-color:#371B69"/>
			<stop  offset="0.5902" style="stop-color:#391763"/>
		</linearGradient>
		<path class="st23" d="M156.2,237c0,0,0,0.1,0,0.1c-0.1,0.7-0.2,1.3-0.3,2c-0.3,1.5-0.6,3-1,4.4h-19.7c-4.8-1.6-8.8-5.5-2.2-6.8
			c5.1-1,7.3-3.2,8.9-6.4c0-0.1,0.1-0.1,0.1-0.2c0.6-1.2,1.1-2.6,1.7-4c0.6-1.5,1.9-2.5,3.4-3.1c0.4-0.2,0.9-0.3,1.4-0.4
			c2.3-0.6,4.5-0.5,4.5-0.5l3.1,1C156.8,228,156.8,232.7,156.2,237z"/>
		<path class="st21" d="M147.3,175.9c-0.2,0-0.5-0.1-0.6-0.2c-0.4-0.4-0.5-1-0.2-1.4c2.8-3.5,7.9-4,11.3-1.2c0.4,0.4,0.5,1,0.2,1.4
			c-0.4,0.4-1,0.5-1.4,0.2c-2.6-2.1-6.4-1.7-8.4,0.9C147.9,175.8,147.6,175.9,147.3,175.9z"/>
		<path class="st21" d="M179.9,175.6c-0.3,0-0.6-0.1-0.8-0.3c-1.1-1.2-2.6-1.9-4.2-1.9c-1.6-0.1-3.1,0.5-4.3,1.6
			c-0.4,0.4-1.1,0.4-1.4-0.1c-0.4-0.4-0.4-1.1,0.1-1.4c1.6-1.5,3.6-2.2,5.8-2.1c2.1,0.1,4.1,1,5.6,2.6c0.4,0.4,0.4,1.1-0.1,1.4
			C180.4,175.5,180.2,175.6,179.9,175.6z"/>
		<path class="st61" d="M142,144.8c-0.2,0-0.3-0.2-0.3-0.3c0-3.3,2.7-6,6-6c0.2,0,0.3,0.2,0.3,0.3c0,0.2-0.2,0.3-0.3,0.3
			c-2.9,0-5.3,2.4-5.3,5.3C142.3,144.7,142.2,144.8,142,144.8z"/>
		
			<linearGradient id="SVGID_9_" gradientUnits="userSpaceOnUse" x1="145.9532" y1="178.9344" x2="145.9532" y2="186.266" gradientTransform="matrix(1 0 0 1 7.2538 0)">
			<stop  offset="0" style="stop-color:#2D2E82"/>
			<stop  offset="0.1184" style="stop-color:#1C2969"/>
			<stop  offset="0.2581" style="stop-color:#0C2452"/>
			<stop  offset="0.3462" style="stop-color:#06224A"/>
		</linearGradient>
		<path class="st27" d="M153.2,186.3L153.2,186.3c-1.4,0-2.5-1.1-2.5-2.5v-2.3c0-1.4,1.1-2.5,2.5-2.5l0,0c1.4,0,2.5,1.1,2.5,2.5v2.3
			C155.7,185.1,154.6,186.3,153.2,186.3z"/>
		
			<linearGradient id="SVGID_10_" gradientUnits="userSpaceOnUse" x1="168.0014" y1="178.9344" x2="168.0014" y2="186.266" gradientTransform="matrix(1 0 0 1 7.2538 0)">
			<stop  offset="0" style="stop-color:#2D2E82"/>
			<stop  offset="5.917066e-02" style="stop-color:#212A71"/>
			<stop  offset="0.1536" style="stop-color:#12265B"/>
			<stop  offset="0.2453" style="stop-color:#09234E"/>
			<stop  offset="0.3308" style="stop-color:#06224A"/>
		</linearGradient>
		<path class="st28" d="M175.3,186.3L175.3,186.3c-1.4,0-2.5-1.1-2.5-2.5v-2.3c0-1.4,1.1-2.5,2.5-2.5h0c1.4,0,2.5,1.1,2.5,2.5v2.3
			C177.8,185.1,176.6,186.3,175.3,186.3z"/>
		<ellipse class="st3" cx="151.1" cy="181.2" rx="1" ry="1"/>
		<ellipse class="st3" cx="172.7" cy="181.2" rx="1" ry="1"/>
		<path class="st226" d="M158.8,206.2c0,0,4.9,3,9.6,0"/>
		<g>
			<g>
				<path class="st233" d="M158,188.1h-13.8c-1.3,0-2.3-1-2.3-2.3v-6.1c0-1.3,1-2.3,2.3-2.3H158c1.3,0,2.3,1,2.3,2.3v6.1
					C160.3,187.1,159.2,188.1,158,188.1z"/>
				<path class="st233" d="M183.5,188.1h-13.8c-1.3,0-2.3-1-2.3-2.3v-6.1c0-1.3,1-2.3,2.3-2.3h13.8c1.3,0,2.3,1,2.3,2.3v6.1
					C185.8,187.1,184.8,188.1,183.5,188.1z"/>
				<path class="st234" d="M157.2,177.4h13.2c0,0-2.1-0.2-3.1,2.1h-7.1C160.3,179.5,160.2,177.4,157.2,177.4z"/>
			</g>
			<path class="st235" d="M192,171.6l-9.3,5.8c0,0,1.8,0.1,2.5,1.3l9.7-6.2C195,172.6,194.2,171.1,192,171.6z"/>
			<path class="st235" d="M138,172l5.8,5.4c0,0-1.8,0.1-2.5,1.3l-6.3-5.8C135.1,172.9,135.9,171.5,138,172z"/>
		</g>
		<g>
			<linearGradient id="SVGID_11_" gradientUnits="userSpaceOnUse" x1="164.6606" y1="178.1458" x2="164.6606" y2="129.4935">
				<stop  offset="0" style="stop-color:#534741"/>
				<stop  offset="0.403" style="stop-color:#746E6B"/>
				<stop  offset="0.7899" style="stop-color:#8F8D8C"/>
				<stop  offset="1" style="stop-color:#999999"/>
			</linearGradient>
			<path class="st29" d="M196.6,163.2c1.9-1,3.2-3,3.2-5.3c0-2.9-2.1-5.3-4.8-5.8c-0.2-0.3-0.3-0.5-0.5-0.8c0.3-0.5,0.5-1.1,0.5-1.8
				c0-1.3-0.7-2.4-1.8-3c0.3-0.7,0.5-1.4,0.5-2.2c0-2.9-2.3-5.2-5.2-5.2c-1.2,0-2.2,0.4-3.1,1c-1.8-2.8-4.9-4.7-8.4-4.7
				c-0.7,0-1.4,0.1-2,0.2c0-0.1,0-0.1,0-0.2c0-1.9-1.5-3.4-3.4-3.4c-0.9,0-1.7,0.4-2.3,1c-1.8-1.9-4.4-3.1-7.2-3.1
				c-1.1,0-2.1,0.2-3,0.5c-0.6-0.6-1.4-0.9-2.3-0.9c-1.9,0-3.4,1.5-3.4,3.4c0,0.1,0,0.2,0,0.2c-0.4-0.1-0.8-0.2-1.2-0.2
				c-1.9,0-3.4,1.5-3.4,3.4c0,0,0,0,0,0c-0.2,0-0.4,0-0.6,0c-4.9,0-8.9,3.5-9.8,8.1c-0.1,0-0.1,0-0.2,0c-1.6,0-2.9,1.1-3.3,2.6
				c-0.3-0.2-0.6-0.2-1-0.2c-1.2,0-2.2,1-2.2,2.2c0,0.7,0.3,1.3,0.8,1.7c-1.9,2.1-3,4.8-3,7.8c0,3.3,1.4,6.3,3.5,8.4
				c-1.4,0.4-2.5,1.7-2.5,3.2c0,1.9,1.5,3.4,3.4,3.4c0,0,0,0,0,0c0.2,2.7,2.5,4.8,5.2,4.8c2.9,0,5.2-2.3,5.2-5.2
				c0-1.1-0.4-2.2-1-3.1c2.6-0.5,4.9-1.9,6.6-3.8c0.8,0.6,1.8,0.9,2.9,0.9c1.1,0,2-0.3,2.9-0.9c2,1.7,4.7,2.7,7.5,2.7
				c3.2,0,6-1.3,8.1-3.3c0.9,0.9,2.2,1.4,3.6,1.4c0.3,0,0.6,0,0.8-0.1c1.2,4.1,5,7.2,9.6,7.2c0.4,0,0.8,0,1.2-0.1
				c0.5,2.4,2.6,4.1,5.1,4.1c2.9,0,5.2-2.3,5.2-5.2c0-1.3-0.5-2.5-1.3-3.4c1.6-0.3,2.8-1.7,2.8-3.3
				C198.4,164.9,197.7,163.8,196.6,163.2z"/>
			<path class="st61" d="M163.9,167.1c-2.3,0-4.4-0.9-6.1-2.5c-0.1-0.1-0.1-0.4,0-0.5c0.1-0.1,0.4-0.1,0.5,0
				c1.5,1.5,3.5,2.3,5.6,2.3c2.1,0,4.1-0.8,5.6-2.3c0.1-0.1,0.4-0.1,0.5,0c0.1,0.1,0.1,0.4,0,0.5
				C168.4,166.2,166.2,167.1,163.9,167.1z"/>
			<path class="st61" d="M183.9,171.7c-1,0-1.9-0.2-2.8-0.7c-1.4-0.8-2.3-2-2.8-3.5c-0.1-0.2,0.1-0.4,0.2-0.4
				c0.2-0.1,0.4,0.1,0.4,0.2c0.4,1.3,1.2,2.4,2.4,3.1c1.2,0.7,2.6,0.8,3.9,0.5c0.2-0.1,0.4,0.1,0.4,0.2c0.1,0.2-0.1,0.4-0.2,0.4
				C185,171.6,184.4,171.7,183.9,171.7z"/>
			<path class="st61" d="M138.8,177.3c-0.6,0-1.1-0.1-1.7-0.3c-0.2-0.1-0.3-0.3-0.2-0.4c0.1-0.2,0.3-0.3,0.4-0.2
				c1.8,0.8,3.8-0.1,4.6-1.8c0.1-0.2,0.3-0.3,0.4-0.2c0.2,0.1,0.3,0.3,0.2,0.4C142,176.4,140.5,177.3,138.8,177.3z"/>
			<path class="st61" d="M191.8,177.4c-0.4,0-0.9-0.1-1.3-0.2c-0.2-0.1-0.3-0.3-0.2-0.4c0.1-0.2,0.3-0.3,0.4-0.2
				c0.9,0.3,1.8,0.2,2.7-0.2c0.8-0.4,1.5-1.1,1.7-2c0.1-0.2,0.3-0.3,0.4-0.2c0.2,0.1,0.3,0.3,0.2,0.4c-0.3,1.1-1.1,1.9-2.1,2.4
				C193.1,177.3,192.5,177.4,191.8,177.4z"/>
			<path class="st61" d="M134.6,163.9c-0.1,0-0.2,0-0.2-0.1c-1.6-1.6-2.5-3.8-2.5-6.1c0-2.3,0.9-4.4,2.5-6.1c0.1-0.1,0.4-0.1,0.5,0
				s0.1,0.4,0,0.5c-1.5,1.5-2.3,3.5-2.3,5.6c0,2.1,0.8,4.1,2.3,5.6c0.1,0.1,0.1,0.4,0,0.5C134.7,163.8,134.6,163.9,134.6,163.9z"/>
		</g>
	</g>
	<g>
		<linearGradient id="SVGID_12_" gradientUnits="userSpaceOnUse" x1="23.3485" y1="119.3847" x2="32.3313" y2="119.3847">
			<stop  offset="2.820513e-02" style="stop-color:#2D2E82"/>
			<stop  offset="0.1726" style="stop-color:#30297B"/>
			<stop  offset="0.6528" style="stop-color:#371C69"/>
			<stop  offset="1" style="stop-color:#391763"/>
		</linearGradient>
		<path class="st30" d="M27.9,131.5h-0.1c-2.4,0-4.4-2-4.4-4.4v-15.3c0-2.4,2-4.4,4.4-4.4h0.1c2.4,0,4.4,2,4.4,4.4V127
			C32.3,129.5,30.3,131.5,27.9,131.5z"/>
		<linearGradient id="SVGID_13_" gradientUnits="userSpaceOnUse" x1="25.4167" y1="146.3981" x2="37.2177" y2="146.3981">
			<stop  offset="2.820513e-02" style="stop-color:#2D2E82"/>
			<stop  offset="0.1726" style="stop-color:#30297B"/>
			<stop  offset="0.6528" style="stop-color:#371C69"/>
			<stop  offset="1" style="stop-color:#391763"/>
		</linearGradient>
		<path class="st39" d="M37.2,165.7h-3.6c-0.4,0-0.7-0.1-1-0.2l-0.3-0.9c0,0,0,0,0,0l-0.8-2.6l-0.7-2.3l-4.3-14c0,0,0-0.1,0-0.1
			c-0.1-0.1-0.1-0.3-0.1-0.4l-0.9-14.3l-0.1-2.1c0-0.8,0.6-1.5,1.4-1.5l1.6-0.1c0.8,0,1.5,0.6,1.6,1.4l0.1,2.4l0.7,11.8v0.1l0.1,1.8
			l1.4,4.7l2.8,9l0.6,1.8l0.6,1.9l0.9,2.9C37.2,165.2,37.2,165.4,37.2,165.7z"/>
		<path class="st143" d="M41.4,119.2C41.4,119.2,41.4,119.2,41.4,119.2l-0.7,28.2c-0.2,1.4-1.5,2.5-3,2.3l-4.7-0.2
			c-0.2,0-0.4-0.1-0.6-0.1c-1.1-0.4-1.9-1.5-1.7-2.7l0.2-3.8v-0.1l0.6-13.1L32,119l-1.4-10.8l-0.9-7.1h10.6l0.1,1.3l1.1,16
			C41.4,118.8,41.4,119,41.4,119.2z"/>
		<linearGradient id="SVGID_14_" gradientUnits="userSpaceOnUse" x1="32.3269" y1="162.8247" x2="89.6958" y2="162.8247">
			<stop  offset="2.820513e-02" style="stop-color:#2D2E82"/>
			<stop  offset="0.1726" style="stop-color:#30297B"/>
			<stop  offset="0.6528" style="stop-color:#371C69"/>
			<stop  offset="1" style="stop-color:#391763"/>
		</linearGradient>
		<path class="st40" d="M89.7,164.3c0,0.2,0,0.5-0.1,0.7c-0.5,0.4-1.1,0.6-1.7,0.6c-0.1,0-0.2,0-0.3,0h-54c-0.4,0-0.7-0.1-1-0.2
			c0,0-0.1,0-0.1,0c-0.1-0.3-0.1-0.5-0.2-0.8c0,0,0,0,0,0c0-0.1,0-0.2,0-0.3c0-0.9,0.2-1.7,0.7-2.3c0.2-0.3,0.4-0.5,0.6-0.8
			c0.6-0.6,1.3-1,2.1-1.2c0.3-0.1,0.7-0.1,1-0.1h48.6c1.6,0,2.9,0.8,3.7,2C89.5,162.7,89.7,163.5,89.7,164.3z"/>
		<path class="st143" d="M91.1,161.8v0.3c0,1.2-0.6,2.2-1.5,2.9c-0.5,0.4-1.1,0.6-1.7,0.6c-0.1,0-0.2,0-0.3,0h-54
			c-0.4,0-0.7-0.1-1-0.2c0,0-0.1,0-0.1,0c-1.4-0.5-2.4-1.8-2.4-3.3v-0.3c0-0.8,0.3-1.5,0.7-2.1c0.6-0.9,1.7-1.4,2.8-1.4h54
			c0.2,0,0.5,0.1,0.8,0.1C89.9,158.7,91.1,160.1,91.1,161.8z"/>
		<path class="st240" d="M50.5,150.9c0,0,18.8,4.1,40.5,6c0,0,0.4,0.2,0.8,0.7c0.2,0.3,0.3,0.6,0.3,1.1c0,0.1,0,0.3,0,0.5
			c0,0.4-0.2,1.3-0.5,2.8"/>
		<polygon class="st24" points="58.6,139.8 75.5,150.9 77.1,148.3 60.7,136.3 		"/>
		<line class="st45" x1="38" y1="126.7" x2="38" y2="128.5"/>
		<linearGradient id="SVGID_15_" gradientUnits="userSpaceOnUse" x1="94.6907" y1="155.2076" x2="50.4747" y2="134.4474">
			<stop  offset="0" style="stop-color:#35A8E0"/>
			<stop  offset="4.568344e-02" style="stop-color:#3498D4"/>
			<stop  offset="0.1566" style="stop-color:#3278BB"/>
			<stop  offset="0.2765" style="stop-color:#305DA6"/>
			<stop  offset="0.4068" style="stop-color:#2F4896"/>
			<stop  offset="0.5525" style="stop-color:#2E398B"/>
			<stop  offset="0.7261" style="stop-color:#2D3184"/>
			<stop  offset="1" style="stop-color:#2D2E82"/>
		</linearGradient>
		<path class="st49" d="M102.4,162h-11c0.1-1.2,0.2-2.3,0.3-3.3c0-0.4,0.1-0.7,0.1-1.1c0.4-3.6,0.7-5.6-0.4-5.6
			C67.7,153,49.9,149,49.9,149c-0.4-0.3-0.7-0.6-1-0.9c-1.5-1.6-2.1-3.3-2.3-5c-0.1-1.1,0.1-2.1,0.3-3.1c0.5-2.1,1.6-3.8,2.4-4.9
			c0.5-0.7,1.3-1.2,2.1-1.3c1-0.2,2.6-0.3,4.6-0.3c0.5,0,1.1,0,1.7,0c0.1,0,0.2,0,0.3,0c0.2,0,0.4,0,0.6,0c0.1,0,0.1,0,0.2,0
			c0.6,0,1.2,0.1,1.8,0.1c0.3,0,0.6,0,0.9,0.1h0c0.1,0,0.2,0,0.3,0c0.2,0,0.5,0,0.7,0.1c1.5,0.1,3.2,0.3,5,0.6
			c0.3,0,0.6,0.1,0.9,0.1c0.3,0,0.6,0.1,0.9,0.1c0.5,0.1,0.9,0.1,1.4,0.2h0c0.3,0,0.7,0.1,1,0.2h0c7.4,1.3,16.5,3.5,27.1,7.3
			c0.4,0.1,0.8,0.4,1.1,0.6C101.2,144.2,101.9,152.3,102.4,162z"/>
		<linearGradient id="SVGID_16_" gradientUnits="userSpaceOnUse" x1="83.2248" y1="163.8218" x2="46.9607" y2="140.7685">
			<stop  offset="0" style="stop-color:#35A8E0"/>
			<stop  offset="0.6726" style="stop-color:#2F539E"/>
			<stop  offset="1" style="stop-color:#2D2E82"/>
		</linearGradient>
		<path class="st51" d="M97.8,162h-6.6v0.2c0,1.2-0.6,2.2-1.5,2.9c-0.5,0.4-1.1,0.6-1.7,0.6c0.2-1.7,0.3-2.9,0.2-3.7
			c-0.1-0.5-0.3-0.8-0.7-0.8C63.7,162.1,46,160,46,160c-0.6-0.5-1.1-1.1-1.5-1.7c-1.9-2.6-2-5.6-1.5-8.3c0,0,0,0,0,0
			c0.5-2.5,1.6-4.7,2.3-5.8c0.3-0.5,0.8-0.9,1.4-1.1c0.2-0.1,0.5-0.2,0.7-0.2c2.2-0.3,6.8-0.4,13.6,0.3c1.1,0.1,2.3,0.3,3.5,0.5h0
			c2.6,0.4,5.3,0.9,8.4,1.5c6.4,1.4,13.7,3.4,22,6.3c0.4,0.1,0.8,0.4,1.1,0.6C96.7,152.9,97.3,156.7,97.8,162z"/>
		<line class="st45" x1="75.1" y1="123" x2="75.1" y2="122.9"/>
		<path class="st240" d="M93.7,162c0.1-0.4,0.1-0.7,0.1-0.9c0.1-1.7-1.1-2.3-1.1-2.3c-0.2,0-0.4,0-0.6-0.1c-0.1,0-0.3,0-0.4,0
			c-1.1-0.1-2.3-0.2-3.4-0.3c-0.3,0-0.5-0.1-0.8-0.1c-19.5-2-35.4-5.5-35.4-5.5"/>
		<path class="st25" d="M72.2,133.9c0,0.3-0.1,0.5-0.2,0.8c0,0.1-0.1,0.3-0.2,0.4h0c-0.8,1.8-2.9,3.6-5.6,5.3
			c-1.1,0.7-2.4,1.4-3.6,2.1c-0.5,0.3-1,0.5-1.6,0.8c-4,1.9-8.5,3.6-12.1,4.8c-2.6,0.9-4.7,1.5-5.9,1.9c0,0,0,0,0,0
			c-0.8,0.2-1.3,0.4-1.3,0.4l1.7-9.7l1.6-8.8l0.9-4.8c-2.9-9.2-4.6-17.7-5.6-24.6c-0.1-0.5-0.1-0.9-0.2-1.3H69l0.1,0.8
			c0,0,0.3,1.4,0.6,3.6c0.9,5.2,2.3,14.9,2.6,22.1C72.5,130.1,72.4,132.3,72.2,133.9z"/>
		<polygon class="st31" points="44.6,131.9 72.4,127.6 72.4,134.6 43,140.8 		"/>
		<polygon class="st246" points="66.8,127.2 57.5,129 55.9,132.9 56.4,135.6 59.2,138.1 68.6,136.3 70.2,133 69.7,130.3 		"/>
		<g>
			<path class="st47" d="M99.3,133.2h-17c-1.2,0-2.2-1-2.2-2.2V97c0-1.2,1-2.2,2.2-2.2h17c1.2,0,2.2,1,2.2,2.2v34
				C101.5,132.2,100.5,133.2,99.3,133.2z"/>
			<path class="st136" d="M97.6,129.3H84.1c-1.2,0-2.2-1-2.2-2.2V99.5c0-1.2,1-2.2,2.2-2.2h13.5c1.2,0,2.2,1,2.2,2.2v27.6
				C99.8,128.3,98.8,129.3,97.6,129.3z"/>
			<path class="st137" d="M93.4,96.3H89c-0.1,0-0.2-0.1-0.2-0.2V96c0-0.1,0.1-0.2,0.2-0.2h4.4c0.1,0,0.2,0.1,0.2,0.2v0.1
				C93.6,96.2,93.5,96.3,93.4,96.3z"/>
			<path class="st137" d="M91.9,132.2h-1.7c-0.5,0-0.9-0.4-0.9-0.9v-0.3c0-0.5,0.4-0.9,0.9-0.9h1.7c0.5,0,0.9,0.4,0.9,0.9v0.3
				C92.8,131.8,92.4,132.2,91.9,132.2z"/>
			<path class="st247" d="M83.1,99.9c0-0.9,0.7-1.6,1.6-1.6"/>
			<path class="st206" d="M96.5,122.7H85.1c-1,0-1.9-0.8-1.9-1.9v-3.1c0-1,0.8-1.9,1.9-1.9h11.4c1,0,1.9,0.8,1.9,1.9v3.1
				C98.3,121.9,97.5,122.7,96.5,122.7z"/>
			<path class="st139" d="M82.9,119.6h0.3c0.1,0,0.2-0.1,0.2-0.2v-17.5c0-0.1-0.1-0.2-0.2-0.2h-0.3c-0.1,0-0.2,0.1-0.2,0.2v17.5
				C82.7,119.5,82.8,119.6,82.9,119.6z"/>
			<g>
				<path class="st86" d="M87.8,119.5c-0.1-0.2-0.2-0.3-0.4-0.4c-0.2-0.1-0.5-0.2-0.8-0.3c-0.4-0.1-0.6-0.2-0.7-0.3
					c-0.1-0.1-0.1-0.1-0.1-0.2c0-0.1,0-0.2,0.1-0.2c0.1-0.1,0.3-0.1,0.5-0.1c0.2,0,0.4,0,0.5,0.1c0.1,0,0.1,0.1,0.1,0.2
					c0.1,0.1,0.2,0.2,0.4,0.2h0.1c0.3,0,0.4-0.3,0.3-0.5c-0.1-0.1-0.1-0.2-0.3-0.3c-0.2-0.2-0.6-0.3-1.1-0.3c-0.3,0-0.5,0-0.8,0.1
					c-0.2,0.1-0.4,0.2-0.5,0.4c-0.1,0.2-0.2,0.4-0.2,0.6c0,0.3,0.1,0.6,0.4,0.8c0.2,0.1,0.5,0.3,0.9,0.4c0.3,0.1,0.5,0.1,0.6,0.2
					c0.1,0,0.2,0.1,0.3,0.2c0.1,0.1,0.1,0.1,0.1,0.2c0,0.1-0.1,0.3-0.2,0.4c-0.1,0.1-0.3,0.2-0.6,0.2c-0.2,0-0.4-0.1-0.6-0.2
					c-0.1-0.1-0.2-0.3-0.3-0.6l-0.3,0c-0.2,0-0.4,0.3-0.3,0.5c0.1,0.2,0.2,0.4,0.4,0.5c0.3,0.2,0.6,0.3,1.1,0.3c0.3,0,0.6,0,0.8-0.1
					s0.4-0.2,0.5-0.4c0.1-0.2,0.2-0.4,0.2-0.6C87.9,119.9,87.9,119.6,87.8,119.5z"/>
				<path class="st86" d="M89.9,120.6c-0.1,0-0.2,0.1-0.3,0.1c0,0-0.1,0-0.1,0c0,0-0.1-0.1-0.1-0.1c0,0,0-0.2,0-0.4V119h0.5v-0.6
					h-0.5v-1l-0.6,0.3c-0.1,0.1-0.2,0.2-0.2,0.3v0.3h-0.3v0.6h0.3v1.2c0,0.3,0,0.4,0,0.5c0,0.1,0.1,0.2,0.1,0.3
					c0.1,0.1,0.1,0.1,0.2,0.2c0.1,0,0.2,0.1,0.4,0.1c0.2,0,0.4,0,0.6-0.1L89.9,120.6z"/>
				<path class="st86" d="M92.7,120.8c0-0.1,0-0.3,0-0.5v-0.9c0-0.3,0-0.5-0.1-0.7c-0.1-0.1-0.2-0.2-0.3-0.3
					c-0.2-0.1-0.4-0.1-0.7-0.1c-0.4,0-0.6,0.1-0.8,0.2c-0.2,0.1-0.3,0.3-0.4,0.6l0.7,0.1c0-0.1,0.1-0.2,0.2-0.3
					c0.1-0.1,0.2-0.1,0.3-0.1c0.2,0,0.3,0,0.4,0.1c0.1,0.1,0.1,0.2,0.1,0.3v0.1c-0.1,0.1-0.4,0.1-0.7,0.2c-0.3,0-0.5,0.1-0.6,0.2
					c-0.1,0.1-0.2,0.2-0.3,0.3c-0.1,0.1-0.1,0.3-0.1,0.4c0,0.2,0.1,0.4,0.2,0.6c0.2,0.2,0.4,0.2,0.7,0.2c0.2,0,0.3,0,0.5-0.1
					c0.1-0.1,0.3-0.2,0.4-0.3c0,0,0,0,0,0.1c0,0.1,0.1,0.2,0.1,0.2h0.7C92.7,121.1,92.7,121,92.7,120.8z M91.9,120
					c0,0.2,0,0.3,0,0.4c0,0.1-0.1,0.2-0.2,0.2c-0.1,0.1-0.2,0.1-0.4,0.1c-0.1,0-0.2,0-0.3-0.1c-0.1-0.1-0.1-0.2-0.1-0.3
					c0-0.1,0.1-0.2,0.1-0.3c0.1,0,0.2-0.1,0.4-0.1c0.2,0,0.4-0.1,0.5-0.1V120z"/>
				<path class="st86" d="M94.7,118.4c-0.1,0-0.2,0-0.3,0.1c-0.1,0.1-0.2,0.2-0.3,0.4v-0.4h-0.3c-0.2,0-0.4,0.2-0.4,0.4v2
					c0,0.2,0.2,0.4,0.4,0.4c0.2,0,0.4-0.2,0.4-0.4v-0.5c0-0.5,0-0.8,0.1-0.9c0-0.2,0.1-0.3,0.2-0.3c0.1-0.1,0.2-0.1,0.3-0.1
					c0.1,0,0.2,0,0.3,0.1l0.2-0.6C95,118.4,94.8,118.4,94.7,118.4z"/>
				<path class="st86" d="M96.7,120.6c-0.1,0-0.2,0.1-0.3,0.1c0,0-0.1,0-0.1,0c0,0-0.1-0.1-0.1-0.1c0,0,0-0.2,0-0.4V119h0.5v-0.6
					h-0.5v-1l-0.6,0.3c-0.1,0.1-0.2,0.2-0.2,0.3v0.3h-0.3v0.6h0.3v1.2c0,0.3,0,0.4,0,0.5c0,0.1,0.1,0.2,0.1,0.3
					c0.1,0.1,0.1,0.1,0.2,0.2c0.1,0,0.2,0.1,0.4,0.1c0.2,0,0.4,0,0.6-0.1L96.7,120.6z"/>
			</g>
		</g>
		<g>
			<path class="st47" d="M58.1,136l-0.8-4.6c-0.1-0.3,0.2-0.6,0.5-0.7l9.2-1.5c0.3-0.1,0.6,0.2,0.7,0.5l0.8,4.6
				c0.1,0.3-0.2,0.6-0.5,0.7l-9.2,1.5C58.5,136.5,58.2,136.3,58.1,136z"/>
			<path class="st136" d="M59.1,135.3l-0.6-3.6c-0.1-0.3,0.2-0.6,0.5-0.7l7.4-1.3c0.3-0.1,0.6,0.2,0.7,0.5l0.6,3.6
				c0.1,0.3-0.2,0.6-0.5,0.7l-7.4,1.3C59.5,135.9,59.2,135.7,59.1,135.3z"/>
			<path class="st137" d="M67.8,132.7l-0.2-1.2c0,0,0-0.1,0-0.1l0,0c0,0,0.1,0,0.1,0l0.2,1.2C68,132.7,68,132.7,67.8,132.7
				L67.8,132.7C67.9,132.8,67.8,132.7,67.8,132.7z"/>
			<path class="st137" d="M58.1,133.9l-0.1-0.5c0-0.1,0.1-0.3,0.2-0.3l0.1,0c0.1,0,0.3,0.1,0.3,0.2l0.1,0.5c0,0.1-0.1,0.3-0.2,0.3
				l-0.1,0C58.2,134.2,58.1,134.1,58.1,133.9z"/>
			<path class="st248" d="M66.4,130.1c0.2,0,0.5,0.1,0.5,0.4"/>
			<path class="st206" d="M60.8,134.7l-0.5-3.1c0-0.3,0.1-0.5,0.4-0.6l0.8-0.1c0.3,0,0.5,0.1,0.6,0.4l0.5,3.1c0,0.3-0.1,0.5-0.4,0.6
				l-0.8,0.1C61.2,135.2,60.9,135,60.8,134.7z"/>
			<path class="st139" d="M61.1,130.9L61.1,130.9c0,0.1,0,0.1,0.1,0.1l4.7-0.8c0,0,0.1,0,0-0.1l0-0.1c0,0,0-0.1-0.1,0L61.1,130.9
				C61.1,130.9,61.1,130.9,61.1,130.9z"/>
			<g>
				<path class="st86" d="M61.8,131.8c0-0.1,0-0.1-0.1-0.2c0-0.1-0.1-0.1-0.1-0.1c-0.1,0-0.1,0-0.2,0c-0.1,0-0.2,0.1-0.2,0.1
					c0,0-0.1,0.1-0.1,0.3c0,0.1,0,0.1,0,0.2c0,0,0,0.1,0,0.1c0,0,0,0-0.1,0c0,0-0.1,0-0.1,0c0,0-0.1-0.1-0.1-0.1c0-0.1,0-0.1,0-0.2
					c0,0,0.1-0.1,0.1-0.1l0-0.1c0-0.1-0.1-0.1-0.1-0.1c-0.1,0-0.1,0.1-0.1,0.1c0,0.1-0.1,0.2,0,0.3c0,0.1,0,0.2,0.1,0.2
					c0,0.1,0.1,0.1,0.1,0.1c0.1,0,0.1,0,0.2,0c0.1,0,0.1,0,0.2-0.1c0,0,0.1-0.1,0.1-0.1c0,0,0-0.1,0-0.2c0-0.1,0-0.2,0-0.2
					c0,0,0,0,0.1,0c0,0,0,0,0.1,0c0,0,0,0.1,0.1,0.1c0,0.1,0,0.1,0,0.1c0,0,0,0,0,0c0,0-0.1,0.1,0,0.1v0c0,0.1,0.1,0.1,0.2,0.1
					c0,0,0.1-0.1,0.1-0.1C61.9,132,61.9,131.9,61.8,131.8z"/>
				<path class="st86" d="M61.9,132.6l-0.1-0.1c0,0-0.1,0-0.1,0l-0.1,0l0-0.1l-0.2,0l0,0.1l-0.3,0.1c-0.1,0-0.1,0-0.1,0
					c0,0-0.1,0-0.1,0c0,0,0,0,0,0.1c0,0,0,0.1,0,0.1c0,0.1,0,0.1,0.1,0.2l0.1,0c0,0,0-0.1,0-0.1c0,0,0,0,0,0c0,0,0,0,0,0
					c0,0,0,0,0.1,0l0.3-0.1l0,0.1l0.2,0l0-0.1L61.9,132.6z"/>
				<path class="st86" d="M61.8,133.2c0-0.1,0-0.2-0.1-0.2c0,0-0.1-0.1-0.2-0.1v0.2c0,0,0.1,0,0.1,0c0,0,0,0,0,0.1
					c0,0.1,0,0.1,0,0.1c0,0,0,0-0.1,0h0c0,0,0-0.1-0.1-0.2c0-0.1,0-0.1-0.1-0.2c0,0-0.1-0.1-0.1-0.1c0,0-0.1,0-0.1,0
					c-0.1,0-0.1,0-0.1,0.1c0,0.1,0,0.1,0,0.2c0,0,0,0.1,0,0.1c0,0,0.1,0.1,0.1,0.1c0,0,0,0,0,0c0,0,0,0-0.1,0l0,0.2
					c0,0,0.1,0,0.1-0.1c0,0,0.1,0,0.1,0l0.2,0c0.1,0,0.1,0,0.2-0.1c0,0,0-0.1,0.1-0.1C61.8,133.3,61.8,133.3,61.8,133.2z
					 M61.4,133.4C61.3,133.4,61.3,133.4,61.4,133.4c-0.1,0-0.1,0-0.2,0c0,0-0.1-0.1-0.1-0.1c0,0,0-0.1,0-0.1c0,0,0,0,0.1,0
					c0,0,0.1,0,0.1,0c0,0,0,0,0.1,0.1C61.4,133.3,61.4,133.4,61.4,133.4L61.4,133.4z"/>
				<path class="st86" d="M61.9,134c0,0-0.1,0-0.1-0.1L61.9,134l0-0.2c0,0,0,0,0,0c0,0-0.1-0.1-0.1-0.1l-0.2,0h0l-0.4,0.1
					c-0.1,0-0.1,0.1-0.1,0.1s0.1,0.1,0.1,0.1l0.1,0c0.1,0,0.2,0,0.3,0c0,0,0.1,0,0.1,0c0,0,0,0,0,0.1c0,0,0,0.1,0,0.1l0.2,0
					C61.9,134.1,61.9,134.1,61.9,134C61.9,134,61.9,134,61.9,134z"/>
				<path class="st86" d="M62.3,134.4l-0.1-0.1c0,0-0.1,0-0.1,0l-0.1,0l0-0.1h0l-0.1,0l0,0.1l-0.3,0.1c-0.1,0-0.1,0-0.1,0
					c0,0-0.1,0-0.1,0c0,0,0,0,0,0.1c0,0,0,0.1,0,0.1c0,0.1,0,0.1,0.1,0.2l0.2,0c0,0,0-0.1,0-0.1v0l0,0c0,0,0,0,0.1,0l0.3-0.1l0,0.1
					l0.2,0l0-0.1L62.3,134.4z"/>
			</g>
		</g>
		<g>
			<polygon class="st2" points="61.2,115.9 55.6,116.7 59.1,121.2 62.6,125.7 64.7,120.4 66.9,115.2 			"/>
			
				<linearGradient id="SVGID_17_" gradientUnits="userSpaceOnUse" x1="-970.2362" y1="-1171.3668" x2="-959.5457" y2="-1171.3668" gradientTransform="matrix(-0.5523 -0.8337 -0.8337 0.5523 -1441.7476 -47.1775)">
				<stop  offset="0" style="stop-color:#F8B133"/>
				<stop  offset="0.1847" style="stop-color:#F7AB31"/>
				<stop  offset="0.4366" style="stop-color:#F4992D"/>
				<stop  offset="0.726" style="stop-color:#EF7D26"/>
				<stop  offset="1" style="stop-color:#EA5B1D"/>
			</linearGradient>
			
				<path style="fill:none;stroke:url(#SVGID_17_);stroke-width:2.7232;stroke-linecap:round;stroke-linejoin:round;stroke-miterlimit:10;" d="
				M77.7,106.3c0,0-18.1-6-16.6,13.2"/>
		</g>
		<path class="st143" d="M30.1,162v0.2c0,1.5,1,2.9,2.4,3.3c0,0,0.1,0,0.1,0c0.3,0.1,0.7,0.2,1,0.2h54c0.1,0,0.2,0,0.3,0
			c0.6,0,1.2-0.3,1.7-0.6c0.9-0.6,1.5-1.7,1.5-2.9V162H30.1z"/>
	</g>
	<circle class="st250" cx="263" cy="135.1" r="53.8"/>
	<g>
		<linearGradient id="SVGID_18_" gradientUnits="userSpaceOnUse" x1="224.4426" y1="119.9264" x2="233.4254" y2="119.9264">
			<stop  offset="2.820513e-02" style="stop-color:#2D2E82"/>
			<stop  offset="0.1726" style="stop-color:#30297B"/>
			<stop  offset="0.6528" style="stop-color:#371C69"/>
			<stop  offset="1" style="stop-color:#391763"/>
		</linearGradient>
		<path class="st53" d="M229,132h-0.1c-2.4,0-4.4-2-4.4-4.4v-15.3c0-2.4,2-4.4,4.4-4.4h0.1c2.4,0,4.4,2,4.4,4.4v15.3
			C233.4,130,231.4,132,229,132z"/>
		<linearGradient id="SVGID_19_" gradientUnits="userSpaceOnUse" x1="226.5108" y1="146.9398" x2="238.3117" y2="146.9398">
			<stop  offset="2.820513e-02" style="stop-color:#2D2E82"/>
			<stop  offset="0.1726" style="stop-color:#30297B"/>
			<stop  offset="0.6528" style="stop-color:#371C69"/>
			<stop  offset="1" style="stop-color:#391763"/>
		</linearGradient>
		<path class="st54" d="M238.3,166.2h-3.6c-0.4,0-0.7-0.1-1-0.2l-0.3-0.9c0,0,0,0,0,0l-0.8-2.6l-0.7-2.3l-4.3-14c0,0,0-0.1,0-0.1
			c-0.1-0.1-0.1-0.3-0.1-0.4l-0.9-14.3l-0.1-2.1c0-0.8,0.6-1.5,1.4-1.5l1.6-0.1c0.8,0,1.5,0.6,1.6,1.4l0.1,2.4l0.7,11.8v0.1l0.1,1.8
			l1.4,4.7l2.8,9l0.6,1.8l0.6,1.9l0.9,2.9C238.3,165.7,238.3,166,238.3,166.2z"/>
		<path class="st143" d="M242.5,119.8C242.5,119.8,242.5,119.8,242.5,119.8l-0.7,28.2c-0.2,1.4-1.5,2.5-3,2.3l-4.7-0.2
			c-0.2,0-0.4-0.1-0.6-0.1c-1.1-0.4-1.9-1.5-1.7-2.7l0.2-3.8v-0.1l0.6-13.1l0.5-10.6l-1.4-10.8l-0.9-7.1h10.6l0.1,1.3l1.1,16
			C242.5,119.3,242.5,119.5,242.5,119.8z"/>
		<g>
			<polygon class="st246" points="242.2,132 251.6,130.4 254.4,133.5 254.9,136.2 253.2,139.5 243.8,141.1 241.1,138.6 240.6,135.9 
							"/>
			<g>
				<path class="st47" d="M253.4,137.1l-0.9-4.6c-0.1-0.3-0.4-0.5-0.7-0.5l-9.1,1.8c-0.3,0.1-0.5,0.4-0.5,0.7l0.9,4.6
					c0.1,0.3,0.4,0.5,0.7,0.5l9.1-1.8C253.3,137.8,253.5,137.5,253.4,137.1z"/>
				<path class="st136" d="M252.3,136.9l-0.7-3.6c-0.1-0.3-0.4-0.5-0.7-0.5l-7.4,1.4c-0.3,0.1-0.5,0.4-0.5,0.7l0.7,3.6
					c0.1,0.3,0.4,0.5,0.7,0.5l7.4-1.4C252.1,137.5,252.3,137.2,252.3,136.9z"/>
				<path class="st137" d="M243.2,137.5l-0.2-1.2c0,0,0,0-0.1,0l0,0c0,0,0,0,0,0.1l0.2,1.2C243.1,137.5,243.1,137.5,243.2,137.5
					L243.2,137.5C243.2,137.5,243.2,137.5,243.2,137.5z"/>
				<path class="st137" d="M252.8,135.2l-0.1-0.5c0-0.1-0.2-0.2-0.3-0.2l-0.1,0c-0.1,0-0.2,0.2-0.2,0.3l0.1,0.5
					c0,0.1,0.2,0.2,0.3,0.2l0.1,0C252.7,135.5,252.8,135.3,252.8,135.2z"/>
				<path class="st248" d="M243.6,134.5c-0.2,0-0.4,0.3-0.3,0.5"/>
				<path class="st206" d="M250.4,136.9l-0.6-3.1c-0.1-0.3-0.3-0.5-0.6-0.4l-0.8,0.2c-0.3,0.1-0.5,0.3-0.4,0.6l0.6,3.1
					c0.1,0.3,0.3,0.5,0.6,0.4l0.8-0.2C250.3,137.5,250.5,137.2,250.4,136.9z"/>
				<path class="st139" d="M248.9,133.5L248.9,133.5c0,0.1,0,0.1,0,0.1l-4.7,0.9c0,0-0.1,0-0.1,0l0-0.1c0,0,0-0.1,0-0.1L248.9,133.5
					C248.9,133.4,248.9,133.4,248.9,133.5z"/>
				<g>
					<path class="st86" d="M248.5,134.5c0-0.1,0-0.1,0-0.2c0-0.1,0-0.1,0.1-0.2c0,0,0.1-0.1,0.1-0.1c0.1,0,0.2,0,0.2,0.1
						c0,0,0.1,0.1,0.1,0.2c0,0.1,0.1,0.1,0.1,0.2c0,0,0,0.1,0.1,0.1c0,0,0,0,0.1,0c0,0,0.1,0,0.1-0.1c0,0,0-0.1,0-0.2
						c0-0.1,0-0.1-0.1-0.1c0,0-0.1,0-0.2,0l0-0.1c0-0.1,0.1-0.1,0.1-0.1c0.1,0,0.1,0,0.2,0.1c0.1,0.1,0.1,0.1,0.2,0.3
						c0,0.1,0,0.2,0,0.2c0,0.1,0,0.1-0.1,0.2c0,0-0.1,0.1-0.2,0.1c-0.1,0-0.1,0-0.2,0c0,0-0.1-0.1-0.1-0.1c0,0-0.1-0.1-0.1-0.2
						c0-0.1-0.1-0.2-0.1-0.2c0,0,0,0-0.1,0c0,0,0,0-0.1,0c0,0,0,0.1,0,0.2c0,0.1,0,0.1,0.1,0.1c0,0,0,0,0.1,0c0,0,0.1,0,0.1,0.1l0,0
						c0,0.1-0.1,0.1-0.1,0.1c0,0-0.1,0-0.1-0.1C248.5,134.7,248.5,134.6,248.5,134.5z"/>
					<path class="st86" d="M248.7,135.3l0.1-0.2c0,0,0-0.1,0.1-0.1l0.1,0l0-0.1l0.2,0l0,0.1l0.3-0.1c0.1,0,0.1,0,0.1,0
						c0,0,0.1,0,0.1,0c0,0,0,0,0.1,0.1c0,0,0,0.1,0,0.1c0,0.1,0,0.1,0,0.2l-0.2,0c0,0,0-0.1,0-0.1c0,0,0,0,0,0c0,0,0,0,0,0
						c0,0,0,0-0.1,0l-0.3,0.1l0,0.1l-0.2,0l0-0.1L248.7,135.3z"/>
					<path class="st86" d="M249,135.8c0-0.1,0-0.2,0-0.2c0,0,0.1-0.1,0.1-0.1l0.1,0.2c0,0-0.1,0-0.1,0.1c0,0,0,0.1,0,0.1
						c0,0.1,0,0.1,0,0.1c0,0,0.1,0,0.1,0l0,0c0,0,0-0.1,0-0.2c0-0.1,0-0.1,0-0.2c0,0,0-0.1,0.1-0.1c0,0,0.1,0,0.1,0
						c0.1,0,0.1,0,0.2,0c0.1,0,0.1,0.1,0.1,0.2c0,0,0,0.1,0,0.1c0,0,0,0.1-0.1,0.1c0,0,0,0,0,0c0,0,0,0,0.1,0l0,0.2c0,0-0.1,0-0.1,0
						c0,0-0.1,0-0.1,0l-0.2,0c-0.1,0-0.1,0-0.2,0c0,0-0.1,0-0.1-0.1C249.1,136,249,135.9,249,135.8z M249.5,135.8
						C249.5,135.8,249.6,135.8,249.5,135.8c0.1,0,0.1-0.1,0.1-0.1c0,0,0-0.1,0-0.1c0,0,0-0.1,0-0.1c0,0,0,0-0.1,0c0,0-0.1,0-0.1,0.1
						c0,0,0,0.1,0,0.1C249.4,135.8,249.4,135.8,249.5,135.8L249.5,135.8z"/>
					<path class="st86" d="M249.2,136.6C249.2,136.5,249.2,136.5,249.2,136.6L249.2,136.6l0-0.2c0,0,0,0,0,0c0,0,0-0.1,0.1-0.1
						l0.2,0l0,0l0.4-0.1c0.1,0,0.1,0,0.1,0.1s0,0.1-0.1,0.1l-0.1,0c-0.1,0-0.2,0.1-0.2,0.1c0,0-0.1,0-0.1,0.1c0,0,0,0,0,0.1
						c0,0,0,0.1,0.1,0.1l-0.2,0.1C249.2,136.7,249.2,136.7,249.2,136.6C249.2,136.6,249.2,136.6,249.2,136.6z"/>
					<path class="st86" d="M249,137.1l0.1-0.2c0,0,0-0.1,0.1-0.1l0.1,0l0-0.1l0,0l0.1,0l0,0.1l0.3-0.1c0.1,0,0.1,0,0.1,0
						c0,0,0.1,0,0.1,0c0,0,0,0,0.1,0.1c0,0,0,0.1,0,0.1c0,0.1,0,0.1,0,0.2l-0.2,0c0,0,0-0.1,0-0.1l0,0l0,0c0,0,0,0-0.1,0l-0.3,0.1
						l0,0.1l-0.2,0l0-0.1L249,137.1z"/>
				</g>
			</g>
		</g>
		<linearGradient id="SVGID_20_" gradientUnits="userSpaceOnUse" x1="233.421" y1="163.3665" x2="290.7899" y2="163.3665">
			<stop  offset="2.820513e-02" style="stop-color:#2D2E82"/>
			<stop  offset="0.1726" style="stop-color:#30297B"/>
			<stop  offset="0.6528" style="stop-color:#371C69"/>
			<stop  offset="1" style="stop-color:#391763"/>
		</linearGradient>
		<path class="st55" d="M290.8,164.9c0,0.2,0,0.5-0.1,0.7c-0.5,0.4-1.1,0.6-1.7,0.6c-0.1,0-0.2,0-0.3,0h-54c-0.4,0-0.7-0.1-1-0.2
			c0,0-0.1,0-0.1,0c-0.1-0.3-0.1-0.5-0.2-0.8c0,0,0,0,0,0c0-0.1,0-0.2,0-0.3c0-0.9,0.2-1.7,0.7-2.3c0.2-0.3,0.4-0.5,0.6-0.8
			c0.6-0.6,1.3-1,2.1-1.2c0.3-0.1,0.7-0.1,1-0.1h48.6c1.6,0,2.9,0.8,3.7,2C290.5,163.2,290.8,164,290.8,164.9z"/>
		<path class="st143" d="M292.2,162.4v0.3c0,1.2-0.6,2.2-1.5,2.9c-0.5,0.4-1.1,0.6-1.7,0.6c-0.1,0-0.2,0-0.3,0h-54
			c-0.4,0-0.7-0.1-1-0.2c0,0-0.1,0-0.1,0c-1.4-0.5-2.4-1.8-2.4-3.3v-0.3c0-0.8,0.3-1.5,0.7-2.1c0.6-0.9,1.7-1.4,2.8-1.4h54
			c0.2,0,0.5,0.1,0.8,0.1C291,159.3,292.2,160.7,292.2,162.4z"/>
		<path class="st240" d="M251.6,151.4c0,0,18.8,4.1,40.5,6c0,0,0.4,0.2,0.8,0.7c0.2,0.3,0.3,0.6,0.3,1.1c0,0.1,0,0.3,0,0.5
			c0,0.4-0.2,1.3-0.5,2.8"/>
		<polygon class="st24" points="259.7,140.4 276.6,151.4 278.2,148.9 261.7,136.9 		"/>
		<line class="st45" x1="239" y1="127.2" x2="239.1" y2="129.1"/>
		<linearGradient id="SVGID_21_" gradientUnits="userSpaceOnUse" x1="295.7848" y1="155.7494" x2="251.5687" y2="134.9891">
			<stop  offset="0" style="stop-color:#35A8E0"/>
			<stop  offset="4.568344e-02" style="stop-color:#3498D4"/>
			<stop  offset="0.1566" style="stop-color:#3278BB"/>
			<stop  offset="0.2765" style="stop-color:#305DA6"/>
			<stop  offset="0.4068" style="stop-color:#2F4896"/>
			<stop  offset="0.5525" style="stop-color:#2E398B"/>
			<stop  offset="0.7261" style="stop-color:#2D3184"/>
			<stop  offset="1" style="stop-color:#2D2E82"/>
		</linearGradient>
		<path class="st56" d="M303.5,162.5h-11c0.1-1.2,0.2-2.3,0.3-3.3c0-0.4,0.1-0.7,0.1-1.1c0.4-3.6,0.7-5.6-0.4-5.6
			c-23.7,0.9-41.5-3.1-41.5-3.1c-0.4-0.3-0.7-0.6-1-0.9c-1.5-1.6-2.1-3.3-2.3-5c-0.1-1.1,0.1-2.1,0.3-3.1c0.5-2.1,1.6-3.8,2.4-4.9
			c0.5-0.7,1.3-1.2,2.1-1.3c1-0.2,2.6-0.3,4.6-0.3c0.5,0,1.1,0,1.7,0c0.1,0,0.2,0,0.3,0c0.2,0,0.4,0,0.6,0c0.1,0,0.1,0,0.2,0
			c0.6,0,1.2,0.1,1.8,0.1c0.3,0,0.6,0,0.9,0.1h0c0.1,0,0.2,0,0.3,0c0.2,0,0.5,0,0.7,0.1c1.5,0.1,3.2,0.3,5,0.6
			c0.3,0,0.6,0.1,0.9,0.1c0.3,0,0.6,0.1,0.9,0.1c0.5,0.1,0.9,0.1,1.4,0.2h0c0.3,0,0.7,0.1,1,0.2h0c7.4,1.3,16.5,3.5,27.1,7.3
			c0.4,0.1,0.8,0.4,1.1,0.6C302.3,144.7,303,152.9,303.5,162.5z"/>
		<linearGradient id="SVGID_22_" gradientUnits="userSpaceOnUse" x1="284.3189" y1="164.3635" x2="248.0547" y2="141.3102">
			<stop  offset="0" style="stop-color:#35A8E0"/>
			<stop  offset="0.6726" style="stop-color:#2F539E"/>
			<stop  offset="1" style="stop-color:#2D2E82"/>
		</linearGradient>
		<path class="st60" d="M298.9,162.5h-6.6v0.2c0,1.2-0.6,2.2-1.5,2.9c-0.5,0.4-1.1,0.6-1.7,0.6c0.2-1.7,0.3-2.9,0.2-3.7
			c-0.1-0.5-0.3-0.8-0.7-0.8c-23.7,0.9-41.3-1.3-41.3-1.3c-0.6-0.5-1.1-1.1-1.5-1.7c-1.9-2.6-2-5.6-1.5-8.3c0,0,0,0,0,0
			c0.5-2.5,1.6-4.7,2.3-5.8c0.3-0.5,0.8-0.9,1.4-1.1c0.2-0.1,0.5-0.2,0.7-0.2c2.2-0.3,6.8-0.4,13.6,0.3c1.1,0.1,2.3,0.3,3.5,0.5h0
			c2.6,0.4,5.3,0.9,8.4,1.5c6.4,1.4,13.7,3.4,22,6.3c0.4,0.1,0.8,0.4,1.1,0.6C297.8,153.5,298.4,157.3,298.9,162.5z"/>
		<line class="st45" x1="276.2" y1="123.5" x2="276.2" y2="123.5"/>
		<path class="st240" d="M294.8,162.5c0.1-0.4,0.1-0.7,0.1-0.9c0.1-1.7-1.1-2.3-1.1-2.3c-0.2,0-0.4,0-0.6-0.1c-0.1,0-0.3,0-0.4,0
			c-1.1-0.1-2.3-0.2-3.4-0.3c-0.3,0-0.5-0.1-0.8-0.1c-19.5-2-35.4-5.5-35.4-5.5"/>
		<path class="st25" d="M273.3,134.4c0,0.3-0.1,0.5-0.2,0.8c0,0.1-0.1,0.3-0.2,0.4h0c-0.8,1.8-2.9,3.6-5.6,5.3
			c-1.1,0.7-2.4,1.4-3.6,2.1c-0.5,0.3-1,0.5-1.6,0.8c-4,1.9-8.5,3.6-12.1,4.8c-2.6,0.9-4.7,1.5-5.9,1.9c0,0,0,0,0,0
			c-0.8,0.2-1.3,0.4-1.3,0.4l1.7-9.7l1.6-8.8l0.9-4.8c-2.9-9.2-4.6-17.7-5.6-24.6c-0.1-0.5-0.1-0.9-0.2-1.3h28.9l0.1,0.8
			c0,0,0.3,1.4,0.6,3.6c0.9,5.2,2.3,14.9,2.6,22.1C273.6,130.6,273.5,132.8,273.3,134.4z"/>
		<polygon class="st31" points="245.7,132.5 273.5,128.2 273.5,135.1 244.1,141.3 		"/>
		<path class="st143" d="M231.2,162.5v0.2c0,1.5,1,2.9,2.4,3.3c0,0,0.1,0,0.1,0c0.3,0.1,0.7,0.2,1,0.2h54c0.1,0,0.2,0,0.3,0
			c0.6,0,1.2-0.3,1.7-0.6c0.9-0.6,1.5-1.7,1.5-2.9v-0.2H231.2z"/>
	</g>
	<g>
		<circle class="st250" cx="166.1" cy="60.7" r="53.8"/>
		<g>
			<g>
				<path class="st47" d="M165.5,85.5H139c-1.9,0-3.5-1.6-3.5-3.5V29.3c0-1.9,1.6-3.5,3.5-3.5h26.5c1.9,0,3.5,1.6,3.5,3.5V82
					C168.9,83.9,167.4,85.5,165.5,85.5z"/>
				<path class="st136" d="M162.8,79.4h-20.9c-1.9,0-3.5-1.6-3.5-3.5V33.1c0-1.9,1.6-3.5,3.5-3.5h20.9c1.9,0,3.5,1.6,3.5,3.5V76
					C166.2,77.9,164.7,79.4,162.8,79.4z"/>
				<path class="st137" d="M156.3,28.2h-6.9c-0.2,0-0.3-0.1-0.3-0.3v-0.1c0-0.2,0.1-0.3,0.3-0.3h6.9c0.2,0,0.3,0.1,0.3,0.3v0.1
					C156.6,28,156.5,28.2,156.3,28.2z"/>
				<path class="st137" d="M153.9,84h-2.6c-0.8,0-1.5-0.7-1.5-1.5V82c0-0.8,0.7-1.5,1.5-1.5h2.6c0.8,0,1.5,0.7,1.5,1.5v0.5
					C155.4,83.3,154.7,84,153.9,84z"/>
				<path class="st257" d="M140.3,33.8c0-1.4,1.1-2.5,2.5-2.5"/>
				<path class="st206" d="M161.1,69.2h-17.6c-1.6,0-2.9-1.3-2.9-2.9v-4.9c0-1.6,1.3-2.9,2.9-2.9h17.6c1.6,0,2.9,1.3,2.9,2.9v4.9
					C164,67.9,162.7,69.2,161.1,69.2z"/>
				<path class="st139" d="M140,64.4h0.4c0.2,0,0.3-0.1,0.3-0.3V36.9c0-0.2-0.1-0.3-0.3-0.3H140c-0.2,0-0.3,0.1-0.3,0.3V64
					C139.7,64.2,139.9,64.4,140,64.4z"/>
				<g>
					<path class="st86" d="M147.6,64.2c-0.2-0.3-0.4-0.5-0.7-0.6c-0.3-0.1-0.7-0.3-1.3-0.4c-0.6-0.1-1-0.3-1.1-0.4
						c-0.1-0.1-0.2-0.2-0.2-0.4c0-0.2,0.1-0.3,0.2-0.4c0.2-0.2,0.5-0.2,0.8-0.2c0.3,0,0.6,0.1,0.8,0.2c0.1,0.1,0.2,0.2,0.2,0.3
						c0.1,0.2,0.3,0.4,0.5,0.4h0.1c0.4,0,0.7-0.5,0.5-0.8c-0.1-0.2-0.2-0.4-0.4-0.5c-0.4-0.3-0.9-0.5-1.7-0.5
						c-0.5,0-0.8,0.1-1.2,0.2c-0.3,0.1-0.6,0.3-0.7,0.6c-0.2,0.3-0.3,0.5-0.3,0.9c0,0.5,0.2,0.9,0.5,1.2c0.3,0.2,0.7,0.4,1.4,0.6
						c0.5,0.1,0.8,0.2,1,0.3c0.2,0.1,0.4,0.2,0.4,0.3s0.1,0.2,0.1,0.4c0,0.2-0.1,0.4-0.3,0.6c-0.2,0.2-0.5,0.2-0.9,0.2
						c-0.4,0-0.7-0.1-0.9-0.3c-0.2-0.2-0.4-0.5-0.4-0.9l-0.5,0.1c-0.4,0-0.6,0.4-0.5,0.7c0.1,0.4,0.3,0.6,0.6,0.8
						c0.4,0.4,1,0.5,1.7,0.5c0.5,0,0.9-0.1,1.3-0.2s0.6-0.4,0.8-0.7c0.2-0.3,0.3-0.6,0.3-1C147.8,64.8,147.8,64.4,147.6,64.2z"/>
					<path class="st86" d="M150.8,65.9c-0.2,0.1-0.4,0.1-0.5,0.1c-0.1,0-0.1,0-0.2-0.1c-0.1,0-0.1-0.1-0.1-0.2c0-0.1,0-0.3,0-0.6
						v-1.7h0.8v-0.9H150V61l-0.9,0.5c-0.2,0.1-0.3,0.3-0.3,0.5v0.5h-0.5v0.9h0.5v1.9c0,0.4,0,0.7,0,0.8c0,0.2,0.1,0.3,0.2,0.4
						c0.1,0.1,0.2,0.2,0.4,0.3c0.2,0.1,0.4,0.1,0.6,0.1c0.3,0,0.6-0.1,0.9-0.2L150.8,65.9z"/>
					<path class="st86" d="M155.2,66.3c0-0.2,0-0.5,0-0.8v-1.3c0-0.5,0-0.8-0.1-1c-0.1-0.2-0.3-0.3-0.5-0.5
						c-0.3-0.1-0.6-0.2-1.1-0.2c-0.5,0-1,0.1-1.3,0.3c-0.3,0.2-0.5,0.5-0.6,0.9l1,0.2c0.1-0.2,0.2-0.3,0.3-0.4
						c0.1-0.1,0.3-0.1,0.5-0.1c0.3,0,0.5,0,0.6,0.1c0.1,0.1,0.2,0.3,0.2,0.5V64c-0.2,0.1-0.6,0.2-1.1,0.3c-0.4,0.1-0.7,0.2-0.9,0.3
						c-0.2,0.1-0.4,0.2-0.5,0.4c-0.1,0.2-0.2,0.4-0.2,0.6c0,0.4,0.1,0.7,0.4,0.9c0.3,0.2,0.6,0.4,1.1,0.4c0.3,0,0.5,0,0.7-0.1
						c0.2-0.1,0.4-0.2,0.6-0.4c0,0,0,0.1,0,0.1c0,0.2,0.1,0.3,0.1,0.3h1.1C155.3,66.7,155.2,66.5,155.2,66.3z M154,65
						c0,0.3,0,0.5,0,0.5c-0.1,0.2-0.1,0.3-0.3,0.4c-0.2,0.1-0.4,0.2-0.6,0.2c-0.2,0-0.3-0.1-0.5-0.2c-0.1-0.1-0.2-0.3-0.2-0.4
						c0-0.2,0.1-0.3,0.2-0.4c0.1-0.1,0.3-0.1,0.6-0.2c0.3-0.1,0.5-0.1,0.7-0.2V65z"/>
					<path class="st86" d="M158.2,62.4c-0.2,0-0.4,0.1-0.5,0.1c-0.1,0.1-0.3,0.3-0.5,0.6v-0.6h-0.5c-0.3,0-0.6,0.3-0.6,0.6v3.2
						c0,0.3,0.3,0.6,0.6,0.6c0.3,0,0.6-0.3,0.6-0.6v-0.8c0-0.7,0-1.2,0.1-1.4c0.1-0.2,0.2-0.4,0.3-0.5c0.1-0.1,0.3-0.1,0.4-0.1
						c0.2,0,0.4,0.1,0.5,0.2l0.4-1C158.8,62.5,158.5,62.4,158.2,62.4z"/>
					<path class="st86" d="M161.5,65.9c-0.2,0.1-0.4,0.1-0.5,0.1c-0.1,0-0.1,0-0.2-0.1c0,0-0.1-0.1-0.1-0.2c0-0.1,0-0.3,0-0.6v-1.7
						h0.8v-0.9h-0.8V61l-0.9,0.5c-0.2,0.1-0.3,0.3-0.3,0.5v0.5H159v0.9h0.5v1.9c0,0.4,0,0.7,0,0.8c0,0.2,0.1,0.3,0.2,0.4
						c0.1,0.1,0.2,0.2,0.4,0.3c0.2,0.1,0.4,0.1,0.6,0.1c0.3,0,0.6-0.1,0.9-0.2L161.5,65.9z"/>
				</g>
			</g>
			<g>
				<g>
					<linearGradient id="SVGID_23_" gradientUnits="userSpaceOnUse" x1="158.5783" y1="63.9572" x2="186.2456" y2="91.6245">
						<stop  offset="0" style="stop-color:#F8B133"/>
						<stop  offset="0.2536" style="stop-color:#F8AE32"/>
						<stop  offset="0.4449" style="stop-color:#F6A430"/>
						<stop  offset="0.6157" style="stop-color:#F3942C"/>
						<stop  offset="0.7746" style="stop-color:#F07D26"/>
						<stop  offset="0.9238" style="stop-color:#EB601F"/>
						<stop  offset="1" style="stop-color:#E84E1B"/>
					</linearGradient>
					<path style="fill:url(#SVGID_23_);" d="M189.1,87.8l-3.9-18.7L183,64c-0.4-0.5-1.6-0.4-1.6,0.2l-0.1,0.3
						c-0.2,1.9-0.1,2.4,0.4,4.2l1.8,9c-2.9-5.4-6.3-10.8-7.1-11.8c-0.1-0.1-2.6-3.4-4.2-4.3l-2.2-0.8l-0.4-0.1l-2.5-0.9
						c-0.8-0.3-1.5,0.2-1.5,0.8c0,0.1,0,0.1,0,0.2c0,0,0,0.1,0,0.1c0.4,0.9,5,16.8,4,17.3c-0.8,0.4-7-14.7-9.8-14.9
						c-1.1-0.1-2,0.8-1.6,1.7c2.6,5.8,5.8,13.3,9.4,18.8c-1.4-0.1-2.4,0-2.4,0c-7.4-2.9-9.7-0.9-9.8,1c0,0.6,0.5,1.2,1.1,1.2
						c5.8,0.4,17.1,8.9,18.6,6c0.1-0.3,0.2-0.5,0.3-0.8c5.8,2.1,11.8-0.3,12.5-1.6c0.2-0.3,0.2-0.9,0-1.7L189.1,87.8z"/>
					<linearGradient id="SVGID_24_" gradientUnits="userSpaceOnUse" x1="179.0993" y1="87.0362" x2="189.2354" y2="102.4046">
						<stop  offset="0" style="stop-color:#391763"/>
						<stop  offset="1" style="stop-color:#260340"/>
					</linearGradient>
					<polygon style="fill:url(#SVGID_24_);" points="162.8,95.3 199.7,95.3 194.1,76.9 					"/>
					<path class="st26" d="M175.9,75.3c0,0.1-0.1,0.1-0.1,0.1h0c-0.1,0-0.1-0.1-0.1-0.1c0,0,0.2-4.5-5.9-14.6l0.4,0.1
						C176.1,70.9,175.9,75.2,175.9,75.3z"/>
				</g>
			</g>
		</g>
	</g>
	<g>
		<polygon class="st2" points="259.9,133.6 259.9,138.6 255.6,136.1 251.2,133.6 255.6,131.1 259.9,128.6 		"/>
		<linearGradient id="SVGID_25_" gradientUnits="userSpaceOnUse" x1="255.7669" y1="128.9286" x2="292.624" y2="128.9286">
			<stop  offset="0" style="stop-color:#F8B133"/>
			<stop  offset="0.1847" style="stop-color:#F7AB31"/>
			<stop  offset="0.4366" style="stop-color:#F4992D"/>
			<stop  offset="0.726" style="stop-color:#EF7D26"/>
			<stop  offset="1" style="stop-color:#EA5B1D"/>
		</linearGradient>
		
			<path style="fill:none;stroke:url(#SVGID_25_);stroke-width:2.3989;stroke-linecap:round;stroke-linejoin:round;stroke-miterlimit:10;" d="
			M275.8,124.3c0,0,45.5,4.8-18.8,9.3"/>
	</g>
	<g>
		<path class="st3" d="M71.5,98.4h-2.3v-8.6c-0.8,0.8-1.8,1.3-2.9,1.7v-2.1c0.6-0.2,1.2-0.6,1.9-1.1c0.7-0.5,1.2-1.2,1.4-1.9h1.8
			V98.4z"/>
	</g>
	<g>
		<path class="st3" d="M187.5,34.8v2.1h-8c0.1-0.8,0.3-1.6,0.8-2.3c0.4-0.7,1.3-1.7,2.6-2.8c1-1,1.7-1.6,1.9-1.9
			c0.3-0.5,0.5-0.9,0.5-1.4c0-0.5-0.1-0.9-0.4-1.2c-0.3-0.3-0.6-0.4-1.1-0.4c-0.5,0-0.9,0.1-1.1,0.4c-0.3,0.3-0.4,0.8-0.5,1.4
			l-2.3-0.2c0.1-1.2,0.6-2.1,1.3-2.7s1.6-0.8,2.7-0.8c1.2,0,2.1,0.3,2.8,0.9s1,1.4,1,2.4c0,0.5-0.1,1-0.3,1.5
			c-0.2,0.5-0.5,1-0.9,1.5c-0.3,0.4-0.8,0.9-1.5,1.5c-0.7,0.7-1.2,1.1-1.4,1.3c-0.2,0.2-0.3,0.4-0.5,0.6H187.5z"/>
	</g>
	<g>
		<path class="st3" d="M278.2,105.5l2.2-0.3c0.1,0.6,0.3,1,0.6,1.3c0.3,0.3,0.7,0.4,1.1,0.4c0.5,0,0.9-0.2,1.2-0.5
			c0.3-0.4,0.5-0.8,0.5-1.4c0-0.6-0.2-1-0.5-1.4c-0.3-0.3-0.7-0.5-1.1-0.5c-0.3,0-0.6,0.1-1,0.2l0.3-1.9c0.6,0,1.1-0.1,1.4-0.4
			s0.5-0.7,0.5-1.1c0-0.4-0.1-0.7-0.4-1c-0.2-0.2-0.6-0.4-0.9-0.4c-0.4,0-0.7,0.1-1,0.4s-0.4,0.7-0.5,1.2l-2.1-0.4
			c0.1-0.7,0.4-1.3,0.7-1.7c0.3-0.4,0.7-0.8,1.2-1c0.5-0.2,1.1-0.4,1.8-0.4c1.1,0,2,0.4,2.7,1.1c0.6,0.6,0.8,1.2,0.8,2
			c0,1-0.6,1.9-1.7,2.5c0.7,0.1,1.2,0.5,1.6,1s0.6,1.1,0.6,1.8c0,1-0.4,1.9-1.1,2.7c-0.8,0.7-1.7,1.1-2.8,1.1c-1.1,0-2-0.3-2.7-0.9
			C278.8,107.3,278.4,106.5,278.2,105.5z"/>
	</g>
</g>
</svg>
