<svg id="starten_test" data-name="starten test" xmlns="http://www.w3.org/2000/svg" xmlns:xlink="http://www.w3.org/1999/xlink" viewBox="0 0 309.9 238.86"><defs><style>.cls-1{fill:url(#linear-gradient);}.cls-2,.cls-46{fill:#fff;stroke:#fbb040;}.cls-18,.cls-19,.cls-2,.cls-20,.cls-26,.cls-27,.cls-28,.cls-35,.cls-39,.cls-43,.cls-46,.cls-53{stroke-miterlimit:10;}.cls-2{stroke-width:7.42px;}.cls-3{fill:#534741;}.cls-4{fill:#a2def9;}.cls-5{fill:#f29100;}.cls-6{fill:#e84e1b;}.cls-7{fill:url(#Naamloos_verloop_34);}.cls-8{fill:url(#Naamloos_verloop_7);}.cls-9{fill:url(#Naamloos_verloop_7-2);}.cls-10,.cls-18,.cls-26,.cls-27,.cls-28,.cls-29,.cls-39,.cls-43,.cls-45,.cls-53,.cls-56{fill:none;}.cls-10{stroke:#e84e1b;stroke-width:0.68px;}.cls-10,.cls-28,.cls-39,.cls-43,.cls-45,.cls-53,.cls-56{stroke-linecap:round;}.cls-10,.cls-45,.cls-56{stroke-linejoin:round;}.cls-11{fill:url(#linear-gradient-2);}.cls-12{fill:url(#linear-gradient-3);}.cls-13{fill:url(#linear-gradient-4);}.cls-14{fill:url(#linear-gradient-5);}.cls-15{fill:#f8dcb2;}.cls-16{fill:url(#Naamloos_verloop_65);}.cls-17{fill:url(#Naamloos_verloop_64);}.cls-18,.cls-19,.cls-20,.cls-39,.cls-43,.cls-53{stroke:#897cba;}.cls-18,.cls-19{stroke-width:0.95px;}.cls-19,.cls-20,.cls-41{fill:#897cba;}.cls-20{stroke-width:0.63px;}.cls-21{fill:url(#linear-gradient-6);}.cls-22{fill:url(#linear-gradient-7);}.cls-23{fill:url(#linear-gradient-8);}.cls-24{fill:gray;}.cls-25{fill:url(#linear-gradient-9);}.cls-26{stroke:#a2def9;stroke-width:0.32px;stroke-dasharray:2.52;}.cls-27{stroke:#fcea0d;stroke-width:3.33px;}.cls-28{stroke:#f5f5f5;stroke-width:0.55px;}.cls-30{fill:url(#linear-gradient-10);}.cls-31{fill:url(#linear-gradient-11);}.cls-32{fill:url(#linear-gradient-12);}.cls-33{fill:#35a8e0;}.cls-34{fill:#160031;}.cls-35{fill:#f7941d;stroke:#391763;stroke-width:0.83px;}.cls-36{fill:#260340;}.cls-37{fill:#f5f5f5;}.cls-38{fill:#2d2e82;}.cls-39{stroke-width:0.74px;}.cls-39,.cls-41,.cls-43,.cls-53{opacity:0.35;}.cls-40{fill:#2bb673;}.cls-42{fill:#dbddde;}.cls-43{stroke-width:0.2px;}.cls-44{fill:#f8b133;}.cls-45{stroke-width:2.72px;stroke:url(#Naamloos_verloop_28);}.cls-46{stroke-width:7.3px;}.cls-47{fill:url(#linear-gradient-13);}.cls-48{fill:url(#linear-gradient-14);}.cls-49{fill:url(#linear-gradient-15);}.cls-50{fill:url(#linear-gradient-16);}.cls-51{fill:url(#linear-gradient-17);}.cls-52{fill:url(#linear-gradient-18);}.cls-53{stroke-width:1.15px;}.cls-54{fill:url(#Naamloos_verloop_17);}.cls-55{fill:url(#linear-gradient-19);}.cls-56{stroke-width:2.4px;stroke:url(#Naamloos_verloop_28-2);}</style><linearGradient id="linear-gradient" x1="156.09" y1="5.34" x2="156.09" y2="238.65" gradientUnits="userSpaceOnUse"><stop offset="0" stop-color="#65c8d0"/><stop offset="0.16" stop-color="#64c4ce"/><stop offset="0.32" stop-color="#5fb8c8"/><stop offset="0.48" stop-color="#58a4be"/><stop offset="0.65" stop-color="#4e87af"/><stop offset="0.81" stop-color="#40639d"/><stop offset="0.97" stop-color="#303787"/><stop offset="1" stop-color="#2d2e82"/></linearGradient><linearGradient id="Naamloos_verloop_34" x1="859.84" y1="488.98" x2="859.84" y2="412.93" gradientUnits="userSpaceOnUse"><stop offset="0" stop-color="#f8b133"/><stop offset="0.22" stop-color="#f7ae32"/><stop offset="0.38" stop-color="#f6a430"/><stop offset="0.53" stop-color="#f3942c"/><stop offset="0.68" stop-color="#ef7c26"/><stop offset="0.81" stop-color="#eb5e1f"/><stop offset="0.87" stop-color="#e84e1b"/></linearGradient><linearGradient id="Naamloos_verloop_7" x1="890.67" y1="449.42" x2="884.33" y2="449.42" gradientUnits="userSpaceOnUse"><stop offset="0.04" stop-color="#f29100"/><stop offset="0.43" stop-color="#f28f01"/><stop offset="0.62" stop-color="#f18704"/><stop offset="0.76" stop-color="#ef7a09"/><stop offset="0.88" stop-color="#ec6811"/><stop offset="0.99" stop-color="#e8501a"/><stop offset="1" stop-color="#e84e1b"/></linearGradient><linearGradient id="Naamloos_verloop_7-2" x1="829.01" y1="449.42" x2="835.34" y2="449.42" xlink:href="#Naamloos_verloop_7"/><linearGradient id="linear-gradient-2" x1="836.36" y1="491.99" x2="836.36" y2="513.19" gradientUnits="userSpaceOnUse"><stop offset="0" stop-color="#260340"/><stop offset="0.19" stop-color="#2b084a"/><stop offset="0.67" stop-color="#35135c"/><stop offset="1" stop-color="#391763"/></linearGradient><linearGradient id="linear-gradient-3" x1="882.99" y1="491.98" x2="882.99" y2="513.19" xlink:href="#linear-gradient-2"/><linearGradient id="linear-gradient-4" x1="881.13" y1="491.7" x2="881.13" y2="513.19" gradientUnits="userSpaceOnUse"><stop offset="0.03" stop-color="#2d2e82"/><stop offset="0.14" stop-color="#312779"/><stop offset="0.39" stop-color="#371b69"/><stop offset="0.59" stop-color="#391763"/></linearGradient><linearGradient id="linear-gradient-5" x1="838.49" y1="491.7" x2="838.49" y2="513.19" xlink:href="#linear-gradient-4"/><linearGradient id="Naamloos_verloop_65" x1="841.44" y1="448.55" x2="841.44" y2="455.88" gradientTransform="translate(-698.82 -274.32)" gradientUnits="userSpaceOnUse"><stop offset="0" stop-color="#2d2e82"/><stop offset="0.12" stop-color="#1c2969"/><stop offset="0.26" stop-color="#0c2452"/><stop offset="0.35" stop-color="#06224a"/></linearGradient><linearGradient id="Naamloos_verloop_64" x1="863.49" y1="448.55" x2="863.49" y2="455.88" gradientTransform="translate(-698.82 -274.32)" gradientUnits="userSpaceOnUse"><stop offset="0" stop-color="#2d2e82"/><stop offset="0.06" stop-color="#212a71"/><stop offset="0.15" stop-color="#12265b"/><stop offset="0.25" stop-color="#09234e"/><stop offset="0.33" stop-color="#06224a"/></linearGradient><linearGradient id="linear-gradient-6" x1="860.15" y1="447.76" x2="860.15" y2="399.11" gradientUnits="userSpaceOnUse"><stop offset="0" stop-color="#534741"/><stop offset="0.4" stop-color="#746e6b"/><stop offset="0.79" stop-color="#8f8d8c"/><stop offset="1" stop-color="#999"/></linearGradient><linearGradient id="linear-gradient-7" x1="112.48" y1="47.66" x2="121.46" y2="47.66" gradientUnits="userSpaceOnUse"><stop offset="0.03" stop-color="#2d2e82"/><stop offset="0.17" stop-color="#30297b"/><stop offset="0.65" stop-color="#371c69"/><stop offset="1" stop-color="#391763"/></linearGradient><linearGradient id="linear-gradient-8" x1="820.62" y1="349" x2="832.42" y2="349" xlink:href="#linear-gradient-7"/><linearGradient id="linear-gradient-9" x1="827.53" y1="365.42" x2="884.9" y2="365.42" xlink:href="#linear-gradient-7"/><linearGradient id="linear-gradient-10" x1="889.89" y1="357.8" x2="845.68" y2="337.04" gradientUnits="userSpaceOnUse"><stop offset="0" stop-color="#35a8e0"/><stop offset="0.05" stop-color="#3498d4"/><stop offset="0.16" stop-color="#3278bb"/><stop offset="0.28" stop-color="#305da6"/><stop offset="0.41" stop-color="#2f4896"/><stop offset="0.55" stop-color="#2e398b"/><stop offset="0.73" stop-color="#2d3184"/><stop offset="1" stop-color="#2d2e82"/></linearGradient><linearGradient id="linear-gradient-11" x1="878.43" y1="366.42" x2="842.16" y2="343.37" gradientUnits="userSpaceOnUse"><stop offset="0" stop-color="#35a8e0"/><stop offset="0.67" stop-color="#2f539e"/><stop offset="1" stop-color="#2d2e82"/></linearGradient><linearGradient id="linear-gradient-12" x1="839.15" y1="327.63" x2="839.15" y2="327.63" xlink:href="#linear-gradient-2"/><linearGradient id="Naamloos_verloop_28" x1="-273.94" y1="-1021.89" x2="-263.25" y2="-1021.89" gradientTransform="matrix(-0.55, -0.83, -0.83, 0.55, -137.39, 653.34)" gradientUnits="userSpaceOnUse"><stop offset="0" stop-color="#f8b133"/><stop offset="0.18" stop-color="#f7ab31"/><stop offset="0.44" stop-color="#f4992d"/><stop offset="0.73" stop-color="#ef7d26"/><stop offset="1" stop-color="#ea5b1d"/></linearGradient><linearGradient id="linear-gradient-13" x1="213.86" y1="115.22" x2="222.84" y2="115.22" xlink:href="#linear-gradient-7"/><linearGradient id="linear-gradient-14" x1="922" y1="416.56" x2="933.8" y2="416.56" xlink:href="#linear-gradient-7"/><linearGradient id="linear-gradient-15" x1="928.91" y1="432.98" x2="986.28" y2="432.98" xlink:href="#linear-gradient-7"/><linearGradient id="linear-gradient-16" x1="991.27" y1="425.37" x2="947.06" y2="404.61" xlink:href="#linear-gradient-10"/><linearGradient id="linear-gradient-17" x1="979.81" y1="433.98" x2="943.54" y2="410.93" xlink:href="#linear-gradient-11"/><linearGradient id="linear-gradient-18" x1="940.53" y1="395.19" x2="940.53" y2="395.19" xlink:href="#linear-gradient-2"/><linearGradient id="Naamloos_verloop_17" x1="755.99" y1="407.95" x2="783.66" y2="435.62" gradientUnits="userSpaceOnUse"><stop offset="0" stop-color="#f8b133"/><stop offset="0.25" stop-color="#f8ae32"/><stop offset="0.44" stop-color="#f6a430"/><stop offset="0.62" stop-color="#f3942c"/><stop offset="0.77" stop-color="#f07d26"/><stop offset="0.92" stop-color="#eb601f"/><stop offset="1" stop-color="#e84e1b"/></linearGradient><linearGradient id="linear-gradient-19" x1="70.44" y1="156.71" x2="80.57" y2="172.08" gradientUnits="userSpaceOnUse"><stop offset="0" stop-color="#391763"/><stop offset="1" stop-color="#260340"/></linearGradient><linearGradient id="Naamloos_verloop_28-2" x1="951.26" y1="398.55" x2="988.11" y2="398.55" gradientTransform="matrix(1, 0, 0, 1, 0, 0)" xlink:href="#Naamloos_verloop_28"/></defs><circle class="cls-1" cx="156.09" cy="121.99" r="116.65"/><circle class="cls-2" cx="155.12" cy="58.45" r="54.73"/><circle class="cls-3" cx="129.75" cy="182.32" r="5.28"/><circle class="cls-3" cx="178.26" cy="182.19" r="3.42"/><path class="cls-4" d="M897.62,498.24v15h-76v-15a5.54,5.54,0,0,1,5.47-5.58h65A5.54,5.54,0,0,1,897.62,498.24Z" transform="translate(-706.07 -274.32)"/><path class="cls-5" d="M868.44,479.83v11.28a8.6,8.6,0,0,1-17.2,0V480.34a3.24,3.24,0,0,1,3.24-3.24h11.23A2.73,2.73,0,0,1,868.44,479.83Z" transform="translate(-706.07 -274.32)"/><path class="cls-6" d="M884,442v20.66a24.28,24.28,0,0,1-15.7,22.64v2.13a24.05,24.05,0,0,1-17,0V485.3a24.28,24.28,0,0,1-15.7-22.64V442A24.2,24.2,0,0,1,884,442Z" transform="translate(-706.07 -274.32)"/><path class="cls-7" d="M884.33,438.78v24.34a25.93,25.93,0,0,1-15.89,24.2,23.11,23.11,0,0,1-17.2,0,25.92,25.92,0,0,1-15.9-24.2V438.78c0-14.21,11-25.85,24.5-25.85a23.81,23.81,0,0,1,17.3,7.59A26.51,26.51,0,0,1,884.33,438.78Z" transform="translate(-706.07 -274.32)"/><path class="cls-8" d="M890.67,449.42a6.33,6.33,0,0,1-6.34,6.33V443.09A6.34,6.34,0,0,1,890.67,449.42Z" transform="translate(-706.07 -274.32)"/><path class="cls-9" d="M829,449.42a6.32,6.32,0,0,0,6.33,6.33V443.09A6.33,6.33,0,0,0,829,449.42Z" transform="translate(-706.07 -274.32)"/><path class="cls-10" d="M859.07,456.67l.17,5a2.38,2.38,0,0,0,1.29,2.21c.85.31,1.43,1.5-1.12,5.48,0,0-.21.42,0,.6" transform="translate(-706.07 -274.32)"/><path class="cls-11" d="M851.15,492.66a46.34,46.34,0,0,1-4,11.86v0a30.77,30.77,0,0,1-6.24,8.65H821.62v-15s-.93-4.2,4.8-5.62c3.38-.85,11.38-.68,17.37-.4C848,492.42,851.15,492.66,851.15,492.66Z" transform="translate(-706.07 -274.32)"/><path class="cls-12" d="M897.62,498.46v14.73H878.34c-7.82-7.2-9.88-19.61-10-20.53,0,0,0,0,0,0h.05c.39,0,3.42-.24,7.28-.41,5.94-.26,13.86-.41,17.23.42C898.6,494,897.62,498.46,897.62,498.46Z" transform="translate(-706.07 -274.32)"/><path class="cls-13" d="M889,513.19h-19.6a45.68,45.68,0,0,1-1.1-20.53.06.06,0,0,0,0,0l.05,0,2.92-.89a17.52,17.52,0,0,1,4.36.48,12.48,12.48,0,0,1,1.51.47,5.57,5.57,0,0,1,3.38,3.06c2.07,5.52,3.53,9.23,10.64,10.64C897.83,507.69,893.76,511.62,889,513.19Z" transform="translate(-706.07 -274.32)"/><path class="cls-14" d="M851.65,506.61a.69.69,0,0,1,0,.13c-.09.68-.2,1.34-.32,2-.28,1.53-.63,3-1,4.45H830.57c-4.77-1.57-8.84-5.5-2.17-6.83,5.09-1,7.29-3.2,8.88-6.39,0-.07.07-.14.1-.2.59-1.21,1.1-2.56,1.66-4a5.57,5.57,0,0,1,3.38-3.06,13.63,13.63,0,0,1,1.37-.44,17.77,17.77,0,0,1,4.5-.51l3.09,1A43.83,43.83,0,0,1,851.65,506.61Z" transform="translate(-706.07 -274.32)"/><path class="cls-3" d="M842.83,445.53a1,1,0,0,1-.64-.22,1,1,0,0,1-.16-1.45,8.07,8.07,0,0,1,11.33-1.24,1,1,0,0,1,.15,1.45,1,1,0,0,1-1.44.15,6,6,0,0,0-8.44.93A1,1,0,0,1,842.83,445.53Z" transform="translate(-706.07 -274.32)"/><path class="cls-3" d="M875.42,445.2a1,1,0,0,1-.75-.34,6,6,0,0,0-4.17-1.94,6.06,6.06,0,0,0-4.32,1.57A1,1,0,1,1,864.8,443a8,8,0,0,1,11.38.5,1,1,0,0,1-.06,1.45A1,1,0,0,1,875.42,445.2Z" transform="translate(-706.07 -274.32)"/><path class="cls-15" d="M837.49,414.46a.34.34,0,0,1-.34-.34,6,6,0,0,1,6-6,.34.34,0,0,1,.34.34.35.35,0,0,1-.34.35,5.32,5.32,0,0,0-5.32,5.31A.34.34,0,0,1,837.49,414.46Z" transform="translate(-706.07 -274.32)"/><rect class="cls-16" x="140.1" y="174.23" width="5.05" height="7.33" rx="2.52"/><rect class="cls-17" x="162.15" y="174.23" width="5.05" height="7.33" rx="2.52"/><ellipse class="cls-4" cx="140.54" cy="176.5" rx="1.03" ry="1.01"/><ellipse class="cls-4" cx="162.15" cy="176.5" rx="1.03" ry="1.01"/><path class="cls-10" d="M854.29,475.86s4.86,3,9.56,0" transform="translate(-706.07 -274.32)"/><rect class="cls-18" x="131.32" y="172.69" width="18.37" height="10.71" rx="2.3"/><rect class="cls-18" x="156.83" y="172.69" width="18.37" height="10.71" rx="2.3"/><path class="cls-19" d="M852.71,447H866a3.1,3.1,0,0,0-3.05,2.12h-7.15S855.67,447,852.71,447Z" transform="translate(-706.07 -274.32)"/><path class="cls-20" d="M887.5,441.23,878.23,447a3.55,3.55,0,0,1,2.52,1.34l9.73-6.16A2.56,2.56,0,0,0,887.5,441.23Z" transform="translate(-706.07 -274.32)"/><path class="cls-20" d="M833.52,441.6l5.85,5.41a3.55,3.55,0,0,0-2.52,1.34l-6.3-5.79A2.55,2.55,0,0,1,833.52,441.6Z" transform="translate(-706.07 -274.32)"/><path class="cls-21" d="M892.14,432.81a5.92,5.92,0,0,0-1.61-11.09c-.16-.27-.33-.52-.5-.77a3.43,3.43,0,0,0,.51-1.79,3.38,3.38,0,0,0-1.8-3,5.2,5.2,0,0,0-7.8-6.41,9.94,9.94,0,0,0-8.43-4.67,10.35,10.35,0,0,0-2,.2c0-.06,0-.13,0-.2a3.38,3.38,0,0,0-5.73-2.43A9.92,9.92,0,0,0,854.51,400a3.41,3.41,0,0,0-2.33-.93,3.38,3.38,0,0,0-3.38,3.38c0,.08,0,.15,0,.23a3.31,3.31,0,0,0-1.22-.23,3.38,3.38,0,0,0-3.38,3.38v0c-.19,0-.39,0-.59,0a10,10,0,0,0-9.78,8.08h-.18a3.38,3.38,0,0,0-3.27,2.55,2.27,2.27,0,0,0-1-.24,2.23,2.23,0,0,0-2.23,2.23,2.2,2.2,0,0,0,.77,1.67,11.72,11.72,0,0,0,.54,16.22,3.38,3.38,0,0,0,.92,6.63h0a5.21,5.21,0,1,0,9.41-3.5,11.81,11.81,0,0,0,6.63-3.78,5.15,5.15,0,0,0,2.92.9,5.21,5.21,0,0,0,2.87-.86,11.73,11.73,0,0,0,15.68-.57,5.17,5.17,0,0,0,3.57,1.43,5.69,5.69,0,0,0,.83-.07,10,10,0,0,0,9.56,7.15,9.11,9.11,0,0,0,1.18-.08,5.21,5.21,0,1,0,9-4.5,3.38,3.38,0,0,0,1.06-6.31Z" transform="translate(-706.07 -274.32)"/><path class="cls-15" d="M859.43,436.69a8.52,8.52,0,0,1-6.07-2.52.34.34,0,0,1,0-.48.36.36,0,0,1,.49,0,7.88,7.88,0,0,0,11.15,0,.36.36,0,0,1,.49,0,.34.34,0,0,1,0,.48A8.52,8.52,0,0,1,859.43,436.69Z" transform="translate(-706.07 -274.32)"/><path class="cls-15" d="M879.39,441.31a5.78,5.78,0,0,1-5.56-4.21.34.34,0,1,1,.66-.18,5.1,5.1,0,0,0,6.31,3.51.34.34,0,1,1,.18.66A5.76,5.76,0,0,1,879.39,441.31Z" transform="translate(-706.07 -274.32)"/><path class="cls-15" d="M834.33,447a4.2,4.2,0,0,1-1.65-.34.35.35,0,0,1-.18-.45A.35.35,0,0,1,833,446a3.51,3.51,0,0,0,4.61-1.83.34.34,0,1,1,.62.28A4.19,4.19,0,0,1,834.33,447Z" transform="translate(-706.07 -274.32)"/><path class="cls-15" d="M887.31,447.06a4.21,4.21,0,0,1-1.3-.21.34.34,0,1,1,.21-.65,3.52,3.52,0,0,0,4.42-2.24.34.34,0,1,1,.65.21,4.22,4.22,0,0,1-4,2.89Z" transform="translate(-706.07 -274.32)"/><path class="cls-15" d="M830,433.47a.31.31,0,0,1-.24-.1,8.58,8.58,0,0,1,0-12.13.34.34,0,0,1,.48,0,.34.34,0,0,1,0,.49,7.88,7.88,0,0,0,0,11.15.34.34,0,0,1,0,.49A.33.33,0,0,1,830,433.47Z" transform="translate(-706.07 -274.32)"/><rect class="cls-22" x="112.48" y="35.58" width="8.98" height="24.16" rx="4.43"/><path class="cls-23" d="M832.39,368.28h-3.56a3.4,3.4,0,0,1-1-.15l-.27-.87v0l-.81-2.64-.71-2.3-4.26-13.95a.7.7,0,0,1,0-.12,1.29,1.29,0,0,1-.1-.44l-.88-14.34-.13-2.11a1.48,1.48,0,0,1,1.4-1.54l1.55-.09a1.47,1.47,0,0,1,1.57,1.36l.15,2.41.73,11.83v.05l.11,1.83,1.44,4.72,2.75,9,.56,1.79.58,1.91.89,2.9A1.6,1.6,0,0,1,832.39,368.28Z" transform="translate(-706.07 -274.32)"/><path class="cls-24" d="M836.57,321.83v0L835.91,350a2.67,2.67,0,0,1-3,2.3l-4.74-.24a2.63,2.63,0,0,1-.63-.15,2.61,2.61,0,0,1-1.74-2.74l.19-3.81v-.06l.65-13.06.51-10.63-1.39-10.79-.92-7.06h10.56l.09,1.34,1.05,16A2.41,2.41,0,0,1,836.57,321.83Z" transform="translate(-706.07 -274.32)"/><path class="cls-25" d="M884.9,366.93a1.25,1.25,0,0,1-1.81,1.33,1.42,1.42,0,0,1-.29,0h-54a3.4,3.4,0,0,1-1-.15.26.26,0,0,1-.12-.05,3.61,3.61,0,0,1-.15-.82v0c0-.1,0-.21,0-.31a4.22,4.22,0,0,1,.68-2.33,4,4,0,0,1,.6-.76,4.29,4.29,0,0,1,2.07-1.15,4.24,4.24,0,0,1,1-.13h48.64a4.37,4.37,0,0,1,3.69,2A4.3,4.3,0,0,1,884.9,366.93Z" transform="translate(-706.07 -274.32)"/><path class="cls-24" d="M886.32,364.42v.34a3.51,3.51,0,0,1-1.49,2.87,3.31,3.31,0,0,1-1.74.63,1.42,1.42,0,0,1-.29,0h-54a3.4,3.4,0,0,1-1-.15.26.26,0,0,1-.12-.05,3.5,3.5,0,0,1-2.39-3.32v-.34a3.54,3.54,0,0,1,3.53-3.52h53.95l.76.08A3.54,3.54,0,0,1,886.32,364.42Z" transform="translate(-706.07 -274.32)"/><path class="cls-26" d="M845.72,353.49a359.7,359.7,0,0,0,40.54,6,2.18,2.18,0,0,1,.76.75,2.3,2.3,0,0,1,.33,1.09,3.68,3.68,0,0,1,0,.47c0,.37-.24,1.31-.47,2.78" transform="translate(-706.07 -274.32)"/><polygon class="cls-5" points="147.69 68.11 164.65 79.16 166.27 76.59 149.78 64.61 147.69 68.11"/><path class="cls-27" d="M850.45,325.54" transform="translate(-706.07 -274.32)"/><path class="cls-27" d="M856.78,325.54" transform="translate(-706.07 -274.32)"/><path class="cls-28" d="M853.86,321.58" transform="translate(-706.07 -274.32)"/><path class="cls-28" d="M857.46,325.12" transform="translate(-706.07 -274.32)"/><line class="cls-29" x1="127.08" y1="54.97" x2="127.14" y2="56.82"/><path class="cls-30" d="M897.65,364.6h-11c.06-1.19.15-2.29.25-3.29,0-.36.08-.72.11-1.05.36-3.56.66-5.6-.41-5.57a179.94,179.94,0,0,1-41.52-3.09,9.68,9.68,0,0,1-1-.94,8,8,0,0,1-2.25-5,9.84,9.84,0,0,1,.31-3.13,16,16,0,0,1,2.36-4.92,3.15,3.15,0,0,1,2.1-1.29,31.43,31.43,0,0,1,4.6-.26l1.7,0h.27l.62,0h.2c.59,0,1.19.06,1.84.11.3,0,.61,0,.91.07h0l.26,0,.73.07c1.54.14,3.2.33,5,.58l.9.13.91.13,1.41.24h0c.32,0,.65.11,1,.17h0A167.57,167.57,0,0,1,894.08,345a3.21,3.21,0,0,1,1.08.65C896.43,346.79,897.09,354.91,897.65,364.6Z" transform="translate(-706.07 -274.32)"/><path class="cls-31" d="M893,364.6h-6.65v.16a3.51,3.51,0,0,1-1.49,2.87,3.31,3.31,0,0,1-1.74.63,16.71,16.71,0,0,0,.16-3.66c-.09-.52-.3-.78-.69-.77a288.22,288.22,0,0,1-41.33-1.27,8.89,8.89,0,0,1-1.55-1.66,10.47,10.47,0,0,1-1.51-8.31h0a15.93,15.93,0,0,1,2.32-5.82,3.16,3.16,0,0,1,1.37-1.09,3,3,0,0,1,.72-.2c2.16-.33,6.8-.45,13.6.33,1.1.14,2.26.29,3.47.47h0c2.56.38,5.35.88,8.39,1.52a177,177,0,0,1,22,6.3,3.5,3.5,0,0,1,1.08.65C892,355.52,892.52,359.32,893,364.6Z" transform="translate(-706.07 -274.32)"/><path class="cls-32" d="M839.15,327.63" transform="translate(-706.07 -274.32)"/><line class="cls-29" x1="164.22" y1="51.25" x2="164.21" y2="51.22"/><path class="cls-26" d="M888.89,364.6c.08-.42.13-.72.15-.89a2.33,2.33,0,0,0-1.1-2.31l-.59,0-.44,0-3.37-.33-.76-.08c-19.45-2-35.38-5.53-35.38-5.53" transform="translate(-706.07 -274.32)"/><path class="cls-33" d="M867.39,336.47a3.46,3.46,0,0,1-.21.78,4.29,4.29,0,0,1-.16.43h0c-.85,1.82-2.92,3.61-5.6,5.29-1.12.71-2.35,1.4-3.64,2.06-.52.27-1,.53-1.58.78a113.08,113.08,0,0,1-12.07,4.85c-2.55.88-4.67,1.55-5.94,1.93h0l-1.26.37,1.73-9.66,1.59-8.84.85-4.77a158.69,158.69,0,0,1-5.56-24.59c-.07-.45-.13-.9-.18-1.34h28.87l.09.8s.26,1.37.62,3.57a207.58,207.58,0,0,1,2.64,22.09A34.59,34.59,0,0,1,867.39,336.47Z" transform="translate(-706.07 -274.32)"/><polygon class="cls-34" points="133.73 60.21 161.55 55.89 161.55 62.84 132.14 69.07 133.73 60.21"/><polygon class="cls-35" points="155.98 55.48 146.58 57.26 145.05 61.17 145.57 63.92 148.31 66.37 157.7 64.6 159.35 61.32 158.83 58.57 155.98 55.48"/><rect class="cls-36" x="169.17" y="23.07" width="21.49" height="38.41" rx="2.22"/><rect class="cls-37" x="171.02" y="25.55" width="17.91" height="32.03" rx="2.22"/><rect class="cls-38" x="177.91" y="24.1" width="4.82" height="0.48" rx="0.2"/><rect class="cls-38" x="178.36" y="58.28" width="3.59" height="2.23" rx="0.95"/><path class="cls-39" d="M878.28,302.53a1.6,1.6,0,0,1,1.6-1.61" transform="translate(-706.07 -274.32)"/><rect class="cls-40" x="172.36" y="44.13" width="15.11" height="6.88" rx="1.88"/><rect class="cls-41" x="171.86" y="29.99" width="0.69" height="17.88" rx="0.21"/><path class="cls-42" d="M883,322.08a1.08,1.08,0,0,0-.43-.39,4.88,4.88,0,0,0-.83-.28,2.2,2.2,0,0,1-.72-.25.33.33,0,0,1-.12-.24.26.26,0,0,1,.13-.23.84.84,0,0,1,.53-.15.77.77,0,0,1,.49.14.46.46,0,0,1,.14.17.38.38,0,0,0,.36.24h.05a.37.37,0,0,0,.32-.53,1.06,1.06,0,0,0-.26-.34,1.65,1.65,0,0,0-1.09-.31,1.78,1.78,0,0,0-.76.13,1,1,0,0,0-.64.94,1,1,0,0,0,.35.77,2.23,2.23,0,0,0,.87.38,5.1,5.1,0,0,1,.62.17.56.56,0,0,1,.28.16.31.31,0,0,1,.08.23.47.47,0,0,1-.19.38.87.87,0,0,1-.56.15.8.8,0,0,1-.56-.17.91.91,0,0,1-.28-.56l-.34,0a.37.37,0,0,0-.32.47,1.21,1.21,0,0,0,.38.55,1.59,1.59,0,0,0,1.11.33,2.28,2.28,0,0,0,.84-.13,1,1,0,0,0,.51-.43,1.08,1.08,0,0,0,.19-.62A1.15,1.15,0,0,0,883,322.08Z" transform="translate(-706.07 -274.32)"/><path class="cls-42" d="M885.07,323.19a1,1,0,0,1-.3.08.25.25,0,0,1-.12,0,.36.36,0,0,1-.07-.1,3,3,0,0,1,0-.39v-1.13h.5V321h-.5v-1l-.55.33a.35.35,0,0,0-.19.32V321h-.34v.59h.34v1.22a5.14,5.14,0,0,0,0,.52.75.75,0,0,0,.1.28.63.63,0,0,0,.24.18,1,1,0,0,0,.36.06,1.5,1.5,0,0,0,.58-.1Z" transform="translate(-706.07 -274.32)"/><path class="cls-42" d="M887.87,323.44a3.63,3.63,0,0,1,0-.55V322a1.62,1.62,0,0,0-.09-.66.76.76,0,0,0-.35-.3,1.86,1.86,0,0,0-.73-.12,1.44,1.44,0,0,0-.82.2,1,1,0,0,0-.38.6l.66.12a.58.58,0,0,1,.18-.27.49.49,0,0,1,.31-.08.71.71,0,0,1,.39.08.38.38,0,0,1,.11.31V322a5.15,5.15,0,0,1-.72.18,2.5,2.5,0,0,0-.59.17.63.63,0,0,0-.3.28.67.67,0,0,0-.12.42.81.81,0,0,0,.24.59,1,1,0,0,0,.68.23,1.07,1.07,0,0,0,.47-.09,1.39,1.39,0,0,0,.4-.28.64.64,0,0,1,0,.09,1.59,1.59,0,0,0,.08.22H888A1.49,1.49,0,0,1,887.87,323.44Zm-.75-.82a1.43,1.43,0,0,1,0,.36.43.43,0,0,1-.18.24.62.62,0,0,1-.38.14.41.41,0,0,1-.41-.38.36.36,0,0,1,.15-.27,1.79,1.79,0,0,1,.4-.12l.45-.11Z" transform="translate(-706.07 -274.32)"/><path class="cls-42" d="M889.85,321a.66.66,0,0,0-.31.09,1.4,1.4,0,0,0-.32.37V321h-.32a.38.38,0,0,0-.36.38v2a.37.37,0,1,0,.73,0V323a3.69,3.69,0,0,1,.07-.93.6.6,0,0,1,.16-.31.39.39,0,0,1,.26-.09.73.73,0,0,1,.35.12l.22-.63A.91.91,0,0,0,889.85,321Z" transform="translate(-706.07 -274.32)"/><path class="cls-42" d="M891.93,323.19a.89.89,0,0,1-.3.08.25.25,0,0,1-.12,0,.23.23,0,0,1-.07-.1,3,3,0,0,1,0-.39v-1.13h.5V321h-.5v-1l-.56.33a.36.36,0,0,0-.18.32V321h-.34v.59h.34v1.22a2.87,2.87,0,0,0,0,.52.51.51,0,0,0,.1.28.48.48,0,0,0,.23.18,1.06,1.06,0,0,0,.37.06,1.61,1.61,0,0,0,.58-.1Z" transform="translate(-706.07 -274.32)"/><rect class="cls-36" x="855.21" y="330.14" width="5.88" height="10.52" rx="0.61" transform="translate(340.36 -840.84) rotate(80.44)"/><rect class="cls-37" x="855.89" y="331" width="4.9" height="8.77" rx="0.61" transform="translate(340.5 -841.05) rotate(80.44)"/><rect class="cls-38" x="862.35" y="334.63" width="1.32" height="0.13" rx="0.06" transform="translate(343.72 -846.22) rotate(80.44)"/><rect class="cls-38" x="853.04" y="335.93" width="0.98" height="0.61" rx="0.26" transform="translate(337.34 -835.59) rotate(80.44)"/><path class="cls-43" d="M861.59,332.68a.44.44,0,0,1,.51.36" transform="translate(-706.07 -274.32)"/><rect class="cls-40" x="854.65" y="334.7" width="4.14" height="1.88" rx="0.51" transform="translate(339.4 -839.23) rotate(80.44)"/><rect class="cls-41" x="858.6" y="330.72" width="0.19" height="4.89" rx="0.06" transform="translate(338.61 -843.25) rotate(80.44)"/><path class="cls-42" d="M857.05,334.36a.52.52,0,0,0-.07-.2.46.46,0,0,0-.12-.12.31.31,0,0,0-.16,0,.35.35,0,0,0-.2.14.82.82,0,0,0-.06.25c0,.09,0,.15,0,.18a.2.2,0,0,1,0,.08.05.05,0,0,1,0,0c-.05,0-.08,0-.11,0a.21.21,0,0,1-.07-.15.27.27,0,0,1,0-.16c0-.05.07-.07.14-.1l0-.09a.1.1,0,0,0-.14-.06.37.37,0,0,0-.13.12.52.52,0,0,0,0,.32.63.63,0,0,0,.08.22.37.37,0,0,0,.13.12.37.37,0,0,0,.18,0,.34.34,0,0,0,.16-.07.32.32,0,0,0,.08-.14.55.55,0,0,0,0-.23.81.81,0,0,1,0-.2.06.06,0,0,1,.06,0,.1.1,0,0,1,.07,0,.3.3,0,0,1,.06.15.49.49,0,0,1,0,.13s0,0,0,.05a.09.09,0,0,0,0,.11h0a.1.1,0,0,0,.16.06.27.27,0,0,0,.07-.08A.36.36,0,0,0,857.05,334.36Z" transform="translate(-706.07 -274.32)"/><path class="cls-42" d="M857.15,335.18,857,335s-.06-.05-.09,0l-.1,0v-.1l-.16,0V335l-.32.06-.14,0a.14.14,0,0,0-.07,0,.1.1,0,0,0,0,.07.34.34,0,0,0,0,.1.26.26,0,0,0,.07.15l.14,0a.17.17,0,0,1,0-.07v0s0,0,0,0l.1,0,.31-.05,0,.14.16,0,0-.13Z" transform="translate(-706.07 -274.32)"/><path class="cls-42" d="M857,335.78a.34.34,0,0,0-.08-.21.33.33,0,0,0-.18-.08v.19a.1.1,0,0,1,.08,0,.11.11,0,0,1,0,.08.19.19,0,0,1,0,.11.14.14,0,0,1-.08.05h0a.81.81,0,0,1-.08-.18,1.44,1.44,0,0,0-.07-.16l-.1-.07a.2.2,0,0,0-.11,0,.26.26,0,0,0-.15.09.33.33,0,0,0,0,.2.61.61,0,0,0,0,.12.38.38,0,0,0,.09.09s0,0,0,0l0,0,0,.2.1,0a.34.34,0,0,1,.14,0l.23,0,.18-.06s0-.06.06-.11A.47.47,0,0,0,857,335.78Zm-.42.2h-.09a.08.08,0,0,1-.08,0,.14.14,0,0,1,0-.09.09.09,0,0,1,0-.09.07.07,0,0,1,.06,0,.05.05,0,0,1,.07,0s0,0,.06.1,0,.09.05.12Z" transform="translate(-706.07 -274.32)"/><path class="cls-42" d="M857.1,336.56a.26.26,0,0,0-.11-.07l.1,0v-.11a.09.09,0,0,0-.1-.06l-.16,0h0l-.37.06a.1.1,0,0,0-.08.11.1.1,0,0,0,.12.08l.13,0,.25,0,.09,0a.08.08,0,0,1,0,.07.14.14,0,0,1,0,.1l.19,0a.2.2,0,0,0,0-.13A.12.12,0,0,0,857.1,336.56Z" transform="translate(-706.07 -274.32)"/><path class="cls-42" d="M857.47,337l-.12-.14a.08.08,0,0,0-.09,0h-.09l0-.1h0l-.14,0v.09l-.32.07a.33.33,0,0,0-.14,0s0,0-.07,0a.16.16,0,0,0,0,.07.17.17,0,0,0,0,.1.44.44,0,0,0,.06.16l.15-.05s0-.05,0-.07v0l0,0h.11l.3-.06,0,.14.16,0,0-.13Z" transform="translate(-706.07 -274.32)"/><polygon class="cls-44" points="150.38 44.19 144.75 44.95 148.22 49.45 151.69 53.95 153.85 48.69 156.01 43.43 150.38 44.19"/><path class="cls-45" d="M872.88,308.86s-18.08-6-16.64,13.21" transform="translate(-706.07 -274.32)"/><path class="cls-24" d="M825.3,364.6v.16a3.5,3.5,0,0,0,2.39,3.32.26.26,0,0,0,.12.05,3.4,3.4,0,0,0,1,.15h54a1.42,1.42,0,0,0,.29,0,3.31,3.31,0,0,0,1.74-.63,3.51,3.51,0,0,0,1.49-2.87v-.16Z" transform="translate(-706.07 -274.32)"/><circle class="cls-46" cx="252.42" cy="130.36" r="53.83"/><circle class="cls-46" cx="57.48" cy="130.36" r="53.83"/><rect class="cls-47" x="213.86" y="103.14" width="8.98" height="24.16" rx="4.43"/><path class="cls-48" d="M933.77,435.84h-3.56a3.4,3.4,0,0,1-1-.15l-.27-.87v0l-.81-2.64-.71-2.3-4.26-13.95a.7.7,0,0,1,0-.12,1.58,1.58,0,0,1-.1-.43L922.13,401,922,398.9a1.48,1.48,0,0,1,1.4-1.54l1.55-.09a1.48,1.48,0,0,1,1.57,1.36l.15,2.41.73,11.83v.05l.11,1.84,1.45,4.72,2.75,9,.55,1.79.58,1.91.89,2.9A1.6,1.6,0,0,1,933.77,435.84Z" transform="translate(-706.07 -274.32)"/><path class="cls-24" d="M938,389.39v0l-.66,28.15a2.66,2.66,0,0,1-3,2.3l-4.74-.24a3.11,3.11,0,0,1-.62-.14,2.63,2.63,0,0,1-1.75-2.74l.19-3.82v-.06l.65-13.05.52-10.63-1.4-10.8-.92-7.06h10.57l.08,1.34,1.05,16A2.35,2.35,0,0,1,938,389.39Z" transform="translate(-706.07 -274.32)"/><polygon class="cls-35" points="231.6 127.27 241.02 125.65 243.83 128.78 244.3 131.54 242.6 134.79 233.18 136.42 230.48 133.92 230.01 131.16 231.6 127.27"/><rect class="cls-36" x="940.35" y="400.21" width="5.88" height="10.52" rx="0.61" transform="translate(456.83 -871.83) rotate(79.09)"/><rect class="cls-37" x="940.65" y="401.14" width="4.9" height="8.77" rx="0.61" transform="translate(456.73 -871.6) rotate(79.09)"/><rect class="cls-38" x="937.83" y="406.44" width="1.32" height="0.13" rx="0.06" transform="translate(453.96 -866.27) rotate(79.09)"/><rect class="cls-38" x="947.41" y="404.34" width="0.98" height="0.61" rx="0.26" transform="translate(459.76 -877.03) rotate(79.09)"/><path class="cls-43" d="M939.11,404.13a.43.43,0,0,0-.35.51" transform="translate(-706.07 -274.32)"/><rect class="cls-40" x="942.64" y="404.25" width="4.14" height="1.88" rx="0.51" transform="translate(457.71 -873.45) rotate(79.09)"/><rect class="cls-41" x="941.9" y="401.12" width="0.19" height="4.89" rx="0.06" transform="translate(453.91 -872.1) rotate(79.09)"/><path class="cls-42" d="M944,404.11a.82.82,0,0,1,0-.21.53.53,0,0,1,.08-.15.26.26,0,0,1,.14-.07.34.34,0,0,1,.24.05.76.76,0,0,1,.14.22l.07.16a.13.13,0,0,0,.07.06l.06,0a.22.22,0,0,0,.09-.07.3.3,0,0,0,0-.17.37.37,0,0,0-.08-.14s-.09,0-.17-.05v-.09a.11.11,0,0,1,.12-.11.39.39,0,0,1,.16.07.61.61,0,0,1,.16.29.88.88,0,0,1,0,.23.42.42,0,0,1-.09.16.31.31,0,0,1-.15.08.33.33,0,0,1-.18,0,.31.31,0,0,1-.13-.1.63.63,0,0,1-.11-.21,1,1,0,0,0-.11-.17.07.07,0,0,0-.07,0,.13.13,0,0,0-.06,0,.37.37,0,0,0,0,.28l.06,0a.11.11,0,0,1,.08.08h0a.1.1,0,0,1-.13.12l-.09-.05A.36.36,0,0,1,944,404.11Z" transform="translate(-706.07 -274.32)"/><path class="cls-42" d="M944.15,404.91l.05-.16s0-.07.07-.07l.1,0,0-.09.16,0v.09l.33-.06.14,0h.08a.15.15,0,0,1,.06.05.36.36,0,0,1,0,.09.25.25,0,0,1,0,.17H945v-.08s0,0,0,0,0,0,0,0l-.1,0-.31.06,0,.13-.16,0,0-.13Z" transform="translate(-706.07 -274.32)"/><path class="cls-42" d="M944.5,405.43a.58.58,0,0,1,0-.23.41.41,0,0,1,.15-.14l.06.17s-.05,0-.06.07a.11.11,0,0,0,0,.08.32.32,0,0,0,0,.11h.11a.93.93,0,0,0,0-.2.44.44,0,0,1,0-.17.27.27,0,0,1,.06-.1l.1,0a.24.24,0,0,1,.17,0,.3.3,0,0,1,.11.17.57.57,0,0,1,0,.13.31.31,0,0,1,0,.12h.08l.05.2-.11,0-.15,0-.23.05h-.19l-.09-.08A.58.58,0,0,1,944.5,405.43Zm.47,0s.08,0,.09,0a.05.05,0,0,0,.05-.05.09.09,0,0,0,0-.11.1.1,0,0,0,0-.08.11.11,0,0,0-.08,0,.06.06,0,0,0-.06.05.31.31,0,0,0,0,.11c0,.06,0,.1,0,.13Z" transform="translate(-706.07 -274.32)"/><path class="cls-42" d="M944.67,406.19l.08-.1-.1,0,0-.09a0,0,0,0,1,0,0s0-.08.07-.09l.16,0h0l.37-.07a.1.1,0,0,1,.12.08.12.12,0,0,1-.08.12l-.13,0-.25.07a.14.14,0,0,0-.07.06.06.06,0,0,0,0,.07.14.14,0,0,0,0,.09l-.17.09a.18.18,0,0,1-.05-.12A.14.14,0,0,1,944.67,406.19Z" transform="translate(-706.07 -274.32)"/><path class="cls-42" d="M944.5,406.76l.06-.17a.12.12,0,0,1,.07-.07h.09v-.1h0l.14,0,0,.09.33-.06.14,0h.08a.17.17,0,0,1,.06.06.14.14,0,0,1,0,.09.3.3,0,0,1,0,.16h-.16s0-.06,0-.08v0l0,0-.11,0-.3.05,0,.13-.16,0,0-.12Z" transform="translate(-706.07 -274.32)"/><path class="cls-49" d="M986.28,434.49a4,4,0,0,1-.06.7,3.34,3.34,0,0,1-1.75.63,1.42,1.42,0,0,1-.29,0h-54a3.4,3.4,0,0,1-1-.15.31.31,0,0,1-.12-.05,4.25,4.25,0,0,1-.15-.82v0c0-.1,0-.21,0-.31a4.3,4.3,0,0,1,.68-2.33,4.36,4.36,0,0,1,.6-.76,4.5,4.5,0,0,1,3.09-1.28h48.63a4.36,4.36,0,0,1,3.69,2A4.3,4.3,0,0,1,986.28,434.49Z" transform="translate(-706.07 -274.32)"/><path class="cls-24" d="M987.7,432v.34a3.53,3.53,0,0,1-1.48,2.87,3.34,3.34,0,0,1-1.75.63,1.42,1.42,0,0,1-.29,0h-54a3.4,3.4,0,0,1-1-.15.31.31,0,0,1-.12-.05,3.49,3.49,0,0,1-2.38-3.32V432a3.52,3.52,0,0,1,3.52-3.52h53.95l.76.08A3.53,3.53,0,0,1,987.7,432Z" transform="translate(-706.07 -274.32)"/><path class="cls-26" d="M947.1,421.05a359.7,359.7,0,0,0,40.54,6,2.09,2.09,0,0,1,.76.75,2.3,2.3,0,0,1,.33,1.09,3.68,3.68,0,0,1,0,.47c0,.37-.24,1.31-.47,2.78" transform="translate(-706.07 -274.32)"/><polygon class="cls-5" points="249.07 135.67 266.03 146.72 267.66 144.16 251.16 132.18 249.07 135.67"/><path class="cls-27" d="M951.84,393.1" transform="translate(-706.07 -274.32)"/><path class="cls-27" d="M958.16,393.1" transform="translate(-706.07 -274.32)"/><path class="cls-28" d="M955.24,389.14" transform="translate(-706.07 -274.32)"/><path class="cls-28" d="M958.85,392.68" transform="translate(-706.07 -274.32)"/><line class="cls-29" x1="228.46" y1="122.53" x2="228.53" y2="124.38"/><path class="cls-50" d="M999,432.16H988c.06-1.19.15-2.29.25-3.29,0-.36.08-.72.11-1.05.37-3.56.67-5.6-.41-5.57a179.81,179.81,0,0,1-41.51-3.09,9.82,9.82,0,0,1-1-.94,8,8,0,0,1-2.25-5,9.84,9.84,0,0,1,.31-3.13,16,16,0,0,1,2.36-4.92,3.15,3.15,0,0,1,2.1-1.29,33.38,33.38,0,0,1,4.6-.25c.53,0,1.1,0,1.7,0h.27l.62,0h.2c.59,0,1.2.06,1.84.11l.92.07h0l.26,0,.73.07c1.54.14,3.2.33,5,.58l.89.13.91.13,1.41.24h0l1,.17h0a167.65,167.65,0,0,1,27.07,7.28,3.62,3.62,0,0,1,1.08.65C997.82,414.35,998.47,422.47,999,432.16Z" transform="translate(-706.07 -274.32)"/><path class="cls-51" d="M994.35,432.16H987.7v.16a3.53,3.53,0,0,1-1.48,2.87,3.34,3.34,0,0,1-1.75.63,16.86,16.86,0,0,0,.17-3.66c-.09-.52-.3-.78-.69-.77a288.31,288.31,0,0,1-41.34-1.27,8.89,8.89,0,0,1-1.55-1.66,10.51,10.51,0,0,1-1.51-8.31h0a16,16,0,0,1,2.32-5.82,3.16,3.16,0,0,1,1.37-1.09,3,3,0,0,1,.72-.2c2.16-.33,6.8-.44,13.6.34,1.11.13,2.26.28,3.47.46h0c2.56.38,5.35.88,8.39,1.52a178.24,178.24,0,0,1,22,6.3,3.39,3.39,0,0,1,1.08.65C993.33,423.08,993.9,426.88,994.35,432.16Z" transform="translate(-706.07 -274.32)"/><path class="cls-52" d="M940.53,395.19" transform="translate(-706.07 -274.32)"/><line class="cls-29" x1="265.6" y1="118.82" x2="265.59" y2="118.78"/><path class="cls-26" d="M990.27,432.16c.09-.42.13-.72.15-.89a2.32,2.32,0,0,0-1.1-2.31l-.59,0-.44,0-3.37-.33-.76-.08c-19.45-2-35.38-5.53-35.38-5.53" transform="translate(-706.07 -274.32)"/><path class="cls-33" d="M968.77,404a3.76,3.76,0,0,1-.21.78c0,.14-.1.29-.16.42h0c-.85,1.82-2.92,3.62-5.59,5.3-1.13.7-2.35,1.39-3.65,2.06l-1.58.78a115,115,0,0,1-12.07,4.84c-2.55.88-4.67,1.55-5.94,1.93h0l-1.26.37,1.73-9.66,1.59-8.84.85-4.77a159.6,159.6,0,0,1-5.56-24.59c-.07-.45-.13-.9-.18-1.34h28.87l.09.8s.26,1.37.62,3.57a207.58,207.58,0,0,1,2.64,22.09A34.73,34.73,0,0,1,968.77,404Z" transform="translate(-706.07 -274.32)"/><polygon class="cls-34" points="235.11 127.77 262.93 123.45 262.93 130.41 233.52 136.63 235.11 127.77"/><path class="cls-24" d="M926.69,432.16v.16a3.49,3.49,0,0,0,2.38,3.32.31.31,0,0,0,.12.05,3.4,3.4,0,0,0,1,.15h54a1.42,1.42,0,0,0,.29,0,3.34,3.34,0,0,0,1.75-.63,3.53,3.53,0,0,0,1.48-2.87v-.16Z" transform="translate(-706.07 -274.32)"/><rect class="cls-36" x="26.89" y="95.5" width="33.38" height="59.67" rx="3.45"/><rect class="cls-37" x="29.76" y="99.35" width="27.83" height="49.75" rx="3.45"/><rect class="cls-38" x="40.47" y="97.09" width="7.49" height="0.74" rx="0.31"/><rect class="cls-38" x="41.16" y="150.19" width="5.57" height="3.47" rx="1.47"/><path class="cls-53" d="M737.67,377.8a2.49,2.49,0,0,1,2.49-2.49" transform="translate(-706.07 -274.32)"/><rect class="cls-40" x="31.84" y="128.21" width="23.48" height="10.69" rx="2.92"/><rect class="cls-41" x="31.06" y="106.26" width="1.07" height="27.77" rx="0.33"/><path class="cls-42" d="M745,408.17a1.85,1.85,0,0,0-.66-.61,6.6,6.6,0,0,0-1.3-.42,3.12,3.12,0,0,1-1.11-.4.48.48,0,0,1-.19-.36.43.43,0,0,1,.2-.37,1.33,1.33,0,0,1,.82-.22,1.17,1.17,0,0,1,.76.21.68.68,0,0,1,.23.27.56.56,0,0,0,.55.36h.08a.57.57,0,0,0,.49-.82,1.58,1.58,0,0,0-.41-.53,2.51,2.51,0,0,0-1.69-.48,2.82,2.82,0,0,0-1.17.2,1.54,1.54,0,0,0-.74.6,1.58,1.58,0,0,0-.26.86,1.56,1.56,0,0,0,.55,1.2,3.44,3.44,0,0,0,1.35.59c.51.12.82.21,1,.26a.89.89,0,0,1,.44.25.54.54,0,0,1,.13.37.74.74,0,0,1-.3.58,1.43,1.43,0,0,1-.87.24,1.32,1.32,0,0,1-.88-.27,1.49,1.49,0,0,1-.43-.88l-.53.06a.57.57,0,0,0-.49.73,2,2,0,0,0,.58.85,2.52,2.52,0,0,0,1.73.52,3.5,3.5,0,0,0,1.3-.21,1.64,1.64,0,0,0,.8-.66,1.69,1.69,0,0,0,.29-1A1.77,1.77,0,0,0,745,408.17Z" transform="translate(-706.07 -274.32)"/><path class="cls-42" d="M748.23,409.9a1.69,1.69,0,0,1-.47.12.32.32,0,0,1-.18-.06.38.38,0,0,1-.12-.16c0-.05,0-.25,0-.6v-1.75h.78v-.92h-.78V405l-.86.51a.56.56,0,0,0-.3.49v.52h-.52v.92h.52v1.89a4.46,4.46,0,0,0,.05.8,1,1,0,0,0,.15.44,1,1,0,0,0,.37.28,1.64,1.64,0,0,0,.56.1,2.29,2.29,0,0,0,.9-.17Z" transform="translate(-706.07 -274.32)"/><path class="cls-42" d="M752.57,410.28a5.79,5.79,0,0,1,0-.84v-1.33a2.4,2.4,0,0,0-.15-1,1.22,1.22,0,0,0-.53-.46,2.7,2.7,0,0,0-1.14-.19,2.33,2.33,0,0,0-1.27.31,1.58,1.58,0,0,0-.59.94l1,.18a.8.8,0,0,1,.28-.42.74.74,0,0,1,.48-.12,1,1,0,0,1,.6.13.57.57,0,0,1,.17.48V408a6.12,6.12,0,0,1-1.11.28,3.67,3.67,0,0,0-.92.27,1,1,0,0,0-.48.44,1.18,1.18,0,0,0-.18.65,1.22,1.22,0,0,0,.38.91,1.54,1.54,0,0,0,1.06.37,1.78,1.78,0,0,0,.72-.14,2.22,2.22,0,0,0,.62-.44l0,.14a2.26,2.26,0,0,0,.11.34h1.13A2.56,2.56,0,0,1,752.57,410.28ZM751.41,409a2.18,2.18,0,0,1,0,.55.79.79,0,0,1-.28.39,1,1,0,0,1-.59.21A.59.59,0,0,1,750,410a.58.58,0,0,1-.18-.41.51.51,0,0,1,.23-.4,2.45,2.45,0,0,1,.62-.2l.7-.17Z" transform="translate(-706.07 -274.32)"/><path class="cls-42" d="M755.66,406.43a.92.92,0,0,0-.5.15,1.84,1.84,0,0,0-.49.57v-.62h-.49a.59.59,0,0,0-.57.58v3.17a.57.57,0,0,0,.57.58.57.57,0,0,0,.57-.58v-.76a6.23,6.23,0,0,1,.1-1.44.93.93,0,0,1,.26-.48.64.64,0,0,1,.41-.14,1,1,0,0,1,.53.19l.35-1A1.46,1.46,0,0,0,755.66,406.43Z" transform="translate(-706.07 -274.32)"/><path class="cls-42" d="M758.89,409.9a1.87,1.87,0,0,1-.47.12.47.47,0,0,1-.2-.06.44.44,0,0,1-.1-.16c0-.05,0-.25,0-.6v-1.75h.78v-.92h-.78V405l-.87.51a.57.57,0,0,0-.29.49v.52h-.52v.92H757v1.89a4.46,4.46,0,0,0,0,.8,1,1,0,0,0,.15.44.91.91,0,0,0,.37.28,1.64,1.64,0,0,0,.56.1,2.33,2.33,0,0,0,.9-.17Z" transform="translate(-706.07 -274.32)"/><path class="cls-54" d="M786.47,431.77l-3.91-18.7L780.41,408c-.38-.47-1.59-.35-1.64.25l0,.28a9.68,9.68,0,0,0,.41,4.24l1.83,9c-3-5.41-6.33-10.78-7.06-11.83-.11-.14-2.57-3.37-4.18-4.31l-2.2-.8-.36-.12-2.47-.9c-.83-.26-1.55.17-1.55.82a.83.83,0,0,0,0,.22.78.78,0,0,0,.05.14c.37.88,5,16.76,4,17.32-.79.41-7-14.68-9.78-14.91-1.06-.09-2,.78-1.56,1.7,2.63,5.82,5.8,13.3,9.36,18.8a23.91,23.91,0,0,0-2.43,0c-7.4-2.89-9.7-.86-9.78,1a1.21,1.21,0,0,0,1.13,1.23c5.82.41,17.09,8.89,18.56,6,.13-.26.24-.51.34-.76,5.79,2.11,11.83-.26,12.51-1.62a2.73,2.73,0,0,0,0-1.65Z" transform="translate(-706.07 -274.32)"/><polygon class="cls-55" points="54.17 164.93 91.08 164.93 85.42 146.52 54.17 164.93"/><path class="cls-6" d="M773.33,419.33a.11.11,0,0,1-.12.11h0a.12.12,0,0,1-.12-.12c0-.05.17-4.47-5.93-14.61l.36.12C773.52,414.88,773.34,419.15,773.33,419.33Z" transform="translate(-706.07 -274.32)"/><polygon class="cls-44" points="249.33 128.88 249.33 133.89 245 131.39 240.66 128.88 245 126.38 249.33 123.88 249.33 128.88"/><path class="cls-56" d="M971.29,393.89s45.52,4.81-18.83,9.32" transform="translate(-706.07 -274.32)"/><path class="cls-4" d="M777.57,393.32H775.3v-8.56a7.71,7.71,0,0,1-2.93,1.72v-2.06a6.46,6.46,0,0,0,1.93-1.1,4.13,4.13,0,0,0,1.43-1.9h1.84Z" transform="translate(-706.07 -274.32)"/><path class="cls-4" d="M860.09,297.57v2.11h-8a5.59,5.59,0,0,1,.78-2.27,15.18,15.18,0,0,1,2.55-2.84,16.37,16.37,0,0,0,1.89-1.93,2.53,2.53,0,0,0,.46-1.39,1.58,1.58,0,0,0-.4-1.17,1.55,1.55,0,0,0-1.13-.41,1.48,1.48,0,0,0-1.13.43,2.23,2.23,0,0,0-.49,1.42l-2.26-.23a3.76,3.76,0,0,1,1.27-2.69,4.28,4.28,0,0,1,2.67-.81,3.86,3.86,0,0,1,2.75.94,3.1,3.1,0,0,1,1,2.35,4.12,4.12,0,0,1-.28,1.53,6.73,6.73,0,0,1-.91,1.51,14.16,14.16,0,0,1-1.49,1.51c-.72.66-1.17,1.1-1.36,1.31a4.66,4.66,0,0,0-.47.63Z" transform="translate(-706.07 -274.32)"/><path class="cls-4" d="M973.73,375.14l2.2-.27a2.14,2.14,0,0,0,.56,1.29,1.58,1.58,0,0,0,1.12.44,1.54,1.54,0,0,0,1.18-.53,2.09,2.09,0,0,0,.48-1.44,1.93,1.93,0,0,0-.46-1.36,1.48,1.48,0,0,0-1.12-.5,4.06,4.06,0,0,0-1,.17l.25-1.85a2,2,0,0,0,1.4-.4,1.41,1.41,0,0,0,.49-1.13,1.29,1.29,0,0,0-.36-.95,1.26,1.26,0,0,0-.94-.35,1.38,1.38,0,0,0-1,.4,1.92,1.92,0,0,0-.5,1.18l-2.09-.36a4.49,4.49,0,0,1,.66-1.71,2.88,2.88,0,0,1,1.23-1,4,4,0,0,1,1.76-.37,3.51,3.51,0,0,1,2.68,1.07,2.74,2.74,0,0,1,.83,2,2.78,2.78,0,0,1-1.7,2.49,2.76,2.76,0,0,1,1.63,1,2.89,2.89,0,0,1,.61,1.84,3.53,3.53,0,0,1-1.14,2.65,3.91,3.91,0,0,1-2.84,1.1,3.86,3.86,0,0,1-2.66-.92A3.61,3.61,0,0,1,973.73,375.14Z" transform="translate(-706.07 -274.32)"/></svg>