<?xml version="1.0" encoding="utf-8"?>
<!-- Generator: Adobe Illustrator 25.2.1, SVG Export Plug-In . SVG Version: 6.00 Build 0)  -->
<svg version="1.1" xmlns="http://www.w3.org/2000/svg" xmlns:xlink="http://www.w3.org/1999/xlink" x="0px" y="0px"
	 viewBox="0 0 328 256" style="enable-background:new 0 0 328 256;" xml:space="preserve">
<style type="text/css">
	.st0{fill:url(#SVGID_1_);}
	.st1{fill:#27AAE1;}
	.st2{fill:#F8B133;}
	.st3{fill:#A2DEF9;}
	.st4{opacity:0.5;fill:#A2DEF9;}
	.st5{fill:#A2DEF9;stroke:#FCEA0D;stroke-width:2.6421;stroke-miterlimit:10;}
	.st6{fill:#A2DEF9;stroke:#F5F5F5;stroke-width:0.4403;stroke-linecap:round;stroke-miterlimit:10;}
	.st7{fill:#A2DEF9;stroke:#DBDDDE;stroke-width:0.8807;stroke-linecap:round;stroke-miterlimit:10;}
	.st8{fill:#A2DEF9;stroke:#260340;stroke-width:0.8807;stroke-linecap:round;stroke-miterlimit:10;}
	.st9{fill:#A2DEF9;stroke:#F8B133;stroke-width:0.8807;stroke-miterlimit:10;}
	.st10{fill:#A2DEF9;stroke:#1D70B7;stroke-width:0.4403;stroke-linecap:round;stroke-miterlimit:10;}
	
		.st11{fill:#A2DEF9;stroke:#A2DEF9;stroke-width:0.2202;stroke-linecap:round;stroke-linejoin:round;stroke-miterlimit:10;stroke-dasharray:2.6421;}
	.st12{fill:#FFFFFF;}
	.st13{fill:url(#SVGID_2_);}
	.st14{fill:url(#SVGID_3_);}
	.st15{fill:url(#SVGID_4_);}
	.st16{fill:url(#SVGID_5_);}
	.st17{fill:url(#SVGID_6_);}
	.st18{fill:url(#SVGID_7_);}
	.st19{fill:none;stroke:#F8B133;stroke-width:2.3527;stroke-linecap:round;stroke-linejoin:round;stroke-miterlimit:10;}
	.st20{fill:#EF4136;}
	.st21{fill:#534741;}
	.st22{fill:#4D4D4D;}
	.st23{fill:url(#SVGID_8_);}
	.st24{fill:#F29100;}
	.st25{fill:#35A8E0;}
	.st26{fill:#E84E1B;}
	.st27{fill:url(#SVGID_9_);}
	.st28{fill:url(#SVGID_10_);}
	.st29{fill:url(#SVGID_11_);}
	.st30{fill:url(#SVGID_12_);}
	.st31{fill:#160031;}
	.st32{fill:none;stroke:#FCEA0D;stroke-width:2.6421;stroke-miterlimit:10;}
	.st33{fill:none;stroke:#F5F5F5;stroke-width:0.4403;stroke-linecap:round;stroke-miterlimit:10;}
	.st34{opacity:0.5;fill:#160031;}
	.st35{fill:#160031;stroke:#DBDDDE;stroke-width:0.8807;stroke-linecap:round;stroke-miterlimit:10;}
	.st36{fill:none;stroke:#DBDDDE;stroke-width:0.8807;stroke-linecap:round;stroke-miterlimit:10;}
	.st37{fill:#1D70B7;stroke:#260340;stroke-width:0.8807;stroke-linecap:round;stroke-miterlimit:10;}
	.st38{fill:none;stroke:#955D61;stroke-width:0.8807;stroke-linecap:round;stroke-miterlimit:10;}
	.st39{fill:url(#SVGID_13_);}
	.st40{fill:url(#SVGID_14_);}
	.st41{fill:none;stroke:#E84E1B;stroke-width:0.4403;stroke-linecap:round;stroke-miterlimit:10;}
	.st42{fill:none;stroke:#F8B133;stroke-width:0.8807;stroke-miterlimit:10;}
	.st43{fill:none;stroke:#1D70B7;stroke-width:0.4403;stroke-linecap:round;stroke-miterlimit:10;}
	.st44{fill:none;stroke:#E84E1B;stroke-width:0.4403;stroke-linecap:round;stroke-linejoin:round;stroke-miterlimit:10;}
	.st45{fill:none;}
	
		.st46{fill:none;stroke:#A2DEF9;stroke-width:0.2202;stroke-linecap:round;stroke-linejoin:round;stroke-miterlimit:10;stroke-dasharray:2.6421;}
	.st47{fill:#260340;}
	.st48{fill:#391763;}
	.st49{fill:url(#SVGID_15_);}
	.st50{fill:#897CBA;}
	.st51{fill:url(#SVGID_16_);}
	.st52{fill:url(#SVGID_17_);}
	.st53{fill:url(#SVGID_18_);}
	.st54{fill:url(#SVGID_19_);}
	.st55{fill:url(#SVGID_20_);}
	.st56{fill:url(#SVGID_21_);}
	.st57{fill:none;stroke:#897CBA;stroke-width:0.4403;stroke-linecap:round;stroke-linejoin:round;stroke-miterlimit:10;}
	.st58{fill:none;stroke:#897CBA;stroke-width:0.4403;stroke-miterlimit:10;}
	.st59{fill:#897CBA;stroke:#897CBA;stroke-width:0.4403;stroke-miterlimit:10;}
	.st60{fill:url(#SVGID_22_);}
	.st61{fill:#F8DCB2;}
	.st62{fill:none;stroke:url(#SVGID_23_);stroke-width:3;stroke-linecap:round;stroke-linejoin:round;stroke-miterlimit:10;}
	.st63{fill:none;stroke:url(#SVGID_24_);stroke-width:3;stroke-linecap:round;stroke-linejoin:round;stroke-miterlimit:10;}
	.st64{fill:url(#SVGID_25_);}
	.st65{fill:url(#SVGID_26_);}
	.st66{fill:url(#SVGID_27_);}
	.st67{fill:url(#SVGID_28_);}
	.st68{fill:url(#SVGID_29_);}
	.st69{fill:url(#SVGID_30_);}
	.st70{fill:url(#SVGID_31_);}
	.st71{fill:url(#SVGID_32_);}
	.st72{fill:url(#SVGID_33_);}
	.st73{fill:url(#SVGID_34_);}
	.st74{fill:none;stroke:#A2DEF9;stroke-width:0.25;stroke-miterlimit:10;stroke-dasharray:2;}
	.st75{fill:url(#SVGID_35_);}
	.st76{fill:url(#SVGID_36_);}
	.st77{fill:url(#SVGID_37_);}
	.st78{fill:url(#SVGID_38_);}
	.st79{fill:url(#SVGID_39_);}
	.st80{fill:url(#SVGID_40_);}
	.st81{fill:url(#SVGID_41_);}
	.st82{fill:url(#SVGID_42_);}
	.st83{fill:url(#SVGID_43_);}
	.st84{fill:url(#SVGID_44_);}
	.st85{fill:url(#SVGID_45_);}
	.st86{fill:#DBDDDE;}
	.st87{fill:none;stroke:#897CBA;stroke-width:0.2846;stroke-linecap:round;stroke-linejoin:round;stroke-miterlimit:10;}
	.st88{fill:url(#SVGID_46_);}
	.st89{fill:url(#SVGID_47_);}
	.st90{fill:url(#SVGID_48_);}
	.st91{fill:url(#SVGID_49_);}
	.st92{fill:url(#SVGID_50_);}
	.st93{fill:url(#SVGID_51_);}
	.st94{fill:url(#SVGID_52_);}
	.st95{fill:url(#SVGID_53_);}
	.st96{fill:url(#SVGID_54_);}
	.st97{fill:url(#SVGID_55_);}
	.st98{fill:url(#SVGID_56_);}
	.st99{fill:url(#SVGID_57_);}
	.st100{fill:url(#SVGID_58_);}
	.st101{fill:url(#SVGID_59_);}
	.st102{fill:url(#SVGID_60_);}
	.st103{fill:none;stroke:#A2DEF9;stroke-width:0.927;stroke-miterlimit:10;}
	.st104{fill:url(#SVGID_61_);}
	.st105{fill:url(#SVGID_62_);}
	.st106{fill:url(#SVGID_63_);}
	
		.st107{fill:none;stroke:#A2DEF9;stroke-width:0.2041;stroke-linecap:round;stroke-linejoin:round;stroke-miterlimit:10;stroke-dasharray:2.4492;}
	.st108{fill:url(#SVGID_64_);}
	.st109{fill:url(#SVGID_65_);}
	.st110{fill:url(#SVGID_66_);}
	.st111{fill:url(#SVGID_67_);}
	.st112{fill:none;stroke:#FCEA0D;stroke-width:2.4492;stroke-miterlimit:10;}
	.st113{fill:none;stroke:#F5F5F5;stroke-width:0.4082;stroke-linecap:round;stroke-miterlimit:10;}
	.st114{fill:#1D70B7;stroke:#260340;stroke-width:0.8164;stroke-linecap:round;stroke-miterlimit:10;}
	.st115{fill:none;stroke:#955D61;stroke-width:0.8164;stroke-linecap:round;stroke-miterlimit:10;}
	.st116{fill:url(#SVGID_68_);}
	.st117{fill:url(#SVGID_69_);}
	.st118{fill:none;stroke:#E84E1B;stroke-width:0.4082;stroke-linecap:round;stroke-miterlimit:10;}
	.st119{fill:none;stroke:#F8B133;stroke-width:0.8164;stroke-miterlimit:10;}
	.st120{fill:none;stroke:#1D70B7;stroke-width:0.4082;stroke-linecap:round;stroke-miterlimit:10;}
	.st121{fill:none;stroke:#E84E1B;stroke-width:0.4082;stroke-linecap:round;stroke-linejoin:round;stroke-miterlimit:10;}
	.st122{fill:url(#SVGID_70_);}
	.st123{fill:url(#SVGID_71_);}
	.st124{fill:url(#SVGID_72_);}
	.st125{fill:none;stroke:#897CBA;stroke-width:0.4082;stroke-linecap:round;stroke-linejoin:round;stroke-miterlimit:10;}
	.st126{fill:none;stroke:#897CBA;stroke-width:0.4082;stroke-miterlimit:10;}
	.st127{fill:#897CBA;stroke:#897CBA;stroke-width:0.4082;stroke-miterlimit:10;}
	.st128{fill:url(#SVGID_73_);}
	.st129{fill:none;stroke:#DBDDDE;stroke-width:0.8164;stroke-linecap:round;stroke-miterlimit:10;}
	.st130{fill:url(#SVGID_74_);}
	.st131{fill:url(#SVGID_75_);}
	.st132{fill:url(#SVGID_76_);}
	.st133{fill:url(#SVGID_77_);}
	.st134{fill:url(#SVGID_78_);}
	.st135{fill:none;stroke:url(#SVGID_79_);stroke-width:2.781;stroke-linecap:round;stroke-linejoin:round;stroke-miterlimit:10;}
	.st136{fill:#F5F5F5;}
	.st137{fill:#2D2E82;}
	.st138{opacity:0.35;fill:none;stroke:#897CBA;stroke-width:0.6447;stroke-linecap:round;stroke-miterlimit:10;}
	.st139{opacity:0.35;fill:#897CBA;}
	.st140{fill:none;stroke:#FBB040;stroke-width:6.594;stroke-miterlimit:10;}
	.st141{fill:url(#SVGID_80_);}
	.st142{fill:url(#SVGID_81_);}
	.st143{fill:#808080;}
	.st144{fill:url(#SVGID_82_);}
	.st145{fill:none;stroke:#A2DEF9;stroke-width:0.2788;stroke-miterlimit:10;stroke-dasharray:2.2306;}
	.st146{fill:none;stroke:#FCEA0D;stroke-width:2.9467;stroke-miterlimit:10;}
	.st147{fill:none;stroke:#F5F5F5;stroke-width:0.4911;stroke-linecap:round;stroke-miterlimit:10;}
	.st148{fill:url(#SVGID_83_);}
	.st149{fill:url(#SVGID_84_);}
	.st150{fill:url(#SVGID_85_);}
	.st151{fill:#F7941D;stroke:#391763;stroke-width:0.734;stroke-miterlimit:10;}
	.st152{opacity:0.35;fill:none;stroke:#897CBA;stroke-width:0.1777;stroke-linecap:round;stroke-miterlimit:10;}
	.st153{fill:none;stroke:url(#SVGID_86_);stroke-width:2.4101;stroke-linecap:round;stroke-linejoin:round;stroke-miterlimit:10;}
	.st154{fill:url(#SVGID_87_);}
	.st155{fill:url(#SVGID_88_);}
	.st156{fill:none;stroke:#FBB040;stroke-width:6.5297;stroke-miterlimit:10;}
	.st157{fill:url(#SVGID_89_);}
	.st158{fill:url(#SVGID_90_);}
	.st159{fill:url(#SVGID_91_);}
	.st160{fill:url(#SVGID_92_);}
	.st161{fill:url(#SVGID_93_);}
	.st162{fill:url(#SVGID_94_);}
	.st163{fill:url(#SVGID_95_);}
	.st164{fill:url(#SVGID_96_);}
	.st165{fill:url(#SVGID_97_);}
	.st166{fill:url(#SVGID_98_);}
	.st167{fill:none;stroke:#F8B133;stroke-width:2;stroke-miterlimit:10;}
	.st168{fill:none;stroke:#A2DEF9;stroke-width:0.75;stroke-miterlimit:10;stroke-dasharray:2;}
	.st169{fill:#FFFFFF;stroke:#FBB040;stroke-width:4.9491;stroke-miterlimit:10;}
	.st170{fill:url(#SVGID_99_);}
	.st171{fill:none;stroke:#E7BEB0;stroke-width:0.4675;stroke-miterlimit:10;}
	.st172{fill:none;stroke:#E7BEB0;stroke-width:0.4063;stroke-miterlimit:10;}
	.st173{fill:none;stroke:#E7BEB0;stroke-width:0.3387;stroke-miterlimit:10;}
	.st174{fill:none;stroke:#E7BEB0;stroke-width:0.2656;stroke-miterlimit:10;}
	.st175{fill:none;stroke:#E7BEB0;stroke-width:0.195;stroke-miterlimit:10;}
	.st176{fill:none;stroke:#E7BEB0;stroke-width:0.1391;stroke-miterlimit:10;}
	.st177{fill:none;stroke:#E7BEB0;stroke-width:9.645370e-02;stroke-miterlimit:10;}
	.st178{fill:none;stroke:#E7BEB0;stroke-width:6.288800e-02;stroke-miterlimit:10;}
	.st179{fill:url(#SVGID_100_);}
	.st180{fill:url(#SVGID_101_);}
	.st181{fill:url(#SVGID_102_);}
	.st182{fill:url(#SVGID_103_);}
	.st183{fill:url(#SVGID_104_);}
	.st184{fill:none;stroke:#E84E1B;stroke-width:0.5;stroke-linecap:round;stroke-linejoin:round;stroke-miterlimit:10;}
	.st185{fill:url(#SVGID_105_);}
	.st186{fill:none;stroke:#35A8E0;stroke-linecap:round;stroke-linejoin:round;stroke-miterlimit:10;}
	.st187{fill:url(#SVGID_106_);}
	.st188{fill:url(#SVGID_107_);}
	.st189{fill:url(#SVGID_108_);}
	.st190{fill:url(#SVGID_109_);}
	.st191{fill:url(#SVGID_110_);}
	.st192{fill:#FFFFFF;stroke:#FBB040;stroke-width:6;stroke-miterlimit:10;}
	.st193{fill:#177466;}
	.st194{fill:url(#SVGID_111_);}
	.st195{fill:url(#SVGID_112_);}
	.st196{fill:url(#SVGID_113_);}
	.st197{fill:none;stroke:#E84E1B;stroke-width:0.2344;stroke-linecap:round;stroke-linejoin:round;stroke-miterlimit:10;}
	.st198{fill:#142A2D;}
	.st199{fill:none;stroke:#00A79D;stroke-width:0.4688;stroke-linecap:round;stroke-miterlimit:10;}
	.st200{fill:url(#SVGID_114_);}
	.st201{fill:url(#SVGID_115_);}
	.st202{fill:#FFFFFF;stroke:#FBB040;stroke-width:7;stroke-miterlimit:10;}
	.st203{fill:url(#SVGID_116_);}
	.st204{fill:#FCEA0D;}
	.st205{fill:url(#SVGID_117_);}
	.st206{fill:#2BB673;}
	.st207{fill:url(#SVGID_118_);}
	.st208{fill:url(#SVGID_119_);}
	.st209{fill:url(#SVGID_120_);}
	.st210{fill:none;stroke:#E84E1B;stroke-width:0.846;stroke-linecap:round;stroke-linejoin:round;stroke-miterlimit:10;}
	.st211{fill:url(#SVGID_121_);}
	.st212{fill:url(#SVGID_122_);}
	.st213{fill:url(#SVGID_123_);}
	.st214{fill:url(#SVGID_124_);}
	.st215{fill:url(#SVGID_125_);}
	.st216{fill:url(#SVGID_126_);}
	.st217{fill:none;stroke:#897CBA;stroke-width:1.1695;stroke-miterlimit:10;}
	.st218{fill:#897CBA;stroke:#897CBA;stroke-width:1.1695;stroke-miterlimit:10;}
	.st219{fill:#897CBA;stroke:#897CBA;stroke-width:0.7797;stroke-miterlimit:10;}
	.st220{fill:url(#SVGID_127_);}
	.st221{fill:url(#SVGID_128_);}
	.st222{fill:#FFFFFF;stroke:#FBB040;stroke-width:7.4248;stroke-miterlimit:10;}
	.st223{fill:url(#SVGID_129_);}
	.st224{fill:url(#SVGID_130_);}
	.st225{fill:url(#SVGID_131_);}
	.st226{fill:none;stroke:#E84E1B;stroke-width:0.684;stroke-linecap:round;stroke-linejoin:round;stroke-miterlimit:10;}
	.st227{fill:url(#SVGID_132_);}
	.st228{fill:url(#SVGID_133_);}
	.st229{fill:url(#SVGID_134_);}
	.st230{fill:url(#SVGID_135_);}
	.st231{fill:url(#SVGID_136_);}
	.st232{fill:url(#SVGID_137_);}
	.st233{fill:none;stroke:#897CBA;stroke-width:0.9456;stroke-miterlimit:10;}
	.st234{fill:#897CBA;stroke:#897CBA;stroke-width:0.9456;stroke-miterlimit:10;}
	.st235{fill:#897CBA;stroke:#897CBA;stroke-width:0.6304;stroke-miterlimit:10;}
	.st236{fill:url(#SVGID_138_);}
	.st237{fill:url(#SVGID_139_);}
	.st238{fill:url(#SVGID_140_);}
	.st239{fill:url(#SVGID_141_);}
	.st240{fill:none;stroke:#A2DEF9;stroke-width:0.315;stroke-miterlimit:10;stroke-dasharray:2.5204;}
	.st241{fill:none;stroke:#FCEA0D;stroke-width:3.3295;stroke-miterlimit:10;}
	.st242{fill:none;stroke:#F5F5F5;stroke-width:0.5549;stroke-linecap:round;stroke-miterlimit:10;}
	.st243{fill:url(#SVGID_142_);}
	.st244{fill:url(#SVGID_143_);}
	.st245{fill:url(#SVGID_144_);}
	.st246{fill:#F7941D;stroke:#391763;stroke-width:0.8293;stroke-miterlimit:10;}
	.st247{opacity:0.35;fill:none;stroke:#897CBA;stroke-width:0.7407;stroke-linecap:round;stroke-miterlimit:10;}
	.st248{opacity:0.35;fill:none;stroke:#897CBA;stroke-width:0.2028;stroke-linecap:round;stroke-miterlimit:10;}
	.st249{fill:none;stroke:url(#SVGID_145_);stroke-width:2.7232;stroke-linecap:round;stroke-linejoin:round;stroke-miterlimit:10;}
	.st250{fill:#FFFFFF;stroke:#FBB040;stroke-width:7.3021;stroke-miterlimit:10;}
	.st251{fill:url(#SVGID_146_);}
	.st252{fill:url(#SVGID_147_);}
	.st253{fill:url(#SVGID_148_);}
	.st254{fill:url(#SVGID_149_);}
	.st255{fill:url(#SVGID_150_);}
	.st256{fill:url(#SVGID_151_);}
	.st257{opacity:0.35;fill:none;stroke:#897CBA;stroke-width:1.1505;stroke-linecap:round;stroke-miterlimit:10;}
	.st258{fill:url(#SVGID_152_);}
	.st259{fill:url(#SVGID_153_);}
	.st260{fill:none;stroke:url(#SVGID_154_);stroke-width:2.3989;stroke-linecap:round;stroke-linejoin:round;stroke-miterlimit:10;}
</style>
<g id="TUG_test_uitvoering">
</g>
<g id="stop_knop_close_up">
	<path class="st1" d="M305.2,226H22.7v-6.8c0-3.8,3.1-7,7-7h268.5c3.8,0,7,3.1,7,7V226z"/>
	<rect x="89" y="212.2" class="st2" width="5.1" height="13.8"/>
	<rect x="257.5" y="212.2" class="st2" width="5.1" height="13.8"/>
	<path class="st3" d="M65,151.2l-2-21.6c-0.5-1.9-2.4-3.2-4.3-2.8c-1.7,0.4-2.9,1.9-2.9,3.7c0,0.2,0,0.4,0,0.6l2,17.6l0.6,5.3l1,3v0
		l0,0h0v0l0,0.1l8.5,3.8l0.1,0l0,0l10.6,4.8l1.6-3v0h0l1.3-2.5l0.5-1L65,151.2z"/>
	<path class="st3" d="M57.6,127.1l-6.6,1c0,0-2.9,32.5-1.2,55.8c0,0,12.9,8.5,13.8,2.8c1.6-9.8-4.2-37.2-3.2-48.3
		C60.9,133.3,58.1,129.5,57.6,127.1z"/>
	<linearGradient id="SVGID_1_" gradientUnits="userSpaceOnUse" x1="45.6006" y1="163.766" x2="75.1273" y2="163.766">
		<stop  offset="2.820513e-02" style="stop-color:#2D2E82"/>
		<stop  offset="0.1726" style="stop-color:#30297B"/>
		<stop  offset="0.6528" style="stop-color:#371C69"/>
		<stop  offset="1" style="stop-color:#391763"/>
	</linearGradient>
	<path class="st0" d="M74.1,164l-11.8,0l-15-3.6c-0.6-0.2-1.3,0.3-1.4,0.9l-0.2,0.8c-0.1,0.7,0.2,1.3,0.9,1.5l15.1,3.7
		c0,0,0.1,0,0.1,0c0.1,0,0.2,0.1,0.3,0.1l12,0c0.6,0,1.1-0.5,1.1-1.1l0-1.1C75.1,164.4,74.6,164,74.1,164z"/>
	<linearGradient id="SVGID_2_" gradientUnits="userSpaceOnUse" x1="62.0659" y1="164.3241" x2="86.0298" y2="164.3241">
		<stop  offset="0" style="stop-color:#F8B133"/>
		<stop  offset="0.1847" style="stop-color:#F7AB31"/>
		<stop  offset="0.4366" style="stop-color:#F4992D"/>
		<stop  offset="0.726" style="stop-color:#EF7D26"/>
		<stop  offset="1" style="stop-color:#EA5B1D"/>
	</linearGradient>
	<path class="st13" d="M63.9,166.2h20.3c1,0,1.8-0.8,1.8-1.8l0,0c0-1-0.8-1.8-1.8-1.8H63.9c-1,0-1.8,0.8-1.8,1.8l0,0
		C62.1,165.3,62.9,166.2,63.9,166.2z"/>
	<g>
		<linearGradient id="SVGID_3_" gradientUnits="userSpaceOnUse" x1="21.5328" y1="154.2883" x2="28.1406" y2="154.2883">
			<stop  offset="2.820513e-02" style="stop-color:#2D2E82"/>
			<stop  offset="0.1726" style="stop-color:#30297B"/>
			<stop  offset="0.6528" style="stop-color:#371C69"/>
			<stop  offset="1" style="stop-color:#391763"/>
		</linearGradient>
		<path class="st14" d="M24.9,163.2L24.9,163.2c-1.9,0-3.4-1.5-3.4-3.3v-11.3c0-1.8,1.5-3.3,3.3-3.3h0.1c1.8,0,3.3,1.5,3.3,3.3v11.3
			C28.1,161.7,26.7,163.2,24.9,163.2z"/>
		
			<linearGradient id="SVGID_4_" gradientUnits="userSpaceOnUse" x1="-40.1919" y1="-274.3433" x2="-34.1529" y2="-274.3433" gradientTransform="matrix(0.9585 -0.285 -0.285 -0.9585 -15.2187 -98.8863)">
			<stop  offset="2.820513e-02" style="stop-color:#2D2E82"/>
			<stop  offset="0.1726" style="stop-color:#30297B"/>
			<stop  offset="0.6528" style="stop-color:#371C69"/>
			<stop  offset="1" style="stop-color:#391763"/>
		</linearGradient>
		<path class="st15" d="M26.4,161l0.7,11.9l4.6,14.9c0.2,0.6-0.2,1.3-0.8,1.5l-0.8,0.2c-0.7,0.2-1.3-0.2-1.5-0.8l-4.6-15
			c0,0,0-0.1,0-0.1c0-0.1-0.1-0.2-0.1-0.3l-0.7-12.1c0-0.6,0.4-1.1,1-1.1l1.1-0.1C25.8,159.9,26.3,160.4,26.4,161z"/>
		<linearGradient id="SVGID_5_" gradientUnits="userSpaceOnUse" x1="25.251" y1="154.0162" x2="34.8083" y2="154.0162">
			<stop  offset="0" style="stop-color:#F8B133"/>
			<stop  offset="0.1847" style="stop-color:#F7AB31"/>
			<stop  offset="0.4366" style="stop-color:#F4992D"/>
			<stop  offset="0.726" style="stop-color:#EF7D26"/>
			<stop  offset="1" style="stop-color:#EA5B1D"/>
		</linearGradient>
		<path class="st16" d="M34.8,153.7l-1.3-20.6c-0.2-1-1.2-1.8-2.3-1.6l-4.3,0.2c-1.1,0.2-1.8,1.1-1.7,2.2l2.6,20.1l-1,20.3
			c-0.1,1.1,0.7,2,1.7,2.1l3.5,0.2c1.1,0.1,2.1-0.6,2.2-1.7l0.5-20.7c0,0,0,0,0,0C34.8,154,34.8,153.8,34.8,153.7z"/>
		<path class="st48" d="M72.7,220.5l-15.8-29.9h0v-2.1c0-0.1-0.1-0.2-0.2-0.2H40.9c-0.1,0-0.2,0.1-0.2,0.2v2.1h0.1L25,220.5
			c-0.5,0.9-0.1,2,0.8,2.4h0c0.9,0.5,2,0.1,2.5-0.8l16.4-30.9c0.1-0.2,0.2-0.4,0.2-0.6h8c0,0.2,0.1,0.4,0.2,0.6l16.4,30.9
			c0.5,0.9,1.6,1.2,2.5,0.8h0C72.8,222.5,73.2,221.4,72.7,220.5z"/>
		
			<linearGradient id="SVGID_6_" gradientUnits="userSpaceOnUse" x1="238.9509" y1="-504.2419" x2="245.3672" y2="-504.2419" gradientTransform="matrix(0 -1 1 0 553.4808 429.5104)">
			<stop  offset="2.820513e-02" style="stop-color:#2D2E82"/>
			<stop  offset="0.1726" style="stop-color:#30297B"/>
			<stop  offset="0.6528" style="stop-color:#371C69"/>
			<stop  offset="1" style="stop-color:#391763"/>
		</linearGradient>
		<path class="st17" d="M70.3,187.4L70.3,187.4c0,1.8-1.4,3.2-3.2,3.2H31.3c-1.8,0-3.2-1.4-3.2-3.2l0,0c0-1.8,1.4-3.2,3.2-3.2h35.8
			C68.9,184.1,70.3,185.6,70.3,187.4z"/>
		
			<linearGradient id="SVGID_7_" gradientUnits="userSpaceOnUse" x1="986.3594" y1="185.6331" x2="1031.2412" y2="185.6331" gradientTransform="matrix(-1 0 0 1 1057.7446 0)">
			<stop  offset="0" style="stop-color:#F8B133"/>
			<stop  offset="0.1847" style="stop-color:#F7AB31"/>
			<stop  offset="0.4366" style="stop-color:#F4992D"/>
			<stop  offset="0.726" style="stop-color:#EF7D26"/>
			<stop  offset="1" style="stop-color:#EA5B1D"/>
		</linearGradient>
		<path class="st18" d="M29.1,188.3h39.7c1.4,0,2.6-1.2,2.6-2.6v-0.3c0-1.4-1.2-2.6-2.6-2.6H29.1c-1.4,0-2.6,1.2-2.6,2.6v0.3
			C26.5,187.2,27.7,188.3,29.1,188.3z"/>
		<linearGradient id="SVGID_8_" gradientUnits="userSpaceOnUse" x1="49.8125" y1="227.1343" x2="49.1613" y2="180.403">
			<stop  offset="2.820513e-02" style="stop-color:#2D2E82"/>
			<stop  offset="7.479797e-02" style="stop-color:#2F2B7E"/>
			<stop  offset="0.3145" style="stop-color:#34206F"/>
			<stop  offset="0.5933" style="stop-color:#381966"/>
			<stop  offset="1" style="stop-color:#391763"/>
		</linearGradient>
		<path class="st23" d="M73.6,220.5l-15.8-29.9h0v-2.1c0-0.1-0.1-0.2-0.2-0.2H41.8c-0.1,0-0.2,0.1-0.2,0.2v2.1h0.1l-15.8,29.9
			c-0.5,0.9-0.1,2,0.8,2.4h0c0.9,0.5,2,0.1,2.5-0.8l16.4-30.9c0.1-0.2,0.2-0.4,0.2-0.6h8c0,0.2,0.1,0.4,0.2,0.6l16.4,30.9
			c0.5,0.9,1.6,1.2,2.5,0.8h0C73.7,222.5,74.1,221.4,73.6,220.5z"/>
	</g>
	<path class="st103" d="M41.5,177.5c0,0,13.8,3,29.8,4.4c0,0,0.9,0.4,0.8,1.7c-0.1,1.2-3,11.2,2.4,27.6"/>
	<g>
		<polyline class="st3" points="47.4,169.3 59.9,177.5 61.1,175.6 49,166.8 		"/>
	</g>
	<path class="st3" d="M39.3,140.8c-0.1,0-0.2,0-0.2-0.1c-0.2-0.7-0.2-1.4,0.1-2c0.3-0.6,0.8-1.1,1.5-1.3c0.1,0,0.2,0,0.2,0.1
		c0,0.1,0,0.2-0.1,0.2c-0.6,0.2-1,0.6-1.3,1.1c-0.3,0.5-0.3,1.1-0.1,1.7C39.5,140.7,39.5,140.8,39.3,140.8
		C39.4,140.8,39.4,140.8,39.3,140.8z"/>
	<line class="st3" x1="32.3" y1="159.7" x2="32.3" y2="161"/>
	<polygon class="st3" points="52.8,165.4 50.3,163.4 42.2,163.4 40.6,165.4 40.6,168.5 42,170 50.2,170 52.8,168 	"/>
	<path class="st3" d="M53.5,126.6l0.4,0c-0.2,0.1-0.3,0.1-0.4,0.2C53.5,126.7,53.5,126.6,53.5,126.6z"/>
	<path class="st3" d="M71.6,178.4c2.5-0.1-5.4,15.9,8.4,33.6c0,0,0.1,0,0.1,0c0.2,0,0.4,0,0.6,0c0.3,0,0.6-0.1,0.9-0.3
		c1.6-0.8,1.2-0.4,1.6-0.8c0.4-0.4-1.8-3.2-1.9-3.9c-1.5-10.7-1.5-33.6-3.4-35.4c-0.2-0.2-0.5-0.4-0.8-0.5
		c-18.8-6.7-31.4-6.9-34.9-6.3c-0.6,0.1-1.2,0.4-1.5,1c-1.3,1.9-3.9,6.6,0.4,10.3C41.1,176.1,54.2,179,71.6,178.4z"/>
	<g>
		<path class="st3" d="M53.8,138.2c-1.4-4.8-0.4-9-0.3-11.4c-0.3,0.2-0.5,0.4-0.5,0.4l-17.5,0.3v0l1.2,13.6l0.6,6.7l1.1,12.9l0,0
			l0.3,3.2l0,0l0.1,0.8l0.1,1.4l0.2,1.9l0,0.3v0.1l0.1,1.6l0,0.4v0.1l19-4.1c0,0,0,0,0-0.1c0-0.1,0-0.3,0-0.4c0-0.5,0-1.1,0.1-1.6
			c0,0,0-0.1,0-0.1c0-0.1,0-0.2,0-0.3c0.2-4.3,0.2-8.2,0.2-11.8C56.6,146.9,54.9,142,53.8,138.2z M53.9,126.6l1-0.1
			C54.6,126.4,54.2,126.5,53.9,126.6z"/>
	</g>
	<g>
		<path class="st4" d="M94.4,214.4c0,0-9-4.4-12.7-6.5c-2.7-1.5-5.4-0.2-5.4-0.2l10,6L94.4,214.4z"/>
		<path class="st4" d="M86.3,213.7l-10-6l-0.5,5.9c0,0.3,0.2,0.5,0.5,0.5L86.3,213.7z"/>
		<path class="st3" d="M94.4,214.4c0,0-9.1-3.9-12.9-6c-2.7-1.5-5.4-0.2-5.4-0.2l10,6L94.4,214.4z"/>
		<path class="st3" d="M88.8,210.3c-2.9-1.4-5.9-3.5-5.3-6.4c0.1-0.5-0.3-1.1-0.8-1.1l-3.5-0.2c-0.7,0-1.2,0.6-0.9,1.2
			c0.9,2.1,3.4,6.3,10,8.2c0.1,0,0.2,0,0.3,0h0C89.3,212,89.7,210.7,88.8,210.3z"/>
		<path class="st3" d="M86.1,214.2l-10-6l-0.5,5.9c0,0.3,0.2,0.5,0.5,0.5L86.1,214.2z"/>
		<g>
			<path class="st3" d="M86.1,214.2l8.3,0.1c0-0.1,0-0.1,0-0.2c0-0.2,0-0.5-0.1-0.7c-0.4-2.2-2-3.9-4.1-3.9c-0.1,0-0.2,0-0.3,0
				c-0.1,0-0.1,0-0.2,0c-0.3,0-0.7,0.1-1,0.3c-0.8,0.3-1.4,0.9-1.9,1.7c0,0,0,0,0,0c0,0.1-0.1,0.2-0.1,0.2
				C86.3,212.5,86.1,213.4,86.1,214.2z"/>
		</g>
		<path class="st3" d="M94.4,214.4l0.1,0.6l-19,0.3c0,0-0.2-1.9,0.2-2.1c0,0,0.1,1.2,10.5,0.7L94.4,214.4z"/>
	</g>
	<g>
		<g>
			<g>
				<g>
					<path class="st3" d="M90,167.9c0.1,0.2,0.1,0.4,0.1,0.5l0,0.1l0,0l0,0c-0.1,0.2-0.2,0.4-0.5,0.4c0,0-0.1,0-0.1,0
						c-0.1,0-0.3,0-0.5,0c-1.6-0.6-4-1.7-6.4-3.4c-0.6-0.4-1.2-0.9-1.8-1.4c-0.1-0.1-0.2-0.2-0.3-0.3c-0.1-0.1-0.2-0.3-0.3-0.5
						c0-0.1-0.1-0.1-0.1-0.2c0-0.1-0.1-0.1-0.1-0.2c0,0,0,0,0-0.1c0,0,0,0,0,0c-0.3-0.9-0.3-1.8,0.2-2.7c0,0,0,0,0,0c0,0,0,0,0,0
						c0.2,0.1,1.3,0.4,2.7,1.1c0.2,0.1,0.4,0.2,0.6,0.3C85.6,162.8,88.2,164.8,90,167.9z"/>
					<path class="st3" d="M81.2,162.6l0.3,0.7l0.2,0.4l1,2l0.8,1.6c0.1,0.3,0,0.7-0.3,0.8l-0.1,0c-0.3,0.1-0.7,0-0.8-0.3l-1.9-3.8
						l-0.2-0.5l-0.1-0.2l-0.1-0.2c0,0,0-0.1,0-0.1c-0.1-0.3,0.1-0.6,0.3-0.7l0.1,0C80.7,162.2,81,162.3,81.2,162.6z"/>
				</g>
				<path class="st3" d="M89.6,169C89.6,169,89.5,169,89.6,169c-0.7-1.9-6-4.5-6-4.5c0,0,0,0,0-0.1c0,0,0,0,0.1,0
					C83.8,164.5,89,167.1,89.6,169z"/>
				<path class="st3" d="M90.1,168.4c-0.7-1.9-4-4.6-4.1-4.7c0,0,0,0-0.1,0c0,0,0,0,0,0.1c0,0,3.5,2.8,4.2,4.7l0,0L90.1,168.4z"/>
			</g>
		</g>
		<path class="st3" d="M83.5,161.7c-0.2,0.6-0.6,1.2-1.1,1.6c-0.2,0.1-0.4,0.3-0.6,0.4c-0.4,0.2-0.8,0.2-1.2,0.2c0,0-0.1,0-0.1,0
			l-0.2-0.5l-0.1-0.2l-0.1-0.2c0,0,0-0.1,0-0.1c-0.3-0.9-0.3-1.8,0.2-2.7c0,0,0,0,0,0c0,0,0,0,0,0c0.2,0.1,1.3,0.4,2.7,1.1
			C83.1,161.5,83.3,161.6,83.5,161.7z"/>
	</g>
	<path class="st3" d="M68.6,185.1c2.5-0.1-5.4,15.9,8.4,33.6c0,0,0.1,0,0.1,0c0.2,0,0.4,0,0.6,0c0.3,0,0.6-0.1,0.9-0.3
		c1.6-0.8,1.2-0.4,1.6-0.8c0.4-0.4-1.8-3.2-1.9-3.9c-1.5-10.7-1.5-33.6-3.4-35.4c-0.2-0.2-0.5-0.4-0.8-0.5
		c-18.8-6.7-31.4-6.9-34.9-6.3c-0.6,0.1-1.2,0.4-1.5,1c-1.3,1.9-3.8,8,0.5,11.6C38.2,184.1,51.2,185.7,68.6,185.1z"/>
	<path class="st3" d="M34.6,106.2l0.2,0c0.5,0,0.9-0.5,0.9-1l0-0.2c0-0.5-0.5-0.9-1-0.9l-0.2,0c-0.5,0-0.9,0.5-0.9,1l0,0.2
		C33.6,105.8,34,106.2,34.6,106.2z"/>
	<path class="st3" d="M60.6,96.8l0.2,0c0.5,0,0.9-0.5,0.9-1l0-0.2c0-0.5-0.5-0.9-1-0.9l-0.2,0c-0.5,0-0.9,0.5-0.9,1l0,0.2
		C59.6,96.5,60,96.9,60.6,96.8z"/>
	<path class="st3" d="M42.6,101.3l3-0.1c6.2-0.3,10.9-5.6,10.6-11.7l-0.1-2.5c-0.3-6.2-5.6-10.9-11.7-10.6l-3,0.1
		c-6.2,0.3-10.9,5.6-10.6,11.7l0.1,2.5C31.2,96.8,36.4,101.6,42.6,101.3z"/>
	<path class="st3" d="M58.4,95.9l1.1-0.1c2.4-0.1,4.2-2.1,4.1-4.5l0-1c-0.1-2.4-2.1-4.2-4.5-4.1l-1.1,0.1c-2.4,0.1-4.2,2.1-4.1,4.5
		l0,1C54,94.2,56,96,58.4,95.9z"/>
	<path class="st3" d="M33.3,103.2l0.7,0c1.5-0.1,2.7-1.4,2.6-2.9l0-0.6c-0.1-1.5-1.4-2.7-2.9-2.6l-0.7,0c-1.5,0.1-2.7,1.4-2.6,2.9
		l0,0.6C30.5,102.1,31.8,103.3,33.3,103.2z"/>
	<path class="st3" d="M31.8,102.9c0.1,1.5,1.3,2.7,2.8,2.8c0.1,0,0.2,0,0.3,0l-0.3-5.9c-0.1,0-0.2,0-0.3,0c-0.7,0.1-1.3,0.4-1.8,0.9
		c0,0-0.1,0.1-0.1,0.1c0,0-0.1,0.1-0.1,0.1c-0.2,0.2-0.3,0.4-0.4,0.7C31.9,102,31.8,102.4,31.8,102.9z"/>
	<path class="st3" d="M41.9,121.6l0.3,6.4c0.1,2.7,2.4,4.8,5.1,4.7l1.6-0.1c2.7-0.1,4.8-2.5,4.6-5.2l-0.3-6.4
		c-0.1-2.7-2.4-4.8-5.1-4.7l-1.6,0.1C43.8,116.6,41.7,118.9,41.9,121.6z"/>
	<path class="st3" d="M34,93.5l0.9,18.6l5.4,9.8c0.5,0.4,1,0.7,1.6,1l0.1,2.1c2,1.1,4.4,1.6,6.9,1.5c1.6-0.1,3.1-0.4,4.5-1l-0.1-2.1
		l0,0c4.9-2.1,8.3-7,8-12.6l-0.9-18.6c0-0.4-0.1-0.8-0.1-1.2c0-0.2-0.1-0.3-0.1-0.5l0,0c-0.1-0.4-0.2-0.9-0.3-1.3
		c-0.5-1.7-1.3-3.2-2.4-4.5c-0.1-0.2-0.3-0.3-0.4-0.4c-0.1-0.1-0.1-0.2-0.2-0.3c0,0-0.1-0.1-0.1-0.1c-0.1-0.1-0.2-0.2-0.3-0.3
		c-0.1-0.1-0.2-0.3-0.4-0.4c-0.7-0.6-1.5-1.2-2.3-1.6c-0.1,0-0.1-0.1-0.2-0.1c0,0-0.1,0-0.1,0c0,0,0,0-0.1,0c-0.1,0-0.2-0.1-0.3-0.1
		c-0.4-0.2-0.9-0.4-1.3-0.6c-0.2-0.1-0.3-0.1-0.5-0.2c0,0-0.1,0-0.1,0c-0.4-0.1-0.8-0.2-1.1-0.3c-0.6-0.1-1.2-0.2-1.8-0.3l0,0
		c-0.2,0-0.5,0-0.7,0c-0.3,0-0.6,0-1,0c-0.1,0-0.1,0-0.2,0L45.7,80c-0.1,0-0.3,0-0.4,0c0,0,0,0-0.1,0c-0.5,0.1-1,0.2-1.5,0.3l0,0
		c-0.4,0.1-0.9,0.3-1.3,0.4c-0.3,0.1-0.5,0.2-0.8,0.3l0,0c-0.1,0-0.2,0.1-0.3,0.1c0,0-0.1,0-0.1,0c-0.4,0.2-0.8,0.4-1.2,0.7
		c0,0,0,0,0,0c-0.2,0.1-0.4,0.3-0.6,0.4c-0.6,0.4-1.2,0.9-1.8,1.5c-0.1,0.1-0.1,0.1-0.1,0.2c-0.1,0.1-0.1,0.1-0.2,0.2c0,0,0,0,0,0
		c-0.2,0.3-0.5,0.5-0.7,0.8c-0.2,0.2-0.3,0.4-0.5,0.6c-0.3,0.4-0.5,0.7-0.7,1.1c0,0,0,0.1-0.1,0.1c-0.1,0.1-0.1,0.2-0.1,0.2
		c0,0.1-0.1,0.2-0.1,0.2c-0.1,0.1-0.1,0.2-0.2,0.4c0,0,0,0.1,0,0.1C35,87.9,35,88,34.9,88.2c-0.3,0.8-0.6,1.6-0.7,2.5
		c0,0.1,0,0.1,0,0.2c-0.1,0.4-0.1,0.8-0.1,1.2l0,0c0,0.2,0,0.5,0,0.7c0,0.1,0,0.1,0,0.2C34,93.1,34,93.3,34,93.5z"/>
	<path class="st3" d="M33.9,91.4l1,20.7c0.2,4,2.3,7.6,5.4,9.8c0.5,0.4,1,0.7,1.6,1c2,1.1,4.4,1.7,6.9,1.5c1.6-0.1,3.1-0.4,4.5-1
		l0,0c4.9-2.1,8.3-7,8-12.6l-1-20.7c0-0.4-0.1-0.8-0.1-1.2c0-0.2-0.1-0.3-0.1-0.5l0,0c-0.1-0.4-0.2-0.9-0.3-1.3
		c-0.5-1.7-1.3-3.2-2.4-4.5c-0.1-0.1-0.3-0.3-0.4-0.4c-0.1-0.1-0.1-0.2-0.2-0.3c0,0-0.1-0.1-0.1-0.1c-0.1-0.1-0.2-0.2-0.3-0.3
		c-0.1-0.1-0.2-0.3-0.4-0.4c-0.7-0.6-1.5-1.2-2.3-1.6c-0.1,0-0.1-0.1-0.2-0.1c0,0-0.1,0-0.1,0c0,0,0,0-0.1,0c-0.1,0-0.2-0.1-0.3-0.1
		c-0.4-0.2-0.9-0.4-1.3-0.6c-0.2-0.1-0.3-0.1-0.5-0.2c0,0-0.1,0-0.1,0c-0.4-0.1-0.8-0.2-1.1-0.3c-0.6-0.1-1.2-0.2-1.8-0.3l0,0
		c-0.2,0-0.5,0-0.7,0c-0.3,0-0.6,0-1,0c-0.1,0-0.1,0-0.2,0l-0.7,0.1c-0.1,0-0.3,0-0.4,0c0,0,0,0-0.1,0c-0.5,0.1-1,0.2-1.5,0.3l0,0
		c-0.4,0.1-0.9,0.3-1.3,0.4c-0.3,0.1-0.5,0.2-0.8,0.3l0,0c-0.1,0-0.2,0.1-0.3,0.1c0,0-0.1,0-0.1,0.1c-0.4,0.2-0.8,0.4-1.2,0.7
		c0,0,0,0,0,0c-0.2,0.1-0.4,0.3-0.6,0.4c-0.6,0.4-1.2,0.9-1.8,1.5c-0.1,0-0.1,0.1-0.1,0.2c-0.1,0-0.1,0.1-0.2,0.2c0,0,0,0,0,0
		c-0.2,0.3-0.5,0.5-0.7,0.8c-0.2,0.2-0.3,0.4-0.5,0.6c-0.3,0.4-0.5,0.7-0.7,1.1c0,0,0,0.1-0.1,0.1c-0.1,0.1-0.1,0.2-0.1,0.2
		c0,0.1-0.1,0.2-0.1,0.2c-0.1,0.1-0.1,0.2-0.2,0.4c0,0,0,0.1,0,0.1c-0.1,0.1-0.1,0.2-0.1,0.3c-0.3,0.8-0.6,1.6-0.7,2.5
		c0,0.1,0,0.2,0,0.2C34,89.2,34,89.5,34,89.9l0,0c0,0.2,0,0.5,0,0.7c0,0.1,0,0.1,0,0.2C33.9,91,33.9,91.2,33.9,91.4z"/>
	<path class="st3" d="M45.5,97.7c-1.8-0.9-3.9-0.2-4.8,1.6"/>
	<path class="st3" d="M54.8,104.7L54.8,104.7c0.7,0,1.3-0.7,1.3-1.4L56,102c0-0.7-0.7-1.3-1.4-1.3h0c-0.7,0-1.3,0.7-1.3,1.4l0.1,1.2
		C53.4,104.1,54,104.7,54.8,104.7z"/>
	<path class="st3" d="M44.5,105.2L44.5,105.2c0.7,0,1.3-0.7,1.3-1.4l-0.1-1.2c0-0.7-0.7-1.3-1.4-1.3h0c-0.7,0-1.3,0.7-1.3,1.4
		l0.1,1.2C43.1,104.6,43.8,105.2,44.5,105.2z"/>
	<path class="st3" d="M50.1,105.5c0,0,0,3.4,1.9,4.3c2,1-1.1,2.2-1.1,2.2"/>
	<path class="st3" d="M53.1,97.4c1.7-1,3.9-0.6,5,1.1"/>
	
		<ellipse transform="matrix(0.9988 -4.952248e-02 4.952248e-02 0.9988 -4.9781 2.8856)" class="st3" cx="55.7" cy="101.9" rx="0.6" ry="0.5"/>
	
		<ellipse transform="matrix(0.9988 -4.952248e-02 4.952248e-02 0.9988 -5.015 2.3905)" class="st3" cx="45.7" cy="102.4" rx="0.6" ry="0.5"/>
	<path class="st3" d="M53.5,115.9c0,0-1.5,1-5.3,0.3"/>
	<g>
		<g>
			<path class="st3" d="M53.5,105.2l6-0.3c0.8,0,1.5-0.7,1.4-1.6l-0.1-2.2c0-0.8-0.7-1.5-1.6-1.4l-6,0.3c-0.8,0-1.5,0.7-1.4,1.6
				l0.1,2.2C52,104.6,52.7,105.2,53.5,105.2z"/>
			<path class="st3" d="M41.1,105.8l6-0.3c0.8,0,1.5-0.7,1.4-1.6l-0.1-2.2c0-0.8-0.7-1.5-1.6-1.4l-6,0.3c-0.8,0-1.5,0.7-1.4,1.6
				l0.1,2.2C39.5,105.2,40.2,105.8,41.1,105.8z"/>
			<path class="st3" d="M53.3,99.9l-6.5,0.3c0,0,1-0.2,1.5,1l3.5-0.2C51.8,101.1,51.8,100,53.3,99.9z"/>
		</g>
		<path class="st3" d="M33.8,99.1l7,1.4c0,0-0.9,0.1-1.2,0.7l-7.3-1.6C32.3,99.7,32.7,98.9,33.8,99.1z"/>
	</g>
	<g>
		<path class="st3" d="M30,89.4C30,89.4,30,89.4,30,89.4c0.2-0.3,0.5-0.5,0.8-0.6c0,0,0,0,0,0c-0.2-0.1-0.4-0.3-0.6-0.4
			c-0.4-0.3-0.6-0.7-0.8-1.2l-0.1-0.3c-0.1-0.2-0.1-0.4-0.1-0.6c0-0.8,0.3-1.6,0.8-2.2c0.4-0.4,0.9-0.7,1.5-0.9c0.1,0,0.1,0,0.2-0.1
			c-0.1-0.2-0.2-0.4-0.2-0.7l0,0c0-0.2-0.1-0.3-0.1-0.5c-0.1-1.7,1.2-3.1,2.9-3.2c0.4,0,0.7,0,1.1,0.1c0.2-1.4,1.4-2.6,2.9-2.6
			c0.3,0,0.6,0,0.9,0.1c0.5-1,1.5-1.7,2.7-1.8c1.2-0.1,2.4,0.6,2.9,1.6c0.5-0.2,1.1-0.4,1.7-0.4c0.7,0,1.4,0.1,2,0.3
			c0.5-0.4,1.1-0.6,1.7-0.6c0.9,0,1.8,0.3,2.4,1c0.1-0.4,0.5-0.7,0.9-0.7c0.3,0,0.6,0.1,0.8,0.3c0.5-0.4,1.1-0.6,1.7-0.6
			c0.9,0,1.6,0.3,2.2,0.8c0.6,0.5,1,1.3,1,2.1c0,0.2,0,0.3,0,0.5l0,0c0,0.2-0.1,0.4-0.1,0.6c0.1,0,0.1,0,0.2,0c0,0,0,0,0,0l0,0
			c1.3-0.1,2.6,0.4,3.5,1.2c0.9,0.8,1.5,2,1.6,3.3c0,0.2,0,0.4,0,0.6c-0.1,1.7-1.2,3.2-2.7,3.9c0.2,0.3,0.4,0.7,0.4,1
			c0,0.1,0.1,0.3,0.1,0.4l0,0.2c0,0.2,0,0.3,0,0.5l0,0l-0.2,0.8c0.1,0,0.2,0.1,0.3,0.2c0.1,0.1,0.1,0.1,0.2,0.2
			c0.4,0.4,0.7,0.9,0.7,1.4c0,0.2,0,0.4-0.1,0.6l0,0c-0.2,0.9-1,1.5-2,1.6c-0.2,0-0.4,0-0.6-0.1c-0.3-0.1-0.6-0.2-0.9-0.5
			c-0.1-0.1-0.2-0.2-0.3-0.3c-0.1-0.1-0.2-0.3-0.3-0.5l0,0c-0.1-0.2-0.1-0.4-0.1-0.6c0,0,0-0.1,0-0.2c-1.2,0-2.2-0.6-2.7-1.5
			c-0.1-0.1-0.1-0.2-0.1-0.3c-0.1-0.2-0.1-0.4-0.2-0.6l0,0c0-0.1-0.1-0.2-0.1-0.3c-0.5,0.9-1.3,1.7-2.2,2.3c-0.9,0.6-2,0.9-3.2,1
			c-1.7,0.1-3.3-0.5-4.6-1.5c0,0.1-0.1,0.2-0.1,0.3c-0.2,0.3-0.4,0.4-0.7,0.5c0,0,0,0,0,0c0,0-0.1,0-0.1,0c-0.3,0-0.6-0.1-0.8-0.3
			c-0.1,0.1-0.1,0.2-0.2,0.2c-0.8,0.9-2,1.4-3.3,1.5c-0.3,0-0.6,0-0.8,0c0,0,0,0,0,0c0.2,0.4,0.2,0.8,0.3,1.3l0,0.1
			c0,0.2,0,0.4,0,0.6l0,0c-0.1,1.2-0.7,2.3-1.6,3.1c-0.1,0.1-0.2,0.1-0.3,0.2c0,0,0,0,0,0c-0.4,0.9-1.2,1.6-2.3,1.9
			c0,0.1-0.1,0.2-0.1,0.4c0,0,0,0,0,0c-0.2,0.3-0.5,0.4-0.8,0.5c-0.4,0-0.7-0.1-0.9-0.4c-0.1-0.1-0.1-0.1-0.1-0.2
			c-0.1-0.1-0.1-0.2-0.1-0.4c0-0.1,0-0.1,0-0.1c-0.6-0.3-1-0.7-1.3-1.3l0,0c-0.1,0-0.1-0.1-0.2-0.1c0,0-0.1,0-0.1-0.1
			c-0.1-0.1-0.2-0.2-0.4-0.3c-0.8-0.7-1.3-1.6-1.5-2.7l0,0c0-0.2-0.1-0.4-0.1-0.6c0-0.5,0-0.9,0.1-1.3c0.1-0.3,0.2-0.7,0.3-0.9l0,0
			c-0.2-0.1-0.3-0.2-0.4-0.3c-0.4-0.4-0.8-0.9-0.9-1.5l0,0c-0.1-0.2-0.1-0.4-0.1-0.6C29.2,90.8,29.5,90,30,89.4z M56.6,88L56.6,88
			C56.6,88,56.6,87.9,56.6,88C56.6,87.9,56.6,88,56.6,88z"/>
		<path class="st3" d="M62.7,84c0.1,0,0.2-0.1,0.2-0.2c-0.1-1.9-1.7-3.3-3.6-3.2c-0.1,0-0.2,0.1-0.2,0.2c0,0.1,0.1,0.2,0.2,0.2
			c1.7-0.1,3.1,1.2,3.2,2.8C62.5,83.9,62.6,84,62.7,84z"/>
		<path class="st3" d="M50.3,92.7c0.9,0,1.8-0.4,2.4-1.1c0.1-0.1,0.1-0.2,0-0.3c-0.1-0.1-0.2-0.1-0.3,0c-1.1,1.2-3.1,1.3-4.3,0.2
			c-0.1-0.1-0.2-0.1-0.3,0s-0.1,0.2,0,0.3C48.5,92.4,49.4,92.7,50.3,92.7z"/>
		<path class="st3" d="M61,94.8c0.1,0,0.2-0.1,0.2-0.2c0-0.1-0.1-0.2-0.2-0.2c-0.6,0-1.1-0.4-1.2-1c0-0.1-0.1-0.2-0.2-0.2
			c-0.1,0-0.2,0.1-0.2,0.2C59.4,94.2,60.2,94.8,61,94.8z"/>
		<path class="st3" d="M34.9,99.5c1.9-0.1,3.4-1.7,3.3-3.6c0-0.1-0.1-0.2-0.2-0.2c-0.1,0-0.2,0.1-0.2,0.2c0.1,1.6-1.2,3.1-2.9,3.1
			c-0.1,0-0.2,0.1-0.2,0.2C34.7,99.5,34.8,99.6,34.9,99.5z"/>
	</g>
	<path class="st3" d="M53.4,125.4l1.2-0.1c0,0,2.9,0.6,3.1,2.4c0.3,2.3,0.5,3.8,3,5c3.1,1.4-0.9,2.8-3,2.3c-1-0.3-2,0.4-2.1,1.4
		l-0.7,5.5C55,141.9,51.3,131.9,53.4,125.4z"/>
	<g>
		<path class="st4" d="M92.7,222.7c0,0-9-4.4-12.7-6.5c-2.7-1.5-5.4-0.2-5.4-0.2l10,6L92.7,222.7z"/>
		<path class="st4" d="M84.6,222.1l-10-6l-0.5,5.9c0,0.3,0.2,0.5,0.5,0.5L84.6,222.1z"/>
		<path class="st3" d="M92.7,222.7c0,0-9.1-3.9-12.9-6c-2.7-1.5-5.4-0.2-5.4-0.2l10,6L92.7,222.7z"/>
		<path class="st3" d="M87.1,218.7c-2.9-1.4-5.9-3.5-5.3-6.4c0.1-0.5-0.3-1.1-0.8-1.1l-3.5-0.2c-0.7,0-1.2,0.6-0.9,1.2
			c0.9,2.1,3.4,6.3,10,8.2c0.1,0,0.2,0,0.3,0l0,0C87.7,220.4,88,219.1,87.1,218.7z"/>
		<path class="st3" d="M84.4,222.6l-10-6l-0.5,5.9c0,0.3,0.2,0.5,0.5,0.5L84.4,222.6z"/>
		<g>
			<path class="st3" d="M84.4,222.6l8.3,0.1c0-0.1,0-0.1,0-0.2c0-0.2,0-0.5-0.1-0.7c-0.4-2.2-2-3.9-4.1-3.9c-0.1,0-0.2,0-0.3,0
				c-0.1,0-0.1,0-0.2,0c-0.3,0-0.7,0.1-1,0.3c-0.8,0.3-1.4,0.9-1.9,1.7c0,0,0,0,0,0c0,0.1-0.1,0.2-0.1,0.2
				C84.6,220.9,84.4,221.7,84.4,222.6z"/>
		</g>
		<path class="st3" d="M92.7,222.7l0.1,0.6l-19,0.3c0,0-0.2-1.9,0.2-2.1c0,0,0.1,1.2,10.5,0.7L92.7,222.7z"/>
	</g>
	<path class="st86" d="M92.2,211.4c-0.1,0-0.2,0-0.2-0.1c-0.6-0.8-1.8-0.9-2.6-0.3c-0.1,0.1-0.3,0.1-0.4,0c-0.1-0.1-0.1-0.3,0-0.4
		c1-0.8,2.5-0.7,3.4,0.3c0.1,0.1,0.1,0.3,0,0.4C92.3,211.3,92.3,211.4,92.2,211.4z"/>
	<path class="st86" d="M90.8,219.7c-0.1,0-0.2,0-0.2-0.1c-0.6-0.8-1.8-0.9-2.6-0.3c-0.1,0.1-0.3,0.1-0.4,0c-0.1-0.1-0.1-0.3,0-0.4
		c1-0.8,2.5-0.7,3.4,0.3c0.1,0.1,0.1,0.3,0,0.4C90.9,219.7,90.8,219.7,90.8,219.7z"/>
	<path class="st3" d="M59.4,141.5c0,0-1.5,0.8-3.3,0.7"/>
	<line class="st3" x1="59.6" y1="156.9" x2="59.6" y2="156.9"/>
	<path class="st3" d="M61.1,154.1l0.3,3.5c0,0.1,0.1,0.2,0.1,0.2l6.6,2.9l0.1,0l0,0l10.4,4.7c0.1,0,0.2,0,0.3-0.1l1.5-2.8v0h0
		l1.3-2.5l0.5-1l-17.2-7.8c-0.1,0-0.2,0-0.2,0l-3.7,2.6C61.1,154,61.1,154.1,61.1,154.1z"/>
	<path class="st3" d="M42.1,127.1l-7.2,0.3c0,0-5.5,32.1-5.9,55.5c0,0,12,9.7,13.5,4.1c2.5-9.6-0.7-37.4,1.3-48.4
		C44.8,133.6,42.4,129.6,42.1,127.1z"/>
	
		<linearGradient id="SVGID_9_" gradientUnits="userSpaceOnUse" x1="53.4687" y1="-419.2893" x2="59.4548" y2="-419.2893" gradientTransform="matrix(0.2274 -0.9738 0.9738 0.2274 434.4744 324.5101)">
		<stop  offset="2.820513e-02" style="stop-color:#2D2E82"/>
		<stop  offset="0.1726" style="stop-color:#30297B"/>
		<stop  offset="0.6528" style="stop-color:#371C69"/>
		<stop  offset="1" style="stop-color:#391763"/>
	</linearGradient>
	<path class="st27" d="M52.6,174.3l-11.8,0l-15-3.6c-0.6-0.2-1.3,0.3-1.4,0.9l-0.2,0.8c-0.1,0.7,0.2,1.3,0.9,1.5l15.1,3.7
		c0,0,0.1,0,0.1,0c0.1,0,0.2,0.1,0.3,0.1l12,0c0.6,0,1.1-0.5,1.1-1.1l0-1.1C53.7,174.8,53.2,174.3,52.6,174.3z"/>
	
		<linearGradient id="SVGID_10_" gradientUnits="userSpaceOnUse" x1="993.1657" y1="174.6819" x2="1017.1296" y2="174.6819" gradientTransform="matrix(-1 0 0 1 1057.7446 0)">
		<stop  offset="0" style="stop-color:#F8B133"/>
		<stop  offset="0.1847" style="stop-color:#F7AB31"/>
		<stop  offset="0.4366" style="stop-color:#F4992D"/>
		<stop  offset="0.726" style="stop-color:#EF7D26"/>
		<stop  offset="1" style="stop-color:#EA5B1D"/>
	</linearGradient>
	<path class="st28" d="M42.5,176.5h20.3c1,0,1.8-0.8,1.8-1.8l0,0c0-1-0.8-1.8-1.8-1.8H42.5c-1,0-1.8,0.8-1.8,1.8l0,0
		C40.6,175.7,41.4,176.5,42.5,176.5z"/>
	<g>
		<g>
			<g>
				<g>
					<path class="st3" d="M68.4,176.3c0.1,0.1,0.2,0.3,0.2,0.5l0,0.2l0,0l0,0c0,0.2-0.1,0.4-0.3,0.5c0,0,0,0-0.1,0.1
						c-0.1,0.1-0.3,0.1-0.4,0.1c-1.7-0.2-4.4-0.6-7-1.6c-0.7-0.3-1.4-0.6-2.1-0.9c-0.1-0.1-0.2-0.1-0.4-0.2
						c-0.2-0.1-0.3-0.2-0.4-0.4c0,0-0.1-0.1-0.1-0.1c0,0-0.1-0.1-0.1-0.1c0,0,0,0,0-0.1c0,0,0,0,0,0c-0.6-0.7-0.8-1.7-0.5-2.7
						c0,0,0,0,0,0c0,0,0,0,0,0c0.2,0,1.3,0,2.8,0.3c0.2,0,0.4,0.1,0.6,0.1C62.8,172.6,65.9,173.8,68.4,176.3z"/>
					<path class="st3" d="M61.1,172.2l0.6,0l0.4,0l1.7,0.1l1.4,0.1c0.3,0,0.4,0.3,0.3,0.5l0,0.1c-0.1,0.3-0.4,0.5-0.7,0.5l-3.4-0.2
						l-0.4,0l-0.1,0l-0.1,0c0,0-0.1,0-0.1,0c-0.2-0.1-0.3-0.3-0.2-0.5l0-0.1C60.6,172.4,60.9,172.1,61.1,172.2z"/>
				</g>
				<path class="st3" d="M68.3,177.5C68.3,177.6,68.3,177.6,68.3,177.5c-1.1-1.6-7-2.8-7-2.8c0,0,0,0,0-0.1c0,0,0,0,0.1,0
					C61.6,174.7,67.2,175.8,68.3,177.5z"/>
				<path class="st3" d="M68.7,176.8c-1.2-1.7-5.1-3.4-5.2-3.4c0,0-0.1,0-0.1,0c0,0,0,0.1,0,0.1c0,0,4.2,1.8,5.3,3.5l0,0L68.7,176.8
					z"/>
			</g>
		</g>
		<path class="st3" d="M60.5,172.1c0,0.7-0.2,1.3-0.7,1.9c-0.2,0.2-0.3,0.4-0.5,0.5c-0.3,0.3-0.7,0.4-1.1,0.5c0,0,0.1,0,0,0
			l-0.5-0.4l-0.1-0.1l-0.1-0.1c0,0-0.1-0.1-0.1-0.1c-0.6-0.7-0.8-1.7-0.5-2.7c0,0,0,0,0,0c0,0,0,0,0,0c0.2,0,1.3,0,2.8,0.3
			C60.1,172,60.3,172,60.5,172.1z"/>
	</g>
	<path class="st3" d="M56.9,176.7c-7.3-4.1-21.1-10.1-24.3-12.6c-0.7-0.6-1.3-1.3-1.5-2.2c-0.1-0.3-0.1-0.6-0.2-0.9l-1.3-28.4
		c0-0.3,0-0.6,0-0.8c0.1-2.2,1.5-4.2,3.3-4.6c2.1-0.4,4.1,1.2,4.5,3.7l1,26.9c0,0.6,0.4,1.2,0.9,1.5L59.6,171L56.9,176.7z"/>
	<path class="st3" d="M42.1,126.1l-1.2,0.1c0,0-2.8,0.9-2.9,2.7c0,2.3-0.1,3.8-2.5,5.2c-2.9,1.7,1.2,2.7,3.2,1.9
		c0.9-0.4,1.5,0.3,2.2,1.2l2.3,5.2C43.2,142.4,46.5,133.8,42.1,126.1z"/>
	<path class="st103" d="M42.8,178.9c0,0,13.8,3,29.8,4.4c0,0,0.9,0.4,0.8,1.7c-0.1,1.2-3,11.2,2.4,27.6"/>
	<g>
		
			<linearGradient id="SVGID_11_" gradientUnits="userSpaceOnUse" x1="94.9757" y1="362.4577" x2="106.0793" y2="296.0053" gradientTransform="matrix(0.9249 -0.3802 0.3802 0.9249 -118.6912 -82.0126)">
			<stop  offset="0" style="stop-color:#35A8E0"/>
			<stop  offset="0.6726" style="stop-color:#2F539E"/>
			<stop  offset="1" style="stop-color:#2D2E82"/>
		</linearGradient>
		<path class="st29" d="M106.5,145.6H91.7c0,0-3.4,15.8-2.2,28.2c0,0.4,0.1,0.9,0.2,1.3c0,0,0.3,30.7,1.1,40
			c0.3,3.9,5.2,3.7,5.8-0.3c1.3-8.2,3.9-22.1,2.1-36.9C98.4,176.4,107.2,167,106.5,145.6"/>
		<path class="st107" d="M104.8,146.9c0,0-3.1,20.9-6.9,28.1c0,0,1.6,16.2-3.2,41"/>
		
			<linearGradient id="SVGID_12_" gradientUnits="userSpaceOnUse" x1="96.939" y1="427.8282" x2="108.0426" y2="361.3759" gradientTransform="matrix(0.8474 -0.531 0.531 0.8474 -178.1376 -97.3898)">
			<stop  offset="0" style="stop-color:#35A8E0"/>
			<stop  offset="0.6726" style="stop-color:#2F539E"/>
			<stop  offset="1" style="stop-color:#2D2E82"/>
		</linearGradient>
		<path class="st30" d="M118.6,143.3l-14.5,2.5c0,0-0.7,16.2,2.6,28.2c0.1,0.4,0.3,0.8,0.4,1.2c0,0,5.5,30.2,7.8,39.3
			c1,3.7,5.7,2.7,5.6-1.2c-0.1-8.3,0.1-22.4-4.2-36.8C115.9,175,122.9,164.3,118.6,143.3"/>
		<path class="st107" d="M117.4,144.8c0,0-0.3,23.8-2.9,31.6c0,0,5.1,13.1,4.6,38.3"/>
		<path class="st21" d="M118.1,75h-0.3c-0.5,0-0.9-0.4-0.9-0.9v-0.2c0-0.5,0.4-0.9,0.9-0.9h0.3c0.5,0,0.9,0.4,0.9,0.9V74
			C119.1,74.5,118.6,75,118.1,75z"/>
		<path class="st21" d="M91.7,66.9h-0.3c-0.5,0-0.9-0.4-0.9-0.9v-0.2c0-0.5,0.4-0.9,0.9-0.9h0.3c0.5,0,0.9,0.4,0.9,0.9V66
			C92.6,66.5,92.2,66.9,91.7,66.9z"/>
		<path class="st22" d="M109.8,70.5h-3c-6.2,0-11.2-5-11.2-11.2v-2.5c0-6.2,5-11.2,11.2-11.2h3c6.2,0,11.2,5,11.2,11.2v2.5
			C121,65.5,116,70.5,109.8,70.5z"/>
		<path class="st21" d="M93.8,65.9h-1.1c-2.4,0-4.3-1.9-4.3-4.3v-1c0-2.4,1.9-4.3,4.3-4.3h1.1c2.4,0,4.3,1.9,4.3,4.3v1
			C98.1,63.9,96.2,65.9,93.8,65.9z"/>
		<path class="st21" d="M119.2,72h-0.7c-1.5,0-2.7-1.2-2.7-2.7v-0.6c0-1.5,1.2-2.7,2.7-2.7h0.7c1.5,0,2.7,1.2,2.7,2.7v0.6
			C121.9,70.7,120.7,72,119.2,72z"/>
		<linearGradient id="SVGID_13_" gradientUnits="userSpaceOnUse" x1="107.4667" y1="159.0141" x2="107.4667" y2="117.5929">
			<stop  offset="0" style="stop-color:#2D2E82"/>
			<stop  offset="2.728606e-02" style="stop-color:#2C2D7D"/>
			<stop  offset="0.1562" style="stop-color:#2B276B"/>
			<stop  offset="0.2906" style="stop-color:#292460"/>
			<stop  offset="0.4385" style="stop-color:#29235C"/>
		</linearGradient>
		<path class="st39" d="M91.4,159c0,0,9.7-38.9,33.1-7.8l-2.2-30.8l-31.9-2.9L91.4,159z"/>
		<path class="st24" d="M120.7,71.5c0,1.5-1.2,2.8-2.7,3c-0.1,0-0.2,0-0.3,0v-5.9c0.1,0,0.2,0,0.3,0c0.7,0.1,1.3,0.4,1.8,0.8
			c0,0,0.1,0.1,0.1,0.1c0,0,0.1,0.1,0.1,0.1c0.2,0.2,0.3,0.4,0.4,0.7C120.6,70.7,120.7,71.1,120.7,71.5z"/>
		<g>
			<g>
				<polygon class="st25" points="85.5,148.9 87.9,148.8 90.2,116.1 90.7,109.6 85.3,109.6 85.3,116.2 				"/>
				<polygon class="st25" points="85.3,116.2 90.2,116.1 90.7,109.6 85.3,109.6 				"/>
			</g>
			
				<linearGradient id="SVGID_14_" gradientUnits="userSpaceOnUse" x1="53.9063" y1="4.1775" x2="53.9063" y2="55.4561" gradientTransform="matrix(0.9603 0.2789 -0.2789 0.9603 45.3574 77.9671)">
				<stop  offset="0" style="stop-color:#260340"/>
				<stop  offset="0.4082" style="stop-color:#310F53"/>
				<stop  offset="0.7562" style="stop-color:#37155F"/>
				<stop  offset="1" style="stop-color:#391763"/>
			</linearGradient>
			<path class="st40" d="M83.1,146.7l6.9,0.5l3.5-50.9h0c-4.5-0.4-7.4,2.8-7.9,7.2L83.1,146.7z"/>
		</g>
		<g>
			<linearGradient id="SVGID_15_" gradientUnits="userSpaceOnUse" x1="104.908" y1="142.9055" x2="104.908" y2="96.2799">
				<stop  offset="0.1872" style="stop-color:#35A8E0"/>
				<stop  offset="0.3054" style="stop-color:#38A9E1"/>
				<stop  offset="0.3846" style="stop-color:#41AEE3"/>
				<stop  offset="0.4523" style="stop-color:#50B5E6"/>
				<stop  offset="0.5135" style="stop-color:#65C0EB"/>
				<stop  offset="0.5699" style="stop-color:#80CDF1"/>
				<stop  offset="0.6231" style="stop-color:#A2DEF9"/>
			</linearGradient>
			<path class="st49" d="M93.6,96.3c0,0-1.5,3.4-2,14.4c-0.1,2-0.1,4.3-0.1,6.9c0,0.2,0,0.4,0,0.6v0c0,0.8,0,1.5,0,2.3v0
				c0.1,5.5,0.4,12.1,1,20c0,0.1,0,0.2,0,0.3c0,0,0,0.1,0,0.1c0,0.5,0.1,1.1,0.1,1.6c0,0.1,0,0.2,0,0.4c0,0,0,0,0,0.1v0h23.7v-0.1
				l0-0.4l0.1-1.6v-0.1l0-0.3l0.1-1.9l0-1.4l0-0.8v0l0.3-6.7v0l0.5-12.9l0.2-6.7l0.5-13.7v0H93.6z"/>
		</g>
		<rect x="91.7" y="142.9" class="st31" width="24.7" height="2.7"/>
		<path class="st2" d="M111.6,90.7v6.4c0,2.7-2.2,4.9-4.9,4.9h-1.6c-2.7,0-4.9-2.2-4.9-4.9v-6.4c0-2.7,2.2-4.9,4.9-4.9h1.6
			C109.4,85.8,111.6,88,111.6,90.7z"/>
		<path class="st24" d="M118,62.2v18.6l-4.9,10c-0.5,0.4-1,0.7-1.5,1.1v2.1c-2,1.2-4.3,1.9-6.8,1.9c-1.6,0-3.1-0.3-4.6-0.8V93h0
			c-5-1.8-8.6-6.6-8.6-12.2V62.2c0-0.4,0-0.8,0.1-1.2c0-0.2,0-0.3,0.1-0.5v0c0.1-0.4,0.1-0.9,0.3-1.3c0.4-1.7,1.2-3.3,2.2-4.6
			c0.1-0.2,0.2-0.3,0.4-0.5c0.1-0.1,0.1-0.2,0.2-0.3c0,0,0.1-0.1,0.1-0.1c0.1-0.1,0.2-0.2,0.3-0.3c0.1-0.1,0.2-0.3,0.4-0.4
			c0.7-0.7,1.4-1.2,2.3-1.7c0,0,0.1-0.1,0.2-0.1c0,0,0.1,0,0.1,0c0,0,0,0,0,0c0.1,0,0.2-0.1,0.3-0.1c0.4-0.2,0.8-0.4,1.3-0.6
			c0.2-0.1,0.3-0.1,0.5-0.2c0,0,0.1,0,0.1,0c0.4-0.1,0.7-0.2,1.1-0.4c0.6-0.2,1.2-0.3,1.8-0.4h0c0.2,0,0.5,0,0.7-0.1
			c0.3,0,0.6,0,1,0c0.1,0,0.1,0,0.2,0l0.7,0c0.1,0,0.3,0,0.4,0c0,0,0,0,0.1,0c0.5,0,1,0.1,1.5,0.2h0c0.4,0.1,0.9,0.2,1.3,0.4
			c0.3,0.1,0.5,0.2,0.8,0.3l0,0c0.1,0,0.2,0.1,0.3,0.1c0,0,0.1,0,0.1,0c0.4,0.2,0.8,0.4,1.2,0.6c0,0,0,0,0,0
			c0.2,0.1,0.4,0.2,0.6,0.4c0.7,0.4,1.3,0.9,1.8,1.4c0.1,0,0.1,0.1,0.2,0.1c0.1,0,0.1,0.1,0.2,0.2c0,0,0,0,0,0
			c0.3,0.3,0.5,0.5,0.7,0.8c0.2,0.2,0.3,0.4,0.5,0.6c0.3,0.4,0.5,0.7,0.8,1.1c0,0,0,0.1,0.1,0.1c0.1,0.1,0.1,0.2,0.1,0.2
			c0,0.1,0.1,0.2,0.1,0.2c0.1,0.1,0.1,0.2,0.2,0.3c0,0,0,0.1,0,0.1c0.1,0.1,0.1,0.2,0.2,0.3c0.4,0.8,0.6,1.6,0.8,2.4
			c0,0.1,0,0.1,0.1,0.2c0.1,0.4,0.1,0.8,0.2,1.1v0c0,0.2,0,0.5,0,0.7c0,0.1,0,0.1,0,0.2C118,61.9,118,62,118,62.2z"/>
		<path class="st2" d="M118,60.2v20.7c0,4-1.9,7.7-4.9,10c-0.5,0.4-1,0.7-1.5,1.1c-2,1.2-4.3,1.9-6.8,1.9c-1.6,0-3.1-0.3-4.6-0.8h0
			c-5-1.8-8.6-6.6-8.6-12.2V60.2c0-0.4,0-0.8,0.1-1.2c0-0.2,0-0.3,0.1-0.5v0c0.1-0.4,0.1-0.9,0.3-1.3c0.4-1.7,1.2-3.3,2.2-4.6
			c0.1-0.2,0.2-0.3,0.4-0.5c0.1-0.1,0.1-0.2,0.2-0.3c0,0,0.1-0.1,0.1-0.1c0.1-0.1,0.2-0.2,0.3-0.3c0.1-0.1,0.2-0.3,0.4-0.4
			c0.7-0.7,1.4-1.2,2.3-1.7c0,0,0.1-0.1,0.2-0.1c0,0,0.1,0,0.1,0c0,0,0,0,0,0c0.1,0,0.2-0.1,0.3-0.1c0.4-0.2,0.8-0.4,1.3-0.6
			c0.2-0.1,0.3-0.1,0.5-0.2c0,0,0.1,0,0.1,0c0.4-0.1,0.7-0.2,1.1-0.3c0.6-0.2,1.2-0.3,1.8-0.4h0c0.2,0,0.5,0,0.7-0.1
			c0.3,0,0.6,0,1,0c0.1,0,0.1,0,0.2,0l0.7,0c0.1,0,0.3,0,0.4,0c0,0,0,0,0.1,0c0.5,0.1,1,0.1,1.5,0.2h0c0.4,0.1,0.9,0.2,1.3,0.4
			c0.3,0.1,0.5,0.2,0.8,0.3l0,0c0.1,0,0.2,0.1,0.3,0.1c0,0,0.1,0,0.1,0c0.4,0.2,0.8,0.4,1.2,0.6c0,0,0,0,0,0
			c0.2,0.1,0.4,0.2,0.6,0.4c0.7,0.4,1.3,0.9,1.8,1.4c0.1,0,0.1,0.1,0.2,0.1c0.1,0,0.1,0.1,0.2,0.2c0,0,0,0,0,0
			c0.3,0.2,0.5,0.5,0.7,0.8c0.2,0.2,0.3,0.4,0.5,0.6c0.3,0.4,0.5,0.7,0.8,1.1c0,0,0,0.1,0.1,0.1c0.1,0.1,0.1,0.2,0.1,0.2
			c0,0.1,0.1,0.2,0.1,0.2c0.1,0.1,0.1,0.2,0.2,0.3c0,0,0,0.1,0,0.1c0.1,0.1,0.1,0.2,0.2,0.3c0.4,0.8,0.6,1.6,0.8,2.4
			c0,0.1,0,0.2,0.1,0.2c0.1,0.4,0.1,0.8,0.2,1.1v0c0,0.2,0,0.5,0,0.7c0,0.1,0,0.1,0,0.2C118,59.8,118,60,118,60.2z"/>
		<path class="st115" d="M106.8,67.1c1.7-1,3.9-0.4,4.9,1.3"/>
		
			<linearGradient id="SVGID_16_" gradientUnits="userSpaceOnUse" x1="90.602" y1="70.5293" x2="90.602" y2="74.4409" gradientTransform="matrix(1 0 0 1 7.2538 0)">
			<stop  offset="0" style="stop-color:#2D2E82"/>
			<stop  offset="0.1184" style="stop-color:#1C2969"/>
			<stop  offset="0.2581" style="stop-color:#0C2452"/>
			<stop  offset="0.3462" style="stop-color:#06224A"/>
		</linearGradient>
		<path class="st51" d="M97.9,74.4L97.9,74.4c-0.7,0-1.3-0.6-1.3-1.3v-1.2c0-0.7,0.6-1.3,1.3-1.3l0,0c0.7,0,1.3,0.6,1.3,1.3v1.2
			C99.2,73.8,98.6,74.4,97.9,74.4z"/>
		
			<linearGradient id="SVGID_17_" gradientUnits="userSpaceOnUse" x1="100.8613" y1="70.5293" x2="100.8613" y2="74.4409" gradientTransform="matrix(1 0 0 1 7.2538 0)">
			<stop  offset="0" style="stop-color:#2D2E82"/>
			<stop  offset="5.917066e-02" style="stop-color:#212A71"/>
			<stop  offset="0.1536" style="stop-color:#12265B"/>
			<stop  offset="0.2453" style="stop-color:#09234E"/>
			<stop  offset="0.3308" style="stop-color:#06224A"/>
		</linearGradient>
		<path class="st52" d="M108.1,74.4L108.1,74.4c-0.7,0-1.3-0.6-1.3-1.3v-1.2c0-0.7,0.6-1.3,1.3-1.3h0c0.7,0,1.3,0.6,1.3,1.3v1.2
			C109.5,73.8,108.9,74.4,108.1,74.4z"/>
		<path class="st118" d="M102.5,75c0,0,0.2,3.4-1.7,4.4s1.2,2.1,1.2,2.1"/>
		<path class="st115" d="M99.2,67.1c-1.7-1-3.9-0.4-4.9,1.3"/>
		<ellipse class="st3" cx="96.7" cy="71.7" rx="0.6" ry="0.5"/>
		<ellipse class="st3" cx="106.8" cy="71.7" rx="0.6" ry="0.5"/>
		<path class="st121" d="M99.6,85.6c0,0,1.5,0.9,5.3,0"/>
		<line class="st45" x1="116.7" y1="137.2" x2="116.6" y2="138.5"/>
		
			<linearGradient id="SVGID_18_" gradientUnits="userSpaceOnUse" x1="855.3099" y1="96.2799" x2="855.3099" y2="159.4144" gradientTransform="matrix(-1 0 0 1 972.8015 0)">
			<stop  offset="0" style="stop-color:#260340"/>
			<stop  offset="0.2565" style="stop-color:#270543"/>
			<stop  offset="0.5358" style="stop-color:#2C0A4B"/>
			<stop  offset="0.8247" style="stop-color:#331258"/>
			<stop  offset="1" style="stop-color:#391763"/>
		</linearGradient>
		<path class="st53" d="M111.6,96.3l6.7,0c0,0,5.1,31.1,6.6,54.4c0,0-8.1,12.9-9.8,7.4c-3-9.5-2.2-39.3-4.7-50.2
			C109.2,102.9,111.4,98.7,111.6,96.3z"/>
		<linearGradient id="SVGID_19_" gradientUnits="userSpaceOnUse" x1="95.2868" y1="96.2799" x2="95.2868" y2="159.5959">
			<stop  offset="0" style="stop-color:#260340"/>
			<stop  offset="0.2565" style="stop-color:#270543"/>
			<stop  offset="0.5358" style="stop-color:#2C0A4B"/>
			<stop  offset="0.8247" style="stop-color:#331258"/>
			<stop  offset="1" style="stop-color:#391763"/>
		</linearGradient>
		<path class="st54" d="M92.6,96.3c-1.3,3.2-2.7,32.1-3,62.4c0,1,1.4,1.3,1.8,0.4c3.4-8.3,6-38.3,9-51.1c1.2-5-0.1-9.2-0.2-11.6
			L92.6,96.3z"/>
		<linearGradient id="SVGID_20_" gradientUnits="userSpaceOnUse" x1="96.6704" y1="95.1184" x2="96.6704" y2="111.6026">
			<stop  offset="2.820513e-02" style="stop-color:#2D2E82"/>
			<stop  offset="0.1407" style="stop-color:#312779"/>
			<stop  offset="0.3931" style="stop-color:#371B69"/>
			<stop  offset="0.5902" style="stop-color:#391763"/>
		</linearGradient>
		<path class="st55" d="M100.2,95.1H99c0,0-2.9,0.7-3,2.5c-0.2,2.3-0.3,3.8-2.8,5.1c-3,1.6,1,2.8,3.1,2.1c1-0.3,2,0.3,2.2,1.3l1,5.5
			C99.5,111.6,102.7,101.5,100.2,95.1z"/>
		<path class="st125" d="M90.5,110.7c0,0,2.5,0.8,5.2,0"/>
		<g>
			<g>
				<path class="st126" d="M99.1,74.9h-6c-0.8,0-1.5-0.7-1.5-1.5v-2.3c0-0.8,0.7-1.5,1.5-1.5h6c0.8,0,1.5,0.7,1.5,1.5v2.3
					C100.6,74.2,100,74.9,99.1,74.9z"/>
				<path class="st126" d="M111.6,74.9h-6c-0.8,0-1.5-0.7-1.5-1.5v-2.3c0-0.8,0.7-1.5,1.5-1.5h6c0.8,0,1.5,0.7,1.5,1.5v2.3
					C113.1,74.2,112.4,74.9,111.6,74.9z"/>
				<path class="st127" d="M99.1,69.7h6.5c0,0-1-0.1-1.5,1h-3.5C100.6,70.7,100.6,69.7,99.1,69.7z"/>
			</g>
			<path class="st127" d="M118.6,67.9l-7,1.8c0,0,0.9,0.1,1.2,0.7l7.2-2C120,68.4,119.6,67.6,118.6,67.9z"/>
		</g>
		<g>
			<linearGradient id="SVGID_21_" gradientUnits="userSpaceOnUse" x1="104.9461" y1="66.5847" x2="104.9461" y2="42.2097">
				<stop  offset="0" style="stop-color:#534741"/>
				<stop  offset="0.403" style="stop-color:#746E6B"/>
				<stop  offset="0.7899" style="stop-color:#8F8D8C"/>
				<stop  offset="1" style="stop-color:#999999"/>
			</linearGradient>
			<path class="st56" d="M121.8,58C121.8,58,121.8,58,121.8,58c-0.3-0.3-0.5-0.4-0.8-0.6c0,0,0,0,0,0c0.2-0.1,0.4-0.3,0.6-0.5
				c0.4-0.3,0.6-0.8,0.8-1.2l0.1-0.3c0-0.2,0.1-0.4,0.1-0.6c0-0.8-0.3-1.6-0.9-2.1c-0.4-0.4-0.9-0.7-1.5-0.8c-0.1,0-0.1,0-0.2,0
				c0.1-0.2,0.2-0.4,0.2-0.7v0c0-0.2,0-0.3,0-0.5c0-1.7-1.4-3-3.1-3c-0.4,0-0.7,0.1-1.1,0.2c-0.3-1.4-1.5-2.5-3-2.5
				c-0.3,0-0.6,0.1-0.9,0.2c-0.5-1-1.5-1.6-2.7-1.6c-1.2,0-2.3,0.7-2.8,1.8c-0.5-0.2-1.1-0.3-1.8-0.3c-0.7,0-1.4,0.1-2,0.4
				c-0.5-0.3-1.1-0.5-1.8-0.5c-0.9,0-1.8,0.4-2.3,1.1c-0.2-0.4-0.5-0.7-1-0.7c-0.3,0-0.6,0.1-0.8,0.3c-0.5-0.3-1.1-0.5-1.8-0.5
				c-0.9,0-1.6,0.3-2.2,0.9c-0.6,0.6-0.9,1.3-0.9,2.1c0,0.2,0,0.3,0,0.5v0c0,0.2,0.1,0.4,0.2,0.6c-0.1,0-0.1,0-0.2,0c0,0,0,0,0,0h0
				c-1.3,0-2.5,0.5-3.4,1.4c-0.9,0.9-1.4,2.1-1.4,3.4c0,0.2,0,0.4,0,0.6c0.2,1.7,1.4,3.1,2.9,3.8c-0.2,0.3-0.3,0.7-0.4,1.1
				c0,0.1,0,0.3,0,0.4v0.2c0,0.2,0,0.3,0.1,0.5v0l0.3,0.8c-0.1,0-0.2,0.1-0.3,0.2c-0.1,0.1-0.1,0.1-0.2,0.2
				c-0.4,0.4-0.6,0.9-0.6,1.5c0,0.2,0,0.4,0.1,0.6v0c0.3,0.8,1.1,1.5,2,1.5c0.2,0,0.4,0,0.6-0.1c0.3-0.1,0.6-0.3,0.9-0.5
				c0.1-0.1,0.2-0.2,0.3-0.4c0.1-0.1,0.2-0.3,0.2-0.5v0c0-0.2,0.1-0.4,0.1-0.6c0,0,0-0.1,0-0.2c1.2,0,2.1-0.7,2.6-1.7
				c0.1-0.1,0.1-0.2,0.1-0.3c0.1-0.2,0.1-0.4,0.2-0.6v0c0-0.1,0-0.2,0-0.3c0.6,0.9,1.4,1.7,2.3,2.2c0.9,0.5,2,0.8,3.2,0.8
				c1.7,0,3.3-0.7,4.5-1.8c0,0.1,0.1,0.2,0.1,0.3c0.2,0.2,0.4,0.4,0.8,0.4c0,0,0,0,0,0c0,0,0.1,0,0.1,0c0.3,0,0.6-0.1,0.8-0.4
				c0.1,0.1,0.1,0.2,0.2,0.2c0.9,0.8,2,1.3,3.3,1.3c0.3,0,0.6,0,0.8-0.1c0,0,0,0,0,0c-0.1,0.4-0.2,0.8-0.2,1.3v0.1
				c0,0.2,0,0.4,0,0.6v0c0.2,1.2,0.8,2.3,1.7,3.1c0.1,0.1,0.2,0.1,0.3,0.2c0,0,0,0,0,0c0.4,0.9,1.3,1.6,2.3,1.7
				c0,0.1,0.1,0.2,0.2,0.3c0,0,0,0,0,0c0.2,0.3,0.5,0.4,0.8,0.4c0.4,0,0.7-0.2,0.9-0.4c0-0.1,0.1-0.1,0.1-0.2c0-0.1,0.1-0.2,0.1-0.4
				c0-0.1,0-0.1,0-0.1c0.6-0.3,1-0.8,1.3-1.4h0c0.1,0,0.1-0.1,0.1-0.1c0,0,0.1,0,0.1-0.1c0.1-0.1,0.2-0.2,0.4-0.3
				c0.7-0.7,1.2-1.7,1.4-2.7v0c0-0.2,0-0.4,0-0.6c0-0.5-0.1-0.9-0.2-1.3c-0.1-0.3-0.2-0.6-0.4-0.9v0c0.2-0.1,0.3-0.2,0.4-0.3
				c0.4-0.4,0.7-0.9,0.8-1.5v0c0-0.2,0.1-0.4,0.1-0.6C122.7,59.3,122.3,58.5,121.8,58z M95.2,57.9L95.2,57.9
				C95.2,57.8,95.2,57.8,95.2,57.9C95.2,57.8,95.2,57.9,95.2,57.9z"/>
			<path class="st61" d="M88.9,54.2c-0.1,0-0.2-0.1-0.2-0.2c0-1.9,1.6-3.4,3.5-3.4c0.1,0,0.2,0.1,0.2,0.2c0,0.1-0.1,0.2-0.2,0.2
				c-1.7,0-3.1,1.3-3.1,3C89.1,54.1,89.1,54.2,88.9,54.2z"/>
			<path class="st61" d="M101.7,62.3c-0.9,0-1.8-0.3-2.4-1c-0.1-0.1-0.1-0.2,0-0.3c0.1-0.1,0.2-0.1,0.3,0c1.2,1.2,3.1,1.2,4.3,0
				c0.1-0.1,0.2-0.1,0.3,0c0.1,0.1,0.1,0.2,0,0.3C103.5,61.9,102.6,62.3,101.7,62.3z"/>
			<path class="st61" d="M91.1,64.9c-0.1,0-0.2-0.1-0.2-0.2c0-0.1,0.1-0.2,0.2-0.2c0.6,0,1.1-0.5,1.1-1.1c0-0.1,0.1-0.2,0.2-0.2
				c0.1,0,0.2,0.1,0.2,0.2C92.7,64.2,92,64.9,91.1,64.9z"/>
			<path class="st61" d="M117.4,68.4c-1.9,0-3.5-1.5-3.5-3.4c0-0.1,0.1-0.2,0.2-0.2s0.2,0.1,0.2,0.2c0,1.6,1.4,3,3.1,3
				c0.1,0,0.2,0.1,0.2,0.2C117.6,68.3,117.5,68.4,117.4,68.4z"/>
		</g>
		<path class="st129" d="M78.6,219c0.3-0.8,1.3-1.1,2.2-0.7"/>
		<g>
			<path class="st34" d="M76.1,222.5c0,0,10.4-5.4,14.8-8c3.1-1.8,6.4-0.4,6.4-0.4l-11.6,7.4L76.1,222.5z"/>
			<path class="st34" d="M85.6,221.5l11.6-7.4L98,221c0,0.3-0.2,0.6-0.5,0.6L85.6,221.5z"/>
			<path class="st48" d="M76.1,222.5c0,0,10.7-4.9,15-7.4c3.1-1.8,6.4-0.4,6.4-0.4l-11.6,7.4L76.1,222.5z"/>
			
				<linearGradient id="SVGID_22_" gradientUnits="userSpaceOnUse" x1="89.722" y1="352.0824" x2="74.0117" y2="351.7327" gradientTransform="matrix(0.9249 -0.3802 0.3802 0.9249 -118.6912 -82.0126)">
				<stop  offset="0.1872" style="stop-color:#897CBA"/>
				<stop  offset="0.3237" style="stop-color:#8577B5"/>
				<stop  offset="0.4473" style="stop-color:#7C6DAA"/>
				<stop  offset="0.5658" style="stop-color:#6E5D9B"/>
				<stop  offset="0.6812" style="stop-color:#5D4788"/>
				<stop  offset="0.7933" style="stop-color:#482D72"/>
				<stop  offset="0.8651" style="stop-color:#391763"/>
			</linearGradient>
			<path class="st60" d="M82.6,217.5c3.4-1.7,6.9-4.3,6.1-7.7c-0.2-0.6,0.3-1.3,1-1.3l4.2-0.4c0.8-0.1,1.4,0.7,1.1,1.4
				c-1,2.5-3.9,7.5-11.5,9.9c-0.1,0-0.2,0-0.3,0.1h0C82,219.6,81.5,218.1,82.6,217.5z"/>
			<path class="st48" d="M85.9,222.1l11.6-7.4l0.7,6.9c0,0.3-0.2,0.6-0.5,0.6L85.9,222.1z"/>
			<g>
				<path class="st50" d="M85.9,222.1l-9.8,0.4c0-0.1,0-0.1,0-0.2c0-0.3,0-0.6,0.1-0.8c0.4-2.6,2.3-4.6,4.7-4.7c0.1,0,0.3,0,0.4,0
					c0.1,0,0.2,0,0.3,0c0.4,0,0.8,0.1,1.2,0.3c0.9,0.4,1.7,1.1,2.3,2c0,0,0,0,0,0c0.1,0.1,0.1,0.2,0.2,0.3
					C85.6,220.1,85.8,221.1,85.9,222.1z"/>
			</g>
			<path class="st47" d="M76.1,222.5l-0.1,0.7l22.4-0.3c0,0,0.2-2.2-0.3-2.4c0,0-0.1,1.4-12.4,1.2L76.1,222.5z"/>
		</g>
		<path class="st129" d="M78,219.9c0.5-1.5,2.1-2.4,3.6-1.9"/>
		<g>
			<path class="st47" d="M120.8,224C120.8,224,120.8,224,120.8,224C120.8,224,120.8,224,120.8,224C120.8,224,120.7,224,120.8,224
				c-0.1,0.2-0.1,0.4-0.1,0.5l0,0c0,0,0,0,0,0.1l-0.1-0.5l-0.1-0.5l0-0.2l0-0.1l0,0l0-0.3l0,0l-0.3-1.8l0,0l-0.2-1.1l0,0l-0.1-0.4
				c0,0,0.1-0.1,0.1-0.4c0,0,0,0,0,0c0.2-0.4,0.4-1.1,0.7-1.8c0.3-0.8,0.6-1.7,0.8-2.5c0,0,0,0,0,0c0.2-0.6,0.3-1.1,0.4-1.6
				c0,0,0,0,0,0c0-0.2,0-0.4,0-0.5l0.1,0.1l1.3,1.8l0.1,0.1l0.4,0.5l0,0l0.3,0.4c0.1,0.1,0.1,0.3,0.1,0.5c0,0,0,0,0,0l-0.4,0.9
				l0,0.1l0,0L120.8,224z"/>
			<path class="st48" d="M120.4,222.9C120.4,222.9,120.4,222.9,120.4,222.9c0,0.1,0,0.2,0,0.3l0,0c0,0,0,0,0,0.1c0,0,0,0,0,0
				c0,0.1,0,0.2,0,0.3c0,0.2,0,0.3,0.1,0.5c0,0.1,0.1,0.2,0.1,0.3l-0.2-0.3l-0.2-0.5l-0.3-0.6l0,0l-1.8-3.7l0,0l0-0.1
				c0,0,0-0.1,0-0.2c0-0.1,0-0.1,0-0.2c0,0,0,0,0,0l0,0c0-0.1,0-0.2,0.1-0.4c0.1-0.3,0.1-0.7,0.2-1.2c0.4-2.7,1-7.3,0.8-8.6l0,0
				l0.1,0.2l0.9,1.3l0,0l0.1,0.1l1.7,2.5l1.3,1.9l0.1,0.1l0.2,0.3c0.1,0.3,0.1,0.6,0.1,0.8c0,0,0,0,0,0c0,0.3-0.1,0.5-0.2,0.7
				c-0.3,0.7-2.1,3.2-2.8,5.4l0,0c0,0.1-0.1,0.3-0.1,0.4l0,0.1C120.5,222.6,120.4,222.8,120.4,222.9z"/>
			
				<linearGradient id="SVGID_23_" gradientUnits="userSpaceOnUse" x1="91.8098" y1="146.9458" x2="92.0853" y2="159.2706" gradientTransform="matrix(0.9843 0.1763 -0.1763 0.9843 51.7112 46.2428)">
				<stop  offset="0.1872" style="stop-color:#897CBA"/>
				<stop  offset="0.3364" style="stop-color:#7767A5"/>
				<stop  offset="0.6426" style="stop-color:#533B7D"/>
				<stop  offset="0.8651" style="stop-color:#391763"/>
			</linearGradient>
			<path style="fill:url(#SVGID_23_);" d="M118.9,217.2l0,0.1c0,0-0.2,0.6-0.5,1.2c0,0.1-0.1,0.2-0.2,0.3c0,0.1-0.1,0.1-0.1,0.2
				c0,0.1-0.1,0.1-0.1,0.2l0,0c-0.6,0.9-1.6,1.7-2.9,0.8c-0.1-0.1-0.6-0.3-1.1-0.6l0,0c-0.1-0.1-0.2-0.1-0.3-0.2
				c-0.2-0.1-0.4-0.2-0.4-0.3c0,0,0,0,0-0.1c0-0.2,0-0.4,0-0.6c0-0.2,0-0.3-0.1-0.5c-0.3-1.8-1.3-5-2.1-7.1c-0.1-0.4-0.1-0.8,0-1.1
				c0.2-0.6,0.9-1.1,1.6-1.1l0.1,0l5.5-0.1c0.3,0,0.6,0.1,0.8,0.2l0,0c0.1,0,0.1,0,0.1,0.1c0.3,0.2,0.6,0.5,0.7,0.9c0,0,0,0,0,0
				c0.1,0.2,0.1,0.3,0.1,0.5c0,0,0,0,0,0c0,0,0,0,0,0c0,0.1,0,0.2,0,0.3c-0.1,1.1,0,2.2-0.2,3.4
				C119.8,214.8,119.5,215.9,118.9,217.2z"/>
			<g>
				<path class="st50" d="M120.6,223.5L120.6,223.5l-0.1,0l-0.1,0l-0.1,0l-0.3,0l-10.7,0.1l-0.1,0c0-0.5,0-0.9,0.1-1.3
					c0.1-0.6,0.4-1.2,0.8-1.8c0,0,0,0,0,0c0.7-1,1.7-1.8,3-2.2c0,0,0.1,0,0.1,0l0,0c0.2-0.1,0.5-0.1,0.7-0.2c0.1,0,0.2,0,0.3,0
					c0.2,0,0.3,0,0.5,0c1.1,0,2.2,0.3,3.1,0.9c0,0,0.1,0,0.1,0.1c0,0,0.1,0.1,0.1,0.1c0.1,0.1,0.2,0.1,0.3,0.2
					c0.7,0.5,1.2,1.1,1.6,1.9l0,0c0.2,0.3,0.3,0.6,0.4,0.9c0,0,0,0,0,0c0,0.1,0.1,0.3,0.1,0.4c0,0,0,0,0,0l0,0
					c0,0.1,0.1,0.3,0.1,0.4c0,0,0,0,0,0c0,0.1,0,0.3,0,0.4C120.6,223.3,120.6,223.4,120.6,223.5z"/>
				<polygon class="st47" points="120.6,224.6 109.3,224.7 109.3,223.6 120.6,223.5 				"/>
			</g>
			<path class="st129" d="M111,222c0.1-1.6,1.5-2.7,3.1-2.6"/>
		</g>
		<g>
			<g>
				<polygon class="st25" points="124.8,149 122.4,149 120.9,116.2 120.6,109.6 126,109.8 125.8,116.4 				"/>
				<polygon class="st25" points="125.8,116.4 120.9,116.2 120.6,109.6 126,109.8 				"/>
			</g>
			<g>
				<g>
					<g>
						<g>
							<path class="st2" d="M125.7,158.3c-0.1,0.2-0.2,0.4-0.4,0.5l-0.2,0.1l0,0l0,0c-0.2,0.1-0.5,0.1-0.7,0c0,0-0.1,0-0.1,0
								c-0.1-0.1-0.2-0.2-0.3-0.4c-0.7-1.7-1.7-4.4-2.2-7.4c-0.1-0.8-0.2-1.6-0.3-2.5c0-0.2,0-0.3,0-0.4c0-0.2,0.1-0.4,0.1-0.6
								c0-0.1,0-0.1,0.1-0.2c0-0.1,0-0.1,0.1-0.2c0,0,0,0,0-0.1c0,0,0,0,0,0c0.4-0.9,1.2-1.6,2.3-1.9c0,0,0,0,0,0c0,0,0,0,0,0
								c0.1,0.2,0.7,1.2,1.2,2.8c0.1,0.2,0.1,0.4,0.2,0.7C126.3,151.1,126.8,154.6,125.7,158.3z"/>
							<path class="st2" d="M123.1,147.5l-0.3,0.8l-0.2,0.5l-0.8,2.2l-0.6,1.8c-0.1,0.3-0.5,0.5-0.8,0.4l-0.1,0
								c-0.3-0.1-0.5-0.5-0.4-0.8l1.6-4.3l0.2-0.5l0.1-0.2l0.1-0.2c0,0,0-0.1,0.1-0.1c0.2-0.3,0.5-0.4,0.8-0.3l0.1,0
								C123.1,146.8,123.3,147.2,123.1,147.5z"/>
						</g>
						<path class="st26" d="M124.5,158.8C124.5,158.8,124.5,158.8,124.5,158.8c1-1.9-1-8-1-8.1c0,0,0-0.1,0-0.1c0,0,0.1,0,0.1,0
							C123.6,151,125.6,156.9,124.5,158.8z"/>
						<path class="st26" d="M125.4,158.8c1-2,0.5-6.5,0.5-6.7c0,0,0,0-0.1,0c0,0,0,0,0,0.1c0,0,0.5,4.9-0.6,6.8l0,0L125.4,158.8z"/>
					</g>
				</g>
				<path class="st24" d="M125.6,148.6c-0.6,0.3-1.4,0.5-2.2,0.4c-0.3,0-0.5-0.1-0.8-0.2c-0.4-0.2-0.8-0.4-1.1-0.7
					c0,0-0.1-0.1-0.1-0.1l0.2-0.5l0.1-0.2l0.1-0.2c0,0,0-0.1,0.1-0.1c0.4-0.9,1.2-1.6,2.3-1.9c0,0,0,0,0,0c0,0,0,0,0,0
					c0.1,0.2,0.7,1.2,1.2,2.8C125.5,148.1,125.6,148.4,125.6,148.6z"/>
			</g>
			
				<linearGradient id="SVGID_24_" gradientUnits="userSpaceOnUse" x1="130.3339" y1="189.1869" x2="130.3339" y2="240.4654" gradientTransform="matrix(0.9672 -0.2538 0.2538 0.9672 -58.3881 -52.9693)">
				<stop  offset="0" style="stop-color:#260340"/>
				<stop  offset="0.4082" style="stop-color:#310F53"/>
				<stop  offset="0.7562" style="stop-color:#37155F"/>
				<stop  offset="1" style="stop-color:#391763"/>
			</linearGradient>
			<path style="fill:url(#SVGID_24_);" d="M127.3,146.9l-6.9,0.4l-2.2-51h0c4.6-0.2,7.3,3,7.7,7.4L127.3,146.9z"/>
		</g>
		<g>
			<g>
				<g>
					<g>
						<path class="st2" d="M87.6,158.7c0.1,0.2,0.3,0.3,0.5,0.4l0.2,0l0,0l0,0c0.2,0,0.5-0.1,0.7-0.2c0,0,0.1,0,0.1-0.1
							c0.1-0.1,0.2-0.3,0.2-0.4c0.2-1.8,0.4-4.7,0-7.7c-0.1-0.8-0.2-1.6-0.4-2.5c0-0.1-0.1-0.3-0.1-0.4c-0.1-0.2-0.2-0.4-0.3-0.6
							c0-0.1-0.1-0.1-0.1-0.2c0-0.1-0.1-0.1-0.1-0.2c0,0,0,0-0.1-0.1c0,0,0,0,0,0c-0.7-0.8-1.6-1.2-2.7-1.2c0,0,0,0,0,0c0,0,0,0,0,0
							c0,0.2-0.3,1.4-0.3,3.1c0,0.2,0,0.5,0,0.7C85,152,85.5,155.5,87.6,158.7z"/>
						<path class="st2" d="M87.1,147.7l0.5,0.7l0.3,0.4l1.4,1.9l1.1,1.5c0.2,0.3,0.6,0.3,0.9,0.1l0.1,0c0.3-0.2,0.4-0.6,0.1-0.9
							l-2.7-3.7l-0.3-0.5l-0.1-0.2l-0.1-0.2c0,0-0.1-0.1-0.1-0.1c-0.2-0.2-0.6-0.2-0.8,0l-0.1,0C86.9,147,86.9,147.4,87.1,147.7z"/>
					</g>
					<path class="st26" d="M88.9,158.9C89,158.9,89,158.9,88.9,158.9c-1.5-1.6-1.3-8-1.3-8c0,0,0,0-0.1-0.1c0,0,0,0-0.1,0.1
						C87.6,151.1,87.4,157.4,88.9,158.9z"/>
					<path class="st26" d="M88.1,159.1c-1.5-1.7-2.3-6.1-2.4-6.3c0,0,0-0.1,0-0.1c0,0,0.1,0,0.1,0c0,0,0.9,4.8,2.4,6.4l0,0
						L88.1,159.1z"/>
				</g>
			</g>
			<path class="st24" d="M85,149.4c0.7,0.1,1.5,0.1,2.2-0.3c0.2-0.1,0.5-0.3,0.7-0.4c0.3-0.3,0.6-0.6,0.8-1c0,0,0-0.1,0.1-0.1
				l-0.3-0.5l-0.1-0.2l-0.1-0.2c0,0-0.1-0.1-0.1-0.1c-0.7-0.8-1.6-1.2-2.7-1.2c0,0,0,0,0,0c0,0,0,0,0,0c0,0.2-0.3,1.4-0.3,3.1
				C85,148.9,85,149.2,85,149.4z"/>
		</g>
		
			<linearGradient id="SVGID_25_" gradientUnits="userSpaceOnUse" x1="850.8861" y1="95.2141" x2="850.8861" y2="111.5293" gradientTransform="matrix(-1 0 0 1 965.5624 0)">
			<stop  offset="2.820513e-02" style="stop-color:#2D2E82"/>
			<stop  offset="0.1407" style="stop-color:#312779"/>
			<stop  offset="0.3931" style="stop-color:#371B69"/>
			<stop  offset="0.5902" style="stop-color:#391763"/>
		</linearGradient>
		<path class="st64" d="M111.6,95.2h1.2c0,0,2.9,0.7,3,2.5c0.2,2.3,0.3,3.8,2.8,5.1c3,1.6-1,2.8-3.1,2.1c-1-0.3-1.5,0.3-2.2,1.3
			l-2,5.3C111.3,111.5,107.6,103.1,111.6,95.2z"/>
		<linearGradient id="SVGID_26_" gradientUnits="userSpaceOnUse" x1="86.596" y1="128.1908" x2="86.596" y2="141.2986">
			<stop  offset="0" style="stop-color:#260340"/>
			<stop  offset="0.4082" style="stop-color:#310F53"/>
			<stop  offset="0.7562" style="stop-color:#37155F"/>
			<stop  offset="1" style="stop-color:#391763"/>
		</linearGradient>
		<polygon class="st65" points="90.1,134.1 90,147.2 83.1,146.7 83.8,134.1 		"/>
	</g>
	<g>
		<polygon class="st2" points="58.8,60 53.1,58.9 55,64.4 56.9,69.9 60.7,65.5 64.5,61.1 		"/>
		
			<linearGradient id="SVGID_27_" gradientUnits="userSpaceOnUse" x1="-167.0019" y1="-445.6107" x2="-156.0845" y2="-445.6107" gradientTransform="matrix(-0.2537 -0.9673 -0.9673 0.2537 -405.1358 13.5052)">
			<stop  offset="0" style="stop-color:#F8B133"/>
			<stop  offset="0.1847" style="stop-color:#F7AB31"/>
			<stop  offset="0.4366" style="stop-color:#F4992D"/>
			<stop  offset="0.726" style="stop-color:#EF7D26"/>
			<stop  offset="1" style="stop-color:#EA5B1D"/>
		</linearGradient>
		
			<path style="fill:none;stroke:url(#SVGID_27_);stroke-width:2.781;stroke-linecap:round;stroke-linejoin:round;stroke-miterlimit:10;" d="
			M77.9,56.1c0,0-15.5-11.7-20.4,7.3"/>
	</g>
	<g>
		<path class="st3" d="M65,45.6h-2.3V37c-0.8,0.8-1.8,1.3-2.9,1.7v-2.1c0.6-0.2,1.2-0.6,1.9-1.1c0.7-0.5,1.2-1.2,1.4-1.9H65V45.6z"
			/>
	</g>
	<g>
		<g>
			<g>
				<path class="st47" d="M208.9,151.7h-14.8c-1.1,0-1.9-0.9-1.9-1.9v-29.6c0-1.1,0.9-1.9,1.9-1.9h14.8c1.1,0,1.9,0.9,1.9,1.9v29.6
					C210.9,150.8,210,151.7,208.9,151.7z"/>
				<path class="st136" d="M207.4,148.3h-11.7c-1.1,0-1.9-0.9-1.9-1.9v-24c0-1.1,0.9-1.9,1.9-1.9h11.7c1.1,0,1.9,0.9,1.9,1.9v24
					C209.4,147.4,208.5,148.3,207.4,148.3z"/>
				<path class="st137" d="M203.8,119.6h-3.8c-0.1,0-0.2-0.1-0.2-0.2v-0.1c0-0.1,0.1-0.2,0.2-0.2h3.8c0.1,0,0.2,0.1,0.2,0.2v0.1
					C204,119.5,203.9,119.6,203.8,119.6z"/>
				<path class="st137" d="M202.5,150.9H201c-0.5,0-0.8-0.4-0.8-0.8v-0.3c0-0.5,0.4-0.8,0.8-0.8h1.5c0.5,0,0.8,0.4,0.8,0.8v0.3
					C203.3,150.5,202.9,150.9,202.5,150.9z"/>
				<path class="st138" d="M194.8,122.7c0-0.8,0.6-1.4,1.4-1.4"/>
				<path class="st20" d="M206.5,142.6h-9.9c-0.9,0-1.6-0.7-1.6-1.6v-2.7c0-0.9,0.7-1.6,1.6-1.6h9.9c0.9,0,1.6,0.7,1.6,1.6v2.7
					C208.1,141.9,207.4,142.6,206.5,142.6z"/>
				<path class="st139" d="M194.7,139.9h0.2c0.1,0,0.2-0.1,0.2-0.2v-15.2c0-0.1-0.1-0.2-0.2-0.2h-0.2c-0.1,0-0.2,0.1-0.2,0.2v15.2
					C194.5,139.8,194.6,139.9,194.7,139.9z"/>
				<g>
					<path class="st86" d="M196.9,139.9l0.5,0c0,0,0.1,0,0.1,0.1c0,0.2,0.1,0.3,0.2,0.4c0.1,0.1,0.3,0.1,0.5,0.1
						c0.2,0,0.4,0,0.5-0.1c0.1-0.1,0.2-0.2,0.2-0.3c0-0.1,0-0.1-0.1-0.2c0-0.1-0.1-0.1-0.2-0.1c-0.1,0-0.2-0.1-0.5-0.1
						c-0.3-0.1-0.6-0.2-0.7-0.3c-0.2-0.2-0.3-0.4-0.3-0.6c0-0.2,0-0.3,0.1-0.4c0.1-0.1,0.2-0.2,0.4-0.3c0.2-0.1,0.4-0.1,0.6-0.1
						c0.4,0,0.7,0.1,0.9,0.3c0.2,0.2,0.3,0.4,0.3,0.6c0,0,0,0.1-0.1,0.1l-0.5,0c0,0-0.1,0-0.1-0.1c0-0.1-0.1-0.2-0.2-0.3
						c-0.1-0.1-0.2-0.1-0.4-0.1c-0.2,0-0.3,0-0.4,0.1c-0.1,0-0.1,0.1-0.1,0.2c0,0.1,0,0.1,0.1,0.2c0.1,0.1,0.3,0.1,0.6,0.2
						s0.5,0.1,0.7,0.2c0.1,0.1,0.3,0.2,0.3,0.3s0.1,0.3,0.1,0.5c0,0.2,0,0.3-0.1,0.5c-0.1,0.2-0.2,0.3-0.4,0.3s-0.4,0.1-0.7,0.1
						c-0.4,0-0.7-0.1-0.9-0.3C197,140.5,196.9,140.3,196.9,139.9C196.8,139.9,196.8,139.9,196.9,139.9z"/>
					<path class="st86" d="M200.9,138.7v0.3c0,0,0,0.1-0.1,0.1h-0.3c0,0-0.1,0-0.1,0.1v0.8c0,0.2,0,0.3,0,0.3s0,0.1,0.1,0.1
						c0,0,0.1,0,0.1,0c0.1,0,0.1,0,0.2-0.1l0,0.4c0,0,0,0.1,0,0.1c-0.1,0-0.3,0.1-0.4,0.1c-0.1,0-0.2,0-0.3-0.1
						c-0.1,0-0.1-0.1-0.2-0.1s-0.1-0.1-0.1-0.2c0-0.1,0-0.2,0-0.4v-1h-0.3v-0.5h0.3v-0.4c0,0,0,0,0-0.1l0.5-0.3c0,0,0.1,0,0.1,0.1
						v0.6c0,0,0,0.1,0.1,0.1L200.9,138.7C200.8,138.7,200.9,138.7,200.9,138.7z"/>
					<path class="st86" d="M201.1,139.7c0-0.2,0-0.4,0.1-0.6s0.2-0.3,0.4-0.4c0.2-0.1,0.4-0.1,0.6-0.1c0.3,0,0.6,0.1,0.8,0.3
						c0.2,0.2,0.3,0.5,0.3,0.8c0,0.3-0.1,0.6-0.3,0.8c-0.2,0.2-0.5,0.3-0.8,0.3c-0.2,0-0.4,0-0.6-0.1c-0.2-0.1-0.3-0.2-0.4-0.4
						S201.1,140,201.1,139.7z M201.7,139.8c0,0.2,0.1,0.4,0.2,0.5c0.1,0.1,0.2,0.2,0.4,0.2c0.2,0,0.3-0.1,0.4-0.2
						c0.1-0.1,0.2-0.3,0.2-0.5c0-0.2-0.1-0.4-0.2-0.5s-0.2-0.2-0.4-0.2c-0.2,0-0.3,0.1-0.4,0.2S201.7,139.6,201.7,139.8z"/>
					<path class="st86" d="M203.9,138.7C203.9,138.7,203.9,138.7,203.9,138.7l0.5-0.1v0.3c0.1-0.1,0.2-0.2,0.3-0.3s0.3-0.1,0.4-0.1
						c0.3,0,0.5,0.1,0.7,0.3c0.2,0.2,0.3,0.5,0.3,0.8c0,0.4-0.1,0.7-0.3,0.9s-0.4,0.3-0.7,0.3c-0.1,0-0.2,0-0.3-0.1
						s-0.2-0.1-0.3-0.3v1.1c0,0,0,0.1-0.1,0.1h-0.5c0,0-0.1,0-0.1-0.1V138.7z M204.5,139.7c0,0.3,0,0.4,0.1,0.6
						c0.1,0.1,0.2,0.2,0.4,0.2c0.1,0,0.3-0.1,0.3-0.2s0.1-0.3,0.1-0.5c0-0.2,0-0.4-0.1-0.5s-0.2-0.2-0.3-0.2c-0.1,0-0.3,0.1-0.4,0.2
						C204.5,139.4,204.5,139.5,204.5,139.7z"/>
				</g>
			</g>
			<g>
				<circle class="st140" cx="183.3" cy="151.8" r="48.6"/>
				<g>
					<linearGradient id="SVGID_28_" gradientUnits="userSpaceOnUse" x1="144.7601" y1="142.936" x2="152.7102" y2="142.936">
						<stop  offset="2.820513e-02" style="stop-color:#2D2E82"/>
						<stop  offset="0.1726" style="stop-color:#30297B"/>
						<stop  offset="0.6528" style="stop-color:#371C69"/>
						<stop  offset="1" style="stop-color:#391763"/>
					</linearGradient>
					<path class="st67" d="M148.8,153.6h-0.1c-2.2,0-3.9-1.8-3.9-3.9v-13.6c0-2.2,1.8-3.9,3.9-3.9h0.1c2.2,0,3.9,1.8,3.9,3.9v13.6
						C152.7,151.9,151,153.6,148.8,153.6z"/>
					<linearGradient id="SVGID_29_" gradientUnits="userSpaceOnUse" x1="146.5906" y1="166.8439" x2="157.0348" y2="166.8439">
						<stop  offset="2.820513e-02" style="stop-color:#2D2E82"/>
						<stop  offset="0.1726" style="stop-color:#30297B"/>
						<stop  offset="0.6528" style="stop-color:#371C69"/>
						<stop  offset="1" style="stop-color:#391763"/>
					</linearGradient>
					<path class="st68" d="M157,183.9h-3.1c-0.3,0-0.6,0-0.9-0.1l-0.2-0.8c0,0,0,0,0,0l-0.7-2.3l-0.6-2l-3.8-12.3c0,0,0-0.1,0-0.1
						c0-0.1-0.1-0.2-0.1-0.4l-0.8-12.7l-0.1-1.9c0-0.7,0.5-1.3,1.2-1.4l1.4-0.1c0.7,0,1.3,0.5,1.4,1.2l0.1,2.1l0.7,10.5v0l0.1,1.6
						l1.3,4.2l2.4,8l0.5,1.6l0.5,1.7l0.8,2.6C157,183.5,157.1,183.7,157,183.9z"/>
					<path class="st143" d="M160.7,142.8C160.7,142.8,160.7,142.8,160.7,142.8l-0.6,24.9c-0.1,1.3-1.3,2.2-2.6,2l-4.2-0.2
						c-0.2,0-0.4-0.1-0.6-0.1c-1-0.4-1.7-1.3-1.5-2.4l0.2-3.4v-0.1l0.6-11.6l0.5-9.4l-1.2-9.6l-0.8-6.3h9.4l0.1,1.2l0.9,14.2
						C160.7,142.4,160.7,142.6,160.7,142.8z"/>
					<linearGradient id="SVGID_30_" gradientUnits="userSpaceOnUse" x1="152.7063" y1="181.3821" x2="203.4801" y2="181.3821">
						<stop  offset="2.820513e-02" style="stop-color:#2D2E82"/>
						<stop  offset="0.1726" style="stop-color:#30297B"/>
						<stop  offset="0.6528" style="stop-color:#371C69"/>
						<stop  offset="1" style="stop-color:#391763"/>
					</linearGradient>
					<path class="st69" d="M203.5,182.7c0,0.2,0,0.4-0.1,0.6c-0.4,0.3-1,0.5-1.5,0.6c-0.1,0-0.2,0-0.3,0h-47.8c-0.3,0-0.6,0-0.9-0.1
						c0,0-0.1,0-0.1,0c-0.1-0.2-0.1-0.5-0.1-0.7c0,0,0,0,0,0c0-0.1,0-0.2,0-0.3c0-0.8,0.2-1.5,0.6-2.1c0.2-0.2,0.3-0.5,0.5-0.7
						c0.5-0.5,1.1-0.9,1.8-1c0.3-0.1,0.6-0.1,0.9-0.1h43c1.4,0,2.6,0.7,3.3,1.8C203.3,181.2,203.5,182,203.5,182.7z"/>
					<path class="st143" d="M204.7,180.5v0.3c0,1.1-0.5,2-1.3,2.5c-0.4,0.3-1,0.5-1.5,0.6c-0.1,0-0.2,0-0.3,0h-47.8
						c-0.3,0-0.6,0-0.9-0.1c0,0-0.1,0-0.1,0c-1.2-0.4-2.1-1.6-2.1-2.9v-0.3c0-0.7,0.2-1.4,0.6-1.9c0.6-0.8,1.5-1.2,2.5-1.2h47.8
						c0.2,0,0.4,0,0.7,0.1C203.7,177.8,204.7,179,204.7,180.5z"/>
					<path class="st145" d="M168.8,170.8c0,0,16.7,3.6,35.9,5.3c0,0,0.4,0.2,0.7,0.7c0.1,0.2,0.3,0.6,0.3,1c0,0.1,0,0.3,0,0.4
						c0,0.3-0.2,1.2-0.4,2.5"/>
					<polygon class="st24" points="175.9,161 190.9,170.8 192.4,168.5 177.8,157.9 					"/>
					<line class="st45" x1="157.7" y1="149.4" x2="157.7" y2="151"/>
					<linearGradient id="SVGID_31_" gradientUnits="userSpaceOnUse" x1="207.9007" y1="174.6407" x2="168.7678" y2="156.2671">
						<stop  offset="0" style="stop-color:#35A8E0"/>
						<stop  offset="4.568344e-02" style="stop-color:#3498D4"/>
						<stop  offset="0.1566" style="stop-color:#3278BB"/>
						<stop  offset="0.2765" style="stop-color:#305DA6"/>
						<stop  offset="0.4068" style="stop-color:#2F4896"/>
						<stop  offset="0.5525" style="stop-color:#2E398B"/>
						<stop  offset="0.7261" style="stop-color:#2D3184"/>
						<stop  offset="1" style="stop-color:#2D2E82"/>
					</linearGradient>
					<path class="st70" d="M214.8,180.7H205c0.1-1.1,0.1-2,0.2-2.9c0-0.3,0.1-0.6,0.1-0.9c0.3-3.1,0.6-5-0.4-4.9
						c-21,0.8-36.7-2.7-36.7-2.7c-0.3-0.3-0.6-0.5-0.9-0.8c-1.3-1.4-1.9-2.9-2-4.4c-0.1-1,0-1.9,0.3-2.8c0.5-1.8,1.4-3.4,2.1-4.4
						c0.4-0.6,1.1-1,1.9-1.1c0.9-0.1,2.3-0.2,4.1-0.2c0.5,0,1,0,1.5,0c0.1,0,0.2,0,0.2,0c0.2,0,0.4,0,0.5,0c0.1,0,0.1,0,0.2,0
						c0.5,0,1.1,0.1,1.6,0.1c0.3,0,0.5,0,0.8,0.1h0c0.1,0,0.2,0,0.2,0c0.2,0,0.4,0,0.7,0.1c1.4,0.1,2.8,0.3,4.4,0.5
						c0.3,0,0.5,0.1,0.8,0.1c0.3,0,0.5,0.1,0.8,0.1c0.4,0.1,0.8,0.1,1.2,0.2h0c0.3,0,0.6,0.1,0.9,0.2h0c6.5,1.1,14.6,3.1,24,6.4
						c0.4,0.1,0.7,0.3,1,0.6C213.7,164.9,214.3,172.1,214.8,180.7z"/>
					<linearGradient id="SVGID_32_" gradientUnits="userSpaceOnUse" x1="197.753" y1="182.2646" x2="165.6578" y2="161.8615">
						<stop  offset="0" style="stop-color:#35A8E0"/>
						<stop  offset="0.6726" style="stop-color:#2F539E"/>
						<stop  offset="1" style="stop-color:#2D2E82"/>
					</linearGradient>
					<path class="st71" d="M210.6,180.7h-5.9v0.1c0,1.1-0.5,2-1.3,2.5c-0.4,0.3-1,0.5-1.5,0.6c0.2-1.5,0.3-2.6,0.1-3.2
						c-0.1-0.5-0.3-0.7-0.6-0.7c-21,0.8-36.6-1.1-36.6-1.1c-0.5-0.5-1-1-1.4-1.5c-1.7-2.3-1.8-5-1.3-7.4c0,0,0,0,0,0
						c0.4-2.2,1.4-4.2,2.1-5.1c0.3-0.4,0.7-0.8,1.2-1c0.2-0.1,0.4-0.1,0.6-0.2c1.9-0.3,6-0.4,12,0.3c1,0.1,2,0.2,3.1,0.4h0
						c2.3,0.3,4.7,0.8,7.4,1.3c5.6,1.2,12.1,3,19.4,5.6c0.4,0.1,0.7,0.3,1,0.6C209.7,172.6,210.2,176,210.6,180.7z"/>
					<line class="st45" x1="190.6" y1="146.1" x2="190.5" y2="146.1"/>
					<path class="st145" d="M207,180.7c0.1-0.4,0.1-0.6,0.1-0.8c0.1-1.5-1-2-1-2c-0.2,0-0.4,0-0.5,0c-0.1,0-0.3,0-0.4,0
						c-1-0.1-2-0.2-3-0.3c-0.2,0-0.4,0-0.7-0.1c-17.2-1.8-31.3-4.9-31.3-4.9"/>
					<path class="st25" d="M188,155.8c0,0.2-0.1,0.5-0.2,0.7c0,0.1-0.1,0.3-0.1,0.4h0c-0.7,1.6-2.6,3.2-4.9,4.7
						c-1,0.6-2.1,1.2-3.2,1.8c-0.5,0.2-0.9,0.5-1.4,0.7c-3.6,1.7-7.5,3.2-10.7,4.3c-2.3,0.8-4.1,1.4-5.3,1.7c0,0,0,0,0,0
						c-0.7,0.2-1.1,0.3-1.1,0.3l1.5-8.5l1.4-7.8l0.8-4.2c-2.6-8.2-4-15.7-4.9-21.8c-0.1-0.4-0.1-0.8-0.2-1.2h25.6l0.1,0.7
						c0,0,0.2,1.2,0.5,3.2c0.8,4.6,2.1,13.2,2.3,19.6C188.2,152.4,188.2,154.3,188,155.8z"/>
					<polygon class="st31" points="163.6,154 188.2,150.2 188.2,156.4 162.2,161.9 					"/>
					<polygon class="st151" points="183.3,149.9 174.9,151.4 173.6,154.9 174.1,157.3 176.5,159.5 184.8,157.9 186.2,155 
						185.8,152.6 					"/>
					<g>
						<path class="st47" d="M175.8,157.8l-0.8-4c-0.1-0.3,0.1-0.6,0.4-0.6l8-1.6c0.3-0.1,0.6,0.1,0.6,0.4l0.8,4
							c0.1,0.3-0.1,0.6-0.4,0.6l-8,1.6C176.1,158.2,175.9,158,175.8,157.8z"/>
						<path class="st136" d="M176.6,157.2L176,154c-0.1-0.3,0.1-0.6,0.4-0.6l6.5-1.3c0.3-0.1,0.6,0.1,0.6,0.4l0.6,3.2
							c0.1,0.3-0.1,0.6-0.4,0.6l-6.5,1.3C177,157.6,176.7,157.5,176.6,157.2z"/>
						<path class="st137" d="M184.2,154.6l-0.2-1c0,0,0-0.1,0-0.1l0,0c0,0,0.1,0,0.1,0l0.2,1C184.3,154.6,184.3,154.7,184.2,154.6
							L184.2,154.6C184.2,154.7,184.2,154.7,184.2,154.6z"/>
						<path class="st137" d="M175.7,156l-0.1-0.4c0-0.1,0.1-0.2,0.2-0.3l0.1,0c0.1,0,0.2,0.1,0.3,0.2l0.1,0.4c0,0.1-0.1,0.2-0.2,0.3
							l-0.1,0C175.8,156.2,175.7,156.1,175.7,156z"/>
						<path class="st152" d="M182.9,152.4c0.2,0,0.4,0.1,0.5,0.3"/>
						<path class="st20" d="M178.1,156.6l-0.5-2.7c0-0.2,0.1-0.5,0.4-0.5l0.7-0.1c0.2,0,0.5,0.1,0.5,0.4l0.5,2.7
							c0,0.2-0.1,0.5-0.4,0.5l-0.7,0.1C178.4,157,178.2,156.8,178.1,156.6z"/>
						<path class="st139" d="M178.2,153.3L178.2,153.3c0,0.1,0,0.1,0.1,0.1l4.1-0.8c0,0,0,0,0-0.1l0-0.1c0,0,0,0-0.1,0L178.2,153.3
							C178.2,153.2,178.2,153.2,178.2,153.3z"/>
						<g>
							<path class="st86" d="M178.3,153.9l0,0.1c0,0,0,0,0,0c0,0-0.1,0-0.1,0.1c0,0,0,0.1,0,0.1c0,0.1,0,0.1,0.1,0.1
								c0,0,0.1,0,0.1,0c0,0,0,0,0,0s0,0,0-0.1c0,0,0-0.1,0-0.1c0-0.1,0-0.2,0-0.2c0-0.1,0.1-0.1,0.2-0.1c0,0,0.1,0,0.1,0
								c0,0,0.1,0,0.1,0.1c0,0,0,0.1,0.1,0.2c0,0.1,0,0.2,0,0.2c0,0.1-0.1,0.1-0.1,0.1c0,0,0,0,0,0l0-0.1c0,0,0,0,0,0
								c0,0,0.1,0,0.1-0.1c0,0,0-0.1,0-0.1c0,0,0-0.1-0.1-0.1c0,0,0,0-0.1,0c0,0,0,0,0,0c0,0,0,0.1,0,0.2c0,0.1,0,0.1,0,0.2
								c0,0,0,0.1-0.1,0.1c0,0-0.1,0-0.1,0.1c0,0-0.1,0-0.1,0c0,0-0.1,0-0.1-0.1s-0.1-0.1-0.1-0.2c0-0.1,0-0.2,0-0.3
								C178.2,153.9,178.2,153.9,178.3,153.9C178.3,153.9,178.3,153.9,178.3,153.9z"/>
							<path class="st86" d="M178.9,154.9L178.9,154.9c-0.1,0-0.1,0-0.1,0l0-0.1c0,0,0,0,0,0l-0.2,0c0,0-0.1,0-0.1,0c0,0,0,0,0,0
								c0,0,0,0,0,0c0,0,0,0,0,0.1l-0.1,0c0,0,0,0,0,0c0,0,0-0.1,0-0.1c0,0,0-0.1,0-0.1c0,0,0,0,0-0.1c0,0,0,0,0.1,0
								c0,0,0.1,0,0.1,0l0.3-0.1l0-0.1l0.1,0l0,0.1l0.1,0c0,0,0,0,0,0l0.1,0.1c0,0,0,0,0,0l-0.2,0
								C178.9,154.8,178.9,154.8,178.9,154.9L178.9,154.9C178.9,154.9,178.9,154.9,178.9,154.9z"/>
							<path class="st86" d="M178.6,155c0.1,0,0.1,0,0.2,0c0.1,0,0.1,0,0.1,0.1c0,0,0.1,0.1,0.1,0.2c0,0.1,0,0.2,0,0.2
								c0,0.1-0.1,0.1-0.2,0.1c-0.1,0-0.2,0-0.2,0c-0.1,0-0.1-0.1-0.1-0.2c0-0.1,0-0.1,0-0.2c0-0.1,0-0.1,0.1-0.1
								C178.5,155,178.5,155,178.6,155z M178.6,155.2c-0.1,0-0.1,0-0.1,0.1c0,0,0,0.1,0,0.1c0,0,0,0.1,0.1,0.1c0,0,0.1,0,0.1,0
								c0.1,0,0.1,0,0.1-0.1c0,0,0-0.1,0-0.1s0-0.1-0.1-0.1S178.7,155.2,178.6,155.2z"/>
							<path class="st86" d="M179,155.7C179,155.7,179.1,155.7,179,155.7l0,0.1l-0.1,0c0,0,0.1,0,0.1,0.1s0,0.1,0.1,0.1
								c0,0.1,0,0.1,0,0.2s-0.1,0.1-0.2,0.1c-0.1,0-0.2,0-0.2,0c-0.1,0-0.1-0.1-0.1-0.2c0,0,0-0.1,0-0.1c0,0,0-0.1,0.1-0.1l-0.3,0.1
								c0,0,0,0,0,0l0-0.1c0,0,0,0,0,0L179,155.7z M178.8,155.9c-0.1,0-0.1,0-0.1,0.1c0,0,0,0.1,0,0.1c0,0,0,0.1,0.1,0.1
								s0.1,0,0.2,0c0.1,0,0.1,0,0.1-0.1c0,0,0-0.1,0-0.1c0,0,0-0.1-0.1-0.1C178.9,155.9,178.9,155.9,178.8,155.9z"/>
						</g>
					</g>
					<g>
						<polygon class="st2" points="198.9,153.9 203.9,153.2 200.8,149.3 197.7,145.3 195.8,149.9 193.9,154.6 						"/>
						
							<linearGradient id="SVGID_33_" gradientUnits="userSpaceOnUse" x1="38.4089" y1="-677.8416" x2="47.8705" y2="-677.8416" gradientTransform="matrix(0.5523 0.8337 0.8337 -0.5523 734.4835 -251.4498)">
							<stop  offset="0" style="stop-color:#F8B133"/>
							<stop  offset="0.1847" style="stop-color:#F7AB31"/>
							<stop  offset="0.4366" style="stop-color:#F4992D"/>
							<stop  offset="0.726" style="stop-color:#EF7D26"/>
							<stop  offset="1" style="stop-color:#EA5B1D"/>
						</linearGradient>
						
							<path style="fill:none;stroke:url(#SVGID_33_);stroke-width:2.4101;stroke-linecap:round;stroke-linejoin:round;stroke-miterlimit:10;" d="
							M184.4,162.5c0,0,16,5.3,14.7-11.7"/>
					</g>
					<path class="st143" d="M150.7,180.7v0.1c0,1.4,0.9,2.5,2.1,2.9c0,0,0.1,0,0.1,0c0.3,0.1,0.6,0.1,0.9,0.1h47.8
						c0.1,0,0.2,0,0.3,0c0.6,0,1.1-0.2,1.5-0.6c0.8-0.6,1.3-1.5,1.3-2.5v-0.1H150.7z"/>
				</g>
			</g>
		</g>
		<g>
			<path class="st3" d="M182.9,118.4v2h-7.5c0.1-0.8,0.3-1.5,0.7-2.1c0.4-0.7,1.2-1.6,2.4-2.7c1-0.9,1.6-1.5,1.8-1.8
				c0.3-0.4,0.4-0.9,0.4-1.3c0-0.5-0.1-0.8-0.4-1.1s-0.6-0.4-1.1-0.4c-0.4,0-0.8,0.1-1.1,0.4c-0.3,0.3-0.4,0.7-0.5,1.3l-2.1-0.2
				c0.1-1.2,0.5-2,1.2-2.5c0.7-0.5,1.5-0.8,2.5-0.8c1.1,0,2,0.3,2.6,0.9c0.6,0.6,0.9,1.3,0.9,2.2c0,0.5-0.1,1-0.3,1.4
				c-0.2,0.5-0.5,0.9-0.9,1.4c-0.3,0.3-0.7,0.8-1.4,1.4s-1.1,1-1.3,1.2c-0.2,0.2-0.3,0.4-0.4,0.6H182.9z"/>
		</g>
	</g>
	<g>
		<g>
			<g>
				<path class="st47" d="M258.4,90.5h-25.6c-1.7,0-3.1-1.4-3.1-3.1V36.7c0-1.7,1.4-3.1,3.1-3.1h25.6c1.7,0,3.1,1.4,3.1,3.1v50.7
					C261.5,89.1,260.1,90.5,258.4,90.5z"/>
				<path class="st136" d="M255.8,84.8h-20.3c-1.7,0-3.1-1.4-3.1-3.1V40.4c0-1.7,1.4-3.1,3.1-3.1h20.3c1.7,0,3.1,1.4,3.1,3.1v41.3
					C258.9,83.4,257.5,84.8,255.8,84.8z"/>
				<path class="st137" d="M249.4,35.8h-6.6c-0.2,0-0.3-0.1-0.3-0.3v-0.1c0-0.2,0.1-0.3,0.3-0.3h6.6c0.2,0,0.3,0.1,0.3,0.3v0.1
					C249.7,35.7,249.6,35.8,249.4,35.8z"/>
				<path class="st137" d="M247.2,89.1h-2.6c-0.7,0-1.3-0.6-1.3-1.3v-0.6c0-0.7,0.6-1.3,1.3-1.3h2.6c0.7,0,1.3,0.6,1.3,1.3v0.6
					C248.5,88.5,247.9,89.1,247.2,89.1z"/>
				<path class="st139" d="M234.1,41.7c-0.3,0-0.5-0.2-0.5-0.5c0-1.6,1.3-2.9,2.9-2.9c0.3,0,0.5,0.2,0.5,0.5c0,0.3-0.2,0.5-0.5,0.5
					c-1,0-1.9,0.8-1.9,1.9C234.6,41.5,234.3,41.7,234.1,41.7z"/>
			</g>
			<g>
				<path class="st20" d="M254.3,77.1h-17.4c-1.6,0-2.9-1.3-2.9-2.9v-4.8c0-1.6,1.3-2.9,2.9-2.9h17.4c1.6,0,2.9,1.3,2.9,2.9v4.8
					C257.1,75.8,255.9,77.1,254.3,77.1z"/>
				<g>
					<path class="st86" d="M237.5,72.3l0.8-0.1c0.1,0,0.1,0,0.1,0.1c0.1,0.3,0.2,0.5,0.4,0.7c0.2,0.2,0.5,0.3,0.8,0.3
						c0.4,0,0.6-0.1,0.8-0.2c0.2-0.1,0.3-0.3,0.3-0.5c0-0.1,0-0.2-0.1-0.3c-0.1-0.1-0.2-0.2-0.4-0.2c-0.1,0-0.4-0.1-0.9-0.2
						c-0.6-0.1-1-0.3-1.2-0.5c-0.3-0.3-0.5-0.7-0.5-1.1c0-0.3,0.1-0.5,0.2-0.8c0.2-0.2,0.4-0.4,0.7-0.5s0.6-0.2,1.1-0.2
						c0.7,0,1.2,0.1,1.5,0.4c0.3,0.3,0.5,0.6,0.5,1.1c0,0.1,0,0.1-0.1,0.1l-0.9,0c-0.1,0-0.1,0-0.1-0.1c-0.1-0.2-0.1-0.4-0.3-0.5
						c-0.2-0.1-0.4-0.2-0.7-0.2c-0.3,0-0.6,0.1-0.7,0.2c-0.1,0.1-0.2,0.2-0.2,0.3c0,0.1,0.1,0.2,0.2,0.3c0.1,0.1,0.5,0.2,1,0.4
						s0.9,0.3,1.2,0.4c0.3,0.1,0.5,0.3,0.6,0.5s0.2,0.5,0.2,0.9c0,0.3-0.1,0.6-0.3,0.9c-0.2,0.3-0.4,0.5-0.7,0.6
						c-0.3,0.1-0.7,0.2-1.2,0.2c-0.7,0-1.2-0.2-1.6-0.5c-0.3-0.3-0.6-0.7-0.6-1.3C237.3,72.4,237.4,72.3,237.5,72.3z"/>
					<path class="st86" d="M244.4,70.3v0.6c0,0.1-0.1,0.1-0.1,0.1h-0.5c-0.1,0-0.1,0.1-0.1,0.1v1.5c0,0.3,0,0.5,0,0.6s0,0.1,0.1,0.1
						s0.1,0.1,0.2,0.1c0.1,0,0.2,0,0.4-0.1l0.1,0.7c0,0.1,0,0.1-0.1,0.1c-0.2,0.1-0.5,0.1-0.7,0.1c-0.2,0-0.4,0-0.5-0.1
						c-0.1-0.1-0.3-0.1-0.3-0.2c-0.1-0.1-0.1-0.2-0.1-0.4c0-0.1,0-0.4,0-0.7V71h-0.5v-0.8h0.5v-0.7c0,0,0-0.1,0.1-0.1l0.8-0.5
						c0.1,0,0.2,0,0.2,0.1V70c0,0.1,0.1,0.1,0.1,0.1h0.5C244.4,70.2,244.4,70.2,244.4,70.3z"/>
					<path class="st86" d="M244.9,72.1c0-0.3,0.1-0.7,0.3-1c0.2-0.3,0.4-0.6,0.7-0.7c0.3-0.2,0.7-0.3,1-0.3c0.6,0,1.1,0.2,1.5,0.6
						c0.4,0.4,0.6,0.9,0.6,1.5c0,0.6-0.2,1.1-0.6,1.5c-0.4,0.4-0.9,0.6-1.4,0.6c-0.4,0-0.7-0.1-1-0.2c-0.3-0.2-0.6-0.4-0.7-0.7
						C245,72.9,244.9,72.5,244.9,72.1z M246,72.1c0,0.4,0.1,0.7,0.3,0.9c0.2,0.2,0.4,0.3,0.7,0.3c0.3,0,0.5-0.1,0.7-0.3
						c0.2-0.2,0.3-0.5,0.3-0.9c0-0.4-0.1-0.7-0.3-0.9c-0.2-0.2-0.4-0.3-0.7-0.3c-0.3,0-0.5,0.1-0.7,0.3
						C246.1,71.4,246,71.7,246,72.1z"/>
					<path class="st86" d="M249.7,70.3c0-0.1,0.1-0.1,0.1-0.1h0.9v0.6c0.1-0.2,0.3-0.4,0.5-0.5s0.5-0.2,0.7-0.2
						c0.5,0,0.8,0.2,1.2,0.5c0.3,0.4,0.5,0.9,0.5,1.5c0,0.7-0.2,1.2-0.5,1.5c-0.3,0.4-0.7,0.5-1.2,0.5c-0.2,0-0.4,0-0.6-0.1
						c-0.2-0.1-0.4-0.2-0.6-0.4v1.9c0,0.1-0.1,0.1-0.1,0.1h-0.8c-0.1,0-0.1-0.1-0.1-0.1V70.3z M250.8,72c0,0.4,0.1,0.8,0.3,1
						s0.4,0.3,0.6,0.3c0.2,0,0.4-0.1,0.6-0.3c0.2-0.2,0.2-0.5,0.2-0.9c0-0.4-0.1-0.7-0.2-0.9c-0.2-0.2-0.4-0.3-0.6-0.3
						c-0.3,0-0.5,0.1-0.6,0.3C250.8,71.4,250.8,71.7,250.8,72z"/>
				</g>
			</g>
			<g>
				<linearGradient id="SVGID_34_" gradientUnits="userSpaceOnUse" x1="251.1906" y1="72.861" x2="272.949" y2="94.6194">
					<stop  offset="0" style="stop-color:#F8B133"/>
					<stop  offset="0.2536" style="stop-color:#F8AE32"/>
					<stop  offset="0.4449" style="stop-color:#F6A430"/>
					<stop  offset="0.6157" style="stop-color:#F3942C"/>
					<stop  offset="0.7746" style="stop-color:#F07D26"/>
					<stop  offset="0.9238" style="stop-color:#EB601F"/>
					<stop  offset="1" style="stop-color:#E84E1B"/>
				</linearGradient>
				<path class="st73" d="M275.2,91.6l-3.1-14.7l-1.7-4c-0.3-0.4-1.3-0.3-1.3,0.2l0,0.2c-0.1,1.5-0.1,1.9,0.3,3.3l1.4,7.1
					c-2.3-4.3-5-8.5-5.6-9.3c-0.1-0.1-2-2.7-3.3-3.4l-1.7-0.6l-0.3-0.1l-1.9-0.7c-0.6-0.2-1.2,0.1-1.2,0.6c0,0.1,0,0.1,0,0.2
					c0,0,0,0.1,0,0.1c0.3,0.7,4,13.2,3.1,13.6c-0.6,0.3-5.5-11.5-7.7-11.7c-0.8-0.1-1.5,0.6-1.2,1.3c2.1,4.6,4.6,10.5,7.4,14.8
					c-1.1-0.1-1.9,0-1.9,0c-5.8-2.3-7.6-0.7-7.7,0.8c0,0.5,0.4,0.9,0.9,1c4.6,0.3,13.4,7,14.6,4.7c0.1-0.2,0.2-0.4,0.3-0.6
					c4.6,1.7,9.3-0.2,9.8-1.3c0.1-0.3,0.1-0.7,0-1.3L275.2,91.6z"/>
				<linearGradient id="SVGID_35_" gradientUnits="userSpaceOnUse" x1="267.3289" y1="91.011" x2="275.3002" y2="103.0972">
					<stop  offset="0" style="stop-color:#391763"/>
					<stop  offset="1" style="stop-color:#260340"/>
				</linearGradient>
				<polygon class="st75" points="254.5,97.5 283.6,97.5 279.1,83 				"/>
				<path class="st26" d="M264.8,81.8C264.8,81.9,264.8,81.9,264.8,81.8L264.8,81.8c-0.2,0.1-0.2,0-0.2,0c0,0,0.1-3.5-4.7-11.5
					l0.3,0.1C265,78.3,264.8,81.7,264.8,81.8z"/>
			</g>
			<path class="st139" d="M233.8,70.4h0.4c0.2,0,0.3-0.1,0.3-0.3V44.2c0-0.2-0.1-0.3-0.3-0.3h-0.4c-0.2,0-0.3,0.1-0.3,0.3v25.9
				C233.5,70.3,233.7,70.4,233.8,70.4z"/>
		</g>
		<g>
			<g>
				<circle class="st156" cx="254.8" cy="66.4" r="48.1"/>
			</g>
		</g>
		<g>
			<path class="st3" d="M272,57.4l2-0.2c0.1,0.5,0.2,0.9,0.5,1.2c0.3,0.3,0.6,0.4,1,0.4c0.4,0,0.8-0.2,1.1-0.5
				c0.3-0.3,0.4-0.8,0.4-1.3c0-0.5-0.1-1-0.4-1.3c-0.3-0.3-0.6-0.5-1-0.5c-0.3,0-0.6,0.1-1,0.2l0.2-1.7c0.6,0,1-0.1,1.3-0.4
				c0.3-0.3,0.5-0.6,0.5-1.1c0-0.4-0.1-0.7-0.3-0.9c-0.2-0.2-0.5-0.3-0.9-0.3c-0.4,0-0.7,0.1-0.9,0.4s-0.4,0.6-0.5,1.1l-2-0.3
				c0.1-0.7,0.3-1.2,0.6-1.6s0.7-0.7,1.1-0.9c0.5-0.2,1-0.3,1.6-0.3c1,0,1.9,0.3,2.5,1c0.5,0.5,0.8,1.2,0.8,1.8c0,1-0.5,1.7-1.6,2.3
				c0.6,0.1,1.1,0.4,1.5,0.9c0.4,0.5,0.6,1,0.6,1.7c0,1-0.4,1.8-1.1,2.5c-0.7,0.7-1.6,1-2.6,1c-1,0-1.8-0.3-2.5-0.9
				C272.4,59,272.1,58.3,272,57.4z"/>
		</g>
	</g>
</g>
<g id="Afmetingen_stoel">
</g>
<g id="Hulpmiddelen">
</g>
<g id="starten_test">
</g>
</svg>
