<svg id="stop_knop_close_up" data-name="stop knop close up" xmlns="http://www.w3.org/2000/svg" xmlns:xlink="http://www.w3.org/1999/xlink" viewBox="0 0 284.71 211.04"><defs><style>.cls-1{fill:#27aae1;}.cls-2{fill:#f8b133;}.cls-14,.cls-3{fill:#a2def9;}.cls-4{fill:url(#linear-gradient);}.cls-5{fill:url(#Naamloos_verloop_28);}.cls-6{fill:url(#linear-gradient-2);}.cls-7{fill:url(#linear-gradient-3);}.cls-8{fill:url(#Naamloos_verloop_28-2);}.cls-9{fill:#391763;}.cls-10{fill:url(#linear-gradient-4);}.cls-11{fill:url(#Naamloos_verloop_28-3);}.cls-12{fill:url(#linear-gradient-5);}.cls-13,.cls-19,.cls-29,.cls-30,.cls-32,.cls-35,.cls-36,.cls-37,.cls-38,.cls-39,.cls-43,.cls-44,.cls-48,.cls-58,.cls-61,.cls-64,.cls-69,.cls-70,.cls-71,.cls-76,.cls-77,.cls-80{fill:none;}.cls-13,.cls-19,.cls-69{stroke:#a2def9;}.cls-13,.cls-29,.cls-30,.cls-31,.cls-32,.cls-35,.cls-36,.cls-37,.cls-44,.cls-45,.cls-48,.cls-61,.cls-64,.cls-69,.cls-70,.cls-71,.cls-75,.cls-76,.cls-80{stroke-miterlimit:10;}.cls-13{stroke-width:0.93px;}.cls-14,.cls-49{opacity:0.5;}.cls-15{fill:#dbddde;}.cls-16{fill:url(#linear-gradient-6);}.cls-17{fill:url(#Naamloos_verloop_28-4);}.cls-18{fill:url(#linear-gradient-7);}.cls-19,.cls-30,.cls-31,.cls-32,.cls-35,.cls-37,.cls-38,.cls-43,.cls-48,.cls-58,.cls-61,.cls-71,.cls-76,.cls-77{stroke-linecap:round;}.cls-19,.cls-38,.cls-43,.cls-58,.cls-77{stroke-linejoin:round;}.cls-19{stroke-width:0.2px;stroke-dasharray:2.45;}.cls-20{fill:url(#linear-gradient-8);}.cls-21{fill:#534741;}.cls-22{fill:#4d4d4d;}.cls-23{fill:url(#Naamloos_verloop_45);}.cls-24{fill:#f29100;}.cls-25{fill:#35a8e0;}.cls-26{fill:url(#linear-gradient-9);}.cls-27{fill:url(#Naamloos_verloop_3);}.cls-28,.cls-49{fill:#160031;}.cls-29,.cls-70{stroke:#fcea0d;}.cls-29{stroke-width:2.45px;}.cls-30,.cls-71{stroke:#f5f5f5;}.cls-30,.cls-35,.cls-37,.cls-38,.cls-43,.cls-44,.cls-45{stroke-width:0.41px;}.cls-31{fill:#1d70b7;stroke:#260340;}.cls-31,.cls-32,.cls-36,.cls-48{stroke-width:0.82px;}.cls-32{stroke:#955d61;}.cls-33{fill:url(#Naamloos_verloop_65);}.cls-34{fill:url(#Naamloos_verloop_64);}.cls-35,.cls-38{stroke:#e84e1b;}.cls-36{stroke:#f8b133;}.cls-37{stroke:#1d70b7;}.cls-40{fill:url(#Naamloos_verloop_2);}.cls-41{fill:url(#Naamloos_verloop_2-2);}.cls-42{fill:url(#linear-gradient-10);}.cls-43,.cls-44,.cls-45,.cls-61,.cls-76{stroke:#897cba;}.cls-45,.cls-51,.cls-63{fill:#897cba;}.cls-46{fill:url(#linear-gradient-11);}.cls-47{fill:#f8dcb2;}.cls-48{stroke:#dbddde;}.cls-50{fill:url(#linear-gradient-12);}.cls-52{fill:#260340;}.cls-53{fill:url(#linear-gradient-13);}.cls-54{fill:#e84e1b;}.cls-55{fill:url(#linear-gradient-14);}.cls-56{fill:url(#linear-gradient-15);}.cls-57{fill:url(#linear-gradient-16);}.cls-58{stroke-width:2.78px;stroke:url(#Naamloos_verloop_28-5);}.cls-59{fill:#f5f5f5;}.cls-60{fill:#2d2e82;}.cls-61{stroke-width:0.64px;}.cls-61,.cls-63,.cls-76{opacity:0.35;}.cls-62{fill:#ef4136;}.cls-64,.cls-80{stroke:#fbb040;}.cls-64{stroke-width:6.59px;}.cls-65{fill:url(#linear-gradient-17);}.cls-66{fill:url(#linear-gradient-18);}.cls-67{fill:gray;}.cls-68{fill:url(#linear-gradient-19);}.cls-69{stroke-width:0.28px;stroke-dasharray:2.23;}.cls-70{stroke-width:2.95px;}.cls-71{stroke-width:0.49px;}.cls-72{fill:url(#linear-gradient-20);}.cls-73{fill:url(#linear-gradient-21);}.cls-74{fill:url(#linear-gradient-22);}.cls-75{fill:#f7941d;stroke:#391763;stroke-width:0.73px;}.cls-76{stroke-width:0.18px;}.cls-77{stroke-width:2.41px;stroke:url(#Naamloos_verloop_28-6);}.cls-78{fill:url(#Naamloos_verloop_17);}.cls-79{fill:url(#linear-gradient-23);}.cls-80{stroke-width:6.53px;}</style><linearGradient id="linear-gradient" x1="45.6" y1="433.38" x2="75.13" y2="433.38" gradientUnits="userSpaceOnUse"><stop offset="0.03" stop-color="#2d2e82"/><stop offset="0.17" stop-color="#30297b"/><stop offset="0.65" stop-color="#371c69"/><stop offset="1" stop-color="#391763"/></linearGradient><linearGradient id="Naamloos_verloop_28" x1="62.07" y1="433.94" x2="86.03" y2="433.94" gradientTransform="translate(148.1 867.88) rotate(180)" gradientUnits="userSpaceOnUse"><stop offset="0" stop-color="#f8b133"/><stop offset="0.18" stop-color="#f7ab31"/><stop offset="0.44" stop-color="#f4992d"/><stop offset="0.73" stop-color="#ef7d26"/><stop offset="1" stop-color="#ea5b1d"/></linearGradient><linearGradient id="linear-gradient-2" x1="0" y1="139.33" x2="6.61" y2="139.33" xlink:href="#linear-gradient"/><linearGradient id="linear-gradient-3" x1="-40.19" y1="-4.73" x2="-34.15" y2="-4.73" gradientTransform="matrix(0.96, -0.28, -0.28, -0.96, 61.62, 429.17)" xlink:href="#linear-gradient"/><linearGradient id="Naamloos_verloop_28-2" x1="25.25" y1="423.63" x2="34.81" y2="423.63" gradientTransform="matrix(1, 0, 0, 1, 0, 0)" xlink:href="#Naamloos_verloop_28"/><linearGradient id="linear-gradient-4" x1="238.95" y1="-234.62" x2="245.37" y2="-234.62" gradientTransform="translate(-192.92 691.59)" xlink:href="#linear-gradient"/><linearGradient id="Naamloos_verloop_28-3" x1="986.36" y1="455.25" x2="1031.24" y2="455.25" gradientTransform="matrix(1, 0, 0, -1, -959.86, 910.5)" xlink:href="#Naamloos_verloop_28"/><linearGradient id="linear-gradient-5" x1="49.81" y1="496.75" x2="49.16" y2="450.02" gradientUnits="userSpaceOnUse"><stop offset="0.03" stop-color="#2d2e82"/><stop offset="0.07" stop-color="#2f2b7e"/><stop offset="0.31" stop-color="#34206f"/><stop offset="0.59" stop-color="#381966"/><stop offset="1" stop-color="#391763"/></linearGradient><linearGradient id="linear-gradient-6" x1="53.47" y1="-149.67" x2="59.45" y2="-149.67" gradientTransform="translate(171.92 532.82) rotate(-76.86)" xlink:href="#linear-gradient"/><linearGradient id="Naamloos_verloop_28-4" x1="993.17" y1="444.3" x2="1017.13" y2="444.3" gradientTransform="matrix(1, 0, 0, -1, -952.55, 888.6)" xlink:href="#Naamloos_verloop_28"/><linearGradient id="linear-gradient-7" x1="94.98" y1="632.07" x2="106.08" y2="565.62" gradientTransform="translate(-221.21 -61.76) rotate(-22.35)" gradientUnits="userSpaceOnUse"><stop offset="0" stop-color="#35a8e0"/><stop offset="0.67" stop-color="#2f539e"/><stop offset="1" stop-color="#2d2e82"/></linearGradient><linearGradient id="linear-gradient-8" x1="96.94" y1="697.45" x2="108.04" y2="630.99" gradientTransform="matrix(0.85, -0.53, 0.53, 0.85, -321.31, -56.24)" xlink:href="#linear-gradient-7"/><linearGradient id="Naamloos_verloop_45" x1="107.47" y1="428.63" x2="107.47" y2="387.21" gradientUnits="userSpaceOnUse"><stop offset="0" stop-color="#2d2e82"/><stop offset="0.03" stop-color="#2c2d7d"/><stop offset="0.16" stop-color="#2b276b"/><stop offset="0.29" stop-color="#292460"/><stop offset="0.44" stop-color="#29235c"/></linearGradient><linearGradient id="linear-gradient-9" x1="53.91" y1="273.79" x2="53.91" y2="325.07" gradientTransform="translate(120.57 88.67) rotate(16.2)" gradientUnits="userSpaceOnUse"><stop offset="0" stop-color="#260340"/><stop offset="0.19" stop-color="#2b084a"/><stop offset="0.67" stop-color="#35135c"/><stop offset="1" stop-color="#391763"/></linearGradient><linearGradient id="Naamloos_verloop_3" x1="104.91" y1="412.52" x2="104.91" y2="365.9" gradientUnits="userSpaceOnUse"><stop offset="0.19" stop-color="#35a8e0"/><stop offset="0.31" stop-color="#38a9e1"/><stop offset="0.38" stop-color="#41aee3"/><stop offset="0.45" stop-color="#50b5e6"/><stop offset="0.51" stop-color="#65c0eb"/><stop offset="0.57" stop-color="#80cdf1"/><stop offset="0.62" stop-color="#a2def9"/></linearGradient><linearGradient id="Naamloos_verloop_65" x1="90.6" y1="340.15" x2="90.6" y2="344.06" gradientTransform="translate(-14.28 -284.57)" gradientUnits="userSpaceOnUse"><stop offset="0" stop-color="#2d2e82"/><stop offset="0.12" stop-color="#1c2969"/><stop offset="0.26" stop-color="#0c2452"/><stop offset="0.35" stop-color="#06224a"/></linearGradient><linearGradient id="Naamloos_verloop_64" x1="100.86" y1="340.15" x2="100.86" y2="344.06" gradientTransform="translate(-14.28 -284.57)" gradientUnits="userSpaceOnUse"><stop offset="0" stop-color="#2d2e82"/><stop offset="0.06" stop-color="#212a71"/><stop offset="0.15" stop-color="#12265b"/><stop offset="0.25" stop-color="#09234e"/><stop offset="0.33" stop-color="#06224a"/></linearGradient><linearGradient id="Naamloos_verloop_2" x1="855.31" y1="365.9" x2="855.31" y2="429.03" gradientTransform="matrix(-1, 0, 0, 1, 972.8, 0)" gradientUnits="userSpaceOnUse"><stop offset="0" stop-color="#260340"/><stop offset="0.33" stop-color="#280644"/><stop offset="0.69" stop-color="#2f0d51"/><stop offset="1" stop-color="#391763"/></linearGradient><linearGradient id="Naamloos_verloop_2-2" x1="95.29" y1="365.9" x2="95.29" y2="429.21" gradientTransform="matrix(1, 0, 0, 1, 0, 0)" xlink:href="#Naamloos_verloop_2"/><linearGradient id="linear-gradient-10" x1="96.67" y1="364.74" x2="96.67" y2="381.22" gradientUnits="userSpaceOnUse"><stop offset="0.03" stop-color="#2d2e82"/><stop offset="0.14" stop-color="#312779"/><stop offset="0.39" stop-color="#371b69"/><stop offset="0.59" stop-color="#391763"/></linearGradient><linearGradient id="linear-gradient-11" x1="104.95" y1="336.2" x2="104.95" y2="311.83" gradientUnits="userSpaceOnUse"><stop offset="0" stop-color="#534741"/><stop offset="0.4" stop-color="#746e6b"/><stop offset="0.79" stop-color="#8f8d8c"/><stop offset="1" stop-color="#999"/></linearGradient><linearGradient id="linear-gradient-12" x1="89.72" y1="621.7" x2="74.01" y2="621.35" gradientTransform="translate(-221.21 -61.76) rotate(-22.35)" gradientUnits="userSpaceOnUse"><stop offset="0.19" stop-color="#897cba"/><stop offset="0.33" stop-color="#8678b7"/><stop offset="0.47" stop-color="#7d6dad"/><stop offset="0.59" stop-color="#6f5b9e"/><stop offset="0.72" stop-color="#5a4187"/><stop offset="0.84" stop-color="#40206b"/><stop offset="0.87" stop-color="#391763"/></linearGradient><linearGradient id="linear-gradient-13" x1="91.81" y1="416.56" x2="92.09" y2="428.89" gradientTransform="translate(99.26 50.47) rotate(10.16)" gradientUnits="userSpaceOnUse"><stop offset="0.19" stop-color="#897cba"/><stop offset="0.36" stop-color="#7867a8"/><stop offset="0.71" stop-color="#4e317a"/><stop offset="0.87" stop-color="#391763"/></linearGradient><linearGradient id="linear-gradient-14" x1="130.33" y1="458.8" x2="130.33" y2="510.08" gradientTransform="translate(-126.83 -44.14) rotate(-14.7)" xlink:href="#linear-gradient-9"/><linearGradient id="linear-gradient-15" x1="850.89" y1="364.83" x2="850.89" y2="381.15" gradientTransform="matrix(-1, 0, 0, 1, 965.56, 0)" xlink:href="#linear-gradient-10"/><linearGradient id="linear-gradient-16" x1="65.06" y1="113.23" x2="65.06" y2="126.34" gradientTransform="matrix(1, 0, 0, 1, 0, 0)" xlink:href="#linear-gradient-9"/><linearGradient id="Naamloos_verloop_28-5" x1="-167" y1="-175.99" x2="-156.08" y2="-175.99" gradientTransform="matrix(-0.25, -0.97, -0.97, 0.25, -144.34, 214.72)" xlink:href="#Naamloos_verloop_28"/><linearGradient id="linear-gradient-17" x1="123.23" y1="127.98" x2="131.18" y2="127.98" xlink:href="#linear-gradient"/><linearGradient id="linear-gradient-18" x1="146.59" y1="436.46" x2="157.03" y2="436.46" xlink:href="#linear-gradient"/><linearGradient id="linear-gradient-19" x1="152.71" y1="451" x2="203.48" y2="451" xlink:href="#linear-gradient"/><linearGradient id="linear-gradient-20" x1="207.9" y1="444.26" x2="168.77" y2="425.88" gradientUnits="userSpaceOnUse"><stop offset="0" stop-color="#35a8e0"/><stop offset="0.05" stop-color="#3498d4"/><stop offset="0.16" stop-color="#3278bb"/><stop offset="0.28" stop-color="#305da6"/><stop offset="0.41" stop-color="#2f4896"/><stop offset="0.55" stop-color="#2e398b"/><stop offset="0.73" stop-color="#2d3184"/><stop offset="1" stop-color="#2d2e82"/></linearGradient><linearGradient id="linear-gradient-21" x1="197.75" y1="451.88" x2="165.66" y2="431.48" gradientTransform="matrix(1, 0, 0, 1, 0, 0)" xlink:href="#linear-gradient-7"/><linearGradient id="linear-gradient-22" x1="162.99" y1="417.55" x2="162.99" y2="417.55" gradientTransform="matrix(1, 0, 0, 1, 0, 0)" xlink:href="#linear-gradient-9"/><linearGradient id="Naamloos_verloop_28-6" x1="38.41" y1="-408.22" x2="47.87" y2="-408.22" gradientTransform="matrix(0.55, 0.83, 0.83, -0.55, 509.71, 167.07)" xlink:href="#Naamloos_verloop_28"/><linearGradient id="Naamloos_verloop_17" x1="251.19" y1="342.48" x2="272.95" y2="364.24" gradientUnits="userSpaceOnUse"><stop offset="0" stop-color="#f8b133"/><stop offset="0.25" stop-color="#f8ae32"/><stop offset="0.44" stop-color="#f6a430"/><stop offset="0.62" stop-color="#f3942c"/><stop offset="0.77" stop-color="#f07d26"/><stop offset="0.92" stop-color="#eb601f"/><stop offset="1" stop-color="#e84e1b"/></linearGradient><linearGradient id="linear-gradient-23" x1="245.8" y1="76.05" x2="253.77" y2="88.14" gradientUnits="userSpaceOnUse"><stop offset="0" stop-color="#391763"/><stop offset="1" stop-color="#260340"/></linearGradient></defs><path class="cls-1" d="M8.21,197.26H276.67a7,7,0,0,1,7,7V211a0,0,0,0,1,0,0H1.22a0,0,0,0,1,0,0v-6.78A7,7,0,0,1,8.21,197.26Z"/><rect class="cls-2" x="67.43" y="197.26" width="5.11" height="13.77"/><rect class="cls-2" x="235.94" y="197.26" width="5.11" height="13.77"/><path class="cls-3" d="M65,420.86l-2-21.63a3.65,3.65,0,0,0-4.28-2.76,3.73,3.73,0,0,0-2.88,3.67,4.34,4.34,0,0,0,0,.63l2,17.59.6,5.26,1,3h0v0h0l0,.08L68,430.52l.11.05h0l10.61,4.79,1.58-3h0l1.3-2.5.51-1Z" transform="translate(-21.53 -284.57)"/><path class="cls-3" d="M57.6,396.75l-6.64,1s-3,32.51-1.16,55.79c0,0,12.89,8.51,13.82,2.84,1.61-9.84-4.2-37.18-3.21-48.28C60.86,402.94,58.07,399.13,57.6,396.75Z" transform="translate(-21.53 -284.57)"/><path class="cls-4" d="M74.07,433.58l-11.78,0-15-3.64a1.17,1.17,0,0,0-1.42.9l-.19.85a1.22,1.22,0,0,0,.89,1.46l15.12,3.67h.09a1.13,1.13,0,0,0,.32.05l12,0a1.06,1.06,0,0,0,1.06-1.08v-1.13A1.07,1.07,0,0,0,74.07,433.58Z" transform="translate(-21.53 -284.57)"/><rect class="cls-5" x="62.07" y="432.1" width="23.96" height="3.69" rx="1.84" transform="translate(126.56 583.31) rotate(-180)"/><rect class="cls-6" y="130.45" width="6.61" height="17.77" rx="3.26"/><path class="cls-7" d="M26.38,430.59l.73,11.86,4.57,14.94a1.19,1.19,0,0,1-.83,1.48l-.83.25a1.24,1.24,0,0,1-1.53-.81l-4.6-15s0-.06,0-.09a.83.83,0,0,1-.07-.32l-.74-12.1a1.07,1.07,0,0,1,1-1.13l1.13-.07A1.09,1.09,0,0,1,26.38,430.59Z" transform="translate(-21.53 -284.57)"/><path class="cls-8" d="M34.79,423.27l-1.35-20.6a2,2,0,0,0-2.25-1.6l-4.26.24a1.94,1.94,0,0,0-1.66,2.19l2.61,20.13-1,20.28A1.94,1.94,0,0,0,28.63,446l3.49.18a2,2,0,0,0,2.18-1.69l.49-20.71v0A1.81,1.81,0,0,0,34.79,423.27Z" transform="translate(-21.53 -284.57)"/><path class="cls-9" d="M72.72,490.1,56.89,460.18h0v-2.06a.16.16,0,0,0-.16-.16H40.94a.16.16,0,0,0-.16.16v2.06h.06L25,490.1a1.78,1.78,0,0,0,.8,2.43h0a1.89,1.89,0,0,0,2.5-.78l16.35-30.93a1.74,1.74,0,0,0,.19-.64h8a1.72,1.72,0,0,0,.18.64l16.36,30.93a1.89,1.89,0,0,0,2.5.78h0A1.78,1.78,0,0,0,72.72,490.1Z" transform="translate(-21.53 -284.57)"/><rect class="cls-10" x="46.03" y="435.87" width="6.42" height="42.2" rx="3.21" transform="translate(-429.26 221.63) rotate(-90)"/><rect class="cls-11" x="26.5" y="452.54" width="44.88" height="5.43" rx="2.59" transform="translate(76.36 625.93) rotate(-180)"/><path class="cls-12" d="M73.58,490.1,57.75,460.18h0v-2.06a.16.16,0,0,0-.16-.16H41.81a.16.16,0,0,0-.16.16v2.06h.06L25.88,490.1a1.78,1.78,0,0,0,.8,2.43h0a1.89,1.89,0,0,0,2.5-.78l16.36-30.93a1.72,1.72,0,0,0,.18-.64h8a1.74,1.74,0,0,0,.19.64l16.35,30.93a1.89,1.89,0,0,0,2.5.78h0A1.78,1.78,0,0,0,73.58,490.1Z" transform="translate(-21.53 -284.57)"/><path class="cls-13" d="M41.52,447.08a264.81,264.81,0,0,0,29.82,4.43,1.7,1.7,0,0,1,.8,1.7c-.09,1.25-3,11.25,2.44,27.61" transform="translate(-21.53 -284.57)"/><polyline class="cls-3" points="25.91 154.37 38.38 162.5 39.57 160.62 27.44 151.8"/><path class="cls-3" d="M39.33,410.44a.21.21,0,0,1-.19-.13A2.61,2.61,0,0,1,40.71,407a.21.21,0,0,1,.25.12.2.2,0,0,1-.12.25,2.23,2.23,0,0,0-1.33,2.84.2.2,0,0,1-.12.25Z" transform="translate(-21.53 -284.57)"/><path class="cls-3" d="M45,426.52" transform="translate(-21.53 -284.57)"/><path class="cls-3" d="M49.65,426.52" transform="translate(-21.53 -284.57)"/><path class="cls-3" d="M47.51,423.61" transform="translate(-21.53 -284.57)"/><path class="cls-3" d="M50.16,426.21" transform="translate(-21.53 -284.57)"/><line class="cls-3" x1="10.74" y1="144.71" x2="10.79" y2="146.07"/><polygon class="cls-3" points="31.22 150.44 28.77 148.44 20.68 148.44 19.03 150.44 19.03 153.57 20.5 155.09 28.63 155.09 31.22 153.05 31.22 150.44"/><path class="cls-3" d="M53.5,396.2l.43,0a2.56,2.56,0,0,0-.44.21A1.21,1.21,0,0,0,53.5,396.2Z" transform="translate(-21.53 -284.57)"/><path class="cls-3" d="M71.6,448c2.54-.1-5.43,15.87,8.37,33.59,0,0,.09,0,.14,0a2.11,2.11,0,0,0,.56,0,2.19,2.19,0,0,0,.93-.25c1.62-.85,1.17-.36,1.62-.85s-1.84-3.2-1.93-3.88c-1.5-10.73-1.5-33.6-3.4-35.36a2.27,2.27,0,0,0-.79-.47c-18.85-6.69-31.39-6.87-34.91-6.35a2.36,2.36,0,0,0-1.54,1c-1.3,1.86-3.92,6.61.41,10.28A132.41,132.41,0,0,0,71.6,448Z" transform="translate(-21.53 -284.57)"/><path class="cls-3" d="M53.82,407.8c-1.39-4.82-.38-9-.33-11.41a2.2,2.2,0,0,0-.47.37l-17.54.34h0l1.2,13.63.6,6.73,1.13,12.86v0l.28,3.19v0l.06.79.12,1.36.16,2,0,.29V438l.14,1.62,0,.37v.06L58.22,436s0,0,0-.06,0-.25,0-.37c0-.55,0-1.07,0-1.59a.27.27,0,0,0,0-.09,2.44,2.44,0,0,0,0-.27c.17-4.3.23-8.22.23-11.77C56.62,416.55,54.93,411.61,53.82,407.8Zm.11-11.62,1-.06A1.65,1.65,0,0,0,53.93,396.18Z" transform="translate(-21.53 -284.57)"/><path class="cls-14" d="M94.4,484s-9-4.37-12.7-6.45a6.51,6.51,0,0,0-5.45-.2l10,6Z" transform="translate(-21.53 -284.57)"/><path class="cls-14" d="M86.27,483.35l-10-6-.46,5.89a.43.43,0,0,0,.45.46Z" transform="translate(-21.53 -284.57)"/><path class="cls-3" d="M94.4,484s-9.13-3.9-12.88-6a6.46,6.46,0,0,0-5.45-.2l10,6Z" transform="translate(-21.53 -284.57)"/><path class="cls-3" d="M88.77,479.92c-2.94-1.38-5.94-3.53-5.34-6.38a.92.92,0,0,0-.84-1.12l-3.53-.24a.89.89,0,0,0-.9,1.23c.9,2.12,3.43,6.26,10,8.18a1,1,0,0,0,.25,0h0A.9.9,0,0,0,88.77,479.92Z" transform="translate(-21.53 -284.57)"/><path class="cls-3" d="M86.09,483.83l-10-6-.46,5.88a.43.43,0,0,0,.45.46Z" transform="translate(-21.53 -284.57)"/><path class="cls-3" d="M86.09,483.83l8.31.14v-.17a5.35,5.35,0,0,0-.07-.7,4.43,4.43,0,0,0-4.07-3.92h-.35l-.22,0a3.85,3.85,0,0,0-1,.28,4.31,4.31,0,0,0-1.9,1.72h0a2,2,0,0,0-.14.25A5.07,5.07,0,0,0,86.09,483.83Z" transform="translate(-21.53 -284.57)"/><path class="cls-3" d="M94.4,484l.08.63-19,.26s-.21-1.87.19-2.05c0,0,.09,1.15,10.53.7Z" transform="translate(-21.53 -284.57)"/><path class="cls-3" d="M90,437.48a.75.75,0,0,1,.08.54l0,.15h0a.78.78,0,0,1-.46.43.12.12,0,0,1-.09,0,.71.71,0,0,1-.45,0,30.71,30.71,0,0,1-6.37-3.36,20.4,20.4,0,0,1-1.83-1.42c-.11-.1-.2-.2-.3-.3a3.54,3.54,0,0,1-.33-.46l-.1-.16c0-.06,0-.11-.07-.17l0-.07v0a3,3,0,0,1,.18-2.69v0s0,0,0,0A15.47,15.47,0,0,1,82.91,431l.59.31A16.44,16.44,0,0,1,90,437.48Z" transform="translate(-21.53 -284.57)"/><path class="cls-3" d="M81.19,432.19l.33.69.2.4,1,2,.76,1.56a.6.6,0,0,1-.27.8l-.06,0a.6.6,0,0,1-.8-.27l-1.88-3.84-.23-.47-.08-.15-.07-.16a.28.28,0,0,1,0-.12.59.59,0,0,1,.31-.68l.06,0A.61.61,0,0,1,81.19,432.19Z" transform="translate(-21.53 -284.57)"/><path class="cls-3" d="M89.6,438.6a.13.13,0,0,1-.08,0c-.59-1.88-5.91-4.52-6-4.55a0,0,0,0,1,0-.06,0,0,0,0,1,.06,0C83.82,434.11,89,436.68,89.6,438.6Z" transform="translate(-21.53 -284.57)"/><path class="cls-3" d="M90.1,438c-.72-1.91-4-4.55-4.14-4.67a.06.06,0,0,0-.07,0,0,0,0,0,0,0,.06s3.54,2.85,4.16,4.75h0Z" transform="translate(-21.53 -284.57)"/><path class="cls-3" d="M83.5,431.29a3.15,3.15,0,0,1-1.15,1.63,2.84,2.84,0,0,1-.63.36,3.09,3.09,0,0,1-1.16.24h-.12l-.23-.47-.08-.15-.07-.16a.28.28,0,0,1,0-.12,3,3,0,0,1,.18-2.69v0s0,0,0,0A15.47,15.47,0,0,1,82.91,431Z" transform="translate(-21.53 -284.57)"/><path class="cls-3" d="M68.62,454.7c2.55-.1-5.42,15.87,8.37,33.58,0,0,.09,0,.14,0a2.23,2.23,0,0,0,1.49-.22c1.63-.84,1.17-.36,1.63-.84s-1.84-3.21-1.94-3.88c-1.5-10.73-1.49-33.61-3.4-35.36a2.27,2.27,0,0,0-.79-.47c-18.85-6.69-31.39-6.88-34.9-6.35a2.3,2.3,0,0,0-1.54.95c-1.31,1.85-3.79,7.95.54,11.62A212.23,212.23,0,0,0,68.62,454.7Z" transform="translate(-21.53 -284.57)"/><path class="cls-3" d="M36.69,428.06" transform="translate(-21.53 -284.57)"/><rect class="cls-3" x="33.57" y="373.71" width="2.12" height="2.08" rx="0.94" transform="translate(66.24 462.76) rotate(177.16)"/><rect class="cls-3" x="59.57" y="364.36" width="2.12" height="2.08" rx="0.94" transform="translate(117.75 442.77) rotate(177.16)"/><rect class="cls-3" x="30.81" y="345.99" width="25.35" height="24.84" rx="11.18" transform="translate(83.13 429.66) rotate(177.16)"/><rect class="cls-3" x="53.83" y="355.94" width="9.74" height="9.55" rx="4.3" transform="translate(113.65 433.51) rotate(177.16)"/><rect class="cls-3" x="30.43" y="366.75" width="6.21" height="6.08" rx="2.74" transform="translate(63.8 452.89) rotate(177.16)"/><path class="cls-3" d="M31.81,372.49a3,3,0,0,0,2.85,2.82H35l-.29-5.93-.33,0a3,3,0,0,0-1.76.94l-.07.08-.11.13a2.68,2.68,0,0,0-.38.68A2.79,2.79,0,0,0,31.81,372.49Z" transform="translate(-21.53 -284.57)"/><path class="cls-3" d="M41.87,391.23l.32,6.43a4.9,4.9,0,0,0,5.11,4.67l1.62-.08a4.9,4.9,0,0,0,4.62-5.15l-.32-6.44A4.91,4.91,0,0,0,48.11,386l-1.61.08A4.91,4.91,0,0,0,41.87,391.23Z" transform="translate(-21.53 -284.57)"/><path class="cls-3" d="M34.05,363.08,35,381.71l5.38,9.77a12.3,12.3,0,0,0,1.58,1l.1,2.07a13.34,13.34,0,0,0,11.41.5L53.33,393h0a13,13,0,0,0,8-12.56l-.92-18.62a12.2,12.2,0,0,0-.12-1.23c0-.16,0-.31-.08-.47h0c-.09-.44-.19-.88-.32-1.31a12.62,12.62,0,0,0-2.45-4.53,5.39,5.39,0,0,0-.39-.43,1.88,1.88,0,0,0-.24-.25.53.53,0,0,0-.13-.13,2.47,2.47,0,0,0-.28-.28,3.19,3.19,0,0,0-.38-.36,12.72,12.72,0,0,0-2.34-1.63.83.83,0,0,0-.16-.09l-.08,0s0,0,0,0l-.27-.13a12.81,12.81,0,0,0-1.32-.57l-.52-.18-.1,0-1.14-.3a12.27,12.27,0,0,0-1.82-.26h0l-.69,0c-.31,0-.63,0-1,0l-.21,0-.68.06-.38,0s0,0-.07,0a14.53,14.53,0,0,0-1.46.3h0c-.43.13-.86.26-1.28.43l-.76.31h0l-.28.13-.09,0a10.68,10.68,0,0,0-1.19.67l0,0a6.1,6.1,0,0,0-.59.4,11,11,0,0,0-1.76,1.5,1.06,1.06,0,0,0-.15.15l-.16.16,0,0a10.69,10.69,0,0,0-.69.82,7.36,7.36,0,0,0-.47.63,11.25,11.25,0,0,0-.7,1.14,1.33,1.33,0,0,0-.06.12c-.05.08-.08.16-.13.23l-.11.24a2.85,2.85,0,0,0-.17.35s0,.07,0,.11-.09.22-.14.34a12.27,12.27,0,0,0-.71,2.47c0,.08,0,.15,0,.22-.06.39-.1.77-.13,1.16v0c0,.22,0,.46,0,.68a.54.54,0,0,0,0,.18A5.61,5.61,0,0,0,34.05,363.08Z" transform="translate(-21.53 -284.57)"/><path class="cls-3" d="M34,361l1,20.7a12.8,12.8,0,0,0,5.38,9.77,12.3,12.3,0,0,0,1.58,1A13.33,13.33,0,0,0,48.81,394a13.1,13.1,0,0,0,4.52-1h0a13,13,0,0,0,8-12.56l-1-20.7a12,12,0,0,0-.12-1.22c0-.16-.06-.31-.08-.48h0a12.38,12.38,0,0,0-.33-1.3,12.59,12.59,0,0,0-2.44-4.53c-.13-.15-.25-.3-.39-.44l-.24-.25-.13-.13a3.57,3.57,0,0,0-.28-.27,3.41,3.41,0,0,0-.39-.37,12.6,12.6,0,0,0-2.33-1.62.54.54,0,0,0-.16-.1l-.09,0s0,0,0,0a1.58,1.58,0,0,0-.26-.13,12.09,12.09,0,0,0-1.33-.57c-.17-.07-.34-.12-.52-.18l-.1,0c-.38-.11-.75-.21-1.13-.29a12.46,12.46,0,0,0-1.82-.26h0l-.69,0c-.32,0-.63,0-1,0l-.22,0-.67.07-.38,0h-.07c-.5.08-1,.19-1.46.31h0a11.31,11.31,0,0,0-1.28.43c-.26.09-.51.2-.77.31h0l-.28.13-.09,0a10.14,10.14,0,0,0-1.2.67l0,0a6.19,6.19,0,0,0-.59.41,11,11,0,0,0-1.76,1.5.54.54,0,0,0-.15.15l-.16.16s0,0,0,0c-.23.26-.47.53-.68.81a7.52,7.52,0,0,0-.47.64,11.25,11.25,0,0,0-.7,1.14.41.41,0,0,0-.06.11c-.06.08-.08.17-.13.24s-.07.16-.11.23l-.17.35,0,.12c0,.11-.1.22-.14.33a12.36,12.36,0,0,0-.71,2.48c0,.07,0,.15,0,.22a10.93,10.93,0,0,0-.13,1.15v0c0,.24,0,.46,0,.69a1.09,1.09,0,0,0,0,.18C33.93,360.62,33.94,360.81,34,361Z" transform="translate(-21.53 -284.57)"/><path class="cls-3" d="M50.46,377.06" transform="translate(-21.53 -284.57)"/><path class="cls-3" d="M45.5,367.35a3.65,3.65,0,0,0-4.84,1.58" transform="translate(-21.53 -284.57)"/><rect class="cls-3" x="53.33" y="370.36" width="2.69" height="3.91" rx="1.35" transform="translate(106.18 456.9) rotate(177.16)"/><rect class="cls-3" x="43.08" y="370.87" width="2.69" height="3.91" rx="1.35" transform="translate(85.73 458.42) rotate(177.16)"/><path class="cls-3" d="M50.14,375.1s0,3.38,1.91,4.34-1.11,2.17-1.11,2.17" transform="translate(-21.53 -284.57)"/><path class="cls-3" d="M53.06,367a3.65,3.65,0,0,1,5,1.1" transform="translate(-21.53 -284.57)"/><path class="cls-3" d="M32.5,373.82" transform="translate(-21.53 -284.57)"/><path class="cls-3" d="M62.28,368.61" transform="translate(-21.53 -284.57)"/><path class="cls-3" d="M33.57,367.43" transform="translate(-21.53 -284.57)"/><path class="cls-3" d="M56.65,366.81" transform="translate(-21.53 -284.57)"/><ellipse class="cls-3" cx="55.74" cy="371.52" rx="0.55" ry="0.54" transform="translate(-39.86 -281.36) rotate(-2.84)"/><path class="cls-3" d="M36.47,366" transform="translate(-21.53 -284.57)"/><path class="cls-3" d="M48.44,358.17" transform="translate(-21.53 -284.57)"/><ellipse class="cls-3" cx="45.73" cy="372.02" rx="0.55" ry="0.54" transform="translate(-39.9 -281.85) rotate(-2.84)"/><path class="cls-3" d="M53.54,385.53s-1.46,1-5.3.26" transform="translate(-21.53 -284.57)"/><rect class="cls-3" x="51.89" y="369.41" width="8.98" height="5.23" rx="1.49" transform="translate(109.59 456.24) rotate(177.16)"/><rect class="cls-3" x="39.44" y="370.03" width="8.98" height="5.23" rx="1.49" transform="translate(84.72 458.09) rotate(177.16)"/><path class="cls-3" d="M53.26,369.57l-6.47.32a1.5,1.5,0,0,1,1.54,1l3.49-.18S51.81,369.64,53.26,369.57Z" transform="translate(-21.53 -284.57)"/><path class="cls-3" d="M33.76,368.75l7,1.43a1.74,1.74,0,0,0-1.2.72l-7.27-1.61A1.26,1.26,0,0,1,33.76,368.75Z" transform="translate(-21.53 -284.57)"/><path class="cls-3" d="M30,359.05s0,0,.05-.06a3.28,3.28,0,0,1,.7-.58.05.05,0,0,1,0,0,3.77,3.77,0,0,1-.64-.43,3.05,3.05,0,0,1-.83-1.2l-.08-.29a2.51,2.51,0,0,1-.1-.61,3,3,0,0,1,.8-2.19,3.05,3.05,0,0,1,1.47-.89.77.77,0,0,1,.23-.06,2.51,2.51,0,0,1-.22-.67h0a2.32,2.32,0,0,1-.07-.46,3,3,0,0,1,2.95-3.18,3.12,3.12,0,0,1,1.06.13,3.08,3.08,0,0,1,2.92-2.63,3.59,3.59,0,0,1,.93.11,3.11,3.11,0,0,1,5.54-.15,5.1,5.1,0,0,1,1.75-.42,4.8,4.8,0,0,1,2,.31,3,3,0,0,1,1.73-.63,3.14,3.14,0,0,1,2.39.95,1,1,0,0,1,.94-.7,1.1,1.1,0,0,1,.79.28,3.14,3.14,0,0,1,4,.15,3,3,0,0,1,1,2.1,2.68,2.68,0,0,1,0,.49v0a4,4,0,0,1-.14.6l.19,0h0a4.86,4.86,0,0,1,3.48,1.23,4.76,4.76,0,0,1,1.59,3.31,4.28,4.28,0,0,1,0,.62,4.81,4.81,0,0,1-2.73,3.92,2.63,2.63,0,0,1,.42,1,1.49,1.49,0,0,1,.06.43v.19a2.15,2.15,0,0,1,0,.51v0l-.23.84.32.17a1.63,1.63,0,0,1,.2.17,2.06,2.06,0,0,1,.69,1.44,2.11,2.11,0,0,1-.06.62h0a2.11,2.11,0,0,1-2,1.55,1.94,1.94,0,0,1-.64-.06,2.29,2.29,0,0,1-.9-.47,2.52,2.52,0,0,1-.3-.35,2.4,2.4,0,0,1-.27-.47h0a2.62,2.62,0,0,1-.12-.62v-.15a3.09,3.09,0,0,1-2.71-1.54,1.23,1.23,0,0,1-.14-.25,3.13,3.13,0,0,1-.18-.57v0a1.65,1.65,0,0,1-.07-.32,6.62,6.62,0,0,1-10,1.75.88.88,0,0,1-.12.26,1,1,0,0,1-.74.49s0,0,0,0h-.08a1,1,0,0,1-.81-.33l-.21.23a4.87,4.87,0,0,1-3.28,1.5,5.7,5.7,0,0,1-.83,0h0a4.12,4.12,0,0,1,.28,1.27v.08a4.3,4.3,0,0,1,0,.62h0a4.68,4.68,0,0,1-1.58,3.13,2.73,2.73,0,0,1-.25.2,0,0,0,0,0,0,0,3.06,3.06,0,0,1-2.25,1.86,1,1,0,0,1-.14.35s0,0,0,0a1,1,0,0,1-1.7.06.86.86,0,0,1-.13-.2,1.12,1.12,0,0,1-.09-.37.68.68,0,0,1,0-.15,3.05,3.05,0,0,1-1.34-1.32h0a.54.54,0,0,1-.16-.1l-.11-.06-.37-.3a4.69,4.69,0,0,1-1.51-2.67h0a4.58,4.58,0,0,1-.08-.62,4.28,4.28,0,0,1,.14-1.35,4,4,0,0,1,.34-.95h0a2.89,2.89,0,0,1-.45-.33,3,3,0,0,1-.92-1.47v0a2.5,2.5,0,0,1-.09-.61A3,3,0,0,1,30,359.05Zm26.56-1.47h0s0,0,0,0Z" transform="translate(-21.53 -284.57)"/><path class="cls-3" d="M62.67,353.63a.2.2,0,0,0,.19-.21,3.44,3.44,0,0,0-3.63-3.23.2.2,0,0,0-.19.22.2.2,0,0,0,.21.19,3,3,0,0,1,3.2,2.84A.21.21,0,0,0,62.67,353.63Z" transform="translate(-21.53 -284.57)"/><path class="cls-3" d="M50.31,362.29a3.44,3.44,0,0,0,2.39-1.11.21.21,0,0,0,0-.29.22.22,0,0,0-.29,0,3.1,3.1,0,0,1-4.32.22.2.2,0,0,0-.29,0,.2.2,0,0,0,0,.28A3.46,3.46,0,0,0,50.31,362.29Z" transform="translate(-21.53 -284.57)"/><path class="cls-3" d="M61,364.42a.2.2,0,0,0,.19-.21A.2.2,0,0,0,61,364a1.11,1.11,0,0,1-1.18-1,.19.19,0,0,0-.21-.19.21.21,0,0,0-.2.21A1.54,1.54,0,0,0,61,364.42Z" transform="translate(-21.53 -284.57)"/><path class="cls-3" d="M34.92,369.16a3.42,3.42,0,0,0,3.29-3.56.2.2,0,0,0-.21-.2.22.22,0,0,0-.2.22,3,3,0,0,1-2.9,3.14.2.2,0,1,0,0,.4Z" transform="translate(-21.53 -284.57)"/><path class="cls-3" d="M53.44,395l1.18-.06s2.9.6,3.12,2.36c.27,2.26.48,3.79,3,5,3.06,1.42-.89,2.83-3,2.25a1.67,1.67,0,0,0-2.11,1.37L55,411.47S51.31,401.52,53.44,395Z" transform="translate(-21.53 -284.57)"/><path class="cls-14" d="M92.72,492.35s-9-4.38-12.7-6.45a6.46,6.46,0,0,0-5.45-.2l10,6Z" transform="translate(-21.53 -284.57)"/><path class="cls-14" d="M84.59,491.73l-10-6-.46,5.88a.43.43,0,0,0,.45.46Z" transform="translate(-21.53 -284.57)"/><path class="cls-3" d="M92.72,492.35s-9.13-3.91-12.88-6a6.46,6.46,0,0,0-5.45-.2l10,6Z" transform="translate(-21.53 -284.57)"/><path class="cls-3" d="M87.09,488.29c-2.94-1.38-5.94-3.52-5.34-6.38a.92.92,0,0,0-.84-1.12l-3.53-.24a.9.9,0,0,0-.9,1.23c.9,2.13,3.43,6.27,10,8.18a1,1,0,0,0,.25,0h0A.9.9,0,0,0,87.09,488.29Z" transform="translate(-21.53 -284.57)"/><path class="cls-3" d="M84.41,492.2l-10-6-.46,5.88a.44.44,0,0,0,.45.47Z" transform="translate(-21.53 -284.57)"/><path class="cls-3" d="M84.41,492.2l8.31.15v-.18a5.35,5.35,0,0,0-.07-.7,4.43,4.43,0,0,0-4.07-3.92h-.35l-.22,0a3.85,3.85,0,0,0-1,.28,4.37,4.37,0,0,0-1.9,1.72h0l-.14.25A5.07,5.07,0,0,0,84.41,492.2Z" transform="translate(-21.53 -284.57)"/><path class="cls-3" d="M92.72,492.35l.08.62-19,.26s-.21-1.87.19-2.05c0,0,.09,1.15,10.53.7Z" transform="translate(-21.53 -284.57)"/><path class="cls-15" d="M92.2,481a.3.3,0,0,1-.23-.11,1.84,1.84,0,0,0-2.55-.25.3.3,0,0,1-.42,0,.29.29,0,0,1,0-.42,2.45,2.45,0,0,1,3.39.33.3.3,0,0,1,0,.42A.28.28,0,0,1,92.2,481Z" transform="translate(-21.53 -284.57)"/><path class="cls-15" d="M90.78,489.33a.31.31,0,0,1-.23-.11A1.84,1.84,0,0,0,88,489a.3.3,0,0,1-.42-.05.29.29,0,0,1,0-.41,2.43,2.43,0,0,1,3.38.33.29.29,0,0,1,0,.42A.26.26,0,0,1,90.78,489.33Z" transform="translate(-21.53 -284.57)"/><path class="cls-3" d="M59.45,411.12a6.11,6.11,0,0,1-3.29.67" transform="translate(-21.53 -284.57)"/><line class="cls-3" x1="38.07" y1="141.98" x2="38.06" y2="141.95"/><path class="cls-3" d="M61.12,423.76l.25,3.51a.22.22,0,0,0,.14.19l6.61,2.94.11.05h0l10.41,4.7a.22.22,0,0,0,.29-.1l1.49-2.82h0l1.29-2.49.51-1-17.16-7.84a.21.21,0,0,0-.23,0l-3.65,2.62A.21.21,0,0,0,61.12,423.76Z" transform="translate(-21.53 -284.57)"/><path class="cls-3" d="M42.14,396.76l-7.16.31s-5.5,32.12-5.89,55.47c0,0,12,9.67,13.49,4.11,2.53-9.64-.71-37.41,1.31-48.36C44.82,403.22,42.39,399.17,42.14,396.76Z" transform="translate(-21.53 -284.57)"/><path class="cls-16" d="M52.62,443.93H40.84l-15.05-3.64a1.17,1.17,0,0,0-1.42.9l-.19.85a1.22,1.22,0,0,0,.89,1.46l15.12,3.66.09,0a1.13,1.13,0,0,0,.32.05l12,0a1.07,1.07,0,0,0,1.06-1.09V445A1.08,1.08,0,0,0,52.62,443.93Z" transform="translate(-21.53 -284.57)"/><rect class="cls-17" x="40.62" y="442.46" width="23.96" height="3.69" rx="1.84" transform="translate(83.66 604.02) rotate(-180)"/><path class="cls-3" d="M68.43,446a.77.77,0,0,1,.23.5v.16h0a.8.8,0,0,1-.33.54l-.07,0a.75.75,0,0,1-.45.08,30.48,30.48,0,0,1-7-1.57,18,18,0,0,1-2.14-.9l-.36-.2a3.16,3.16,0,0,1-.45-.37l-.13-.13-.12-.14,0-.05,0,0a3.06,3.06,0,0,1-.53-2.65h0a.05.05,0,0,1,0,0,15.94,15.94,0,0,1,2.84.34l.65.14A16.52,16.52,0,0,1,68.43,446Z" transform="translate(-21.53 -284.57)"/><path class="cls-3" d="M61.15,441.78l.6,0,.36,0,1.73.1,1.37.07c.26,0,.38.26.27.54l0,.06a.77.77,0,0,1-.67.49l-3.37-.19-.41,0h-.37c-.2-.06-.28-.28-.18-.53l0-.06A.76.76,0,0,1,61.15,441.78Z" transform="translate(-21.53 -284.57)"/><path class="cls-3" d="M68.32,447.16l-.07,0c-1.06-1.67-6.88-2.82-6.94-2.84s0,0,0-.05a.05.05,0,0,1,.06,0C61.57,444.33,67.24,445.45,68.32,447.16Z" transform="translate(-21.53 -284.57)"/><path class="cls-3" d="M68.66,446.46c-1.2-1.65-5.06-3.35-5.23-3.42a0,0,0,0,0-.06,0,.06.06,0,0,0,0,.07s4.16,1.82,5.26,3.49h0Z" transform="translate(-21.53 -284.57)"/><path class="cls-3" d="M60.52,441.69a3.19,3.19,0,0,1-.68,1.88,3.14,3.14,0,0,1-.52.51,3,3,0,0,1-1,.54s.08,0,0,0l-.5-.38-.12-.14-.11-.13a.23.23,0,0,1-.07-.1,3.06,3.06,0,0,1-.53-2.65h0a.05.05,0,0,1,0,0,15.94,15.94,0,0,1,2.84.34Z" transform="translate(-21.53 -284.57)"/><path class="cls-3" d="M56.88,446.33c-7.3-4.12-21.09-10.06-24.3-12.57a4.4,4.4,0,0,1-1.52-2.24,3.69,3.69,0,0,1-.16-.88l-1.28-28.4a7.48,7.48,0,0,1,0-.82,4.71,4.71,0,0,1,3.33-4.59c2.11-.43,4.1,1.21,4.52,3.74l1,26.94a1.8,1.8,0,0,0,.88,1.49l20.28,11.65Z" transform="translate(-21.53 -284.57)"/><path class="cls-3" d="M42.07,395.7l-1.19.06s-2.83.88-2.86,2.65c-.05,2.28-.11,3.82-2.52,5.25-2.9,1.72,1.17,2.73,3.19,1.95,1-.37,1.48.26,2.23,1.15L43.17,412S46.48,403.42,42.07,395.7Z" transform="translate(-21.53 -284.57)"/><path class="cls-13" d="M42.75,448.47a265.24,265.24,0,0,0,29.83,4.43,1.7,1.7,0,0,1,.8,1.7c-.09,1.25-3,11.25,2.43,27.61" transform="translate(-21.53 -284.57)"/><path class="cls-18" d="M106.45,415.21H91.74s-3.4,15.83-2.22,28.24c0,.44.1.87.18,1.3,0,0,.27,30.68,1.07,40,.32,3.86,5.16,3.66,5.76-.26,1.26-8.22,3.93-22.1,2.1-36.93-.19-1.53,8.54-10.94,7.82-32.38" transform="translate(-21.53 -284.57)"/><path class="cls-19" d="M104.83,416.52s-3,20.92-7,28.15c0,0,1.56,16.24-3.22,41" transform="translate(-21.53 -284.57)"/><path class="cls-20" d="M118.59,412.88l-14.5,2.48s-.67,16.18,2.58,28.22c.12.42.25.83.4,1.24,0,0,5.45,30.2,7.81,39.28,1,3.75,5.71,2.74,5.64-1.23-.15-8.31.14-22.45-4.17-36.76-.44-1.47,6.58-12.21,2.24-33.23" transform="translate(-21.53 -284.57)"/><path class="cls-19" d="M117.39,414.44s-.3,23.79-2.91,31.57c0,0,5.1,13.08,4.56,38.27" transform="translate(-21.53 -284.57)"/><rect class="cls-21" x="95.4" y="57.93" width="2.12" height="2.08" rx="0.94"/><rect class="cls-21" x="68.97" y="49.87" width="2.12" height="2.08" rx="0.94"/><rect class="cls-22" x="74.13" y="30.67" width="25.35" height="24.84" rx="11.18"/><rect class="cls-21" x="66.86" y="41.36" width="9.74" height="9.55" rx="4.3"/><rect class="cls-21" x="94.21" y="50.91" width="6.21" height="6.08" rx="2.74"/><path class="cls-23" d="M91.45,428.63s9.72-38.85,33.08-7.75l-2.19-30.76-31.93-2.91Z" transform="translate(-21.53 -284.57)"/><path class="cls-24" d="M120.7,341.14a3,3,0,0,1-2.71,3l-.32,0v-5.94l.32,0a3,3,0,0,1,1.81.84l.07.08a.49.49,0,0,1,.12.13,2.67,2.67,0,0,1,.42.65A2.76,2.76,0,0,1,120.7,341.14Z" transform="translate(-21.53 -284.57)"/><polygon class="cls-25" points="63.94 133.91 66.39 133.89 68.72 101.17 69.18 94.62 63.77 94.67 63.8 101.21 63.94 133.91"/><polygon class="cls-25" points="63.8 101.21 68.72 101.17 69.18 94.62 63.77 94.67 63.8 101.21"/><path class="cls-26" d="M83.09,416.29l6.92.54,3.51-50.91h0c-4.55-.35-7.41,2.79-7.92,7.24Z" transform="translate(-21.53 -284.57)"/><path class="cls-27" d="M93.65,365.9s-1.51,3.43-2,14.44c-.08,2-.14,4.31-.13,6.87,0,.18,0,.38,0,.57h0c0,.76,0,1.53,0,2.35v0c.08,5.46.38,12.06,1.05,20a2.35,2.35,0,0,0,0,.26s0,.05,0,.08c0,.53.08,1.05.13,1.6,0,.11,0,.24,0,.36a.11.11,0,0,1,0,.05h23.69v-.06l0-.37,0-1.63v-.06l0-.29.07-1.95,0-1.37,0-.79v0l.26-6.73h0l.48-12.9.25-6.75.5-13.67v0Z" transform="translate(-21.53 -284.57)"/><rect class="cls-28" x="70.21" y="127.95" width="24.72" height="2.69"/><path class="cls-2" d="M111.58,360.35v6.45a4.91,4.91,0,0,1-4.88,4.92h-1.62a4.91,4.91,0,0,1-4.87-4.92v-6.45a4.9,4.9,0,0,1,4.87-4.91h1.62A4.9,4.9,0,0,1,111.58,360.35Z" transform="translate(-21.53 -284.57)"/><path class="cls-29" d="M104,404" transform="translate(-21.53 -284.57)"/><path class="cls-24" d="M118,331.86V350.5l-4.89,10a12.61,12.61,0,0,1-1.53,1.06v2.08a13.4,13.4,0,0,1-11.37,1.06v-2.08h0a13,13,0,0,1-8.65-12.16V331.86c0-.42,0-.83.06-1.24l.06-.47h0a9.77,9.77,0,0,1,.26-1.33,12.54,12.54,0,0,1,2.22-4.64c.12-.16.23-.31.36-.46s.14-.17.23-.26a.37.37,0,0,1,.12-.13,2.52,2.52,0,0,1,.27-.3,2.59,2.59,0,0,1,.37-.37,12.34,12.34,0,0,1,2.25-1.75,1.19,1.19,0,0,1,.15-.09.25.25,0,0,1,.08-.05s0,0,.05,0l.26-.15a14.18,14.18,0,0,1,1.3-.63l.51-.2.1,0c.37-.13.74-.25,1.12-.35a11.93,11.93,0,0,1,1.8-.35h0l.68-.07,1,0H105l.68,0h.45a14.08,14.08,0,0,1,1.47.24h0a11.34,11.34,0,0,1,1.3.36l.78.27h0l.29.11.09,0a9.32,9.32,0,0,1,1.22.62l0,0c.21.11.41.24.61.37a11.43,11.43,0,0,1,1.83,1.41.54.54,0,0,1,.16.14l.17.16,0,0c.25.26.51.51.73.78s.34.4.5.62a11.36,11.36,0,0,1,.76,1.1l.06.12c.06.07.09.15.14.22a2.53,2.53,0,0,1,.12.23,2.74,2.74,0,0,1,.19.34.61.61,0,0,0,0,.12l.15.32a12.32,12.32,0,0,1,.83,2.44l.06.22c.07.38.14.76.18,1.14v0c0,.22,0,.45,0,.67a.58.58,0,0,1,0,.19A5.52,5.52,0,0,1,118,331.86Z" transform="translate(-21.53 -284.57)"/><path class="cls-2" d="M118,329.78V350.5a12.86,12.86,0,0,1-4.89,10,12.61,12.61,0,0,1-1.53,1.06,13.3,13.3,0,0,1-11.37,1.06h0a13,13,0,0,1-8.65-12.16V329.78q0-.61.06-1.23l.06-.48h0a10.41,10.41,0,0,1,.26-1.33,12.54,12.54,0,0,1,2.22-4.64l.36-.46.23-.26a.47.47,0,0,1,.12-.13,2.44,2.44,0,0,1,.27-.29,3.32,3.32,0,0,1,.37-.38,11.87,11.87,0,0,1,2.25-1.74.65.65,0,0,1,.15-.1l.08-.05a.07.07,0,0,1,.05,0,2.2,2.2,0,0,1,.26-.15,12,12,0,0,1,1.3-.63,5.38,5.38,0,0,1,.51-.2l.1-.05a11.1,11.1,0,0,1,1.12-.34,12,12,0,0,1,1.8-.36h0l.68-.06c.32,0,.64,0,1,0H105l.68,0h.45q.75.09,1.47.24h0c.44.1.88.22,1.3.36l.78.27h0l.29.11.09.05a9.26,9.26,0,0,1,1.22.61l0,0c.21.11.41.24.61.37a11.49,11.49,0,0,1,1.83,1.42.43.43,0,0,1,.16.14l.17.15,0,0a10.57,10.57,0,0,1,.73.77c.17.2.34.4.5.63a9.34,9.34,0,0,1,.76,1.1l.06.11c.06.07.09.16.14.23a2.39,2.39,0,0,1,.12.22c.07.11.13.23.19.34a.61.61,0,0,0,0,.12l.15.32a12.32,12.32,0,0,1,.83,2.44l.06.22c.07.38.14.76.18,1.14v0c0,.23,0,.45,0,.68a.58.58,0,0,1,0,.19A5.24,5.24,0,0,1,118,329.78Z" transform="translate(-21.53 -284.57)"/><path class="cls-29" d="M99.3,404" transform="translate(-21.53 -284.57)"/><path class="cls-30" d="M101.44,401.12" transform="translate(-21.53 -284.57)"/><path class="cls-30" d="M98.79,403.72" transform="translate(-21.53 -284.57)"/><path class="cls-31" d="M102.29,346.63" transform="translate(-21.53 -284.57)"/><path class="cls-32" d="M106.77,336.68a3.65,3.65,0,0,1,4.91,1.35" transform="translate(-21.53 -284.57)"/><rect class="cls-33" x="74.98" y="55.57" width="2.69" height="3.91" rx="1.35"/><rect class="cls-34" x="85.24" y="55.57" width="2.69" height="3.91" rx="1.35"/><path class="cls-35" d="M102.52,344.65s.2,3.38-1.7,4.44S102,351.2,102,351.2" transform="translate(-21.53 -284.57)"/><path class="cls-32" d="M99.2,336.68A3.65,3.65,0,0,0,94.29,338" transform="translate(-21.53 -284.57)"/><path class="cls-36" d="M120.08,342.5" transform="translate(-21.53 -284.57)"/><path class="cls-37" d="M90.07,338.77" transform="translate(-21.53 -284.57)"/><path class="cls-37" d="M118.69,336.17" transform="translate(-21.53 -284.57)"/><path class="cls-37" d="M95.61,336.7" transform="translate(-21.53 -284.57)"/><ellipse class="cls-3" cx="75.21" cy="56.79" rx="0.55" ry="0.54"/><path class="cls-37" d="M115.72,334.92" transform="translate(-21.53 -284.57)"/><path class="cls-37" d="M103.38,327.66" transform="translate(-21.53 -284.57)"/><ellipse class="cls-3" cx="85.24" cy="56.79" rx="0.55" ry="0.54"/><path class="cls-38" d="M99.64,355.24s1.51.9,5.31,0" transform="translate(-21.53 -284.57)"/><line class="cls-39" x1="95.14" y1="122.22" x2="95.09" y2="123.58"/><path class="cls-40" d="M111.58,365.9h6.71s5.08,31.07,6.63,54.37c0,0-8.07,12.88-9.8,7.41-3-9.52-2.16-39.35-4.71-50.19C109.23,372.48,111.45,368.31,111.58,365.9Z" transform="translate(-21.53 -284.57)"/><path class="cls-41" d="M92.58,365.9c-1.25,3.24-2.67,32.1-3,62.37a1,1,0,0,0,1.83.36c3.4-8.31,6-38.29,9-51.14,1.18-5-.12-9.18-.25-11.59Z" transform="translate(-21.53 -284.57)"/><path class="cls-42" d="M100.21,364.74H99s-2.87.73-3,2.5c-.16,2.28-.3,3.82-2.78,5.12-3,1.57,1,2.79,3.09,2.1a1.67,1.67,0,0,1,2.17,1.27l1,5.49S102.66,371.1,100.21,364.74Z" transform="translate(-21.53 -284.57)"/><path class="cls-43" d="M90.54,380.34a9.3,9.3,0,0,0,5.18,0" transform="translate(-21.53 -284.57)"/><rect class="cls-44" x="70.11" y="54.71" width="8.98" height="5.23" rx="1.49"/><rect class="cls-44" x="82.58" y="54.71" width="8.98" height="5.23" rx="1.49"/><path class="cls-45" d="M99.13,339.28h6.48a1.53,1.53,0,0,0-1.5,1h-3.49S100.58,339.28,99.13,339.28Z" transform="translate(-21.53 -284.57)"/><path class="cls-45" d="M118.57,337.51l-7,1.77a1.73,1.73,0,0,1,1.24.66l7.18-2A1.24,1.24,0,0,0,118.57,337.51Z" transform="translate(-21.53 -284.57)"/><path class="cls-46" d="M121.82,327.63s0,0,0-.06A3.29,3.29,0,0,0,121,327s0,0,0,0a3.12,3.12,0,0,0,.62-.46,3,3,0,0,0,.77-1.25l.08-.29a3.08,3.08,0,0,0,.06-.61,3,3,0,0,0-.91-2.15,3,3,0,0,0-1.51-.81.56.56,0,0,0-.23-.05,2.62,2.62,0,0,0,.18-.68v0a1.68,1.68,0,0,0,0-.45,3.08,3.08,0,0,0-4.15-2.85,3.08,3.08,0,0,0-3.05-2.49,3.24,3.24,0,0,0-.93.16,3.11,3.11,0,0,0-5.54.12,5.14,5.14,0,0,0-1.76-.33,4.75,4.75,0,0,0-2,.41,3,3,0,0,0-1.75-.54,3.07,3.07,0,0,0-2.34,1.07,1.07,1.07,0,0,0-1-.67,1.11,1.11,0,0,0-.77.33,3.14,3.14,0,0,0-1.76-.55,3.18,3.18,0,0,0-2.2.89,3,3,0,0,0-.91,2.15,2.63,2.63,0,0,0,0,.49v0a2.87,2.87,0,0,0,.17.59h-.21a4.86,4.86,0,0,0-3.42,1.39,4.76,4.76,0,0,0-1.43,3.39,4.32,4.32,0,0,0,.05.62,4.81,4.81,0,0,0,2.92,3.78,2.55,2.55,0,0,0-.37,1.05,2.12,2.12,0,0,0,0,.44v.19a2.16,2.16,0,0,0,.06.51v0l.27.83a1.92,1.92,0,0,0-.31.18,1.09,1.09,0,0,0-.19.18,2,2,0,0,0-.62,1.47,2.11,2.11,0,0,0,.09.62h0a2.13,2.13,0,0,0,2,1.46,2.59,2.59,0,0,0,.63-.1,2.2,2.2,0,0,0,.87-.52,1.43,1.43,0,0,0,.29-.36,2,2,0,0,0,.24-.48h0a2.51,2.51,0,0,0,.09-.62.81.81,0,0,0,0-.15,3,3,0,0,0,2.63-1.67A.91.91,0,0,0,96,331a2.38,2.38,0,0,0,.16-.58v0a1.75,1.75,0,0,0,.05-.33,6.62,6.62,0,0,0,10,1.26,1.19,1.19,0,0,0,.13.25,1,1,0,0,0,.77.45h.1a1.06,1.06,0,0,0,.79-.37,2.39,2.39,0,0,0,.23.22,4.79,4.79,0,0,0,3.35,1.33,4.56,4.56,0,0,0,.82-.08h0a4.19,4.19,0,0,0-.21,1.28v.08a4.21,4.21,0,0,0,0,.62h0a4.71,4.71,0,0,0,1.73,3.05l.26.19h0a3.13,3.13,0,0,0,2.34,1.75.89.89,0,0,0,.16.34.05.05,0,0,0,0,0,1.05,1.05,0,0,0,1.71,0,1.25,1.25,0,0,0,.19-.59.66.66,0,0,0,0-.15,3.08,3.08,0,0,0,1.27-1.38h0a.49.49,0,0,0,.15-.1l.12-.08.35-.32a4.71,4.71,0,0,0,1.38-2.74h0c0-.2,0-.41,0-.62a4.27,4.27,0,0,0-.21-1.34,4,4,0,0,0-.38-.93h0a2.79,2.79,0,0,0,.43-.34,3.05,3.05,0,0,0,.84-1.52h0a2.62,2.62,0,0,0,.07-.62A3,3,0,0,0,121.82,327.63Zm-26.6-.15,0,0h0A0,0,0,0,1,95.22,327.48Z" transform="translate(-21.53 -284.57)"/><path class="cls-47" d="M88.94,323.83a.2.2,0,0,1-.2-.2,3.43,3.43,0,0,1,3.46-3.4.2.2,0,0,1,.21.2.21.21,0,0,1-.21.21,3,3,0,0,0-3,3A.2.2,0,0,1,88.94,323.83Z" transform="translate(-21.53 -284.57)"/><path class="cls-47" d="M101.72,331.87a3.5,3.5,0,0,1-2.45-1,.21.21,0,0,1,.29-.29,3.1,3.1,0,0,0,4.32,0,.21.21,0,0,1,.29.29A3.5,3.5,0,0,1,101.72,331.87Z" transform="translate(-21.53 -284.57)"/><path class="cls-47" d="M91.14,334.53a.2.2,0,0,1-.2-.21.2.2,0,0,1,.2-.2,1.12,1.12,0,0,0,1.13-1.1.2.2,0,0,1,.2-.2.2.2,0,0,1,.21.2A1.53,1.53,0,0,1,91.14,334.53Z" transform="translate(-21.53 -284.57)"/><path class="cls-47" d="M117.43,338a3.44,3.44,0,0,1-3.47-3.4.2.2,0,0,1,.21-.2.2.2,0,0,1,.2.2,3,3,0,0,0,3.06,3,.2.2,0,0,1,0,.4Z" transform="translate(-21.53 -284.57)"/><path class="cls-48" d="M78.58,488.59a1.66,1.66,0,0,1,2.19-.73" transform="translate(-21.53 -284.57)"/><path class="cls-49" d="M76.07,492.11s10.42-5.43,14.78-8a7.65,7.65,0,0,1,6.42-.4l-11.63,7.41Z" transform="translate(-21.53 -284.57)"/><path class="cls-49" d="M85.64,491.13l11.63-7.41.72,6.92a.51.51,0,0,1-.52.56Z" transform="translate(-21.53 -284.57)"/><path class="cls-9" d="M76.07,492.11s10.65-4.88,15-7.44a7.65,7.65,0,0,1,6.42-.4l-11.63,7.42Z" transform="translate(-21.53 -284.57)"/><path class="cls-50" d="M82.58,487.16c3.43-1.72,6.9-4.34,6.11-7.7a1.08,1.08,0,0,1,1-1.34l4.16-.38a1,1,0,0,1,1.1,1.42c-1,2.53-3.86,7.49-11.49,9.95a1,1,0,0,1-.3.05h0A1.05,1.05,0,0,1,82.58,487.16Z" transform="translate(-21.53 -284.57)"/><path class="cls-9" d="M85.87,491.69l11.63-7.42.72,6.92a.51.51,0,0,1-.52.56Z" transform="translate(-21.53 -284.57)"/><path class="cls-51" d="M85.87,491.69l-9.8.42a1.47,1.47,0,0,1,0-.21,4.57,4.57,0,0,1,.05-.83,5.22,5.22,0,0,1,4.68-4.74h.41l.27,0a4.29,4.29,0,0,1,1.17.3,5.06,5.06,0,0,1,2.29,2h0c.06.1.12.19.17.29A6,6,0,0,1,85.87,491.69Z" transform="translate(-21.53 -284.57)"/><path class="cls-52" d="M76.07,492.11l-.08.73,22.41-.26s.19-2.21-.29-2.42c0,0-.07,1.36-12.4,1.16Z" transform="translate(-21.53 -284.57)"/><path class="cls-48" d="M78,489.55a2.93,2.93,0,0,1,3.61-1.91" transform="translate(-21.53 -284.57)"/><path class="cls-52" d="M120.76,493.57h0a2.07,2.07,0,0,0-.09.45v.08l-.1-.53-.09-.51,0-.19,0-.13h0l0-.25h0l-.33-1.82h0l-.2-1.1h0l-.08-.43s.06-.13.15-.36h0c.16-.39.44-1.06.73-1.84s.6-1.66.84-2.45h0a10.49,10.49,0,0,0,.36-1.56s0,0,0,0a2.59,2.59,0,0,0,0-.53l.06.08,1.3,1.81.06.09.38.51h0l.32.45a1.06,1.06,0,0,1,.1.48v0l-.38.9,0,.08v0Z" transform="translate(-21.53 -284.57)"/><path class="cls-9" d="M120.42,492.5h0a2,2,0,0,0,0,.24h0s0,0,0,.06h0a2.17,2.17,0,0,0,0,.26,2.84,2.84,0,0,0,.05.51,3.18,3.18,0,0,0,.1.33l-.16-.34-.25-.5-.28-.59h0L118,488.76h0l0-.06,0-.2c0-.06,0-.12,0-.21s0,0,0,0h0c0-.11,0-.22.06-.36.05-.33.11-.75.18-1.23.39-2.7,1-7.3.8-8.57h0l.13.2.88,1.31,0,0,.08.12,1.7,2.54,1.29,1.93.06.09.19.27a2.44,2.44,0,0,1,.08.85h0a2.71,2.71,0,0,1-.16.75c-.25.68-2.08,3.17-2.76,5.38h0l-.12.42,0,.15A2.66,2.66,0,0,0,120.42,492.5Z" transform="translate(-21.53 -284.57)"/><path class="cls-53" d="M118.93,486.8l0,.11a7.22,7.22,0,0,1-.47,1.19c0,.1-.11.2-.16.31l-.1.17-.12.17h0c-.63.95-1.6,1.73-3,.84L114,489h0a3.37,3.37,0,0,1-.32-.19,1.56,1.56,0,0,1-.44-.31.09.09,0,0,1,0,0,2.81,2.81,0,0,0,0-.63c0-.16,0-.34-.08-.52a55.58,55.58,0,0,0-2.09-7.15,1.6,1.6,0,0,1,0-1.12,1.76,1.76,0,0,1,1.62-1.09h.13l5.51-.06a1.72,1.72,0,0,1,.8.19h0a.61.61,0,0,1,.14.07,1.8,1.8,0,0,1,.75.9h0a1.53,1.53,0,0,1,.11.47s0,0,0,0,0,0,0,0a1.88,1.88,0,0,1,0,.34,34.18,34.18,0,0,1-.25,3.44A13.72,13.72,0,0,1,118.93,486.8Z" transform="translate(-21.53 -284.57)"/><path class="cls-51" d="M120.63,493.08h-.51l-10.69.1h-.12a5.16,5.16,0,0,1,.14-1.31,5.26,5.26,0,0,1,.76-1.79h0a5.55,5.55,0,0,1,3-2.23.37.37,0,0,1,.14,0h0a5.85,5.85,0,0,1,.75-.16l.3,0,.47,0a5.67,5.67,0,0,1,3.08.86l.09.05.12.09c.1.06.18.13.28.2a5.38,5.38,0,0,1,1.57,1.88h0a4.55,4.55,0,0,1,.39.94,0,0,0,0,0,0,0,2.88,2.88,0,0,1,.09.4h0a3.39,3.39,0,0,1,.08.44h0c0,.13,0,.25,0,.38S120.62,493,120.63,493.08Z" transform="translate(-21.53 -284.57)"/><polygon class="cls-52" points="99.11 209.6 87.79 209.71 87.77 208.62 99.1 208.51 99.11 209.6"/><path class="cls-48" d="M111,491.64a2.86,2.86,0,0,1,3.1-2.6" transform="translate(-21.53 -284.57)"/><polygon class="cls-25" points="103.3 134.08 100.85 134 99.38 101.23 99.08 94.67 104.49 94.86 104.29 101.4 103.3 134.08"/><polygon class="cls-25" points="104.29 101.4 99.38 101.23 99.08 94.67 104.49 94.86 104.29 101.4"/><path class="cls-2" d="M125.71,427.9a.79.79,0,0,1-.36.47l-.15.08h0a.87.87,0,0,1-.69,0l-.09-.05a.84.84,0,0,1-.32-.37,32.25,32.25,0,0,1-2.21-7.42,20.61,20.61,0,0,1-.27-2.49,3.38,3.38,0,0,1,0-.45,4.1,4.1,0,0,1,.11-.61l.06-.19a1.34,1.34,0,0,1,.07-.18l0-.08,0,0a3.48,3.48,0,0,1,2.27-1.9h0l0,0a16.38,16.38,0,0,1,1.18,2.85c.07.22.14.44.21.68A17.38,17.38,0,0,1,125.71,427.9Z" transform="translate(-21.53 -284.57)"/><path class="cls-2" d="M123.15,417.12l-.29.78-.16.46-.81,2.23-.65,1.76a.67.67,0,0,1-.83.4l-.07,0a.63.63,0,0,1-.4-.81l1.59-4.35.19-.53.07-.18.06-.18.06-.12a.68.68,0,0,1,.78-.27l.07,0A.65.65,0,0,1,123.15,417.12Z" transform="translate(-21.53 -284.57)"/><path class="cls-54" d="M124.51,428.43l-.08,0c1-1.88-.94-7.95-1-8a.06.06,0,0,1,0-.06,0,0,0,0,1,.06,0C123.64,420.6,125.57,426.51,124.51,428.43Z" transform="translate(-21.53 -284.57)"/><path class="cls-54" d="M125.35,428.37c1-2,.54-6.51.52-6.71,0,0,0-.05-.05,0a0,0,0,0,0,0,.05c0,.05.45,4.87-.57,6.78h0Z" transform="translate(-21.53 -284.57)"/><path class="cls-24" d="M125.62,418.21a3.45,3.45,0,0,1-2.16.36,3.7,3.7,0,0,1-.76-.21,3.43,3.43,0,0,1-1.08-.71l-.09-.09.19-.53.07-.18.06-.18.06-.12a3.48,3.48,0,0,1,2.27-1.9h0l0,0a16.38,16.38,0,0,1,1.18,2.85C125.48,417.75,125.55,418,125.62,418.21Z" transform="translate(-21.53 -284.57)"/><path class="cls-55" d="M127.27,416.53l-6.93.36-2.18-51h0c4.55-.24,7.33,3,7.72,7.44Z" transform="translate(-21.53 -284.57)"/><path class="cls-2" d="M87.63,428.35a.85.85,0,0,0,.48.36l.16,0h0a.88.88,0,0,0,.65-.22s0,0,.07-.06a.78.78,0,0,0,.2-.45,32.11,32.11,0,0,0,0-7.75,21.17,21.17,0,0,0-.44-2.46,3.06,3.06,0,0,0-.13-.43,3.55,3.55,0,0,0-.28-.55l-.1-.17-.12-.16-.06-.06,0,0a3.45,3.45,0,0,0-2.71-1.19h0l0,0a16.64,16.64,0,0,0-.33,3.06c0,.23,0,.47,0,.72A17.4,17.4,0,0,0,87.63,428.35Z" transform="translate(-21.53 -284.57)"/><path class="cls-2" d="M87.07,417.29l.49.67.28.39,1.41,1.91,1.11,1.51a.68.68,0,0,0,.92.15l.06-.05a.62.62,0,0,0,.14-.89l-2.74-3.73-.33-.45-.11-.15-.11-.16-.09-.09a.68.68,0,0,0-.83,0l-.06,0A.63.63,0,0,0,87.07,417.29Z" transform="translate(-21.53 -284.57)"/><path class="cls-54" d="M88.93,428.52s0,0,.07-.06c-1.52-1.51-1.33-7.9-1.32-8a.06.06,0,0,0-.06-.05s0,0-.05.05C87.57,420.76,87.37,427,88.93,428.52Z" transform="translate(-21.53 -284.57)"/><path class="cls-54" d="M88.11,428.71c-1.48-1.66-2.35-6.11-2.38-6.3a0,0,0,0,1,0-.06s0,0,.06,0,.93,4.8,2.44,6.35h0Z" transform="translate(-21.53 -284.57)"/><path class="cls-24" d="M85,419a3.42,3.42,0,0,0,2.84-.68,3.4,3.4,0,0,0,.84-1l.06-.12-.33-.45-.11-.15-.11-.16-.09-.09a3.45,3.45,0,0,0-2.71-1.19h0l0,0a16.64,16.64,0,0,0-.33,3.06C85,418.54,85,418.78,85,419Z" transform="translate(-21.53 -284.57)"/><path class="cls-56" d="M111.6,364.83h1.19s2.87.74,3,2.51c.16,2.28.3,3.81,2.78,5.12,3,1.57-1,2.78-3.09,2.1-1-.32-1.47.33-2.17,1.26l-2,5.33S107.58,372.76,111.6,364.83Z" transform="translate(-21.53 -284.57)"/><polygon class="cls-57" points="68.57 119.15 68.47 132.26 61.56 131.72 62.29 119.15 68.57 119.15"/><polygon class="cls-2" points="37.3 45.06 31.61 43.93 33.48 49.43 35.36 54.92 39.18 50.55 43 46.18 37.3 45.06"/><path class="cls-58" d="M77.89,325.71S62.39,314,57.45,333" transform="translate(-21.53 -284.57)"/><path class="cls-3" d="M65,315.19H62.76v-8.55a7.92,7.92,0,0,1-2.93,1.72V306.3a6.64,6.64,0,0,0,1.93-1.11,4.23,4.23,0,0,0,1.43-1.89H65Z" transform="translate(-21.53 -284.57)"/><rect class="cls-52" x="170.63" y="103.32" width="18.7" height="33.44" rx="1.93"/><rect class="cls-59" x="172.24" y="105.48" width="15.59" height="27.88" rx="1.93"/><rect class="cls-60" x="178.24" y="104.22" width="4.2" height="0.42" rx="0.18"/><rect class="cls-60" x="178.62" y="133.97" width="3.12" height="1.94" rx="0.82"/><path class="cls-61" d="M194.8,392.36a1.39,1.39,0,0,1,1.39-1.39" transform="translate(-21.53 -284.57)"/><rect class="cls-62" x="173.4" y="121.65" width="13.16" height="5.99" rx="1.64"/><rect class="cls-63" x="172.97" y="109.35" width="0.6" height="15.56" rx="0.18"/><path class="cls-15" d="M196.88,409.5l.48-.05a.08.08,0,0,1,.07.05.73.73,0,0,0,.21.39.64.64,0,0,0,.45.14.71.71,0,0,0,.45-.12.4.4,0,0,0,.15-.3.31.31,0,0,0-.06-.19.55.55,0,0,0-.22-.13l-.5-.13a1.71,1.71,0,0,1-.7-.31.8.8,0,0,1-.29-.62.82.82,0,0,1,.14-.44.84.84,0,0,1,.38-.31,1.58,1.58,0,0,1,.61-.11,1.31,1.31,0,0,1,.87.26.86.86,0,0,1,.3.61s0,.07-.06.07l-.5,0a.08.08,0,0,1-.07-.05.48.48,0,0,0-.16-.29.61.61,0,0,0-.39-.1.72.72,0,0,0-.42.11.22.22,0,0,0-.1.19.25.25,0,0,0,.09.19,1.8,1.8,0,0,0,.57.2,3.24,3.24,0,0,1,.67.22.81.81,0,0,1,.34.32.91.91,0,0,1,.12.49,1,1,0,0,1-.14.49.91.91,0,0,1-.42.35,1.84,1.84,0,0,1-.67.11,1.3,1.3,0,0,1-.89-.27,1.14,1.14,0,0,1-.37-.72S196.84,409.5,196.88,409.5Z" transform="translate(-21.53 -284.57)"/><path class="cls-15" d="M200.85,408.34v.34a.06.06,0,0,1-.06.06h-.27a.07.07,0,0,0-.07.07v.83a2,2,0,0,0,0,.32.11.11,0,0,0,.06.07.14.14,0,0,0,.09,0,.64.64,0,0,0,.24-.05l.05.4a.08.08,0,0,1-.05.07,1.07,1.07,0,0,1-.41.07.65.65,0,0,1-.29-.05.41.41,0,0,1-.19-.14.48.48,0,0,1-.08-.23,3.25,3.25,0,0,1,0-.41v-1h-.27v-.47h.27v-.4a.07.07,0,0,1,0-.06l.46-.27a.07.07,0,0,1,.1.06v.61s0,.06.07.06h.27A.07.07,0,0,1,200.85,408.34Z" transform="translate(-21.53 -284.57)"/><path class="cls-15" d="M201.13,409.36a1.15,1.15,0,0,1,.14-.57,1,1,0,0,1,.41-.42,1.2,1.2,0,0,1,.59-.15,1.1,1.1,0,0,1,.83.33,1.22,1.22,0,0,1,0,1.67,1.11,1.11,0,0,1-.82.33,1.22,1.22,0,0,1-.59-.14,1,1,0,0,1-.42-.4A1.33,1.33,0,0,1,201.13,409.36Zm.6,0a.73.73,0,0,0,.16.51.51.51,0,0,0,.39.17.5.5,0,0,0,.38-.17.74.74,0,0,0,.16-.52.72.72,0,0,0-.16-.5.48.48,0,0,0-.38-.18.48.48,0,0,0-.39.18A.73.73,0,0,0,201.73,409.39Z" transform="translate(-21.53 -284.57)"/><path class="cls-15" d="M203.87,408.34a.07.07,0,0,1,.07-.07h.48v.33a.84.84,0,0,1,.29-.27.81.81,0,0,1,.41-.11.86.86,0,0,1,.65.31,1.18,1.18,0,0,1,.28.85,1.25,1.25,0,0,1-.28.86.83.83,0,0,1-.66.31.72.72,0,0,1-.33-.07,1.12,1.12,0,0,1-.32-.25v1.06a.06.06,0,0,1-.06.06h-.46a.07.07,0,0,1-.07-.06Zm.58,1a.87.87,0,0,0,.15.56.46.46,0,0,0,.37.18.44.44,0,0,0,.34-.17.85.85,0,0,0,.14-.54.77.77,0,0,0-.15-.52.44.44,0,0,0-.34-.17.45.45,0,0,0-.36.17A.7.7,0,0,0,204.45,409.35Z" transform="translate(-21.53 -284.57)"/><circle class="cls-64" cx="161.77" cy="136.82" r="48.61"/><rect class="cls-65" x="123.23" y="117.29" width="7.95" height="21.38" rx="3.92"/><path class="cls-66" d="M157,453.53h-3.14a2.93,2.93,0,0,1-.9-.14l-.25-.77h0l-.71-2.34-.63-2-3.77-12.35a.45.45,0,0,1,0-.11,1.24,1.24,0,0,1-.09-.38l-.77-12.7-.12-1.87a1.31,1.31,0,0,1,1.24-1.36l1.37-.08a1.3,1.3,0,0,1,1.39,1.21l.13,2.13.65,10.47v0l.1,1.63,1.28,4.17,2.43,8,.49,1.58.51,1.69.79,2.57A1.35,1.35,0,0,1,157,453.53Z" transform="translate(-21.53 -284.57)"/><path class="cls-67" d="M160.71,412.42v0l-.59,24.91a2.35,2.35,0,0,1-2.63,2l-4.19-.21a2,2,0,0,1-.55-.13,2.31,2.31,0,0,1-1.55-2.42l.17-3.38v-.05l.57-11.55.46-9.41-1.24-9.55-.81-6.25h9.35l.08,1.18.93,14.18A2.66,2.66,0,0,1,160.71,412.42Z" transform="translate(-21.53 -284.57)"/><path class="cls-68" d="M203.48,452.33a3.18,3.18,0,0,1-.06.62,3,3,0,0,1-1.54.56,1.14,1.14,0,0,1-.26,0H153.86a2.93,2.93,0,0,1-.9-.14.15.15,0,0,1-.11,0,4.1,4.1,0,0,1-.14-.73h0v-.28a3.71,3.71,0,0,1,.6-2.06,3.79,3.79,0,0,1,2.36-1.69,3.89,3.89,0,0,1,.9-.11h43.05a3.87,3.87,0,0,1,3.26,1.8A3.8,3.8,0,0,1,203.48,452.33Z" transform="translate(-21.53 -284.57)"/><path class="cls-67" d="M204.74,450.12v.29a3.08,3.08,0,0,1-1.32,2.54,3,3,0,0,1-1.54.56,1.14,1.14,0,0,1-.26,0H153.86a2.93,2.93,0,0,1-.9-.14.15.15,0,0,1-.11,0,3.09,3.09,0,0,1-2.11-2.94v-.29a3.13,3.13,0,0,1,.63-1.88,3.09,3.09,0,0,1,2.49-1.24h47.75l.66.07A3.12,3.12,0,0,1,204.74,450.12Z" transform="translate(-21.53 -284.57)"/><path class="cls-69" d="M168.81,440.43a318.63,318.63,0,0,0,35.88,5.34,1.87,1.87,0,0,1,.67.66,2.09,2.09,0,0,1,.29,1,2.94,2.94,0,0,1,0,.42c0,.33-.21,1.16-.42,2.46" transform="translate(-21.53 -284.57)"/><polygon class="cls-24" points="154.39 146.08 169.4 155.86 170.84 153.59 156.24 142.98 154.39 146.08"/><path class="cls-70" d="M173,415.7" transform="translate(-21.53 -284.57)"/><path class="cls-70" d="M178.59,415.7" transform="translate(-21.53 -284.57)"/><path class="cls-71" d="M176,412.2" transform="translate(-21.53 -284.57)"/><path class="cls-71" d="M179.2,415.33" transform="translate(-21.53 -284.57)"/><line class="cls-39" x1="136.15" y1="134.44" x2="136.21" y2="136.09"/><path class="cls-72" d="M214.77,450.27H205c.05-1,.14-2,.22-2.91,0-.32.07-.63.1-.93.32-3.15.59-5-.36-4.93a158.94,158.94,0,0,1-36.75-2.74,8.48,8.48,0,0,1-.86-.82,7.09,7.09,0,0,1-2-4.41,8.83,8.83,0,0,1,.27-2.78,14.1,14.1,0,0,1,2.09-4.35,2.77,2.77,0,0,1,1.86-1.14,28.12,28.12,0,0,1,4.07-.23l1.5,0h.24l.55,0h.18l1.63.09.81.07h.25l.65.07c1.36.12,2.83.29,4.42.51l.79.12.81.12c.41.06.82.12,1.24.21h0l.88.15h0a147.93,147.93,0,0,1,24,6.44,3,3,0,0,1,1,.57C213.69,434.51,214.27,441.7,214.77,450.27Z" transform="translate(-21.53 -284.57)"/><path class="cls-73" d="M210.62,450.27h-5.88v.14a3.08,3.08,0,0,1-1.32,2.54,3,3,0,0,1-1.54.56,15.29,15.29,0,0,0,.15-3.24c-.08-.46-.27-.69-.61-.68a255.18,255.18,0,0,1-36.59-1.12,8.14,8.14,0,0,1-1.37-1.47,9.3,9.3,0,0,1-1.34-7.36h0a14,14,0,0,1,2.06-5.15,2.71,2.71,0,0,1,1.21-1,2.38,2.38,0,0,1,.63-.18,51.65,51.65,0,0,1,12,.3c1,.12,2,.25,3.08.41h0c2.27.33,4.74.78,7.43,1.35A156,156,0,0,1,208,441a2.87,2.87,0,0,1,.95.57C209.72,442.23,210.23,445.6,210.62,450.27Z" transform="translate(-21.53 -284.57)"/><path class="cls-74" d="M163,417.55" transform="translate(-21.53 -284.57)"/><line class="cls-39" x1="169.02" y1="131.16" x2="169.01" y2="131.13"/><path class="cls-69" d="M207,450.27a6.12,6.12,0,0,0,.13-.79,2,2,0,0,0-1-2l-.52-.05-.39,0-3-.29-.66-.07c-17.22-1.81-31.32-4.89-31.32-4.89" transform="translate(-21.53 -284.57)"/><path class="cls-25" d="M188,425.38a2.81,2.81,0,0,1-.18.69,2.5,2.5,0,0,1-.15.38h0c-.75,1.6-2.58,3.2-5,4.68-1,.63-2.08,1.24-3.23,1.83l-1.4.69a104.89,104.89,0,0,1-10.68,4.29c-2.26.78-4.14,1.36-5.26,1.7h0L161,440l1.53-8.55L164,423.6l.75-4.22a140.77,140.77,0,0,1-4.92-21.77c-.06-.4-.12-.8-.16-1.18h25.55l.08.7s.23,1.22.55,3.16a185.8,185.8,0,0,1,2.34,19.55A30.57,30.57,0,0,1,188,425.38Z" transform="translate(-21.53 -284.57)"/><polygon class="cls-28" points="142.04 139.08 166.66 135.26 166.66 141.42 140.63 146.92 142.04 139.08"/><polygon class="cls-75" points="161.73 134.9 153.41 136.47 152.06 139.93 152.52 142.37 154.94 144.54 163.25 142.97 164.71 140.07 164.25 137.63 161.73 134.9"/><rect class="cls-52" x="177.34" y="419.86" width="5.16" height="9.22" rx="0.53" transform="translate(539.49 -119.53) rotate(78.73)"/><rect class="cls-59" x="177.94" y="420.61" width="4.3" height="7.68" rx="0.53" transform="translate(539.61 -119.71) rotate(78.73)"/><rect class="cls-60" x="183.58" y="423.67" width="1.16" height="0.11" rx="0.05" transform="translate(542.17 -124.29) rotate(78.73)"/><rect class="cls-60" x="175.47" y="425.06" width="0.86" height="0.54" rx="0.23" transform="translate(537.1 -114.9) rotate(78.73)"/><path class="cls-76" d="M182.87,422a.38.38,0,0,1,.45.3" transform="translate(-21.53 -284.57)"/><rect class="cls-62" x="176.86" y="423.9" width="3.63" height="1.65" rx="0.45" transform="translate(538.73 -118.11) rotate(78.73)"/><rect class="cls-63" x="180.26" y="420.36" width="0.17" height="4.29" rx="0.05" transform="translate(537.9 -121.53) rotate(78.73)"/><path class="cls-15" d="M178.35,423.48l0,.13v0a.21.21,0,0,0-.1.08.19.19,0,0,0,0,.13.23.23,0,0,0,.06.12.08.08,0,0,0,.08,0,.05.05,0,0,0,.05,0l0-.06v-.15a.44.44,0,0,1,0-.2.21.21,0,0,1,.15-.11.2.2,0,0,1,.13,0,.28.28,0,0,1,.1.09.34.34,0,0,1,.06.16.31.31,0,0,1,0,.24.23.23,0,0,1-.15.12h0l0-.14v0a.11.11,0,0,0,.07-.06.2.2,0,0,0,0-.11.19.19,0,0,0-.05-.11.06.06,0,0,0-.06,0s0,0,0,0a.89.89,0,0,0,0,.17.84.84,0,0,1,0,.19.19.19,0,0,1-.07.11.23.23,0,0,1-.12.06.32.32,0,0,1-.14,0,.23.23,0,0,1-.12-.1.38.38,0,0,1-.06-.17.32.32,0,0,1,0-.26.3.3,0,0,1,.17-.14Z" transform="translate(-21.53 -284.57)"/><path class="cls-15" d="M178.87,424.5h-.09s0,0,0,0v-.07l0,0-.23,0-.09,0v0s0,0,0,0l0,.07-.1,0h0s0-.07,0-.11v-.08l0-.06.06,0,.11,0,.26-.05v-.07l.12,0,0,.07.11,0h0l.1.11s0,0,0,0l-.16,0,0,0,0,.07Z" transform="translate(-21.53 -284.57)"/><path class="cls-15" d="M178.61,424.62a.49.49,0,0,1,.17,0,.3.3,0,0,1,.13.09.26.26,0,0,1,.07.15.31.31,0,0,1,0,.25.33.33,0,0,1-.21.13.29.29,0,0,1-.24-.05.27.27,0,0,1-.14-.2.29.29,0,0,1,0-.16.19.19,0,0,1,.09-.14A.34.34,0,0,1,178.61,424.62Zm0,.17a.19.19,0,0,0-.13.07.11.11,0,0,0,0,.11.13.13,0,0,0,.07.1.19.19,0,0,0,.15,0,.19.19,0,0,0,.13-.07.14.14,0,0,0,0-.11.17.17,0,0,0-.07-.1A.21.21,0,0,0,178.64,424.79Z" transform="translate(-21.53 -284.57)"/><path class="cls-15" d="M179,425.31l0,0,0,.13H179a.27.27,0,0,1,.08.07.14.14,0,0,1,0,.1.24.24,0,0,1,0,.2.36.36,0,0,1-.22.12.35.35,0,0,1-.25,0,.23.23,0,0,1-.11-.16.17.17,0,0,1,0-.1.19.19,0,0,1,.05-.1l-.29.06h0l0-.13s0,0,0,0Zm-.25.21a.37.37,0,0,0-.14.07.23.23,0,0,0,0,.11.13.13,0,0,0,.07.09.25.25,0,0,0,.15,0,.2.2,0,0,0,.13-.06.11.11,0,0,0,0-.11.12.12,0,0,0-.06-.08A.24.24,0,0,0,178.79,425.52Z" transform="translate(-21.53 -284.57)"/><polygon class="cls-2" points="177.36 138.95 182.34 138.28 179.27 134.3 176.19 130.31 174.28 134.97 172.37 139.62 177.36 138.95"/><path class="cls-77" d="M184.35,432.07s16,5.28,14.73-11.7" transform="translate(-21.53 -284.57)"/><path class="cls-67" d="M150.74,450.27v.14a3.09,3.09,0,0,0,2.11,2.94.15.15,0,0,0,.11,0,2.93,2.93,0,0,0,.9.14h47.76a1.14,1.14,0,0,0,.26,0,3,3,0,0,0,1.54-.56,3.08,3.08,0,0,0,1.32-2.54v-.14Z" transform="translate(-21.53 -284.57)"/><path class="cls-3" d="M183,388v2h-7.5a5.25,5.25,0,0,1,.73-2.14,14.37,14.37,0,0,1,2.41-2.67,15.56,15.56,0,0,0,1.77-1.83,2.31,2.31,0,0,0,.44-1.31,1.53,1.53,0,0,0-.38-1.1,1.46,1.46,0,0,0-1.06-.38,1.42,1.42,0,0,0-1.07.4,2.1,2.1,0,0,0-.46,1.34l-2.13-.21a3.53,3.53,0,0,1,1.2-2.54,4,4,0,0,1,2.51-.77,3.58,3.58,0,0,1,2.59.9,2.91,2.91,0,0,1,.95,2.21,3.83,3.83,0,0,1-.27,1.43,5.83,5.83,0,0,1-.86,1.43,12.5,12.5,0,0,1-1.4,1.42c-.67.62-1.1,1-1.28,1.24a3.6,3.6,0,0,0-.44.59Z" transform="translate(-21.53 -284.57)"/><rect class="cls-52" x="208.12" y="18.6" width="31.87" height="56.97" rx="3.11"/><rect class="cls-59" x="210.77" y="22.33" width="26.57" height="47.5" rx="3.11"/><rect class="cls-60" x="221" y="20.17" width="7.15" height="0.71" rx="0.29"/><rect class="cls-60" x="221.65" y="70.87" width="5.32" height="3.31" rx="1.35"/><path class="cls-63" d="M234.06,311.36a.52.52,0,0,1-.52-.52,2.9,2.9,0,0,1,2.9-2.9.52.52,0,0,1,.52.52.52.52,0,0,1-.52.52,1.86,1.86,0,0,0-1.86,1.86A.52.52,0,0,1,234.06,311.36Z" transform="translate(-21.53 -284.57)"/><rect class="cls-62" x="212.5" y="51.6" width="23.11" height="10.53" rx="2.88"/><path class="cls-15" d="M237.46,341.91l.84-.08a.13.13,0,0,1,.12.09,1.21,1.21,0,0,0,.37.69,1.15,1.15,0,0,0,.79.25,1.26,1.26,0,0,0,.79-.22.68.68,0,0,0,.27-.53.52.52,0,0,0-.11-.32,1,1,0,0,0-.4-.24c-.12,0-.41-.12-.87-.23a3.1,3.1,0,0,1-1.23-.54,1.4,1.4,0,0,1-.5-1.08,1.38,1.38,0,0,1,.24-.78,1.39,1.39,0,0,1,.67-.54,2.61,2.61,0,0,1,1.06-.19,2.36,2.36,0,0,1,1.54.44,1.58,1.58,0,0,1,.53,1.07.12.12,0,0,1-.11.13l-.88,0a.12.12,0,0,1-.11-.09.91.91,0,0,0-.29-.51,1.09,1.09,0,0,0-.69-.18,1.25,1.25,0,0,0-.74.2.38.38,0,0,0-.18.33.42.42,0,0,0,.17.33,2.61,2.61,0,0,0,1,.36,6,6,0,0,1,1.18.39,1.49,1.49,0,0,1,.59.55,1.55,1.55,0,0,1,.22.86,1.61,1.61,0,0,1-.26.87,1.5,1.5,0,0,1-.73.6,3,3,0,0,1-1.17.2,2.38,2.38,0,0,1-1.58-.47,2.06,2.06,0,0,1-.64-1.26A.12.12,0,0,1,237.46,341.91Z" transform="translate(-21.53 -284.57)"/><path class="cls-15" d="M244.44,339.88v.6a.12.12,0,0,1-.12.12h-.48a.11.11,0,0,0-.11.11v1.46a4.64,4.64,0,0,0,0,.56.2.2,0,0,0,.09.13.27.27,0,0,0,.18.05,1.24,1.24,0,0,0,.41-.1l.08.72a.11.11,0,0,1-.07.12,2.17,2.17,0,0,1-.74.12,1.35,1.35,0,0,1-.5-.09.71.71,0,0,1-.33-.24,1,1,0,0,1-.15-.41,5.5,5.5,0,0,1,0-.73v-1.7h-.48v-.83h.48v-.71a.11.11,0,0,1,.06-.1l.81-.47a.11.11,0,0,1,.17.1v1.07a.11.11,0,0,0,.11.11h.48A.11.11,0,0,1,244.44,339.88Z" transform="translate(-21.53 -284.57)"/><path class="cls-15" d="M244.92,341.67a2.12,2.12,0,0,1,.25-1,1.69,1.69,0,0,1,.72-.73,2.14,2.14,0,0,1,1-.26,2,2,0,0,1,1.46.58,2.15,2.15,0,0,1,0,2.93,1.92,1.92,0,0,1-1.44.58,2.32,2.32,0,0,1-1-.24,1.69,1.69,0,0,1-.74-.71A2.41,2.41,0,0,1,244.92,341.67Zm1.06.06a1.32,1.32,0,0,0,.27.89.89.89,0,0,0,.69.31.87.87,0,0,0,.68-.31,1.62,1.62,0,0,0,0-1.79.9.9,0,0,0-.68-.3.92.92,0,0,0-.69.3A1.34,1.34,0,0,0,246,341.73Z" transform="translate(-21.53 -284.57)"/><path class="cls-15" d="M249.74,339.88a.11.11,0,0,1,.11-.11h.85v.57a1.54,1.54,0,0,1,.51-.47,1.35,1.35,0,0,1,.71-.19,1.49,1.49,0,0,1,1.16.54,2.13,2.13,0,0,1,.48,1.48,2.23,2.23,0,0,1-.48,1.53,1.5,1.5,0,0,1-1.16.54,1.25,1.25,0,0,1-.59-.13,1.88,1.88,0,0,1-.56-.44v1.86a.11.11,0,0,1-.11.11h-.81a.11.11,0,0,1-.11-.11Zm1,1.78a1.55,1.55,0,0,0,.26,1,.81.81,0,0,0,.64.31.76.76,0,0,0,.6-.29,1.49,1.49,0,0,0,.24-1,1.43,1.43,0,0,0-.24-.91.78.78,0,0,0-.62-.3.82.82,0,0,0-.63.29A1.37,1.37,0,0,0,250.76,341.66Z" transform="translate(-21.53 -284.57)"/><path class="cls-78" d="M275.16,361.21l-3.07-14.71-1.69-4c-.3-.37-1.25-.28-1.29.2l0,.22a7.58,7.58,0,0,0,.32,3.34l1.44,7.09c-2.32-4.26-5-8.48-5.56-9.3a16.84,16.84,0,0,0-3.28-3.4l-1.73-.62-.28-.1-2-.7c-.65-.22-1.21.12-1.21.64a.52.52,0,0,0,0,.17l0,.11c.3.69,4,13.18,3.12,13.62-.62.32-5.53-11.54-7.69-11.73-.83-.07-1.55.62-1.22,1.34,2.06,4.58,4.56,10.47,7.35,14.79a15.79,15.79,0,0,0-1.91,0c-5.81-2.28-7.63-.68-7.68.75a.93.93,0,0,0,.88,1c4.58.32,13.44,7,14.6,4.71.1-.21.19-.4.27-.6,4.55,1.66,9.3-.2,9.83-1.27a2.13,2.13,0,0,0,0-1.3Z" transform="translate(-21.53 -284.57)"/><polygon class="cls-79" points="233 82.52 262.03 82.52 257.57 68.04 233 82.52"/><path class="cls-54" d="M264.83,351.43a.09.09,0,0,1-.09.09h0a.11.11,0,0,1-.09-.1s.14-3.52-4.66-11.49l.28.1C265,347.93,264.84,351.29,264.83,351.43Z" transform="translate(-21.53 -284.57)"/><rect class="cls-63" x="212.02" y="28.92" width="1.02" height="26.51" rx="0.29"/><circle class="cls-80" cx="233.31" cy="51.4" r="48.14"/><path class="cls-3" d="M272,327l2.05-.24a1.91,1.91,0,0,0,.53,1.19,1.48,1.48,0,0,0,2.14-.08,1.92,1.92,0,0,0,.45-1.34,1.81,1.81,0,0,0-.43-1.27,1.35,1.35,0,0,0-1.05-.46,3.9,3.9,0,0,0-1,.15l.24-1.72a1.9,1.9,0,0,0,1.31-.37,1.35,1.35,0,0,0,.45-1.06,1.18,1.18,0,0,0-.33-.88,1.17,1.17,0,0,0-.88-.34,1.28,1.28,0,0,0-.93.38,1.78,1.78,0,0,0-.47,1.1l-1.95-.33a4.5,4.5,0,0,1,.61-1.6,2.75,2.75,0,0,1,1.15-.94,3.84,3.84,0,0,1,1.65-.35,3.26,3.26,0,0,1,2.5,1,2.57,2.57,0,0,1,.77,1.84A2.6,2.6,0,0,1,277.2,324a2.54,2.54,0,0,1,1.52.91,2.63,2.63,0,0,1,.57,1.71,3.31,3.31,0,0,1-1.06,2.48,3.68,3.68,0,0,1-2.65,1,3.6,3.6,0,0,1-2.48-.86A3.4,3.4,0,0,1,272,327Z" transform="translate(-21.53 -284.57)"/></svg>