<?xml version="1.0" encoding="utf-8"?>
<!-- Generator: Adobe Illustrator 25.2.1, SVG Export Plug-In . SVG Version: 6.00 Build 0)  -->
<svg version="1.1" xmlns="http://www.w3.org/2000/svg" xmlns:xlink="http://www.w3.org/1999/xlink" x="0px" y="0px"
	 viewBox="0 0 328 256" style="enable-background:new 0 0 328 256;" xml:space="preserve">
<style type="text/css">
	.st0{fill:url(#SVGID_1_);}
	.st1{fill:#27AAE1;}
	.st2{fill:#F8B133;}
	.st3{fill:#A2DEF9;}
	.st4{opacity:0.5;fill:#A2DEF9;}
	.st5{fill:#A2DEF9;stroke:#FCEA0D;stroke-width:2.6421;stroke-miterlimit:10;}
	.st6{fill:#A2DEF9;stroke:#F5F5F5;stroke-width:0.4403;stroke-linecap:round;stroke-miterlimit:10;}
	.st7{fill:#A2DEF9;stroke:#DBDDDE;stroke-width:0.8807;stroke-linecap:round;stroke-miterlimit:10;}
	.st8{fill:#A2DEF9;stroke:#260340;stroke-width:0.8807;stroke-linecap:round;stroke-miterlimit:10;}
	.st9{fill:#A2DEF9;stroke:#F8B133;stroke-width:0.8807;stroke-miterlimit:10;}
	.st10{fill:#A2DEF9;stroke:#1D70B7;stroke-width:0.4403;stroke-linecap:round;stroke-miterlimit:10;}
	
		.st11{fill:#A2DEF9;stroke:#A2DEF9;stroke-width:0.2202;stroke-linecap:round;stroke-linejoin:round;stroke-miterlimit:10;stroke-dasharray:2.6421;}
	.st12{fill:#FFFFFF;}
	.st13{fill:url(#SVGID_2_);}
	.st14{fill:url(#SVGID_3_);}
	.st15{fill:url(#SVGID_4_);}
	.st16{fill:url(#SVGID_5_);}
	.st17{fill:url(#SVGID_6_);}
	.st18{fill:url(#SVGID_7_);}
	.st19{fill:none;stroke:#F8B133;stroke-width:2.3527;stroke-linecap:round;stroke-linejoin:round;stroke-miterlimit:10;}
	.st20{fill:#EF4136;}
	.st21{fill:#534741;}
	.st22{fill:#4D4D4D;}
	.st23{fill:url(#SVGID_8_);}
	.st24{fill:#F29100;}
	.st25{fill:#35A8E0;}
	.st26{fill:#E84E1B;}
	.st27{fill:url(#SVGID_9_);}
	.st28{fill:url(#SVGID_10_);}
	.st29{fill:url(#SVGID_11_);}
	.st30{fill:url(#SVGID_12_);}
	.st31{fill:#160031;}
	.st32{fill:none;stroke:#FCEA0D;stroke-width:2.6421;stroke-miterlimit:10;}
	.st33{fill:none;stroke:#F5F5F5;stroke-width:0.4403;stroke-linecap:round;stroke-miterlimit:10;}
	.st34{opacity:0.5;fill:#160031;}
	.st35{fill:#160031;stroke:#DBDDDE;stroke-width:0.8807;stroke-linecap:round;stroke-miterlimit:10;}
	.st36{fill:none;stroke:#DBDDDE;stroke-width:0.8807;stroke-linecap:round;stroke-miterlimit:10;}
	.st37{fill:#1D70B7;stroke:#260340;stroke-width:0.8807;stroke-linecap:round;stroke-miterlimit:10;}
	.st38{fill:none;stroke:#955D61;stroke-width:0.8807;stroke-linecap:round;stroke-miterlimit:10;}
	.st39{fill:url(#SVGID_13_);}
	.st40{fill:url(#SVGID_14_);}
	.st41{fill:none;stroke:#E84E1B;stroke-width:0.4403;stroke-linecap:round;stroke-miterlimit:10;}
	.st42{fill:none;stroke:#F8B133;stroke-width:0.8807;stroke-miterlimit:10;}
	.st43{fill:none;stroke:#1D70B7;stroke-width:0.4403;stroke-linecap:round;stroke-miterlimit:10;}
	.st44{fill:none;stroke:#E84E1B;stroke-width:0.4403;stroke-linecap:round;stroke-linejoin:round;stroke-miterlimit:10;}
	.st45{fill:none;}
	
		.st46{fill:none;stroke:#A2DEF9;stroke-width:0.2202;stroke-linecap:round;stroke-linejoin:round;stroke-miterlimit:10;stroke-dasharray:2.6421;}
	.st47{fill:#260340;}
	.st48{fill:#391763;}
	.st49{fill:url(#SVGID_15_);}
	.st50{fill:#897CBA;}
	.st51{fill:url(#SVGID_16_);}
	.st52{fill:url(#SVGID_17_);}
	.st53{fill:url(#SVGID_18_);}
	.st54{fill:url(#SVGID_19_);}
	.st55{fill:url(#SVGID_20_);}
	.st56{fill:url(#SVGID_21_);}
	.st57{fill:none;stroke:#897CBA;stroke-width:0.4403;stroke-linecap:round;stroke-linejoin:round;stroke-miterlimit:10;}
	.st58{fill:none;stroke:#897CBA;stroke-width:0.4403;stroke-miterlimit:10;}
	.st59{fill:#897CBA;stroke:#897CBA;stroke-width:0.4403;stroke-miterlimit:10;}
	.st60{fill:url(#SVGID_22_);}
	.st61{fill:#F8DCB2;}
	.st62{fill:none;stroke:url(#SVGID_23_);stroke-width:3;stroke-linecap:round;stroke-linejoin:round;stroke-miterlimit:10;}
	.st63{fill:none;stroke:url(#SVGID_24_);stroke-width:3;stroke-linecap:round;stroke-linejoin:round;stroke-miterlimit:10;}
	.st64{fill:url(#SVGID_25_);}
	.st65{fill:url(#SVGID_26_);}
	.st66{fill:url(#SVGID_27_);}
	.st67{fill:url(#SVGID_28_);}
	.st68{fill:url(#SVGID_29_);}
	.st69{fill:url(#SVGID_30_);}
	.st70{fill:url(#SVGID_31_);}
	.st71{fill:url(#SVGID_32_);}
	.st72{fill:url(#SVGID_33_);}
	.st73{fill:url(#SVGID_34_);}
	.st74{fill:none;stroke:#A2DEF9;stroke-width:0.25;stroke-miterlimit:10;stroke-dasharray:2;}
	.st75{fill:url(#SVGID_35_);}
	.st76{fill:url(#SVGID_36_);}
	.st77{fill:url(#SVGID_37_);}
	.st78{fill:url(#SVGID_38_);}
	.st79{fill:url(#SVGID_39_);}
	.st80{fill:url(#SVGID_40_);}
	.st81{fill:url(#SVGID_41_);}
	.st82{fill:url(#SVGID_42_);}
	.st83{fill:url(#SVGID_43_);}
	.st84{fill:url(#SVGID_44_);}
	.st85{fill:url(#SVGID_45_);}
	.st86{fill:#DBDDDE;}
	.st87{fill:none;stroke:#897CBA;stroke-width:0.2846;stroke-linecap:round;stroke-linejoin:round;stroke-miterlimit:10;}
	.st88{fill:url(#SVGID_46_);}
	.st89{fill:url(#SVGID_47_);}
	.st90{fill:url(#SVGID_48_);}
	.st91{fill:url(#SVGID_49_);}
	.st92{fill:url(#SVGID_50_);}
	.st93{fill:url(#SVGID_51_);}
	.st94{fill:url(#SVGID_52_);}
	.st95{fill:url(#SVGID_53_);}
	.st96{fill:url(#SVGID_54_);}
	.st97{fill:url(#SVGID_55_);}
	.st98{fill:url(#SVGID_56_);}
	.st99{fill:url(#SVGID_57_);}
	.st100{fill:url(#SVGID_58_);}
	.st101{fill:url(#SVGID_59_);}
	.st102{fill:url(#SVGID_60_);}
	.st103{fill:none;stroke:#A2DEF9;stroke-width:0.927;stroke-miterlimit:10;}
	.st104{fill:url(#SVGID_61_);}
	.st105{fill:url(#SVGID_62_);}
	.st106{fill:url(#SVGID_63_);}
	
		.st107{fill:none;stroke:#A2DEF9;stroke-width:0.2041;stroke-linecap:round;stroke-linejoin:round;stroke-miterlimit:10;stroke-dasharray:2.4492;}
	.st108{fill:url(#SVGID_64_);}
	.st109{fill:url(#SVGID_65_);}
	.st110{fill:url(#SVGID_66_);}
	.st111{fill:url(#SVGID_67_);}
	.st112{fill:none;stroke:#FCEA0D;stroke-width:2.4492;stroke-miterlimit:10;}
	.st113{fill:none;stroke:#F5F5F5;stroke-width:0.4082;stroke-linecap:round;stroke-miterlimit:10;}
	.st114{fill:#1D70B7;stroke:#260340;stroke-width:0.8164;stroke-linecap:round;stroke-miterlimit:10;}
	.st115{fill:none;stroke:#955D61;stroke-width:0.8164;stroke-linecap:round;stroke-miterlimit:10;}
	.st116{fill:url(#SVGID_68_);}
	.st117{fill:url(#SVGID_69_);}
	.st118{fill:none;stroke:#E84E1B;stroke-width:0.4082;stroke-linecap:round;stroke-miterlimit:10;}
	.st119{fill:none;stroke:#F8B133;stroke-width:0.8164;stroke-miterlimit:10;}
	.st120{fill:none;stroke:#1D70B7;stroke-width:0.4082;stroke-linecap:round;stroke-miterlimit:10;}
	.st121{fill:none;stroke:#E84E1B;stroke-width:0.4082;stroke-linecap:round;stroke-linejoin:round;stroke-miterlimit:10;}
	.st122{fill:url(#SVGID_70_);}
	.st123{fill:url(#SVGID_71_);}
	.st124{fill:url(#SVGID_72_);}
	.st125{fill:none;stroke:#897CBA;stroke-width:0.4082;stroke-linecap:round;stroke-linejoin:round;stroke-miterlimit:10;}
	.st126{fill:none;stroke:#897CBA;stroke-width:0.4082;stroke-miterlimit:10;}
	.st127{fill:#897CBA;stroke:#897CBA;stroke-width:0.4082;stroke-miterlimit:10;}
	.st128{fill:url(#SVGID_73_);}
	.st129{fill:none;stroke:#DBDDDE;stroke-width:0.8164;stroke-linecap:round;stroke-miterlimit:10;}
	.st130{fill:url(#SVGID_74_);}
	.st131{fill:url(#SVGID_75_);}
	.st132{fill:url(#SVGID_76_);}
	.st133{fill:url(#SVGID_77_);}
	.st134{fill:url(#SVGID_78_);}
	.st135{fill:none;stroke:url(#SVGID_79_);stroke-width:2.781;stroke-linecap:round;stroke-linejoin:round;stroke-miterlimit:10;}
	.st136{fill:#F5F5F5;}
	.st137{fill:#2D2E82;}
	.st138{opacity:0.35;fill:none;stroke:#897CBA;stroke-width:0.6447;stroke-linecap:round;stroke-miterlimit:10;}
	.st139{opacity:0.35;fill:#897CBA;}
	.st140{fill:none;stroke:#FBB040;stroke-width:6.594;stroke-miterlimit:10;}
	.st141{fill:url(#SVGID_80_);}
	.st142{fill:url(#SVGID_81_);}
	.st143{fill:#808080;}
	.st144{fill:url(#SVGID_82_);}
	.st145{fill:none;stroke:#A2DEF9;stroke-width:0.2788;stroke-miterlimit:10;stroke-dasharray:2.2306;}
	.st146{fill:none;stroke:#FCEA0D;stroke-width:2.9467;stroke-miterlimit:10;}
	.st147{fill:none;stroke:#F5F5F5;stroke-width:0.4911;stroke-linecap:round;stroke-miterlimit:10;}
	.st148{fill:url(#SVGID_83_);}
	.st149{fill:url(#SVGID_84_);}
	.st150{fill:url(#SVGID_85_);}
	.st151{fill:#F7941D;stroke:#391763;stroke-width:0.734;stroke-miterlimit:10;}
	.st152{opacity:0.35;fill:none;stroke:#897CBA;stroke-width:0.1777;stroke-linecap:round;stroke-miterlimit:10;}
	.st153{fill:none;stroke:url(#SVGID_86_);stroke-width:2.4101;stroke-linecap:round;stroke-linejoin:round;stroke-miterlimit:10;}
	.st154{fill:url(#SVGID_87_);}
	.st155{fill:url(#SVGID_88_);}
	.st156{fill:none;stroke:#FBB040;stroke-width:6.5297;stroke-miterlimit:10;}
	.st157{fill:url(#SVGID_89_);}
	.st158{fill:url(#SVGID_90_);}
	.st159{fill:url(#SVGID_91_);}
	.st160{fill:url(#SVGID_92_);}
	.st161{fill:url(#SVGID_93_);}
	.st162{fill:url(#SVGID_94_);}
	.st163{fill:url(#SVGID_95_);}
	.st164{fill:url(#SVGID_96_);}
	.st165{fill:url(#SVGID_97_);}
	.st166{fill:url(#SVGID_98_);}
	.st167{fill:none;stroke:#F8B133;stroke-width:2;stroke-miterlimit:10;}
	.st168{fill:none;stroke:#A2DEF9;stroke-width:0.75;stroke-miterlimit:10;stroke-dasharray:2;}
	.st169{fill:#FFFFFF;stroke:#FBB040;stroke-width:4.9491;stroke-miterlimit:10;}
	.st170{fill:url(#SVGID_99_);}
	.st171{fill:none;stroke:#E7BEB0;stroke-width:0.4675;stroke-miterlimit:10;}
	.st172{fill:none;stroke:#E7BEB0;stroke-width:0.4063;stroke-miterlimit:10;}
	.st173{fill:none;stroke:#E7BEB0;stroke-width:0.3387;stroke-miterlimit:10;}
	.st174{fill:none;stroke:#E7BEB0;stroke-width:0.2656;stroke-miterlimit:10;}
	.st175{fill:none;stroke:#E7BEB0;stroke-width:0.195;stroke-miterlimit:10;}
	.st176{fill:none;stroke:#E7BEB0;stroke-width:0.1391;stroke-miterlimit:10;}
	.st177{fill:none;stroke:#E7BEB0;stroke-width:9.645370e-02;stroke-miterlimit:10;}
	.st178{fill:none;stroke:#E7BEB0;stroke-width:6.288800e-02;stroke-miterlimit:10;}
	.st179{fill:url(#SVGID_100_);}
	.st180{fill:url(#SVGID_101_);}
	.st181{fill:url(#SVGID_102_);}
	.st182{fill:url(#SVGID_103_);}
	.st183{fill:url(#SVGID_104_);}
	.st184{fill:none;stroke:#E84E1B;stroke-width:0.5;stroke-linecap:round;stroke-linejoin:round;stroke-miterlimit:10;}
	.st185{fill:url(#SVGID_105_);}
	.st186{fill:none;stroke:#35A8E0;stroke-linecap:round;stroke-linejoin:round;stroke-miterlimit:10;}
	.st187{fill:url(#SVGID_106_);}
	.st188{fill:url(#SVGID_107_);}
	.st189{fill:url(#SVGID_108_);}
	.st190{fill:url(#SVGID_109_);}
	.st191{fill:url(#SVGID_110_);}
	.st192{fill:#FFFFFF;stroke:#FBB040;stroke-width:6;stroke-miterlimit:10;}
	.st193{fill:#177466;}
	.st194{fill:url(#SVGID_111_);}
	.st195{fill:url(#SVGID_112_);}
	.st196{fill:url(#SVGID_113_);}
	.st197{fill:none;stroke:#E84E1B;stroke-width:0.2344;stroke-linecap:round;stroke-linejoin:round;stroke-miterlimit:10;}
	.st198{fill:#142A2D;}
	.st199{fill:none;stroke:#00A79D;stroke-width:0.4688;stroke-linecap:round;stroke-miterlimit:10;}
	.st200{fill:url(#SVGID_114_);}
	.st201{fill:url(#SVGID_115_);}
	.st202{fill:#FFFFFF;stroke:#FBB040;stroke-width:7;stroke-miterlimit:10;}
	.st203{fill:url(#SVGID_116_);}
	.st204{fill:#FCEA0D;}
	.st205{fill:url(#SVGID_117_);}
	.st206{fill:#2BB673;}
	.st207{fill:url(#SVGID_118_);}
	.st208{fill:url(#SVGID_119_);}
	.st209{fill:url(#SVGID_120_);}
	.st210{fill:none;stroke:#E84E1B;stroke-width:0.846;stroke-linecap:round;stroke-linejoin:round;stroke-miterlimit:10;}
	.st211{fill:url(#SVGID_121_);}
	.st212{fill:url(#SVGID_122_);}
	.st213{fill:url(#SVGID_123_);}
	.st214{fill:url(#SVGID_124_);}
	.st215{fill:url(#SVGID_125_);}
	.st216{fill:url(#SVGID_126_);}
	.st217{fill:none;stroke:#897CBA;stroke-width:1.1695;stroke-miterlimit:10;}
	.st218{fill:#897CBA;stroke:#897CBA;stroke-width:1.1695;stroke-miterlimit:10;}
	.st219{fill:#897CBA;stroke:#897CBA;stroke-width:0.7797;stroke-miterlimit:10;}
	.st220{fill:url(#SVGID_127_);}
	.st221{fill:url(#SVGID_128_);}
	.st222{fill:#FFFFFF;stroke:#FBB040;stroke-width:7.4248;stroke-miterlimit:10;}
	.st223{fill:url(#SVGID_129_);}
	.st224{fill:url(#SVGID_130_);}
	.st225{fill:url(#SVGID_131_);}
	.st226{fill:none;stroke:#E84E1B;stroke-width:0.684;stroke-linecap:round;stroke-linejoin:round;stroke-miterlimit:10;}
	.st227{fill:url(#SVGID_132_);}
	.st228{fill:url(#SVGID_133_);}
	.st229{fill:url(#SVGID_134_);}
	.st230{fill:url(#SVGID_135_);}
	.st231{fill:url(#SVGID_136_);}
	.st232{fill:url(#SVGID_137_);}
	.st233{fill:none;stroke:#897CBA;stroke-width:0.9456;stroke-miterlimit:10;}
	.st234{fill:#897CBA;stroke:#897CBA;stroke-width:0.9456;stroke-miterlimit:10;}
	.st235{fill:#897CBA;stroke:#897CBA;stroke-width:0.6304;stroke-miterlimit:10;}
	.st236{fill:url(#SVGID_138_);}
	.st237{fill:url(#SVGID_139_);}
	.st238{fill:url(#SVGID_140_);}
	.st239{fill:url(#SVGID_141_);}
	.st240{fill:none;stroke:#A2DEF9;stroke-width:0.315;stroke-miterlimit:10;stroke-dasharray:2.5204;}
	.st241{fill:none;stroke:#FCEA0D;stroke-width:3.3295;stroke-miterlimit:10;}
	.st242{fill:none;stroke:#F5F5F5;stroke-width:0.5549;stroke-linecap:round;stroke-miterlimit:10;}
	.st243{fill:url(#SVGID_142_);}
	.st244{fill:url(#SVGID_143_);}
	.st245{fill:url(#SVGID_144_);}
	.st246{fill:#F7941D;stroke:#391763;stroke-width:0.8293;stroke-miterlimit:10;}
	.st247{opacity:0.35;fill:none;stroke:#897CBA;stroke-width:0.7407;stroke-linecap:round;stroke-miterlimit:10;}
	.st248{opacity:0.35;fill:none;stroke:#897CBA;stroke-width:0.2028;stroke-linecap:round;stroke-miterlimit:10;}
	.st249{fill:none;stroke:url(#SVGID_145_);stroke-width:2.7232;stroke-linecap:round;stroke-linejoin:round;stroke-miterlimit:10;}
	.st250{fill:#FFFFFF;stroke:#FBB040;stroke-width:7.3021;stroke-miterlimit:10;}
	.st251{fill:url(#SVGID_146_);}
	.st252{fill:url(#SVGID_147_);}
	.st253{fill:url(#SVGID_148_);}
	.st254{fill:url(#SVGID_149_);}
	.st255{fill:url(#SVGID_150_);}
	.st256{fill:url(#SVGID_151_);}
	.st257{opacity:0.35;fill:none;stroke:#897CBA;stroke-width:1.1505;stroke-linecap:round;stroke-miterlimit:10;}
	.st258{fill:url(#SVGID_152_);}
	.st259{fill:url(#SVGID_153_);}
	.st260{fill:none;stroke:url(#SVGID_154_);stroke-width:2.3989;stroke-linecap:round;stroke-linejoin:round;stroke-miterlimit:10;}
</style>
<g id="TUG_test_uitvoering">
</g>
<g id="stop_knop_close_up">
</g>
<g id="Afmetingen_stoel">
</g>
<g id="Hulpmiddelen">
	<linearGradient id="SVGID_1_" gradientUnits="userSpaceOnUse" x1="166.6789" y1="10.0434" x2="166.6789" y2="243.349">
		<stop  offset="0" style="stop-color:#65C8D0"/>
		<stop  offset="0.1604" style="stop-color:#64C4CE"/>
		<stop  offset="0.3219" style="stop-color:#5FB8C8"/>
		<stop  offset="0.4839" style="stop-color:#58A4BE"/>
		<stop  offset="0.6465" style="stop-color:#4D87AF"/>
		<stop  offset="0.8094" style="stop-color:#40639D"/>
		<stop  offset="0.9705" style="stop-color:#303787"/>
		<stop  offset="1" style="stop-color:#2D2E82"/>
	</linearGradient>
	<circle class="st0" cx="166.7" cy="126.7" r="116.7"/>
	<circle class="st192" cx="164" cy="54.5" r="39.1"/>
	<g>
		<g>
			<circle class="st12" cx="74.4" cy="115.1" r="36.6"/>
			<g>
				<path class="st193" d="M79.9,135.3H68.5c-4.8,0-8.7-3.9-8.7-8.7v-29c0-6.7,5.4-12.1,12.1-12.1h4.2c6.9,0,12.4,5.6,12.4,12.4
					v28.7C88.5,131.4,84.6,135.3,79.9,135.3z"/>
				<path class="st193" d="M81.4,135.3H65.7c-4.8,0-8.7-3.9-8.7-8.7l2.5-29c0-6.7,5.4-12.1,12.1-12.1h4.2c6.9,0,12.4,5.6,12.4,12.4
					l1.9,28.7C90,131.4,86.2,135.3,81.4,135.3z"/>
				<path class="st61" d="M93.1,130.4v7.6H54.4v-7.6c0-1.6,1.3-2.8,2.8-2.8h33.1C91.9,127.6,93.1,128.8,93.1,130.4z"/>
				<path class="st24" d="M78.3,121v5.7c0,2.4-2,4.4-4.4,4.4s-4.4-2-4.4-4.4v-5.5c0-0.9,0.7-1.6,1.6-1.6h5.7
					C77.7,119.6,78.3,120.3,78.3,121z"/>
				<path class="st26" d="M86.2,101.8v10.5c0,5.3-3.3,9.8-8,11.5v1.1c-1.3,0.5-2.8,0.8-4.3,0.8s-3-0.3-4.3-0.8v-1.1
					c-4.7-1.8-8-6.3-8-11.5v-10.5c0-6.8,5.5-12.3,12.3-12.3c3.4,0,6.5,1.4,8.7,3.6C84.8,95.3,86.2,98.4,86.2,101.8z"/>
				<linearGradient id="SVGID_2_" gradientUnits="userSpaceOnUse" x1="73.9067" y1="125.6801" x2="73.9067" y2="86.9501">
					<stop  offset="0" style="stop-color:#F8B133"/>
					<stop  offset="0.2151" style="stop-color:#F7AE32"/>
					<stop  offset="0.3826" style="stop-color:#F6A430"/>
					<stop  offset="0.5341" style="stop-color:#F3942C"/>
					<stop  offset="0.6761" style="stop-color:#EF7C26"/>
					<stop  offset="0.8103" style="stop-color:#EB5E1F"/>
					<stop  offset="0.8718" style="stop-color:#E84E1B"/>
				</linearGradient>
				<path class="st13" d="M86.4,100.1v12.4c0,5.6-3.4,10.4-8.1,12.3c-1.4,0.5-2.8,0.8-4.4,0.8s-3-0.3-4.4-0.8
					c-4.7-1.9-8.1-6.7-8.1-12.3v-12.4C61.4,92.9,67,87,73.9,87c3.4,0,6.6,1.5,8.8,3.9C85,93.2,86.4,96.5,86.4,100.1z"/>
				<linearGradient id="SVGID_3_" gradientUnits="userSpaceOnUse" x1="89.6073" y1="105.5358" x2="86.382" y2="105.5358">
					<stop  offset="4.358974e-02" style="stop-color:#F29100"/>
					<stop  offset="0.4307" style="stop-color:#F28F01"/>
					<stop  offset="0.6181" style="stop-color:#F18704"/>
					<stop  offset="0.7627" style="stop-color:#EF7A09"/>
					<stop  offset="0.8844" style="stop-color:#EC6811"/>
					<stop  offset="0.9921" style="stop-color:#E8501A"/>
					<stop  offset="1" style="stop-color:#E84E1B"/>
				</linearGradient>
				<path class="st14" d="M89.6,105.5c0,1.8-1.4,3.2-3.2,3.2v-6.4C88.2,102.3,89.6,103.8,89.6,105.5z"/>
				<linearGradient id="SVGID_4_" gradientUnits="userSpaceOnUse" x1="58.2062" y1="105.5358" x2="61.4315" y2="105.5358">
					<stop  offset="4.358974e-02" style="stop-color:#F29100"/>
					<stop  offset="0.4307" style="stop-color:#F28F01"/>
					<stop  offset="0.6181" style="stop-color:#F18704"/>
					<stop  offset="0.7627" style="stop-color:#EF7A09"/>
					<stop  offset="0.8844" style="stop-color:#EC6811"/>
					<stop  offset="0.9921" style="stop-color:#E8501A"/>
					<stop  offset="1" style="stop-color:#E84E1B"/>
				</linearGradient>
				<path class="st15" d="M58.2,105.5c0,1.8,1.4,3.2,3.2,3.2v-6.4C59.6,102.3,58.2,103.8,58.2,105.5z"/>
				<path class="st197" d="M73.5,109.2l0.1,2.5c0,0.6,0.3,1,0.7,1.1c0.4,0.2,0.7,0.8-0.6,2.8c0,0-0.1,0.2,0,0.3"/>
				<path class="st198" d="M69.5,127.6c0,0-0.5,2.9-2,6c0,0,0,0,0,0c-0.8,1.5-1.8,3.1-3.2,4.4h-9.8v-7.6c0,0-0.5-2.1,2.4-2.9
					c1.7-0.4,5.8-0.3,8.8-0.2C67.9,127.4,69.5,127.6,69.5,127.6z"/>
				<path class="st198" d="M93.1,130.5v7.5h-9.8c-4-3.7-5-10-5.1-10.5c0,0,0,0,0,0c0,0,0,0,0,0s0,0,0,0c0.2,0,1.7-0.1,3.7-0.2
					c3-0.1,7.1-0.2,8.8,0.2C93.6,128.2,93.1,130.5,93.1,130.5z"/>
				<path class="st193" d="M65.2,105.3c-0.1,0-0.2,0-0.2-0.1c-0.2-0.1-0.2-0.3-0.1-0.5c1.4-1.7,3.8-2,5.5-0.6
					c0.2,0.1,0.2,0.3,0.1,0.5c-0.1,0.2-0.3,0.2-0.5,0.1c-1.4-1.1-3.4-0.9-4.5,0.5C65.5,105.2,65.3,105.3,65.2,105.3z"/>
				<path class="st193" d="M82.8,105.1c-0.1,0-0.2,0-0.3-0.1c-1.2-1.3-3.2-1.4-4.6-0.2c-0.1,0.1-0.4,0.1-0.5,0
					c-0.1-0.1-0.1-0.4,0-0.5c1.6-1.5,4.1-1.4,5.6,0.2c0.1,0.1,0.1,0.4,0,0.5C83,105.1,82.9,105.1,82.8,105.1z"/>
				<ellipse class="st61" cx="60.4" cy="110.3" rx="0.5" ry="2.7"/>
				<ellipse class="st61" cx="87.5" cy="110.3" rx="0.5" ry="2.7"/>
				<path class="st193" d="M78.2,92.1c0,0-7.9,16.1-17.6,11.8c-6.3-2.8-0.8-20.9,11.6-21.2c19.9-0.5,16.3,20.4,16.3,20.4
					S79.1,107.8,78.2,92.1z"/>
				<path class="st199" d="M75.8,93.6c0,0-6.6,11.2-12.7,9.7"/>
				<path class="st199" d="M80.4,98.7c0,0,2.4,4.6,5.2,4.1"/>
				<path class="st199" d="M60.4,102.3c0,0-2.3-2.2-1.1-5.6"/>
				<g>
					
						<linearGradient id="SVGID_5_" gradientUnits="userSpaceOnUse" x1="60.6497" y1="106.4381" x2="60.6497" y2="109.9594" gradientTransform="matrix(1 0 0 1 7.2538 0)">
						<stop  offset="0" style="stop-color:#2D2E82"/>
						<stop  offset="0.1255" style="stop-color:#212A71"/>
						<stop  offset="0.3256" style="stop-color:#12265B"/>
						<stop  offset="0.5201" style="stop-color:#09234E"/>
						<stop  offset="0.7013" style="stop-color:#06224A"/>
					</linearGradient>
					<path class="st16" d="M68,110h-0.2c-0.6,0-1.1-0.5-1.1-1.1v-1.3c0-0.6,0.5-1.1,1.1-1.1H68c0.6,0,1.1,0.5,1.1,1.1v1.3
						C69.1,109.5,68.6,110,68,110z"/>
					<ellipse class="st3" cx="66.9" cy="108.8" rx="0.5" ry="0.5"/>
				</g>
				<g>
					
						<linearGradient id="SVGID_6_" gradientUnits="userSpaceOnUse" x1="72.8595" y1="106.4381" x2="72.8595" y2="109.9594" gradientTransform="matrix(1 0 0 1 7.2538 0)">
						<stop  offset="0" style="stop-color:#2D2E82"/>
						<stop  offset="0.1255" style="stop-color:#212A71"/>
						<stop  offset="0.3256" style="stop-color:#12265B"/>
						<stop  offset="0.5201" style="stop-color:#09234E"/>
						<stop  offset="0.7013" style="stop-color:#06224A"/>
					</linearGradient>
					<path class="st17" d="M80.2,110H80c-0.6,0-1.1-0.5-1.1-1.1v-1.3c0-0.6,0.5-1.1,1.1-1.1h0.2c0.6,0,1.1,0.5,1.1,1.1v1.3
						C81.3,109.5,80.8,110,80.2,110z"/>
					<ellipse class="st3" cx="79.1" cy="108.8" rx="0.5" ry="0.5"/>
				</g>
				<g>
					<path class="st24" d="M73.7,119.4h2.7c0,0,0,0,0,0c0,0,0,0,0,0c0,0,0,0,0,0c0-0.7-0.6-1.3-1.3-1.3c-0.5,0-0.9,0.3-1.1,0.6
						C73.8,118.9,73.7,119.1,73.7,119.4C73.7,119.3,73.7,119.3,73.7,119.4z"/>
					<path class="st24" d="M71.4,119.4L71.4,119.4l2.7,0c0,0,0,0,0-0.1c0-0.2-0.1-0.4-0.2-0.6c-0.2-0.4-0.7-0.6-1.1-0.6
						C72.1,118,71.5,118.6,71.4,119.4C71.4,119.3,71.4,119.3,71.4,119.4z"/>
					<path class="st24" d="M71.4,119.3L71.4,119.3C71.4,119.4,71.4,119.4,71.4,119.3c0,0.1,0,0.1,0,0.1c0.1,1.1,1.1,2.1,2.5,2.1
						c1.3,0,2.4-0.9,2.5-2.1c0,0,0,0,0,0c0,0,0,0,0,0v0H71.4z"/>
				</g>
				<path class="st26" d="M71.4,119.4L71.4,119.4L71.4,119.4C71.4,119.4,71.4,119.4,71.4,119.4c0.9,0.5,1.8,0.7,2.5,0.7
					c1.2,0,2.1-0.4,2.5-0.6c0,0,0,0,0,0c0,0,0,0,0,0v0c0,0,0,0,0,0c0,0,0,0-0.1,0C75.8,119.7,73.9,120.5,71.4,119.4
					C71.5,119.4,71.4,119.4,71.4,119.4z"/>
			</g>
			<path class="st20" d="M95,78.2c-20.4-11.4-46.1-4.1-57.5,16.3c-11.4,20.4-4.1,46.1,16.3,57.5c20.4,11.4,46.1,4.1,57.5-16.3
				C122.7,115.3,115.4,89.6,95,78.2z M42.4,97.2c9.9-17.7,32.2-24,49.9-14.1c7.9,4.4,13.6,11.4,16.5,19.3l-70.3,19.9
				C36.8,114.1,38,105.2,42.4,97.2z M56.6,147.1c-7.9-4.4-13.6-11.4-16.5-19.3l70.3-19.9c1.7,8.3,0.5,17.2-3.9,25.1
				C96.6,150.6,74.2,157,56.6,147.1z"/>
		</g>
		<g>
			<path class="st198" d="M83.6,151.5l-2.9,3.1c-2,2.1-5.1,2.1-7,0.1l-18-13.7c-1.8-1.9-1.7-5,0.2-7h0c1.9-2,4.8-2.1,6.7-0.3
				l20.9,10.6C85.5,146.1,85.6,149.4,83.6,151.5z"/>
		</g>
		<g>
			<g>
				<g>
					<g>
						<path class="st2" d="M93.5,160.1c0.4,0,0.7-0.1,0.9-0.3l0.2-0.2l0,0l0,0c0.2-0.3,0.4-0.6,0.3-1c0-0.1,0-0.1,0-0.2
							c0-0.2-0.2-0.5-0.4-0.7c-2.1-2-5.6-5-9.8-7.4c-1.1-0.6-2.3-1.3-3.5-1.8c-0.2-0.1-0.4-0.2-0.7-0.2c-0.3-0.1-0.6-0.1-1-0.2
							c-0.1,0-0.2,0-0.3,0c-0.1,0-0.2,0-0.3,0c0,0-0.1,0-0.1,0c0,0,0,0-0.1,0c-1.6,0.1-3.1,0.9-4,2.2c0,0,0,0,0,0c0,0,0,0,0,0.1
							c0.2,0.3,1.5,1.7,3.6,3.3c0.3,0.2,0.6,0.5,0.9,0.7C82.5,156.9,87.5,159.6,93.5,160.1z"/>
						<path class="st2" d="M79,150.3l1.3,0l0.8,0l3.7,0.1l3,0.1c0.6,0,1-0.4,1-1l0-0.1c0-0.6-0.4-1-1-1l-7.3-0.1l-0.9,0l-0.3,0
							l-0.3,0c-0.1,0-0.1,0-0.2,0c-0.5,0.1-0.8,0.5-0.8,1l0,0.1C78,149.8,78.4,150.3,79,150.3z"/>
					</g>
					<path class="st26" d="M95,158.6c0-0.1,0-0.1,0-0.2c-3.3,0.5-11.2-5.8-11.3-5.9c0,0-0.1,0-0.1,0c0,0,0,0.1,0,0.1
						C83.9,152.9,91.6,159.1,95,158.6z"/>
					<path class="st26" d="M94.4,159.8c-3.5,0.3-9.9-2.9-10.2-3c0,0-0.1-0.1,0-0.1c0,0,0.1-0.1,0.1,0c0.1,0,6.9,3.4,10.3,3l0,0
						L94.4,159.8z"/>
				</g>
			</g>
			<path class="st24" d="M79.3,154.5c0.8-0.7,1.5-1.8,1.7-2.9c0.1-0.4,0.1-0.8,0.1-1.2c0-0.7-0.2-1.4-0.5-2c0-0.1-0.1-0.1-0.1-0.2
				l-0.9,0l-0.3,0l-0.3,0c-0.1,0-0.1,0-0.2,0c-1.6,0.1-3.1,0.9-4,2.2c0,0,0,0,0,0c0,0,0,0,0,0.1c0.2,0.3,1.5,1.7,3.6,3.3
				C78.7,154,79,154.2,79.3,154.5z"/>
		</g>
	</g>
	<g>
		<g>
			<circle class="st202" cx="256.2" cy="115.1" r="36.6"/>
		</g>
	</g>
	<g>
		<g>
			<path class="st2" d="M281.4,126.5c0,0-23.8-10-33.6-15.4c-7-3.8-14.2-0.4-14.2-0.4l26.1,15.6L281.4,126.5z"/>
			
				<linearGradient id="SVGID_7_" gradientUnits="userSpaceOnUse" x1="-301.8354" y1="-64.6704" x2="-267.2112" y2="-64.6704" gradientTransform="matrix(-0.9363 -0.3511 -0.3511 0.9363 -35.1538 67.5605)">
				<stop  offset="0" style="stop-color:#E84E1B"/>
				<stop  offset="0.3601" style="stop-color:#EF7725"/>
				<stop  offset="0.7831" style="stop-color:#F5A12F"/>
				<stop  offset="1" style="stop-color:#F8B133"/>
			</linearGradient>
			<path class="st18" d="M266.7,115.9c-7.7-3.6-15.5-9.1-13.9-16.7c0.3-1.5-0.7-2.9-2.2-2.9l-9.2-0.5c-1.8-0.1-3,1.7-2.3,3.3
				c2.3,5.6,8.9,16.5,25.9,21.3c0.2,0.1,0.4,0.1,0.7,0.1h0C268.2,120.5,269.1,117,266.7,115.9z"/>
			<path class="st2" d="M259.7,126.4l-26.1-15.6l-1.2,15.6c-0.1,0.7,0.5,1.2,1.2,1.2L259.7,126.4z"/>
			<g>
				<path class="st204" d="M259.7,126.4l21.7,0.1c0-0.2,0-0.3,0-0.5c0-0.6-0.1-1.2-0.2-1.9c-0.9-5.8-5.3-10.2-10.6-10.2
					c-0.3,0-0.6,0-0.9,0c-0.2,0-0.4,0-0.6,0.1c-0.9,0.1-1.8,0.4-2.6,0.8c-2,0.9-3.7,2.6-5,4.6c0,0,0,0,0,0c-0.1,0.2-0.2,0.4-0.4,0.7
					C260.3,122,259.7,124.1,259.7,126.4z"/>
			</g>
			<path class="st48" d="M281.4,126.5l0.2,1.6l-49.5,1.3c0,0-0.5-5,0.5-5.4c0,0,0.2,3,27.4,1.5L281.4,126.5z"/>
		</g>
		<path class="st86" d="M276,118.4c-0.1,0-0.2-0.1-0.3-0.3c-0.8-1.7-2.7-2.4-4.4-1.7c-0.3,0.1-0.6,0-0.7-0.3c-0.1-0.3,0-0.6,0.3-0.7
			c2.2-1,4.8,0,5.8,2.2c0.1,0.3,0,0.6-0.3,0.7C276.3,118.4,276.1,118.4,276,118.4z"/>
	</g>
	<g>
		<linearGradient id="SVGID_8_" gradientUnits="userSpaceOnUse" x1="163.3592" y1="81.049" x2="163.2559" y2="34.4847">
			<stop  offset="0" style="stop-color:#35A8E0"/>
			<stop  offset="0.1638" style="stop-color:#35A3DC"/>
			<stop  offset="0.3501" style="stop-color:#3496D2"/>
			<stop  offset="0.5474" style="stop-color:#327FC0"/>
			<stop  offset="0.7524" style="stop-color:#305FA8"/>
			<stop  offset="0.9613" style="stop-color:#2E3688"/>
			<stop  offset="1" style="stop-color:#2D2E82"/>
		</linearGradient>
		<path class="st23" d="M167.9,34.5c-0.6,0.1-1.5,0.2-2.8-0.2c-2.2-0.7-5.1-0.6-6.4,1.1c-1.3,1.7-0.6,2.6-0.3,2.7
			c0.3,0.1,1.3,0.3,2.1-1s5.2,0,5.2,0v43.3c0,0.8,0.6,1.4,1.4,1.4c0.8,0,1.4-0.6,1.4-1.4V37.1v-2.2
			C168.5,34.6,168.3,34.4,167.9,34.5z"/>
		<path class="st137" d="M168.7,82.6h-3.1c-0.4,0-0.7-0.4-0.6-0.8l0.5-1.6c0.1-0.2,0.3-0.4,0.6-0.4h2c0.2,0,0.5,0.2,0.5,0.4l0.6,1.6
			C169.4,82.2,169.1,82.6,168.7,82.6z"/>
	</g>
	<g>
		<g>
			<g>
				<g>
					<path class="st2" d="M163.8,34.5c0.2,0.2,0.2,0.4,0.2,0.5l0,0.2l0,0l0,0c0,0.2-0.2,0.4-0.4,0.6c0,0-0.1,0-0.1,0.1
						c-0.1,0.1-0.3,0.1-0.5,0.1c-1.8-0.2-4.7-0.6-7.6-1.7c-0.8-0.3-1.6-0.6-2.3-1c-0.1-0.1-0.3-0.1-0.4-0.2
						c-0.2-0.1-0.3-0.2-0.5-0.4c0,0-0.1-0.1-0.1-0.1c0,0-0.1-0.1-0.1-0.2c0,0,0,0,0-0.1c0,0,0,0,0,0c-0.6-0.8-0.8-1.8-0.6-2.9
						c0,0,0,0,0,0c0,0,0,0,0,0c0.2,0,1.4,0,3.1,0.4c0.2,0,0.5,0.1,0.7,0.2C157.8,30.4,161.1,31.7,163.8,34.5z"/>
					<path class="st2" d="M156,29.9l0.7,0l0.4,0l1.9,0.1l1.5,0.1c0.3,0,0.4,0.3,0.3,0.6l0,0.1c-0.1,0.3-0.4,0.5-0.7,0.5l-3.6-0.2
						l-0.4,0l-0.1,0l-0.2,0c0,0-0.1,0-0.1,0c-0.2-0.1-0.3-0.3-0.2-0.6l0-0.1C155.4,30.2,155.7,29.9,156,29.9z"/>
				</g>
				<path class="st26" d="M163.7,35.7C163.7,35.8,163.7,35.8,163.7,35.7c-1.2-1.7-7.5-3-7.6-3c0,0,0,0,0-0.1c0,0,0,0,0.1,0
					C156.4,32.7,162.6,33.9,163.7,35.7z"/>
				<path class="st26" d="M164.1,35c-1.3-1.8-5.5-3.6-5.6-3.7c0,0-0.1,0-0.1,0c0,0,0,0.1,0,0.1c0,0,4.5,2,5.7,3.8l0,0L164.1,35z"/>
			</g>
		</g>
		<path class="st24" d="M155.3,29.9c0,0.7-0.3,1.4-0.7,2c-0.2,0.2-0.4,0.4-0.6,0.5c-0.3,0.3-0.7,0.5-1.1,0.6c0,0,0.1,0,0,0l-0.5-0.4
			l-0.1-0.1l-0.1-0.1c0,0-0.1-0.1-0.1-0.1c-0.6-0.8-0.8-1.8-0.6-2.9c0,0,0,0,0,0c0,0,0,0,0,0c0.2,0,1.4,0,3.1,0.4
			C154.8,29.7,155.1,29.8,155.3,29.9z"/>
	</g>
	<path class="st206" d="M291.5,85.3c-1.4-0.8-3.2-0.4-4.1,1l-10.6,17.5l-4-5.6c-0.9-1.3-2.8-1.7-4.1-0.7c-1.3,0.9-1.7,2.8-0.7,4.1
		l6.5,9.2c0,0,0,0,0,0c0.2,0.3,0.5,0.6,0.9,0.8c1.4,0.8,3.2,0.4,4.1-1l12.9-21.3C293.3,88,292.8,86.2,291.5,85.3z"/>
	<path class="st206" d="M201.8,26.4c-1.4-0.8-3.2-0.4-4.1,1l-10.6,17.5l-4-5.6c-0.9-1.3-2.8-1.7-4.1-0.7c-1.3,0.9-1.7,2.8-0.7,4.1
		l6.5,9.2c0,0,0,0,0,0c0.2,0.3,0.5,0.6,0.9,0.8c1.4,0.8,3.2,0.4,4.1-1l12.9-21.3C203.7,29.1,203.2,27.3,201.8,26.4z"/>
	<g>
		<circle class="st21" cx="137.8" cy="175.1" r="6.5"/>
		<circle class="st21" cx="197.7" cy="175" r="4.2"/>
		<path class="st3" d="M214.2,226.6v18.5h-94v-18.5c0-3.8,3-6.9,6.8-6.9h80.5C211.1,219.7,214.2,222.8,214.2,226.6z"/>
		<path class="st24" d="M178.1,203.8v14c0,5.9-4.8,10.6-10.6,10.6c-5.9,0-10.6-4.8-10.6-10.6v-13.3c0-2.2,1.8-4,4-4h13.9
			C176.6,200.4,178.1,201.9,178.1,203.8z"/>
		<path class="st26" d="M197.4,157v25.5c0,12.8-8.1,23.7-19.4,28v2.6c-3.3,1.2-6.8,1.9-10.5,1.9c-3.7,0-7.2-0.7-10.5-1.9v-2.6
			c-11.3-4.3-19.4-15.2-19.4-28V157c0-16.5,13.5-29.9,29.9-29.9c8.2,0,15.7,3.4,21.1,8.8C194,141.3,197.4,148.8,197.4,157z"/>
		<linearGradient id="SVGID_9_" gradientUnits="userSpaceOnUse" x1="167.4454" y1="215.114" x2="167.4454" y2="121.0609">
			<stop  offset="0" style="stop-color:#F8B133"/>
			<stop  offset="0.2151" style="stop-color:#F7AE32"/>
			<stop  offset="0.3826" style="stop-color:#F6A430"/>
			<stop  offset="0.5341" style="stop-color:#F3942C"/>
			<stop  offset="0.6761" style="stop-color:#EF7C26"/>
			<stop  offset="0.8103" style="stop-color:#EB5E1F"/>
			<stop  offset="0.8718" style="stop-color:#E84E1B"/>
		</linearGradient>
		<path class="st27" d="M197.7,153v30.1c0,13.6-8.2,25.4-19.7,29.9c-3.3,1.3-6.9,2-10.6,2s-7.3-0.7-10.6-2
			c-11.5-4.6-19.7-16.3-19.7-29.9V153c0-17.6,13.6-32,30.3-32c8.3,0,15.9,3.6,21.4,9.4C194.3,136.2,197.7,144.2,197.7,153z"/>
		<linearGradient id="SVGID_10_" gradientUnits="userSpaceOnUse" x1="205.5732" y1="166.1949" x2="197.7407" y2="166.1949">
			<stop  offset="4.358974e-02" style="stop-color:#F29100"/>
			<stop  offset="0.4307" style="stop-color:#F28F01"/>
			<stop  offset="0.6181" style="stop-color:#F18704"/>
			<stop  offset="0.7627" style="stop-color:#EF7A09"/>
			<stop  offset="0.8844" style="stop-color:#EC6811"/>
			<stop  offset="0.9921" style="stop-color:#E8501A"/>
			<stop  offset="1" style="stop-color:#E84E1B"/>
		</linearGradient>
		<path class="st28" d="M205.6,166.2c0,4.3-3.5,7.8-7.8,7.8v-15.7C202.1,158.4,205.6,161.9,205.6,166.2z"/>
		<linearGradient id="SVGID_11_" gradientUnits="userSpaceOnUse" x1="129.3178" y1="166.1949" x2="137.1503" y2="166.1949">
			<stop  offset="4.358974e-02" style="stop-color:#F29100"/>
			<stop  offset="0.4307" style="stop-color:#F28F01"/>
			<stop  offset="0.6181" style="stop-color:#F18704"/>
			<stop  offset="0.7627" style="stop-color:#EF7A09"/>
			<stop  offset="0.8844" style="stop-color:#EC6811"/>
			<stop  offset="0.9921" style="stop-color:#E8501A"/>
			<stop  offset="1" style="stop-color:#E84E1B"/>
		</linearGradient>
		<path class="st29" d="M129.3,166.2c0,4.3,3.5,7.8,7.8,7.8v-15.7C132.8,158.4,129.3,161.9,129.3,166.2z"/>
		<path class="st210" d="M166.5,175.2l0.2,6.2c0,1.3,0.7,2.4,1.6,2.7c1,0.4,1.8,1.9-1.4,6.8c0,0-0.3,0.5,0,0.7"/>
		<linearGradient id="SVGID_12_" gradientUnits="userSpaceOnUse" x1="138.4057" y1="218.8463" x2="138.4057" y2="245.0552">
			<stop  offset="0" style="stop-color:#260340"/>
			<stop  offset="0.4082" style="stop-color:#310F53"/>
			<stop  offset="0.7562" style="stop-color:#37155F"/>
			<stop  offset="1" style="stop-color:#391763"/>
		</linearGradient>
		<path class="st30" d="M156.7,219.7c0,0-1.2,7.1-5,14.7c0,0,0,0,0,0c-1.9,3.7-4.4,7.6-7.7,10.7h-23.8v-18.5c0,0-1.1-5.2,5.9-7
			c4.2-1,14.1-0.8,21.5-0.5C152.7,219.4,156.7,219.7,156.7,219.7z"/>
		<linearGradient id="SVGID_13_" gradientUnits="userSpaceOnUse" x1="196.0823" y1="218.8331" x2="196.0823" y2="245.0552">
			<stop  offset="0" style="stop-color:#260340"/>
			<stop  offset="0.4082" style="stop-color:#310F53"/>
			<stop  offset="0.7562" style="stop-color:#37155F"/>
			<stop  offset="1" style="stop-color:#391763"/>
		</linearGradient>
		<path class="st39" d="M214.2,226.8v18.2h-23.8c-9.7-8.9-12.2-24.2-12.4-25.4c0,0,0,0,0-0.1c0,0,0,0,0,0s0,0,0.1,0
			c0.5,0,4.2-0.3,9-0.5c7.3-0.3,17.1-0.5,21.3,0.5C215.4,221.3,214.2,226.8,214.2,226.8z"/>
		<linearGradient id="SVGID_14_" gradientUnits="userSpaceOnUse" x1="193.7771" y1="218.485" x2="193.7771" y2="245.0552">
			<stop  offset="2.820513e-02" style="stop-color:#2D2E82"/>
			<stop  offset="0.1407" style="stop-color:#312779"/>
			<stop  offset="0.3931" style="stop-color:#371B69"/>
			<stop  offset="0.5902" style="stop-color:#391763"/>
		</linearGradient>
		<path class="st40" d="M203.5,245.1h-24.2c-2.1-7.4-3-16.1-1.4-25.4c0,0,0,0,0-0.1l0.1,0l3.6-1.1c0,0,2.6-0.1,5.4,0.6
			c0.6,0.1,1.3,0.3,1.9,0.6c1.8,0.7,3.5,1.9,4.2,3.8c2.6,6.8,4.4,11.4,13.2,13.2C214.4,238.3,209.4,243.1,203.5,245.1z"/>
		<linearGradient id="SVGID_15_" gradientUnits="userSpaceOnUse" x1="141.0423" y1="218.4848" x2="141.0423" y2="245.0552">
			<stop  offset="2.820513e-02" style="stop-color:#2D2E82"/>
			<stop  offset="0.1407" style="stop-color:#312779"/>
			<stop  offset="0.3931" style="stop-color:#371B69"/>
			<stop  offset="0.5902" style="stop-color:#391763"/>
		</linearGradient>
		<path class="st49" d="M157.3,236.9c0,0.1,0,0.1,0,0.2c-0.1,0.8-0.2,1.7-0.4,2.5c-0.4,1.9-0.8,3.7-1.3,5.5h-24.4
			c-5.9-1.9-10.9-6.8-2.7-8.4c6.3-1.3,9-4,11-7.9c0-0.1,0.1-0.2,0.1-0.2c0.7-1.5,1.4-3.2,2.1-5c0.7-1.9,2.4-3.1,4.2-3.8
			c0.6-0.2,1.1-0.4,1.7-0.5c2.8-0.7,5.6-0.6,5.6-0.6l3.8,1.2C158.1,225.8,158.1,231.6,157.3,236.9z"/>
		<path class="st21" d="M146.4,161.4c-0.3,0-0.6-0.1-0.8-0.3c-0.5-0.4-0.6-1.2-0.2-1.8c3.4-4.3,9.7-5,14-1.5
			c0.5,0.4,0.6,1.2,0.2,1.8c-0.4,0.5-1.2,0.6-1.8,0.2c-3.2-2.6-7.9-2.1-10.4,1.1C147.1,161.2,146.8,161.4,146.4,161.4z"/>
		<path class="st21" d="M186.7,161c-0.3,0-0.7-0.1-0.9-0.4c-1.3-1.5-3.2-2.3-5.1-2.4c-2-0.1-3.9,0.6-5.3,1.9
			c-0.5,0.5-1.3,0.4-1.8-0.1c-0.5-0.5-0.4-1.3,0.1-1.8c2-1.8,4.5-2.7,7.2-2.6c2.7,0.1,5.1,1.3,6.9,3.2c0.5,0.5,0.4,1.3-0.1,1.8
			C187.3,160.9,187,161,186.7,161z"/>
		<path class="st61" d="M139.8,123c-0.2,0-0.4-0.2-0.4-0.4c0-4.1,3.3-7.4,7.4-7.4c0.2,0,0.4,0.2,0.4,0.4c0,0.2-0.2,0.4-0.4,0.4
			c-3.6,0-6.6,3-6.6,6.6C140.2,122.8,140,123,139.8,123z"/>
		
			<linearGradient id="SVGID_16_" gradientUnits="userSpaceOnUse" x1="146.4121" y1="165.1182" x2="146.4121" y2="174.1856" gradientTransform="matrix(1 0 0 1 7.2538 0)">
			<stop  offset="0" style="stop-color:#2D2E82"/>
			<stop  offset="0.1184" style="stop-color:#1C2969"/>
			<stop  offset="0.2581" style="stop-color:#0C2452"/>
			<stop  offset="0.3462" style="stop-color:#06224A"/>
		</linearGradient>
		<path class="st51" d="M153.7,174.2L153.7,174.2c-1.7,0-3.1-1.4-3.1-3.1v-2.8c0-1.7,1.4-3.1,3.1-3.1l0,0c1.7,0,3.1,1.4,3.1,3.1v2.8
			C156.8,172.8,155.4,174.2,153.7,174.2z"/>
		
			<linearGradient id="SVGID_17_" gradientUnits="userSpaceOnUse" x1="173.6804" y1="165.1182" x2="173.6804" y2="174.1856" gradientTransform="matrix(1 0 0 1 7.2538 0)">
			<stop  offset="0" style="stop-color:#2D2E82"/>
			<stop  offset="5.917066e-02" style="stop-color:#212A71"/>
			<stop  offset="0.1536" style="stop-color:#12265B"/>
			<stop  offset="0.2453" style="stop-color:#09234E"/>
			<stop  offset="0.3308" style="stop-color:#06224A"/>
		</linearGradient>
		<path class="st52" d="M180.9,174.2L180.9,174.2c-1.7,0-3.1-1.4-3.1-3.1v-2.8c0-1.7,1.4-3.1,3.1-3.1h0c1.7,0,3.1,1.4,3.1,3.1v2.8
			C184.1,172.8,182.7,174.2,180.9,174.2z"/>
		<ellipse class="st3" cx="151.1" cy="167.9" rx="1.3" ry="1.3"/>
		<ellipse class="st3" cx="177.8" cy="167.9" rx="1.3" ry="1.3"/>
		<path class="st210" d="M160.6,198.9c0,0,6,3.7,11.8,0"/>
		<g>
			<g>
				<path class="st217" d="M159.6,176.5h-17c-1.6,0-2.8-1.3-2.8-2.8v-7.5c0-1.6,1.3-2.8,2.8-2.8h17c1.6,0,2.8,1.3,2.8,2.8v7.5
					C162.4,175.2,161.1,176.5,159.6,176.5z"/>
				<path class="st217" d="M191.1,176.5h-17c-1.6,0-2.8-1.3-2.8-2.8v-7.5c0-1.6,1.3-2.8,2.8-2.8h17c1.6,0,2.8,1.3,2.8,2.8v7.5
					C194,175.2,192.7,176.5,191.1,176.5z"/>
				<path class="st218" d="M158.6,163.2H175c0,0-2.6-0.3-3.8,2.6h-8.8C162.4,165.8,162.3,163.2,158.6,163.2z"/>
			</g>
			<path class="st219" d="M201.7,156.1l-11.5,7.2c0,0,2.3,0.2,3.1,1.7l12-7.6C205.3,157.2,204.3,155.4,201.7,156.1z"/>
			<path class="st219" d="M134.9,156.5l7.2,6.7c0,0-2.3,0.2-3.1,1.7l-7.8-7.2C131.2,157.7,132.2,155.9,134.9,156.5z"/>
		</g>
		<g>
			<linearGradient id="SVGID_18_" gradientUnits="userSpaceOnUse" x1="167.8311" y1="164.1428" x2="167.8311" y2="103.9716">
				<stop  offset="0" style="stop-color:#534741"/>
				<stop  offset="0.403" style="stop-color:#746E6B"/>
				<stop  offset="0.7899" style="stop-color:#8F8D8C"/>
				<stop  offset="1" style="stop-color:#999999"/>
			</linearGradient>
			<path class="st53" d="M207.4,145.7c2.4-1.2,4-3.7,4-6.5c0-3.6-2.6-6.6-6-7.2c-0.2-0.3-0.4-0.6-0.6-1c0.4-0.6,0.6-1.4,0.6-2.2
				c0-1.6-0.9-3-2.2-3.7c0.4-0.8,0.6-1.8,0.6-2.8c0-3.6-2.9-6.4-6.4-6.4c-1.4,0-2.8,0.5-3.8,1.3c-2.2-3.5-6-5.8-10.4-5.8
				c-0.9,0-1.7,0.1-2.5,0.3c0-0.1,0-0.2,0-0.3c0-2.3-1.9-4.2-4.2-4.2c-1.1,0-2.2,0.4-2.9,1.2c-2.2-2.4-5.4-3.8-8.9-3.8
				c-1.3,0-2.6,0.2-3.8,0.6c-0.7-0.7-1.8-1.2-2.9-1.2c-2.3,0-4.2,1.9-4.2,4.2c0,0.1,0,0.2,0,0.3c-0.5-0.2-1-0.3-1.5-0.3
				c-2.3,0-4.2,1.9-4.2,4.2c0,0,0,0,0,0c-0.2,0-0.5,0-0.7,0c-6,0-11,4.3-12.1,10c-0.1,0-0.1,0-0.2,0c-2,0-3.6,1.3-4,3.2
				c-0.4-0.2-0.8-0.3-1.2-0.3c-1.5,0-2.8,1.2-2.8,2.8c0,0.8,0.4,1.6,0.9,2.1c-2.3,2.6-3.7,6-3.7,9.7c0,4.1,1.7,7.7,4.4,10.4
				c-1.8,0.5-3,2.1-3,4c0,2.3,1.9,4.2,4.2,4.2c0,0,0,0,0,0c0.3,3.3,3,5.9,6.4,5.9c3.6,0,6.4-2.9,6.4-6.4c0-1.4-0.5-2.7-1.2-3.8
				c3.2-0.6,6.1-2.3,8.2-4.7c1,0.7,2.3,1.1,3.6,1.1c1.3,0,2.5-0.4,3.5-1.1c2.5,2.1,5.8,3.4,9.3,3.4c3.9,0,7.5-1.6,10.1-4.1
				c1.2,1.1,2.7,1.8,4.4,1.8c0.4,0,0.7,0,1-0.1c1.5,5.1,6.2,8.9,11.8,8.9c0.5,0,1,0,1.5-0.1c0.6,2.9,3.2,5.1,6.3,5.1
				c3.6,0,6.4-2.9,6.4-6.4c0-1.6-0.6-3.1-1.6-4.2c2-0.3,3.5-2,3.5-4.1C209.6,147.7,208.7,146.4,207.4,145.7z"/>
			<path class="st61" d="M166.9,150.4c-2.8,0-5.5-1.1-7.5-3.1c-0.2-0.2-0.2-0.4,0-0.6c0.2-0.2,0.4-0.2,0.6,0
				c1.8,1.8,4.3,2.9,6.9,2.9s5.1-1,6.9-2.9c0.2-0.2,0.4-0.2,0.6,0c0.2,0.2,0.2,0.4,0,0.6C172.4,149.3,169.8,150.4,166.9,150.4z"/>
			<path class="st61" d="M191.6,156.2c-1.2,0-2.4-0.3-3.5-0.9c-1.7-0.9-2.9-2.5-3.4-4.3c-0.1-0.2,0.1-0.5,0.3-0.5
				c0.2-0.1,0.5,0.1,0.5,0.3c0.5,1.6,1.5,3,3,3.8c1.5,0.8,3.2,1,4.8,0.6c0.2-0.1,0.5,0.1,0.5,0.3c0.1,0.2-0.1,0.5-0.3,0.5
				C192.9,156.1,192.3,156.2,191.6,156.2z"/>
			<path class="st61" d="M135.9,163.1c-0.7,0-1.4-0.1-2-0.4c-0.2-0.1-0.3-0.3-0.2-0.6c0.1-0.2,0.3-0.3,0.6-0.2
				c2.2,0.9,4.7-0.1,5.7-2.3c0.1-0.2,0.3-0.3,0.6-0.2c0.2,0.1,0.3,0.3,0.2,0.6C139.8,162,137.9,163.1,135.9,163.1z"/>
			<path class="st61" d="M201.4,163.3c-0.5,0-1.1-0.1-1.6-0.3c-0.2-0.1-0.3-0.3-0.3-0.5c0.1-0.2,0.3-0.3,0.5-0.3
				c1.1,0.4,2.3,0.3,3.3-0.3c1-0.5,1.8-1.4,2.2-2.5c0.1-0.2,0.3-0.3,0.5-0.3c0.2,0.1,0.3,0.3,0.3,0.5c-0.4,1.3-1.3,2.4-2.6,3
				C203,163.1,202.2,163.3,201.4,163.3z"/>
			<path class="st61" d="M130.6,146.5c-0.1,0-0.2,0-0.3-0.1c-2-2-3.1-4.7-3.1-7.5c0-2.8,1.1-5.5,3.1-7.5c0.2-0.2,0.4-0.2,0.6,0
				c0.2,0.2,0.2,0.4,0,0.6c-1.8,1.8-2.9,4.3-2.9,6.9c0,2.6,1,5.1,2.9,6.9c0.2,0.2,0.2,0.4,0,0.6
				C130.8,146.4,130.7,146.5,130.6,146.5z"/>
		</g>
	</g>
</g>
<g id="starten_test">
</g>
</svg>
